G04 #@! TF.GenerationSoftware,KiCad,Pcbnew,(5.1.5)-3*
G04 #@! TF.CreationDate,2020-04-07T22:18:27-04:00*
G04 #@! TF.ProjectId,PicoTrackerWSPR2Rev2,5069636f-5472-4616-936b-657257535052,rev?*
G04 #@! TF.SameCoordinates,Original*
G04 #@! TF.FileFunction,Legend,Top*
G04 #@! TF.FilePolarity,Positive*
%FSLAX46Y46*%
G04 Gerber Fmt 4.6, Leading zero omitted, Abs format (unit mm)*
G04 Created by KiCad (PCBNEW (5.1.5)-3) date 2020-04-07 22:18:27*
%MOMM*%
%LPD*%
G04 APERTURE LIST*
%ADD10C,0.150000*%
%ADD11C,0.125000*%
%ADD12C,0.100000*%
%ADD13C,0.200000*%
%ADD14C,0.120000*%
%ADD15C,0.203200*%
%ADD16C,0.250000*%
G04 APERTURE END LIST*
D10*
X62255619Y-69072571D02*
X62255619Y-68501142D01*
X62255619Y-68786857D02*
X63255619Y-68786857D01*
X63112761Y-68691619D01*
X63017523Y-68596380D01*
X62969904Y-68501142D01*
X63160380Y-69453523D02*
X63208000Y-69501142D01*
X63255619Y-69596380D01*
X63255619Y-69834476D01*
X63208000Y-69929714D01*
X63160380Y-69977333D01*
X63065142Y-70024952D01*
X62969904Y-70024952D01*
X62827047Y-69977333D01*
X62255619Y-69405904D01*
X62255619Y-70024952D01*
X62350857Y-70453523D02*
X62303238Y-70501142D01*
X62255619Y-70453523D01*
X62303238Y-70405904D01*
X62350857Y-70453523D01*
X62255619Y-70453523D01*
X62255619Y-71453523D02*
X62255619Y-70882095D01*
X62255619Y-71167809D02*
X63255619Y-71167809D01*
X63112761Y-71072571D01*
X63017523Y-70977333D01*
X62969904Y-70882095D01*
X62255619Y-71929714D02*
X62255619Y-72120190D01*
X62303238Y-72215428D01*
X62350857Y-72263047D01*
X62493714Y-72358285D01*
X62684190Y-72405904D01*
X63065142Y-72405904D01*
X63160380Y-72358285D01*
X63208000Y-72310666D01*
X63255619Y-72215428D01*
X63255619Y-72024952D01*
X63208000Y-71929714D01*
X63160380Y-71882095D01*
X63065142Y-71834476D01*
X62827047Y-71834476D01*
X62731809Y-71882095D01*
X62684190Y-71929714D01*
X62636571Y-72024952D01*
X62636571Y-72215428D01*
X62684190Y-72310666D01*
X62731809Y-72358285D01*
X62827047Y-72405904D01*
X63160380Y-72786857D02*
X63208000Y-72834476D01*
X63255619Y-72929714D01*
X63255619Y-73167809D01*
X63208000Y-73263047D01*
X63160380Y-73310666D01*
X63065142Y-73358285D01*
X62969904Y-73358285D01*
X62827047Y-73310666D01*
X62255619Y-72739238D01*
X62255619Y-73358285D01*
X62255619Y-74548761D02*
X62922285Y-74548761D01*
X62827047Y-74548761D02*
X62874666Y-74596380D01*
X62922285Y-74691619D01*
X62922285Y-74834476D01*
X62874666Y-74929714D01*
X62779428Y-74977333D01*
X62255619Y-74977333D01*
X62779428Y-74977333D02*
X62874666Y-75024952D01*
X62922285Y-75120190D01*
X62922285Y-75263047D01*
X62874666Y-75358285D01*
X62779428Y-75405904D01*
X62255619Y-75405904D01*
X62255619Y-75882095D02*
X62922285Y-75882095D01*
X62827047Y-75882095D02*
X62874666Y-75929714D01*
X62922285Y-76024952D01*
X62922285Y-76167809D01*
X62874666Y-76263047D01*
X62779428Y-76310666D01*
X62255619Y-76310666D01*
X62779428Y-76310666D02*
X62874666Y-76358285D01*
X62922285Y-76453523D01*
X62922285Y-76596380D01*
X62874666Y-76691619D01*
X62779428Y-76739238D01*
X62255619Y-76739238D01*
X64008000Y-66548000D02*
X64008000Y-78740000D01*
X67818000Y-66548000D02*
X63421579Y-66548000D01*
X67818000Y-78740000D02*
X63421579Y-78740000D01*
X64008000Y-78740000D02*
X63421579Y-77613496D01*
X64008000Y-78740000D02*
X64594421Y-77613496D01*
X64008000Y-66548000D02*
X63421579Y-67674504D01*
X64008000Y-66548000D02*
X64594421Y-67674504D01*
X88408333Y-58937714D02*
X88408333Y-59604380D01*
X88170238Y-58556761D02*
X87932142Y-59271047D01*
X88551190Y-59271047D01*
X88884523Y-58699619D02*
X88932142Y-58652000D01*
X89027380Y-58604380D01*
X89265476Y-58604380D01*
X89360714Y-58652000D01*
X89408333Y-58699619D01*
X89455952Y-58794857D01*
X89455952Y-58890095D01*
X89408333Y-59032952D01*
X88836904Y-59604380D01*
X89455952Y-59604380D01*
X89884523Y-59509142D02*
X89932142Y-59556761D01*
X89884523Y-59604380D01*
X89836904Y-59556761D01*
X89884523Y-59509142D01*
X89884523Y-59604380D01*
X90408333Y-59604380D02*
X90598809Y-59604380D01*
X90694047Y-59556761D01*
X90741666Y-59509142D01*
X90836904Y-59366285D01*
X90884523Y-59175809D01*
X90884523Y-58794857D01*
X90836904Y-58699619D01*
X90789285Y-58652000D01*
X90694047Y-58604380D01*
X90503571Y-58604380D01*
X90408333Y-58652000D01*
X90360714Y-58699619D01*
X90313095Y-58794857D01*
X90313095Y-59032952D01*
X90360714Y-59128190D01*
X90408333Y-59175809D01*
X90503571Y-59223428D01*
X90694047Y-59223428D01*
X90789285Y-59175809D01*
X90836904Y-59128190D01*
X90884523Y-59032952D01*
X91265476Y-58699619D02*
X91313095Y-58652000D01*
X91408333Y-58604380D01*
X91646428Y-58604380D01*
X91741666Y-58652000D01*
X91789285Y-58699619D01*
X91836904Y-58794857D01*
X91836904Y-58890095D01*
X91789285Y-59032952D01*
X91217857Y-59604380D01*
X91836904Y-59604380D01*
X92694047Y-58604380D02*
X92503571Y-58604380D01*
X92408333Y-58652000D01*
X92360714Y-58699619D01*
X92265476Y-58842476D01*
X92217857Y-59032952D01*
X92217857Y-59413904D01*
X92265476Y-59509142D01*
X92313095Y-59556761D01*
X92408333Y-59604380D01*
X92598809Y-59604380D01*
X92694047Y-59556761D01*
X92741666Y-59509142D01*
X92789285Y-59413904D01*
X92789285Y-59175809D01*
X92741666Y-59080571D01*
X92694047Y-59032952D01*
X92598809Y-58985333D01*
X92408333Y-58985333D01*
X92313095Y-59032952D01*
X92265476Y-59080571D01*
X92217857Y-59175809D01*
X93979761Y-59604380D02*
X93979761Y-58937714D01*
X93979761Y-59032952D02*
X94027380Y-58985333D01*
X94122619Y-58937714D01*
X94265476Y-58937714D01*
X94360714Y-58985333D01*
X94408333Y-59080571D01*
X94408333Y-59604380D01*
X94408333Y-59080571D02*
X94455952Y-58985333D01*
X94551190Y-58937714D01*
X94694047Y-58937714D01*
X94789285Y-58985333D01*
X94836904Y-59080571D01*
X94836904Y-59604380D01*
X95313095Y-59604380D02*
X95313095Y-58937714D01*
X95313095Y-59032952D02*
X95360714Y-58985333D01*
X95455952Y-58937714D01*
X95598809Y-58937714D01*
X95694047Y-58985333D01*
X95741666Y-59080571D01*
X95741666Y-59604380D01*
X95741666Y-59080571D02*
X95789285Y-58985333D01*
X95884523Y-58937714D01*
X96027380Y-58937714D01*
X96122619Y-58985333D01*
X96170238Y-59080571D01*
X96170238Y-59604380D01*
X70612000Y-60452000D02*
X113538000Y-60452000D01*
X70612000Y-64516000D02*
X70612000Y-59865579D01*
X113538000Y-64516000D02*
X113538000Y-59865579D01*
X113538000Y-60452000D02*
X112411496Y-61038421D01*
X113538000Y-60452000D02*
X112411496Y-59865579D01*
X70612000Y-60452000D02*
X71738504Y-61038421D01*
X70612000Y-60452000D02*
X71738504Y-59865579D01*
D11*
X94108869Y-81521190D02*
X94275535Y-82021190D01*
X94442202Y-81521190D01*
X94894583Y-81973571D02*
X94870773Y-81997380D01*
X94799345Y-82021190D01*
X94751726Y-82021190D01*
X94680297Y-81997380D01*
X94632678Y-81949761D01*
X94608869Y-81902142D01*
X94585059Y-81806904D01*
X94585059Y-81735476D01*
X94608869Y-81640238D01*
X94632678Y-81592619D01*
X94680297Y-81545000D01*
X94751726Y-81521190D01*
X94799345Y-81521190D01*
X94870773Y-81545000D01*
X94894583Y-81568809D01*
X95394583Y-81973571D02*
X95370773Y-81997380D01*
X95299345Y-82021190D01*
X95251726Y-82021190D01*
X95180297Y-81997380D01*
X95132678Y-81949761D01*
X95108869Y-81902142D01*
X95085059Y-81806904D01*
X95085059Y-81735476D01*
X95108869Y-81640238D01*
X95132678Y-81592619D01*
X95180297Y-81545000D01*
X95251726Y-81521190D01*
X95299345Y-81521190D01*
X95370773Y-81545000D01*
X95394583Y-81568809D01*
X94442202Y-82420000D02*
X94394583Y-82396190D01*
X94323154Y-82396190D01*
X94251726Y-82420000D01*
X94204107Y-82467619D01*
X94180297Y-82515238D01*
X94156488Y-82610476D01*
X94156488Y-82681904D01*
X94180297Y-82777142D01*
X94204107Y-82824761D01*
X94251726Y-82872380D01*
X94323154Y-82896190D01*
X94370773Y-82896190D01*
X94442202Y-82872380D01*
X94466011Y-82848571D01*
X94466011Y-82681904D01*
X94370773Y-82681904D01*
X94680297Y-82896190D02*
X94680297Y-82396190D01*
X94966011Y-82896190D01*
X94966011Y-82396190D01*
X95204107Y-82896190D02*
X95204107Y-82396190D01*
X95323154Y-82396190D01*
X95394583Y-82420000D01*
X95442202Y-82467619D01*
X95466011Y-82515238D01*
X95489821Y-82610476D01*
X95489821Y-82681904D01*
X95466011Y-82777142D01*
X95442202Y-82824761D01*
X95394583Y-82872380D01*
X95323154Y-82896190D01*
X95204107Y-82896190D01*
X96648869Y-81521190D02*
X96815535Y-82021190D01*
X96982202Y-81521190D01*
X97434583Y-81973571D02*
X97410773Y-81997380D01*
X97339345Y-82021190D01*
X97291726Y-82021190D01*
X97220297Y-81997380D01*
X97172678Y-81949761D01*
X97148869Y-81902142D01*
X97125059Y-81806904D01*
X97125059Y-81735476D01*
X97148869Y-81640238D01*
X97172678Y-81592619D01*
X97220297Y-81545000D01*
X97291726Y-81521190D01*
X97339345Y-81521190D01*
X97410773Y-81545000D01*
X97434583Y-81568809D01*
X97934583Y-81973571D02*
X97910773Y-81997380D01*
X97839345Y-82021190D01*
X97791726Y-82021190D01*
X97720297Y-81997380D01*
X97672678Y-81949761D01*
X97648869Y-81902142D01*
X97625059Y-81806904D01*
X97625059Y-81735476D01*
X97648869Y-81640238D01*
X97672678Y-81592619D01*
X97720297Y-81545000D01*
X97791726Y-81521190D01*
X97839345Y-81521190D01*
X97910773Y-81545000D01*
X97934583Y-81568809D01*
X96982202Y-82420000D02*
X96934583Y-82396190D01*
X96863154Y-82396190D01*
X96791726Y-82420000D01*
X96744107Y-82467619D01*
X96720297Y-82515238D01*
X96696488Y-82610476D01*
X96696488Y-82681904D01*
X96720297Y-82777142D01*
X96744107Y-82824761D01*
X96791726Y-82872380D01*
X96863154Y-82896190D01*
X96910773Y-82896190D01*
X96982202Y-82872380D01*
X97006011Y-82848571D01*
X97006011Y-82681904D01*
X96910773Y-82681904D01*
X97220297Y-82896190D02*
X97220297Y-82396190D01*
X97506011Y-82896190D01*
X97506011Y-82396190D01*
X97744107Y-82896190D02*
X97744107Y-82396190D01*
X97863154Y-82396190D01*
X97934583Y-82420000D01*
X97982202Y-82467619D01*
X98006011Y-82515238D01*
X98029821Y-82610476D01*
X98029821Y-82681904D01*
X98006011Y-82777142D01*
X97982202Y-82824761D01*
X97934583Y-82872380D01*
X97863154Y-82896190D01*
X97744107Y-82896190D01*
X83893297Y-92181190D02*
X83893297Y-91681190D01*
X84083773Y-91681190D01*
X84131392Y-91705000D01*
X84155202Y-91728809D01*
X84179011Y-91776428D01*
X84179011Y-91847857D01*
X84155202Y-91895476D01*
X84131392Y-91919285D01*
X84083773Y-91943095D01*
X83893297Y-91943095D01*
X84679011Y-92181190D02*
X84512345Y-91943095D01*
X84393297Y-92181190D02*
X84393297Y-91681190D01*
X84583773Y-91681190D01*
X84631392Y-91705000D01*
X84655202Y-91728809D01*
X84679011Y-91776428D01*
X84679011Y-91847857D01*
X84655202Y-91895476D01*
X84631392Y-91919285D01*
X84583773Y-91943095D01*
X84393297Y-91943095D01*
X84988535Y-91681190D02*
X85083773Y-91681190D01*
X85131392Y-91705000D01*
X85179011Y-91752619D01*
X85202821Y-91847857D01*
X85202821Y-92014523D01*
X85179011Y-92109761D01*
X85131392Y-92157380D01*
X85083773Y-92181190D01*
X84988535Y-92181190D01*
X84940916Y-92157380D01*
X84893297Y-92109761D01*
X84869488Y-92014523D01*
X84869488Y-91847857D01*
X84893297Y-91752619D01*
X84940916Y-91705000D01*
X84988535Y-91681190D01*
X85679011Y-91705000D02*
X85631392Y-91681190D01*
X85559964Y-91681190D01*
X85488535Y-91705000D01*
X85440916Y-91752619D01*
X85417107Y-91800238D01*
X85393297Y-91895476D01*
X85393297Y-91966904D01*
X85417107Y-92062142D01*
X85440916Y-92109761D01*
X85488535Y-92157380D01*
X85559964Y-92181190D01*
X85607583Y-92181190D01*
X85679011Y-92157380D01*
X85702821Y-92133571D01*
X85702821Y-91966904D01*
X85607583Y-91966904D01*
X83893297Y-93056190D02*
X83893297Y-92556190D01*
X83893297Y-92794285D02*
X84179011Y-92794285D01*
X84179011Y-93056190D02*
X84179011Y-92556190D01*
X84417107Y-93056190D02*
X84417107Y-92556190D01*
X84536154Y-92556190D01*
X84607583Y-92580000D01*
X84655202Y-92627619D01*
X84679011Y-92675238D01*
X84702821Y-92770476D01*
X84702821Y-92841904D01*
X84679011Y-92937142D01*
X84655202Y-92984761D01*
X84607583Y-93032380D01*
X84536154Y-93056190D01*
X84417107Y-93056190D01*
X85202821Y-93056190D02*
X85036154Y-92818095D01*
X84917107Y-93056190D02*
X84917107Y-92556190D01*
X85107583Y-92556190D01*
X85155202Y-92580000D01*
X85179011Y-92603809D01*
X85202821Y-92651428D01*
X85202821Y-92722857D01*
X85179011Y-92770476D01*
X85155202Y-92794285D01*
X85107583Y-92818095D01*
X84917107Y-92818095D01*
D10*
X88138000Y-88582500D02*
X86233000Y-88582500D01*
X88138000Y-86042500D02*
X88138000Y-88582500D01*
X86868000Y-86042500D02*
X88138000Y-86042500D01*
D11*
X102284488Y-94578333D02*
X102522583Y-94578333D01*
X102236869Y-94721190D02*
X102403535Y-94221190D01*
X102570202Y-94721190D01*
X102474964Y-95334285D02*
X102546392Y-95358095D01*
X102570202Y-95381904D01*
X102594011Y-95429523D01*
X102594011Y-95500952D01*
X102570202Y-95548571D01*
X102546392Y-95572380D01*
X102498773Y-95596190D01*
X102308297Y-95596190D01*
X102308297Y-95096190D01*
X102474964Y-95096190D01*
X102522583Y-95120000D01*
X102546392Y-95143809D01*
X102570202Y-95191428D01*
X102570202Y-95239047D01*
X102546392Y-95286666D01*
X102522583Y-95310476D01*
X102474964Y-95334285D01*
X102308297Y-95334285D01*
X99363488Y-94578333D02*
X99601583Y-94578333D01*
X99315869Y-94721190D02*
X99482535Y-94221190D01*
X99649202Y-94721190D01*
X100101583Y-94721190D02*
X99934916Y-94483095D01*
X99815869Y-94721190D02*
X99815869Y-94221190D01*
X100006345Y-94221190D01*
X100053964Y-94245000D01*
X100077773Y-94268809D01*
X100101583Y-94316428D01*
X100101583Y-94387857D01*
X100077773Y-94435476D01*
X100053964Y-94459285D01*
X100006345Y-94483095D01*
X99815869Y-94483095D01*
X100268250Y-94221190D02*
X100601583Y-94721190D01*
X100601583Y-94221190D02*
X100268250Y-94721190D01*
X99363488Y-95453333D02*
X99601583Y-95453333D01*
X99315869Y-95596190D02*
X99482535Y-95096190D01*
X99649202Y-95596190D01*
X99744440Y-95096190D02*
X100030154Y-95096190D01*
X99887297Y-95596190D02*
X99887297Y-95096190D01*
X100149202Y-95096190D02*
X100482535Y-95596190D01*
X100482535Y-95096190D02*
X100149202Y-95596190D01*
X96823488Y-94697380D02*
X96894916Y-94721190D01*
X97013964Y-94721190D01*
X97061583Y-94697380D01*
X97085392Y-94673571D01*
X97109202Y-94625952D01*
X97109202Y-94578333D01*
X97085392Y-94530714D01*
X97061583Y-94506904D01*
X97013964Y-94483095D01*
X96918726Y-94459285D01*
X96871107Y-94435476D01*
X96847297Y-94411666D01*
X96823488Y-94364047D01*
X96823488Y-94316428D01*
X96847297Y-94268809D01*
X96871107Y-94245000D01*
X96918726Y-94221190D01*
X97037773Y-94221190D01*
X97109202Y-94245000D01*
X97323488Y-94721190D02*
X97323488Y-94221190D01*
X97442535Y-94221190D01*
X97513964Y-94245000D01*
X97561583Y-94292619D01*
X97585392Y-94340238D01*
X97609202Y-94435476D01*
X97609202Y-94506904D01*
X97585392Y-94602142D01*
X97561583Y-94649761D01*
X97513964Y-94697380D01*
X97442535Y-94721190D01*
X97323488Y-94721190D01*
X97799678Y-94578333D02*
X98037773Y-94578333D01*
X97752059Y-94721190D02*
X97918726Y-94221190D01*
X98085392Y-94721190D01*
X96823488Y-95572380D02*
X96894916Y-95596190D01*
X97013964Y-95596190D01*
X97061583Y-95572380D01*
X97085392Y-95548571D01*
X97109202Y-95500952D01*
X97109202Y-95453333D01*
X97085392Y-95405714D01*
X97061583Y-95381904D01*
X97013964Y-95358095D01*
X96918726Y-95334285D01*
X96871107Y-95310476D01*
X96847297Y-95286666D01*
X96823488Y-95239047D01*
X96823488Y-95191428D01*
X96847297Y-95143809D01*
X96871107Y-95120000D01*
X96918726Y-95096190D01*
X97037773Y-95096190D01*
X97109202Y-95120000D01*
X97609202Y-95548571D02*
X97585392Y-95572380D01*
X97513964Y-95596190D01*
X97466345Y-95596190D01*
X97394916Y-95572380D01*
X97347297Y-95524761D01*
X97323488Y-95477142D01*
X97299678Y-95381904D01*
X97299678Y-95310476D01*
X97323488Y-95215238D01*
X97347297Y-95167619D01*
X97394916Y-95120000D01*
X97466345Y-95096190D01*
X97513964Y-95096190D01*
X97585392Y-95120000D01*
X97609202Y-95143809D01*
X98061583Y-95596190D02*
X97823488Y-95596190D01*
X97823488Y-95096190D01*
X94442202Y-94245000D02*
X94394583Y-94221190D01*
X94323154Y-94221190D01*
X94251726Y-94245000D01*
X94204107Y-94292619D01*
X94180297Y-94340238D01*
X94156488Y-94435476D01*
X94156488Y-94506904D01*
X94180297Y-94602142D01*
X94204107Y-94649761D01*
X94251726Y-94697380D01*
X94323154Y-94721190D01*
X94370773Y-94721190D01*
X94442202Y-94697380D01*
X94466011Y-94673571D01*
X94466011Y-94506904D01*
X94370773Y-94506904D01*
X94966011Y-94721190D02*
X94799345Y-94483095D01*
X94680297Y-94721190D02*
X94680297Y-94221190D01*
X94870773Y-94221190D01*
X94918392Y-94245000D01*
X94942202Y-94268809D01*
X94966011Y-94316428D01*
X94966011Y-94387857D01*
X94942202Y-94435476D01*
X94918392Y-94459285D01*
X94870773Y-94483095D01*
X94680297Y-94483095D01*
X95132678Y-94221190D02*
X95466011Y-94721190D01*
X95466011Y-94221190D02*
X95132678Y-94721190D01*
X94442202Y-95120000D02*
X94394583Y-95096190D01*
X94323154Y-95096190D01*
X94251726Y-95120000D01*
X94204107Y-95167619D01*
X94180297Y-95215238D01*
X94156488Y-95310476D01*
X94156488Y-95381904D01*
X94180297Y-95477142D01*
X94204107Y-95524761D01*
X94251726Y-95572380D01*
X94323154Y-95596190D01*
X94370773Y-95596190D01*
X94442202Y-95572380D01*
X94466011Y-95548571D01*
X94466011Y-95381904D01*
X94370773Y-95381904D01*
X94608869Y-95096190D02*
X94894583Y-95096190D01*
X94751726Y-95596190D02*
X94751726Y-95096190D01*
X95013630Y-95096190D02*
X95346964Y-95596190D01*
X95346964Y-95096190D02*
X95013630Y-95596190D01*
D12*
X99025000Y-70955000D02*
X99025000Y-72555000D01*
X97825000Y-70955000D02*
X97825000Y-72555000D01*
D13*
X99187000Y-70643000D02*
X99187000Y-70643000D01*
D14*
X95920000Y-72298000D02*
X95920000Y-71598000D01*
X97120000Y-71598000D02*
X97120000Y-72298000D01*
X100676000Y-70836000D02*
X100676000Y-71536000D01*
X99476000Y-71536000D02*
X99476000Y-70836000D01*
X99476000Y-76230000D02*
X99476000Y-75530000D01*
X100676000Y-75530000D02*
X100676000Y-76230000D01*
X106502000Y-73895500D02*
X105502000Y-73895500D01*
X105502000Y-72535500D02*
X106502000Y-72535500D01*
X106502000Y-72371500D02*
X105502000Y-72371500D01*
X105502000Y-71011500D02*
X106502000Y-71011500D01*
X106502000Y-70847500D02*
X105502000Y-70847500D01*
X105502000Y-69487500D02*
X106502000Y-69487500D01*
D15*
X103159560Y-71894700D02*
G75*
G03X103159560Y-71290180I0J302260D01*
G01*
X103159560Y-71892160D02*
X103159560Y-71290180D01*
X103761540Y-70990460D02*
X103761540Y-73789540D01*
X100962460Y-70990460D02*
X103761540Y-70990460D01*
X100962460Y-73789540D02*
X100962460Y-70990460D01*
X103761540Y-73789540D02*
X100962460Y-73789540D01*
D14*
X75227800Y-77626200D02*
X75227800Y-77286200D01*
X85147800Y-67646200D02*
X85147800Y-67306200D01*
X75227800Y-67646200D02*
X75227800Y-67306200D01*
X85147800Y-67306200D02*
X75227800Y-67306200D01*
X85037800Y-77626200D02*
X75227800Y-77626200D01*
X88422000Y-68418000D02*
X87722000Y-68418000D01*
X87722000Y-67218000D02*
X88422000Y-67218000D01*
X84649000Y-83315500D02*
X85979000Y-83315500D01*
X84649000Y-84645500D02*
X84649000Y-83315500D01*
X84649000Y-85915500D02*
X87309000Y-85915500D01*
X87309000Y-85915500D02*
X87309000Y-85975500D01*
X84649000Y-85915500D02*
X84649000Y-85975500D01*
X84649000Y-85975500D02*
X87309000Y-85975500D01*
X82109000Y-85975500D02*
X84769000Y-85975500D01*
X82109000Y-85915500D02*
X82109000Y-85975500D01*
X84769000Y-85915500D02*
X84769000Y-85975500D01*
X82109000Y-85915500D02*
X84769000Y-85915500D01*
X82109000Y-84645500D02*
X82109000Y-83315500D01*
X82109000Y-83315500D02*
X83439000Y-83315500D01*
X96079000Y-85915500D02*
X96079000Y-85975500D01*
X96079000Y-85975500D02*
X98739000Y-85975500D01*
X98739000Y-85975500D02*
X98739000Y-85915500D01*
X98739000Y-85915500D02*
X96079000Y-85915500D01*
X96079000Y-84645500D02*
X96079000Y-83315500D01*
X96079000Y-83315500D02*
X97409000Y-83315500D01*
X93539000Y-85915500D02*
X93539000Y-85975500D01*
X93539000Y-85975500D02*
X96199000Y-85975500D01*
X96199000Y-85975500D02*
X96199000Y-85915500D01*
X96199000Y-85915500D02*
X93539000Y-85915500D01*
X93539000Y-84645500D02*
X93539000Y-83315500D01*
X93539000Y-83315500D02*
X94869000Y-83315500D01*
X88422000Y-69942000D02*
X87722000Y-69942000D01*
X87722000Y-68742000D02*
X88422000Y-68742000D01*
X91978000Y-69942000D02*
X91278000Y-69942000D01*
X91278000Y-68742000D02*
X91978000Y-68742000D01*
X97120000Y-75530000D02*
X97120000Y-76230000D01*
X95920000Y-76230000D02*
X95920000Y-75530000D01*
X110520000Y-68418000D02*
X109820000Y-68418000D01*
X109820000Y-67218000D02*
X110520000Y-67218000D01*
X93539000Y-85855500D02*
X94869000Y-85855500D01*
X93539000Y-87185500D02*
X93539000Y-85855500D01*
X96199000Y-88455500D02*
X93539000Y-88455500D01*
X96199000Y-88515500D02*
X96199000Y-88455500D01*
X93539000Y-88515500D02*
X96199000Y-88515500D01*
X93539000Y-88455500D02*
X93539000Y-88515500D01*
X98619000Y-88395500D02*
X99949000Y-88395500D01*
X98619000Y-89725500D02*
X98619000Y-88395500D01*
X101279000Y-90995500D02*
X98619000Y-90995500D01*
X101279000Y-91055500D02*
X101279000Y-90995500D01*
X98619000Y-91055500D02*
X101279000Y-91055500D01*
X98619000Y-90995500D02*
X98619000Y-91055500D01*
X98619000Y-93535500D02*
X98619000Y-93595500D01*
X98619000Y-93595500D02*
X101279000Y-93595500D01*
X101279000Y-93595500D02*
X101279000Y-93535500D01*
X101279000Y-93535500D02*
X98619000Y-93535500D01*
X98619000Y-92265500D02*
X98619000Y-90935500D01*
X98619000Y-90935500D02*
X99949000Y-90935500D01*
X96079000Y-88395500D02*
X97409000Y-88395500D01*
X96079000Y-89725500D02*
X96079000Y-88395500D01*
X98739000Y-90995500D02*
X96079000Y-90995500D01*
X98739000Y-91055500D02*
X98739000Y-90995500D01*
X96079000Y-91055500D02*
X98739000Y-91055500D01*
X96079000Y-90995500D02*
X96079000Y-91055500D01*
X96079000Y-93535500D02*
X96079000Y-93595500D01*
X96079000Y-93595500D02*
X98739000Y-93595500D01*
X98739000Y-93595500D02*
X98739000Y-93535500D01*
X98739000Y-93535500D02*
X96079000Y-93535500D01*
X96079000Y-92265500D02*
X96079000Y-90935500D01*
X96079000Y-90935500D02*
X97409000Y-90935500D01*
X84649000Y-91055500D02*
X87309000Y-91055500D01*
X84649000Y-90995500D02*
X84649000Y-91055500D01*
X87309000Y-90995500D02*
X87309000Y-91055500D01*
X84649000Y-90995500D02*
X87309000Y-90995500D01*
X84649000Y-89725500D02*
X84649000Y-88395500D01*
X84649000Y-88395500D02*
X85979000Y-88395500D01*
X84649000Y-85855500D02*
X85979000Y-85855500D01*
X84649000Y-87185500D02*
X84649000Y-85855500D01*
X84649000Y-88455500D02*
X87309000Y-88455500D01*
X87309000Y-88455500D02*
X87309000Y-88515500D01*
X84649000Y-88455500D02*
X84649000Y-88515500D01*
X84649000Y-88515500D02*
X87309000Y-88515500D01*
X82109000Y-91055500D02*
X84769000Y-91055500D01*
X82109000Y-90995500D02*
X82109000Y-91055500D01*
X84769000Y-90995500D02*
X84769000Y-91055500D01*
X82109000Y-90995500D02*
X84769000Y-90995500D01*
X82109000Y-89725500D02*
X82109000Y-88395500D01*
X82109000Y-88395500D02*
X83439000Y-88395500D01*
X82109000Y-85855500D02*
X83439000Y-85855500D01*
X82109000Y-87185500D02*
X82109000Y-85855500D01*
X82109000Y-88455500D02*
X84769000Y-88455500D01*
X84769000Y-88455500D02*
X84769000Y-88515500D01*
X82109000Y-88455500D02*
X82109000Y-88515500D01*
X82109000Y-88515500D02*
X84769000Y-88515500D01*
X93539000Y-90935500D02*
X94869000Y-90935500D01*
X93539000Y-92265500D02*
X93539000Y-90935500D01*
X96199000Y-93535500D02*
X93539000Y-93535500D01*
X96199000Y-93595500D02*
X96199000Y-93535500D01*
X93539000Y-93595500D02*
X96199000Y-93595500D01*
X93539000Y-93535500D02*
X93539000Y-93595500D01*
X93539000Y-90995500D02*
X93539000Y-91055500D01*
X93539000Y-91055500D02*
X96199000Y-91055500D01*
X96199000Y-91055500D02*
X96199000Y-90995500D01*
X96199000Y-90995500D02*
X93539000Y-90995500D01*
X93539000Y-89725500D02*
X93539000Y-88395500D01*
X93539000Y-88395500D02*
X94869000Y-88395500D01*
X101159000Y-90995500D02*
X101159000Y-91055500D01*
X101159000Y-91055500D02*
X103819000Y-91055500D01*
X103819000Y-91055500D02*
X103819000Y-90995500D01*
X103819000Y-90995500D02*
X101159000Y-90995500D01*
X101159000Y-89725500D02*
X101159000Y-88395500D01*
X101159000Y-88395500D02*
X102489000Y-88395500D01*
X101159000Y-90935500D02*
X102489000Y-90935500D01*
X101159000Y-92265500D02*
X101159000Y-90935500D01*
X103819000Y-93535500D02*
X101159000Y-93535500D01*
X103819000Y-93595500D02*
X103819000Y-93535500D01*
X101159000Y-93595500D02*
X103819000Y-93595500D01*
X101159000Y-93535500D02*
X101159000Y-93595500D01*
X96079000Y-85855500D02*
X97409000Y-85855500D01*
X96079000Y-87185500D02*
X96079000Y-85855500D01*
X98739000Y-88455500D02*
X96079000Y-88455500D01*
X98739000Y-88515500D02*
X98739000Y-88455500D01*
X96079000Y-88515500D02*
X98739000Y-88515500D01*
X96079000Y-88455500D02*
X96079000Y-88515500D01*
X98890500Y-67268000D02*
X98890500Y-68368000D01*
X98890500Y-68368000D02*
X101490500Y-68368000D01*
X98890500Y-67268000D02*
X101490500Y-67268000D01*
X103526000Y-67268000D02*
X106126000Y-67268000D01*
X103526000Y-68368000D02*
X106126000Y-68368000D01*
X103526000Y-67268000D02*
X103526000Y-68368000D01*
D16*
X109469000Y-72766000D02*
G75*
G03X109469000Y-72766000I-125000J0D01*
G01*
D14*
X109302000Y-76276000D02*
X109302000Y-75276000D01*
X110662000Y-75276000D02*
X110662000Y-76276000D01*
X112186000Y-75276000D02*
X112186000Y-76276000D01*
X110826000Y-76276000D02*
X110826000Y-75276000D01*
X91364000Y-67138000D02*
X92364000Y-67138000D01*
X92364000Y-68498000D02*
X91364000Y-68498000D01*
X95682000Y-68662000D02*
X96682000Y-68662000D01*
X96682000Y-70022000D02*
X95682000Y-70022000D01*
X96682000Y-68498000D02*
X95682000Y-68498000D01*
X95682000Y-67138000D02*
X96682000Y-67138000D01*
D16*
X91045835Y-70367301D02*
G75*
G03X91045835Y-70367301I-125000J0D01*
G01*
D14*
X88427000Y-71212000D02*
X87727000Y-71212000D01*
X87727000Y-70012000D02*
X88427000Y-70012000D01*
D13*
X87630000Y-71557400D02*
X87630000Y-71557400D01*
D12*
X86268000Y-71869400D02*
X86268000Y-73469400D01*
X87468000Y-71869400D02*
X87468000Y-73469400D01*
D10*
X108877100Y-78246242D02*
X108924719Y-78293861D01*
X108877100Y-78341480D01*
X108829480Y-78293861D01*
X108877100Y-78246242D01*
X108877100Y-78341480D01*
M02*
