G04 #@! TF.GenerationSoftware,KiCad,Pcbnew,(5.1.5)-3*
G04 #@! TF.CreationDate,2020-03-16T19:41:12-04:00*
G04 #@! TF.ProjectId,BreakoutGPSATGM336H,42726561-6b6f-4757-9447-50534154474d,rev?*
G04 #@! TF.SameCoordinates,Original*
G04 #@! TF.FileFunction,Legend,Bot*
G04 #@! TF.FilePolarity,Positive*
%FSLAX46Y46*%
G04 Gerber Fmt 4.6, Leading zero omitted, Abs format (unit mm)*
G04 Created by KiCad (PCBNEW (5.1.5)-3) date 2020-03-16 19:41:12*
%MOMM*%
%LPD*%
G04 APERTURE LIST*
%ADD10C,0.150000*%
G04 APERTURE END LIST*
D10*
X157066666Y-80609761D02*
X157066666Y-78609761D01*
X156400000Y-80038333D01*
X155733333Y-78609761D01*
X155733333Y-80609761D01*
X154876190Y-80038333D02*
X153923809Y-80038333D01*
X155066666Y-80609761D02*
X154400000Y-78609761D01*
X153733333Y-80609761D01*
X153257142Y-78609761D02*
X151923809Y-80609761D01*
X151923809Y-78609761D02*
X153257142Y-80609761D01*
X151161904Y-79847857D02*
X149638095Y-79847857D01*
X148876190Y-78609761D02*
X147542857Y-78609761D01*
X148400000Y-80609761D01*
X159685714Y-83188333D02*
X158733333Y-83188333D01*
X159876190Y-83759761D02*
X159209523Y-81759761D01*
X158542857Y-83759761D01*
X158161904Y-81759761D02*
X157019047Y-81759761D01*
X157590476Y-83759761D02*
X157590476Y-81759761D01*
X155304761Y-81855000D02*
X155495238Y-81759761D01*
X155780952Y-81759761D01*
X156066666Y-81855000D01*
X156257142Y-82045476D01*
X156352380Y-82235952D01*
X156447619Y-82616904D01*
X156447619Y-82902619D01*
X156352380Y-83283571D01*
X156257142Y-83474047D01*
X156066666Y-83664523D01*
X155780952Y-83759761D01*
X155590476Y-83759761D01*
X155304761Y-83664523D01*
X155209523Y-83569285D01*
X155209523Y-82902619D01*
X155590476Y-82902619D01*
X154352380Y-83759761D02*
X154352380Y-81759761D01*
X153685714Y-83188333D01*
X153019047Y-81759761D01*
X153019047Y-83759761D01*
X152257142Y-81759761D02*
X151019047Y-81759761D01*
X151685714Y-82521666D01*
X151400000Y-82521666D01*
X151209523Y-82616904D01*
X151114285Y-82712142D01*
X151019047Y-82902619D01*
X151019047Y-83378809D01*
X151114285Y-83569285D01*
X151209523Y-83664523D01*
X151400000Y-83759761D01*
X151971428Y-83759761D01*
X152161904Y-83664523D01*
X152257142Y-83569285D01*
X150352380Y-81759761D02*
X149114285Y-81759761D01*
X149780952Y-82521666D01*
X149495238Y-82521666D01*
X149304761Y-82616904D01*
X149209523Y-82712142D01*
X149114285Y-82902619D01*
X149114285Y-83378809D01*
X149209523Y-83569285D01*
X149304761Y-83664523D01*
X149495238Y-83759761D01*
X150066666Y-83759761D01*
X150257142Y-83664523D01*
X150352380Y-83569285D01*
X147400000Y-81759761D02*
X147780952Y-81759761D01*
X147971428Y-81855000D01*
X148066666Y-81950238D01*
X148257142Y-82235952D01*
X148352380Y-82616904D01*
X148352380Y-83378809D01*
X148257142Y-83569285D01*
X148161904Y-83664523D01*
X147971428Y-83759761D01*
X147590476Y-83759761D01*
X147400000Y-83664523D01*
X147304761Y-83569285D01*
X147209523Y-83378809D01*
X147209523Y-82902619D01*
X147304761Y-82712142D01*
X147400000Y-82616904D01*
X147590476Y-82521666D01*
X147971428Y-82521666D01*
X148161904Y-82616904D01*
X148257142Y-82712142D01*
X148352380Y-82902619D01*
X146352380Y-83759761D02*
X146352380Y-81759761D01*
X146352380Y-82712142D02*
X145209523Y-82712142D01*
X145209523Y-83759761D02*
X145209523Y-81759761D01*
M02*
