G04 #@! TF.GenerationSoftware,KiCad,Pcbnew,(5.1.5)-3*
G04 #@! TF.CreationDate,2020-03-16T19:41:12-04:00*
G04 #@! TF.ProjectId,BreakoutGPSATGM336H,42726561-6b6f-4757-9447-50534154474d,rev?*
G04 #@! TF.SameCoordinates,Original*
G04 #@! TF.FileFunction,Soldermask,Bot*
G04 #@! TF.FilePolarity,Negative*
%FSLAX46Y46*%
G04 Gerber Fmt 4.6, Leading zero omitted, Abs format (unit mm)*
G04 Created by KiCad (PCBNEW (5.1.5)-3) date 2020-03-16 19:41:12*
%MOMM*%
%LPD*%
G04 APERTURE LIST*
%ADD10C,0.100000*%
G04 APERTURE END LIST*
D10*
G36*
X167753512Y-90543927D02*
G01*
X167902812Y-90573624D01*
X168066784Y-90641544D01*
X168214354Y-90740147D01*
X168339853Y-90865646D01*
X168438456Y-91013216D01*
X168506376Y-91177188D01*
X168541000Y-91351259D01*
X168541000Y-91528741D01*
X168506376Y-91702812D01*
X168438456Y-91866784D01*
X168339853Y-92014354D01*
X168214354Y-92139853D01*
X168066784Y-92238456D01*
X167902812Y-92306376D01*
X167753512Y-92336073D01*
X167728742Y-92341000D01*
X167551258Y-92341000D01*
X167526488Y-92336073D01*
X167377188Y-92306376D01*
X167213216Y-92238456D01*
X167065646Y-92139853D01*
X166940147Y-92014354D01*
X166841544Y-91866784D01*
X166773624Y-91702812D01*
X166739000Y-91528741D01*
X166739000Y-91351259D01*
X166773624Y-91177188D01*
X166841544Y-91013216D01*
X166940147Y-90865646D01*
X167065646Y-90740147D01*
X167213216Y-90641544D01*
X167377188Y-90573624D01*
X167526488Y-90543927D01*
X167551258Y-90539000D01*
X167728742Y-90539000D01*
X167753512Y-90543927D01*
G37*
G36*
X138061000Y-92341000D02*
G01*
X136259000Y-92341000D01*
X136259000Y-90539000D01*
X138061000Y-90539000D01*
X138061000Y-92341000D01*
G37*
G36*
X137273512Y-88003927D02*
G01*
X137422812Y-88033624D01*
X137586784Y-88101544D01*
X137734354Y-88200147D01*
X137859853Y-88325646D01*
X137958456Y-88473216D01*
X138026376Y-88637188D01*
X138061000Y-88811259D01*
X138061000Y-88988741D01*
X138026376Y-89162812D01*
X137958456Y-89326784D01*
X137859853Y-89474354D01*
X137734354Y-89599853D01*
X137586784Y-89698456D01*
X137422812Y-89766376D01*
X137273512Y-89796073D01*
X137248742Y-89801000D01*
X137071258Y-89801000D01*
X137046488Y-89796073D01*
X136897188Y-89766376D01*
X136733216Y-89698456D01*
X136585646Y-89599853D01*
X136460147Y-89474354D01*
X136361544Y-89326784D01*
X136293624Y-89162812D01*
X136259000Y-88988741D01*
X136259000Y-88811259D01*
X136293624Y-88637188D01*
X136361544Y-88473216D01*
X136460147Y-88325646D01*
X136585646Y-88200147D01*
X136733216Y-88101544D01*
X136897188Y-88033624D01*
X137046488Y-88003927D01*
X137071258Y-87999000D01*
X137248742Y-87999000D01*
X137273512Y-88003927D01*
G37*
G36*
X167753512Y-88003927D02*
G01*
X167902812Y-88033624D01*
X168066784Y-88101544D01*
X168214354Y-88200147D01*
X168339853Y-88325646D01*
X168438456Y-88473216D01*
X168506376Y-88637188D01*
X168541000Y-88811259D01*
X168541000Y-88988741D01*
X168506376Y-89162812D01*
X168438456Y-89326784D01*
X168339853Y-89474354D01*
X168214354Y-89599853D01*
X168066784Y-89698456D01*
X167902812Y-89766376D01*
X167753512Y-89796073D01*
X167728742Y-89801000D01*
X167551258Y-89801000D01*
X167526488Y-89796073D01*
X167377188Y-89766376D01*
X167213216Y-89698456D01*
X167065646Y-89599853D01*
X166940147Y-89474354D01*
X166841544Y-89326784D01*
X166773624Y-89162812D01*
X166739000Y-88988741D01*
X166739000Y-88811259D01*
X166773624Y-88637188D01*
X166841544Y-88473216D01*
X166940147Y-88325646D01*
X167065646Y-88200147D01*
X167213216Y-88101544D01*
X167377188Y-88033624D01*
X167526488Y-88003927D01*
X167551258Y-87999000D01*
X167728742Y-87999000D01*
X167753512Y-88003927D01*
G37*
G36*
X167753512Y-85463927D02*
G01*
X167902812Y-85493624D01*
X168066784Y-85561544D01*
X168214354Y-85660147D01*
X168339853Y-85785646D01*
X168438456Y-85933216D01*
X168506376Y-86097188D01*
X168541000Y-86271259D01*
X168541000Y-86448741D01*
X168506376Y-86622812D01*
X168438456Y-86786784D01*
X168339853Y-86934354D01*
X168214354Y-87059853D01*
X168066784Y-87158456D01*
X167902812Y-87226376D01*
X167753512Y-87256073D01*
X167728742Y-87261000D01*
X167551258Y-87261000D01*
X167526488Y-87256073D01*
X167377188Y-87226376D01*
X167213216Y-87158456D01*
X167065646Y-87059853D01*
X166940147Y-86934354D01*
X166841544Y-86786784D01*
X166773624Y-86622812D01*
X166739000Y-86448741D01*
X166739000Y-86271259D01*
X166773624Y-86097188D01*
X166841544Y-85933216D01*
X166940147Y-85785646D01*
X167065646Y-85660147D01*
X167213216Y-85561544D01*
X167377188Y-85493624D01*
X167526488Y-85463927D01*
X167551258Y-85459000D01*
X167728742Y-85459000D01*
X167753512Y-85463927D01*
G37*
G36*
X137273512Y-85463927D02*
G01*
X137422812Y-85493624D01*
X137586784Y-85561544D01*
X137734354Y-85660147D01*
X137859853Y-85785646D01*
X137958456Y-85933216D01*
X138026376Y-86097188D01*
X138061000Y-86271259D01*
X138061000Y-86448741D01*
X138026376Y-86622812D01*
X137958456Y-86786784D01*
X137859853Y-86934354D01*
X137734354Y-87059853D01*
X137586784Y-87158456D01*
X137422812Y-87226376D01*
X137273512Y-87256073D01*
X137248742Y-87261000D01*
X137071258Y-87261000D01*
X137046488Y-87256073D01*
X136897188Y-87226376D01*
X136733216Y-87158456D01*
X136585646Y-87059853D01*
X136460147Y-86934354D01*
X136361544Y-86786784D01*
X136293624Y-86622812D01*
X136259000Y-86448741D01*
X136259000Y-86271259D01*
X136293624Y-86097188D01*
X136361544Y-85933216D01*
X136460147Y-85785646D01*
X136585646Y-85660147D01*
X136733216Y-85561544D01*
X136897188Y-85493624D01*
X137046488Y-85463927D01*
X137071258Y-85459000D01*
X137248742Y-85459000D01*
X137273512Y-85463927D01*
G37*
G36*
X167753512Y-82923927D02*
G01*
X167902812Y-82953624D01*
X168066784Y-83021544D01*
X168214354Y-83120147D01*
X168339853Y-83245646D01*
X168438456Y-83393216D01*
X168506376Y-83557188D01*
X168541000Y-83731259D01*
X168541000Y-83908741D01*
X168506376Y-84082812D01*
X168438456Y-84246784D01*
X168339853Y-84394354D01*
X168214354Y-84519853D01*
X168066784Y-84618456D01*
X167902812Y-84686376D01*
X167753512Y-84716073D01*
X167728742Y-84721000D01*
X167551258Y-84721000D01*
X167526488Y-84716073D01*
X167377188Y-84686376D01*
X167213216Y-84618456D01*
X167065646Y-84519853D01*
X166940147Y-84394354D01*
X166841544Y-84246784D01*
X166773624Y-84082812D01*
X166739000Y-83908741D01*
X166739000Y-83731259D01*
X166773624Y-83557188D01*
X166841544Y-83393216D01*
X166940147Y-83245646D01*
X167065646Y-83120147D01*
X167213216Y-83021544D01*
X167377188Y-82953624D01*
X167526488Y-82923927D01*
X167551258Y-82919000D01*
X167728742Y-82919000D01*
X167753512Y-82923927D01*
G37*
G36*
X137273512Y-82923927D02*
G01*
X137422812Y-82953624D01*
X137586784Y-83021544D01*
X137734354Y-83120147D01*
X137859853Y-83245646D01*
X137958456Y-83393216D01*
X138026376Y-83557188D01*
X138061000Y-83731259D01*
X138061000Y-83908741D01*
X138026376Y-84082812D01*
X137958456Y-84246784D01*
X137859853Y-84394354D01*
X137734354Y-84519853D01*
X137586784Y-84618456D01*
X137422812Y-84686376D01*
X137273512Y-84716073D01*
X137248742Y-84721000D01*
X137071258Y-84721000D01*
X137046488Y-84716073D01*
X136897188Y-84686376D01*
X136733216Y-84618456D01*
X136585646Y-84519853D01*
X136460147Y-84394354D01*
X136361544Y-84246784D01*
X136293624Y-84082812D01*
X136259000Y-83908741D01*
X136259000Y-83731259D01*
X136293624Y-83557188D01*
X136361544Y-83393216D01*
X136460147Y-83245646D01*
X136585646Y-83120147D01*
X136733216Y-83021544D01*
X136897188Y-82953624D01*
X137046488Y-82923927D01*
X137071258Y-82919000D01*
X137248742Y-82919000D01*
X137273512Y-82923927D01*
G37*
G36*
X137273512Y-80383927D02*
G01*
X137422812Y-80413624D01*
X137586784Y-80481544D01*
X137734354Y-80580147D01*
X137859853Y-80705646D01*
X137958456Y-80853216D01*
X138026376Y-81017188D01*
X138061000Y-81191259D01*
X138061000Y-81368741D01*
X138026376Y-81542812D01*
X137958456Y-81706784D01*
X137859853Y-81854354D01*
X137734354Y-81979853D01*
X137586784Y-82078456D01*
X137422812Y-82146376D01*
X137273512Y-82176073D01*
X137248742Y-82181000D01*
X137071258Y-82181000D01*
X137046488Y-82176073D01*
X136897188Y-82146376D01*
X136733216Y-82078456D01*
X136585646Y-81979853D01*
X136460147Y-81854354D01*
X136361544Y-81706784D01*
X136293624Y-81542812D01*
X136259000Y-81368741D01*
X136259000Y-81191259D01*
X136293624Y-81017188D01*
X136361544Y-80853216D01*
X136460147Y-80705646D01*
X136585646Y-80580147D01*
X136733216Y-80481544D01*
X136897188Y-80413624D01*
X137046488Y-80383927D01*
X137071258Y-80379000D01*
X137248742Y-80379000D01*
X137273512Y-80383927D01*
G37*
G36*
X167753512Y-80383927D02*
G01*
X167902812Y-80413624D01*
X168066784Y-80481544D01*
X168214354Y-80580147D01*
X168339853Y-80705646D01*
X168438456Y-80853216D01*
X168506376Y-81017188D01*
X168541000Y-81191259D01*
X168541000Y-81368741D01*
X168506376Y-81542812D01*
X168438456Y-81706784D01*
X168339853Y-81854354D01*
X168214354Y-81979853D01*
X168066784Y-82078456D01*
X167902812Y-82146376D01*
X167753512Y-82176073D01*
X167728742Y-82181000D01*
X167551258Y-82181000D01*
X167526488Y-82176073D01*
X167377188Y-82146376D01*
X167213216Y-82078456D01*
X167065646Y-81979853D01*
X166940147Y-81854354D01*
X166841544Y-81706784D01*
X166773624Y-81542812D01*
X166739000Y-81368741D01*
X166739000Y-81191259D01*
X166773624Y-81017188D01*
X166841544Y-80853216D01*
X166940147Y-80705646D01*
X167065646Y-80580147D01*
X167213216Y-80481544D01*
X167377188Y-80413624D01*
X167526488Y-80383927D01*
X167551258Y-80379000D01*
X167728742Y-80379000D01*
X167753512Y-80383927D01*
G37*
G36*
X137273512Y-77843927D02*
G01*
X137422812Y-77873624D01*
X137586784Y-77941544D01*
X137734354Y-78040147D01*
X137859853Y-78165646D01*
X137958456Y-78313216D01*
X138026376Y-78477188D01*
X138061000Y-78651259D01*
X138061000Y-78828741D01*
X138026376Y-79002812D01*
X137958456Y-79166784D01*
X137859853Y-79314354D01*
X137734354Y-79439853D01*
X137586784Y-79538456D01*
X137422812Y-79606376D01*
X137273512Y-79636073D01*
X137248742Y-79641000D01*
X137071258Y-79641000D01*
X137046488Y-79636073D01*
X136897188Y-79606376D01*
X136733216Y-79538456D01*
X136585646Y-79439853D01*
X136460147Y-79314354D01*
X136361544Y-79166784D01*
X136293624Y-79002812D01*
X136259000Y-78828741D01*
X136259000Y-78651259D01*
X136293624Y-78477188D01*
X136361544Y-78313216D01*
X136460147Y-78165646D01*
X136585646Y-78040147D01*
X136733216Y-77941544D01*
X136897188Y-77873624D01*
X137046488Y-77843927D01*
X137071258Y-77839000D01*
X137248742Y-77839000D01*
X137273512Y-77843927D01*
G37*
G36*
X167753512Y-77843927D02*
G01*
X167902812Y-77873624D01*
X168066784Y-77941544D01*
X168214354Y-78040147D01*
X168339853Y-78165646D01*
X168438456Y-78313216D01*
X168506376Y-78477188D01*
X168541000Y-78651259D01*
X168541000Y-78828741D01*
X168506376Y-79002812D01*
X168438456Y-79166784D01*
X168339853Y-79314354D01*
X168214354Y-79439853D01*
X168066784Y-79538456D01*
X167902812Y-79606376D01*
X167753512Y-79636073D01*
X167728742Y-79641000D01*
X167551258Y-79641000D01*
X167526488Y-79636073D01*
X167377188Y-79606376D01*
X167213216Y-79538456D01*
X167065646Y-79439853D01*
X166940147Y-79314354D01*
X166841544Y-79166784D01*
X166773624Y-79002812D01*
X166739000Y-78828741D01*
X166739000Y-78651259D01*
X166773624Y-78477188D01*
X166841544Y-78313216D01*
X166940147Y-78165646D01*
X167065646Y-78040147D01*
X167213216Y-77941544D01*
X167377188Y-77873624D01*
X167526488Y-77843927D01*
X167551258Y-77839000D01*
X167728742Y-77839000D01*
X167753512Y-77843927D01*
G37*
G36*
X167753512Y-75303927D02*
G01*
X167902812Y-75333624D01*
X168066784Y-75401544D01*
X168214354Y-75500147D01*
X168339853Y-75625646D01*
X168438456Y-75773216D01*
X168506376Y-75937188D01*
X168541000Y-76111259D01*
X168541000Y-76288741D01*
X168506376Y-76462812D01*
X168438456Y-76626784D01*
X168339853Y-76774354D01*
X168214354Y-76899853D01*
X168066784Y-76998456D01*
X167902812Y-77066376D01*
X167753512Y-77096073D01*
X167728742Y-77101000D01*
X167551258Y-77101000D01*
X167526488Y-77096073D01*
X167377188Y-77066376D01*
X167213216Y-76998456D01*
X167065646Y-76899853D01*
X166940147Y-76774354D01*
X166841544Y-76626784D01*
X166773624Y-76462812D01*
X166739000Y-76288741D01*
X166739000Y-76111259D01*
X166773624Y-75937188D01*
X166841544Y-75773216D01*
X166940147Y-75625646D01*
X167065646Y-75500147D01*
X167213216Y-75401544D01*
X167377188Y-75333624D01*
X167526488Y-75303927D01*
X167551258Y-75299000D01*
X167728742Y-75299000D01*
X167753512Y-75303927D01*
G37*
G36*
X137273512Y-75303927D02*
G01*
X137422812Y-75333624D01*
X137586784Y-75401544D01*
X137734354Y-75500147D01*
X137859853Y-75625646D01*
X137958456Y-75773216D01*
X138026376Y-75937188D01*
X138061000Y-76111259D01*
X138061000Y-76288741D01*
X138026376Y-76462812D01*
X137958456Y-76626784D01*
X137859853Y-76774354D01*
X137734354Y-76899853D01*
X137586784Y-76998456D01*
X137422812Y-77066376D01*
X137273512Y-77096073D01*
X137248742Y-77101000D01*
X137071258Y-77101000D01*
X137046488Y-77096073D01*
X136897188Y-77066376D01*
X136733216Y-76998456D01*
X136585646Y-76899853D01*
X136460147Y-76774354D01*
X136361544Y-76626784D01*
X136293624Y-76462812D01*
X136259000Y-76288741D01*
X136259000Y-76111259D01*
X136293624Y-75937188D01*
X136361544Y-75773216D01*
X136460147Y-75625646D01*
X136585646Y-75500147D01*
X136733216Y-75401544D01*
X136897188Y-75333624D01*
X137046488Y-75303927D01*
X137071258Y-75299000D01*
X137248742Y-75299000D01*
X137273512Y-75303927D01*
G37*
G36*
X137273512Y-72763927D02*
G01*
X137422812Y-72793624D01*
X137586784Y-72861544D01*
X137734354Y-72960147D01*
X137859853Y-73085646D01*
X137958456Y-73233216D01*
X138026376Y-73397188D01*
X138061000Y-73571259D01*
X138061000Y-73748741D01*
X138026376Y-73922812D01*
X137958456Y-74086784D01*
X137859853Y-74234354D01*
X137734354Y-74359853D01*
X137586784Y-74458456D01*
X137422812Y-74526376D01*
X137273512Y-74556073D01*
X137248742Y-74561000D01*
X137071258Y-74561000D01*
X137046488Y-74556073D01*
X136897188Y-74526376D01*
X136733216Y-74458456D01*
X136585646Y-74359853D01*
X136460147Y-74234354D01*
X136361544Y-74086784D01*
X136293624Y-73922812D01*
X136259000Y-73748741D01*
X136259000Y-73571259D01*
X136293624Y-73397188D01*
X136361544Y-73233216D01*
X136460147Y-73085646D01*
X136585646Y-72960147D01*
X136733216Y-72861544D01*
X136897188Y-72793624D01*
X137046488Y-72763927D01*
X137071258Y-72759000D01*
X137248742Y-72759000D01*
X137273512Y-72763927D01*
G37*
G36*
X167753512Y-72763927D02*
G01*
X167902812Y-72793624D01*
X168066784Y-72861544D01*
X168214354Y-72960147D01*
X168339853Y-73085646D01*
X168438456Y-73233216D01*
X168506376Y-73397188D01*
X168541000Y-73571259D01*
X168541000Y-73748741D01*
X168506376Y-73922812D01*
X168438456Y-74086784D01*
X168339853Y-74234354D01*
X168214354Y-74359853D01*
X168066784Y-74458456D01*
X167902812Y-74526376D01*
X167753512Y-74556073D01*
X167728742Y-74561000D01*
X167551258Y-74561000D01*
X167526488Y-74556073D01*
X167377188Y-74526376D01*
X167213216Y-74458456D01*
X167065646Y-74359853D01*
X166940147Y-74234354D01*
X166841544Y-74086784D01*
X166773624Y-73922812D01*
X166739000Y-73748741D01*
X166739000Y-73571259D01*
X166773624Y-73397188D01*
X166841544Y-73233216D01*
X166940147Y-73085646D01*
X167065646Y-72960147D01*
X167213216Y-72861544D01*
X167377188Y-72793624D01*
X167526488Y-72763927D01*
X167551258Y-72759000D01*
X167728742Y-72759000D01*
X167753512Y-72763927D01*
G37*
G36*
X137273512Y-70223927D02*
G01*
X137422812Y-70253624D01*
X137586784Y-70321544D01*
X137734354Y-70420147D01*
X137859853Y-70545646D01*
X137958456Y-70693216D01*
X138026376Y-70857188D01*
X138061000Y-71031259D01*
X138061000Y-71208741D01*
X138026376Y-71382812D01*
X137958456Y-71546784D01*
X137859853Y-71694354D01*
X137734354Y-71819853D01*
X137586784Y-71918456D01*
X137422812Y-71986376D01*
X137273512Y-72016073D01*
X137248742Y-72021000D01*
X137071258Y-72021000D01*
X137046488Y-72016073D01*
X136897188Y-71986376D01*
X136733216Y-71918456D01*
X136585646Y-71819853D01*
X136460147Y-71694354D01*
X136361544Y-71546784D01*
X136293624Y-71382812D01*
X136259000Y-71208741D01*
X136259000Y-71031259D01*
X136293624Y-70857188D01*
X136361544Y-70693216D01*
X136460147Y-70545646D01*
X136585646Y-70420147D01*
X136733216Y-70321544D01*
X136897188Y-70253624D01*
X137046488Y-70223927D01*
X137071258Y-70219000D01*
X137248742Y-70219000D01*
X137273512Y-70223927D01*
G37*
G36*
X168541000Y-72021000D02*
G01*
X166739000Y-72021000D01*
X166739000Y-70219000D01*
X168541000Y-70219000D01*
X168541000Y-72021000D01*
G37*
M02*
