G04 #@! TF.GenerationSoftware,KiCad,Pcbnew,(5.1.5)-3*
G04 #@! TF.CreationDate,2020-03-16T19:41:12-04:00*
G04 #@! TF.ProjectId,BreakoutGPSATGM336H,42726561-6b6f-4757-9447-50534154474d,rev?*
G04 #@! TF.SameCoordinates,Original*
G04 #@! TF.FileFunction,Copper,L1,Top*
G04 #@! TF.FilePolarity,Positive*
%FSLAX46Y46*%
G04 Gerber Fmt 4.6, Leading zero omitted, Abs format (unit mm)*
G04 Created by KiCad (PCBNEW (5.1.5)-3) date 2020-03-16 19:41:12*
%MOMM*%
%LPD*%
G04 APERTURE LIST*
%ADD10R,1.700000X1.700000*%
%ADD11O,1.700000X1.700000*%
%ADD12R,1.800000X0.700000*%
%ADD13R,1.800000X0.800000*%
%ADD14C,0.250000*%
G04 APERTURE END LIST*
D10*
X137160000Y-91440000D03*
D11*
X137160000Y-88900000D03*
X137160000Y-86360000D03*
X137160000Y-83820000D03*
X137160000Y-81280000D03*
X137160000Y-78740000D03*
X137160000Y-76200000D03*
X137160000Y-73660000D03*
X137160000Y-71120000D03*
X167640000Y-91440000D03*
X167640000Y-88900000D03*
X167640000Y-86360000D03*
X167640000Y-83820000D03*
X167640000Y-81280000D03*
X167640000Y-78740000D03*
X167640000Y-76200000D03*
X167640000Y-73660000D03*
D10*
X167640000Y-71120000D03*
D12*
X147573800Y-85502200D03*
D13*
X147573800Y-84402200D03*
X147573800Y-83302200D03*
X147573800Y-82202200D03*
X147573800Y-81102200D03*
X147573800Y-80002200D03*
X147573800Y-78902200D03*
X147573800Y-77802200D03*
D12*
X147573800Y-76702200D03*
X157073800Y-76702200D03*
D13*
X157073800Y-77802200D03*
X157073800Y-78902200D03*
X157073800Y-80002200D03*
X157073800Y-81102200D03*
X157073800Y-82202200D03*
X157073800Y-83302200D03*
X157073800Y-84402200D03*
D12*
X157073800Y-85502200D03*
D14*
X141657800Y-84402200D02*
X137160000Y-88900000D01*
X147573800Y-84402200D02*
X141657800Y-84402200D01*
X140217800Y-83302200D02*
X137160000Y-86360000D01*
X147573800Y-83302200D02*
X140217800Y-83302200D01*
X137337800Y-81102200D02*
X137160000Y-81280000D01*
X147573800Y-81102200D02*
X137337800Y-81102200D01*
X141302200Y-77802200D02*
X137160000Y-73660000D01*
X147573800Y-77802200D02*
X141302200Y-77802200D01*
X163142200Y-84402200D02*
X167640000Y-88900000D01*
X157073800Y-84402200D02*
X163142200Y-84402200D01*
X164582200Y-83302200D02*
X167640000Y-86360000D01*
X157073800Y-83302200D02*
X164582200Y-83302200D01*
X166022200Y-82202200D02*
X167640000Y-83820000D01*
X157073800Y-82202200D02*
X166022200Y-82202200D01*
X167462200Y-81102200D02*
X167640000Y-81280000D01*
X157073800Y-81102200D02*
X167462200Y-81102200D01*
X166377800Y-80002200D02*
X167640000Y-78740000D01*
X157073800Y-80002200D02*
X166377800Y-80002200D01*
X163497800Y-77802200D02*
X167640000Y-73660000D01*
X157073800Y-77802200D02*
X163497800Y-77802200D01*
X162057800Y-76702200D02*
X167640000Y-71120000D01*
X157073800Y-76702200D02*
X162057800Y-76702200D01*
X142742200Y-76702200D02*
X137160000Y-71120000D01*
X147573800Y-76702200D02*
X142742200Y-76702200D01*
X139862200Y-78902200D02*
X137160000Y-76200000D01*
X147573800Y-78902200D02*
X139862200Y-78902200D01*
X157073800Y-85502200D02*
X161702200Y-85502200D01*
X161702200Y-85502200D02*
X167640000Y-91440000D01*
X143097800Y-85502200D02*
X137160000Y-91440000D01*
X147573800Y-85502200D02*
X143097800Y-85502200D01*
X138777800Y-82202200D02*
X137160000Y-83820000D01*
X147573800Y-82202200D02*
X138777800Y-82202200D01*
X138422200Y-80002200D02*
X137160000Y-78740000D01*
X147573800Y-80002200D02*
X138422200Y-80002200D01*
X164937800Y-78902200D02*
X167640000Y-76200000D01*
X157073800Y-78902200D02*
X164937800Y-78902200D01*
M02*
