M48
; DRILL file {KiCad (5.1.0)-1} date 05/20/2019 10:37:19 PM
; FORMAT={-:-/ absolute / inch / decimal}
; #@! TF.CreationDate,2019-05-20T22:37:19-04:00
; #@! TF.GenerationSoftware,Kicad,Pcbnew,(5.1.0)-1
; #@! TF.FileFunction,Plated,1,2,PTH
FMAT,2
INCH
T1C0.0157
T2C0.0394
%
G90
G05
T1
X2.25Y-2.565
X2.25Y-2.6
X2.25Y-2.635
X2.25Y-2.67
X2.25Y-2.705
X2.25Y-2.74
X2.255Y-2.775
X2.255Y-2.81
X2.265Y-3.225
X2.265Y-3.26
X2.265Y-3.295
X2.275Y-2.84
X2.275Y-2.875
X2.275Y-2.91
X2.275Y-2.945
X2.275Y-2.98
X2.275Y-3.015
X2.275Y-3.05
X2.275Y-3.085
X2.275Y-3.12
X2.275Y-3.155
X2.275Y-3.19
X2.275Y-3.33
X2.275Y-3.365
X2.275Y-3.4
X2.275Y-3.435
X2.285Y-2.565
X2.31Y-3.19
X2.31Y-3.435
X2.315Y-2.84
X2.32Y-2.565
X2.345Y-3.435
X2.35Y-3.19
X2.355Y-2.565
X2.355Y-2.84
X2.38Y-3.31
X2.38Y-3.35
X2.38Y-3.395
X2.38Y-3.435
X2.385Y-2.735
X2.385Y-2.77
X2.385Y-2.805
X2.39Y-2.565
X2.39Y-2.84
X2.39Y-2.875
X2.39Y-2.91
X2.39Y-2.945
X2.39Y-2.98
X2.39Y-3.015
X2.39Y-3.05
X2.39Y-3.085
X2.39Y-3.12
X2.39Y-3.155
X2.39Y-3.19
X2.415Y-3.435
X2.425Y-2.575
X2.425Y-2.61
X2.425Y-2.645
X2.425Y-2.68
X2.425Y-2.715
X2.425Y-2.84
X2.425Y-3.19
X2.45Y-3.435
X2.465Y-2.565
X2.465Y-2.84
X2.465Y-3.19
X2.485Y-3.435
X2.505Y-2.565
X2.505Y-2.84
X2.505Y-2.875
X2.505Y-2.91
X2.505Y-2.945
X2.505Y-2.98
X2.505Y-3.015
X2.505Y-3.05
X2.505Y-3.085
X2.505Y-3.12
X2.505Y-3.155
X2.505Y-3.19
X2.52Y-2.8
X2.52Y-3.225
X2.52Y-3.26
X2.52Y-3.295
X2.52Y-3.33
X2.52Y-3.365
X2.52Y-3.4
X2.52Y-3.435
X2.53Y-2.765
X2.54Y-2.565
X2.54Y-2.84
X2.54Y-3.19
X2.555Y-2.735
X2.555Y-3.435
X2.575Y-2.565
X2.575Y-2.6
X2.575Y-2.635
X2.575Y-2.67
X2.575Y-2.705
X2.575Y-2.84
X2.575Y-3.19
X2.59Y-3.435
X2.61Y-2.565
X2.615Y-2.84
X2.615Y-2.875
X2.615Y-2.91
X2.615Y-2.945
X2.615Y-2.98
X2.615Y-3.015
X2.615Y-3.05
X2.615Y-3.085
X2.615Y-3.12
X2.615Y-3.155
X2.615Y-3.19
X2.625Y-3.315
X2.625Y-3.355
X2.625Y-3.395
X2.625Y-3.435
X2.645Y-2.565
X2.65Y-2.84
X2.65Y-3.19
X2.68Y-2.565
X2.685Y-2.84
X2.685Y-3.19
X2.715Y-2.565
X2.72Y-2.84
X2.72Y-3.19
X2.75Y-2.565
X2.75Y-2.6
X2.75Y-2.635
X2.75Y-2.675
X2.75Y-2.715
X2.76Y-2.84
X2.76Y-2.875
X2.76Y-2.91
X2.76Y-2.945
X2.76Y-2.98
X2.76Y-3.015
X2.76Y-3.05
X2.76Y-3.085
X2.76Y-3.12
X2.76Y-3.155
X2.76Y-3.19
X2.785Y-2.565
X2.795Y-2.84
X2.795Y-3.19
X2.82Y-2.565
X2.835Y-2.84
X2.84Y-3.19
X2.855Y-2.565
X2.872Y-3.1194
X2.872Y-3.1556
X2.875Y-2.84
X2.875Y-2.875
X2.875Y-2.91
X2.875Y-2.945
X2.875Y-2.98
X2.875Y-3.015
X2.875Y-3.05
X2.875Y-3.085
X2.8841Y-3.1901
X2.8843Y-3.23
X2.8843Y-3.27
X2.885Y-3.425
X2.89Y-2.565
X2.89Y-2.6
X2.89Y-2.635
X2.89Y-2.67
X2.89Y-2.705
X2.89Y-2.74
X2.89Y-2.775
X2.89Y-2.81
X2.9785Y-3.05
X3.0057Y-2.9278
X3.0356Y-3.0444
X3.065Y-2.66
X3.08Y-2.82
X3.08Y-3.045
X3.0839Y-3.25
X3.125Y-3.375
X3.1534Y-2.8511
X3.1734Y-2.89
X3.1874Y-2.9268
X3.1972Y-3.19
X3.21Y-3.295
X3.225Y-2.585
X3.2291Y-2.8701
X3.23Y-2.81
X3.2456Y-2.6584
X3.3Y-3.3061
X3.305Y-2.8137
X3.305Y-2.935
X3.3187Y-2.6213
X3.365Y-2.585
X3.3698Y-2.9748
X3.3698Y-2.6952
X3.37Y-3.3672
X3.39Y-3.01
X3.4146Y-3.4525
X3.425Y-2.77
X3.43Y-2.935
X3.445Y-2.53
X3.445Y-3.205
X3.475Y-2.8
X3.475Y-2.86
X3.475Y-3.08
X3.48Y-2.62
X3.52Y-2.845
X3.5586Y-2.6732
X3.57Y-2.85
X3.57Y-2.94
X3.5704Y-3.1698
X3.58Y-3.065
X3.59Y-3.33
X3.605Y-2.745
X3.605Y-2.8
X3.615Y-2.85
X3.615Y-2.995
X3.64Y-3.405
X3.6429Y-2.6052
X3.6599Y-2.6646
X3.66Y-2.8713
X3.695Y-2.94
X3.7Y-3.13
X3.7123Y-3.4281
X3.715Y-3.2
X3.7166Y-2.7017
X3.7212Y-2.6049
X3.725Y-2.9085
X3.7356Y-2.9554
X3.745Y-3.52
X3.7538Y-2.7146
X3.755Y-3.435
X3.7624Y-3.2095
X3.7669Y-3.0682
X3.7747Y-3.1069
X3.7749Y-2.9576
X3.7792Y-2.7447
X3.785Y-2.561
X3.8Y-3.435
X3.8002Y-3.2206
X3.8185Y-2.7365
X3.824Y-3.0609
X3.825Y-3.19
X3.845Y-3.51
X3.8511Y-3.4376
X3.8555Y-3.2462
X3.8565Y-2.865
X3.86Y-2.91
X3.8844Y-3.0995
X3.885Y-2.825
X3.8873Y-3.2694
X3.8934Y-3.3973
X3.91Y-3.455
X3.915Y-3.495
X3.9199Y-3.2915
X3.95Y-2.995
X3.9556Y-3.034
X3.9722Y-2.585
X4.007Y-2.6917
X4.0326Y-2.7216
X4.045Y-2.765
X4.07Y-2.49
X4.07Y-3.51
X4.0765Y-2.5735
X4.0765Y-2.625
X4.0765Y-2.6849
X4.095Y-3.325
X4.0984Y-3.2843
X4.1Y-3.43
X4.1Y-3.375
X4.1Y-3.245
X4.105Y-2.738
X4.105Y-2.845
X4.105Y-2.895
X4.105Y-2.945
X4.1095Y-2.5376
X4.11Y-3.1151
X4.1135Y-3.0044
X4.185Y-2.625
X4.185Y-2.685
X4.1862Y-2.7336
X4.19Y-2.8329
X4.19Y-2.565
X4.19Y-3.005
X4.19Y-2.88
X4.1901Y-2.9399
X4.1903Y-3.105
X4.1923Y-3.43
X4.1953Y-3.3907
X4.2Y-2.5
X4.2205Y-2.9638
X4.225Y-2.8
X4.225Y-3.14
X4.235Y-3.315
X4.235Y-3.26
X4.2382Y-3.2005
X4.2499Y-3.163
X4.26Y-2.845
X4.2865Y-3.0815
X4.2893Y-3.1644
X4.29Y-2.89
X4.3275Y-3.174
X4.33Y-2.95
X4.4097Y-3.2185
X4.5465Y-2.5985
X4.55Y-3.05
X4.61Y-3.01
X4.61Y-3.19
X4.6491Y-2.5671
X4.65Y-3.09
X4.65Y-3.175
X4.6528Y-3.1357
X4.73Y-3.115
X4.78Y-3.115
X4.815Y-2.595
X4.82Y-3.17
T2
X4.4Y-2.85
X4.6Y-2.65
X4.7Y-2.85
X4.5Y-2.95
X4.4Y-3.3876
X4.7Y-2.75
X4.4Y-2.75
X4.6Y-3.2876
X4.5Y-3.2876
X4.6Y-3.3876
X4.4Y-3.2876
X4.6Y-2.75
X4.6Y-2.95
X4.5Y-3.3876
X4.5Y-2.85
X4.6Y-2.85
X4.7Y-2.95
X4.7Y-2.65
X4.4Y-2.95
T0
M30
