G04 #@! TF.GenerationSoftware,KiCad,Pcbnew,(5.1.0)-1*
G04 #@! TF.CreationDate,2019-05-20T22:37:16-04:00*
G04 #@! TF.ProjectId,PicoTrackerWSPR1Rev5,5069636f-5472-4616-936b-657257535052,rev?*
G04 #@! TF.SameCoordinates,Original*
G04 #@! TF.FileFunction,Copper,L1,Top*
G04 #@! TF.FilePolarity,Positive*
%FSLAX46Y46*%
G04 Gerber Fmt 4.6, Leading zero omitted, Abs format (unit mm)*
G04 Created by KiCad (PCBNEW (5.1.0)-1) date 2019-05-20 22:37:16*
%MOMM*%
%LPD*%
G04 APERTURE LIST*
%ADD10C,0.100000*%
%ADD11C,0.150000*%
%ADD12O,3.799840X0.279400*%
%ADD13O,2.397760X1.648460*%
%ADD14O,0.279400X0.848360*%
%ADD15R,0.750000X1.200000*%
%ADD16R,1.200000X0.750000*%
%ADD17R,1.700000X1.700000*%
%ADD18R,1.200000X0.900000*%
%ADD19R,1.000000X1.000000*%
%ADD20R,1.143000X3.048000*%
%ADD21R,1.500000X0.400000*%
%ADD22R,0.797560X1.798320*%
%ADD23R,0.248920X1.300000*%
%ADD24R,0.550000X1.600000*%
%ADD25R,1.600000X0.550000*%
%ADD26R,3.000000X3.000000*%
%ADD27R,1.500000X1.500000*%
%ADD28R,1.193800X1.397000*%
%ADD29R,0.635000X0.863600*%
%ADD30C,0.800000*%
%ADD31C,0.250000*%
%ADD32C,0.254000*%
G04 APERTURE END LIST*
D10*
X53975000Y-62230000D02*
X53975000Y-63500000D01*
X123190000Y-62230000D02*
X123190000Y-63500000D01*
X53975000Y-90170000D02*
X53975000Y-63500000D01*
X123190000Y-90170000D02*
X53975000Y-90170000D01*
X123190000Y-63500000D02*
X123190000Y-90170000D01*
X53975000Y-62230000D02*
X123190000Y-62230000D01*
X105791021Y-89408000D02*
G75*
G03X105791021Y-89408000I-381021J0D01*
G01*
X105791021Y-64389000D02*
G75*
G03X105791021Y-64389000I-381021J0D01*
G01*
X105791021Y-65913000D02*
G75*
G03X105791021Y-65913000I-381021J0D01*
G01*
X105791021Y-67437000D02*
G75*
G03X105791021Y-67437000I-381021J0D01*
G01*
X105791021Y-68961000D02*
G75*
G03X105791021Y-68961000I-381021J0D01*
G01*
X105791021Y-70612000D02*
G75*
G03X105791021Y-70612000I-381021J0D01*
G01*
X105791021Y-72136000D02*
G75*
G03X105791021Y-72136000I-381021J0D01*
G01*
X105791021Y-73914000D02*
G75*
G03X105791021Y-73914000I-381021J0D01*
G01*
X105791021Y-75438000D02*
G75*
G03X105791021Y-75438000I-381021J0D01*
G01*
X105791021Y-77216000D02*
G75*
G03X105791021Y-77216000I-381021J0D01*
G01*
X105791021Y-78740000D02*
G75*
G03X105791021Y-78740000I-381021J0D01*
G01*
X105791021Y-80264000D02*
G75*
G03X105791021Y-80264000I-381021J0D01*
G01*
X105791021Y-81788000D02*
G75*
G03X105791021Y-81788000I-381021J0D01*
G01*
X105791021Y-83312000D02*
G75*
G03X105791021Y-83312000I-381021J0D01*
G01*
X105791021Y-86360000D02*
G75*
G03X105791021Y-86360000I-381021J0D01*
G01*
X105791021Y-84836000D02*
G75*
G03X105791021Y-84836000I-381021J0D01*
G01*
X105791021Y-88011000D02*
G75*
G03X105791021Y-88011000I-381021J0D01*
G01*
X56388000Y-76835000D02*
G75*
G03X56388000Y-76835000I-889000J0D01*
G01*
D11*
X70104000Y-85217000D02*
X70104000Y-84455000D01*
D12*
X80645000Y-69702680D03*
X80645000Y-70251320D03*
D13*
X80645000Y-69977000D03*
D14*
X81643220Y-71450200D03*
X81142840Y-71450200D03*
X80645000Y-71450200D03*
X80147160Y-71450200D03*
X79646780Y-71450200D03*
X79646780Y-68503800D03*
X80147160Y-68503800D03*
X80645000Y-68503800D03*
X81142840Y-68503800D03*
X81643220Y-68503800D03*
D15*
X103124000Y-77475000D03*
X103124000Y-79375000D03*
X77851000Y-68519000D03*
X77851000Y-70419000D03*
X83312000Y-70358000D03*
X83312000Y-68458000D03*
X84582000Y-68458000D03*
X84582000Y-70358000D03*
X71755000Y-85095000D03*
X71755000Y-86995000D03*
X79629000Y-73787000D03*
X79629000Y-75687000D03*
D16*
X81280000Y-82550000D03*
X83180000Y-82550000D03*
D15*
X85598000Y-86228000D03*
X85598000Y-84328000D03*
X89789000Y-75885000D03*
X89789000Y-77785000D03*
X75819000Y-80899000D03*
X75819000Y-82799000D03*
D17*
X111760000Y-74930000D03*
X114300000Y-74930000D03*
X116840000Y-69850000D03*
X119380000Y-69850000D03*
X111760000Y-72390000D03*
X116840000Y-72390000D03*
X119380000Y-72390000D03*
X116840000Y-83506000D03*
X114300000Y-83506000D03*
X111760000Y-83506000D03*
X116840000Y-86046000D03*
X114300000Y-86046000D03*
X111760000Y-86046000D03*
X119380000Y-74930000D03*
X116840000Y-74930000D03*
X116840000Y-67310000D03*
X119380000Y-67310000D03*
D18*
X97917000Y-65659000D03*
X95717000Y-65659000D03*
X95717000Y-67183000D03*
X97917000Y-67183000D03*
D19*
X70104000Y-85471000D03*
X70104000Y-84201000D03*
D20*
X80327500Y-65786000D03*
X78168500Y-65786000D03*
D21*
X77717000Y-73899000D03*
X77717000Y-74549000D03*
X77717000Y-75199000D03*
X75057000Y-75199000D03*
X75057000Y-74549000D03*
X75057000Y-73899000D03*
X80899000Y-84963000D03*
X80899000Y-85613000D03*
X80899000Y-86263000D03*
X83559000Y-86263000D03*
X83559000Y-85613000D03*
X83559000Y-84963000D03*
D22*
X72336660Y-70553580D03*
X71236840Y-70553580D03*
X70137020Y-70553580D03*
X69037200Y-70553580D03*
X67937380Y-70553580D03*
X66837560Y-70553580D03*
X65735200Y-70553580D03*
X62738000Y-70553580D03*
X61638180Y-70553580D03*
X60538360Y-70553580D03*
X59438540Y-70553580D03*
X58338720Y-70553580D03*
X58338720Y-82550000D03*
X59438540Y-82550000D03*
X60538360Y-82550000D03*
X61638180Y-82550000D03*
X62738000Y-82550000D03*
X65735200Y-82550000D03*
X66837560Y-82550000D03*
X67937380Y-82550000D03*
X69037200Y-82550000D03*
X70137020Y-82550000D03*
X71236840Y-82550000D03*
X72336660Y-82550000D03*
D23*
X79230220Y-79284000D03*
X78729840Y-79284000D03*
X78232000Y-79284000D03*
X77734160Y-79284000D03*
X77233780Y-79284000D03*
X77233780Y-83784000D03*
X77734160Y-83784000D03*
X78232000Y-83784000D03*
X78729840Y-83784000D03*
X79230220Y-83784000D03*
D18*
X101895000Y-65659000D03*
X99695000Y-65659000D03*
X99695000Y-67183000D03*
X101895000Y-67183000D03*
X93726000Y-65659000D03*
X91526000Y-65659000D03*
X91526000Y-67183000D03*
X93726000Y-67183000D03*
D24*
X93915000Y-76503000D03*
X94715000Y-76503000D03*
X95515000Y-76503000D03*
X96315000Y-76503000D03*
X97115000Y-76503000D03*
X97915000Y-76503000D03*
X98715000Y-76503000D03*
X99515000Y-76503000D03*
D25*
X100965000Y-77953000D03*
X100965000Y-78753000D03*
X100965000Y-79553000D03*
X100965000Y-80353000D03*
X100965000Y-81153000D03*
X100965000Y-81953000D03*
X100965000Y-82753000D03*
X100965000Y-83553000D03*
D24*
X99515000Y-85003000D03*
X98715000Y-85003000D03*
X97915000Y-85003000D03*
X97115000Y-85003000D03*
X96315000Y-85003000D03*
X95515000Y-85003000D03*
X94715000Y-85003000D03*
X93915000Y-85003000D03*
D25*
X92465000Y-83553000D03*
X92465000Y-82753000D03*
X92465000Y-81953000D03*
X92465000Y-81153000D03*
X92465000Y-80353000D03*
X92465000Y-79553000D03*
X92465000Y-78753000D03*
X92465000Y-77953000D03*
D17*
X111760000Y-69850000D03*
X114300000Y-72390000D03*
D18*
X89576000Y-65659000D03*
X87376000Y-65659000D03*
X87376000Y-67183000D03*
X89576000Y-67183000D03*
D15*
X89789000Y-79507000D03*
X89789000Y-81407000D03*
D26*
X62992000Y-67310000D03*
X59436000Y-67310000D03*
D27*
X78359000Y-85979000D03*
X76200000Y-85979000D03*
D18*
X99609000Y-72263000D03*
X97409000Y-72263000D03*
X93726000Y-68707000D03*
X91526000Y-68707000D03*
X81280000Y-81026000D03*
X83480000Y-81026000D03*
X81280000Y-79375000D03*
X83480000Y-79375000D03*
X81239000Y-77724000D03*
X83439000Y-77724000D03*
D28*
X89789000Y-86156800D03*
X89789000Y-83947000D03*
X88087200Y-83947000D03*
X88087200Y-86156800D03*
X85598000Y-80010000D03*
X85598000Y-77800200D03*
X87299800Y-77800200D03*
X87299800Y-80010000D03*
D29*
X97624900Y-70739000D03*
X99225100Y-70739000D03*
D30*
X57150000Y-68707000D03*
X57150000Y-67818000D03*
X57150000Y-66929000D03*
X57150000Y-66040000D03*
X57150000Y-65151000D03*
X58039000Y-65151000D03*
X58928000Y-65151000D03*
X59817000Y-65151000D03*
X60706000Y-65151000D03*
X61595000Y-65405000D03*
X61595000Y-66294000D03*
X61595000Y-67183000D03*
X61595000Y-68072000D03*
X57785000Y-81026000D03*
X57785000Y-80137000D03*
X57785000Y-79248000D03*
X57785000Y-78359000D03*
X57785000Y-77470000D03*
X57785000Y-76581000D03*
X57785000Y-75692000D03*
X57785000Y-74803000D03*
X57785000Y-73914000D03*
X57785000Y-73025000D03*
X57785000Y-72136000D03*
X73025000Y-72136000D03*
X73025000Y-74803000D03*
X73025000Y-76581000D03*
X73025000Y-78359000D03*
X73025000Y-73025000D03*
X73025000Y-75692000D03*
X73025000Y-77470000D03*
X73025000Y-73914000D03*
X60706000Y-76581000D03*
X60706000Y-78359000D03*
X60706000Y-79248000D03*
X60706000Y-73025000D03*
X60706000Y-81026000D03*
X60706000Y-77470000D03*
X60706000Y-80137000D03*
X60706000Y-73914000D03*
X60706000Y-74803000D03*
X60706000Y-72136000D03*
X60706000Y-75692000D03*
X63627000Y-80137000D03*
X63627000Y-79248000D03*
X63627000Y-73914000D03*
X63627000Y-81026000D03*
X63627000Y-75692000D03*
X63627000Y-76581000D03*
X63627000Y-78359000D03*
X63627000Y-73025000D03*
X63627000Y-77470000D03*
X63627000Y-74803000D03*
X63627000Y-72136000D03*
X66421000Y-80137000D03*
X66421000Y-81026000D03*
X66421000Y-73025000D03*
X66421000Y-79248000D03*
X66421000Y-77470000D03*
X66421000Y-76581000D03*
X66421000Y-75692000D03*
X66421000Y-73914000D03*
X66421000Y-78359000D03*
X66421000Y-74803000D03*
X66421000Y-72136000D03*
X70104000Y-74803000D03*
X70104000Y-76581000D03*
X70104000Y-75692000D03*
X70104000Y-78359000D03*
X70104000Y-73025000D03*
X70104000Y-72136000D03*
X70104000Y-79248000D03*
X70104000Y-77470000D03*
X70104000Y-80137000D03*
X70104000Y-73914000D03*
X58674000Y-81026000D03*
X59690000Y-81026000D03*
X64516000Y-81026000D03*
X65405000Y-81026000D03*
X67310000Y-81026000D03*
X68199000Y-81026000D03*
X70993000Y-81026000D03*
X61595000Y-72136000D03*
X62611000Y-72136000D03*
X64516000Y-72136000D03*
X65405000Y-72136000D03*
X67310000Y-72136000D03*
X68199000Y-72136000D03*
X69088000Y-72136000D03*
X70993000Y-72136000D03*
X72009000Y-72136000D03*
X59817000Y-72136000D03*
X58801000Y-72136000D03*
X60579000Y-71247000D03*
X60579000Y-70358000D03*
X57785000Y-84582000D03*
X57785000Y-85471000D03*
X57785000Y-86360000D03*
X57785000Y-87249000D03*
X58674000Y-87249000D03*
X59563000Y-87249000D03*
X60452000Y-87249000D03*
X61341000Y-87249000D03*
X62230000Y-87249000D03*
X63119000Y-87249000D03*
X64008000Y-87249000D03*
X64897000Y-87249000D03*
X65786000Y-87249000D03*
X66675000Y-87249000D03*
X60452000Y-86233000D03*
X60452000Y-85090000D03*
X64008000Y-86360000D03*
X64008000Y-85471000D03*
X64008000Y-84582000D03*
X64008000Y-83693000D03*
X64008000Y-82804000D03*
X64008000Y-81915000D03*
X66675000Y-86233000D03*
X66675000Y-85217000D03*
X66675000Y-84201000D03*
X65405000Y-65151000D03*
X65405000Y-66040000D03*
X65405000Y-66929000D03*
X65405000Y-67818000D03*
X65405000Y-68707000D03*
X66294000Y-65151000D03*
X67183000Y-65151000D03*
X68072000Y-65151000D03*
X68961000Y-65151000D03*
X69850000Y-65151000D03*
X70739000Y-65151000D03*
X71628000Y-65151000D03*
X72517000Y-65151000D03*
X73406000Y-65151000D03*
X73406000Y-66040000D03*
X73406000Y-66929000D03*
X73406000Y-67818000D03*
X73406000Y-68707000D03*
X73406000Y-69596000D03*
X73406000Y-70485000D03*
X73406000Y-71374000D03*
X69850000Y-66040000D03*
X69850000Y-66929000D03*
X69850000Y-67945000D03*
X69850000Y-68961000D03*
X64516000Y-65151000D03*
X63627000Y-65151000D03*
X62611000Y-65151000D03*
X60452000Y-84074000D03*
X60579000Y-69469000D03*
X69088000Y-81026000D03*
X62611000Y-81026000D03*
X61595000Y-81026000D03*
X70104000Y-81026000D03*
X61595000Y-68961000D03*
X78232000Y-71628000D03*
X72949069Y-79232814D03*
X72949069Y-80152186D03*
X106680000Y-63500000D03*
X64897000Y-69469000D03*
X64008000Y-71120000D03*
X64262000Y-70231000D03*
X73256991Y-81027634D03*
X72136000Y-81026000D03*
X57531000Y-82804000D03*
X57531000Y-81915000D03*
X57531000Y-83693000D03*
X57277000Y-71374000D03*
X57277000Y-70485000D03*
X57150000Y-69596000D03*
X76343931Y-74366782D03*
X78331828Y-82550001D03*
X79375000Y-85725000D03*
X88265000Y-78232000D03*
X90687001Y-80512939D03*
X91186000Y-84582000D03*
X93980000Y-79502000D03*
X88392000Y-66548000D03*
X84294839Y-66581161D03*
X91821000Y-76073000D03*
X86995000Y-70358000D03*
X83947000Y-74549000D03*
X87122000Y-74549000D03*
X96139000Y-65050033D03*
X97155000Y-81026000D03*
X73279000Y-86995000D03*
X103377997Y-63245997D03*
X107315000Y-71120000D03*
X73260974Y-82042001D03*
X75655010Y-77470000D03*
X73260974Y-83058000D03*
X83820000Y-83975037D03*
X87503000Y-81407000D03*
X81208989Y-81026000D03*
X83947000Y-71468979D03*
X91821000Y-72390000D03*
X104267000Y-69543993D03*
X106328969Y-69432402D03*
X82042000Y-71374000D03*
X82439200Y-67523040D03*
X85593000Y-68458000D03*
X85598000Y-85528080D03*
X104381194Y-64454208D03*
X85471000Y-65659000D03*
X92529391Y-66172726D03*
X85592804Y-75558773D03*
X87503000Y-64262000D03*
X109982000Y-74930000D03*
X106426000Y-65151000D03*
X77851000Y-67564000D03*
X80095560Y-72417890D03*
X81915000Y-65659000D03*
X103541990Y-65368010D03*
X91567000Y-69723000D03*
X91567000Y-71120000D03*
X81534000Y-83693000D03*
X82019940Y-72900605D03*
X88265000Y-72644000D03*
X88265000Y-71120000D03*
X115479884Y-66003010D03*
X106299000Y-68199000D03*
X102743000Y-70231000D03*
X95991968Y-69715786D03*
X95883640Y-75123719D03*
X103541990Y-68197698D03*
X118087091Y-65203657D03*
X106298992Y-66675000D03*
X102428522Y-69127958D03*
X95347790Y-68950895D03*
X94885239Y-75066991D03*
X103541990Y-66675000D03*
X115570000Y-77470000D03*
X104267000Y-74803000D03*
X106428616Y-74673382D03*
X107200924Y-75280844D03*
X92960898Y-67680161D03*
X80604002Y-73406000D03*
X77105095Y-77328433D03*
X92964000Y-72931913D03*
X118110000Y-78486000D03*
X108966000Y-73406000D03*
X108877453Y-78268990D03*
X104267000Y-73533000D03*
X106426008Y-73152000D03*
X80960669Y-74340244D03*
X94615000Y-73877010D03*
X78232014Y-77343000D03*
X94402654Y-68624182D03*
X98044000Y-73914000D03*
X97130418Y-77746044D03*
X112007411Y-81751010D03*
X107569002Y-82804000D03*
X104140000Y-82423000D03*
X104393850Y-79123231D03*
X107649612Y-81293606D03*
X108204000Y-72263000D03*
X104267000Y-72263000D03*
X106425082Y-71956050D03*
X94519628Y-66165100D03*
X96991002Y-69505998D03*
X95680407Y-77932415D03*
X108947835Y-80375030D03*
X104013000Y-84455000D03*
X107569000Y-84201000D03*
X99314000Y-87757000D03*
X98891364Y-86291318D03*
X104139988Y-87122000D03*
X106483685Y-87122000D03*
X96520000Y-87249000D03*
X99441000Y-88772994D03*
X96525448Y-81802974D03*
X117094000Y-76454000D03*
X117094000Y-81026000D03*
X104139998Y-85725000D03*
X106561420Y-86125014D03*
X107315000Y-79756000D03*
X107948462Y-80339294D03*
X109917365Y-80620052D03*
X103378000Y-89154000D03*
X95377000Y-87249000D03*
X97663000Y-89154000D03*
X95566143Y-81520558D03*
X118110000Y-80645000D03*
X122428000Y-80518000D03*
X122301000Y-65913000D03*
X106433007Y-78868118D03*
X104099648Y-83422198D03*
X121412000Y-79121000D03*
X120142000Y-79121000D03*
X118181031Y-79647514D03*
X106426000Y-76326996D03*
X104482945Y-76312619D03*
X100471423Y-77062961D03*
X98664976Y-78727968D03*
X86731659Y-87692965D03*
X86106000Y-76454000D03*
X92456000Y-86487000D03*
X95123000Y-89408000D03*
X97817120Y-87315398D03*
X100895002Y-65659000D03*
X98737013Y-83042196D03*
X101778001Y-68368454D03*
X99564984Y-83602988D03*
X90932000Y-77851000D03*
X89408000Y-72263000D03*
X90387915Y-67898455D03*
X90678000Y-72390000D03*
X93853000Y-74676000D03*
X90678000Y-74676000D03*
X95878122Y-78915123D03*
X94361000Y-81280000D03*
X94291459Y-87074514D03*
X100330000Y-76073000D03*
X98679000Y-71755000D03*
X97953990Y-72771000D03*
X97929315Y-82452580D03*
D31*
X58338720Y-71702740D02*
X58413721Y-71777741D01*
X58413721Y-71777741D02*
X60463359Y-71777741D01*
X60463359Y-71777741D02*
X60538360Y-71702740D01*
X60538360Y-71702740D02*
X60538360Y-70553580D01*
X58338720Y-70553580D02*
X58338720Y-71702740D01*
X114300000Y-74930000D02*
X114300000Y-72390000D01*
X72590660Y-82296000D02*
X72336660Y-82550000D01*
X84582000Y-70358000D02*
X83312000Y-70358000D01*
X80751680Y-70358000D02*
X80645000Y-70251320D01*
X83312000Y-70358000D02*
X80751680Y-70358000D01*
X81142840Y-70474840D02*
X80645000Y-69977000D01*
X81142840Y-71450200D02*
X81142840Y-70474840D01*
X80147160Y-69479160D02*
X80147160Y-68503800D01*
X80645000Y-69977000D02*
X80147160Y-69479160D01*
X78293000Y-69977000D02*
X77851000Y-70419000D01*
X80645000Y-69977000D02*
X78293000Y-69977000D01*
X77851000Y-70993000D02*
X77851000Y-70419000D01*
X78232000Y-71628000D02*
X77851000Y-70993000D01*
X77717000Y-74549000D02*
X76526149Y-74549000D01*
X76526149Y-74549000D02*
X76343931Y-74366782D01*
X76161713Y-74549000D02*
X76343931Y-74366782D01*
X75057000Y-74549000D02*
X76161713Y-74549000D01*
X78867000Y-74549000D02*
X79629000Y-73787000D01*
X77717000Y-74549000D02*
X78867000Y-74549000D01*
X78232000Y-82649829D02*
X78331828Y-82550001D01*
X78232000Y-83784000D02*
X78232000Y-82649829D01*
X80787000Y-85725000D02*
X80899000Y-85613000D01*
X79375000Y-85725000D02*
X80787000Y-85725000D01*
X81899000Y-85613000D02*
X83559000Y-85613000D01*
X80899000Y-85613000D02*
X81899000Y-85613000D01*
X87299800Y-77800200D02*
X87833200Y-77800200D01*
X87833200Y-77800200D02*
X88265000Y-78232000D01*
X89789000Y-79614938D02*
X90687001Y-80512939D01*
X89789000Y-79507000D02*
X89789000Y-79614938D01*
X91327062Y-81153000D02*
X92465000Y-81153000D01*
X90687001Y-80512939D02*
X91327062Y-81153000D01*
X89789000Y-83947000D02*
X90551000Y-83947000D01*
X90551000Y-83947000D02*
X91186000Y-84582000D01*
X93929000Y-79553000D02*
X93980000Y-79502000D01*
X92465000Y-79553000D02*
X93929000Y-79553000D01*
X87376000Y-67183000D02*
X87757000Y-67183000D01*
X87757000Y-67183000D02*
X88392000Y-66548000D01*
X89789000Y-75885000D02*
X91633000Y-75885000D01*
X91633000Y-75885000D02*
X91821000Y-76073000D01*
X87122000Y-74549000D02*
X83947000Y-74549000D01*
X95717000Y-65472033D02*
X96139000Y-65050033D01*
X95717000Y-65659000D02*
X95717000Y-65472033D01*
X102015000Y-80353000D02*
X100965000Y-80353000D01*
X102090001Y-80277999D02*
X102015000Y-80353000D01*
X102090001Y-77883999D02*
X102090001Y-80277999D01*
X102499000Y-77475000D02*
X102090001Y-77883999D01*
X103124000Y-77475000D02*
X102499000Y-77475000D01*
X97828000Y-80353000D02*
X97155000Y-81026000D01*
X100965000Y-80353000D02*
X97828000Y-80353000D01*
X103632000Y-63500000D02*
X103377997Y-63245997D01*
X106680000Y-63500000D02*
X103632000Y-63500000D01*
X114300000Y-72390000D02*
X114300000Y-71290000D01*
X114300000Y-71290000D02*
X114130000Y-71120000D01*
X107880685Y-71120000D02*
X107315000Y-71120000D01*
X114130000Y-71120000D02*
X107880685Y-71120000D01*
X85598000Y-84328000D02*
X84172963Y-84328000D01*
X84172963Y-84328000D02*
X83820000Y-83975037D01*
X83439000Y-77724000D02*
X83289000Y-77724000D01*
X81280000Y-81026000D02*
X81208989Y-81026000D01*
X83289000Y-77724000D02*
X82205001Y-78807999D01*
X82205001Y-80029988D02*
X81608988Y-80626001D01*
X82955000Y-82550000D02*
X81431000Y-81026000D01*
X83180000Y-82550000D02*
X82955000Y-82550000D01*
X81431000Y-81026000D02*
X81208989Y-81026000D01*
X81608988Y-80626001D02*
X81208989Y-81026000D01*
X82205001Y-78807999D02*
X82205001Y-80029988D01*
X83947000Y-71218000D02*
X83947000Y-71468979D01*
X84582000Y-70358000D02*
X84582000Y-70583000D01*
X84582000Y-70583000D02*
X83947000Y-71218000D01*
X111760000Y-69850000D02*
X106746567Y-69850000D01*
X105121093Y-69832401D02*
X105928970Y-69832401D01*
X106746567Y-69850000D02*
X106728968Y-69832401D01*
X105928970Y-69832401D02*
X106328969Y-69432402D01*
X106728968Y-69832401D02*
X106328969Y-69432402D01*
X81643220Y-71450200D02*
X81965800Y-71450200D01*
X81965800Y-71450200D02*
X82042000Y-71374000D01*
X84582000Y-68458000D02*
X85593000Y-68458000D01*
X81439461Y-67532999D02*
X81142840Y-67829620D01*
X84506999Y-67532999D02*
X81439461Y-67532999D01*
X84582000Y-67608000D02*
X84506999Y-67532999D01*
X84582000Y-68458000D02*
X84582000Y-67608000D01*
X81142840Y-67829620D02*
X81142840Y-68503800D01*
X78205000Y-75687000D02*
X77717000Y-75199000D01*
X79629000Y-75687000D02*
X78205000Y-75687000D01*
X89164000Y-77785000D02*
X89789000Y-77785000D01*
X89789000Y-81182000D02*
X89789000Y-81407000D01*
X89088999Y-80481999D02*
X89789000Y-81182000D01*
X89088999Y-77860001D02*
X89088999Y-80481999D01*
X89164000Y-77785000D02*
X89088999Y-77860001D01*
X91415000Y-81953000D02*
X92465000Y-81953000D01*
X90960000Y-81953000D02*
X91415000Y-81953000D01*
X90414000Y-81407000D02*
X90960000Y-81953000D01*
X89789000Y-81407000D02*
X90414000Y-81407000D01*
X85563000Y-86263000D02*
X85598000Y-86228000D01*
X83559000Y-86263000D02*
X85563000Y-86263000D01*
X85598000Y-86228000D02*
X85598000Y-85528080D01*
X88087200Y-86156800D02*
X89789000Y-86156800D01*
X86158685Y-68458000D02*
X86407685Y-68707000D01*
X85593000Y-68458000D02*
X86158685Y-68458000D01*
X93515000Y-81953000D02*
X93821002Y-82259002D01*
X92465000Y-81953000D02*
X93515000Y-81953000D01*
X93821002Y-82259002D02*
X95790998Y-82259002D01*
X99915000Y-82753000D02*
X100965000Y-82753000D01*
X98889579Y-81727579D02*
X99915000Y-82753000D01*
X97526425Y-81727579D02*
X98889579Y-81727579D01*
X97503002Y-81751002D02*
X97526425Y-81727579D01*
X93325002Y-80353000D02*
X92465000Y-80353000D01*
X93590001Y-80617999D02*
X93325002Y-80353000D01*
X93590001Y-81582005D02*
X93590001Y-80617999D01*
X94266998Y-82259002D02*
X93590001Y-81582005D01*
X95790998Y-82259002D02*
X94266998Y-82259002D01*
X104832685Y-69543993D02*
X104267000Y-69543993D01*
X105121093Y-69832401D02*
X104832685Y-69543993D01*
X91339999Y-79560999D02*
X91339999Y-80092933D01*
X91339999Y-80092933D02*
X91600066Y-80353000D01*
X89789000Y-78010000D02*
X91339999Y-79560999D01*
X89789000Y-77785000D02*
X89789000Y-78010000D01*
X91600066Y-80353000D02*
X92465000Y-80353000D01*
X103124000Y-80225000D02*
X102419991Y-80929009D01*
X102419991Y-82348009D02*
X102015000Y-82753000D01*
X102015000Y-82753000D02*
X100965000Y-82753000D01*
X102419991Y-80929009D02*
X102419991Y-82348009D01*
X103124000Y-79375000D02*
X103124000Y-80225000D01*
X96873450Y-82527976D02*
X96059972Y-82527976D01*
X97503002Y-81751002D02*
X97255987Y-81998017D01*
X97255987Y-82145439D02*
X96873450Y-82527976D01*
X97255987Y-81998017D02*
X97255987Y-82145439D01*
X96059972Y-82527976D02*
X95790998Y-82259002D01*
X88087200Y-86055200D02*
X88087200Y-86156800D01*
X87165299Y-85133299D02*
X88087200Y-86055200D01*
X87165299Y-83014701D02*
X87165299Y-85133299D01*
X89789000Y-81407000D02*
X88773000Y-81407000D01*
X88773000Y-81407000D02*
X87165299Y-83014701D01*
X92039726Y-66172726D02*
X91526000Y-65659000D01*
X92529391Y-66172726D02*
X92039726Y-66172726D01*
X86158489Y-75558773D02*
X85592804Y-75558773D01*
X89164000Y-77785000D02*
X86937773Y-75558773D01*
X85464577Y-75687000D02*
X85592804Y-75558773D01*
X86937773Y-75558773D02*
X86158489Y-75558773D01*
X79629000Y-75687000D02*
X85464577Y-75687000D01*
X86937315Y-64262000D02*
X87503000Y-64262000D01*
X86868000Y-64262000D02*
X86937315Y-64262000D01*
X85471000Y-65659000D02*
X86868000Y-64262000D01*
X87902999Y-63862001D02*
X87503000Y-64262000D01*
X102158997Y-63862001D02*
X87902999Y-63862001D01*
X103981195Y-64054209D02*
X102351205Y-64054209D01*
X102351205Y-64054209D02*
X102158997Y-63862001D01*
X104381194Y-64454208D02*
X103981195Y-64054209D01*
X111760000Y-72390000D02*
X111760000Y-74930000D01*
X111760000Y-74930000D02*
X109982000Y-74930000D01*
X77851000Y-66103500D02*
X78168500Y-65786000D01*
X79631580Y-68519000D02*
X79646780Y-68503800D01*
X77851000Y-68519000D02*
X79631580Y-68519000D01*
X80147160Y-71450200D02*
X79646780Y-71450200D01*
X77851000Y-68519000D02*
X77851000Y-67564000D01*
X77851000Y-67564000D02*
X77851000Y-66103500D01*
X80147160Y-72366290D02*
X80095560Y-72417890D01*
X80147160Y-71450200D02*
X80147160Y-72366290D01*
X104540394Y-65368010D02*
X104107675Y-65368010D01*
X104757404Y-65151000D02*
X104540394Y-65368010D01*
X106426000Y-65151000D02*
X104757404Y-65151000D01*
X104107675Y-65368010D02*
X103541990Y-65368010D01*
X86526000Y-65659000D02*
X85800999Y-66384001D01*
X85800999Y-66384001D02*
X85122999Y-66384001D01*
X87376000Y-65659000D02*
X86526000Y-65659000D01*
X85122999Y-66384001D02*
X84397998Y-65659000D01*
X82480685Y-65659000D02*
X81915000Y-65659000D01*
X84397998Y-65659000D02*
X82480685Y-65659000D01*
X102335598Y-64675013D02*
X102848993Y-64675013D01*
X87376000Y-65659000D02*
X87526000Y-65659000D01*
X87526000Y-65659000D02*
X88584989Y-64600011D01*
X102848993Y-64675013D02*
X103141991Y-64968011D01*
X103141991Y-64968011D02*
X103541990Y-65368010D01*
X101985607Y-64325021D02*
X102335598Y-64675013D01*
X93338981Y-64325021D02*
X101985607Y-64325021D01*
X93063991Y-64600011D02*
X93338981Y-64325021D01*
X88584989Y-64600011D02*
X93063991Y-64600011D01*
X81689020Y-68458000D02*
X81643220Y-68503800D01*
X83312000Y-68458000D02*
X81689020Y-68458000D01*
X71236840Y-83699160D02*
X71236840Y-82550000D01*
X71236840Y-83726840D02*
X71236840Y-83699160D01*
X71755000Y-84245000D02*
X71236840Y-83726840D01*
X71755000Y-85095000D02*
X71755000Y-84245000D01*
X72435602Y-85095000D02*
X71755000Y-85095000D01*
X74295000Y-75724001D02*
X74295000Y-83235602D01*
X74046999Y-75724001D02*
X74295000Y-75724001D01*
X74295000Y-83235602D02*
X72435602Y-85095000D01*
X74057000Y-73899000D02*
X74181999Y-74023999D01*
X74181999Y-74023999D02*
X74046999Y-74023999D01*
X75057000Y-73899000D02*
X74057000Y-73899000D01*
X74046999Y-74023999D02*
X73981999Y-74088999D01*
X73981999Y-74088999D02*
X73981999Y-75659001D01*
X73981999Y-75659001D02*
X74046999Y-75724001D01*
X79230220Y-80184000D02*
X79230220Y-79284000D01*
X78515220Y-80899000D02*
X79230220Y-80184000D01*
X80899000Y-82931000D02*
X81280000Y-82550000D01*
X80899000Y-84963000D02*
X80899000Y-82931000D01*
X85598000Y-80010000D02*
X87299800Y-80010000D01*
X78178006Y-80899000D02*
X76444000Y-80899000D01*
X76444000Y-80899000D02*
X75819000Y-80899000D01*
X80899000Y-84963000D02*
X80899000Y-83619994D01*
X81449000Y-84963000D02*
X83161999Y-83250001D01*
X85598000Y-81692002D02*
X85598000Y-80958500D01*
X84040001Y-83250001D02*
X85598000Y-81692002D01*
X83161999Y-83250001D02*
X84040001Y-83250001D01*
X80899000Y-84963000D02*
X81449000Y-84963000D01*
X85598000Y-80958500D02*
X85598000Y-80010000D01*
X91526000Y-67183000D02*
X91526000Y-68707000D01*
X91526000Y-68707000D02*
X91526000Y-69682000D01*
X91526000Y-69682000D02*
X91567000Y-69723000D01*
X91567000Y-71120000D02*
X88392000Y-71120000D01*
X80899000Y-84963000D02*
X80899000Y-84328000D01*
X80899000Y-84328000D02*
X81534000Y-83693000D01*
X82019940Y-72900605D02*
X82276545Y-72644000D01*
X82276545Y-72644000D02*
X88265000Y-72644000D01*
X77683241Y-82873999D02*
X77683241Y-83733081D01*
X77683241Y-83733081D02*
X77734160Y-83784000D01*
X81280000Y-82550000D02*
X79756000Y-82550000D01*
X77756998Y-81824998D02*
X77379998Y-82201998D01*
X77379998Y-82201998D02*
X77379998Y-82570756D01*
X79756000Y-82550000D02*
X79030998Y-81824998D01*
X79030998Y-81824998D02*
X77756998Y-81824998D01*
X77379998Y-82570756D02*
X77683241Y-82873999D01*
X79030998Y-81443998D02*
X78486000Y-80899000D01*
X79030998Y-81824998D02*
X79030998Y-81443998D01*
X75819000Y-80899000D02*
X78486000Y-80899000D01*
X78486000Y-80899000D02*
X78515220Y-80899000D01*
X106297698Y-68197698D02*
X106299000Y-68199000D01*
X106864685Y-68199000D02*
X106299000Y-68199000D01*
X115479884Y-66003010D02*
X113283894Y-68199000D01*
X113283894Y-68199000D02*
X106864685Y-68199000D01*
X100687812Y-70231000D02*
X99237808Y-68780996D01*
X95991968Y-69432028D02*
X95991968Y-69715786D01*
X99237808Y-68780996D02*
X96643000Y-68780996D01*
X102743000Y-70231000D02*
X100687812Y-70231000D01*
X96643000Y-68780996D02*
X95991968Y-69432028D01*
X95844281Y-75123719D02*
X95883640Y-75123719D01*
X95515000Y-75453000D02*
X95844281Y-75123719D01*
X95515000Y-76503000D02*
X95515000Y-75453000D01*
X103543292Y-68199000D02*
X103541990Y-68197698D01*
X106299000Y-68199000D02*
X103543292Y-68199000D01*
X107770335Y-65203657D02*
X106698991Y-66275001D01*
X118087091Y-65203657D02*
X107770335Y-65203657D01*
X106698991Y-66275001D02*
X106298992Y-66675000D01*
X99387209Y-68293987D02*
X96004698Y-68293987D01*
X102428522Y-69127958D02*
X100221180Y-69127958D01*
X100221180Y-69127958D02*
X99387209Y-68293987D01*
X96004698Y-68293987D02*
X95747789Y-68550896D01*
X95747789Y-68550896D02*
X95347790Y-68950895D01*
X94715000Y-75237230D02*
X94885239Y-75066991D01*
X94715000Y-76503000D02*
X94715000Y-75237230D01*
X106298992Y-66675000D02*
X103541990Y-66675000D01*
X104962303Y-74673382D02*
X106428616Y-74673382D01*
X107600923Y-75680843D02*
X107200924Y-75280844D01*
X115570000Y-77470000D02*
X109390080Y-77470000D01*
X109390080Y-77470000D02*
X107600923Y-75680843D01*
X93726000Y-67183000D02*
X93458059Y-67183000D01*
X93458059Y-67183000D02*
X92960898Y-67680161D01*
X77233780Y-79284000D02*
X77233780Y-77457118D01*
X77233780Y-77457118D02*
X77105095Y-77328433D01*
X104832685Y-74803000D02*
X104267000Y-74803000D01*
X104962303Y-74673382D02*
X104832685Y-74803000D01*
X103701315Y-74803000D02*
X104267000Y-74803000D01*
X98565000Y-74803000D02*
X103701315Y-74803000D01*
X97915000Y-75453000D02*
X98565000Y-74803000D01*
X97915000Y-76503000D02*
X97915000Y-75453000D01*
X97915000Y-75250585D02*
X95596328Y-72931913D01*
X97915000Y-76503000D02*
X97915000Y-75250585D01*
X93529685Y-72931913D02*
X92964000Y-72931913D01*
X95596328Y-72931913D02*
X93529685Y-72931913D01*
X82351142Y-73642403D02*
X82841545Y-73152000D01*
X80604002Y-73406000D02*
X81351802Y-73406000D01*
X92526911Y-73369002D02*
X92564001Y-73331912D01*
X81588205Y-73642403D02*
X82351142Y-73642403D01*
X92564001Y-73331912D02*
X92964000Y-72931913D01*
X87916998Y-73369002D02*
X92526911Y-73369002D01*
X87699996Y-73152000D02*
X87916998Y-73369002D01*
X82841545Y-73152000D02*
X87699996Y-73152000D01*
X81351802Y-73406000D02*
X81588205Y-73642403D01*
X108877453Y-78397453D02*
X108877453Y-78268990D01*
X108966000Y-78486000D02*
X108877453Y-78397453D01*
X118110000Y-78486000D02*
X108966000Y-78486000D01*
X108966000Y-73406000D02*
X106680008Y-73406000D01*
X106680008Y-73406000D02*
X106426008Y-73152000D01*
X106407009Y-73133001D02*
X106426008Y-73152000D01*
X77734160Y-77840854D02*
X77832015Y-77742999D01*
X77832015Y-77742999D02*
X78232014Y-77343000D01*
X77734160Y-79284000D02*
X77734160Y-77840854D01*
X93808818Y-68624182D02*
X93836969Y-68624182D01*
X93726000Y-68707000D02*
X93808818Y-68624182D01*
X93836969Y-68624182D02*
X94402654Y-68624182D01*
X97115000Y-76503000D02*
X97115000Y-75330824D01*
X97115000Y-75330824D02*
X96418977Y-74634801D01*
X95180685Y-73877010D02*
X94615000Y-73877010D01*
X96418977Y-74634801D02*
X96418977Y-74390973D01*
X95905014Y-73877010D02*
X95180685Y-73877010D01*
X96418977Y-74390973D02*
X95905014Y-73877010D01*
X98044000Y-73914000D02*
X103886000Y-73914000D01*
X103886000Y-73914000D02*
X104267000Y-73533000D01*
X104648000Y-73152000D02*
X106426008Y-73152000D01*
X104267000Y-73533000D02*
X104648000Y-73152000D01*
X97115000Y-77730626D02*
X97130418Y-77746044D01*
X97115000Y-76503000D02*
X97115000Y-77730626D01*
X80960669Y-74340244D02*
X82289712Y-74340244D01*
X82289712Y-74340244D02*
X82973033Y-73656923D01*
X82973033Y-73656923D02*
X87568508Y-73656923D01*
X87568508Y-73656923D02*
X87788595Y-73877010D01*
X94049315Y-73877010D02*
X94615000Y-73877010D01*
X87788595Y-73877010D02*
X94049315Y-73877010D01*
X112573096Y-81751010D02*
X112007411Y-81751010D01*
X116185010Y-81751010D02*
X112573096Y-81751010D01*
X116840000Y-82406000D02*
X116185010Y-81751010D01*
X116840000Y-83506000D02*
X116840000Y-82406000D01*
X100040000Y-85003000D02*
X99515000Y-85003000D01*
X107569002Y-82804000D02*
X105791002Y-81026000D01*
X104140000Y-81857315D02*
X104140000Y-82423000D01*
X105791002Y-81026000D02*
X104971315Y-81026000D01*
X104971315Y-81026000D02*
X104140000Y-81857315D01*
X104140000Y-82423000D02*
X103755002Y-82423000D01*
X101175002Y-85003000D02*
X100040000Y-85003000D01*
X103755002Y-82423000D02*
X101175002Y-85003000D01*
X104393850Y-79123231D02*
X104772619Y-79502000D01*
X107249613Y-80893607D02*
X107649612Y-81293606D01*
X114300000Y-83506000D02*
X113124999Y-84681001D01*
X113124999Y-84681001D02*
X110404509Y-84681001D01*
X105858006Y-79502000D02*
X107249613Y-80893607D01*
X104772619Y-79502000D02*
X105858006Y-79502000D01*
X110404509Y-84048503D02*
X107649612Y-81293606D01*
X110404509Y-84681001D02*
X110404509Y-84048503D01*
X103414998Y-82126593D02*
X101988592Y-83553000D01*
X103414998Y-81680067D02*
X103414998Y-82126593D01*
X101988592Y-83553000D02*
X100965000Y-83553000D01*
X104393850Y-79123231D02*
X104393850Y-80701215D01*
X104393850Y-80701215D02*
X103414998Y-81680067D01*
X106025083Y-71556051D02*
X106425082Y-71956050D01*
X106732032Y-72263000D02*
X106425082Y-71956050D01*
X108204000Y-72263000D02*
X106732032Y-72263000D01*
X105848044Y-71379012D02*
X106025083Y-71556051D01*
X93726000Y-65659000D02*
X94013528Y-65659000D01*
X94013528Y-65659000D02*
X94519628Y-66165100D01*
X102083402Y-72263000D02*
X99326400Y-69505998D01*
X104267000Y-72263000D02*
X102083402Y-72263000D01*
X99326400Y-69505998D02*
X96991002Y-69505998D01*
X104931660Y-71379012D02*
X105277988Y-71379012D01*
X104666999Y-71643673D02*
X104931660Y-71379012D01*
X104666999Y-71863001D02*
X104666999Y-71643673D01*
X104267000Y-72263000D02*
X104666999Y-71863001D01*
X105023988Y-71379012D02*
X105277988Y-71379012D01*
X105277988Y-71379012D02*
X105848044Y-71379012D01*
X96315000Y-77553000D02*
X95935585Y-77932415D01*
X95935585Y-77932415D02*
X95680407Y-77932415D01*
X96315000Y-76503000D02*
X96315000Y-77553000D01*
X108947835Y-81793835D02*
X108947835Y-80940715D01*
X110660000Y-83506000D02*
X108947835Y-81793835D01*
X108947835Y-80940715D02*
X108947835Y-80375030D01*
X111760000Y-83506000D02*
X110660000Y-83506000D01*
X114300000Y-86046000D02*
X114300000Y-87146000D01*
X114300000Y-87146000D02*
X114224999Y-87221001D01*
X114224999Y-87221001D02*
X110589001Y-87221001D01*
X107968999Y-84600999D02*
X107569000Y-84201000D01*
X110589001Y-87221001D02*
X107968999Y-84600999D01*
X107003315Y-84201000D02*
X106876315Y-84074000D01*
X107569000Y-84201000D02*
X107003315Y-84201000D01*
X104578685Y-84455000D02*
X104013000Y-84455000D01*
X104959685Y-84074000D02*
X104578685Y-84455000D01*
X106876315Y-84074000D02*
X104959685Y-84074000D01*
X100711000Y-87757000D02*
X104013000Y-84455000D01*
X99314000Y-87757000D02*
X100711000Y-87757000D01*
X98715000Y-85003000D02*
X98715000Y-86114954D01*
X98715000Y-86114954D02*
X98891364Y-86291318D01*
X107032697Y-87671012D02*
X106483685Y-87122000D01*
X119084988Y-87671012D02*
X107032697Y-87671012D01*
X119380000Y-74930000D02*
X119380000Y-87376000D01*
X119380000Y-87376000D02*
X119084988Y-87671012D01*
X106483685Y-87122000D02*
X104139988Y-87122000D01*
X67937380Y-82550000D02*
X67937380Y-86352380D01*
X96120001Y-87648999D02*
X96520000Y-87249000D01*
X94774998Y-88682998D02*
X95086002Y-88682998D01*
X70902999Y-89317999D02*
X94139997Y-89317999D01*
X67937380Y-86352380D02*
X70902999Y-89317999D01*
X95086002Y-88682998D02*
X96120001Y-87648999D01*
X94139997Y-89317999D02*
X94774998Y-88682998D01*
X102488994Y-88772994D02*
X100006685Y-88772994D01*
X104139988Y-87122000D02*
X102488994Y-88772994D01*
X100006685Y-88772994D02*
X99441000Y-88772994D01*
X96429998Y-80677998D02*
X96429998Y-81707524D01*
X99839999Y-79796421D02*
X99733431Y-79902989D01*
X99733431Y-79902989D02*
X97205007Y-79902989D01*
X97205007Y-79902989D02*
X96429998Y-80677998D01*
X96429998Y-81707524D02*
X96525448Y-81802974D01*
X99839999Y-78828001D02*
X99839999Y-79796421D01*
X99915000Y-78753000D02*
X99839999Y-78828001D01*
X100965000Y-78753000D02*
X99915000Y-78753000D01*
X116840000Y-74930000D02*
X116840000Y-76200000D01*
X116840000Y-76200000D02*
X117094000Y-76454000D01*
X107898294Y-80339294D02*
X107948462Y-80339294D01*
X110317364Y-81020051D02*
X109917365Y-80620052D01*
X117094000Y-81026000D02*
X110323313Y-81026000D01*
X107315000Y-79756000D02*
X107898294Y-80339294D01*
X110323313Y-81026000D02*
X110317364Y-81020051D01*
X106561420Y-86125014D02*
X106034406Y-85598000D01*
X104705683Y-85725000D02*
X104139998Y-85725000D01*
X104832683Y-85598000D02*
X104705683Y-85725000D01*
X106034406Y-85598000D02*
X104832683Y-85598000D01*
X92683599Y-88867988D02*
X93191599Y-88359988D01*
X71089398Y-88867988D02*
X92683599Y-88867988D01*
X94266012Y-88359988D02*
X94977001Y-87648999D01*
X69037200Y-82550000D02*
X69037200Y-86815790D01*
X93191599Y-88359988D02*
X94266012Y-88359988D01*
X69037200Y-86815790D02*
X71089398Y-88867988D01*
X94977001Y-87648999D02*
X95377000Y-87249000D01*
X98062999Y-89553999D02*
X97663000Y-89154000D01*
X103378000Y-89154000D02*
X102978001Y-89553999D01*
X102978001Y-89553999D02*
X98062999Y-89553999D01*
X99389988Y-78478012D02*
X99389988Y-79413021D01*
X95566143Y-80954873D02*
X95566143Y-81520558D01*
X95566143Y-80905442D02*
X95566143Y-80954873D01*
X99915000Y-77953000D02*
X99389988Y-78478012D01*
X97018607Y-79452978D02*
X95566143Y-80905442D01*
X99389988Y-79413021D02*
X99350031Y-79452978D01*
X99350031Y-79452978D02*
X97018607Y-79452978D01*
X100965000Y-77953000D02*
X99915000Y-77953000D01*
X118237000Y-65913000D02*
X116840000Y-67310000D01*
X122301000Y-65913000D02*
X118237000Y-65913000D01*
X106998692Y-78868118D02*
X106433007Y-78868118D01*
X107475288Y-78868118D02*
X106998692Y-78868118D01*
X117024832Y-79559832D02*
X108167002Y-79559832D01*
X108167002Y-79559832D02*
X107475288Y-78868118D01*
X118110000Y-80645000D02*
X117024832Y-79559832D01*
X99939841Y-87016320D02*
X98543362Y-87016320D01*
X98543362Y-87016320D02*
X97915000Y-86387958D01*
X97915000Y-86053000D02*
X97915000Y-85003000D01*
X104099648Y-83422198D02*
X103533963Y-83422198D01*
X103533963Y-83422198D02*
X99939841Y-87016320D01*
X97915000Y-86387958D02*
X97915000Y-86053000D01*
X121412000Y-79121000D02*
X120142000Y-79121000D01*
X118181031Y-79647514D02*
X117527517Y-78994000D01*
X106369064Y-76270060D02*
X106426000Y-76326996D01*
X107913002Y-77813998D02*
X106825999Y-76726995D01*
X107913002Y-78506687D02*
X107913002Y-77813998D01*
X108400315Y-78994000D02*
X107913002Y-78506687D01*
X117527517Y-78994000D02*
X108400315Y-78994000D01*
X106825999Y-76726995D02*
X106426000Y-76326996D01*
X93915000Y-77553000D02*
X93980000Y-77618000D01*
X93915000Y-77553000D02*
X93915000Y-76503000D01*
X106411623Y-76312619D02*
X106426000Y-76326996D01*
X104482945Y-76312619D02*
X106411623Y-76312619D01*
X104482945Y-76312619D02*
X101221765Y-76312619D01*
X101221765Y-76312619D02*
X100871422Y-76662962D01*
X100871422Y-76662962D02*
X100471423Y-77062961D01*
X96832208Y-79002967D02*
X98389977Y-79002967D01*
X98389977Y-79002967D02*
X98664976Y-78727968D01*
X93915000Y-77727585D02*
X95155013Y-78967598D01*
X95155013Y-78967598D02*
X95155013Y-80036402D01*
X95798773Y-80036402D02*
X96832208Y-79002967D01*
X93915000Y-77553000D02*
X93915000Y-77727585D01*
X95155013Y-80036402D02*
X95798773Y-80036402D01*
X59438540Y-67312540D02*
X59436000Y-67310000D01*
X59438540Y-70553580D02*
X59438540Y-67312540D01*
X79230220Y-84684000D02*
X79230220Y-83784000D01*
X79010221Y-84903999D02*
X79230220Y-84684000D01*
X76275001Y-84903999D02*
X79010221Y-84903999D01*
X76200000Y-84979000D02*
X76275001Y-84903999D01*
X76200000Y-85979000D02*
X76200000Y-84979000D01*
X99695000Y-65659000D02*
X97917000Y-65659000D01*
X99695000Y-67183000D02*
X97917000Y-67183000D01*
X70137020Y-82550000D02*
X70137020Y-84054990D01*
X80645000Y-67877500D02*
X80645000Y-68503800D01*
X80327500Y-67560000D02*
X80645000Y-67877500D01*
X80327500Y-65786000D02*
X80327500Y-67560000D01*
X96315000Y-86053000D02*
X96098001Y-86269999D01*
X92463033Y-87692965D02*
X87297344Y-87692965D01*
X96098001Y-86269999D02*
X93885999Y-86269999D01*
X96315000Y-85003000D02*
X96315000Y-86053000D01*
X87297344Y-87692965D02*
X86731659Y-87692965D01*
X93885999Y-86269999D02*
X92463033Y-87692965D01*
X85540315Y-76454000D02*
X86106000Y-76454000D01*
X76057000Y-75199000D02*
X77470001Y-76612001D01*
X75057000Y-75199000D02*
X76057000Y-75199000D01*
X77470001Y-76612001D02*
X85382314Y-76612001D01*
X85382314Y-76612001D02*
X85540315Y-76454000D01*
X80899000Y-86263000D02*
X81899000Y-86263000D01*
X87291999Y-87180301D02*
X91762699Y-87180301D01*
X86383657Y-86967963D02*
X87079661Y-86967963D01*
X92056001Y-86886999D02*
X92456000Y-86487000D01*
X86198619Y-87153001D02*
X86383657Y-86967963D01*
X82789001Y-87153001D02*
X86198619Y-87153001D01*
X81899000Y-86263000D02*
X82789001Y-87153001D01*
X87079661Y-86967963D02*
X87291999Y-87180301D01*
X91762699Y-87180301D02*
X92056001Y-86886999D01*
X97115000Y-86613278D02*
X97417121Y-86915399D01*
X97417121Y-87715397D02*
X97817120Y-87315398D01*
X97115000Y-85003000D02*
X97115000Y-86613278D01*
X95724518Y-89408000D02*
X97417121Y-87715397D01*
X95123000Y-89408000D02*
X95724518Y-89408000D01*
X97417121Y-86915399D02*
X97817120Y-87315398D01*
X81130000Y-79375000D02*
X81280000Y-79375000D01*
X80063999Y-78308999D02*
X81130000Y-79375000D01*
X78804841Y-78308999D02*
X80063999Y-78308999D01*
X78729840Y-78384000D02*
X78804841Y-78308999D01*
X78729840Y-79284000D02*
X78729840Y-78384000D01*
X81280000Y-77765000D02*
X81239000Y-77724000D01*
X81280000Y-79375000D02*
X81280000Y-77765000D01*
X101895000Y-65659000D02*
X100895002Y-65659000D01*
X98351221Y-83427988D02*
X98737013Y-83042196D01*
X94715000Y-85003000D02*
X94715000Y-83953000D01*
X95240012Y-83427988D02*
X98351221Y-83427988D01*
X94715000Y-83953000D02*
X95240012Y-83427988D01*
X101895000Y-67183000D02*
X101895000Y-68251455D01*
X101895000Y-68251455D02*
X101778001Y-68368454D01*
X95590001Y-83877999D02*
X99289973Y-83877999D01*
X95515000Y-83953000D02*
X95590001Y-83877999D01*
X99289973Y-83877999D02*
X99564984Y-83602988D01*
X95515000Y-85003000D02*
X95515000Y-83953000D01*
X90932000Y-78270000D02*
X90932000Y-77851000D01*
X91415000Y-78753000D02*
X90932000Y-78270000D01*
X92465000Y-78753000D02*
X91415000Y-78753000D01*
X89008001Y-71863001D02*
X87972995Y-71863001D01*
X82390001Y-72099001D02*
X81936098Y-72099001D01*
X81936098Y-72099001D02*
X81835709Y-72199390D01*
X81835709Y-72199390D02*
X80950351Y-72199390D01*
X80950351Y-72199390D02*
X80645000Y-71894039D01*
X80645000Y-71894039D02*
X80645000Y-71450200D01*
X87972995Y-71863001D02*
X87642007Y-72193989D01*
X82484989Y-72193989D02*
X82390001Y-72099001D01*
X89408000Y-72263000D02*
X89008001Y-71863001D01*
X87642007Y-72193989D02*
X82484989Y-72193989D01*
X89576000Y-65659000D02*
X89576000Y-67183000D01*
X89576000Y-67183000D02*
X89672460Y-67183000D01*
X89672460Y-67183000D02*
X90387915Y-67898455D01*
X93853000Y-74676000D02*
X90678000Y-74676000D01*
X98715000Y-77553000D02*
X97715044Y-78552956D01*
X96240289Y-78552956D02*
X95878122Y-78915123D01*
X97715044Y-78552956D02*
X96240289Y-78552956D01*
X98715000Y-76503000D02*
X98715000Y-77553000D01*
X61638180Y-70553580D02*
X62738000Y-70553580D01*
X71617975Y-88417977D02*
X92382311Y-88417977D01*
X70104000Y-86904002D02*
X71617975Y-88417977D01*
X70104000Y-85617010D02*
X70104000Y-86904002D01*
X92382311Y-88417977D02*
X93725774Y-87074514D01*
X93725774Y-87074514D02*
X94291459Y-87074514D01*
X94705002Y-79153998D02*
X94705002Y-80370313D01*
X94705002Y-80370313D02*
X94361000Y-80714315D01*
X92465000Y-77953000D02*
X93504004Y-77953000D01*
X93504004Y-77953000D02*
X94705002Y-79153998D01*
X94361000Y-80714315D02*
X94361000Y-81280000D01*
X99609000Y-71122900D02*
X99225100Y-70739000D01*
X99609000Y-72263000D02*
X99609000Y-71122900D01*
X99900000Y-76503000D02*
X100330000Y-76073000D01*
X99515000Y-76503000D02*
X99900000Y-76503000D01*
X99101000Y-71755000D02*
X99609000Y-72263000D01*
X98679000Y-71755000D02*
X99101000Y-71755000D01*
X83480000Y-81026000D02*
X83480000Y-79375000D01*
X85598000Y-77901800D02*
X85598000Y-77800200D01*
X84124800Y-79375000D02*
X85598000Y-77901800D01*
X83480000Y-79375000D02*
X84124800Y-79375000D01*
X91415000Y-82753000D02*
X92465000Y-82753000D01*
X88332700Y-82753000D02*
X91415000Y-82753000D01*
X88087200Y-82998500D02*
X88332700Y-82753000D01*
X88087200Y-83947000D02*
X88087200Y-82998500D01*
X97553991Y-72371001D02*
X97953990Y-72771000D01*
X97409000Y-72263000D02*
X97445990Y-72263000D01*
X97445990Y-72263000D02*
X97553991Y-72371001D01*
X97529316Y-82852579D02*
X97929315Y-82452580D01*
X97403918Y-82977977D02*
X97529316Y-82852579D01*
X93915000Y-83953000D02*
X94890023Y-82977977D01*
X94890023Y-82977977D02*
X97403918Y-82977977D01*
X93915000Y-85003000D02*
X93915000Y-83953000D01*
D32*
G36*
X122505001Y-63466344D02*
G01*
X122505000Y-63466354D01*
X122505000Y-64898301D01*
X122402939Y-64878000D01*
X122199061Y-64878000D01*
X121999102Y-64917774D01*
X121810744Y-64995795D01*
X121641226Y-65109063D01*
X121597289Y-65153000D01*
X119122091Y-65153000D01*
X119122091Y-65101718D01*
X119082317Y-64901759D01*
X119004296Y-64713401D01*
X118891028Y-64543883D01*
X118746865Y-64399720D01*
X118577347Y-64286452D01*
X118388989Y-64208431D01*
X118189030Y-64168657D01*
X117985152Y-64168657D01*
X117785193Y-64208431D01*
X117596835Y-64286452D01*
X117427317Y-64399720D01*
X117383380Y-64443657D01*
X107807657Y-64443657D01*
X107770334Y-64439981D01*
X107733011Y-64443657D01*
X107733002Y-64443657D01*
X107621349Y-64454654D01*
X107478088Y-64498111D01*
X107346059Y-64568683D01*
X107304488Y-64602800D01*
X107229937Y-64491226D01*
X107085774Y-64347063D01*
X106916256Y-64233795D01*
X106727898Y-64155774D01*
X106527939Y-64116000D01*
X106457662Y-64116000D01*
X106449257Y-64073745D01*
X106367785Y-63877053D01*
X106249506Y-63700036D01*
X106098964Y-63549494D01*
X105921947Y-63431215D01*
X105725255Y-63349743D01*
X105516449Y-63308208D01*
X105303551Y-63308208D01*
X105094745Y-63349743D01*
X104898053Y-63431215D01*
X104790137Y-63503322D01*
X104683092Y-63458982D01*
X104483133Y-63419208D01*
X104405420Y-63419208D01*
X104273442Y-63348663D01*
X104130181Y-63305206D01*
X104018528Y-63294209D01*
X104018517Y-63294209D01*
X103981195Y-63290533D01*
X103943873Y-63294209D01*
X102665135Y-63294209D01*
X102583273Y-63227027D01*
X102451244Y-63156455D01*
X102307983Y-63112998D01*
X102196330Y-63102001D01*
X102196319Y-63102001D01*
X102158997Y-63098325D01*
X102121675Y-63102001D01*
X87940321Y-63102001D01*
X87902998Y-63098325D01*
X87865676Y-63102001D01*
X87865666Y-63102001D01*
X87754013Y-63112998D01*
X87610752Y-63156455D01*
X87478774Y-63227000D01*
X87401061Y-63227000D01*
X87201102Y-63266774D01*
X87012744Y-63344795D01*
X86843226Y-63458063D01*
X86795861Y-63505428D01*
X86719014Y-63512997D01*
X86575753Y-63556454D01*
X86443724Y-63627026D01*
X86327999Y-63721999D01*
X86304201Y-63750997D01*
X85431199Y-64624000D01*
X85369061Y-64624000D01*
X85169102Y-64663774D01*
X84980744Y-64741795D01*
X84811226Y-64855063D01*
X84704966Y-64961323D01*
X84690245Y-64953454D01*
X84546984Y-64909997D01*
X84435331Y-64899000D01*
X84435320Y-64899000D01*
X84397998Y-64895324D01*
X84360676Y-64899000D01*
X82618711Y-64899000D01*
X82574774Y-64855063D01*
X82405256Y-64741795D01*
X82216898Y-64663774D01*
X82016939Y-64624000D01*
X81813061Y-64624000D01*
X81613102Y-64663774D01*
X81537072Y-64695267D01*
X81537072Y-64262000D01*
X81524812Y-64137518D01*
X81488502Y-64017820D01*
X81429537Y-63907506D01*
X81350185Y-63810815D01*
X81253494Y-63731463D01*
X81143180Y-63672498D01*
X81023482Y-63636188D01*
X80899000Y-63623928D01*
X79756000Y-63623928D01*
X79631518Y-63636188D01*
X79511820Y-63672498D01*
X79401506Y-63731463D01*
X79304815Y-63810815D01*
X79248000Y-63880044D01*
X79191185Y-63810815D01*
X79094494Y-63731463D01*
X78984180Y-63672498D01*
X78864482Y-63636188D01*
X78740000Y-63623928D01*
X77597000Y-63623928D01*
X77472518Y-63636188D01*
X77352820Y-63672498D01*
X77242506Y-63731463D01*
X77145815Y-63810815D01*
X77066463Y-63907506D01*
X77007498Y-64017820D01*
X76971188Y-64137518D01*
X76958928Y-64262000D01*
X76958928Y-67036130D01*
X76933795Y-67073744D01*
X76855774Y-67262102D01*
X76816000Y-67462061D01*
X76816000Y-67665939D01*
X76847336Y-67823477D01*
X76837928Y-67919000D01*
X76837928Y-69119000D01*
X76850188Y-69243482D01*
X76886498Y-69363180D01*
X76943061Y-69469000D01*
X76886498Y-69574820D01*
X76850188Y-69694518D01*
X76837928Y-69819000D01*
X76841000Y-70133250D01*
X76999750Y-70292000D01*
X77724000Y-70292000D01*
X77724000Y-70272000D01*
X77978000Y-70272000D01*
X77978000Y-70292000D01*
X77998000Y-70292000D01*
X77998000Y-70546000D01*
X77978000Y-70546000D01*
X77978000Y-71495250D01*
X78136750Y-71654000D01*
X78226000Y-71657072D01*
X78350482Y-71644812D01*
X78470180Y-71608502D01*
X78580494Y-71549537D01*
X78677185Y-71470185D01*
X78756537Y-71373494D01*
X78815502Y-71263180D01*
X78851812Y-71143482D01*
X78863381Y-71026020D01*
X78882092Y-71026020D01*
X78872080Y-71127668D01*
X78872080Y-71772733D01*
X78883290Y-71886548D01*
X78927588Y-72032579D01*
X78999525Y-72167163D01*
X79072475Y-72256052D01*
X79060560Y-72315951D01*
X79060560Y-72519829D01*
X79072243Y-72578562D01*
X79009820Y-72597498D01*
X78899506Y-72656463D01*
X78802815Y-72735815D01*
X78723463Y-72832506D01*
X78664498Y-72942820D01*
X78628188Y-73062518D01*
X78626103Y-73083690D01*
X78591482Y-73073188D01*
X78467000Y-73060928D01*
X76967000Y-73060928D01*
X76842518Y-73073188D01*
X76722820Y-73109498D01*
X76612506Y-73168463D01*
X76515815Y-73247815D01*
X76436463Y-73344506D01*
X76387000Y-73437043D01*
X76337537Y-73344506D01*
X76258185Y-73247815D01*
X76161494Y-73168463D01*
X76051180Y-73109498D01*
X75931482Y-73073188D01*
X75807000Y-73060928D01*
X74307000Y-73060928D01*
X74182518Y-73073188D01*
X74062820Y-73109498D01*
X74004907Y-73140454D01*
X73908014Y-73149997D01*
X73764753Y-73193454D01*
X73632724Y-73264026D01*
X73516999Y-73358999D01*
X73422026Y-73474724D01*
X73351454Y-73606753D01*
X73316607Y-73721631D01*
X73292770Y-73766226D01*
X73276453Y-73796753D01*
X73232996Y-73940014D01*
X73221999Y-74051667D01*
X73221999Y-74051677D01*
X73218323Y-74088999D01*
X73221999Y-74126322D01*
X73222000Y-75621669D01*
X73218323Y-75659001D01*
X73222000Y-75696334D01*
X73232997Y-75807987D01*
X73239622Y-75829828D01*
X73276453Y-75951247D01*
X73347025Y-76083277D01*
X73411430Y-76161754D01*
X73441999Y-76199002D01*
X73470997Y-76222800D01*
X73483195Y-76234998D01*
X73506998Y-76264002D01*
X73535000Y-76286983D01*
X73535001Y-82920799D01*
X73371684Y-83084116D01*
X73370440Y-82835750D01*
X73211690Y-82677000D01*
X72463660Y-82677000D01*
X72463660Y-82697000D01*
X72273692Y-82697000D01*
X72273692Y-81650840D01*
X72261432Y-81526358D01*
X72225122Y-81406660D01*
X72209660Y-81377733D01*
X72209660Y-81174590D01*
X72463660Y-81174590D01*
X72463660Y-82423000D01*
X73211690Y-82423000D01*
X73370440Y-82264250D01*
X73373512Y-81650840D01*
X73361252Y-81526358D01*
X73324942Y-81406660D01*
X73265977Y-81296346D01*
X73186625Y-81199655D01*
X73089934Y-81120303D01*
X72979620Y-81061338D01*
X72859922Y-81025028D01*
X72735440Y-81012768D01*
X72622410Y-81015840D01*
X72463660Y-81174590D01*
X72209660Y-81174590D01*
X72050910Y-81015840D01*
X71937880Y-81012768D01*
X71813398Y-81025028D01*
X71786750Y-81033112D01*
X71760102Y-81025028D01*
X71635620Y-81012768D01*
X70838060Y-81012768D01*
X70713578Y-81025028D01*
X70686930Y-81033112D01*
X70660282Y-81025028D01*
X70535800Y-81012768D01*
X69738240Y-81012768D01*
X69613758Y-81025028D01*
X69587110Y-81033112D01*
X69560462Y-81025028D01*
X69435980Y-81012768D01*
X68638420Y-81012768D01*
X68513938Y-81025028D01*
X68487290Y-81033112D01*
X68460642Y-81025028D01*
X68336160Y-81012768D01*
X67538600Y-81012768D01*
X67414118Y-81025028D01*
X67387470Y-81033112D01*
X67360822Y-81025028D01*
X67236340Y-81012768D01*
X66438780Y-81012768D01*
X66314298Y-81025028D01*
X66286380Y-81033497D01*
X66258462Y-81025028D01*
X66133980Y-81012768D01*
X65336420Y-81012768D01*
X65211938Y-81025028D01*
X65092240Y-81061338D01*
X64981926Y-81120303D01*
X64885235Y-81199655D01*
X64805883Y-81296346D01*
X64746918Y-81406660D01*
X64710608Y-81526358D01*
X64698348Y-81650840D01*
X64698348Y-83449160D01*
X64710608Y-83573642D01*
X64746918Y-83693340D01*
X64805883Y-83803654D01*
X64885235Y-83900345D01*
X64981926Y-83979697D01*
X65092240Y-84038662D01*
X65211938Y-84074972D01*
X65336420Y-84087232D01*
X66133980Y-84087232D01*
X66258462Y-84074972D01*
X66286380Y-84066503D01*
X66314298Y-84074972D01*
X66438780Y-84087232D01*
X67177380Y-84087232D01*
X67177381Y-86315048D01*
X67173704Y-86352380D01*
X67177381Y-86389713D01*
X67188378Y-86501366D01*
X67198433Y-86534513D01*
X67231834Y-86644626D01*
X67302406Y-86776656D01*
X67366798Y-86855117D01*
X67397380Y-86892381D01*
X67426378Y-86916179D01*
X69995198Y-89485000D01*
X54660000Y-89485000D01*
X54660000Y-83449160D01*
X57301868Y-83449160D01*
X57314128Y-83573642D01*
X57350438Y-83693340D01*
X57409403Y-83803654D01*
X57488755Y-83900345D01*
X57585446Y-83979697D01*
X57695760Y-84038662D01*
X57815458Y-84074972D01*
X57939940Y-84087232D01*
X58052970Y-84084160D01*
X58211720Y-83925410D01*
X58211720Y-82677000D01*
X57463690Y-82677000D01*
X57304940Y-82835750D01*
X57301868Y-83449160D01*
X54660000Y-83449160D01*
X54660000Y-81650840D01*
X57301868Y-81650840D01*
X57304940Y-82264250D01*
X57463690Y-82423000D01*
X58211720Y-82423000D01*
X58211720Y-81650840D01*
X58401688Y-81650840D01*
X58401688Y-83449160D01*
X58413948Y-83573642D01*
X58450258Y-83693340D01*
X58465720Y-83722267D01*
X58465720Y-83925410D01*
X58624470Y-84084160D01*
X58737500Y-84087232D01*
X58861982Y-84074972D01*
X58888630Y-84066888D01*
X58915278Y-84074972D01*
X59039760Y-84087232D01*
X59837320Y-84087232D01*
X59961802Y-84074972D01*
X59988450Y-84066888D01*
X60015098Y-84074972D01*
X60139580Y-84087232D01*
X60937140Y-84087232D01*
X61061622Y-84074972D01*
X61088270Y-84066888D01*
X61114918Y-84074972D01*
X61239400Y-84087232D01*
X62036960Y-84087232D01*
X62161442Y-84074972D01*
X62188090Y-84066888D01*
X62214738Y-84074972D01*
X62339220Y-84087232D01*
X63136780Y-84087232D01*
X63261262Y-84074972D01*
X63380960Y-84038662D01*
X63491274Y-83979697D01*
X63587965Y-83900345D01*
X63667317Y-83803654D01*
X63726282Y-83693340D01*
X63762592Y-83573642D01*
X63774852Y-83449160D01*
X63774852Y-81650840D01*
X63762592Y-81526358D01*
X63726282Y-81406660D01*
X63667317Y-81296346D01*
X63587965Y-81199655D01*
X63491274Y-81120303D01*
X63380960Y-81061338D01*
X63261262Y-81025028D01*
X63136780Y-81012768D01*
X62339220Y-81012768D01*
X62214738Y-81025028D01*
X62188090Y-81033112D01*
X62161442Y-81025028D01*
X62036960Y-81012768D01*
X61239400Y-81012768D01*
X61114918Y-81025028D01*
X61088270Y-81033112D01*
X61061622Y-81025028D01*
X60937140Y-81012768D01*
X60139580Y-81012768D01*
X60015098Y-81025028D01*
X59988450Y-81033112D01*
X59961802Y-81025028D01*
X59837320Y-81012768D01*
X59039760Y-81012768D01*
X58915278Y-81025028D01*
X58888630Y-81033112D01*
X58861982Y-81025028D01*
X58737500Y-81012768D01*
X58624470Y-81015840D01*
X58465720Y-81174590D01*
X58465720Y-81377733D01*
X58450258Y-81406660D01*
X58413948Y-81526358D01*
X58401688Y-81650840D01*
X58211720Y-81650840D01*
X58211720Y-81174590D01*
X58052970Y-81015840D01*
X57939940Y-81012768D01*
X57815458Y-81025028D01*
X57695760Y-81061338D01*
X57585446Y-81120303D01*
X57488755Y-81199655D01*
X57409403Y-81296346D01*
X57350438Y-81406660D01*
X57314128Y-81526358D01*
X57301868Y-81650840D01*
X54660000Y-81650840D01*
X54660000Y-78186481D01*
X54901877Y-78312931D01*
X55200314Y-78400766D01*
X55510128Y-78428961D01*
X55819518Y-78396443D01*
X56116700Y-78304450D01*
X56390353Y-78156486D01*
X56630056Y-77958187D01*
X56826676Y-77717106D01*
X56972726Y-77442426D01*
X57062643Y-77144610D01*
X57093000Y-76835000D01*
X57092379Y-76790493D01*
X57053388Y-76481852D01*
X56955191Y-76186662D01*
X56801529Y-75916167D01*
X56598254Y-75680670D01*
X56353108Y-75489141D01*
X56075430Y-75348876D01*
X55775795Y-75265216D01*
X55465618Y-75241350D01*
X55156712Y-75278184D01*
X54860844Y-75374318D01*
X54660000Y-75486566D01*
X54660000Y-71452740D01*
X57301868Y-71452740D01*
X57314128Y-71577222D01*
X57350438Y-71696920D01*
X57409403Y-71807234D01*
X57488755Y-71903925D01*
X57585446Y-71983277D01*
X57695760Y-72042242D01*
X57815458Y-72078552D01*
X57939940Y-72090812D01*
X58052970Y-72087740D01*
X58211720Y-71928990D01*
X58211720Y-70680580D01*
X57463690Y-70680580D01*
X57304940Y-70839330D01*
X57301868Y-71452740D01*
X54660000Y-71452740D01*
X54660000Y-65810000D01*
X57297928Y-65810000D01*
X57297928Y-68810000D01*
X57310188Y-68934482D01*
X57346498Y-69054180D01*
X57405463Y-69164494D01*
X57463006Y-69234610D01*
X57409403Y-69299926D01*
X57350438Y-69410240D01*
X57314128Y-69529938D01*
X57301868Y-69654420D01*
X57304940Y-70267830D01*
X57463690Y-70426580D01*
X58211720Y-70426580D01*
X58211720Y-70406580D01*
X58401688Y-70406580D01*
X58401688Y-71452740D01*
X58413948Y-71577222D01*
X58450258Y-71696920D01*
X58465720Y-71725847D01*
X58465720Y-71928990D01*
X58624470Y-72087740D01*
X58737500Y-72090812D01*
X58861982Y-72078552D01*
X58888630Y-72070468D01*
X58915278Y-72078552D01*
X59039760Y-72090812D01*
X59837320Y-72090812D01*
X59961802Y-72078552D01*
X59988450Y-72070468D01*
X60015098Y-72078552D01*
X60139580Y-72090812D01*
X60252610Y-72087740D01*
X60411360Y-71928990D01*
X60411360Y-71725847D01*
X60426822Y-71696920D01*
X60463132Y-71577222D01*
X60475392Y-71452740D01*
X60475392Y-70406580D01*
X60601328Y-70406580D01*
X60601328Y-71452740D01*
X60613588Y-71577222D01*
X60649898Y-71696920D01*
X60665360Y-71725847D01*
X60665360Y-71928990D01*
X60824110Y-72087740D01*
X60937140Y-72090812D01*
X61061622Y-72078552D01*
X61088270Y-72070468D01*
X61114918Y-72078552D01*
X61239400Y-72090812D01*
X62036960Y-72090812D01*
X62161442Y-72078552D01*
X62188090Y-72070468D01*
X62214738Y-72078552D01*
X62339220Y-72090812D01*
X63136780Y-72090812D01*
X63261262Y-72078552D01*
X63380960Y-72042242D01*
X63491274Y-71983277D01*
X63587965Y-71903925D01*
X63667317Y-71807234D01*
X63726282Y-71696920D01*
X63762592Y-71577222D01*
X63774852Y-71452740D01*
X64698348Y-71452740D01*
X64710608Y-71577222D01*
X64746918Y-71696920D01*
X64805883Y-71807234D01*
X64885235Y-71903925D01*
X64981926Y-71983277D01*
X65092240Y-72042242D01*
X65211938Y-72078552D01*
X65336420Y-72090812D01*
X65449450Y-72087740D01*
X65608200Y-71928990D01*
X65608200Y-70680580D01*
X64860170Y-70680580D01*
X64701420Y-70839330D01*
X64698348Y-71452740D01*
X63774852Y-71452740D01*
X63774852Y-69654420D01*
X63762592Y-69529938D01*
X63737179Y-69446162D01*
X64492000Y-69448072D01*
X64616482Y-69435812D01*
X64736180Y-69399502D01*
X64759249Y-69387171D01*
X64746918Y-69410240D01*
X64710608Y-69529938D01*
X64698348Y-69654420D01*
X64701420Y-70267830D01*
X64860170Y-70426580D01*
X65608200Y-70426580D01*
X65608200Y-69654420D01*
X65800708Y-69654420D01*
X65800708Y-71452740D01*
X65812968Y-71577222D01*
X65849278Y-71696920D01*
X65862200Y-71721095D01*
X65862200Y-71928990D01*
X66020950Y-72087740D01*
X66133980Y-72090812D01*
X66258462Y-72078552D01*
X66286380Y-72070083D01*
X66314298Y-72078552D01*
X66438780Y-72090812D01*
X67236340Y-72090812D01*
X67360822Y-72078552D01*
X67387470Y-72070468D01*
X67414118Y-72078552D01*
X67538600Y-72090812D01*
X68336160Y-72090812D01*
X68460642Y-72078552D01*
X68487290Y-72070468D01*
X68513938Y-72078552D01*
X68638420Y-72090812D01*
X69435980Y-72090812D01*
X69560462Y-72078552D01*
X69587110Y-72070468D01*
X69613758Y-72078552D01*
X69738240Y-72090812D01*
X70535800Y-72090812D01*
X70660282Y-72078552D01*
X70686930Y-72070468D01*
X70713578Y-72078552D01*
X70838060Y-72090812D01*
X71635620Y-72090812D01*
X71760102Y-72078552D01*
X71786750Y-72070468D01*
X71813398Y-72078552D01*
X71937880Y-72090812D01*
X72735440Y-72090812D01*
X72859922Y-72078552D01*
X72979620Y-72042242D01*
X73089934Y-71983277D01*
X73186625Y-71903925D01*
X73265977Y-71807234D01*
X73324942Y-71696920D01*
X73361252Y-71577222D01*
X73373512Y-71452740D01*
X73373512Y-71019000D01*
X76837928Y-71019000D01*
X76850188Y-71143482D01*
X76886498Y-71263180D01*
X76945463Y-71373494D01*
X77024815Y-71470185D01*
X77121506Y-71549537D01*
X77231820Y-71608502D01*
X77351518Y-71644812D01*
X77476000Y-71657072D01*
X77565250Y-71654000D01*
X77724000Y-71495250D01*
X77724000Y-70546000D01*
X76999750Y-70546000D01*
X76841000Y-70704750D01*
X76837928Y-71019000D01*
X73373512Y-71019000D01*
X73373512Y-69654420D01*
X73361252Y-69529938D01*
X73324942Y-69410240D01*
X73265977Y-69299926D01*
X73186625Y-69203235D01*
X73089934Y-69123883D01*
X72979620Y-69064918D01*
X72859922Y-69028608D01*
X72735440Y-69016348D01*
X71937880Y-69016348D01*
X71813398Y-69028608D01*
X71786750Y-69036692D01*
X71760102Y-69028608D01*
X71635620Y-69016348D01*
X70838060Y-69016348D01*
X70713578Y-69028608D01*
X70686930Y-69036692D01*
X70660282Y-69028608D01*
X70535800Y-69016348D01*
X69738240Y-69016348D01*
X69613758Y-69028608D01*
X69587110Y-69036692D01*
X69560462Y-69028608D01*
X69435980Y-69016348D01*
X68638420Y-69016348D01*
X68513938Y-69028608D01*
X68487290Y-69036692D01*
X68460642Y-69028608D01*
X68336160Y-69016348D01*
X67538600Y-69016348D01*
X67414118Y-69028608D01*
X67387470Y-69036692D01*
X67360822Y-69028608D01*
X67236340Y-69016348D01*
X66438780Y-69016348D01*
X66314298Y-69028608D01*
X66286380Y-69037077D01*
X66258462Y-69028608D01*
X66133980Y-69016348D01*
X66020950Y-69019420D01*
X65862200Y-69178170D01*
X65862200Y-69386065D01*
X65849278Y-69410240D01*
X65812968Y-69529938D01*
X65800708Y-69654420D01*
X65608200Y-69654420D01*
X65608200Y-69178170D01*
X65449450Y-69019420D01*
X65336420Y-69016348D01*
X65211938Y-69028608D01*
X65092240Y-69064918D01*
X65069171Y-69077249D01*
X65081502Y-69054180D01*
X65117812Y-68934482D01*
X65130072Y-68810000D01*
X65127000Y-67595750D01*
X64968250Y-67437000D01*
X63119000Y-67437000D01*
X63119000Y-67457000D01*
X62865000Y-67457000D01*
X62865000Y-67437000D01*
X62845000Y-67437000D01*
X62845000Y-67183000D01*
X62865000Y-67183000D01*
X62865000Y-65333750D01*
X63119000Y-65333750D01*
X63119000Y-67183000D01*
X64968250Y-67183000D01*
X65127000Y-67024250D01*
X65130072Y-65810000D01*
X65117812Y-65685518D01*
X65081502Y-65565820D01*
X65022537Y-65455506D01*
X64943185Y-65358815D01*
X64846494Y-65279463D01*
X64736180Y-65220498D01*
X64616482Y-65184188D01*
X64492000Y-65171928D01*
X63277750Y-65175000D01*
X63119000Y-65333750D01*
X62865000Y-65333750D01*
X62706250Y-65175000D01*
X61492000Y-65171928D01*
X61367518Y-65184188D01*
X61247820Y-65220498D01*
X61214000Y-65238575D01*
X61180180Y-65220498D01*
X61060482Y-65184188D01*
X60936000Y-65171928D01*
X57936000Y-65171928D01*
X57811518Y-65184188D01*
X57691820Y-65220498D01*
X57581506Y-65279463D01*
X57484815Y-65358815D01*
X57405463Y-65455506D01*
X57346498Y-65565820D01*
X57310188Y-65685518D01*
X57297928Y-65810000D01*
X54660000Y-65810000D01*
X54660000Y-62915000D01*
X122505001Y-62915000D01*
X122505001Y-63466344D01*
X122505001Y-63466344D01*
G37*
X122505001Y-63466344D02*
X122505000Y-63466354D01*
X122505000Y-64898301D01*
X122402939Y-64878000D01*
X122199061Y-64878000D01*
X121999102Y-64917774D01*
X121810744Y-64995795D01*
X121641226Y-65109063D01*
X121597289Y-65153000D01*
X119122091Y-65153000D01*
X119122091Y-65101718D01*
X119082317Y-64901759D01*
X119004296Y-64713401D01*
X118891028Y-64543883D01*
X118746865Y-64399720D01*
X118577347Y-64286452D01*
X118388989Y-64208431D01*
X118189030Y-64168657D01*
X117985152Y-64168657D01*
X117785193Y-64208431D01*
X117596835Y-64286452D01*
X117427317Y-64399720D01*
X117383380Y-64443657D01*
X107807657Y-64443657D01*
X107770334Y-64439981D01*
X107733011Y-64443657D01*
X107733002Y-64443657D01*
X107621349Y-64454654D01*
X107478088Y-64498111D01*
X107346059Y-64568683D01*
X107304488Y-64602800D01*
X107229937Y-64491226D01*
X107085774Y-64347063D01*
X106916256Y-64233795D01*
X106727898Y-64155774D01*
X106527939Y-64116000D01*
X106457662Y-64116000D01*
X106449257Y-64073745D01*
X106367785Y-63877053D01*
X106249506Y-63700036D01*
X106098964Y-63549494D01*
X105921947Y-63431215D01*
X105725255Y-63349743D01*
X105516449Y-63308208D01*
X105303551Y-63308208D01*
X105094745Y-63349743D01*
X104898053Y-63431215D01*
X104790137Y-63503322D01*
X104683092Y-63458982D01*
X104483133Y-63419208D01*
X104405420Y-63419208D01*
X104273442Y-63348663D01*
X104130181Y-63305206D01*
X104018528Y-63294209D01*
X104018517Y-63294209D01*
X103981195Y-63290533D01*
X103943873Y-63294209D01*
X102665135Y-63294209D01*
X102583273Y-63227027D01*
X102451244Y-63156455D01*
X102307983Y-63112998D01*
X102196330Y-63102001D01*
X102196319Y-63102001D01*
X102158997Y-63098325D01*
X102121675Y-63102001D01*
X87940321Y-63102001D01*
X87902998Y-63098325D01*
X87865676Y-63102001D01*
X87865666Y-63102001D01*
X87754013Y-63112998D01*
X87610752Y-63156455D01*
X87478774Y-63227000D01*
X87401061Y-63227000D01*
X87201102Y-63266774D01*
X87012744Y-63344795D01*
X86843226Y-63458063D01*
X86795861Y-63505428D01*
X86719014Y-63512997D01*
X86575753Y-63556454D01*
X86443724Y-63627026D01*
X86327999Y-63721999D01*
X86304201Y-63750997D01*
X85431199Y-64624000D01*
X85369061Y-64624000D01*
X85169102Y-64663774D01*
X84980744Y-64741795D01*
X84811226Y-64855063D01*
X84704966Y-64961323D01*
X84690245Y-64953454D01*
X84546984Y-64909997D01*
X84435331Y-64899000D01*
X84435320Y-64899000D01*
X84397998Y-64895324D01*
X84360676Y-64899000D01*
X82618711Y-64899000D01*
X82574774Y-64855063D01*
X82405256Y-64741795D01*
X82216898Y-64663774D01*
X82016939Y-64624000D01*
X81813061Y-64624000D01*
X81613102Y-64663774D01*
X81537072Y-64695267D01*
X81537072Y-64262000D01*
X81524812Y-64137518D01*
X81488502Y-64017820D01*
X81429537Y-63907506D01*
X81350185Y-63810815D01*
X81253494Y-63731463D01*
X81143180Y-63672498D01*
X81023482Y-63636188D01*
X80899000Y-63623928D01*
X79756000Y-63623928D01*
X79631518Y-63636188D01*
X79511820Y-63672498D01*
X79401506Y-63731463D01*
X79304815Y-63810815D01*
X79248000Y-63880044D01*
X79191185Y-63810815D01*
X79094494Y-63731463D01*
X78984180Y-63672498D01*
X78864482Y-63636188D01*
X78740000Y-63623928D01*
X77597000Y-63623928D01*
X77472518Y-63636188D01*
X77352820Y-63672498D01*
X77242506Y-63731463D01*
X77145815Y-63810815D01*
X77066463Y-63907506D01*
X77007498Y-64017820D01*
X76971188Y-64137518D01*
X76958928Y-64262000D01*
X76958928Y-67036130D01*
X76933795Y-67073744D01*
X76855774Y-67262102D01*
X76816000Y-67462061D01*
X76816000Y-67665939D01*
X76847336Y-67823477D01*
X76837928Y-67919000D01*
X76837928Y-69119000D01*
X76850188Y-69243482D01*
X76886498Y-69363180D01*
X76943061Y-69469000D01*
X76886498Y-69574820D01*
X76850188Y-69694518D01*
X76837928Y-69819000D01*
X76841000Y-70133250D01*
X76999750Y-70292000D01*
X77724000Y-70292000D01*
X77724000Y-70272000D01*
X77978000Y-70272000D01*
X77978000Y-70292000D01*
X77998000Y-70292000D01*
X77998000Y-70546000D01*
X77978000Y-70546000D01*
X77978000Y-71495250D01*
X78136750Y-71654000D01*
X78226000Y-71657072D01*
X78350482Y-71644812D01*
X78470180Y-71608502D01*
X78580494Y-71549537D01*
X78677185Y-71470185D01*
X78756537Y-71373494D01*
X78815502Y-71263180D01*
X78851812Y-71143482D01*
X78863381Y-71026020D01*
X78882092Y-71026020D01*
X78872080Y-71127668D01*
X78872080Y-71772733D01*
X78883290Y-71886548D01*
X78927588Y-72032579D01*
X78999525Y-72167163D01*
X79072475Y-72256052D01*
X79060560Y-72315951D01*
X79060560Y-72519829D01*
X79072243Y-72578562D01*
X79009820Y-72597498D01*
X78899506Y-72656463D01*
X78802815Y-72735815D01*
X78723463Y-72832506D01*
X78664498Y-72942820D01*
X78628188Y-73062518D01*
X78626103Y-73083690D01*
X78591482Y-73073188D01*
X78467000Y-73060928D01*
X76967000Y-73060928D01*
X76842518Y-73073188D01*
X76722820Y-73109498D01*
X76612506Y-73168463D01*
X76515815Y-73247815D01*
X76436463Y-73344506D01*
X76387000Y-73437043D01*
X76337537Y-73344506D01*
X76258185Y-73247815D01*
X76161494Y-73168463D01*
X76051180Y-73109498D01*
X75931482Y-73073188D01*
X75807000Y-73060928D01*
X74307000Y-73060928D01*
X74182518Y-73073188D01*
X74062820Y-73109498D01*
X74004907Y-73140454D01*
X73908014Y-73149997D01*
X73764753Y-73193454D01*
X73632724Y-73264026D01*
X73516999Y-73358999D01*
X73422026Y-73474724D01*
X73351454Y-73606753D01*
X73316607Y-73721631D01*
X73292770Y-73766226D01*
X73276453Y-73796753D01*
X73232996Y-73940014D01*
X73221999Y-74051667D01*
X73221999Y-74051677D01*
X73218323Y-74088999D01*
X73221999Y-74126322D01*
X73222000Y-75621669D01*
X73218323Y-75659001D01*
X73222000Y-75696334D01*
X73232997Y-75807987D01*
X73239622Y-75829828D01*
X73276453Y-75951247D01*
X73347025Y-76083277D01*
X73411430Y-76161754D01*
X73441999Y-76199002D01*
X73470997Y-76222800D01*
X73483195Y-76234998D01*
X73506998Y-76264002D01*
X73535000Y-76286983D01*
X73535001Y-82920799D01*
X73371684Y-83084116D01*
X73370440Y-82835750D01*
X73211690Y-82677000D01*
X72463660Y-82677000D01*
X72463660Y-82697000D01*
X72273692Y-82697000D01*
X72273692Y-81650840D01*
X72261432Y-81526358D01*
X72225122Y-81406660D01*
X72209660Y-81377733D01*
X72209660Y-81174590D01*
X72463660Y-81174590D01*
X72463660Y-82423000D01*
X73211690Y-82423000D01*
X73370440Y-82264250D01*
X73373512Y-81650840D01*
X73361252Y-81526358D01*
X73324942Y-81406660D01*
X73265977Y-81296346D01*
X73186625Y-81199655D01*
X73089934Y-81120303D01*
X72979620Y-81061338D01*
X72859922Y-81025028D01*
X72735440Y-81012768D01*
X72622410Y-81015840D01*
X72463660Y-81174590D01*
X72209660Y-81174590D01*
X72050910Y-81015840D01*
X71937880Y-81012768D01*
X71813398Y-81025028D01*
X71786750Y-81033112D01*
X71760102Y-81025028D01*
X71635620Y-81012768D01*
X70838060Y-81012768D01*
X70713578Y-81025028D01*
X70686930Y-81033112D01*
X70660282Y-81025028D01*
X70535800Y-81012768D01*
X69738240Y-81012768D01*
X69613758Y-81025028D01*
X69587110Y-81033112D01*
X69560462Y-81025028D01*
X69435980Y-81012768D01*
X68638420Y-81012768D01*
X68513938Y-81025028D01*
X68487290Y-81033112D01*
X68460642Y-81025028D01*
X68336160Y-81012768D01*
X67538600Y-81012768D01*
X67414118Y-81025028D01*
X67387470Y-81033112D01*
X67360822Y-81025028D01*
X67236340Y-81012768D01*
X66438780Y-81012768D01*
X66314298Y-81025028D01*
X66286380Y-81033497D01*
X66258462Y-81025028D01*
X66133980Y-81012768D01*
X65336420Y-81012768D01*
X65211938Y-81025028D01*
X65092240Y-81061338D01*
X64981926Y-81120303D01*
X64885235Y-81199655D01*
X64805883Y-81296346D01*
X64746918Y-81406660D01*
X64710608Y-81526358D01*
X64698348Y-81650840D01*
X64698348Y-83449160D01*
X64710608Y-83573642D01*
X64746918Y-83693340D01*
X64805883Y-83803654D01*
X64885235Y-83900345D01*
X64981926Y-83979697D01*
X65092240Y-84038662D01*
X65211938Y-84074972D01*
X65336420Y-84087232D01*
X66133980Y-84087232D01*
X66258462Y-84074972D01*
X66286380Y-84066503D01*
X66314298Y-84074972D01*
X66438780Y-84087232D01*
X67177380Y-84087232D01*
X67177381Y-86315048D01*
X67173704Y-86352380D01*
X67177381Y-86389713D01*
X67188378Y-86501366D01*
X67198433Y-86534513D01*
X67231834Y-86644626D01*
X67302406Y-86776656D01*
X67366798Y-86855117D01*
X67397380Y-86892381D01*
X67426378Y-86916179D01*
X69995198Y-89485000D01*
X54660000Y-89485000D01*
X54660000Y-83449160D01*
X57301868Y-83449160D01*
X57314128Y-83573642D01*
X57350438Y-83693340D01*
X57409403Y-83803654D01*
X57488755Y-83900345D01*
X57585446Y-83979697D01*
X57695760Y-84038662D01*
X57815458Y-84074972D01*
X57939940Y-84087232D01*
X58052970Y-84084160D01*
X58211720Y-83925410D01*
X58211720Y-82677000D01*
X57463690Y-82677000D01*
X57304940Y-82835750D01*
X57301868Y-83449160D01*
X54660000Y-83449160D01*
X54660000Y-81650840D01*
X57301868Y-81650840D01*
X57304940Y-82264250D01*
X57463690Y-82423000D01*
X58211720Y-82423000D01*
X58211720Y-81650840D01*
X58401688Y-81650840D01*
X58401688Y-83449160D01*
X58413948Y-83573642D01*
X58450258Y-83693340D01*
X58465720Y-83722267D01*
X58465720Y-83925410D01*
X58624470Y-84084160D01*
X58737500Y-84087232D01*
X58861982Y-84074972D01*
X58888630Y-84066888D01*
X58915278Y-84074972D01*
X59039760Y-84087232D01*
X59837320Y-84087232D01*
X59961802Y-84074972D01*
X59988450Y-84066888D01*
X60015098Y-84074972D01*
X60139580Y-84087232D01*
X60937140Y-84087232D01*
X61061622Y-84074972D01*
X61088270Y-84066888D01*
X61114918Y-84074972D01*
X61239400Y-84087232D01*
X62036960Y-84087232D01*
X62161442Y-84074972D01*
X62188090Y-84066888D01*
X62214738Y-84074972D01*
X62339220Y-84087232D01*
X63136780Y-84087232D01*
X63261262Y-84074972D01*
X63380960Y-84038662D01*
X63491274Y-83979697D01*
X63587965Y-83900345D01*
X63667317Y-83803654D01*
X63726282Y-83693340D01*
X63762592Y-83573642D01*
X63774852Y-83449160D01*
X63774852Y-81650840D01*
X63762592Y-81526358D01*
X63726282Y-81406660D01*
X63667317Y-81296346D01*
X63587965Y-81199655D01*
X63491274Y-81120303D01*
X63380960Y-81061338D01*
X63261262Y-81025028D01*
X63136780Y-81012768D01*
X62339220Y-81012768D01*
X62214738Y-81025028D01*
X62188090Y-81033112D01*
X62161442Y-81025028D01*
X62036960Y-81012768D01*
X61239400Y-81012768D01*
X61114918Y-81025028D01*
X61088270Y-81033112D01*
X61061622Y-81025028D01*
X60937140Y-81012768D01*
X60139580Y-81012768D01*
X60015098Y-81025028D01*
X59988450Y-81033112D01*
X59961802Y-81025028D01*
X59837320Y-81012768D01*
X59039760Y-81012768D01*
X58915278Y-81025028D01*
X58888630Y-81033112D01*
X58861982Y-81025028D01*
X58737500Y-81012768D01*
X58624470Y-81015840D01*
X58465720Y-81174590D01*
X58465720Y-81377733D01*
X58450258Y-81406660D01*
X58413948Y-81526358D01*
X58401688Y-81650840D01*
X58211720Y-81650840D01*
X58211720Y-81174590D01*
X58052970Y-81015840D01*
X57939940Y-81012768D01*
X57815458Y-81025028D01*
X57695760Y-81061338D01*
X57585446Y-81120303D01*
X57488755Y-81199655D01*
X57409403Y-81296346D01*
X57350438Y-81406660D01*
X57314128Y-81526358D01*
X57301868Y-81650840D01*
X54660000Y-81650840D01*
X54660000Y-78186481D01*
X54901877Y-78312931D01*
X55200314Y-78400766D01*
X55510128Y-78428961D01*
X55819518Y-78396443D01*
X56116700Y-78304450D01*
X56390353Y-78156486D01*
X56630056Y-77958187D01*
X56826676Y-77717106D01*
X56972726Y-77442426D01*
X57062643Y-77144610D01*
X57093000Y-76835000D01*
X57092379Y-76790493D01*
X57053388Y-76481852D01*
X56955191Y-76186662D01*
X56801529Y-75916167D01*
X56598254Y-75680670D01*
X56353108Y-75489141D01*
X56075430Y-75348876D01*
X55775795Y-75265216D01*
X55465618Y-75241350D01*
X55156712Y-75278184D01*
X54860844Y-75374318D01*
X54660000Y-75486566D01*
X54660000Y-71452740D01*
X57301868Y-71452740D01*
X57314128Y-71577222D01*
X57350438Y-71696920D01*
X57409403Y-71807234D01*
X57488755Y-71903925D01*
X57585446Y-71983277D01*
X57695760Y-72042242D01*
X57815458Y-72078552D01*
X57939940Y-72090812D01*
X58052970Y-72087740D01*
X58211720Y-71928990D01*
X58211720Y-70680580D01*
X57463690Y-70680580D01*
X57304940Y-70839330D01*
X57301868Y-71452740D01*
X54660000Y-71452740D01*
X54660000Y-65810000D01*
X57297928Y-65810000D01*
X57297928Y-68810000D01*
X57310188Y-68934482D01*
X57346498Y-69054180D01*
X57405463Y-69164494D01*
X57463006Y-69234610D01*
X57409403Y-69299926D01*
X57350438Y-69410240D01*
X57314128Y-69529938D01*
X57301868Y-69654420D01*
X57304940Y-70267830D01*
X57463690Y-70426580D01*
X58211720Y-70426580D01*
X58211720Y-70406580D01*
X58401688Y-70406580D01*
X58401688Y-71452740D01*
X58413948Y-71577222D01*
X58450258Y-71696920D01*
X58465720Y-71725847D01*
X58465720Y-71928990D01*
X58624470Y-72087740D01*
X58737500Y-72090812D01*
X58861982Y-72078552D01*
X58888630Y-72070468D01*
X58915278Y-72078552D01*
X59039760Y-72090812D01*
X59837320Y-72090812D01*
X59961802Y-72078552D01*
X59988450Y-72070468D01*
X60015098Y-72078552D01*
X60139580Y-72090812D01*
X60252610Y-72087740D01*
X60411360Y-71928990D01*
X60411360Y-71725847D01*
X60426822Y-71696920D01*
X60463132Y-71577222D01*
X60475392Y-71452740D01*
X60475392Y-70406580D01*
X60601328Y-70406580D01*
X60601328Y-71452740D01*
X60613588Y-71577222D01*
X60649898Y-71696920D01*
X60665360Y-71725847D01*
X60665360Y-71928990D01*
X60824110Y-72087740D01*
X60937140Y-72090812D01*
X61061622Y-72078552D01*
X61088270Y-72070468D01*
X61114918Y-72078552D01*
X61239400Y-72090812D01*
X62036960Y-72090812D01*
X62161442Y-72078552D01*
X62188090Y-72070468D01*
X62214738Y-72078552D01*
X62339220Y-72090812D01*
X63136780Y-72090812D01*
X63261262Y-72078552D01*
X63380960Y-72042242D01*
X63491274Y-71983277D01*
X63587965Y-71903925D01*
X63667317Y-71807234D01*
X63726282Y-71696920D01*
X63762592Y-71577222D01*
X63774852Y-71452740D01*
X64698348Y-71452740D01*
X64710608Y-71577222D01*
X64746918Y-71696920D01*
X64805883Y-71807234D01*
X64885235Y-71903925D01*
X64981926Y-71983277D01*
X65092240Y-72042242D01*
X65211938Y-72078552D01*
X65336420Y-72090812D01*
X65449450Y-72087740D01*
X65608200Y-71928990D01*
X65608200Y-70680580D01*
X64860170Y-70680580D01*
X64701420Y-70839330D01*
X64698348Y-71452740D01*
X63774852Y-71452740D01*
X63774852Y-69654420D01*
X63762592Y-69529938D01*
X63737179Y-69446162D01*
X64492000Y-69448072D01*
X64616482Y-69435812D01*
X64736180Y-69399502D01*
X64759249Y-69387171D01*
X64746918Y-69410240D01*
X64710608Y-69529938D01*
X64698348Y-69654420D01*
X64701420Y-70267830D01*
X64860170Y-70426580D01*
X65608200Y-70426580D01*
X65608200Y-69654420D01*
X65800708Y-69654420D01*
X65800708Y-71452740D01*
X65812968Y-71577222D01*
X65849278Y-71696920D01*
X65862200Y-71721095D01*
X65862200Y-71928990D01*
X66020950Y-72087740D01*
X66133980Y-72090812D01*
X66258462Y-72078552D01*
X66286380Y-72070083D01*
X66314298Y-72078552D01*
X66438780Y-72090812D01*
X67236340Y-72090812D01*
X67360822Y-72078552D01*
X67387470Y-72070468D01*
X67414118Y-72078552D01*
X67538600Y-72090812D01*
X68336160Y-72090812D01*
X68460642Y-72078552D01*
X68487290Y-72070468D01*
X68513938Y-72078552D01*
X68638420Y-72090812D01*
X69435980Y-72090812D01*
X69560462Y-72078552D01*
X69587110Y-72070468D01*
X69613758Y-72078552D01*
X69738240Y-72090812D01*
X70535800Y-72090812D01*
X70660282Y-72078552D01*
X70686930Y-72070468D01*
X70713578Y-72078552D01*
X70838060Y-72090812D01*
X71635620Y-72090812D01*
X71760102Y-72078552D01*
X71786750Y-72070468D01*
X71813398Y-72078552D01*
X71937880Y-72090812D01*
X72735440Y-72090812D01*
X72859922Y-72078552D01*
X72979620Y-72042242D01*
X73089934Y-71983277D01*
X73186625Y-71903925D01*
X73265977Y-71807234D01*
X73324942Y-71696920D01*
X73361252Y-71577222D01*
X73373512Y-71452740D01*
X73373512Y-71019000D01*
X76837928Y-71019000D01*
X76850188Y-71143482D01*
X76886498Y-71263180D01*
X76945463Y-71373494D01*
X77024815Y-71470185D01*
X77121506Y-71549537D01*
X77231820Y-71608502D01*
X77351518Y-71644812D01*
X77476000Y-71657072D01*
X77565250Y-71654000D01*
X77724000Y-71495250D01*
X77724000Y-70546000D01*
X76999750Y-70546000D01*
X76841000Y-70704750D01*
X76837928Y-71019000D01*
X73373512Y-71019000D01*
X73373512Y-69654420D01*
X73361252Y-69529938D01*
X73324942Y-69410240D01*
X73265977Y-69299926D01*
X73186625Y-69203235D01*
X73089934Y-69123883D01*
X72979620Y-69064918D01*
X72859922Y-69028608D01*
X72735440Y-69016348D01*
X71937880Y-69016348D01*
X71813398Y-69028608D01*
X71786750Y-69036692D01*
X71760102Y-69028608D01*
X71635620Y-69016348D01*
X70838060Y-69016348D01*
X70713578Y-69028608D01*
X70686930Y-69036692D01*
X70660282Y-69028608D01*
X70535800Y-69016348D01*
X69738240Y-69016348D01*
X69613758Y-69028608D01*
X69587110Y-69036692D01*
X69560462Y-69028608D01*
X69435980Y-69016348D01*
X68638420Y-69016348D01*
X68513938Y-69028608D01*
X68487290Y-69036692D01*
X68460642Y-69028608D01*
X68336160Y-69016348D01*
X67538600Y-69016348D01*
X67414118Y-69028608D01*
X67387470Y-69036692D01*
X67360822Y-69028608D01*
X67236340Y-69016348D01*
X66438780Y-69016348D01*
X66314298Y-69028608D01*
X66286380Y-69037077D01*
X66258462Y-69028608D01*
X66133980Y-69016348D01*
X66020950Y-69019420D01*
X65862200Y-69178170D01*
X65862200Y-69386065D01*
X65849278Y-69410240D01*
X65812968Y-69529938D01*
X65800708Y-69654420D01*
X65608200Y-69654420D01*
X65608200Y-69178170D01*
X65449450Y-69019420D01*
X65336420Y-69016348D01*
X65211938Y-69028608D01*
X65092240Y-69064918D01*
X65069171Y-69077249D01*
X65081502Y-69054180D01*
X65117812Y-68934482D01*
X65130072Y-68810000D01*
X65127000Y-67595750D01*
X64968250Y-67437000D01*
X63119000Y-67437000D01*
X63119000Y-67457000D01*
X62865000Y-67457000D01*
X62865000Y-67437000D01*
X62845000Y-67437000D01*
X62845000Y-67183000D01*
X62865000Y-67183000D01*
X62865000Y-65333750D01*
X63119000Y-65333750D01*
X63119000Y-67183000D01*
X64968250Y-67183000D01*
X65127000Y-67024250D01*
X65130072Y-65810000D01*
X65117812Y-65685518D01*
X65081502Y-65565820D01*
X65022537Y-65455506D01*
X64943185Y-65358815D01*
X64846494Y-65279463D01*
X64736180Y-65220498D01*
X64616482Y-65184188D01*
X64492000Y-65171928D01*
X63277750Y-65175000D01*
X63119000Y-65333750D01*
X62865000Y-65333750D01*
X62706250Y-65175000D01*
X61492000Y-65171928D01*
X61367518Y-65184188D01*
X61247820Y-65220498D01*
X61214000Y-65238575D01*
X61180180Y-65220498D01*
X61060482Y-65184188D01*
X60936000Y-65171928D01*
X57936000Y-65171928D01*
X57811518Y-65184188D01*
X57691820Y-65220498D01*
X57581506Y-65279463D01*
X57484815Y-65358815D01*
X57405463Y-65455506D01*
X57346498Y-65565820D01*
X57310188Y-65685518D01*
X57297928Y-65810000D01*
X54660000Y-65810000D01*
X54660000Y-62915000D01*
X122505001Y-62915000D01*
X122505001Y-63466344D01*
G36*
X75946000Y-82672000D02*
G01*
X75966000Y-82672000D01*
X75966000Y-82926000D01*
X75946000Y-82926000D01*
X75946000Y-83875250D01*
X76104750Y-84034000D01*
X76194000Y-84037072D01*
X76318482Y-84024812D01*
X76438180Y-83988502D01*
X76471248Y-83970827D01*
X76471248Y-84143999D01*
X76312323Y-84143999D01*
X76275000Y-84140323D01*
X76237678Y-84143999D01*
X76237668Y-84143999D01*
X76126015Y-84154996D01*
X75982754Y-84198453D01*
X75850725Y-84269025D01*
X75735000Y-84363998D01*
X75711201Y-84392997D01*
X75688996Y-84415203D01*
X75660000Y-84438999D01*
X75636202Y-84467997D01*
X75636201Y-84467998D01*
X75565026Y-84554724D01*
X75545674Y-84590928D01*
X75450000Y-84590928D01*
X75325518Y-84603188D01*
X75205820Y-84639498D01*
X75095506Y-84698463D01*
X74998815Y-84777815D01*
X74919463Y-84874506D01*
X74860498Y-84984820D01*
X74824188Y-85104518D01*
X74811928Y-85229000D01*
X74811928Y-86729000D01*
X74824188Y-86853482D01*
X74860498Y-86973180D01*
X74919463Y-87083494D01*
X74998815Y-87180185D01*
X75095506Y-87259537D01*
X75205820Y-87318502D01*
X75325518Y-87354812D01*
X75450000Y-87367072D01*
X76950000Y-87367072D01*
X77074482Y-87354812D01*
X77194180Y-87318502D01*
X77279500Y-87272897D01*
X77364820Y-87318502D01*
X77484518Y-87354812D01*
X77609000Y-87367072D01*
X78073250Y-87364000D01*
X78232000Y-87205250D01*
X78232000Y-86106000D01*
X78212000Y-86106000D01*
X78212000Y-85852000D01*
X78232000Y-85852000D01*
X78232000Y-85832000D01*
X78486000Y-85832000D01*
X78486000Y-85852000D01*
X78506000Y-85852000D01*
X78506000Y-86106000D01*
X78486000Y-86106000D01*
X78486000Y-87205250D01*
X78644750Y-87364000D01*
X79109000Y-87367072D01*
X79233482Y-87354812D01*
X79353180Y-87318502D01*
X79463494Y-87259537D01*
X79560185Y-87180185D01*
X79639537Y-87083494D01*
X79698502Y-86973180D01*
X79712694Y-86926396D01*
X79794506Y-86993537D01*
X79904820Y-87052502D01*
X80024518Y-87088812D01*
X80149000Y-87101072D01*
X81649000Y-87101072D01*
X81661081Y-87099882D01*
X82219174Y-87657977D01*
X72761870Y-87657977D01*
X72768072Y-87595000D01*
X72765000Y-87280750D01*
X72606250Y-87122000D01*
X71882000Y-87122000D01*
X71882000Y-87142000D01*
X71628000Y-87142000D01*
X71628000Y-87122000D01*
X71608000Y-87122000D01*
X71608000Y-86868000D01*
X71628000Y-86868000D01*
X71628000Y-86848000D01*
X71882000Y-86848000D01*
X71882000Y-86868000D01*
X72606250Y-86868000D01*
X72765000Y-86709250D01*
X72768072Y-86395000D01*
X72755812Y-86270518D01*
X72719502Y-86150820D01*
X72662939Y-86045000D01*
X72719502Y-85939180D01*
X72755812Y-85819482D01*
X72759334Y-85783716D01*
X72859878Y-85729974D01*
X72975603Y-85635001D01*
X72999406Y-85605997D01*
X74806003Y-83799401D01*
X74835001Y-83775603D01*
X74889672Y-83708986D01*
X74913463Y-83753494D01*
X74992815Y-83850185D01*
X75089506Y-83929537D01*
X75199820Y-83988502D01*
X75319518Y-84024812D01*
X75444000Y-84037072D01*
X75533250Y-84034000D01*
X75692000Y-83875250D01*
X75692000Y-82926000D01*
X75672000Y-82926000D01*
X75672000Y-82672000D01*
X75692000Y-82672000D01*
X75692000Y-82652000D01*
X75946000Y-82652000D01*
X75946000Y-82672000D01*
X75946000Y-82672000D01*
G37*
X75946000Y-82672000D02*
X75966000Y-82672000D01*
X75966000Y-82926000D01*
X75946000Y-82926000D01*
X75946000Y-83875250D01*
X76104750Y-84034000D01*
X76194000Y-84037072D01*
X76318482Y-84024812D01*
X76438180Y-83988502D01*
X76471248Y-83970827D01*
X76471248Y-84143999D01*
X76312323Y-84143999D01*
X76275000Y-84140323D01*
X76237678Y-84143999D01*
X76237668Y-84143999D01*
X76126015Y-84154996D01*
X75982754Y-84198453D01*
X75850725Y-84269025D01*
X75735000Y-84363998D01*
X75711201Y-84392997D01*
X75688996Y-84415203D01*
X75660000Y-84438999D01*
X75636202Y-84467997D01*
X75636201Y-84467998D01*
X75565026Y-84554724D01*
X75545674Y-84590928D01*
X75450000Y-84590928D01*
X75325518Y-84603188D01*
X75205820Y-84639498D01*
X75095506Y-84698463D01*
X74998815Y-84777815D01*
X74919463Y-84874506D01*
X74860498Y-84984820D01*
X74824188Y-85104518D01*
X74811928Y-85229000D01*
X74811928Y-86729000D01*
X74824188Y-86853482D01*
X74860498Y-86973180D01*
X74919463Y-87083494D01*
X74998815Y-87180185D01*
X75095506Y-87259537D01*
X75205820Y-87318502D01*
X75325518Y-87354812D01*
X75450000Y-87367072D01*
X76950000Y-87367072D01*
X77074482Y-87354812D01*
X77194180Y-87318502D01*
X77279500Y-87272897D01*
X77364820Y-87318502D01*
X77484518Y-87354812D01*
X77609000Y-87367072D01*
X78073250Y-87364000D01*
X78232000Y-87205250D01*
X78232000Y-86106000D01*
X78212000Y-86106000D01*
X78212000Y-85852000D01*
X78232000Y-85852000D01*
X78232000Y-85832000D01*
X78486000Y-85832000D01*
X78486000Y-85852000D01*
X78506000Y-85852000D01*
X78506000Y-86106000D01*
X78486000Y-86106000D01*
X78486000Y-87205250D01*
X78644750Y-87364000D01*
X79109000Y-87367072D01*
X79233482Y-87354812D01*
X79353180Y-87318502D01*
X79463494Y-87259537D01*
X79560185Y-87180185D01*
X79639537Y-87083494D01*
X79698502Y-86973180D01*
X79712694Y-86926396D01*
X79794506Y-86993537D01*
X79904820Y-87052502D01*
X80024518Y-87088812D01*
X80149000Y-87101072D01*
X81649000Y-87101072D01*
X81661081Y-87099882D01*
X82219174Y-87657977D01*
X72761870Y-87657977D01*
X72768072Y-87595000D01*
X72765000Y-87280750D01*
X72606250Y-87122000D01*
X71882000Y-87122000D01*
X71882000Y-87142000D01*
X71628000Y-87142000D01*
X71628000Y-87122000D01*
X71608000Y-87122000D01*
X71608000Y-86868000D01*
X71628000Y-86868000D01*
X71628000Y-86848000D01*
X71882000Y-86848000D01*
X71882000Y-86868000D01*
X72606250Y-86868000D01*
X72765000Y-86709250D01*
X72768072Y-86395000D01*
X72755812Y-86270518D01*
X72719502Y-86150820D01*
X72662939Y-86045000D01*
X72719502Y-85939180D01*
X72755812Y-85819482D01*
X72759334Y-85783716D01*
X72859878Y-85729974D01*
X72975603Y-85635001D01*
X72999406Y-85605997D01*
X74806003Y-83799401D01*
X74835001Y-83775603D01*
X74889672Y-83708986D01*
X74913463Y-83753494D01*
X74992815Y-83850185D01*
X75089506Y-83929537D01*
X75199820Y-83988502D01*
X75319518Y-84024812D01*
X75444000Y-84037072D01*
X75533250Y-84034000D01*
X75692000Y-83875250D01*
X75692000Y-82926000D01*
X75672000Y-82926000D01*
X75672000Y-82672000D01*
X75692000Y-82672000D01*
X75692000Y-82652000D01*
X75946000Y-82652000D01*
X75946000Y-82672000D01*
G36*
X91026928Y-83828000D02*
G01*
X91039188Y-83952482D01*
X91075498Y-84072180D01*
X91134463Y-84182494D01*
X91213815Y-84279185D01*
X91310506Y-84358537D01*
X91420820Y-84417502D01*
X91540518Y-84453812D01*
X91665000Y-84466072D01*
X93001928Y-84466072D01*
X93001928Y-85606994D01*
X92946256Y-85569795D01*
X92757898Y-85491774D01*
X92557939Y-85452000D01*
X92354061Y-85452000D01*
X92154102Y-85491774D01*
X91965744Y-85569795D01*
X91796226Y-85683063D01*
X91652063Y-85827226D01*
X91538795Y-85996744D01*
X91460774Y-86185102D01*
X91421000Y-86385061D01*
X91421000Y-86420301D01*
X91023972Y-86420301D01*
X91023972Y-85458300D01*
X91011712Y-85333818D01*
X90975402Y-85214120D01*
X90916437Y-85103806D01*
X90873839Y-85051900D01*
X90916437Y-84999994D01*
X90975402Y-84889680D01*
X91011712Y-84769982D01*
X91023972Y-84645500D01*
X91020900Y-84232750D01*
X90862150Y-84074000D01*
X89916000Y-84074000D01*
X89916000Y-84094000D01*
X89662000Y-84094000D01*
X89662000Y-84074000D01*
X89642000Y-84074000D01*
X89642000Y-83820000D01*
X89662000Y-83820000D01*
X89662000Y-83800000D01*
X89916000Y-83800000D01*
X89916000Y-83820000D01*
X90862150Y-83820000D01*
X91020900Y-83661250D01*
X91022003Y-83513000D01*
X91026928Y-83513000D01*
X91026928Y-83828000D01*
X91026928Y-83828000D01*
G37*
X91026928Y-83828000D02*
X91039188Y-83952482D01*
X91075498Y-84072180D01*
X91134463Y-84182494D01*
X91213815Y-84279185D01*
X91310506Y-84358537D01*
X91420820Y-84417502D01*
X91540518Y-84453812D01*
X91665000Y-84466072D01*
X93001928Y-84466072D01*
X93001928Y-85606994D01*
X92946256Y-85569795D01*
X92757898Y-85491774D01*
X92557939Y-85452000D01*
X92354061Y-85452000D01*
X92154102Y-85491774D01*
X91965744Y-85569795D01*
X91796226Y-85683063D01*
X91652063Y-85827226D01*
X91538795Y-85996744D01*
X91460774Y-86185102D01*
X91421000Y-86385061D01*
X91421000Y-86420301D01*
X91023972Y-86420301D01*
X91023972Y-85458300D01*
X91011712Y-85333818D01*
X90975402Y-85214120D01*
X90916437Y-85103806D01*
X90873839Y-85051900D01*
X90916437Y-84999994D01*
X90975402Y-84889680D01*
X91011712Y-84769982D01*
X91023972Y-84645500D01*
X91020900Y-84232750D01*
X90862150Y-84074000D01*
X89916000Y-84074000D01*
X89916000Y-84094000D01*
X89662000Y-84094000D01*
X89662000Y-84074000D01*
X89642000Y-84074000D01*
X89642000Y-83820000D01*
X89662000Y-83820000D01*
X89662000Y-83800000D01*
X89916000Y-83800000D01*
X89916000Y-83820000D01*
X90862150Y-83820000D01*
X91020900Y-83661250D01*
X91022003Y-83513000D01*
X91026928Y-83513000D01*
X91026928Y-83828000D01*
G36*
X86458720Y-81298002D02*
G01*
X86578418Y-81334312D01*
X86702900Y-81346572D01*
X87758626Y-81346572D01*
X86654302Y-82450897D01*
X86625298Y-82474700D01*
X86573335Y-82538018D01*
X86530325Y-82590425D01*
X86468413Y-82706253D01*
X86459753Y-82722455D01*
X86416296Y-82865716D01*
X86405299Y-82977369D01*
X86405299Y-82977379D01*
X86401623Y-83014701D01*
X86405299Y-83052024D01*
X86405299Y-83261316D01*
X86327494Y-83197463D01*
X86217180Y-83138498D01*
X86097482Y-83102188D01*
X85973000Y-83089928D01*
X85883750Y-83093000D01*
X85725000Y-83251750D01*
X85725000Y-84201000D01*
X85745000Y-84201000D01*
X85745000Y-84455000D01*
X85725000Y-84455000D01*
X85725000Y-84475000D01*
X85471000Y-84475000D01*
X85471000Y-84455000D01*
X85451000Y-84455000D01*
X85451000Y-84201000D01*
X85471000Y-84201000D01*
X85471000Y-83251750D01*
X85312250Y-83093000D01*
X85273149Y-83091654D01*
X86109004Y-82255800D01*
X86138001Y-82232003D01*
X86232974Y-82116278D01*
X86303546Y-81984249D01*
X86347003Y-81840988D01*
X86358000Y-81729335D01*
X86358000Y-81729326D01*
X86361676Y-81692003D01*
X86358000Y-81654680D01*
X86358000Y-81322597D01*
X86439080Y-81298002D01*
X86448900Y-81292753D01*
X86458720Y-81298002D01*
X86458720Y-81298002D01*
G37*
X86458720Y-81298002D02*
X86578418Y-81334312D01*
X86702900Y-81346572D01*
X87758626Y-81346572D01*
X86654302Y-82450897D01*
X86625298Y-82474700D01*
X86573335Y-82538018D01*
X86530325Y-82590425D01*
X86468413Y-82706253D01*
X86459753Y-82722455D01*
X86416296Y-82865716D01*
X86405299Y-82977369D01*
X86405299Y-82977379D01*
X86401623Y-83014701D01*
X86405299Y-83052024D01*
X86405299Y-83261316D01*
X86327494Y-83197463D01*
X86217180Y-83138498D01*
X86097482Y-83102188D01*
X85973000Y-83089928D01*
X85883750Y-83093000D01*
X85725000Y-83251750D01*
X85725000Y-84201000D01*
X85745000Y-84201000D01*
X85745000Y-84455000D01*
X85725000Y-84455000D01*
X85725000Y-84475000D01*
X85471000Y-84475000D01*
X85471000Y-84455000D01*
X85451000Y-84455000D01*
X85451000Y-84201000D01*
X85471000Y-84201000D01*
X85471000Y-83251750D01*
X85312250Y-83093000D01*
X85273149Y-83091654D01*
X86109004Y-82255800D01*
X86138001Y-82232003D01*
X86232974Y-82116278D01*
X86303546Y-81984249D01*
X86347003Y-81840988D01*
X86358000Y-81729335D01*
X86358000Y-81729326D01*
X86361676Y-81692003D01*
X86358000Y-81654680D01*
X86358000Y-81322597D01*
X86439080Y-81298002D01*
X86448900Y-81292753D01*
X86458720Y-81298002D01*
G36*
X84588000Y-84042250D02*
G01*
X84746748Y-84200998D01*
X84604628Y-84200998D01*
X84553180Y-84173498D01*
X84433482Y-84137188D01*
X84309000Y-84124928D01*
X83361875Y-84124928D01*
X83476802Y-84010001D01*
X84002679Y-84010001D01*
X84040001Y-84013677D01*
X84077323Y-84010001D01*
X84077334Y-84010001D01*
X84188987Y-83999004D01*
X84332248Y-83955547D01*
X84464277Y-83884975D01*
X84580002Y-83790002D01*
X84585469Y-83783340D01*
X84588000Y-84042250D01*
X84588000Y-84042250D01*
G37*
X84588000Y-84042250D02*
X84746748Y-84200998D01*
X84604628Y-84200998D01*
X84553180Y-84173498D01*
X84433482Y-84137188D01*
X84309000Y-84124928D01*
X83361875Y-84124928D01*
X83476802Y-84010001D01*
X84002679Y-84010001D01*
X84040001Y-84013677D01*
X84077323Y-84010001D01*
X84077334Y-84010001D01*
X84188987Y-83999004D01*
X84332248Y-83955547D01*
X84464277Y-83884975D01*
X84580002Y-83790002D01*
X84585469Y-83783340D01*
X84588000Y-84042250D01*
G36*
X83307000Y-82423000D02*
G01*
X83327000Y-82423000D01*
X83327000Y-82490001D01*
X83199321Y-82490001D01*
X83161998Y-82486325D01*
X83124675Y-82490001D01*
X83124666Y-82490001D01*
X83033000Y-82499029D01*
X83033000Y-82423000D01*
X83053000Y-82423000D01*
X83053000Y-82403000D01*
X83307000Y-82403000D01*
X83307000Y-82423000D01*
X83307000Y-82423000D01*
G37*
X83307000Y-82423000D02*
X83327000Y-82423000D01*
X83327000Y-82490001D01*
X83199321Y-82490001D01*
X83161998Y-82486325D01*
X83124675Y-82490001D01*
X83124666Y-82490001D01*
X83033000Y-82499029D01*
X83033000Y-82423000D01*
X83053000Y-82423000D01*
X83053000Y-82403000D01*
X83307000Y-82403000D01*
X83307000Y-82423000D01*
G36*
X80041928Y-79361729D02*
G01*
X80041928Y-79825000D01*
X80054188Y-79949482D01*
X80090498Y-80069180D01*
X80149463Y-80179494D01*
X80166702Y-80200500D01*
X80149463Y-80221506D01*
X80090498Y-80331820D01*
X80054188Y-80451518D01*
X80041928Y-80576000D01*
X80045000Y-80740250D01*
X80203750Y-80899000D01*
X81153000Y-80899000D01*
X81153000Y-80879000D01*
X81407000Y-80879000D01*
X81407000Y-80899000D01*
X81427000Y-80899000D01*
X81427000Y-81153000D01*
X81407000Y-81153000D01*
X81407000Y-81173000D01*
X81153000Y-81173000D01*
X81153000Y-81153000D01*
X80203750Y-81153000D01*
X80045000Y-81311750D01*
X80041928Y-81476000D01*
X80054188Y-81600482D01*
X80090498Y-81720180D01*
X80127818Y-81790000D01*
X80070802Y-81790000D01*
X79790998Y-81510197D01*
X79790998Y-81481331D01*
X79794675Y-81443998D01*
X79780001Y-81295012D01*
X79736544Y-81151751D01*
X79665972Y-81019722D01*
X79654126Y-81005287D01*
X79577321Y-80911701D01*
X79741224Y-80747798D01*
X79770221Y-80724001D01*
X79865194Y-80608276D01*
X79935766Y-80476247D01*
X79979223Y-80332986D01*
X79990220Y-80221333D01*
X79990220Y-80221325D01*
X79993896Y-80184000D01*
X79990220Y-80146675D01*
X79990220Y-79959709D01*
X79992752Y-79934000D01*
X79992752Y-79312553D01*
X80041928Y-79361729D01*
X80041928Y-79361729D01*
G37*
X80041928Y-79361729D02*
X80041928Y-79825000D01*
X80054188Y-79949482D01*
X80090498Y-80069180D01*
X80149463Y-80179494D01*
X80166702Y-80200500D01*
X80149463Y-80221506D01*
X80090498Y-80331820D01*
X80054188Y-80451518D01*
X80041928Y-80576000D01*
X80045000Y-80740250D01*
X80203750Y-80899000D01*
X81153000Y-80899000D01*
X81153000Y-80879000D01*
X81407000Y-80879000D01*
X81407000Y-80899000D01*
X81427000Y-80899000D01*
X81427000Y-81153000D01*
X81407000Y-81153000D01*
X81407000Y-81173000D01*
X81153000Y-81173000D01*
X81153000Y-81153000D01*
X80203750Y-81153000D01*
X80045000Y-81311750D01*
X80041928Y-81476000D01*
X80054188Y-81600482D01*
X80090498Y-81720180D01*
X80127818Y-81790000D01*
X80070802Y-81790000D01*
X79790998Y-81510197D01*
X79790998Y-81481331D01*
X79794675Y-81443998D01*
X79780001Y-81295012D01*
X79736544Y-81151751D01*
X79665972Y-81019722D01*
X79654126Y-81005287D01*
X79577321Y-80911701D01*
X79741224Y-80747798D01*
X79770221Y-80724001D01*
X79865194Y-80608276D01*
X79935766Y-80476247D01*
X79979223Y-80332986D01*
X79990220Y-80221333D01*
X79990220Y-80221325D01*
X79993896Y-80184000D01*
X79990220Y-80146675D01*
X79990220Y-79959709D01*
X79992752Y-79934000D01*
X79992752Y-79312553D01*
X80041928Y-79361729D01*
G36*
X99539533Y-80752380D02*
G01*
X99539188Y-80753518D01*
X99526928Y-80878000D01*
X99526928Y-81290127D01*
X99453383Y-81216581D01*
X99429580Y-81187578D01*
X99313855Y-81092605D01*
X99181826Y-81022033D01*
X99038565Y-80978576D01*
X98926912Y-80967579D01*
X98926901Y-80967579D01*
X98889579Y-80963903D01*
X98852257Y-80967579D01*
X97563747Y-80967579D01*
X97526424Y-80963903D01*
X97489102Y-80967579D01*
X97489092Y-80967579D01*
X97377439Y-80978576D01*
X97234178Y-81022033D01*
X97217261Y-81031076D01*
X97189998Y-81003813D01*
X97189998Y-80992799D01*
X97519809Y-80662989D01*
X99532034Y-80662989D01*
X99539533Y-80752380D01*
X99539533Y-80752380D01*
G37*
X99539533Y-80752380D02*
X99539188Y-80753518D01*
X99526928Y-80878000D01*
X99526928Y-81290127D01*
X99453383Y-81216581D01*
X99429580Y-81187578D01*
X99313855Y-81092605D01*
X99181826Y-81022033D01*
X99038565Y-80978576D01*
X98926912Y-80967579D01*
X98926901Y-80967579D01*
X98889579Y-80963903D01*
X98852257Y-80967579D01*
X97563747Y-80967579D01*
X97526424Y-80963903D01*
X97489102Y-80967579D01*
X97489092Y-80967579D01*
X97377439Y-80978576D01*
X97234178Y-81022033D01*
X97217261Y-81031076D01*
X97189998Y-81003813D01*
X97189998Y-80992799D01*
X97519809Y-80662989D01*
X99532034Y-80662989D01*
X99539533Y-80752380D01*
G36*
X90776200Y-80603935D02*
G01*
X90799999Y-80632934D01*
X90828997Y-80656732D01*
X91030736Y-80858471D01*
X91030000Y-80867250D01*
X91122083Y-80959333D01*
X91134463Y-80982494D01*
X91170166Y-81025998D01*
X91107799Y-81025998D01*
X90977803Y-80896002D01*
X90954001Y-80866999D01*
X90838276Y-80772026D01*
X90796424Y-80749655D01*
X90789812Y-80682518D01*
X90759978Y-80584169D01*
X90776200Y-80603935D01*
X90776200Y-80603935D01*
G37*
X90776200Y-80603935D02*
X90799999Y-80632934D01*
X90828997Y-80656732D01*
X91030736Y-80858471D01*
X91030000Y-80867250D01*
X91122083Y-80959333D01*
X91134463Y-80982494D01*
X91170166Y-81025998D01*
X91107799Y-81025998D01*
X90977803Y-80896002D01*
X90954001Y-80866999D01*
X90838276Y-80772026D01*
X90796424Y-80749655D01*
X90789812Y-80682518D01*
X90759978Y-80584169D01*
X90776200Y-80603935D01*
G36*
X93945002Y-79468800D02*
G01*
X93945003Y-79898200D01*
X93898882Y-79852079D01*
X93900000Y-79838750D01*
X93807917Y-79746667D01*
X93795537Y-79723506D01*
X93716185Y-79626815D01*
X93626241Y-79553000D01*
X93716185Y-79479185D01*
X93795537Y-79382494D01*
X93807917Y-79359333D01*
X93821726Y-79345524D01*
X93945002Y-79468800D01*
X93945002Y-79468800D01*
G37*
X93945002Y-79468800D02*
X93945003Y-79898200D01*
X93898882Y-79852079D01*
X93900000Y-79838750D01*
X93807917Y-79746667D01*
X93795537Y-79723506D01*
X93716185Y-79626815D01*
X93626241Y-79553000D01*
X93716185Y-79479185D01*
X93795537Y-79382494D01*
X93807917Y-79359333D01*
X93821726Y-79345524D01*
X93945002Y-79468800D01*
G36*
X76376508Y-76593309D02*
G01*
X76301158Y-76668659D01*
X76187890Y-76838177D01*
X76109869Y-77026535D01*
X76070095Y-77226494D01*
X76070095Y-77430372D01*
X76109869Y-77630331D01*
X76187890Y-77818689D01*
X76301158Y-77988207D01*
X76445321Y-78132370D01*
X76473781Y-78151386D01*
X76473780Y-78608288D01*
X76471248Y-78634000D01*
X76471248Y-79727173D01*
X76438180Y-79709498D01*
X76318482Y-79673188D01*
X76194000Y-79660928D01*
X75444000Y-79660928D01*
X75319518Y-79673188D01*
X75199820Y-79709498D01*
X75089506Y-79768463D01*
X75055000Y-79796781D01*
X75055000Y-76037072D01*
X75807000Y-76037072D01*
X75819081Y-76035882D01*
X76376508Y-76593309D01*
X76376508Y-76593309D01*
G37*
X76376508Y-76593309D02*
X76301158Y-76668659D01*
X76187890Y-76838177D01*
X76109869Y-77026535D01*
X76070095Y-77226494D01*
X76070095Y-77430372D01*
X76109869Y-77630331D01*
X76187890Y-77818689D01*
X76301158Y-77988207D01*
X76445321Y-78132370D01*
X76473781Y-78151386D01*
X76473780Y-78608288D01*
X76471248Y-78634000D01*
X76471248Y-79727173D01*
X76438180Y-79709498D01*
X76318482Y-79673188D01*
X76194000Y-79660928D01*
X75444000Y-79660928D01*
X75319518Y-79673188D01*
X75199820Y-79709498D01*
X75089506Y-79768463D01*
X75055000Y-79796781D01*
X75055000Y-76037072D01*
X75807000Y-76037072D01*
X75819081Y-76035882D01*
X76376508Y-76593309D01*
G36*
X89916000Y-79380000D02*
G01*
X89936000Y-79380000D01*
X89936000Y-79634000D01*
X89916000Y-79634000D01*
X89916000Y-79654000D01*
X89848999Y-79654000D01*
X89848999Y-79360000D01*
X89916000Y-79360000D01*
X89916000Y-79380000D01*
X89916000Y-79380000D01*
G37*
X89916000Y-79380000D02*
X89936000Y-79380000D01*
X89936000Y-79634000D01*
X89916000Y-79634000D01*
X89916000Y-79654000D01*
X89848999Y-79654000D01*
X89848999Y-79360000D01*
X89916000Y-79360000D01*
X89916000Y-79380000D01*
G36*
X104181047Y-77307845D02*
G01*
X104332287Y-77337928D01*
X104370743Y-77531255D01*
X104452215Y-77727947D01*
X104570494Y-77904964D01*
X104643530Y-77978000D01*
X104570494Y-78051036D01*
X104539793Y-78096984D01*
X104495789Y-78088231D01*
X104291911Y-78088231D01*
X104132649Y-78119910D01*
X104137072Y-78075000D01*
X104134000Y-77760750D01*
X103975250Y-77602000D01*
X103251000Y-77602000D01*
X103251000Y-77622000D01*
X102997000Y-77622000D01*
X102997000Y-77602000D01*
X102977000Y-77602000D01*
X102977000Y-77348000D01*
X102997000Y-77348000D01*
X102997000Y-77328000D01*
X103251000Y-77328000D01*
X103251000Y-77348000D01*
X103975250Y-77348000D01*
X104063921Y-77259329D01*
X104181047Y-77307845D01*
X104181047Y-77307845D01*
G37*
X104181047Y-77307845D02*
X104332287Y-77337928D01*
X104370743Y-77531255D01*
X104452215Y-77727947D01*
X104570494Y-77904964D01*
X104643530Y-77978000D01*
X104570494Y-78051036D01*
X104539793Y-78096984D01*
X104495789Y-78088231D01*
X104291911Y-78088231D01*
X104132649Y-78119910D01*
X104137072Y-78075000D01*
X104134000Y-77760750D01*
X103975250Y-77602000D01*
X103251000Y-77602000D01*
X103251000Y-77622000D01*
X102997000Y-77622000D01*
X102997000Y-77602000D01*
X102977000Y-77602000D01*
X102977000Y-77348000D01*
X102997000Y-77348000D01*
X102997000Y-77328000D01*
X103251000Y-77328000D01*
X103251000Y-77348000D01*
X103975250Y-77348000D01*
X104063921Y-77259329D01*
X104181047Y-77307845D01*
G36*
X87426800Y-77673200D02*
G01*
X87446800Y-77673200D01*
X87446800Y-77927200D01*
X87426800Y-77927200D01*
X87426800Y-77947200D01*
X87172800Y-77947200D01*
X87172800Y-77927200D01*
X87152800Y-77927200D01*
X87152800Y-77673200D01*
X87172800Y-77673200D01*
X87172800Y-77653200D01*
X87426800Y-77653200D01*
X87426800Y-77673200D01*
X87426800Y-77673200D01*
G37*
X87426800Y-77673200D02*
X87446800Y-77673200D01*
X87446800Y-77927200D01*
X87426800Y-77927200D01*
X87426800Y-77947200D01*
X87172800Y-77947200D01*
X87172800Y-77927200D01*
X87152800Y-77927200D01*
X87152800Y-77673200D01*
X87172800Y-77673200D01*
X87172800Y-77653200D01*
X87426800Y-77653200D01*
X87426800Y-77673200D01*
G36*
X83566000Y-77597000D02*
G01*
X83586000Y-77597000D01*
X83586000Y-77851000D01*
X83566000Y-77851000D01*
X83566000Y-77871000D01*
X83312000Y-77871000D01*
X83312000Y-77851000D01*
X83292000Y-77851000D01*
X83292000Y-77597000D01*
X83312000Y-77597000D01*
X83312000Y-77577000D01*
X83566000Y-77577000D01*
X83566000Y-77597000D01*
X83566000Y-77597000D01*
G37*
X83566000Y-77597000D02*
X83586000Y-77597000D01*
X83586000Y-77851000D01*
X83566000Y-77851000D01*
X83566000Y-77871000D01*
X83312000Y-77871000D01*
X83312000Y-77851000D01*
X83292000Y-77851000D01*
X83292000Y-77597000D01*
X83312000Y-77597000D01*
X83312000Y-77577000D01*
X83566000Y-77577000D01*
X83566000Y-77597000D01*
G36*
X87248594Y-74417011D02*
G01*
X87364319Y-74511984D01*
X87496348Y-74582556D01*
X87639609Y-74626013D01*
X87751262Y-74637010D01*
X87751272Y-74637010D01*
X87788594Y-74640686D01*
X87825917Y-74637010D01*
X89643000Y-74637010D01*
X89643000Y-74777939D01*
X89645933Y-74792683D01*
X89503250Y-74650000D01*
X89414000Y-74646928D01*
X89289518Y-74659188D01*
X89169820Y-74695498D01*
X89059506Y-74754463D01*
X88962815Y-74833815D01*
X88883463Y-74930506D01*
X88824498Y-75040820D01*
X88788188Y-75160518D01*
X88775928Y-75285000D01*
X88779000Y-75599250D01*
X88937750Y-75758000D01*
X89662000Y-75758000D01*
X89662000Y-75738000D01*
X89916000Y-75738000D01*
X89916000Y-75758000D01*
X90640250Y-75758000D01*
X90687250Y-75711000D01*
X90779939Y-75711000D01*
X90979898Y-75671226D01*
X91168256Y-75593205D01*
X91337774Y-75479937D01*
X91381711Y-75436000D01*
X93062696Y-75436000D01*
X93050498Y-75458820D01*
X93014188Y-75578518D01*
X93001928Y-75703000D01*
X93001928Y-77039928D01*
X91665000Y-77039928D01*
X91591844Y-77047133D01*
X91591774Y-77047063D01*
X91422256Y-76933795D01*
X91233898Y-76855774D01*
X91033939Y-76816000D01*
X90830061Y-76816000D01*
X90700553Y-76841761D01*
X90696939Y-76835000D01*
X90753502Y-76729180D01*
X90789812Y-76609482D01*
X90802072Y-76485000D01*
X90799000Y-76170750D01*
X90640250Y-76012000D01*
X89916000Y-76012000D01*
X89916000Y-76032000D01*
X89662000Y-76032000D01*
X89662000Y-76012000D01*
X88937750Y-76012000D01*
X88779000Y-76170750D01*
X88777505Y-76323703D01*
X87501577Y-75047775D01*
X87477774Y-75018772D01*
X87362049Y-74923799D01*
X87230020Y-74853227D01*
X87086759Y-74809770D01*
X86975106Y-74798773D01*
X86975095Y-74798773D01*
X86937773Y-74795097D01*
X86900451Y-74798773D01*
X86296515Y-74798773D01*
X86252578Y-74754836D01*
X86083060Y-74641568D01*
X85894702Y-74563547D01*
X85694743Y-74523773D01*
X85490865Y-74523773D01*
X85290906Y-74563547D01*
X85102548Y-74641568D01*
X84933030Y-74754836D01*
X84788867Y-74898999D01*
X84770157Y-74927000D01*
X82772742Y-74927000D01*
X82829713Y-74880245D01*
X82853515Y-74851242D01*
X83287835Y-74416923D01*
X87248522Y-74416923D01*
X87248594Y-74417011D01*
X87248594Y-74417011D01*
G37*
X87248594Y-74417011D02*
X87364319Y-74511984D01*
X87496348Y-74582556D01*
X87639609Y-74626013D01*
X87751262Y-74637010D01*
X87751272Y-74637010D01*
X87788594Y-74640686D01*
X87825917Y-74637010D01*
X89643000Y-74637010D01*
X89643000Y-74777939D01*
X89645933Y-74792683D01*
X89503250Y-74650000D01*
X89414000Y-74646928D01*
X89289518Y-74659188D01*
X89169820Y-74695498D01*
X89059506Y-74754463D01*
X88962815Y-74833815D01*
X88883463Y-74930506D01*
X88824498Y-75040820D01*
X88788188Y-75160518D01*
X88775928Y-75285000D01*
X88779000Y-75599250D01*
X88937750Y-75758000D01*
X89662000Y-75758000D01*
X89662000Y-75738000D01*
X89916000Y-75738000D01*
X89916000Y-75758000D01*
X90640250Y-75758000D01*
X90687250Y-75711000D01*
X90779939Y-75711000D01*
X90979898Y-75671226D01*
X91168256Y-75593205D01*
X91337774Y-75479937D01*
X91381711Y-75436000D01*
X93062696Y-75436000D01*
X93050498Y-75458820D01*
X93014188Y-75578518D01*
X93001928Y-75703000D01*
X93001928Y-77039928D01*
X91665000Y-77039928D01*
X91591844Y-77047133D01*
X91591774Y-77047063D01*
X91422256Y-76933795D01*
X91233898Y-76855774D01*
X91033939Y-76816000D01*
X90830061Y-76816000D01*
X90700553Y-76841761D01*
X90696939Y-76835000D01*
X90753502Y-76729180D01*
X90789812Y-76609482D01*
X90802072Y-76485000D01*
X90799000Y-76170750D01*
X90640250Y-76012000D01*
X89916000Y-76012000D01*
X89916000Y-76032000D01*
X89662000Y-76032000D01*
X89662000Y-76012000D01*
X88937750Y-76012000D01*
X88779000Y-76170750D01*
X88777505Y-76323703D01*
X87501577Y-75047775D01*
X87477774Y-75018772D01*
X87362049Y-74923799D01*
X87230020Y-74853227D01*
X87086759Y-74809770D01*
X86975106Y-74798773D01*
X86975095Y-74798773D01*
X86937773Y-74795097D01*
X86900451Y-74798773D01*
X86296515Y-74798773D01*
X86252578Y-74754836D01*
X86083060Y-74641568D01*
X85894702Y-74563547D01*
X85694743Y-74523773D01*
X85490865Y-74523773D01*
X85290906Y-74563547D01*
X85102548Y-74641568D01*
X84933030Y-74754836D01*
X84788867Y-74898999D01*
X84770157Y-74927000D01*
X82772742Y-74927000D01*
X82829713Y-74880245D01*
X82853515Y-74851242D01*
X83287835Y-74416923D01*
X87248522Y-74416923D01*
X87248594Y-74417011D01*
G36*
X115351928Y-68160000D02*
G01*
X115364188Y-68284482D01*
X115400498Y-68404180D01*
X115459463Y-68514494D01*
X115513222Y-68580000D01*
X115459463Y-68645506D01*
X115400498Y-68755820D01*
X115364188Y-68875518D01*
X115351928Y-69000000D01*
X115351928Y-70700000D01*
X115364188Y-70824482D01*
X115400498Y-70944180D01*
X115407753Y-70957753D01*
X115394180Y-70950498D01*
X115274482Y-70914188D01*
X115150000Y-70901928D01*
X114585750Y-70905000D01*
X114427000Y-71063750D01*
X114427000Y-72263000D01*
X114447000Y-72263000D01*
X114447000Y-72517000D01*
X114427000Y-72517000D01*
X114427000Y-74803000D01*
X114447000Y-74803000D01*
X114447000Y-75057000D01*
X114427000Y-75057000D01*
X114427000Y-76256250D01*
X114585750Y-76415000D01*
X115150000Y-76418072D01*
X115274482Y-76405812D01*
X115394180Y-76369502D01*
X115504494Y-76310537D01*
X115570000Y-76256778D01*
X115635506Y-76310537D01*
X115745820Y-76369502D01*
X115865518Y-76405812D01*
X115990000Y-76418072D01*
X116059000Y-76418072D01*
X116059000Y-76552275D01*
X115871898Y-76474774D01*
X115671939Y-76435000D01*
X115468061Y-76435000D01*
X115268102Y-76474774D01*
X115079744Y-76552795D01*
X114910226Y-76666063D01*
X114866289Y-76710000D01*
X109704882Y-76710000D01*
X108235924Y-75241043D01*
X108235924Y-75178905D01*
X108196150Y-74978946D01*
X108118129Y-74790588D01*
X108004861Y-74621070D01*
X107860698Y-74476907D01*
X107691180Y-74363639D01*
X107502822Y-74285618D01*
X107377990Y-74260788D01*
X107345821Y-74183126D01*
X107334378Y-74166000D01*
X108262289Y-74166000D01*
X108306226Y-74209937D01*
X108475744Y-74323205D01*
X108664102Y-74401226D01*
X108864061Y-74441000D01*
X109064275Y-74441000D01*
X108986774Y-74628102D01*
X108947000Y-74828061D01*
X108947000Y-75031939D01*
X108986774Y-75231898D01*
X109064795Y-75420256D01*
X109178063Y-75589774D01*
X109322226Y-75733937D01*
X109491744Y-75847205D01*
X109680102Y-75925226D01*
X109880061Y-75965000D01*
X110083939Y-75965000D01*
X110283898Y-75925226D01*
X110289746Y-75922804D01*
X110320498Y-76024180D01*
X110379463Y-76134494D01*
X110458815Y-76231185D01*
X110555506Y-76310537D01*
X110665820Y-76369502D01*
X110785518Y-76405812D01*
X110910000Y-76418072D01*
X112610000Y-76418072D01*
X112734482Y-76405812D01*
X112854180Y-76369502D01*
X112964494Y-76310537D01*
X113030000Y-76256778D01*
X113095506Y-76310537D01*
X113205820Y-76369502D01*
X113325518Y-76405812D01*
X113450000Y-76418072D01*
X114014250Y-76415000D01*
X114173000Y-76256250D01*
X114173000Y-75057000D01*
X114153000Y-75057000D01*
X114153000Y-74803000D01*
X114173000Y-74803000D01*
X114173000Y-72517000D01*
X114153000Y-72517000D01*
X114153000Y-72263000D01*
X114173000Y-72263000D01*
X114173000Y-71063750D01*
X114014250Y-70905000D01*
X113450000Y-70901928D01*
X113325518Y-70914188D01*
X113205820Y-70950498D01*
X113192247Y-70957753D01*
X113199502Y-70944180D01*
X113235812Y-70824482D01*
X113248072Y-70700000D01*
X113248072Y-69000000D01*
X113244034Y-68959000D01*
X113246572Y-68959000D01*
X113283894Y-68962676D01*
X113321216Y-68959000D01*
X113321227Y-68959000D01*
X113432880Y-68948003D01*
X113576141Y-68904546D01*
X113708170Y-68833974D01*
X113823895Y-68739001D01*
X113847698Y-68709997D01*
X115351928Y-67205768D01*
X115351928Y-68160000D01*
X115351928Y-68160000D01*
G37*
X115351928Y-68160000D02*
X115364188Y-68284482D01*
X115400498Y-68404180D01*
X115459463Y-68514494D01*
X115513222Y-68580000D01*
X115459463Y-68645506D01*
X115400498Y-68755820D01*
X115364188Y-68875518D01*
X115351928Y-69000000D01*
X115351928Y-70700000D01*
X115364188Y-70824482D01*
X115400498Y-70944180D01*
X115407753Y-70957753D01*
X115394180Y-70950498D01*
X115274482Y-70914188D01*
X115150000Y-70901928D01*
X114585750Y-70905000D01*
X114427000Y-71063750D01*
X114427000Y-72263000D01*
X114447000Y-72263000D01*
X114447000Y-72517000D01*
X114427000Y-72517000D01*
X114427000Y-74803000D01*
X114447000Y-74803000D01*
X114447000Y-75057000D01*
X114427000Y-75057000D01*
X114427000Y-76256250D01*
X114585750Y-76415000D01*
X115150000Y-76418072D01*
X115274482Y-76405812D01*
X115394180Y-76369502D01*
X115504494Y-76310537D01*
X115570000Y-76256778D01*
X115635506Y-76310537D01*
X115745820Y-76369502D01*
X115865518Y-76405812D01*
X115990000Y-76418072D01*
X116059000Y-76418072D01*
X116059000Y-76552275D01*
X115871898Y-76474774D01*
X115671939Y-76435000D01*
X115468061Y-76435000D01*
X115268102Y-76474774D01*
X115079744Y-76552795D01*
X114910226Y-76666063D01*
X114866289Y-76710000D01*
X109704882Y-76710000D01*
X108235924Y-75241043D01*
X108235924Y-75178905D01*
X108196150Y-74978946D01*
X108118129Y-74790588D01*
X108004861Y-74621070D01*
X107860698Y-74476907D01*
X107691180Y-74363639D01*
X107502822Y-74285618D01*
X107377990Y-74260788D01*
X107345821Y-74183126D01*
X107334378Y-74166000D01*
X108262289Y-74166000D01*
X108306226Y-74209937D01*
X108475744Y-74323205D01*
X108664102Y-74401226D01*
X108864061Y-74441000D01*
X109064275Y-74441000D01*
X108986774Y-74628102D01*
X108947000Y-74828061D01*
X108947000Y-75031939D01*
X108986774Y-75231898D01*
X109064795Y-75420256D01*
X109178063Y-75589774D01*
X109322226Y-75733937D01*
X109491744Y-75847205D01*
X109680102Y-75925226D01*
X109880061Y-75965000D01*
X110083939Y-75965000D01*
X110283898Y-75925226D01*
X110289746Y-75922804D01*
X110320498Y-76024180D01*
X110379463Y-76134494D01*
X110458815Y-76231185D01*
X110555506Y-76310537D01*
X110665820Y-76369502D01*
X110785518Y-76405812D01*
X110910000Y-76418072D01*
X112610000Y-76418072D01*
X112734482Y-76405812D01*
X112854180Y-76369502D01*
X112964494Y-76310537D01*
X113030000Y-76256778D01*
X113095506Y-76310537D01*
X113205820Y-76369502D01*
X113325518Y-76405812D01*
X113450000Y-76418072D01*
X114014250Y-76415000D01*
X114173000Y-76256250D01*
X114173000Y-75057000D01*
X114153000Y-75057000D01*
X114153000Y-74803000D01*
X114173000Y-74803000D01*
X114173000Y-72517000D01*
X114153000Y-72517000D01*
X114153000Y-72263000D01*
X114173000Y-72263000D01*
X114173000Y-71063750D01*
X114014250Y-70905000D01*
X113450000Y-70901928D01*
X113325518Y-70914188D01*
X113205820Y-70950498D01*
X113192247Y-70957753D01*
X113199502Y-70944180D01*
X113235812Y-70824482D01*
X113248072Y-70700000D01*
X113248072Y-69000000D01*
X113244034Y-68959000D01*
X113246572Y-68959000D01*
X113283894Y-68962676D01*
X113321216Y-68959000D01*
X113321227Y-68959000D01*
X113432880Y-68948003D01*
X113576141Y-68904546D01*
X113708170Y-68833974D01*
X113823895Y-68739001D01*
X113847698Y-68709997D01*
X115351928Y-67205768D01*
X115351928Y-68160000D01*
G36*
X76399968Y-74385218D02*
G01*
X76419628Y-74421998D01*
X76354372Y-74421998D01*
X76374032Y-74385218D01*
X76387000Y-74372250D01*
X76399968Y-74385218D01*
X76399968Y-74385218D01*
G37*
X76399968Y-74385218D02*
X76419628Y-74421998D01*
X76354372Y-74421998D01*
X76374032Y-74385218D01*
X76387000Y-74372250D01*
X76399968Y-74385218D01*
G36*
X106597581Y-70599003D02*
G01*
X106709234Y-70610000D01*
X106709242Y-70610000D01*
X106746567Y-70613676D01*
X106783892Y-70610000D01*
X110271928Y-70610000D01*
X110271928Y-70700000D01*
X110284188Y-70824482D01*
X110320498Y-70944180D01*
X110379463Y-71054494D01*
X110433222Y-71120000D01*
X110379463Y-71185506D01*
X110320498Y-71295820D01*
X110284188Y-71415518D01*
X110271928Y-71540000D01*
X110271928Y-73240000D01*
X110284188Y-73364482D01*
X110320498Y-73484180D01*
X110379463Y-73594494D01*
X110433222Y-73660000D01*
X110379463Y-73725506D01*
X110320498Y-73835820D01*
X110289746Y-73937196D01*
X110283898Y-73934774D01*
X110083939Y-73895000D01*
X109883725Y-73895000D01*
X109961226Y-73707898D01*
X110001000Y-73507939D01*
X110001000Y-73304061D01*
X109961226Y-73104102D01*
X109883205Y-72915744D01*
X109769937Y-72746226D01*
X109625774Y-72602063D01*
X109456256Y-72488795D01*
X109267898Y-72410774D01*
X109231330Y-72403500D01*
X109239000Y-72364939D01*
X109239000Y-72161061D01*
X109199226Y-71961102D01*
X109121205Y-71772744D01*
X109007937Y-71603226D01*
X108863774Y-71459063D01*
X108694256Y-71345795D01*
X108505898Y-71267774D01*
X108305939Y-71228000D01*
X108102061Y-71228000D01*
X107902102Y-71267774D01*
X107713744Y-71345795D01*
X107544226Y-71459063D01*
X107500289Y-71503000D01*
X107357698Y-71503000D01*
X107342287Y-71465794D01*
X107229019Y-71296276D01*
X107084856Y-71152113D01*
X106915338Y-71038845D01*
X106726980Y-70960824D01*
X106527021Y-70921050D01*
X106464883Y-70921050D01*
X106452879Y-70909046D01*
X106490792Y-70718449D01*
X106490792Y-70566609D01*
X106597581Y-70599003D01*
X106597581Y-70599003D01*
G37*
X106597581Y-70599003D02*
X106709234Y-70610000D01*
X106709242Y-70610000D01*
X106746567Y-70613676D01*
X106783892Y-70610000D01*
X110271928Y-70610000D01*
X110271928Y-70700000D01*
X110284188Y-70824482D01*
X110320498Y-70944180D01*
X110379463Y-71054494D01*
X110433222Y-71120000D01*
X110379463Y-71185506D01*
X110320498Y-71295820D01*
X110284188Y-71415518D01*
X110271928Y-71540000D01*
X110271928Y-73240000D01*
X110284188Y-73364482D01*
X110320498Y-73484180D01*
X110379463Y-73594494D01*
X110433222Y-73660000D01*
X110379463Y-73725506D01*
X110320498Y-73835820D01*
X110289746Y-73937196D01*
X110283898Y-73934774D01*
X110083939Y-73895000D01*
X109883725Y-73895000D01*
X109961226Y-73707898D01*
X110001000Y-73507939D01*
X110001000Y-73304061D01*
X109961226Y-73104102D01*
X109883205Y-72915744D01*
X109769937Y-72746226D01*
X109625774Y-72602063D01*
X109456256Y-72488795D01*
X109267898Y-72410774D01*
X109231330Y-72403500D01*
X109239000Y-72364939D01*
X109239000Y-72161061D01*
X109199226Y-71961102D01*
X109121205Y-71772744D01*
X109007937Y-71603226D01*
X108863774Y-71459063D01*
X108694256Y-71345795D01*
X108505898Y-71267774D01*
X108305939Y-71228000D01*
X108102061Y-71228000D01*
X107902102Y-71267774D01*
X107713744Y-71345795D01*
X107544226Y-71459063D01*
X107500289Y-71503000D01*
X107357698Y-71503000D01*
X107342287Y-71465794D01*
X107229019Y-71296276D01*
X107084856Y-71152113D01*
X106915338Y-71038845D01*
X106726980Y-70960824D01*
X106527021Y-70921050D01*
X106464883Y-70921050D01*
X106452879Y-70909046D01*
X106490792Y-70718449D01*
X106490792Y-70566609D01*
X106597581Y-70599003D01*
G36*
X79608776Y-73707898D02*
G01*
X79686797Y-73896256D01*
X79712017Y-73934000D01*
X79502000Y-73934000D01*
X79502000Y-73914000D01*
X79482000Y-73914000D01*
X79482000Y-73660000D01*
X79502000Y-73660000D01*
X79502000Y-73640000D01*
X79595270Y-73640000D01*
X79608776Y-73707898D01*
X79608776Y-73707898D01*
G37*
X79608776Y-73707898D02*
X79686797Y-73896256D01*
X79712017Y-73934000D01*
X79502000Y-73934000D01*
X79502000Y-73914000D01*
X79482000Y-73914000D01*
X79482000Y-73660000D01*
X79502000Y-73660000D01*
X79502000Y-73640000D01*
X79595270Y-73640000D01*
X79608776Y-73707898D01*
G36*
X92674815Y-69608185D02*
G01*
X92771506Y-69687537D01*
X92881820Y-69746502D01*
X93001518Y-69782812D01*
X93126000Y-69795072D01*
X94326000Y-69795072D01*
X94450482Y-69782812D01*
X94570180Y-69746502D01*
X94641542Y-69708358D01*
X94688016Y-69754832D01*
X94857534Y-69868100D01*
X94976816Y-69917509D01*
X94996742Y-70017684D01*
X95074763Y-70206042D01*
X95188031Y-70375560D01*
X95332194Y-70519723D01*
X95501712Y-70632991D01*
X95690070Y-70711012D01*
X95890029Y-70750786D01*
X96093907Y-70750786D01*
X96293866Y-70711012D01*
X96482224Y-70632991D01*
X96651742Y-70519723D01*
X96675766Y-70495699D01*
X96689104Y-70501224D01*
X96728138Y-70508988D01*
X96831150Y-70612000D01*
X97497900Y-70612000D01*
X97497900Y-70592000D01*
X97751900Y-70592000D01*
X97751900Y-70612000D01*
X97771900Y-70612000D01*
X97771900Y-70866000D01*
X97751900Y-70866000D01*
X97751900Y-70886000D01*
X97497900Y-70886000D01*
X97497900Y-70866000D01*
X96831150Y-70866000D01*
X96672400Y-71024750D01*
X96669328Y-71170800D01*
X96671336Y-71191187D01*
X96564820Y-71223498D01*
X96454506Y-71282463D01*
X96357815Y-71361815D01*
X96278463Y-71458506D01*
X96219498Y-71568820D01*
X96183188Y-71688518D01*
X96170928Y-71813000D01*
X96170928Y-72431712D01*
X96160132Y-72420915D01*
X96136329Y-72391912D01*
X96020604Y-72296939D01*
X95888575Y-72226367D01*
X95745314Y-72182910D01*
X95633661Y-72171913D01*
X95633650Y-72171913D01*
X95596328Y-72168237D01*
X95559006Y-72171913D01*
X93667711Y-72171913D01*
X93623774Y-72127976D01*
X93454256Y-72014708D01*
X93265898Y-71936687D01*
X93065939Y-71896913D01*
X92862061Y-71896913D01*
X92662102Y-71936687D01*
X92473744Y-72014708D01*
X92304226Y-72127976D01*
X92160063Y-72272139D01*
X92046795Y-72441657D01*
X91977478Y-72609002D01*
X91689715Y-72609002D01*
X91713000Y-72491939D01*
X91713000Y-72288061D01*
X91685863Y-72151634D01*
X91868898Y-72115226D01*
X92057256Y-72037205D01*
X92226774Y-71923937D01*
X92370937Y-71779774D01*
X92484205Y-71610256D01*
X92562226Y-71421898D01*
X92602000Y-71221939D01*
X92602000Y-71018061D01*
X92562226Y-70818102D01*
X92484205Y-70629744D01*
X92370937Y-70460226D01*
X92332211Y-70421500D01*
X92370937Y-70382774D01*
X92484205Y-70213256D01*
X92562226Y-70024898D01*
X92602000Y-69824939D01*
X92602000Y-69621061D01*
X92595097Y-69586359D01*
X92626000Y-69548704D01*
X92674815Y-69608185D01*
X92674815Y-69608185D01*
G37*
X92674815Y-69608185D02*
X92771506Y-69687537D01*
X92881820Y-69746502D01*
X93001518Y-69782812D01*
X93126000Y-69795072D01*
X94326000Y-69795072D01*
X94450482Y-69782812D01*
X94570180Y-69746502D01*
X94641542Y-69708358D01*
X94688016Y-69754832D01*
X94857534Y-69868100D01*
X94976816Y-69917509D01*
X94996742Y-70017684D01*
X95074763Y-70206042D01*
X95188031Y-70375560D01*
X95332194Y-70519723D01*
X95501712Y-70632991D01*
X95690070Y-70711012D01*
X95890029Y-70750786D01*
X96093907Y-70750786D01*
X96293866Y-70711012D01*
X96482224Y-70632991D01*
X96651742Y-70519723D01*
X96675766Y-70495699D01*
X96689104Y-70501224D01*
X96728138Y-70508988D01*
X96831150Y-70612000D01*
X97497900Y-70612000D01*
X97497900Y-70592000D01*
X97751900Y-70592000D01*
X97751900Y-70612000D01*
X97771900Y-70612000D01*
X97771900Y-70866000D01*
X97751900Y-70866000D01*
X97751900Y-70886000D01*
X97497900Y-70886000D01*
X97497900Y-70866000D01*
X96831150Y-70866000D01*
X96672400Y-71024750D01*
X96669328Y-71170800D01*
X96671336Y-71191187D01*
X96564820Y-71223498D01*
X96454506Y-71282463D01*
X96357815Y-71361815D01*
X96278463Y-71458506D01*
X96219498Y-71568820D01*
X96183188Y-71688518D01*
X96170928Y-71813000D01*
X96170928Y-72431712D01*
X96160132Y-72420915D01*
X96136329Y-72391912D01*
X96020604Y-72296939D01*
X95888575Y-72226367D01*
X95745314Y-72182910D01*
X95633661Y-72171913D01*
X95633650Y-72171913D01*
X95596328Y-72168237D01*
X95559006Y-72171913D01*
X93667711Y-72171913D01*
X93623774Y-72127976D01*
X93454256Y-72014708D01*
X93265898Y-71936687D01*
X93065939Y-71896913D01*
X92862061Y-71896913D01*
X92662102Y-71936687D01*
X92473744Y-72014708D01*
X92304226Y-72127976D01*
X92160063Y-72272139D01*
X92046795Y-72441657D01*
X91977478Y-72609002D01*
X91689715Y-72609002D01*
X91713000Y-72491939D01*
X91713000Y-72288061D01*
X91685863Y-72151634D01*
X91868898Y-72115226D01*
X92057256Y-72037205D01*
X92226774Y-71923937D01*
X92370937Y-71779774D01*
X92484205Y-71610256D01*
X92562226Y-71421898D01*
X92602000Y-71221939D01*
X92602000Y-71018061D01*
X92562226Y-70818102D01*
X92484205Y-70629744D01*
X92370937Y-70460226D01*
X92332211Y-70421500D01*
X92370937Y-70382774D01*
X92484205Y-70213256D01*
X92562226Y-70024898D01*
X92602000Y-69824939D01*
X92602000Y-69621061D01*
X92595097Y-69586359D01*
X92626000Y-69548704D01*
X92674815Y-69608185D01*
G36*
X86299750Y-67056000D02*
G01*
X87249000Y-67056000D01*
X87249000Y-67036000D01*
X87503000Y-67036000D01*
X87503000Y-67056000D01*
X87523000Y-67056000D01*
X87523000Y-67310000D01*
X87503000Y-67310000D01*
X87503000Y-68109250D01*
X87661750Y-68268000D01*
X87976000Y-68271072D01*
X88100482Y-68258812D01*
X88220180Y-68222502D01*
X88330494Y-68163537D01*
X88427185Y-68084185D01*
X88476000Y-68024704D01*
X88524815Y-68084185D01*
X88621506Y-68163537D01*
X88731820Y-68222502D01*
X88851518Y-68258812D01*
X88976000Y-68271072D01*
X89421982Y-68271072D01*
X89470710Y-68388711D01*
X89583978Y-68558229D01*
X89728141Y-68702392D01*
X89897659Y-68815660D01*
X90086017Y-68893681D01*
X90285976Y-68933455D01*
X90287928Y-68933455D01*
X90287928Y-69157000D01*
X90300188Y-69281482D01*
X90336498Y-69401180D01*
X90395463Y-69511494D01*
X90474815Y-69608185D01*
X90532000Y-69655115D01*
X90532000Y-69824939D01*
X90571774Y-70024898D01*
X90649795Y-70213256D01*
X90747846Y-70360000D01*
X88968711Y-70360000D01*
X88924774Y-70316063D01*
X88755256Y-70202795D01*
X88566898Y-70124774D01*
X88366939Y-70085000D01*
X88163061Y-70085000D01*
X87963102Y-70124774D01*
X87774744Y-70202795D01*
X87605226Y-70316063D01*
X87461063Y-70460226D01*
X87347795Y-70629744D01*
X87269774Y-70818102D01*
X87230000Y-71018061D01*
X87230000Y-71221939D01*
X87269774Y-71421898D01*
X87274782Y-71433989D01*
X85377961Y-71433989D01*
X85408185Y-71409185D01*
X85487537Y-71312494D01*
X85546502Y-71202180D01*
X85582812Y-71082482D01*
X85595072Y-70958000D01*
X85592000Y-70643750D01*
X85433250Y-70485000D01*
X84709000Y-70485000D01*
X84709000Y-70505000D01*
X84455000Y-70505000D01*
X84455000Y-70485000D01*
X83439000Y-70485000D01*
X83439000Y-70505000D01*
X83185000Y-70505000D01*
X83185000Y-70485000D01*
X83165000Y-70485000D01*
X83165000Y-70398044D01*
X83168293Y-70385037D01*
X83165000Y-70382331D01*
X83165000Y-70231000D01*
X83185000Y-70231000D01*
X83185000Y-70211000D01*
X83439000Y-70211000D01*
X83439000Y-70231000D01*
X84455000Y-70231000D01*
X84455000Y-70211000D01*
X84709000Y-70211000D01*
X84709000Y-70231000D01*
X85433250Y-70231000D01*
X85592000Y-70072250D01*
X85595072Y-69758000D01*
X85582812Y-69633518D01*
X85546502Y-69513820D01*
X85535373Y-69493000D01*
X85694939Y-69493000D01*
X85894898Y-69453226D01*
X86062029Y-69383997D01*
X86115439Y-69412546D01*
X86258698Y-69456002D01*
X86407684Y-69470676D01*
X86556670Y-69456002D01*
X86699931Y-69412546D01*
X86831960Y-69341973D01*
X86947686Y-69247001D01*
X87042658Y-69131275D01*
X87113231Y-68999246D01*
X87156687Y-68855985D01*
X87171361Y-68706999D01*
X87156687Y-68558013D01*
X87113231Y-68414754D01*
X87042658Y-68282724D01*
X87031049Y-68268579D01*
X87090250Y-68268000D01*
X87249000Y-68109250D01*
X87249000Y-67310000D01*
X86299750Y-67310000D01*
X86141000Y-67468750D01*
X86138956Y-67578013D01*
X86083256Y-67540795D01*
X85894898Y-67462774D01*
X85694939Y-67423000D01*
X85491061Y-67423000D01*
X85431234Y-67434900D01*
X85408185Y-67406815D01*
X85311494Y-67327463D01*
X85286730Y-67314226D01*
X85216974Y-67183724D01*
X85184374Y-67144001D01*
X85763677Y-67144001D01*
X85800999Y-67147677D01*
X85838321Y-67144001D01*
X85838332Y-67144001D01*
X85949985Y-67133004D01*
X86093246Y-67089547D01*
X86225275Y-67018975D01*
X86245844Y-67002094D01*
X86299750Y-67056000D01*
X86299750Y-67056000D01*
G37*
X86299750Y-67056000D02*
X87249000Y-67056000D01*
X87249000Y-67036000D01*
X87503000Y-67036000D01*
X87503000Y-67056000D01*
X87523000Y-67056000D01*
X87523000Y-67310000D01*
X87503000Y-67310000D01*
X87503000Y-68109250D01*
X87661750Y-68268000D01*
X87976000Y-68271072D01*
X88100482Y-68258812D01*
X88220180Y-68222502D01*
X88330494Y-68163537D01*
X88427185Y-68084185D01*
X88476000Y-68024704D01*
X88524815Y-68084185D01*
X88621506Y-68163537D01*
X88731820Y-68222502D01*
X88851518Y-68258812D01*
X88976000Y-68271072D01*
X89421982Y-68271072D01*
X89470710Y-68388711D01*
X89583978Y-68558229D01*
X89728141Y-68702392D01*
X89897659Y-68815660D01*
X90086017Y-68893681D01*
X90285976Y-68933455D01*
X90287928Y-68933455D01*
X90287928Y-69157000D01*
X90300188Y-69281482D01*
X90336498Y-69401180D01*
X90395463Y-69511494D01*
X90474815Y-69608185D01*
X90532000Y-69655115D01*
X90532000Y-69824939D01*
X90571774Y-70024898D01*
X90649795Y-70213256D01*
X90747846Y-70360000D01*
X88968711Y-70360000D01*
X88924774Y-70316063D01*
X88755256Y-70202795D01*
X88566898Y-70124774D01*
X88366939Y-70085000D01*
X88163061Y-70085000D01*
X87963102Y-70124774D01*
X87774744Y-70202795D01*
X87605226Y-70316063D01*
X87461063Y-70460226D01*
X87347795Y-70629744D01*
X87269774Y-70818102D01*
X87230000Y-71018061D01*
X87230000Y-71221939D01*
X87269774Y-71421898D01*
X87274782Y-71433989D01*
X85377961Y-71433989D01*
X85408185Y-71409185D01*
X85487537Y-71312494D01*
X85546502Y-71202180D01*
X85582812Y-71082482D01*
X85595072Y-70958000D01*
X85592000Y-70643750D01*
X85433250Y-70485000D01*
X84709000Y-70485000D01*
X84709000Y-70505000D01*
X84455000Y-70505000D01*
X84455000Y-70485000D01*
X83439000Y-70485000D01*
X83439000Y-70505000D01*
X83185000Y-70505000D01*
X83185000Y-70485000D01*
X83165000Y-70485000D01*
X83165000Y-70398044D01*
X83168293Y-70385037D01*
X83165000Y-70382331D01*
X83165000Y-70231000D01*
X83185000Y-70231000D01*
X83185000Y-70211000D01*
X83439000Y-70211000D01*
X83439000Y-70231000D01*
X84455000Y-70231000D01*
X84455000Y-70211000D01*
X84709000Y-70211000D01*
X84709000Y-70231000D01*
X85433250Y-70231000D01*
X85592000Y-70072250D01*
X85595072Y-69758000D01*
X85582812Y-69633518D01*
X85546502Y-69513820D01*
X85535373Y-69493000D01*
X85694939Y-69493000D01*
X85894898Y-69453226D01*
X86062029Y-69383997D01*
X86115439Y-69412546D01*
X86258698Y-69456002D01*
X86407684Y-69470676D01*
X86556670Y-69456002D01*
X86699931Y-69412546D01*
X86831960Y-69341973D01*
X86947686Y-69247001D01*
X87042658Y-69131275D01*
X87113231Y-68999246D01*
X87156687Y-68855985D01*
X87171361Y-68706999D01*
X87156687Y-68558013D01*
X87113231Y-68414754D01*
X87042658Y-68282724D01*
X87031049Y-68268579D01*
X87090250Y-68268000D01*
X87249000Y-68109250D01*
X87249000Y-67310000D01*
X86299750Y-67310000D01*
X86141000Y-67468750D01*
X86138956Y-67578013D01*
X86083256Y-67540795D01*
X85894898Y-67462774D01*
X85694939Y-67423000D01*
X85491061Y-67423000D01*
X85431234Y-67434900D01*
X85408185Y-67406815D01*
X85311494Y-67327463D01*
X85286730Y-67314226D01*
X85216974Y-67183724D01*
X85184374Y-67144001D01*
X85763677Y-67144001D01*
X85800999Y-67147677D01*
X85838321Y-67144001D01*
X85838332Y-67144001D01*
X85949985Y-67133004D01*
X86093246Y-67089547D01*
X86225275Y-67018975D01*
X86245844Y-67002094D01*
X86299750Y-67056000D01*
G36*
X95844000Y-65532000D02*
G01*
X95864000Y-65532000D01*
X95864000Y-65786000D01*
X95844000Y-65786000D01*
X95844000Y-67056000D01*
X95864000Y-67056000D01*
X95864000Y-67310000D01*
X95844000Y-67310000D01*
X95844000Y-67330000D01*
X95590000Y-67330000D01*
X95590000Y-67310000D01*
X95570000Y-67310000D01*
X95570000Y-67056000D01*
X95590000Y-67056000D01*
X95590000Y-65786000D01*
X95570000Y-65786000D01*
X95570000Y-65532000D01*
X95590000Y-65532000D01*
X95590000Y-65512000D01*
X95844000Y-65512000D01*
X95844000Y-65532000D01*
X95844000Y-65532000D01*
G37*
X95844000Y-65532000D02*
X95864000Y-65532000D01*
X95864000Y-65786000D01*
X95844000Y-65786000D01*
X95844000Y-67056000D01*
X95864000Y-67056000D01*
X95864000Y-67310000D01*
X95844000Y-67310000D01*
X95844000Y-67330000D01*
X95590000Y-67330000D01*
X95590000Y-67310000D01*
X95570000Y-67310000D01*
X95570000Y-67056000D01*
X95590000Y-67056000D01*
X95590000Y-65786000D01*
X95570000Y-65786000D01*
X95570000Y-65532000D01*
X95590000Y-65532000D01*
X95590000Y-65512000D01*
X95844000Y-65512000D01*
X95844000Y-65532000D01*
G36*
X84437195Y-66772999D02*
G01*
X83152870Y-66772999D01*
X83098974Y-66719103D01*
X82929456Y-66605835D01*
X82741098Y-66527814D01*
X82541139Y-66488040D01*
X82537205Y-66488040D01*
X82574774Y-66462937D01*
X82618711Y-66419000D01*
X84083197Y-66419000D01*
X84437195Y-66772999D01*
X84437195Y-66772999D01*
G37*
X84437195Y-66772999D02*
X83152870Y-66772999D01*
X83098974Y-66719103D01*
X82929456Y-66605835D01*
X82741098Y-66527814D01*
X82541139Y-66488040D01*
X82537205Y-66488040D01*
X82574774Y-66462937D01*
X82618711Y-66419000D01*
X84083197Y-66419000D01*
X84437195Y-66772999D01*
M02*
