G04 #@! TF.GenerationSoftware,KiCad,Pcbnew,(5.1.0)-1*
G04 #@! TF.CreationDate,2019-05-20T22:37:17-04:00*
G04 #@! TF.ProjectId,PicoTrackerWSPR1Rev5,5069636f-5472-4616-936b-657257535052,rev?*
G04 #@! TF.SameCoordinates,Original*
G04 #@! TF.FileFunction,Legend,Bot*
G04 #@! TF.FilePolarity,Positive*
%FSLAX46Y46*%
G04 Gerber Fmt 4.6, Leading zero omitted, Abs format (unit mm)*
G04 Created by KiCad (PCBNEW (5.1.0)-1) date 2019-05-20 22:37:17*
%MOMM*%
%LPD*%
G04 APERTURE LIST*
%ADD10C,0.100000*%
%ADD11C,0.300000*%
%ADD12C,0.150000*%
G04 APERTURE END LIST*
D10*
X53975000Y-62230000D02*
X53975000Y-63500000D01*
X123190000Y-62230000D02*
X123190000Y-63500000D01*
X53975000Y-90170000D02*
X53975000Y-63500000D01*
X123190000Y-90170000D02*
X53975000Y-90170000D01*
X123190000Y-63500000D02*
X123190000Y-90170000D01*
X53975000Y-62230000D02*
X123190000Y-62230000D01*
X105791021Y-89408000D02*
G75*
G03X105791021Y-89408000I-381021J0D01*
G01*
D11*
X102129000Y-65210857D02*
X102129000Y-64010857D01*
X102129000Y-65153714D02*
X102243285Y-65210857D01*
X102471857Y-65210857D01*
X102586142Y-65153714D01*
X102643285Y-65096571D01*
X102700428Y-64982285D01*
X102700428Y-64639428D01*
X102643285Y-64525142D01*
X102586142Y-64468000D01*
X102471857Y-64410857D01*
X102243285Y-64410857D01*
X102129000Y-64468000D01*
X101386142Y-65210857D02*
X101500428Y-65153714D01*
X101557571Y-65096571D01*
X101614714Y-64982285D01*
X101614714Y-64639428D01*
X101557571Y-64525142D01*
X101500428Y-64468000D01*
X101386142Y-64410857D01*
X101214714Y-64410857D01*
X101100428Y-64468000D01*
X101043285Y-64525142D01*
X100986142Y-64639428D01*
X100986142Y-64982285D01*
X101043285Y-65096571D01*
X101100428Y-65153714D01*
X101214714Y-65210857D01*
X101386142Y-65210857D01*
X99957571Y-64410857D02*
X99957571Y-65210857D01*
X100471857Y-64410857D02*
X100471857Y-65039428D01*
X100414714Y-65153714D01*
X100300428Y-65210857D01*
X100129000Y-65210857D01*
X100014714Y-65153714D01*
X99957571Y-65096571D01*
X98871857Y-64410857D02*
X98871857Y-65382285D01*
X98929000Y-65496571D01*
X98986142Y-65553714D01*
X99100428Y-65610857D01*
X99271857Y-65610857D01*
X99386142Y-65553714D01*
X98871857Y-65153714D02*
X98986142Y-65210857D01*
X99214714Y-65210857D01*
X99329000Y-65153714D01*
X99386142Y-65096571D01*
X99443285Y-64982285D01*
X99443285Y-64639428D01*
X99386142Y-64525142D01*
X99329000Y-64468000D01*
X99214714Y-64410857D01*
X98986142Y-64410857D01*
X98871857Y-64468000D01*
X98129000Y-65210857D02*
X98243285Y-65153714D01*
X98300428Y-65039428D01*
X98300428Y-64010857D01*
X97157571Y-65210857D02*
X97157571Y-64582285D01*
X97214714Y-64468000D01*
X97329000Y-64410857D01*
X97557571Y-64410857D01*
X97671857Y-64468000D01*
X97157571Y-65153714D02*
X97271857Y-65210857D01*
X97557571Y-65210857D01*
X97671857Y-65153714D01*
X97729000Y-65039428D01*
X97729000Y-64925142D01*
X97671857Y-64810857D01*
X97557571Y-64753714D01*
X97271857Y-64753714D01*
X97157571Y-64696571D01*
X96643285Y-65153714D02*
X96529000Y-65210857D01*
X96300428Y-65210857D01*
X96186142Y-65153714D01*
X96129000Y-65039428D01*
X96129000Y-64982285D01*
X96186142Y-64868000D01*
X96300428Y-64810857D01*
X96471857Y-64810857D01*
X96586142Y-64753714D01*
X96643285Y-64639428D01*
X96643285Y-64582285D01*
X96586142Y-64468000D01*
X96471857Y-64410857D01*
X96300428Y-64410857D01*
X96186142Y-64468000D01*
X95614714Y-65096571D02*
X95557571Y-65153714D01*
X95614714Y-65210857D01*
X95671857Y-65153714D01*
X95614714Y-65096571D01*
X95614714Y-65210857D01*
X95043285Y-65210857D02*
X95043285Y-64410857D01*
X95043285Y-64525142D02*
X94986142Y-64468000D01*
X94871857Y-64410857D01*
X94700428Y-64410857D01*
X94586142Y-64468000D01*
X94529000Y-64582285D01*
X94529000Y-65210857D01*
X94529000Y-64582285D02*
X94471857Y-64468000D01*
X94357571Y-64410857D01*
X94186142Y-64410857D01*
X94071857Y-64468000D01*
X94014714Y-64582285D01*
X94014714Y-65210857D01*
X92929000Y-65210857D02*
X92929000Y-64582285D01*
X92986142Y-64468000D01*
X93100428Y-64410857D01*
X93329000Y-64410857D01*
X93443285Y-64468000D01*
X92929000Y-65153714D02*
X93043285Y-65210857D01*
X93329000Y-65210857D01*
X93443285Y-65153714D01*
X93500428Y-65039428D01*
X93500428Y-64925142D01*
X93443285Y-64810857D01*
X93329000Y-64753714D01*
X93043285Y-64753714D01*
X92929000Y-64696571D01*
X92186142Y-65210857D02*
X92300428Y-65153714D01*
X92357571Y-65039428D01*
X92357571Y-64010857D01*
X91729000Y-64410857D02*
X91729000Y-65210857D01*
X91729000Y-64525142D02*
X91671857Y-64468000D01*
X91557571Y-64410857D01*
X91386142Y-64410857D01*
X91271857Y-64468000D01*
X91214714Y-64582285D01*
X91214714Y-65210857D01*
X90129000Y-65210857D02*
X90129000Y-64582285D01*
X90186142Y-64468000D01*
X90300428Y-64410857D01*
X90529000Y-64410857D01*
X90643285Y-64468000D01*
X90129000Y-65153714D02*
X90243285Y-65210857D01*
X90529000Y-65210857D01*
X90643285Y-65153714D01*
X90700428Y-65039428D01*
X90700428Y-64925142D01*
X90643285Y-64810857D01*
X90529000Y-64753714D01*
X90243285Y-64753714D01*
X90129000Y-64696571D01*
X89729000Y-64410857D02*
X89271857Y-64410857D01*
X89557571Y-64010857D02*
X89557571Y-65039428D01*
X89500428Y-65153714D01*
X89386142Y-65210857D01*
X89271857Y-65210857D01*
X88871857Y-65210857D02*
X88871857Y-64410857D01*
X88871857Y-64010857D02*
X88929000Y-64068000D01*
X88871857Y-64125142D01*
X88814714Y-64068000D01*
X88871857Y-64010857D01*
X88871857Y-64125142D01*
X87557571Y-64639428D02*
X87614714Y-64582285D01*
X87729000Y-64525142D01*
X87843285Y-64525142D01*
X87957571Y-64582285D01*
X88014714Y-64639428D01*
X88071857Y-64753714D01*
X88071857Y-64868000D01*
X88014714Y-64982285D01*
X87957571Y-65039428D01*
X87843285Y-65096571D01*
X87729000Y-65096571D01*
X87614714Y-65039428D01*
X87557571Y-64982285D01*
X87557571Y-64525142D02*
X87557571Y-64982285D01*
X87500428Y-65039428D01*
X87443285Y-65039428D01*
X87329000Y-64982285D01*
X87271857Y-64868000D01*
X87271857Y-64582285D01*
X87386142Y-64410857D01*
X87557571Y-64296571D01*
X87786142Y-64239428D01*
X88014714Y-64296571D01*
X88186142Y-64410857D01*
X88300428Y-64582285D01*
X88357571Y-64810857D01*
X88300428Y-65039428D01*
X88186142Y-65210857D01*
X88014714Y-65325142D01*
X87786142Y-65382285D01*
X87557571Y-65325142D01*
X87386142Y-65210857D01*
X86243285Y-64410857D02*
X86243285Y-65382285D01*
X86300428Y-65496571D01*
X86357571Y-65553714D01*
X86471857Y-65610857D01*
X86643285Y-65610857D01*
X86757571Y-65553714D01*
X86243285Y-65153714D02*
X86357571Y-65210857D01*
X86586142Y-65210857D01*
X86700428Y-65153714D01*
X86757571Y-65096571D01*
X86814714Y-64982285D01*
X86814714Y-64639428D01*
X86757571Y-64525142D01*
X86700428Y-64468000D01*
X86586142Y-64410857D01*
X86357571Y-64410857D01*
X86243285Y-64468000D01*
X85671857Y-65210857D02*
X85671857Y-64410857D01*
X85671857Y-64525142D02*
X85614714Y-64468000D01*
X85500428Y-64410857D01*
X85329000Y-64410857D01*
X85214714Y-64468000D01*
X85157571Y-64582285D01*
X85157571Y-65210857D01*
X85157571Y-64582285D02*
X85100428Y-64468000D01*
X84986142Y-64410857D01*
X84814714Y-64410857D01*
X84700428Y-64468000D01*
X84643285Y-64582285D01*
X84643285Y-65210857D01*
X83557571Y-65210857D02*
X83557571Y-64582285D01*
X83614714Y-64468000D01*
X83729000Y-64410857D01*
X83957571Y-64410857D01*
X84071857Y-64468000D01*
X83557571Y-65153714D02*
X83671857Y-65210857D01*
X83957571Y-65210857D01*
X84071857Y-65153714D01*
X84129000Y-65039428D01*
X84129000Y-64925142D01*
X84071857Y-64810857D01*
X83957571Y-64753714D01*
X83671857Y-64753714D01*
X83557571Y-64696571D01*
X82986142Y-65210857D02*
X82986142Y-64410857D01*
X82986142Y-64010857D02*
X83043285Y-64068000D01*
X82986142Y-64125142D01*
X82929000Y-64068000D01*
X82986142Y-64010857D01*
X82986142Y-64125142D01*
X82243285Y-65210857D02*
X82357571Y-65153714D01*
X82414714Y-65039428D01*
X82414714Y-64010857D01*
X81786142Y-65096571D02*
X81729000Y-65153714D01*
X81786142Y-65210857D01*
X81843285Y-65153714D01*
X81786142Y-65096571D01*
X81786142Y-65210857D01*
X80700428Y-65153714D02*
X80814714Y-65210857D01*
X81043285Y-65210857D01*
X81157571Y-65153714D01*
X81214714Y-65096571D01*
X81271857Y-64982285D01*
X81271857Y-64639428D01*
X81214714Y-64525142D01*
X81157571Y-64468000D01*
X81043285Y-64410857D01*
X80814714Y-64410857D01*
X80700428Y-64468000D01*
X80014714Y-65210857D02*
X80129000Y-65153714D01*
X80186142Y-65096571D01*
X80243285Y-64982285D01*
X80243285Y-64639428D01*
X80186142Y-64525142D01*
X80129000Y-64468000D01*
X80014714Y-64410857D01*
X79843285Y-64410857D01*
X79729000Y-64468000D01*
X79671857Y-64525142D01*
X79614714Y-64639428D01*
X79614714Y-64982285D01*
X79671857Y-65096571D01*
X79729000Y-65153714D01*
X79843285Y-65210857D01*
X80014714Y-65210857D01*
X79100428Y-65210857D02*
X79100428Y-64410857D01*
X79100428Y-64525142D02*
X79043285Y-64468000D01*
X78929000Y-64410857D01*
X78757571Y-64410857D01*
X78643285Y-64468000D01*
X78586142Y-64582285D01*
X78586142Y-65210857D01*
X78586142Y-64582285D02*
X78529000Y-64468000D01*
X78414714Y-64410857D01*
X78243285Y-64410857D01*
X78129000Y-64468000D01*
X78071857Y-64582285D01*
X78071857Y-65210857D01*
X98986142Y-67310857D02*
X98986142Y-66110857D01*
X98300428Y-67310857D02*
X98814714Y-66625142D01*
X98300428Y-66110857D02*
X98986142Y-66796571D01*
X97786142Y-67310857D02*
X97786142Y-66110857D01*
X97500428Y-66110857D01*
X97329000Y-66168000D01*
X97214714Y-66282285D01*
X97157571Y-66396571D01*
X97100428Y-66625142D01*
X97100428Y-66796571D01*
X97157571Y-67025142D01*
X97214714Y-67139428D01*
X97329000Y-67253714D01*
X97500428Y-67310857D01*
X97786142Y-67310857D01*
X96643285Y-66225142D02*
X96586142Y-66168000D01*
X96471857Y-66110857D01*
X96186142Y-66110857D01*
X96071857Y-66168000D01*
X96014714Y-66225142D01*
X95957571Y-66339428D01*
X95957571Y-66453714D01*
X96014714Y-66625142D01*
X96700428Y-67310857D01*
X95957571Y-67310857D01*
X95443285Y-67310857D02*
X95443285Y-66110857D01*
X94757571Y-67310857D02*
X95271857Y-66625142D01*
X94757571Y-66110857D02*
X95443285Y-66796571D01*
X94243285Y-67310857D02*
X94243285Y-66110857D01*
X93957571Y-66110857D01*
X93786142Y-66168000D01*
X93671857Y-66282285D01*
X93614714Y-66396571D01*
X93557571Y-66625142D01*
X93557571Y-66796571D01*
X93614714Y-67025142D01*
X93671857Y-67139428D01*
X93786142Y-67253714D01*
X93957571Y-67310857D01*
X94243285Y-67310857D01*
X93043285Y-67310857D02*
X93043285Y-66110857D01*
X92757571Y-66110857D01*
X92586142Y-66168000D01*
X92471857Y-66282285D01*
X92414714Y-66396571D01*
X92357571Y-66625142D01*
X92357571Y-66796571D01*
X92414714Y-67025142D01*
X92471857Y-67139428D01*
X92586142Y-67253714D01*
X92757571Y-67310857D01*
X93043285Y-67310857D01*
X101729000Y-69410857D02*
X101729000Y-68610857D01*
X101729000Y-68725142D02*
X101671857Y-68668000D01*
X101557571Y-68610857D01*
X101386142Y-68610857D01*
X101271857Y-68668000D01*
X101214714Y-68782285D01*
X101214714Y-69410857D01*
X101214714Y-68782285D02*
X101157571Y-68668000D01*
X101043285Y-68610857D01*
X100871857Y-68610857D01*
X100757571Y-68668000D01*
X100700428Y-68782285D01*
X100700428Y-69410857D01*
X99614714Y-69410857D02*
X99614714Y-68782285D01*
X99671857Y-68668000D01*
X99786142Y-68610857D01*
X100014714Y-68610857D01*
X100129000Y-68668000D01*
X99614714Y-69353714D02*
X99729000Y-69410857D01*
X100014714Y-69410857D01*
X100129000Y-69353714D01*
X100186142Y-69239428D01*
X100186142Y-69125142D01*
X100129000Y-69010857D01*
X100014714Y-68953714D01*
X99729000Y-68953714D01*
X99614714Y-68896571D01*
X99043285Y-69410857D02*
X99043285Y-68610857D01*
X99043285Y-68839428D02*
X98986142Y-68725142D01*
X98929000Y-68668000D01*
X98814714Y-68610857D01*
X98700428Y-68610857D01*
X98300428Y-69410857D02*
X98300428Y-68210857D01*
X98186142Y-68953714D02*
X97843285Y-69410857D01*
X97843285Y-68610857D02*
X98300428Y-69068000D01*
X97329000Y-69296571D02*
X97271857Y-69353714D01*
X97329000Y-69410857D01*
X97386142Y-69353714D01*
X97329000Y-69296571D01*
X97329000Y-69410857D01*
X96757571Y-69410857D02*
X96757571Y-68610857D01*
X96757571Y-68725142D02*
X96700428Y-68668000D01*
X96586142Y-68610857D01*
X96414714Y-68610857D01*
X96300428Y-68668000D01*
X96243285Y-68782285D01*
X96243285Y-69410857D01*
X96243285Y-68782285D02*
X96186142Y-68668000D01*
X96071857Y-68610857D01*
X95900428Y-68610857D01*
X95786142Y-68668000D01*
X95729000Y-68782285D01*
X95729000Y-69410857D01*
X94643285Y-69410857D02*
X94643285Y-68782285D01*
X94700428Y-68668000D01*
X94814714Y-68610857D01*
X95043285Y-68610857D01*
X95157571Y-68668000D01*
X94643285Y-69353714D02*
X94757571Y-69410857D01*
X95043285Y-69410857D01*
X95157571Y-69353714D01*
X95214714Y-69239428D01*
X95214714Y-69125142D01*
X95157571Y-69010857D01*
X95043285Y-68953714D01*
X94757571Y-68953714D01*
X94643285Y-68896571D01*
X93900428Y-69410857D02*
X94014714Y-69353714D01*
X94071857Y-69239428D01*
X94071857Y-68210857D01*
X93443285Y-68610857D02*
X93443285Y-69410857D01*
X93443285Y-68725142D02*
X93386142Y-68668000D01*
X93271857Y-68610857D01*
X93100428Y-68610857D01*
X92986142Y-68668000D01*
X92929000Y-68782285D01*
X92929000Y-69410857D01*
X91843285Y-69410857D02*
X91843285Y-68782285D01*
X91900428Y-68668000D01*
X92014714Y-68610857D01*
X92243285Y-68610857D01*
X92357571Y-68668000D01*
X91843285Y-69353714D02*
X91957571Y-69410857D01*
X92243285Y-69410857D01*
X92357571Y-69353714D01*
X92414714Y-69239428D01*
X92414714Y-69125142D01*
X92357571Y-69010857D01*
X92243285Y-68953714D01*
X91957571Y-68953714D01*
X91843285Y-68896571D01*
X91443285Y-68610857D02*
X90986142Y-68610857D01*
X91271857Y-68210857D02*
X91271857Y-69239428D01*
X91214714Y-69353714D01*
X91100428Y-69410857D01*
X90986142Y-69410857D01*
X90586142Y-69410857D02*
X90586142Y-68610857D01*
X90586142Y-68210857D02*
X90643285Y-68268000D01*
X90586142Y-68325142D01*
X90529000Y-68268000D01*
X90586142Y-68210857D01*
X90586142Y-68325142D01*
X89271857Y-68839428D02*
X89329000Y-68782285D01*
X89443285Y-68725142D01*
X89557571Y-68725142D01*
X89671857Y-68782285D01*
X89729000Y-68839428D01*
X89786142Y-68953714D01*
X89786142Y-69068000D01*
X89729000Y-69182285D01*
X89671857Y-69239428D01*
X89557571Y-69296571D01*
X89443285Y-69296571D01*
X89329000Y-69239428D01*
X89271857Y-69182285D01*
X89271857Y-68725142D02*
X89271857Y-69182285D01*
X89214714Y-69239428D01*
X89157571Y-69239428D01*
X89043285Y-69182285D01*
X88986142Y-69068000D01*
X88986142Y-68782285D01*
X89100428Y-68610857D01*
X89271857Y-68496571D01*
X89500428Y-68439428D01*
X89729000Y-68496571D01*
X89900428Y-68610857D01*
X90014714Y-68782285D01*
X90071857Y-69010857D01*
X90014714Y-69239428D01*
X89900428Y-69410857D01*
X89729000Y-69525142D01*
X89500428Y-69582285D01*
X89271857Y-69525142D01*
X89100428Y-69410857D01*
X87957571Y-68610857D02*
X87957571Y-69582285D01*
X88014714Y-69696571D01*
X88071857Y-69753714D01*
X88186142Y-69810857D01*
X88357571Y-69810857D01*
X88471857Y-69753714D01*
X87957571Y-69353714D02*
X88071857Y-69410857D01*
X88300428Y-69410857D01*
X88414714Y-69353714D01*
X88471857Y-69296571D01*
X88529000Y-69182285D01*
X88529000Y-68839428D01*
X88471857Y-68725142D01*
X88414714Y-68668000D01*
X88300428Y-68610857D01*
X88071857Y-68610857D01*
X87957571Y-68668000D01*
X87386142Y-69410857D02*
X87386142Y-68610857D01*
X87386142Y-68725142D02*
X87329000Y-68668000D01*
X87214714Y-68610857D01*
X87043285Y-68610857D01*
X86929000Y-68668000D01*
X86871857Y-68782285D01*
X86871857Y-69410857D01*
X86871857Y-68782285D02*
X86814714Y-68668000D01*
X86700428Y-68610857D01*
X86529000Y-68610857D01*
X86414714Y-68668000D01*
X86357571Y-68782285D01*
X86357571Y-69410857D01*
X85271857Y-69410857D02*
X85271857Y-68782285D01*
X85329000Y-68668000D01*
X85443285Y-68610857D01*
X85671857Y-68610857D01*
X85786142Y-68668000D01*
X85271857Y-69353714D02*
X85386142Y-69410857D01*
X85671857Y-69410857D01*
X85786142Y-69353714D01*
X85843285Y-69239428D01*
X85843285Y-69125142D01*
X85786142Y-69010857D01*
X85671857Y-68953714D01*
X85386142Y-68953714D01*
X85271857Y-68896571D01*
X84700428Y-69410857D02*
X84700428Y-68610857D01*
X84700428Y-68210857D02*
X84757571Y-68268000D01*
X84700428Y-68325142D01*
X84643285Y-68268000D01*
X84700428Y-68210857D01*
X84700428Y-68325142D01*
X83957571Y-69410857D02*
X84071857Y-69353714D01*
X84129000Y-69239428D01*
X84129000Y-68210857D01*
X83500428Y-69296571D02*
X83443285Y-69353714D01*
X83500428Y-69410857D01*
X83557571Y-69353714D01*
X83500428Y-69296571D01*
X83500428Y-69410857D01*
X82414714Y-69353714D02*
X82529000Y-69410857D01*
X82757571Y-69410857D01*
X82871857Y-69353714D01*
X82929000Y-69296571D01*
X82986142Y-69182285D01*
X82986142Y-68839428D01*
X82929000Y-68725142D01*
X82871857Y-68668000D01*
X82757571Y-68610857D01*
X82529000Y-68610857D01*
X82414714Y-68668000D01*
X81729000Y-69410857D02*
X81843285Y-69353714D01*
X81900428Y-69296571D01*
X81957571Y-69182285D01*
X81957571Y-68839428D01*
X81900428Y-68725142D01*
X81843285Y-68668000D01*
X81729000Y-68610857D01*
X81557571Y-68610857D01*
X81443285Y-68668000D01*
X81386142Y-68725142D01*
X81329000Y-68839428D01*
X81329000Y-69182285D01*
X81386142Y-69296571D01*
X81443285Y-69353714D01*
X81557571Y-69410857D01*
X81729000Y-69410857D01*
X80814714Y-69410857D02*
X80814714Y-68610857D01*
X80814714Y-68725142D02*
X80757571Y-68668000D01*
X80643285Y-68610857D01*
X80471857Y-68610857D01*
X80357571Y-68668000D01*
X80300428Y-68782285D01*
X80300428Y-69410857D01*
X80300428Y-68782285D02*
X80243285Y-68668000D01*
X80129000Y-68610857D01*
X79957571Y-68610857D01*
X79843285Y-68668000D01*
X79786142Y-68782285D01*
X79786142Y-69410857D01*
X98986142Y-71510857D02*
X98986142Y-70310857D01*
X98300428Y-71510857D02*
X98814714Y-70825142D01*
X98300428Y-70310857D02*
X98986142Y-70996571D01*
X97786142Y-71510857D02*
X97786142Y-70310857D01*
X97100428Y-71510857D01*
X97100428Y-70310857D01*
X96014714Y-70710857D02*
X96014714Y-71510857D01*
X96300428Y-70253714D02*
X96586142Y-71110857D01*
X95843285Y-71110857D01*
X95386142Y-71510857D02*
X95386142Y-70310857D01*
X94814714Y-70310857D02*
X94814714Y-71282285D01*
X94757571Y-71396571D01*
X94700428Y-71453714D01*
X94586142Y-71510857D01*
X94357571Y-71510857D01*
X94243285Y-71453714D01*
X94186142Y-71396571D01*
X94129000Y-71282285D01*
X94129000Y-70310857D01*
X93557571Y-71510857D02*
X93557571Y-70310857D01*
X93271857Y-70310857D01*
X93100428Y-70368000D01*
X92986142Y-70482285D01*
X92929000Y-70596571D01*
X92871857Y-70825142D01*
X92871857Y-70996571D01*
X92929000Y-71225142D01*
X92986142Y-71339428D01*
X93100428Y-71453714D01*
X93271857Y-71510857D01*
X93557571Y-71510857D01*
D10*
X105791021Y-64389000D02*
G75*
G03X105791021Y-64389000I-381021J0D01*
G01*
X105791021Y-65913000D02*
G75*
G03X105791021Y-65913000I-381021J0D01*
G01*
X105791021Y-67437000D02*
G75*
G03X105791021Y-67437000I-381021J0D01*
G01*
X105791021Y-68961000D02*
G75*
G03X105791021Y-68961000I-381021J0D01*
G01*
X105791021Y-70612000D02*
G75*
G03X105791021Y-70612000I-381021J0D01*
G01*
X105791021Y-72136000D02*
G75*
G03X105791021Y-72136000I-381021J0D01*
G01*
X105791021Y-73914000D02*
G75*
G03X105791021Y-73914000I-381021J0D01*
G01*
X105791021Y-75438000D02*
G75*
G03X105791021Y-75438000I-381021J0D01*
G01*
X105791021Y-77216000D02*
G75*
G03X105791021Y-77216000I-381021J0D01*
G01*
X105791021Y-78740000D02*
G75*
G03X105791021Y-78740000I-381021J0D01*
G01*
X105791021Y-80264000D02*
G75*
G03X105791021Y-80264000I-381021J0D01*
G01*
X105791021Y-81788000D02*
G75*
G03X105791021Y-81788000I-381021J0D01*
G01*
X105791021Y-83312000D02*
G75*
G03X105791021Y-83312000I-381021J0D01*
G01*
X105791021Y-86360000D02*
G75*
G03X105791021Y-86360000I-381021J0D01*
G01*
X105791021Y-84836000D02*
G75*
G03X105791021Y-84836000I-381021J0D01*
G01*
D11*
X101500285Y-80591428D02*
X101428857Y-80520000D01*
X101286000Y-80448571D01*
X100928857Y-80448571D01*
X100786000Y-80520000D01*
X100714571Y-80591428D01*
X100643142Y-80734285D01*
X100643142Y-80877142D01*
X100714571Y-81091428D01*
X101571714Y-81948571D01*
X100643142Y-81948571D01*
X99714571Y-80448571D02*
X99571714Y-80448571D01*
X99428857Y-80520000D01*
X99357428Y-80591428D01*
X99286000Y-80734285D01*
X99214571Y-81020000D01*
X99214571Y-81377142D01*
X99286000Y-81662857D01*
X99357428Y-81805714D01*
X99428857Y-81877142D01*
X99571714Y-81948571D01*
X99714571Y-81948571D01*
X99857428Y-81877142D01*
X99928857Y-81805714D01*
X100000285Y-81662857D01*
X100071714Y-81377142D01*
X100071714Y-81020000D01*
X100000285Y-80734285D01*
X99928857Y-80591428D01*
X99857428Y-80520000D01*
X99714571Y-80448571D01*
X97786000Y-81948571D02*
X98643142Y-81948571D01*
X98214571Y-81948571D02*
X98214571Y-80448571D01*
X98357428Y-80662857D01*
X98500285Y-80805714D01*
X98643142Y-80877142D01*
X97071714Y-81948571D02*
X96786000Y-81948571D01*
X96643142Y-81877142D01*
X96571714Y-81805714D01*
X96428857Y-81591428D01*
X96357428Y-81305714D01*
X96357428Y-80734285D01*
X96428857Y-80591428D01*
X96500285Y-80520000D01*
X96643142Y-80448571D01*
X96928857Y-80448571D01*
X97071714Y-80520000D01*
X97143142Y-80591428D01*
X97214571Y-80734285D01*
X97214571Y-81091428D01*
X97143142Y-81234285D01*
X97071714Y-81305714D01*
X96928857Y-81377142D01*
X96643142Y-81377142D01*
X96500285Y-81305714D01*
X96428857Y-81234285D01*
X96357428Y-81091428D01*
X95714571Y-81377142D02*
X94571714Y-81377142D01*
X93571714Y-80448571D02*
X93428857Y-80448571D01*
X93286000Y-80520000D01*
X93214571Y-80591428D01*
X93143142Y-80734285D01*
X93071714Y-81020000D01*
X93071714Y-81377142D01*
X93143142Y-81662857D01*
X93214571Y-81805714D01*
X93286000Y-81877142D01*
X93428857Y-81948571D01*
X93571714Y-81948571D01*
X93714571Y-81877142D01*
X93786000Y-81805714D01*
X93857428Y-81662857D01*
X93928857Y-81377142D01*
X93928857Y-81020000D01*
X93857428Y-80734285D01*
X93786000Y-80591428D01*
X93714571Y-80520000D01*
X93571714Y-80448571D01*
X91714571Y-80448571D02*
X92428857Y-80448571D01*
X92500285Y-81162857D01*
X92428857Y-81091428D01*
X92286000Y-81020000D01*
X91928857Y-81020000D01*
X91786000Y-81091428D01*
X91714571Y-81162857D01*
X91643142Y-81305714D01*
X91643142Y-81662857D01*
X91714571Y-81805714D01*
X91786000Y-81877142D01*
X91928857Y-81948571D01*
X92286000Y-81948571D01*
X92428857Y-81877142D01*
X92500285Y-81805714D01*
X91000285Y-81377142D02*
X89857428Y-81377142D01*
X89214571Y-80591428D02*
X89143142Y-80520000D01*
X89000285Y-80448571D01*
X88643142Y-80448571D01*
X88500285Y-80520000D01*
X88428857Y-80591428D01*
X88357428Y-80734285D01*
X88357428Y-80877142D01*
X88428857Y-81091428D01*
X89286000Y-81948571D01*
X88357428Y-81948571D01*
X87428857Y-80448571D02*
X87286000Y-80448571D01*
X87143142Y-80520000D01*
X87071714Y-80591428D01*
X87000285Y-80734285D01*
X86928857Y-81020000D01*
X86928857Y-81377142D01*
X87000285Y-81662857D01*
X87071714Y-81805714D01*
X87143142Y-81877142D01*
X87286000Y-81948571D01*
X87428857Y-81948571D01*
X87571714Y-81877142D01*
X87643142Y-81805714D01*
X87714571Y-81662857D01*
X87786000Y-81377142D01*
X87786000Y-81020000D01*
X87714571Y-80734285D01*
X87643142Y-80591428D01*
X87571714Y-80520000D01*
X87428857Y-80448571D01*
X101428857Y-84498571D02*
X101428857Y-82998571D01*
X100857428Y-82998571D01*
X100714571Y-83070000D01*
X100643142Y-83141428D01*
X100571714Y-83284285D01*
X100571714Y-83498571D01*
X100643142Y-83641428D01*
X100714571Y-83712857D01*
X100857428Y-83784285D01*
X101428857Y-83784285D01*
X99928857Y-84498571D02*
X99928857Y-83498571D01*
X99928857Y-82998571D02*
X100000285Y-83070000D01*
X99928857Y-83141428D01*
X99857428Y-83070000D01*
X99928857Y-82998571D01*
X99928857Y-83141428D01*
X98571714Y-84427142D02*
X98714571Y-84498571D01*
X99000285Y-84498571D01*
X99143142Y-84427142D01*
X99214571Y-84355714D01*
X99286000Y-84212857D01*
X99286000Y-83784285D01*
X99214571Y-83641428D01*
X99143142Y-83570000D01*
X99000285Y-83498571D01*
X98714571Y-83498571D01*
X98571714Y-83570000D01*
X97714571Y-84498571D02*
X97857428Y-84427142D01*
X97928857Y-84355714D01*
X98000285Y-84212857D01*
X98000285Y-83784285D01*
X97928857Y-83641428D01*
X97857428Y-83570000D01*
X97714571Y-83498571D01*
X97500285Y-83498571D01*
X97357428Y-83570000D01*
X97286000Y-83641428D01*
X97214571Y-83784285D01*
X97214571Y-84212857D01*
X97286000Y-84355714D01*
X97357428Y-84427142D01*
X97500285Y-84498571D01*
X97714571Y-84498571D01*
X96786000Y-82998571D02*
X95928857Y-82998571D01*
X96357428Y-84498571D02*
X96357428Y-82998571D01*
X95428857Y-84498571D02*
X95428857Y-83498571D01*
X95428857Y-83784285D02*
X95357428Y-83641428D01*
X95286000Y-83570000D01*
X95143142Y-83498571D01*
X95000285Y-83498571D01*
X93857428Y-84498571D02*
X93857428Y-83712857D01*
X93928857Y-83570000D01*
X94071714Y-83498571D01*
X94357428Y-83498571D01*
X94500285Y-83570000D01*
X93857428Y-84427142D02*
X94000285Y-84498571D01*
X94357428Y-84498571D01*
X94500285Y-84427142D01*
X94571714Y-84284285D01*
X94571714Y-84141428D01*
X94500285Y-83998571D01*
X94357428Y-83927142D01*
X94000285Y-83927142D01*
X93857428Y-83855714D01*
X92500285Y-84427142D02*
X92643142Y-84498571D01*
X92928857Y-84498571D01*
X93071714Y-84427142D01*
X93143142Y-84355714D01*
X93214571Y-84212857D01*
X93214571Y-83784285D01*
X93143142Y-83641428D01*
X93071714Y-83570000D01*
X92928857Y-83498571D01*
X92643142Y-83498571D01*
X92500285Y-83570000D01*
X91857428Y-84498571D02*
X91857428Y-82998571D01*
X91714571Y-83927142D02*
X91286000Y-84498571D01*
X91286000Y-83498571D02*
X91857428Y-84070000D01*
X90071714Y-84427142D02*
X90214571Y-84498571D01*
X90500285Y-84498571D01*
X90643142Y-84427142D01*
X90714571Y-84284285D01*
X90714571Y-83712857D01*
X90643142Y-83570000D01*
X90500285Y-83498571D01*
X90214571Y-83498571D01*
X90071714Y-83570000D01*
X90000285Y-83712857D01*
X90000285Y-83855714D01*
X90714571Y-83998571D01*
X89357428Y-84498571D02*
X89357428Y-83498571D01*
X89357428Y-83784285D02*
X89286000Y-83641428D01*
X89214571Y-83570000D01*
X89071714Y-83498571D01*
X88928857Y-83498571D01*
X88571714Y-82998571D02*
X88214571Y-84498571D01*
X87928857Y-83427142D01*
X87643142Y-84498571D01*
X87286000Y-82998571D01*
X86786000Y-84427142D02*
X86571714Y-84498571D01*
X86214571Y-84498571D01*
X86071714Y-84427142D01*
X86000285Y-84355714D01*
X85928857Y-84212857D01*
X85928857Y-84070000D01*
X86000285Y-83927142D01*
X86071714Y-83855714D01*
X86214571Y-83784285D01*
X86500285Y-83712857D01*
X86643142Y-83641428D01*
X86714571Y-83570000D01*
X86786000Y-83427142D01*
X86786000Y-83284285D01*
X86714571Y-83141428D01*
X86643142Y-83070000D01*
X86500285Y-82998571D01*
X86143142Y-82998571D01*
X85928857Y-83070000D01*
X85286000Y-84498571D02*
X85286000Y-82998571D01*
X84714571Y-82998571D01*
X84571714Y-83070000D01*
X84500285Y-83141428D01*
X84428857Y-83284285D01*
X84428857Y-83498571D01*
X84500285Y-83641428D01*
X84571714Y-83712857D01*
X84714571Y-83784285D01*
X85286000Y-83784285D01*
X82928857Y-84498571D02*
X83428857Y-83784285D01*
X83786000Y-84498571D02*
X83786000Y-82998571D01*
X83214571Y-82998571D01*
X83071714Y-83070000D01*
X83000285Y-83141428D01*
X82928857Y-83284285D01*
X82928857Y-83498571D01*
X83000285Y-83641428D01*
X83071714Y-83712857D01*
X83214571Y-83784285D01*
X83786000Y-83784285D01*
X81500285Y-84498571D02*
X82357428Y-84498571D01*
X81928857Y-84498571D02*
X81928857Y-82998571D01*
X82071714Y-83212857D01*
X82214571Y-83355714D01*
X82357428Y-83427142D01*
X100571714Y-87048571D02*
X101071714Y-86334285D01*
X101428857Y-87048571D02*
X101428857Y-85548571D01*
X100857428Y-85548571D01*
X100714571Y-85620000D01*
X100643142Y-85691428D01*
X100571714Y-85834285D01*
X100571714Y-86048571D01*
X100643142Y-86191428D01*
X100714571Y-86262857D01*
X100857428Y-86334285D01*
X101428857Y-86334285D01*
X99357428Y-86977142D02*
X99500285Y-87048571D01*
X99786000Y-87048571D01*
X99928857Y-86977142D01*
X100000285Y-86834285D01*
X100000285Y-86262857D01*
X99928857Y-86120000D01*
X99786000Y-86048571D01*
X99500285Y-86048571D01*
X99357428Y-86120000D01*
X99286000Y-86262857D01*
X99286000Y-86405714D01*
X100000285Y-86548571D01*
X98786000Y-86048571D02*
X98428857Y-87048571D01*
X98071714Y-86048571D01*
X95643142Y-85548571D02*
X96357428Y-85548571D01*
X96428857Y-86262857D01*
X96357428Y-86191428D01*
X96214571Y-86120000D01*
X95857428Y-86120000D01*
X95714571Y-86191428D01*
X95643142Y-86262857D01*
X95571714Y-86405714D01*
X95571714Y-86762857D01*
X95643142Y-86905714D01*
X95714571Y-86977142D01*
X95857428Y-87048571D01*
X96214571Y-87048571D01*
X96357428Y-86977142D01*
X96428857Y-86905714D01*
X102063857Y-74338571D02*
X102063857Y-72838571D01*
X101492428Y-72838571D01*
X101349571Y-72910000D01*
X101278142Y-72981428D01*
X101206714Y-73124285D01*
X101206714Y-73338571D01*
X101278142Y-73481428D01*
X101349571Y-73552857D01*
X101492428Y-73624285D01*
X102063857Y-73624285D01*
X100349571Y-74338571D02*
X100492428Y-74267142D01*
X100563857Y-74124285D01*
X100563857Y-72838571D01*
X99206714Y-74267142D02*
X99349571Y-74338571D01*
X99635285Y-74338571D01*
X99778142Y-74267142D01*
X99849571Y-74124285D01*
X99849571Y-73552857D01*
X99778142Y-73410000D01*
X99635285Y-73338571D01*
X99349571Y-73338571D01*
X99206714Y-73410000D01*
X99135285Y-73552857D01*
X99135285Y-73695714D01*
X99849571Y-73838571D01*
X97849571Y-74338571D02*
X97849571Y-73552857D01*
X97921000Y-73410000D01*
X98063857Y-73338571D01*
X98349571Y-73338571D01*
X98492428Y-73410000D01*
X97849571Y-74267142D02*
X97992428Y-74338571D01*
X98349571Y-74338571D01*
X98492428Y-74267142D01*
X98563857Y-74124285D01*
X98563857Y-73981428D01*
X98492428Y-73838571D01*
X98349571Y-73767142D01*
X97992428Y-73767142D01*
X97849571Y-73695714D01*
X97206714Y-74267142D02*
X97063857Y-74338571D01*
X96778142Y-74338571D01*
X96635285Y-74267142D01*
X96563857Y-74124285D01*
X96563857Y-74052857D01*
X96635285Y-73910000D01*
X96778142Y-73838571D01*
X96992428Y-73838571D01*
X97135285Y-73767142D01*
X97206714Y-73624285D01*
X97206714Y-73552857D01*
X97135285Y-73410000D01*
X96992428Y-73338571D01*
X96778142Y-73338571D01*
X96635285Y-73410000D01*
X95349571Y-74267142D02*
X95492428Y-74338571D01*
X95778142Y-74338571D01*
X95921000Y-74267142D01*
X95992428Y-74124285D01*
X95992428Y-73552857D01*
X95921000Y-73410000D01*
X95778142Y-73338571D01*
X95492428Y-73338571D01*
X95349571Y-73410000D01*
X95278142Y-73552857D01*
X95278142Y-73695714D01*
X95992428Y-73838571D01*
X92849571Y-74267142D02*
X92992428Y-74338571D01*
X93278142Y-74338571D01*
X93421000Y-74267142D01*
X93492428Y-74195714D01*
X93563857Y-74052857D01*
X93563857Y-73624285D01*
X93492428Y-73481428D01*
X93421000Y-73410000D01*
X93278142Y-73338571D01*
X92992428Y-73338571D01*
X92849571Y-73410000D01*
X91992428Y-74338571D02*
X92135285Y-74267142D01*
X92206714Y-74195714D01*
X92278142Y-74052857D01*
X92278142Y-73624285D01*
X92206714Y-73481428D01*
X92135285Y-73410000D01*
X91992428Y-73338571D01*
X91778142Y-73338571D01*
X91635285Y-73410000D01*
X91563857Y-73481428D01*
X91492428Y-73624285D01*
X91492428Y-74052857D01*
X91563857Y-74195714D01*
X91635285Y-74267142D01*
X91778142Y-74338571D01*
X91992428Y-74338571D01*
X90849571Y-73338571D02*
X90849571Y-74338571D01*
X90849571Y-73481428D02*
X90778142Y-73410000D01*
X90635285Y-73338571D01*
X90421000Y-73338571D01*
X90278142Y-73410000D01*
X90206714Y-73552857D01*
X90206714Y-74338571D01*
X89706714Y-73338571D02*
X89135285Y-73338571D01*
X89492428Y-72838571D02*
X89492428Y-74124285D01*
X89421000Y-74267142D01*
X89278142Y-74338571D01*
X89135285Y-74338571D01*
X87992428Y-74338571D02*
X87992428Y-73552857D01*
X88063857Y-73410000D01*
X88206714Y-73338571D01*
X88492428Y-73338571D01*
X88635285Y-73410000D01*
X87992428Y-74267142D02*
X88135285Y-74338571D01*
X88492428Y-74338571D01*
X88635285Y-74267142D01*
X88706714Y-74124285D01*
X88706714Y-73981428D01*
X88635285Y-73838571D01*
X88492428Y-73767142D01*
X88135285Y-73767142D01*
X87992428Y-73695714D01*
X86635285Y-74267142D02*
X86778142Y-74338571D01*
X87063857Y-74338571D01*
X87206714Y-74267142D01*
X87278142Y-74195714D01*
X87349571Y-74052857D01*
X87349571Y-73624285D01*
X87278142Y-73481428D01*
X87206714Y-73410000D01*
X87063857Y-73338571D01*
X86778142Y-73338571D01*
X86635285Y-73410000D01*
X86206714Y-73338571D02*
X85635285Y-73338571D01*
X85992428Y-72838571D02*
X85992428Y-74124285D01*
X85921000Y-74267142D01*
X85778142Y-74338571D01*
X85635285Y-74338571D01*
X83992428Y-74338571D02*
X83992428Y-73338571D01*
X83992428Y-72838571D02*
X84063857Y-72910000D01*
X83992428Y-72981428D01*
X83921000Y-72910000D01*
X83992428Y-72838571D01*
X83992428Y-72981428D01*
X83492428Y-73338571D02*
X82921000Y-73338571D01*
X83278142Y-74338571D02*
X83278142Y-73052857D01*
X83206714Y-72910000D01*
X83063857Y-72838571D01*
X82921000Y-72838571D01*
X81492428Y-73338571D02*
X80921000Y-73338571D01*
X81278142Y-74338571D02*
X81278142Y-73052857D01*
X81206714Y-72910000D01*
X81063857Y-72838571D01*
X80921000Y-72838571D01*
X80206714Y-74338571D02*
X80349571Y-74267142D01*
X80421000Y-74195714D01*
X80492428Y-74052857D01*
X80492428Y-73624285D01*
X80421000Y-73481428D01*
X80349571Y-73410000D01*
X80206714Y-73338571D01*
X79992428Y-73338571D01*
X79849571Y-73410000D01*
X79778142Y-73481428D01*
X79706714Y-73624285D01*
X79706714Y-74052857D01*
X79778142Y-74195714D01*
X79849571Y-74267142D01*
X79992428Y-74338571D01*
X80206714Y-74338571D01*
X78421000Y-73338571D02*
X78421000Y-74338571D01*
X79063857Y-73338571D02*
X79063857Y-74124285D01*
X78992428Y-74267142D01*
X78849571Y-74338571D01*
X78635285Y-74338571D01*
X78492428Y-74267142D01*
X78421000Y-74195714D01*
X77706714Y-73338571D02*
X77706714Y-74338571D01*
X77706714Y-73481428D02*
X77635285Y-73410000D01*
X77492428Y-73338571D01*
X77278142Y-73338571D01*
X77135285Y-73410000D01*
X77063857Y-73552857D01*
X77063857Y-74338571D01*
X75706714Y-74338571D02*
X75706714Y-72838571D01*
X75706714Y-74267142D02*
X75849571Y-74338571D01*
X76135285Y-74338571D01*
X76278142Y-74267142D01*
X76349571Y-74195714D01*
X76421000Y-74052857D01*
X76421000Y-73624285D01*
X76349571Y-73481428D01*
X76278142Y-73410000D01*
X76135285Y-73338571D01*
X75849571Y-73338571D01*
X75706714Y-73410000D01*
X74992428Y-74195714D02*
X74921000Y-74267142D01*
X74992428Y-74338571D01*
X75063857Y-74267142D01*
X74992428Y-74195714D01*
X74992428Y-74338571D01*
X74992428Y-73767142D02*
X75063857Y-72910000D01*
X74992428Y-72838571D01*
X74921000Y-72910000D01*
X74992428Y-73767142D01*
X74992428Y-72838571D01*
D10*
X105791021Y-88011000D02*
G75*
G03X105791021Y-88011000I-381021J0D01*
G01*
X56388000Y-76835000D02*
G75*
G03X56388000Y-76835000I-889000J0D01*
G01*
D12*
X74604190Y-71048571D02*
X74461333Y-71096190D01*
X74413714Y-71143809D01*
X74366095Y-71239047D01*
X74366095Y-71381904D01*
X74413714Y-71477142D01*
X74461333Y-71524761D01*
X74556571Y-71572380D01*
X74937523Y-71572380D01*
X74937523Y-70572380D01*
X74604190Y-70572380D01*
X74508952Y-70620000D01*
X74461333Y-70667619D01*
X74413714Y-70762857D01*
X74413714Y-70858095D01*
X74461333Y-70953333D01*
X74508952Y-71000952D01*
X74604190Y-71048571D01*
X74937523Y-71048571D01*
X73985142Y-71286666D02*
X73508952Y-71286666D01*
X74080380Y-71572380D02*
X73747047Y-70572380D01*
X73413714Y-71572380D01*
X73223238Y-70572380D02*
X72651809Y-70572380D01*
X72937523Y-71572380D02*
X72937523Y-70572380D01*
X72461333Y-70572380D02*
X71889904Y-70572380D01*
X72175619Y-71572380D02*
X72175619Y-70572380D01*
X71794666Y-71667619D02*
X71032761Y-71667619D01*
X70794666Y-71572380D02*
X70794666Y-70572380D01*
X70223238Y-71572380D01*
X70223238Y-70572380D01*
X69747047Y-71048571D02*
X69413714Y-71048571D01*
X69270857Y-71572380D02*
X69747047Y-71572380D01*
X69747047Y-70572380D01*
X69270857Y-70572380D01*
X68318476Y-70620000D02*
X68413714Y-70572380D01*
X68556571Y-70572380D01*
X68699428Y-70620000D01*
X68794666Y-70715238D01*
X68842285Y-70810476D01*
X68889904Y-71000952D01*
X68889904Y-71143809D01*
X68842285Y-71334285D01*
X68794666Y-71429523D01*
X68699428Y-71524761D01*
X68556571Y-71572380D01*
X68461333Y-71572380D01*
X68318476Y-71524761D01*
X68270857Y-71477142D01*
X68270857Y-71143809D01*
X68461333Y-71143809D01*
X74628000Y-67238571D02*
X74485142Y-67286190D01*
X74437523Y-67333809D01*
X74389904Y-67429047D01*
X74389904Y-67571904D01*
X74437523Y-67667142D01*
X74485142Y-67714761D01*
X74580380Y-67762380D01*
X74961333Y-67762380D01*
X74961333Y-66762380D01*
X74628000Y-66762380D01*
X74532761Y-66810000D01*
X74485142Y-66857619D01*
X74437523Y-66952857D01*
X74437523Y-67048095D01*
X74485142Y-67143333D01*
X74532761Y-67190952D01*
X74628000Y-67238571D01*
X74961333Y-67238571D01*
X74008952Y-67476666D02*
X73532761Y-67476666D01*
X74104190Y-67762380D02*
X73770857Y-66762380D01*
X73437523Y-67762380D01*
X73247047Y-66762380D02*
X72675619Y-66762380D01*
X72961333Y-67762380D02*
X72961333Y-66762380D01*
X72485142Y-66762380D02*
X71913714Y-66762380D01*
X72199428Y-67762380D02*
X72199428Y-66762380D01*
X71818476Y-67857619D02*
X71056571Y-67857619D01*
X70818476Y-67762380D02*
X70818476Y-66762380D01*
X70437523Y-66762380D01*
X70342285Y-66810000D01*
X70294666Y-66857619D01*
X70247047Y-66952857D01*
X70247047Y-67095714D01*
X70294666Y-67190952D01*
X70342285Y-67238571D01*
X70437523Y-67286190D01*
X70818476Y-67286190D01*
X69628000Y-66762380D02*
X69437523Y-66762380D01*
X69342285Y-66810000D01*
X69247047Y-66905238D01*
X69199428Y-67095714D01*
X69199428Y-67429047D01*
X69247047Y-67619523D01*
X69342285Y-67714761D01*
X69437523Y-67762380D01*
X69628000Y-67762380D01*
X69723238Y-67714761D01*
X69818476Y-67619523D01*
X69866095Y-67429047D01*
X69866095Y-67095714D01*
X69818476Y-66905238D01*
X69723238Y-66810000D01*
X69628000Y-66762380D01*
X68818476Y-67714761D02*
X68675619Y-67762380D01*
X68437523Y-67762380D01*
X68342285Y-67714761D01*
X68294666Y-67667142D01*
X68247047Y-67571904D01*
X68247047Y-67476666D01*
X68294666Y-67381428D01*
X68342285Y-67333809D01*
X68437523Y-67286190D01*
X68628000Y-67238571D01*
X68723238Y-67190952D01*
X68770857Y-67143333D01*
X68818476Y-67048095D01*
X68818476Y-66952857D01*
X68770857Y-66857619D01*
X68723238Y-66810000D01*
X68628000Y-66762380D01*
X68389904Y-66762380D01*
X68247047Y-66810000D01*
M02*
