G04 #@! TF.GenerationSoftware,KiCad,Pcbnew,(5.1.0)-1*
G04 #@! TF.CreationDate,2019-05-20T22:37:17-04:00*
G04 #@! TF.ProjectId,PicoTrackerWSPR1Rev5,5069636f-5472-4616-936b-657257535052,rev?*
G04 #@! TF.SameCoordinates,Original*
G04 #@! TF.FileFunction,Soldermask,Bot*
G04 #@! TF.FilePolarity,Negative*
%FSLAX46Y46*%
G04 Gerber Fmt 4.6, Leading zero omitted, Abs format (unit mm)*
G04 Created by KiCad (PCBNEW (5.1.0)-1) date 2019-05-20 22:37:17*
%MOMM*%
%LPD*%
G04 APERTURE LIST*
%ADD10C,0.100000*%
%ADD11C,0.150000*%
G04 APERTURE END LIST*
D10*
X53975000Y-62230000D02*
X53975000Y-63500000D01*
X123190000Y-62230000D02*
X123190000Y-63500000D01*
X53975000Y-90170000D02*
X53975000Y-63500000D01*
X123190000Y-90170000D02*
X53975000Y-90170000D01*
X123190000Y-63500000D02*
X123190000Y-90170000D01*
X53975000Y-62230000D02*
X123190000Y-62230000D01*
X105791021Y-89408000D02*
G75*
G03X105791021Y-89408000I-381021J0D01*
G01*
X105791021Y-64389000D02*
G75*
G03X105791021Y-64389000I-381021J0D01*
G01*
X105791021Y-65913000D02*
G75*
G03X105791021Y-65913000I-381021J0D01*
G01*
X105791021Y-67437000D02*
G75*
G03X105791021Y-67437000I-381021J0D01*
G01*
X105791021Y-68961000D02*
G75*
G03X105791021Y-68961000I-381021J0D01*
G01*
X105791021Y-70612000D02*
G75*
G03X105791021Y-70612000I-381021J0D01*
G01*
X105791021Y-72136000D02*
G75*
G03X105791021Y-72136000I-381021J0D01*
G01*
X105791021Y-73914000D02*
G75*
G03X105791021Y-73914000I-381021J0D01*
G01*
X105791021Y-75438000D02*
G75*
G03X105791021Y-75438000I-381021J0D01*
G01*
X105791021Y-77216000D02*
G75*
G03X105791021Y-77216000I-381021J0D01*
G01*
X105791021Y-78740000D02*
G75*
G03X105791021Y-78740000I-381021J0D01*
G01*
X105791021Y-80264000D02*
G75*
G03X105791021Y-80264000I-381021J0D01*
G01*
X105791021Y-81788000D02*
G75*
G03X105791021Y-81788000I-381021J0D01*
G01*
X105791021Y-83312000D02*
G75*
G03X105791021Y-83312000I-381021J0D01*
G01*
X105791021Y-86360000D02*
G75*
G03X105791021Y-86360000I-381021J0D01*
G01*
X105791021Y-84836000D02*
G75*
G03X105791021Y-84836000I-381021J0D01*
G01*
X105791021Y-88011000D02*
G75*
G03X105791021Y-88011000I-381021J0D01*
G01*
X56388000Y-76835000D02*
G75*
G03X56388000Y-76835000I-889000J0D01*
G01*
D11*
G36*
X112610000Y-86896000D02*
G01*
X110910000Y-86896000D01*
X110910000Y-85196000D01*
X112610000Y-85196000D01*
X112610000Y-86896000D01*
X112610000Y-86896000D01*
G37*
G36*
X117690000Y-86896000D02*
G01*
X115990000Y-86896000D01*
X115990000Y-85196000D01*
X117690000Y-85196000D01*
X117690000Y-86896000D01*
X117690000Y-86896000D01*
G37*
G36*
X115150000Y-86896000D02*
G01*
X113450000Y-86896000D01*
X113450000Y-85196000D01*
X115150000Y-85196000D01*
X115150000Y-86896000D01*
X115150000Y-86896000D01*
G37*
G36*
X117690000Y-84356000D02*
G01*
X115990000Y-84356000D01*
X115990000Y-82656000D01*
X117690000Y-82656000D01*
X117690000Y-84356000D01*
X117690000Y-84356000D01*
G37*
G36*
X115150000Y-84356000D02*
G01*
X113450000Y-84356000D01*
X113450000Y-82656000D01*
X115150000Y-82656000D01*
X115150000Y-84356000D01*
X115150000Y-84356000D01*
G37*
G36*
X112610000Y-84356000D02*
G01*
X110910000Y-84356000D01*
X110910000Y-82656000D01*
X112610000Y-82656000D01*
X112610000Y-84356000D01*
X112610000Y-84356000D01*
G37*
G36*
X112610000Y-75780000D02*
G01*
X110910000Y-75780000D01*
X110910000Y-74080000D01*
X112610000Y-74080000D01*
X112610000Y-75780000D01*
X112610000Y-75780000D01*
G37*
G36*
X115150000Y-75780000D02*
G01*
X113450000Y-75780000D01*
X113450000Y-74080000D01*
X115150000Y-74080000D01*
X115150000Y-75780000D01*
X115150000Y-75780000D01*
G37*
G36*
X120230000Y-75780000D02*
G01*
X118530000Y-75780000D01*
X118530000Y-74080000D01*
X120230000Y-74080000D01*
X120230000Y-75780000D01*
X120230000Y-75780000D01*
G37*
G36*
X117690000Y-75780000D02*
G01*
X115990000Y-75780000D01*
X115990000Y-74080000D01*
X117690000Y-74080000D01*
X117690000Y-75780000D01*
X117690000Y-75780000D01*
G37*
G36*
X120230000Y-73240000D02*
G01*
X118530000Y-73240000D01*
X118530000Y-71540000D01*
X120230000Y-71540000D01*
X120230000Y-73240000D01*
X120230000Y-73240000D01*
G37*
G36*
X115150000Y-73240000D02*
G01*
X113450000Y-73240000D01*
X113450000Y-71540000D01*
X115150000Y-71540000D01*
X115150000Y-73240000D01*
X115150000Y-73240000D01*
G37*
G36*
X112610000Y-73240000D02*
G01*
X110910000Y-73240000D01*
X110910000Y-71540000D01*
X112610000Y-71540000D01*
X112610000Y-73240000D01*
X112610000Y-73240000D01*
G37*
G36*
X117690000Y-73240000D02*
G01*
X115990000Y-73240000D01*
X115990000Y-71540000D01*
X117690000Y-71540000D01*
X117690000Y-73240000D01*
X117690000Y-73240000D01*
G37*
G36*
X79478000Y-72620000D02*
G01*
X76478000Y-72620000D01*
X76478000Y-69620000D01*
X79478000Y-69620000D01*
X79478000Y-72620000D01*
X79478000Y-72620000D01*
G37*
G36*
X120230000Y-70700000D02*
G01*
X118530000Y-70700000D01*
X118530000Y-69000000D01*
X120230000Y-69000000D01*
X120230000Y-70700000D01*
X120230000Y-70700000D01*
G37*
G36*
X112610000Y-70700000D02*
G01*
X110910000Y-70700000D01*
X110910000Y-69000000D01*
X112610000Y-69000000D01*
X112610000Y-70700000D01*
X112610000Y-70700000D01*
G37*
G36*
X117690000Y-70700000D02*
G01*
X115990000Y-70700000D01*
X115990000Y-69000000D01*
X117690000Y-69000000D01*
X117690000Y-70700000D01*
X117690000Y-70700000D01*
G37*
G36*
X79478000Y-68810000D02*
G01*
X76478000Y-68810000D01*
X76478000Y-65810000D01*
X79478000Y-65810000D01*
X79478000Y-68810000D01*
X79478000Y-68810000D01*
G37*
G36*
X120230000Y-68160000D02*
G01*
X118530000Y-68160000D01*
X118530000Y-66460000D01*
X120230000Y-66460000D01*
X120230000Y-68160000D01*
X120230000Y-68160000D01*
G37*
G36*
X117690000Y-68160000D02*
G01*
X115990000Y-68160000D01*
X115990000Y-66460000D01*
X117690000Y-66460000D01*
X117690000Y-68160000D01*
X117690000Y-68160000D01*
G37*
M02*
