G04 #@! TF.GenerationSoftware,KiCad,Pcbnew,(5.1.0)-1*
G04 #@! TF.CreationDate,2019-05-20T22:37:17-04:00*
G04 #@! TF.ProjectId,PicoTrackerWSPR1Rev5,5069636f-5472-4616-936b-657257535052,rev?*
G04 #@! TF.SameCoordinates,Original*
G04 #@! TF.FileFunction,Soldermask,Top*
G04 #@! TF.FilePolarity,Negative*
%FSLAX46Y46*%
G04 Gerber Fmt 4.6, Leading zero omitted, Abs format (unit mm)*
G04 Created by KiCad (PCBNEW (5.1.0)-1) date 2019-05-20 22:37:17*
%MOMM*%
%LPD*%
G04 APERTURE LIST*
%ADD10C,0.100000*%
%ADD11C,0.066040*%
%ADD12C,0.150000*%
G04 APERTURE END LIST*
D10*
X53975000Y-62230000D02*
X53975000Y-63500000D01*
X123190000Y-62230000D02*
X123190000Y-63500000D01*
X53975000Y-90170000D02*
X53975000Y-63500000D01*
X123190000Y-90170000D02*
X53975000Y-90170000D01*
X123190000Y-63500000D02*
X123190000Y-90170000D01*
X53975000Y-62230000D02*
X123190000Y-62230000D01*
X105791021Y-89408000D02*
G75*
G03X105791021Y-89408000I-381021J0D01*
G01*
X105791021Y-64389000D02*
G75*
G03X105791021Y-64389000I-381021J0D01*
G01*
X105791021Y-65913000D02*
G75*
G03X105791021Y-65913000I-381021J0D01*
G01*
X105791021Y-67437000D02*
G75*
G03X105791021Y-67437000I-381021J0D01*
G01*
X105791021Y-68961000D02*
G75*
G03X105791021Y-68961000I-381021J0D01*
G01*
X105791021Y-70612000D02*
G75*
G03X105791021Y-70612000I-381021J0D01*
G01*
X105791021Y-72136000D02*
G75*
G03X105791021Y-72136000I-381021J0D01*
G01*
X105791021Y-73914000D02*
G75*
G03X105791021Y-73914000I-381021J0D01*
G01*
X105791021Y-75438000D02*
G75*
G03X105791021Y-75438000I-381021J0D01*
G01*
X105791021Y-77216000D02*
G75*
G03X105791021Y-77216000I-381021J0D01*
G01*
X105791021Y-78740000D02*
G75*
G03X105791021Y-78740000I-381021J0D01*
G01*
X105791021Y-80264000D02*
G75*
G03X105791021Y-80264000I-381021J0D01*
G01*
X105791021Y-81788000D02*
G75*
G03X105791021Y-81788000I-381021J0D01*
G01*
X105791021Y-83312000D02*
G75*
G03X105791021Y-83312000I-381021J0D01*
G01*
X105791021Y-86360000D02*
G75*
G03X105791021Y-86360000I-381021J0D01*
G01*
X105791021Y-84836000D02*
G75*
G03X105791021Y-84836000I-381021J0D01*
G01*
X105791021Y-88011000D02*
G75*
G03X105791021Y-88011000I-381021J0D01*
G01*
X56388000Y-76835000D02*
G75*
G03X56388000Y-76835000I-889000J0D01*
G01*
X81815940Y-71140320D02*
G75*
G03X81815940Y-71140320I-172720J0D01*
G01*
X81315560Y-71140320D02*
G75*
G03X81315560Y-71140320I-172720J0D01*
G01*
X80817720Y-71140320D02*
G75*
G03X80817720Y-71140320I-172720J0D01*
G01*
X80319880Y-71140320D02*
G75*
G03X80319880Y-71140320I-172720J0D01*
G01*
X79819500Y-71140320D02*
G75*
G03X79819500Y-71140320I-172720J0D01*
G01*
X79819500Y-68813680D02*
G75*
G03X79819500Y-68813680I-172720J0D01*
G01*
X80319880Y-68813680D02*
G75*
G03X80319880Y-68813680I-172720J0D01*
G01*
X80817720Y-68813680D02*
G75*
G03X80817720Y-68813680I-172720J0D01*
G01*
X81315560Y-68813680D02*
G75*
G03X81315560Y-68813680I-172720J0D01*
G01*
X81815940Y-68813680D02*
G75*
G03X81815940Y-68813680I-172720J0D01*
G01*
D11*
X79321660Y-70101460D02*
X79321660Y-70401180D01*
X79321660Y-70401180D02*
X78722220Y-70401180D01*
X78722220Y-70101460D02*
X78722220Y-70401180D01*
X79321660Y-70101460D02*
X78722220Y-70101460D01*
X79321660Y-69552820D02*
X79321660Y-69852540D01*
X79321660Y-69852540D02*
X78722220Y-69852540D01*
X78722220Y-69552820D02*
X78722220Y-69852540D01*
X79321660Y-69552820D02*
X78722220Y-69552820D01*
X81818480Y-71140320D02*
X81818480Y-71899780D01*
X81818480Y-71899780D02*
X81467960Y-71899780D01*
X81467960Y-71140320D02*
X81467960Y-71899780D01*
X81818480Y-71140320D02*
X81467960Y-71140320D01*
X81318100Y-71140320D02*
X81318100Y-71899780D01*
X81318100Y-71899780D02*
X80967580Y-71899780D01*
X80967580Y-71140320D02*
X80967580Y-71899780D01*
X81318100Y-71140320D02*
X80967580Y-71140320D01*
X80817720Y-71140320D02*
X80817720Y-71899780D01*
X80817720Y-71899780D02*
X80472280Y-71899780D01*
X80472280Y-71140320D02*
X80472280Y-71899780D01*
X80817720Y-71140320D02*
X80472280Y-71140320D01*
X80322420Y-71140320D02*
X80322420Y-71899780D01*
X80322420Y-71899780D02*
X79971900Y-71899780D01*
X79971900Y-71140320D02*
X79971900Y-71899780D01*
X80322420Y-71140320D02*
X79971900Y-71140320D01*
X79822040Y-71140320D02*
X79822040Y-71899780D01*
X79822040Y-71899780D02*
X79471520Y-71899780D01*
X79471520Y-71140320D02*
X79471520Y-71899780D01*
X79822040Y-71140320D02*
X79471520Y-71140320D01*
X79822040Y-68054220D02*
X79822040Y-68813680D01*
X79822040Y-68813680D02*
X79471520Y-68813680D01*
X79471520Y-68054220D02*
X79471520Y-68813680D01*
X79822040Y-68054220D02*
X79471520Y-68054220D01*
X80322420Y-68054220D02*
X80322420Y-68813680D01*
X80322420Y-68813680D02*
X79971900Y-68813680D01*
X79971900Y-68054220D02*
X79971900Y-68813680D01*
X80322420Y-68054220D02*
X79971900Y-68054220D01*
X80817720Y-68054220D02*
X80817720Y-68813680D01*
X80817720Y-68813680D02*
X80472280Y-68813680D01*
X80472280Y-68054220D02*
X80472280Y-68813680D01*
X80817720Y-68054220D02*
X80472280Y-68054220D01*
X81318100Y-68054220D02*
X81318100Y-68813680D01*
X81318100Y-68813680D02*
X80967580Y-68813680D01*
X80967580Y-68054220D02*
X80967580Y-68813680D01*
X81318100Y-68054220D02*
X80967580Y-68054220D01*
X81818480Y-68054220D02*
X81818480Y-68813680D01*
X81818480Y-68813680D02*
X81467960Y-68813680D01*
X81467960Y-68054220D02*
X81467960Y-68813680D01*
X81818480Y-68054220D02*
X81467960Y-68054220D01*
X81869280Y-69128640D02*
X81869280Y-70825360D01*
X81869280Y-70825360D02*
X79420720Y-70825360D01*
X79420720Y-69128640D02*
X79420720Y-70825360D01*
X81869280Y-69128640D02*
X79420720Y-69128640D01*
X82567780Y-69552820D02*
X82567780Y-69852540D01*
X82567780Y-69852540D02*
X81968340Y-69852540D01*
X81968340Y-69552820D02*
X81968340Y-69852540D01*
X82567780Y-69552820D02*
X81968340Y-69552820D01*
X82567780Y-70101460D02*
X82567780Y-70401180D01*
X82567780Y-70401180D02*
X81968340Y-70401180D01*
X81968340Y-70101460D02*
X81968340Y-70401180D01*
X82567780Y-70101460D02*
X81968340Y-70101460D01*
D12*
G36*
X72130000Y-87595000D02*
G01*
X71380000Y-87595000D01*
X71380000Y-86395000D01*
X72130000Y-86395000D01*
X72130000Y-87595000D01*
X72130000Y-87595000D01*
G37*
G36*
X117690000Y-86896000D02*
G01*
X115990000Y-86896000D01*
X115990000Y-85196000D01*
X117690000Y-85196000D01*
X117690000Y-86896000D01*
X117690000Y-86896000D01*
G37*
G36*
X115150000Y-86896000D02*
G01*
X113450000Y-86896000D01*
X113450000Y-85196000D01*
X115150000Y-85196000D01*
X115150000Y-86896000D01*
X115150000Y-86896000D01*
G37*
G36*
X112610000Y-86896000D02*
G01*
X110910000Y-86896000D01*
X110910000Y-85196000D01*
X112610000Y-85196000D01*
X112610000Y-86896000D01*
X112610000Y-86896000D01*
G37*
G36*
X88684100Y-86855300D02*
G01*
X87490300Y-86855300D01*
X87490300Y-85458300D01*
X88684100Y-85458300D01*
X88684100Y-86855300D01*
X88684100Y-86855300D01*
G37*
G36*
X90385900Y-86855300D02*
G01*
X89192100Y-86855300D01*
X89192100Y-85458300D01*
X90385900Y-85458300D01*
X90385900Y-86855300D01*
X90385900Y-86855300D01*
G37*
G36*
X85973000Y-86828000D02*
G01*
X85223000Y-86828000D01*
X85223000Y-85628000D01*
X85973000Y-85628000D01*
X85973000Y-86828000D01*
X85973000Y-86828000D01*
G37*
G36*
X79109000Y-86729000D02*
G01*
X77609000Y-86729000D01*
X77609000Y-85229000D01*
X79109000Y-85229000D01*
X79109000Y-86729000D01*
X79109000Y-86729000D01*
G37*
G36*
X76950000Y-86729000D02*
G01*
X75450000Y-86729000D01*
X75450000Y-85229000D01*
X76950000Y-85229000D01*
X76950000Y-86729000D01*
X76950000Y-86729000D01*
G37*
G36*
X81649000Y-86463000D02*
G01*
X80149000Y-86463000D01*
X80149000Y-86063000D01*
X81649000Y-86063000D01*
X81649000Y-86463000D01*
X81649000Y-86463000D01*
G37*
G36*
X84309000Y-86463000D02*
G01*
X82809000Y-86463000D01*
X82809000Y-86063000D01*
X84309000Y-86063000D01*
X84309000Y-86463000D01*
X84309000Y-86463000D01*
G37*
G36*
X70604000Y-85971000D02*
G01*
X69604000Y-85971000D01*
X69604000Y-84971000D01*
X70604000Y-84971000D01*
X70604000Y-85971000D01*
X70604000Y-85971000D01*
G37*
G36*
X81649000Y-85813000D02*
G01*
X80149000Y-85813000D01*
X80149000Y-85413000D01*
X81649000Y-85413000D01*
X81649000Y-85813000D01*
X81649000Y-85813000D01*
G37*
G36*
X84309000Y-85813000D02*
G01*
X82809000Y-85813000D01*
X82809000Y-85413000D01*
X84309000Y-85413000D01*
X84309000Y-85813000D01*
X84309000Y-85813000D01*
G37*
G36*
X99790000Y-85803000D02*
G01*
X99240000Y-85803000D01*
X99240000Y-84203000D01*
X99790000Y-84203000D01*
X99790000Y-85803000D01*
X99790000Y-85803000D01*
G37*
G36*
X97390000Y-85803000D02*
G01*
X96840000Y-85803000D01*
X96840000Y-84203000D01*
X97390000Y-84203000D01*
X97390000Y-85803000D01*
X97390000Y-85803000D01*
G37*
G36*
X98190000Y-85803000D02*
G01*
X97640000Y-85803000D01*
X97640000Y-84203000D01*
X98190000Y-84203000D01*
X98190000Y-85803000D01*
X98190000Y-85803000D01*
G37*
G36*
X96590000Y-85803000D02*
G01*
X96040000Y-85803000D01*
X96040000Y-84203000D01*
X96590000Y-84203000D01*
X96590000Y-85803000D01*
X96590000Y-85803000D01*
G37*
G36*
X94990000Y-85803000D02*
G01*
X94440000Y-85803000D01*
X94440000Y-84203000D01*
X94990000Y-84203000D01*
X94990000Y-85803000D01*
X94990000Y-85803000D01*
G37*
G36*
X94190000Y-85803000D02*
G01*
X93640000Y-85803000D01*
X93640000Y-84203000D01*
X94190000Y-84203000D01*
X94190000Y-85803000D01*
X94190000Y-85803000D01*
G37*
G36*
X98990000Y-85803000D02*
G01*
X98440000Y-85803000D01*
X98440000Y-84203000D01*
X98990000Y-84203000D01*
X98990000Y-85803000D01*
X98990000Y-85803000D01*
G37*
G36*
X95790000Y-85803000D02*
G01*
X95240000Y-85803000D01*
X95240000Y-84203000D01*
X95790000Y-84203000D01*
X95790000Y-85803000D01*
X95790000Y-85803000D01*
G37*
G36*
X72130000Y-85695000D02*
G01*
X71380000Y-85695000D01*
X71380000Y-84495000D01*
X72130000Y-84495000D01*
X72130000Y-85695000D01*
X72130000Y-85695000D01*
G37*
G36*
X81649000Y-85163000D02*
G01*
X80149000Y-85163000D01*
X80149000Y-84763000D01*
X81649000Y-84763000D01*
X81649000Y-85163000D01*
X81649000Y-85163000D01*
G37*
G36*
X84309000Y-85163000D02*
G01*
X82809000Y-85163000D01*
X82809000Y-84763000D01*
X84309000Y-84763000D01*
X84309000Y-85163000D01*
X84309000Y-85163000D01*
G37*
G36*
X85973000Y-84928000D02*
G01*
X85223000Y-84928000D01*
X85223000Y-83728000D01*
X85973000Y-83728000D01*
X85973000Y-84928000D01*
X85973000Y-84928000D01*
G37*
G36*
X70604000Y-84701000D02*
G01*
X69604000Y-84701000D01*
X69604000Y-83701000D01*
X70604000Y-83701000D01*
X70604000Y-84701000D01*
X70604000Y-84701000D01*
G37*
G36*
X90385900Y-84645500D02*
G01*
X89192100Y-84645500D01*
X89192100Y-83248500D01*
X90385900Y-83248500D01*
X90385900Y-84645500D01*
X90385900Y-84645500D01*
G37*
G36*
X88684100Y-84645500D02*
G01*
X87490300Y-84645500D01*
X87490300Y-83248500D01*
X88684100Y-83248500D01*
X88684100Y-84645500D01*
X88684100Y-84645500D01*
G37*
G36*
X79354680Y-84434000D02*
G01*
X79105760Y-84434000D01*
X79105760Y-83134000D01*
X79354680Y-83134000D01*
X79354680Y-84434000D01*
X79354680Y-84434000D01*
G37*
G36*
X78854300Y-84434000D02*
G01*
X77609700Y-84434000D01*
X77609700Y-83134000D01*
X78854300Y-83134000D01*
X78854300Y-84434000D01*
X78854300Y-84434000D01*
G37*
G36*
X77358240Y-84434000D02*
G01*
X77109320Y-84434000D01*
X77109320Y-83134000D01*
X77358240Y-83134000D01*
X77358240Y-84434000D01*
X77358240Y-84434000D01*
G37*
G36*
X117690000Y-84356000D02*
G01*
X115990000Y-84356000D01*
X115990000Y-82656000D01*
X117690000Y-82656000D01*
X117690000Y-84356000D01*
X117690000Y-84356000D01*
G37*
G36*
X115150000Y-84356000D02*
G01*
X113450000Y-84356000D01*
X113450000Y-82656000D01*
X115150000Y-82656000D01*
X115150000Y-84356000D01*
X115150000Y-84356000D01*
G37*
G36*
X112610000Y-84356000D02*
G01*
X110910000Y-84356000D01*
X110910000Y-82656000D01*
X112610000Y-82656000D01*
X112610000Y-84356000D01*
X112610000Y-84356000D01*
G37*
G36*
X93265000Y-83828000D02*
G01*
X91665000Y-83828000D01*
X91665000Y-83278000D01*
X93265000Y-83278000D01*
X93265000Y-83828000D01*
X93265000Y-83828000D01*
G37*
G36*
X101765000Y-83828000D02*
G01*
X100165000Y-83828000D01*
X100165000Y-83278000D01*
X101765000Y-83278000D01*
X101765000Y-83828000D01*
X101765000Y-83828000D01*
G37*
G36*
X66133980Y-83449160D02*
G01*
X65336420Y-83449160D01*
X65336420Y-81650840D01*
X66133980Y-81650840D01*
X66133980Y-83449160D01*
X66133980Y-83449160D01*
G37*
G36*
X60937140Y-83449160D02*
G01*
X60139580Y-83449160D01*
X60139580Y-81650840D01*
X60937140Y-81650840D01*
X60937140Y-83449160D01*
X60937140Y-83449160D01*
G37*
G36*
X59837320Y-83449160D02*
G01*
X59039760Y-83449160D01*
X59039760Y-81650840D01*
X59837320Y-81650840D01*
X59837320Y-83449160D01*
X59837320Y-83449160D01*
G37*
G36*
X58737500Y-83449160D02*
G01*
X57939940Y-83449160D01*
X57939940Y-81650840D01*
X58737500Y-81650840D01*
X58737500Y-83449160D01*
X58737500Y-83449160D01*
G37*
G36*
X63136780Y-83449160D02*
G01*
X62339220Y-83449160D01*
X62339220Y-81650840D01*
X63136780Y-81650840D01*
X63136780Y-83449160D01*
X63136780Y-83449160D01*
G37*
G36*
X67236340Y-83449160D02*
G01*
X66438780Y-83449160D01*
X66438780Y-81650840D01*
X67236340Y-81650840D01*
X67236340Y-83449160D01*
X67236340Y-83449160D01*
G37*
G36*
X68336160Y-83449160D02*
G01*
X67538600Y-83449160D01*
X67538600Y-81650840D01*
X68336160Y-81650840D01*
X68336160Y-83449160D01*
X68336160Y-83449160D01*
G37*
G36*
X62036960Y-83449160D02*
G01*
X61239400Y-83449160D01*
X61239400Y-81650840D01*
X62036960Y-81650840D01*
X62036960Y-83449160D01*
X62036960Y-83449160D01*
G37*
G36*
X72735440Y-83449160D02*
G01*
X71937880Y-83449160D01*
X71937880Y-81650840D01*
X72735440Y-81650840D01*
X72735440Y-83449160D01*
X72735440Y-83449160D01*
G37*
G36*
X71635620Y-83449160D02*
G01*
X70838060Y-83449160D01*
X70838060Y-81650840D01*
X71635620Y-81650840D01*
X71635620Y-83449160D01*
X71635620Y-83449160D01*
G37*
G36*
X69435980Y-83449160D02*
G01*
X68638420Y-83449160D01*
X68638420Y-81650840D01*
X69435980Y-81650840D01*
X69435980Y-83449160D01*
X69435980Y-83449160D01*
G37*
G36*
X70535800Y-83449160D02*
G01*
X69738240Y-83449160D01*
X69738240Y-81650840D01*
X70535800Y-81650840D01*
X70535800Y-83449160D01*
X70535800Y-83449160D01*
G37*
G36*
X76194000Y-83399000D02*
G01*
X75444000Y-83399000D01*
X75444000Y-82199000D01*
X76194000Y-82199000D01*
X76194000Y-83399000D01*
X76194000Y-83399000D01*
G37*
G36*
X101765000Y-83028000D02*
G01*
X100165000Y-83028000D01*
X100165000Y-82478000D01*
X101765000Y-82478000D01*
X101765000Y-83028000D01*
X101765000Y-83028000D01*
G37*
G36*
X93265000Y-83028000D02*
G01*
X91665000Y-83028000D01*
X91665000Y-82478000D01*
X93265000Y-82478000D01*
X93265000Y-83028000D01*
X93265000Y-83028000D01*
G37*
G36*
X81880000Y-82925000D02*
G01*
X80680000Y-82925000D01*
X80680000Y-82175000D01*
X81880000Y-82175000D01*
X81880000Y-82925000D01*
X81880000Y-82925000D01*
G37*
G36*
X83780000Y-82925000D02*
G01*
X82580000Y-82925000D01*
X82580000Y-82175000D01*
X83780000Y-82175000D01*
X83780000Y-82925000D01*
X83780000Y-82925000D01*
G37*
G36*
X101765000Y-82228000D02*
G01*
X100165000Y-82228000D01*
X100165000Y-81678000D01*
X101765000Y-81678000D01*
X101765000Y-82228000D01*
X101765000Y-82228000D01*
G37*
G36*
X93265000Y-82228000D02*
G01*
X91665000Y-82228000D01*
X91665000Y-81678000D01*
X93265000Y-81678000D01*
X93265000Y-82228000D01*
X93265000Y-82228000D01*
G37*
G36*
X90164000Y-82007000D02*
G01*
X89414000Y-82007000D01*
X89414000Y-80807000D01*
X90164000Y-80807000D01*
X90164000Y-82007000D01*
X90164000Y-82007000D01*
G37*
G36*
X76194000Y-81499000D02*
G01*
X75444000Y-81499000D01*
X75444000Y-80299000D01*
X76194000Y-80299000D01*
X76194000Y-81499000D01*
X76194000Y-81499000D01*
G37*
G36*
X81880000Y-81476000D02*
G01*
X80680000Y-81476000D01*
X80680000Y-80576000D01*
X81880000Y-80576000D01*
X81880000Y-81476000D01*
X81880000Y-81476000D01*
G37*
G36*
X84080000Y-81476000D02*
G01*
X82880000Y-81476000D01*
X82880000Y-80576000D01*
X84080000Y-80576000D01*
X84080000Y-81476000D01*
X84080000Y-81476000D01*
G37*
G36*
X93265000Y-81428000D02*
G01*
X91665000Y-81428000D01*
X91665000Y-80878000D01*
X93265000Y-80878000D01*
X93265000Y-81428000D01*
X93265000Y-81428000D01*
G37*
G36*
X101765000Y-81428000D02*
G01*
X100165000Y-81428000D01*
X100165000Y-80878000D01*
X101765000Y-80878000D01*
X101765000Y-81428000D01*
X101765000Y-81428000D01*
G37*
G36*
X86194900Y-80708500D02*
G01*
X85001100Y-80708500D01*
X85001100Y-79311500D01*
X86194900Y-79311500D01*
X86194900Y-80708500D01*
X86194900Y-80708500D01*
G37*
G36*
X87896700Y-80708500D02*
G01*
X86702900Y-80708500D01*
X86702900Y-79311500D01*
X87896700Y-79311500D01*
X87896700Y-80708500D01*
X87896700Y-80708500D01*
G37*
G36*
X93265000Y-80628000D02*
G01*
X91665000Y-80628000D01*
X91665000Y-80078000D01*
X93265000Y-80078000D01*
X93265000Y-80628000D01*
X93265000Y-80628000D01*
G37*
G36*
X101765000Y-80628000D02*
G01*
X100165000Y-80628000D01*
X100165000Y-80078000D01*
X101765000Y-80078000D01*
X101765000Y-80628000D01*
X101765000Y-80628000D01*
G37*
G36*
X90164000Y-80107000D02*
G01*
X89414000Y-80107000D01*
X89414000Y-78907000D01*
X90164000Y-78907000D01*
X90164000Y-80107000D01*
X90164000Y-80107000D01*
G37*
G36*
X103499000Y-79975000D02*
G01*
X102749000Y-79975000D01*
X102749000Y-78775000D01*
X103499000Y-78775000D01*
X103499000Y-79975000D01*
X103499000Y-79975000D01*
G37*
G36*
X78854300Y-79934000D02*
G01*
X77609700Y-79934000D01*
X77609700Y-78634000D01*
X78854300Y-78634000D01*
X78854300Y-79934000D01*
X78854300Y-79934000D01*
G37*
G36*
X79354680Y-79934000D02*
G01*
X79105760Y-79934000D01*
X79105760Y-78634000D01*
X79354680Y-78634000D01*
X79354680Y-79934000D01*
X79354680Y-79934000D01*
G37*
G36*
X77358240Y-79934000D02*
G01*
X77109320Y-79934000D01*
X77109320Y-78634000D01*
X77358240Y-78634000D01*
X77358240Y-79934000D01*
X77358240Y-79934000D01*
G37*
G36*
X93265000Y-79828000D02*
G01*
X91665000Y-79828000D01*
X91665000Y-79278000D01*
X93265000Y-79278000D01*
X93265000Y-79828000D01*
X93265000Y-79828000D01*
G37*
G36*
X101765000Y-79828000D02*
G01*
X100165000Y-79828000D01*
X100165000Y-79278000D01*
X101765000Y-79278000D01*
X101765000Y-79828000D01*
X101765000Y-79828000D01*
G37*
G36*
X81880000Y-79825000D02*
G01*
X80680000Y-79825000D01*
X80680000Y-78925000D01*
X81880000Y-78925000D01*
X81880000Y-79825000D01*
X81880000Y-79825000D01*
G37*
G36*
X84080000Y-79825000D02*
G01*
X82880000Y-79825000D01*
X82880000Y-78925000D01*
X84080000Y-78925000D01*
X84080000Y-79825000D01*
X84080000Y-79825000D01*
G37*
G36*
X101765000Y-79028000D02*
G01*
X100165000Y-79028000D01*
X100165000Y-78478000D01*
X101765000Y-78478000D01*
X101765000Y-79028000D01*
X101765000Y-79028000D01*
G37*
G36*
X93265000Y-79028000D02*
G01*
X91665000Y-79028000D01*
X91665000Y-78478000D01*
X93265000Y-78478000D01*
X93265000Y-79028000D01*
X93265000Y-79028000D01*
G37*
G36*
X86194900Y-78498700D02*
G01*
X85001100Y-78498700D01*
X85001100Y-77101700D01*
X86194900Y-77101700D01*
X86194900Y-78498700D01*
X86194900Y-78498700D01*
G37*
G36*
X87896700Y-78498700D02*
G01*
X86702900Y-78498700D01*
X86702900Y-77101700D01*
X87896700Y-77101700D01*
X87896700Y-78498700D01*
X87896700Y-78498700D01*
G37*
G36*
X90164000Y-78385000D02*
G01*
X89414000Y-78385000D01*
X89414000Y-77185000D01*
X90164000Y-77185000D01*
X90164000Y-78385000D01*
X90164000Y-78385000D01*
G37*
G36*
X93265000Y-78228000D02*
G01*
X91665000Y-78228000D01*
X91665000Y-77678000D01*
X93265000Y-77678000D01*
X93265000Y-78228000D01*
X93265000Y-78228000D01*
G37*
G36*
X101765000Y-78228000D02*
G01*
X100165000Y-78228000D01*
X100165000Y-77678000D01*
X101765000Y-77678000D01*
X101765000Y-78228000D01*
X101765000Y-78228000D01*
G37*
G36*
X84039000Y-78174000D02*
G01*
X82839000Y-78174000D01*
X82839000Y-77274000D01*
X84039000Y-77274000D01*
X84039000Y-78174000D01*
X84039000Y-78174000D01*
G37*
G36*
X81839000Y-78174000D02*
G01*
X80639000Y-78174000D01*
X80639000Y-77274000D01*
X81839000Y-77274000D01*
X81839000Y-78174000D01*
X81839000Y-78174000D01*
G37*
G36*
X103499000Y-78075000D02*
G01*
X102749000Y-78075000D01*
X102749000Y-76875000D01*
X103499000Y-76875000D01*
X103499000Y-78075000D01*
X103499000Y-78075000D01*
G37*
G36*
X94990000Y-77303000D02*
G01*
X94440000Y-77303000D01*
X94440000Y-75703000D01*
X94990000Y-75703000D01*
X94990000Y-77303000D01*
X94990000Y-77303000D01*
G37*
G36*
X95790000Y-77303000D02*
G01*
X95240000Y-77303000D01*
X95240000Y-75703000D01*
X95790000Y-75703000D01*
X95790000Y-77303000D01*
X95790000Y-77303000D01*
G37*
G36*
X98990000Y-77303000D02*
G01*
X98440000Y-77303000D01*
X98440000Y-75703000D01*
X98990000Y-75703000D01*
X98990000Y-77303000D01*
X98990000Y-77303000D01*
G37*
G36*
X99790000Y-77303000D02*
G01*
X99240000Y-77303000D01*
X99240000Y-75703000D01*
X99790000Y-75703000D01*
X99790000Y-77303000D01*
X99790000Y-77303000D01*
G37*
G36*
X97390000Y-77303000D02*
G01*
X96840000Y-77303000D01*
X96840000Y-75703000D01*
X97390000Y-75703000D01*
X97390000Y-77303000D01*
X97390000Y-77303000D01*
G37*
G36*
X96590000Y-77303000D02*
G01*
X96040000Y-77303000D01*
X96040000Y-75703000D01*
X96590000Y-75703000D01*
X96590000Y-77303000D01*
X96590000Y-77303000D01*
G37*
G36*
X98190000Y-77303000D02*
G01*
X97640000Y-77303000D01*
X97640000Y-75703000D01*
X98190000Y-75703000D01*
X98190000Y-77303000D01*
X98190000Y-77303000D01*
G37*
G36*
X94190000Y-77303000D02*
G01*
X93640000Y-77303000D01*
X93640000Y-75703000D01*
X94190000Y-75703000D01*
X94190000Y-77303000D01*
X94190000Y-77303000D01*
G37*
G36*
X90164000Y-76485000D02*
G01*
X89414000Y-76485000D01*
X89414000Y-75285000D01*
X90164000Y-75285000D01*
X90164000Y-76485000D01*
X90164000Y-76485000D01*
G37*
G36*
X80004000Y-76287000D02*
G01*
X79254000Y-76287000D01*
X79254000Y-75087000D01*
X80004000Y-75087000D01*
X80004000Y-76287000D01*
X80004000Y-76287000D01*
G37*
G36*
X117690000Y-75780000D02*
G01*
X115990000Y-75780000D01*
X115990000Y-74080000D01*
X117690000Y-74080000D01*
X117690000Y-75780000D01*
X117690000Y-75780000D01*
G37*
G36*
X120230000Y-75780000D02*
G01*
X118530000Y-75780000D01*
X118530000Y-74080000D01*
X120230000Y-74080000D01*
X120230000Y-75780000D01*
X120230000Y-75780000D01*
G37*
G36*
X115150000Y-75780000D02*
G01*
X113450000Y-75780000D01*
X113450000Y-74080000D01*
X115150000Y-74080000D01*
X115150000Y-75780000D01*
X115150000Y-75780000D01*
G37*
G36*
X112610000Y-75780000D02*
G01*
X110910000Y-75780000D01*
X110910000Y-74080000D01*
X112610000Y-74080000D01*
X112610000Y-75780000D01*
X112610000Y-75780000D01*
G37*
G36*
X78467000Y-75399000D02*
G01*
X76967000Y-75399000D01*
X76967000Y-74999000D01*
X78467000Y-74999000D01*
X78467000Y-75399000D01*
X78467000Y-75399000D01*
G37*
G36*
X75807000Y-75399000D02*
G01*
X74307000Y-75399000D01*
X74307000Y-74999000D01*
X75807000Y-74999000D01*
X75807000Y-75399000D01*
X75807000Y-75399000D01*
G37*
G36*
X78467000Y-74749000D02*
G01*
X76967000Y-74749000D01*
X76967000Y-74349000D01*
X78467000Y-74349000D01*
X78467000Y-74749000D01*
X78467000Y-74749000D01*
G37*
G36*
X75807000Y-74749000D02*
G01*
X74307000Y-74749000D01*
X74307000Y-74349000D01*
X75807000Y-74349000D01*
X75807000Y-74749000D01*
X75807000Y-74749000D01*
G37*
G36*
X80004000Y-74387000D02*
G01*
X79254000Y-74387000D01*
X79254000Y-73187000D01*
X80004000Y-73187000D01*
X80004000Y-74387000D01*
X80004000Y-74387000D01*
G37*
G36*
X78467000Y-74099000D02*
G01*
X76967000Y-74099000D01*
X76967000Y-73699000D01*
X78467000Y-73699000D01*
X78467000Y-74099000D01*
X78467000Y-74099000D01*
G37*
G36*
X75807000Y-74099000D02*
G01*
X74307000Y-74099000D01*
X74307000Y-73699000D01*
X75807000Y-73699000D01*
X75807000Y-74099000D01*
X75807000Y-74099000D01*
G37*
G36*
X115150000Y-73240000D02*
G01*
X113450000Y-73240000D01*
X113450000Y-71540000D01*
X115150000Y-71540000D01*
X115150000Y-73240000D01*
X115150000Y-73240000D01*
G37*
G36*
X112610000Y-73240000D02*
G01*
X110910000Y-73240000D01*
X110910000Y-71540000D01*
X112610000Y-71540000D01*
X112610000Y-73240000D01*
X112610000Y-73240000D01*
G37*
G36*
X120230000Y-73240000D02*
G01*
X118530000Y-73240000D01*
X118530000Y-71540000D01*
X120230000Y-71540000D01*
X120230000Y-73240000D01*
X120230000Y-73240000D01*
G37*
G36*
X117690000Y-73240000D02*
G01*
X115990000Y-73240000D01*
X115990000Y-71540000D01*
X117690000Y-71540000D01*
X117690000Y-73240000D01*
X117690000Y-73240000D01*
G37*
G36*
X98009000Y-72713000D02*
G01*
X96809000Y-72713000D01*
X96809000Y-71813000D01*
X98009000Y-71813000D01*
X98009000Y-72713000D01*
X98009000Y-72713000D01*
G37*
G36*
X100209000Y-72713000D02*
G01*
X99009000Y-72713000D01*
X99009000Y-71813000D01*
X100209000Y-71813000D01*
X100209000Y-72713000D01*
X100209000Y-72713000D01*
G37*
G36*
X80654530Y-70995675D02*
G01*
X80670075Y-71014617D01*
X80699538Y-71036468D01*
X80708333Y-71041169D01*
X80722988Y-71049002D01*
X80722990Y-71049003D01*
X80722989Y-71049003D01*
X80744260Y-71066460D01*
X80761719Y-71087733D01*
X80775318Y-71113175D01*
X80783679Y-71133363D01*
X80797293Y-71153737D01*
X80814619Y-71171065D01*
X80834993Y-71184679D01*
X80857632Y-71194057D01*
X80881665Y-71198838D01*
X80906169Y-71198838D01*
X80930203Y-71194058D01*
X80952842Y-71184682D01*
X80973216Y-71171068D01*
X80990544Y-71153742D01*
X81004158Y-71133368D01*
X81012519Y-71113182D01*
X81017907Y-71103101D01*
X81026122Y-71087732D01*
X81043580Y-71066460D01*
X81064852Y-71049002D01*
X81088304Y-71036467D01*
X81108677Y-71022854D01*
X81126003Y-71005526D01*
X81128440Y-71001879D01*
X81133529Y-71006968D01*
X81153903Y-71020582D01*
X81176545Y-71029959D01*
X81196556Y-71036029D01*
X81196558Y-71036030D01*
X81220828Y-71049002D01*
X81220830Y-71049003D01*
X81220829Y-71049003D01*
X81242100Y-71066460D01*
X81259559Y-71087733D01*
X81272531Y-71112002D01*
X81273413Y-71114910D01*
X81282789Y-71137550D01*
X81296403Y-71157924D01*
X81313729Y-71175252D01*
X81334103Y-71188866D01*
X81356742Y-71198244D01*
X81380775Y-71203025D01*
X81405279Y-71203025D01*
X81429312Y-71198245D01*
X81451952Y-71188869D01*
X81472326Y-71175255D01*
X81489654Y-71157929D01*
X81503268Y-71137555D01*
X81512647Y-71114913D01*
X81513530Y-71112001D01*
X81520464Y-71099029D01*
X81526502Y-71087732D01*
X81543960Y-71066460D01*
X81565232Y-71049002D01*
X81565231Y-71049002D01*
X81565233Y-71049001D01*
X81589499Y-71036030D01*
X81615834Y-71028042D01*
X81643220Y-71025345D01*
X81670605Y-71028042D01*
X81696938Y-71036030D01*
X81721208Y-71049002D01*
X81721210Y-71049003D01*
X81721209Y-71049003D01*
X81742480Y-71066460D01*
X81759939Y-71087733D01*
X81772910Y-71111999D01*
X81780898Y-71138334D01*
X81782920Y-71158866D01*
X81782920Y-71741534D01*
X81780898Y-71762066D01*
X81772910Y-71788401D01*
X81759939Y-71812667D01*
X81742480Y-71833940D01*
X81721207Y-71851399D01*
X81696941Y-71864370D01*
X81670606Y-71872358D01*
X81643220Y-71875055D01*
X81615835Y-71872358D01*
X81589500Y-71864370D01*
X81565234Y-71851399D01*
X81543961Y-71833940D01*
X81526502Y-71812667D01*
X81513532Y-71788401D01*
X81513175Y-71787223D01*
X81512646Y-71785483D01*
X81503273Y-71762852D01*
X81489660Y-71742477D01*
X81472334Y-71725149D01*
X81451960Y-71711534D01*
X81429321Y-71702156D01*
X81405288Y-71697374D01*
X81380784Y-71697373D01*
X81356751Y-71702153D01*
X81334112Y-71711529D01*
X81313737Y-71725142D01*
X81296409Y-71742468D01*
X81282794Y-71762842D01*
X81273415Y-71785483D01*
X81272530Y-71788400D01*
X81259559Y-71812667D01*
X81242100Y-71833940D01*
X81220827Y-71851399D01*
X81196561Y-71864370D01*
X81170226Y-71872358D01*
X81142840Y-71875055D01*
X81115455Y-71872358D01*
X81089120Y-71864370D01*
X81064854Y-71851399D01*
X81043581Y-71833940D01*
X81026122Y-71812667D01*
X81012522Y-71787223D01*
X81004163Y-71767039D01*
X80990550Y-71746664D01*
X80973224Y-71729336D01*
X80952851Y-71715722D01*
X80930212Y-71706343D01*
X80906179Y-71701562D01*
X80881675Y-71701560D01*
X80857642Y-71706340D01*
X80835002Y-71715716D01*
X80814627Y-71729329D01*
X80797299Y-71746655D01*
X80783685Y-71767028D01*
X80775318Y-71787225D01*
X80761719Y-71812667D01*
X80744260Y-71833940D01*
X80722987Y-71851399D01*
X80698721Y-71864370D01*
X80672386Y-71872358D01*
X80645000Y-71875055D01*
X80617615Y-71872358D01*
X80591280Y-71864370D01*
X80567014Y-71851399D01*
X80545741Y-71833940D01*
X80528282Y-71812667D01*
X80514682Y-71787223D01*
X80506323Y-71767039D01*
X80492710Y-71746664D01*
X80475384Y-71729336D01*
X80455011Y-71715722D01*
X80432372Y-71706343D01*
X80408339Y-71701562D01*
X80383835Y-71701560D01*
X80359802Y-71706340D01*
X80337162Y-71715716D01*
X80316787Y-71729329D01*
X80299459Y-71746655D01*
X80285845Y-71767028D01*
X80277478Y-71787225D01*
X80263879Y-71812667D01*
X80246420Y-71833940D01*
X80225147Y-71851399D01*
X80200881Y-71864370D01*
X80174546Y-71872358D01*
X80147160Y-71875055D01*
X80119775Y-71872358D01*
X80093440Y-71864370D01*
X80069174Y-71851399D01*
X80047901Y-71833940D01*
X80030442Y-71812667D01*
X80017472Y-71788401D01*
X80017115Y-71787223D01*
X80016586Y-71785483D01*
X80007213Y-71762852D01*
X79993600Y-71742477D01*
X79976274Y-71725149D01*
X79955900Y-71711534D01*
X79933261Y-71702156D01*
X79909228Y-71697374D01*
X79884724Y-71697373D01*
X79860691Y-71702153D01*
X79838052Y-71711529D01*
X79817677Y-71725142D01*
X79800349Y-71742468D01*
X79786734Y-71762842D01*
X79777355Y-71785483D01*
X79776470Y-71788400D01*
X79763499Y-71812667D01*
X79746040Y-71833940D01*
X79724767Y-71851399D01*
X79700501Y-71864370D01*
X79674166Y-71872358D01*
X79646780Y-71875055D01*
X79619395Y-71872358D01*
X79593060Y-71864370D01*
X79568794Y-71851399D01*
X79547521Y-71833940D01*
X79530062Y-71812667D01*
X79517091Y-71788401D01*
X79509103Y-71762066D01*
X79507081Y-71741534D01*
X79507080Y-71158867D01*
X79509102Y-71138335D01*
X79517090Y-71112002D01*
X79517092Y-71111999D01*
X79530062Y-71087732D01*
X79547520Y-71066460D01*
X79568792Y-71049002D01*
X79568791Y-71049002D01*
X79568793Y-71049001D01*
X79593059Y-71036030D01*
X79619394Y-71028042D01*
X79646780Y-71025345D01*
X79674165Y-71028042D01*
X79700498Y-71036030D01*
X79724768Y-71049002D01*
X79724770Y-71049003D01*
X79724769Y-71049003D01*
X79746040Y-71066460D01*
X79763499Y-71087733D01*
X79776471Y-71112002D01*
X79777353Y-71114910D01*
X79786729Y-71137550D01*
X79800343Y-71157924D01*
X79817669Y-71175252D01*
X79838043Y-71188866D01*
X79860682Y-71198244D01*
X79884715Y-71203025D01*
X79909219Y-71203025D01*
X79933252Y-71198245D01*
X79955892Y-71188869D01*
X79976266Y-71175255D01*
X79993594Y-71157929D01*
X80007208Y-71137555D01*
X80016587Y-71114913D01*
X80017470Y-71112001D01*
X80024404Y-71099029D01*
X80030442Y-71087732D01*
X80047900Y-71066460D01*
X80069172Y-71049002D01*
X80069171Y-71049002D01*
X80069173Y-71049001D01*
X80093439Y-71036031D01*
X80093441Y-71036030D01*
X80113459Y-71029958D01*
X80136097Y-71020580D01*
X80156471Y-71006967D01*
X80161681Y-71001757D01*
X80172235Y-71014617D01*
X80201698Y-71036468D01*
X80210493Y-71041169D01*
X80225148Y-71049002D01*
X80225150Y-71049003D01*
X80225149Y-71049003D01*
X80246420Y-71066460D01*
X80263879Y-71087733D01*
X80277478Y-71113175D01*
X80285839Y-71133363D01*
X80299453Y-71153737D01*
X80316779Y-71171065D01*
X80337153Y-71184679D01*
X80359792Y-71194057D01*
X80383825Y-71198838D01*
X80408329Y-71198838D01*
X80432363Y-71194058D01*
X80455002Y-71184682D01*
X80475376Y-71171068D01*
X80492704Y-71153742D01*
X80506318Y-71133368D01*
X80514679Y-71113182D01*
X80520067Y-71103101D01*
X80528282Y-71087732D01*
X80545740Y-71066460D01*
X80567012Y-71049002D01*
X80590464Y-71036467D01*
X80610837Y-71022854D01*
X80628163Y-71005526D01*
X80641777Y-70985152D01*
X80644889Y-70977638D01*
X80654530Y-70995675D01*
X80654530Y-70995675D01*
G37*
G36*
X72735440Y-71452740D02*
G01*
X71937880Y-71452740D01*
X71937880Y-69654420D01*
X72735440Y-69654420D01*
X72735440Y-71452740D01*
X72735440Y-71452740D01*
G37*
G36*
X71635620Y-71452740D02*
G01*
X70838060Y-71452740D01*
X70838060Y-69654420D01*
X71635620Y-69654420D01*
X71635620Y-71452740D01*
X71635620Y-71452740D01*
G37*
G36*
X70535800Y-71452740D02*
G01*
X69738240Y-71452740D01*
X69738240Y-69654420D01*
X70535800Y-69654420D01*
X70535800Y-71452740D01*
X70535800Y-71452740D01*
G37*
G36*
X58737500Y-71452740D02*
G01*
X57939940Y-71452740D01*
X57939940Y-69654420D01*
X58737500Y-69654420D01*
X58737500Y-71452740D01*
X58737500Y-71452740D01*
G37*
G36*
X59837320Y-71452740D02*
G01*
X59039760Y-71452740D01*
X59039760Y-69654420D01*
X59837320Y-69654420D01*
X59837320Y-71452740D01*
X59837320Y-71452740D01*
G37*
G36*
X60937140Y-71452740D02*
G01*
X60139580Y-71452740D01*
X60139580Y-69654420D01*
X60937140Y-69654420D01*
X60937140Y-71452740D01*
X60937140Y-71452740D01*
G37*
G36*
X62036960Y-71452740D02*
G01*
X61239400Y-71452740D01*
X61239400Y-69654420D01*
X62036960Y-69654420D01*
X62036960Y-71452740D01*
X62036960Y-71452740D01*
G37*
G36*
X63136780Y-71452740D02*
G01*
X62339220Y-71452740D01*
X62339220Y-69654420D01*
X63136780Y-69654420D01*
X63136780Y-71452740D01*
X63136780Y-71452740D01*
G37*
G36*
X66133980Y-71452740D02*
G01*
X65336420Y-71452740D01*
X65336420Y-69654420D01*
X66133980Y-69654420D01*
X66133980Y-71452740D01*
X66133980Y-71452740D01*
G37*
G36*
X67236340Y-71452740D02*
G01*
X66438780Y-71452740D01*
X66438780Y-69654420D01*
X67236340Y-69654420D01*
X67236340Y-71452740D01*
X67236340Y-71452740D01*
G37*
G36*
X68336160Y-71452740D02*
G01*
X67538600Y-71452740D01*
X67538600Y-69654420D01*
X68336160Y-69654420D01*
X68336160Y-71452740D01*
X68336160Y-71452740D01*
G37*
G36*
X69435980Y-71452740D02*
G01*
X68638420Y-71452740D01*
X68638420Y-69654420D01*
X69435980Y-69654420D01*
X69435980Y-71452740D01*
X69435980Y-71452740D01*
G37*
G36*
X97942400Y-71170800D02*
G01*
X97307400Y-71170800D01*
X97307400Y-70307200D01*
X97942400Y-70307200D01*
X97942400Y-71170800D01*
X97942400Y-71170800D01*
G37*
G36*
X99542600Y-71170800D02*
G01*
X98907600Y-71170800D01*
X98907600Y-70307200D01*
X99542600Y-70307200D01*
X99542600Y-71170800D01*
X99542600Y-71170800D01*
G37*
G36*
X78226000Y-71019000D02*
G01*
X77476000Y-71019000D01*
X77476000Y-69819000D01*
X78226000Y-69819000D01*
X78226000Y-71019000D01*
X78226000Y-71019000D01*
G37*
G36*
X83687000Y-70958000D02*
G01*
X82937000Y-70958000D01*
X82937000Y-69758000D01*
X83687000Y-69758000D01*
X83687000Y-70958000D01*
X83687000Y-70958000D01*
G37*
G36*
X84957000Y-70958000D02*
G01*
X84207000Y-70958000D01*
X84207000Y-69758000D01*
X84957000Y-69758000D01*
X84957000Y-70958000D01*
X84957000Y-70958000D01*
G37*
G36*
X80648224Y-69086696D02*
G01*
X80661838Y-69107071D01*
X80679166Y-69124397D01*
X80699540Y-69138011D01*
X80722179Y-69147388D01*
X80758463Y-69152770D01*
X81029377Y-69152770D01*
X81053763Y-69150368D01*
X81077212Y-69143255D01*
X81098823Y-69131704D01*
X81113822Y-69119395D01*
X81116200Y-69122954D01*
X81133526Y-69140282D01*
X81153900Y-69153896D01*
X81176541Y-69163274D01*
X81278230Y-69194121D01*
X81336595Y-69211826D01*
X81479783Y-69288362D01*
X81605289Y-69391361D01*
X81708288Y-69516867D01*
X81708290Y-69516870D01*
X81708626Y-69517280D01*
X81725953Y-69534607D01*
X81746327Y-69548220D01*
X81768966Y-69557598D01*
X81805251Y-69562980D01*
X82412074Y-69562980D01*
X82432606Y-69565002D01*
X82458941Y-69572990D01*
X82483207Y-69585961D01*
X82504480Y-69603420D01*
X82521939Y-69624693D01*
X82534910Y-69648959D01*
X82542898Y-69675294D01*
X82545595Y-69702680D01*
X82542898Y-69730066D01*
X82534910Y-69756401D01*
X82521939Y-69780667D01*
X82504480Y-69801940D01*
X82483207Y-69819399D01*
X82458941Y-69832370D01*
X82432606Y-69840358D01*
X82412074Y-69842380D01*
X81972523Y-69842380D01*
X81948137Y-69844782D01*
X81924688Y-69851895D01*
X81903077Y-69863446D01*
X81884135Y-69878991D01*
X81868590Y-69897933D01*
X81857039Y-69919544D01*
X81849926Y-69942993D01*
X81847524Y-69967379D01*
X81848126Y-69979632D01*
X81848125Y-69998868D01*
X81852905Y-70022901D01*
X81862281Y-70045540D01*
X81875894Y-70065915D01*
X81893220Y-70083243D01*
X81913594Y-70096858D01*
X81936233Y-70106236D01*
X81960266Y-70111018D01*
X81972523Y-70111620D01*
X82412074Y-70111620D01*
X82432606Y-70113642D01*
X82458941Y-70121630D01*
X82483207Y-70134601D01*
X82504480Y-70152060D01*
X82521939Y-70173333D01*
X82534910Y-70197599D01*
X82542898Y-70223934D01*
X82545595Y-70251320D01*
X82542898Y-70278706D01*
X82534910Y-70305041D01*
X82521939Y-70329307D01*
X82504480Y-70350580D01*
X82483207Y-70368039D01*
X82458941Y-70381010D01*
X82432606Y-70388998D01*
X82412074Y-70391020D01*
X81805251Y-70391020D01*
X81780865Y-70393422D01*
X81757416Y-70400535D01*
X81735805Y-70412086D01*
X81708626Y-70436720D01*
X81708290Y-70437130D01*
X81708288Y-70437133D01*
X81605289Y-70562639D01*
X81479783Y-70665638D01*
X81336595Y-70742174D01*
X81278230Y-70759879D01*
X81176541Y-70790726D01*
X81153902Y-70800103D01*
X81133528Y-70813717D01*
X81116201Y-70831044D01*
X81113763Y-70834692D01*
X81108674Y-70829603D01*
X81088300Y-70815989D01*
X81065661Y-70806612D01*
X81029377Y-70801230D01*
X80758463Y-70801230D01*
X80734077Y-70803632D01*
X80710628Y-70810745D01*
X80689017Y-70822296D01*
X80670075Y-70837841D01*
X80654530Y-70856783D01*
X80644889Y-70874820D01*
X80641776Y-70867304D01*
X80628162Y-70846929D01*
X80610834Y-70829603D01*
X80590460Y-70815989D01*
X80567821Y-70806612D01*
X80531537Y-70801230D01*
X80260623Y-70801230D01*
X80236237Y-70803632D01*
X80212788Y-70810745D01*
X80191177Y-70822296D01*
X80176179Y-70834605D01*
X80173799Y-70831043D01*
X80156472Y-70813716D01*
X80136098Y-70800102D01*
X80113458Y-70790724D01*
X80108779Y-70789305D01*
X80108773Y-70789304D01*
X79953405Y-70742174D01*
X79810217Y-70665638D01*
X79684711Y-70562639D01*
X79581712Y-70437133D01*
X79581710Y-70437130D01*
X79581374Y-70436720D01*
X79564047Y-70419393D01*
X79543673Y-70405780D01*
X79521034Y-70396402D01*
X79484749Y-70391020D01*
X78877926Y-70391020D01*
X78857394Y-70388998D01*
X78831059Y-70381010D01*
X78806793Y-70368039D01*
X78785520Y-70350580D01*
X78768061Y-70329307D01*
X78755090Y-70305041D01*
X78747102Y-70278706D01*
X78744405Y-70251320D01*
X78747102Y-70223934D01*
X78755090Y-70197599D01*
X78768061Y-70173333D01*
X78785520Y-70152060D01*
X78806793Y-70134601D01*
X78831059Y-70121630D01*
X78857394Y-70113642D01*
X78877926Y-70111620D01*
X79317477Y-70111620D01*
X79341863Y-70109218D01*
X79365312Y-70102105D01*
X79386923Y-70090554D01*
X79405865Y-70075009D01*
X79421410Y-70056067D01*
X79432961Y-70034456D01*
X79440074Y-70011007D01*
X79442476Y-69986621D01*
X79441874Y-69974364D01*
X79441875Y-69955132D01*
X79437095Y-69931099D01*
X79427719Y-69908460D01*
X79414106Y-69888085D01*
X79396780Y-69870757D01*
X79376406Y-69857142D01*
X79353767Y-69847764D01*
X79329734Y-69842982D01*
X79317477Y-69842380D01*
X78877926Y-69842380D01*
X78857394Y-69840358D01*
X78831059Y-69832370D01*
X78806793Y-69819399D01*
X78785520Y-69801940D01*
X78768061Y-69780667D01*
X78755090Y-69756401D01*
X78747102Y-69730066D01*
X78744405Y-69702680D01*
X78747102Y-69675294D01*
X78755090Y-69648959D01*
X78768061Y-69624693D01*
X78785520Y-69603420D01*
X78806793Y-69585961D01*
X78831059Y-69572990D01*
X78857394Y-69565002D01*
X78877926Y-69562980D01*
X79484749Y-69562980D01*
X79509135Y-69560578D01*
X79532584Y-69553465D01*
X79554195Y-69541914D01*
X79581374Y-69517280D01*
X79581710Y-69516870D01*
X79581712Y-69516867D01*
X79684711Y-69391361D01*
X79810217Y-69288362D01*
X79953405Y-69211826D01*
X80108773Y-69164696D01*
X80108779Y-69164695D01*
X80113458Y-69163276D01*
X80136097Y-69153898D01*
X80156471Y-69140285D01*
X80173798Y-69122958D01*
X80176237Y-69119308D01*
X80181326Y-69124397D01*
X80201700Y-69138011D01*
X80224339Y-69147388D01*
X80260623Y-69152770D01*
X80531537Y-69152770D01*
X80555923Y-69150368D01*
X80579372Y-69143255D01*
X80600983Y-69131704D01*
X80619925Y-69116159D01*
X80635470Y-69097217D01*
X80645111Y-69079180D01*
X80648224Y-69086696D01*
X80648224Y-69086696D01*
G37*
G36*
X120230000Y-70700000D02*
G01*
X118530000Y-70700000D01*
X118530000Y-69000000D01*
X120230000Y-69000000D01*
X120230000Y-70700000D01*
X120230000Y-70700000D01*
G37*
G36*
X112610000Y-70700000D02*
G01*
X110910000Y-70700000D01*
X110910000Y-69000000D01*
X112610000Y-69000000D01*
X112610000Y-70700000D01*
X112610000Y-70700000D01*
G37*
G36*
X117690000Y-70700000D02*
G01*
X115990000Y-70700000D01*
X115990000Y-69000000D01*
X117690000Y-69000000D01*
X117690000Y-70700000D01*
X117690000Y-70700000D01*
G37*
G36*
X92126000Y-69157000D02*
G01*
X90926000Y-69157000D01*
X90926000Y-68257000D01*
X92126000Y-68257000D01*
X92126000Y-69157000D01*
X92126000Y-69157000D01*
G37*
G36*
X94326000Y-69157000D02*
G01*
X93126000Y-69157000D01*
X93126000Y-68257000D01*
X94326000Y-68257000D01*
X94326000Y-69157000D01*
X94326000Y-69157000D01*
G37*
G36*
X78226000Y-69119000D02*
G01*
X77476000Y-69119000D01*
X77476000Y-67919000D01*
X78226000Y-67919000D01*
X78226000Y-69119000D01*
X78226000Y-69119000D01*
G37*
G36*
X84957000Y-69058000D02*
G01*
X84207000Y-69058000D01*
X84207000Y-67858000D01*
X84957000Y-67858000D01*
X84957000Y-69058000D01*
X84957000Y-69058000D01*
G37*
G36*
X83687000Y-69058000D02*
G01*
X82937000Y-69058000D01*
X82937000Y-67858000D01*
X83687000Y-67858000D01*
X83687000Y-69058000D01*
X83687000Y-69058000D01*
G37*
G36*
X81670606Y-68081642D02*
G01*
X81696941Y-68089630D01*
X81721207Y-68102601D01*
X81742480Y-68120060D01*
X81759939Y-68141333D01*
X81772910Y-68165599D01*
X81780898Y-68191934D01*
X81782920Y-68212466D01*
X81782920Y-68795134D01*
X81780898Y-68815666D01*
X81772910Y-68842001D01*
X81759939Y-68866267D01*
X81759938Y-68866268D01*
X81742480Y-68887540D01*
X81721208Y-68904998D01*
X81696938Y-68917970D01*
X81670605Y-68925958D01*
X81643220Y-68928655D01*
X81615834Y-68925958D01*
X81589499Y-68917970D01*
X81565233Y-68904999D01*
X81543960Y-68887540D01*
X81526503Y-68866269D01*
X81526502Y-68866267D01*
X81520464Y-68854971D01*
X81513530Y-68841999D01*
X81512647Y-68839087D01*
X81503270Y-68816448D01*
X81489656Y-68796074D01*
X81472329Y-68778747D01*
X81451955Y-68765133D01*
X81429316Y-68755756D01*
X81405283Y-68750975D01*
X81380779Y-68750975D01*
X81356745Y-68755755D01*
X81334106Y-68765132D01*
X81313732Y-68778746D01*
X81296405Y-68796073D01*
X81282791Y-68816447D01*
X81273413Y-68839090D01*
X81272531Y-68841998D01*
X81272530Y-68841999D01*
X81259558Y-68866268D01*
X81242100Y-68887540D01*
X81220828Y-68904998D01*
X81197377Y-68917532D01*
X81196556Y-68917971D01*
X81176545Y-68924041D01*
X81153905Y-68933417D01*
X81133531Y-68947031D01*
X81128319Y-68952243D01*
X81117765Y-68939383D01*
X81088302Y-68917532D01*
X81064852Y-68904998D01*
X81043580Y-68887540D01*
X81026122Y-68866268D01*
X81017907Y-68850899D01*
X81012519Y-68840818D01*
X81004159Y-68820634D01*
X80990545Y-68800260D01*
X80973218Y-68782933D01*
X80952844Y-68769320D01*
X80930205Y-68759942D01*
X80906172Y-68755162D01*
X80881668Y-68755162D01*
X80857634Y-68759943D01*
X80834995Y-68769320D01*
X80814621Y-68782934D01*
X80797294Y-68800261D01*
X80783681Y-68820635D01*
X80775319Y-68840824D01*
X80761719Y-68866267D01*
X80761718Y-68866268D01*
X80744260Y-68887540D01*
X80722988Y-68904998D01*
X80708333Y-68912831D01*
X80699538Y-68917532D01*
X80679163Y-68931146D01*
X80661837Y-68948474D01*
X80648223Y-68968848D01*
X80645111Y-68976362D01*
X80635470Y-68958325D01*
X80619925Y-68939383D01*
X80590462Y-68917532D01*
X80567012Y-68904998D01*
X80545740Y-68887540D01*
X80528282Y-68866268D01*
X80520067Y-68850899D01*
X80514679Y-68840818D01*
X80506319Y-68820634D01*
X80492705Y-68800260D01*
X80475378Y-68782933D01*
X80455004Y-68769320D01*
X80432365Y-68759942D01*
X80408332Y-68755162D01*
X80383828Y-68755162D01*
X80359794Y-68759943D01*
X80337155Y-68769320D01*
X80316781Y-68782934D01*
X80299454Y-68800261D01*
X80285841Y-68820635D01*
X80277479Y-68840824D01*
X80263879Y-68866267D01*
X80263878Y-68866268D01*
X80246420Y-68887540D01*
X80225148Y-68904998D01*
X80210493Y-68912831D01*
X80201698Y-68917532D01*
X80181323Y-68931146D01*
X80163997Y-68948474D01*
X80161560Y-68952122D01*
X80156472Y-68947034D01*
X80136097Y-68933420D01*
X80113458Y-68924042D01*
X80093441Y-68917970D01*
X80093439Y-68917969D01*
X80069173Y-68904999D01*
X80047900Y-68887540D01*
X80030443Y-68866269D01*
X80030442Y-68866267D01*
X80024404Y-68854971D01*
X80017470Y-68841999D01*
X80016587Y-68839087D01*
X80007210Y-68816448D01*
X79993596Y-68796074D01*
X79976269Y-68778747D01*
X79955895Y-68765133D01*
X79933256Y-68755756D01*
X79909223Y-68750975D01*
X79884719Y-68750975D01*
X79860685Y-68755755D01*
X79838046Y-68765132D01*
X79817672Y-68778746D01*
X79800345Y-68796073D01*
X79786731Y-68816447D01*
X79777353Y-68839090D01*
X79776471Y-68841998D01*
X79776470Y-68841999D01*
X79763498Y-68866268D01*
X79746040Y-68887540D01*
X79724768Y-68904998D01*
X79701317Y-68917532D01*
X79700498Y-68917970D01*
X79674165Y-68925958D01*
X79646780Y-68928655D01*
X79619394Y-68925958D01*
X79593059Y-68917970D01*
X79568793Y-68904999D01*
X79547520Y-68887540D01*
X79530063Y-68866269D01*
X79530062Y-68866267D01*
X79517090Y-68841998D01*
X79509102Y-68815665D01*
X79507080Y-68795133D01*
X79507081Y-68212466D01*
X79509103Y-68191934D01*
X79516206Y-68168517D01*
X79517091Y-68165599D01*
X79530062Y-68141333D01*
X79547521Y-68120060D01*
X79568794Y-68102601D01*
X79593060Y-68089630D01*
X79619395Y-68081642D01*
X79646780Y-68078945D01*
X79674166Y-68081642D01*
X79700501Y-68089630D01*
X79724767Y-68102601D01*
X79746040Y-68120060D01*
X79763499Y-68141333D01*
X79776470Y-68165600D01*
X79777355Y-68168517D01*
X79786733Y-68191155D01*
X79800347Y-68211529D01*
X79817674Y-68228856D01*
X79838049Y-68242469D01*
X79860688Y-68251846D01*
X79884721Y-68256626D01*
X79909226Y-68256626D01*
X79933259Y-68251845D01*
X79955897Y-68242467D01*
X79976271Y-68228853D01*
X79993598Y-68211526D01*
X80007211Y-68191151D01*
X80016589Y-68168509D01*
X80017472Y-68165599D01*
X80030442Y-68141333D01*
X80047901Y-68120060D01*
X80069174Y-68102601D01*
X80093440Y-68089630D01*
X80119775Y-68081642D01*
X80147160Y-68078945D01*
X80174546Y-68081642D01*
X80200881Y-68089630D01*
X80225147Y-68102601D01*
X80246420Y-68120060D01*
X80263879Y-68141333D01*
X80277478Y-68166775D01*
X80285844Y-68186970D01*
X80299458Y-68207344D01*
X80316786Y-68224671D01*
X80337161Y-68238283D01*
X80359800Y-68247660D01*
X80383834Y-68252440D01*
X80408338Y-68252439D01*
X80432371Y-68247657D01*
X80455009Y-68238279D01*
X80475383Y-68224665D01*
X80492710Y-68207337D01*
X80506322Y-68186962D01*
X80514682Y-68166778D01*
X80528282Y-68141333D01*
X80545741Y-68120060D01*
X80567014Y-68102601D01*
X80591280Y-68089630D01*
X80617615Y-68081642D01*
X80645000Y-68078945D01*
X80672386Y-68081642D01*
X80698721Y-68089630D01*
X80722987Y-68102601D01*
X80744260Y-68120060D01*
X80761719Y-68141333D01*
X80775318Y-68166775D01*
X80783684Y-68186970D01*
X80797298Y-68207344D01*
X80814626Y-68224671D01*
X80835001Y-68238283D01*
X80857640Y-68247660D01*
X80881674Y-68252440D01*
X80906178Y-68252439D01*
X80930211Y-68247657D01*
X80952849Y-68238279D01*
X80973223Y-68224665D01*
X80990550Y-68207337D01*
X81004162Y-68186962D01*
X81012522Y-68166778D01*
X81026122Y-68141333D01*
X81043581Y-68120060D01*
X81064854Y-68102601D01*
X81089120Y-68089630D01*
X81115455Y-68081642D01*
X81142840Y-68078945D01*
X81170226Y-68081642D01*
X81196561Y-68089630D01*
X81220827Y-68102601D01*
X81242100Y-68120060D01*
X81259559Y-68141333D01*
X81272530Y-68165600D01*
X81273415Y-68168517D01*
X81282793Y-68191155D01*
X81296407Y-68211529D01*
X81313734Y-68228856D01*
X81334109Y-68242469D01*
X81356748Y-68251846D01*
X81380781Y-68256626D01*
X81405286Y-68256626D01*
X81429319Y-68251845D01*
X81451957Y-68242467D01*
X81472331Y-68228853D01*
X81489658Y-68211526D01*
X81503271Y-68191151D01*
X81512649Y-68168509D01*
X81513532Y-68165599D01*
X81526502Y-68141333D01*
X81543961Y-68120060D01*
X81565234Y-68102601D01*
X81589500Y-68089630D01*
X81615835Y-68081642D01*
X81643220Y-68078945D01*
X81670606Y-68081642D01*
X81670606Y-68081642D01*
G37*
G36*
X60936000Y-68810000D02*
G01*
X57936000Y-68810000D01*
X57936000Y-65810000D01*
X60936000Y-65810000D01*
X60936000Y-68810000D01*
X60936000Y-68810000D01*
G37*
G36*
X64492000Y-68810000D02*
G01*
X61492000Y-68810000D01*
X61492000Y-65810000D01*
X64492000Y-65810000D01*
X64492000Y-68810000D01*
X64492000Y-68810000D01*
G37*
G36*
X117690000Y-68160000D02*
G01*
X115990000Y-68160000D01*
X115990000Y-66460000D01*
X117690000Y-66460000D01*
X117690000Y-68160000D01*
X117690000Y-68160000D01*
G37*
G36*
X120230000Y-68160000D02*
G01*
X118530000Y-68160000D01*
X118530000Y-66460000D01*
X120230000Y-66460000D01*
X120230000Y-68160000D01*
X120230000Y-68160000D01*
G37*
G36*
X98517000Y-67633000D02*
G01*
X97317000Y-67633000D01*
X97317000Y-66733000D01*
X98517000Y-66733000D01*
X98517000Y-67633000D01*
X98517000Y-67633000D01*
G37*
G36*
X92126000Y-67633000D02*
G01*
X90926000Y-67633000D01*
X90926000Y-66733000D01*
X92126000Y-66733000D01*
X92126000Y-67633000D01*
X92126000Y-67633000D01*
G37*
G36*
X96317000Y-67633000D02*
G01*
X95117000Y-67633000D01*
X95117000Y-66733000D01*
X96317000Y-66733000D01*
X96317000Y-67633000D01*
X96317000Y-67633000D01*
G37*
G36*
X102495000Y-67633000D02*
G01*
X101295000Y-67633000D01*
X101295000Y-66733000D01*
X102495000Y-66733000D01*
X102495000Y-67633000D01*
X102495000Y-67633000D01*
G37*
G36*
X100295000Y-67633000D02*
G01*
X99095000Y-67633000D01*
X99095000Y-66733000D01*
X100295000Y-66733000D01*
X100295000Y-67633000D01*
X100295000Y-67633000D01*
G37*
G36*
X94326000Y-67633000D02*
G01*
X93126000Y-67633000D01*
X93126000Y-66733000D01*
X94326000Y-66733000D01*
X94326000Y-67633000D01*
X94326000Y-67633000D01*
G37*
G36*
X90176000Y-67633000D02*
G01*
X88976000Y-67633000D01*
X88976000Y-66733000D01*
X90176000Y-66733000D01*
X90176000Y-67633000D01*
X90176000Y-67633000D01*
G37*
G36*
X87976000Y-67633000D02*
G01*
X86776000Y-67633000D01*
X86776000Y-66733000D01*
X87976000Y-66733000D01*
X87976000Y-67633000D01*
X87976000Y-67633000D01*
G37*
G36*
X80899000Y-67310000D02*
G01*
X79756000Y-67310000D01*
X79756000Y-64262000D01*
X80899000Y-64262000D01*
X80899000Y-67310000D01*
X80899000Y-67310000D01*
G37*
G36*
X78740000Y-67310000D02*
G01*
X77597000Y-67310000D01*
X77597000Y-64262000D01*
X78740000Y-64262000D01*
X78740000Y-67310000D01*
X78740000Y-67310000D01*
G37*
G36*
X94326000Y-66109000D02*
G01*
X93126000Y-66109000D01*
X93126000Y-65209000D01*
X94326000Y-65209000D01*
X94326000Y-66109000D01*
X94326000Y-66109000D01*
G37*
G36*
X90176000Y-66109000D02*
G01*
X88976000Y-66109000D01*
X88976000Y-65209000D01*
X90176000Y-65209000D01*
X90176000Y-66109000D01*
X90176000Y-66109000D01*
G37*
G36*
X87976000Y-66109000D02*
G01*
X86776000Y-66109000D01*
X86776000Y-65209000D01*
X87976000Y-65209000D01*
X87976000Y-66109000D01*
X87976000Y-66109000D01*
G37*
G36*
X96317000Y-66109000D02*
G01*
X95117000Y-66109000D01*
X95117000Y-65209000D01*
X96317000Y-65209000D01*
X96317000Y-66109000D01*
X96317000Y-66109000D01*
G37*
G36*
X98517000Y-66109000D02*
G01*
X97317000Y-66109000D01*
X97317000Y-65209000D01*
X98517000Y-65209000D01*
X98517000Y-66109000D01*
X98517000Y-66109000D01*
G37*
G36*
X102495000Y-66109000D02*
G01*
X101295000Y-66109000D01*
X101295000Y-65209000D01*
X102495000Y-65209000D01*
X102495000Y-66109000D01*
X102495000Y-66109000D01*
G37*
G36*
X100295000Y-66109000D02*
G01*
X99095000Y-66109000D01*
X99095000Y-65209000D01*
X100295000Y-65209000D01*
X100295000Y-66109000D01*
X100295000Y-66109000D01*
G37*
G36*
X92126000Y-66109000D02*
G01*
X90926000Y-66109000D01*
X90926000Y-65209000D01*
X92126000Y-65209000D01*
X92126000Y-66109000D01*
X92126000Y-66109000D01*
G37*
M02*
