G04 #@! TF.GenerationSoftware,KiCad,Pcbnew,(5.1.5)-3*
G04 #@! TF.CreationDate,2020-08-28T01:49:56-04:00*
G04 #@! TF.ProjectId,BikeLightComputer,42696b65-4c69-4676-9874-436f6d707574,rev?*
G04 #@! TF.SameCoordinates,Original*
G04 #@! TF.FileFunction,Copper,L1,Top*
G04 #@! TF.FilePolarity,Positive*
%FSLAX46Y46*%
G04 Gerber Fmt 4.6, Leading zero omitted, Abs format (unit mm)*
G04 Created by KiCad (PCBNEW (5.1.5)-3) date 2020-08-28 01:49:56*
%MOMM*%
%LPD*%
G04 APERTURE LIST*
%ADD10R,3.250000X3.250000*%
%ADD11R,0.850000X0.300000*%
%ADD12R,0.300000X0.850000*%
%ADD13R,1.600000X3.200000*%
%ADD14R,1.600000X0.950000*%
%ADD15R,0.800000X0.750000*%
%ADD16R,3.200000X1.600000*%
%ADD17R,0.950000X1.600000*%
%ADD18R,1.700000X1.700000*%
%ADD19O,1.700000X1.700000*%
%ADD20R,3.000000X3.000000*%
%ADD21R,3.500000X3.500000*%
%ADD22C,0.800000*%
%ADD23C,1.000000*%
%ADD24C,0.250000*%
%ADD25C,0.254000*%
G04 APERTURE END LIST*
D10*
X156972000Y-72136000D03*
D11*
X159422000Y-70386000D03*
X159422000Y-70886000D03*
X159422000Y-71386000D03*
X159422000Y-71886000D03*
X159422000Y-72386000D03*
X159422000Y-72886000D03*
X159422000Y-73386000D03*
X159422000Y-73886000D03*
D12*
X158722000Y-74586000D03*
X158222000Y-74586000D03*
X157722000Y-74586000D03*
X157222000Y-74586000D03*
X156722000Y-74586000D03*
X156222000Y-74586000D03*
X155722000Y-74586000D03*
X155222000Y-74586000D03*
D11*
X154522000Y-73886000D03*
X154522000Y-73386000D03*
X154522000Y-72886000D03*
X154522000Y-72386000D03*
X154522000Y-71886000D03*
X154522000Y-71386000D03*
X154522000Y-70886000D03*
X154522000Y-70386000D03*
D12*
X155222000Y-69686000D03*
X155722000Y-69686000D03*
X156222000Y-69686000D03*
X156722000Y-69686000D03*
X157222000Y-69686000D03*
X157722000Y-69686000D03*
X158222000Y-69686000D03*
X158722000Y-69686000D03*
D13*
X169672000Y-69088000D03*
D14*
X163272000Y-71388000D03*
X163272000Y-69088000D03*
X163272000Y-66788000D03*
X163272000Y-74154000D03*
X163272000Y-76454000D03*
X163272000Y-78754000D03*
D13*
X169672000Y-76454000D03*
X169672000Y-83820000D03*
D14*
X163272000Y-86120000D03*
X163272000Y-83820000D03*
X163272000Y-81520000D03*
D15*
X154444000Y-67818000D03*
X155944000Y-67818000D03*
X154444000Y-66040000D03*
X155944000Y-66040000D03*
X158000000Y-66040000D03*
X159500000Y-66040000D03*
X159488000Y-67818000D03*
X157988000Y-67818000D03*
X150138000Y-66040000D03*
X151638000Y-66040000D03*
X145566000Y-66040000D03*
X147066000Y-66040000D03*
D16*
X148590000Y-67818000D03*
D17*
X150890000Y-74218000D03*
X148590000Y-74218000D03*
X146290000Y-74218000D03*
D18*
X172720000Y-85852000D03*
X145796000Y-87376000D03*
X145796000Y-89916000D03*
D19*
X172720000Y-89408000D03*
X170180000Y-89408000D03*
X167640000Y-89408000D03*
D18*
X165100000Y-89408000D03*
D20*
X172720000Y-67310000D03*
X172720000Y-71120000D03*
X172720000Y-74930000D03*
X172720000Y-78740000D03*
D19*
X154940000Y-94234000D03*
X157480000Y-94234000D03*
D18*
X160020000Y-94234000D03*
D21*
X154480000Y-85472000D03*
X151480000Y-80772000D03*
X157480000Y-80772000D03*
D22*
X156972000Y-72136000D03*
X153416000Y-67818000D03*
X156210000Y-64516000D03*
X147537010Y-70694654D03*
X156972000Y-67564000D03*
X163830000Y-70358000D03*
X165608000Y-81534000D03*
X164845992Y-64262000D03*
X153416004Y-88392000D03*
X154717141Y-77693601D03*
X151007660Y-84450340D03*
X150876000Y-74168000D03*
X152654000Y-66040000D03*
X168148000Y-65024000D03*
X152708440Y-72903336D03*
X161036000Y-65532000D03*
X163322000Y-74168000D03*
X152889699Y-74019479D03*
X163311530Y-81544470D03*
X160528000Y-68580000D03*
X161544000Y-74930000D03*
X161226017Y-71447747D03*
X161571571Y-73184832D03*
X160528000Y-74930000D03*
X160447002Y-72755729D03*
X160442581Y-70608696D03*
X154124551Y-76269191D03*
X165872011Y-77470000D03*
X155956000Y-77724000D03*
X155017376Y-75760057D03*
X156972000Y-75946000D03*
X164965690Y-69466991D03*
X161543993Y-69596007D03*
X152654000Y-76454000D03*
X157010001Y-77254001D03*
X166882351Y-68749418D03*
X149814998Y-74422000D03*
X150190626Y-71288054D03*
X149860000Y-72390000D03*
D23*
X171704000Y-71120000D02*
X172720000Y-71120000D01*
X169672000Y-69088000D02*
X171704000Y-71120000D01*
X171196000Y-76454000D02*
X172720000Y-74930000D01*
X169672000Y-76454000D02*
X171196000Y-76454000D01*
X169672000Y-81788000D02*
X172720000Y-78740000D01*
X169672000Y-83820000D02*
X169672000Y-81788000D01*
X157480000Y-83522000D02*
X157480000Y-94234000D01*
X157480000Y-80772000D02*
X157480000Y-83522000D01*
X145796000Y-85526000D02*
X145796000Y-87376000D01*
X153790001Y-78321999D02*
X149169999Y-78321999D01*
X153930001Y-78461999D02*
X153790001Y-78321999D01*
X154730000Y-80772000D02*
X153930001Y-79972001D01*
X157480000Y-80772000D02*
X154730000Y-80772000D01*
X153930001Y-79972001D02*
X153930001Y-78461999D01*
X149169999Y-78321999D02*
X145796000Y-81695998D01*
X145796000Y-81695998D02*
X145796000Y-85526000D01*
D24*
X157722000Y-71386000D02*
X156972000Y-72136000D01*
X157722000Y-69686000D02*
X157722000Y-71386000D01*
X156722000Y-71886000D02*
X156722000Y-69686000D01*
X156972000Y-72136000D02*
X156722000Y-71886000D01*
X157222000Y-72386000D02*
X157222000Y-74586000D01*
X156972000Y-72136000D02*
X157222000Y-72386000D01*
X153416000Y-67818000D02*
X154444000Y-67818000D01*
X156609999Y-64116001D02*
X157334001Y-64116001D01*
X156210000Y-64516000D02*
X156609999Y-64116001D01*
X158000000Y-64782000D02*
X158000000Y-66040000D01*
X157334001Y-64116001D02*
X158000000Y-64782000D01*
X156210000Y-64516000D02*
X154686000Y-64516000D01*
X154444000Y-64758000D02*
X154444000Y-66040000D01*
X154686000Y-64516000D02*
X154444000Y-64758000D01*
X146290000Y-74218000D02*
X146290000Y-71941664D01*
X146290000Y-71941664D02*
X147537010Y-70694654D01*
X163287839Y-71403839D02*
X163287839Y-71916161D01*
X163272000Y-71388000D02*
X163287839Y-71403839D01*
X163576000Y-71084000D02*
X163272000Y-71388000D01*
X151037000Y-64516000D02*
X150138000Y-65415000D01*
X150138000Y-65415000D02*
X150138000Y-66040000D01*
X156210000Y-64516000D02*
X151037000Y-64516000D01*
X146405999Y-65339999D02*
X146304000Y-65441998D01*
X146896255Y-65339999D02*
X146405999Y-65339999D01*
X156210000Y-64516000D02*
X147915639Y-64516000D01*
X147915639Y-64516000D02*
X146896255Y-65339999D01*
X146304000Y-65441998D02*
X146304000Y-66040000D01*
X157734000Y-67564000D02*
X157988000Y-67818000D01*
X156972000Y-67564000D02*
X157734000Y-67564000D01*
X146304000Y-66040000D02*
X145566000Y-66040000D01*
X163830000Y-70830000D02*
X163272000Y-71388000D01*
X163830000Y-70358000D02*
X163830000Y-70830000D01*
X147862000Y-66040000D02*
X147716000Y-66040000D01*
X147716000Y-66040000D02*
X147066000Y-66040000D01*
X148590000Y-66768000D02*
X147862000Y-66040000D01*
X148590000Y-67818000D02*
X148590000Y-66768000D01*
X155944000Y-66665000D02*
X155944000Y-66040000D01*
X155868999Y-66740001D02*
X155944000Y-66665000D01*
X155944000Y-66040000D02*
X155944000Y-67818000D01*
X159500000Y-66665000D02*
X159500000Y-66040000D01*
X159424999Y-66740001D02*
X159500000Y-66665000D01*
X155868999Y-66740001D02*
X159424999Y-66740001D01*
X156222000Y-68096000D02*
X156222000Y-69686000D01*
X155944000Y-67818000D02*
X156222000Y-68096000D01*
X157297001Y-68935999D02*
X157222000Y-69011000D01*
X158995001Y-68935999D02*
X157297001Y-68935999D01*
X159488000Y-68443000D02*
X158995001Y-68935999D01*
X159488000Y-67818000D02*
X159488000Y-68443000D01*
X157222000Y-69011000D02*
X157222000Y-69686000D01*
X148590000Y-67818000D02*
X148590000Y-74218000D01*
X155742377Y-76108058D02*
X155742377Y-75281377D01*
X148590000Y-74218000D02*
X148590000Y-75268000D01*
X148590000Y-75268000D02*
X150538000Y-77216000D01*
X155722000Y-75261000D02*
X155722000Y-74586000D01*
X155742377Y-75281377D02*
X155722000Y-75261000D01*
X154634435Y-77216000D02*
X155742377Y-76108058D01*
X148590000Y-67818000D02*
X151949002Y-67818000D01*
X151949002Y-67818000D02*
X153027001Y-66740001D01*
X153027001Y-66740001D02*
X155868999Y-66740001D01*
X150538000Y-77216000D02*
X154432000Y-77216000D01*
X154432000Y-77216000D02*
X154634435Y-77216000D01*
X159424999Y-67129999D02*
X159488000Y-67193000D01*
X159424999Y-66740001D02*
X159424999Y-67129999D01*
X159488000Y-67193000D02*
X159488000Y-67818000D01*
X164280307Y-64262000D02*
X164845992Y-64262000D01*
X159500000Y-66040000D02*
X159500000Y-65415000D01*
X160653000Y-64262000D02*
X164280307Y-64262000D01*
X159500000Y-65415000D02*
X160653000Y-64262000D01*
X154432000Y-77408460D02*
X154717141Y-77693601D01*
X154432000Y-77216000D02*
X154432000Y-77408460D01*
X153416004Y-88392000D02*
X151007660Y-85983656D01*
X151007660Y-85983656D02*
X151007660Y-84450340D01*
X150890000Y-74218000D02*
X150890000Y-74182000D01*
X150890000Y-74182000D02*
X150876000Y-74168000D01*
X152654000Y-66040000D02*
X151638000Y-66040000D01*
D23*
X167982352Y-66636352D02*
X167982352Y-83944650D01*
X164069003Y-87857999D02*
X161570001Y-87857999D01*
X172046352Y-66636352D02*
X167982352Y-66636352D01*
X172720000Y-67310000D02*
X172046352Y-66636352D01*
X167982352Y-83944650D02*
X164069003Y-87857999D01*
X161570001Y-87857999D02*
X160020000Y-89408000D01*
X160020000Y-89408000D02*
X160020000Y-94234000D01*
D24*
X168148000Y-66470704D02*
X167982352Y-66636352D01*
X168148000Y-65024000D02*
X168148000Y-66470704D01*
X154522000Y-72386000D02*
X153225776Y-72386000D01*
X153225776Y-72386000D02*
X152708440Y-72903336D01*
X162741000Y-65532000D02*
X161601685Y-65532000D01*
X163272000Y-66063000D02*
X162741000Y-65532000D01*
X161601685Y-65532000D02*
X161036000Y-65532000D01*
X163272000Y-66788000D02*
X163272000Y-66063000D01*
X163272000Y-74154000D02*
X163308000Y-74154000D01*
X163308000Y-74154000D02*
X163322000Y-74168000D01*
X153725587Y-72886000D02*
X153321988Y-73289599D01*
X153321988Y-73289599D02*
X153321988Y-73587190D01*
X153289698Y-73619480D02*
X152889699Y-74019479D01*
X154522000Y-72886000D02*
X153725587Y-72886000D01*
X153321988Y-73587190D02*
X153289698Y-73619480D01*
X163272000Y-81520000D02*
X163287060Y-81520000D01*
X163287060Y-81520000D02*
X163311530Y-81544470D01*
X158722000Y-69686000D02*
X159422000Y-69686000D01*
X159422000Y-69686000D02*
X160528000Y-68580000D01*
X161164270Y-71386000D02*
X161226017Y-71447747D01*
X161544000Y-73212403D02*
X161571571Y-73184832D01*
X161544000Y-74930000D02*
X161544000Y-73212403D01*
X159422000Y-71386000D02*
X161164270Y-71386000D01*
X160165277Y-70886000D02*
X160442581Y-70608696D01*
X160528000Y-74930000D02*
X160528000Y-72836727D01*
X160528000Y-72836727D02*
X160447002Y-72755729D01*
X159422000Y-70886000D02*
X160165277Y-70886000D01*
X154271988Y-74536012D02*
X154271988Y-75556069D01*
X154522000Y-74286000D02*
X154271988Y-74536012D01*
X154271988Y-75556069D02*
X154124551Y-75703506D01*
X154124551Y-75703506D02*
X154124551Y-76269191D01*
X154522000Y-73886000D02*
X154522000Y-74286000D01*
X157467005Y-77869999D02*
X157213005Y-78123999D01*
X156355999Y-78123999D02*
X155956000Y-77724000D01*
X165472012Y-77869999D02*
X157467005Y-77869999D01*
X157213005Y-78123999D02*
X156355999Y-78123999D01*
X165872011Y-77470000D02*
X165472012Y-77869999D01*
X155222000Y-74586000D02*
X155222000Y-75555433D01*
X155222000Y-75555433D02*
X155017376Y-75760057D01*
X162001003Y-75546001D02*
X164649989Y-75546001D01*
X164649989Y-75546001D02*
X164649989Y-69782692D01*
X161601004Y-75946000D02*
X162001003Y-75546001D01*
X164649989Y-69782692D02*
X164965690Y-69466991D01*
X156972000Y-75946000D02*
X161601004Y-75946000D01*
X161951018Y-71795748D02*
X161951018Y-70003032D01*
X161943992Y-69996006D02*
X161543993Y-69596007D01*
X159422000Y-71886000D02*
X160591268Y-71886000D01*
X161951018Y-70003032D02*
X161943992Y-69996006D01*
X161574018Y-72172748D02*
X161951018Y-71795748D01*
X160878016Y-72172748D02*
X161574018Y-72172748D01*
X160591268Y-71886000D02*
X160878016Y-72172748D01*
X153771999Y-75336001D02*
X153053999Y-76054001D01*
X153861998Y-73386000D02*
X153771999Y-73475999D01*
X154522000Y-73386000D02*
X153861998Y-73386000D01*
X153771999Y-73475999D02*
X153771999Y-75336001D01*
X153053999Y-76054001D02*
X152654000Y-76454000D01*
X164553999Y-77254001D02*
X166882351Y-74925649D01*
X166882351Y-74925649D02*
X166882351Y-69315103D01*
X166882351Y-69315103D02*
X166882351Y-68749418D01*
X157010001Y-77254001D02*
X164553999Y-77254001D01*
X150154999Y-73092999D02*
X151189001Y-73092999D01*
X149814998Y-74422000D02*
X149814998Y-73433000D01*
X149814998Y-73433000D02*
X150154999Y-73092999D01*
X152396000Y-71886000D02*
X154522000Y-71886000D01*
X151189001Y-73092999D02*
X152396000Y-71886000D01*
X150288572Y-71386000D02*
X150190626Y-71288054D01*
X154522000Y-71386000D02*
X150288572Y-71386000D01*
X150538627Y-70563053D02*
X149842625Y-70563053D01*
X149842625Y-70563053D02*
X149460001Y-70945677D01*
X150861574Y-70886000D02*
X150538627Y-70563053D01*
X149460001Y-70945677D02*
X149460001Y-71990001D01*
X154522000Y-70886000D02*
X150861574Y-70886000D01*
X149460001Y-71990001D02*
X149860000Y-72390000D01*
D25*
G36*
X171422852Y-60745904D02*
G01*
X171132735Y-61180095D01*
X170932899Y-61662542D01*
X170831024Y-62174705D01*
X170831024Y-62696901D01*
X170932899Y-63209064D01*
X171132735Y-63691511D01*
X171422852Y-64125702D01*
X171792101Y-64494951D01*
X172226292Y-64785068D01*
X172708739Y-64984904D01*
X173220902Y-65086779D01*
X173743098Y-65086779D01*
X174255261Y-64984904D01*
X174737708Y-64785068D01*
X175171899Y-64494951D01*
X175362000Y-64304850D01*
X175362001Y-91856954D01*
X175171899Y-91666852D01*
X174737708Y-91376735D01*
X174255261Y-91176899D01*
X173743098Y-91075024D01*
X173220902Y-91075024D01*
X172708739Y-91176899D01*
X172226292Y-91376735D01*
X171792101Y-91666852D01*
X171422852Y-92036101D01*
X171132735Y-92470292D01*
X170932899Y-92952739D01*
X170831024Y-93464902D01*
X170831024Y-93987098D01*
X170932899Y-94499261D01*
X171132735Y-94981708D01*
X171422852Y-95415899D01*
X171612953Y-95606000D01*
X161234896Y-95606000D01*
X161321185Y-95535185D01*
X161400537Y-95438494D01*
X161459502Y-95328180D01*
X161495812Y-95208482D01*
X161508072Y-95084000D01*
X161508072Y-93384000D01*
X161495812Y-93259518D01*
X161459502Y-93139820D01*
X161400537Y-93029506D01*
X161321185Y-92932815D01*
X161224494Y-92853463D01*
X161155000Y-92816317D01*
X161155000Y-89878131D01*
X162040133Y-88992999D01*
X163611928Y-88992999D01*
X163611928Y-90258000D01*
X163624188Y-90382482D01*
X163660498Y-90502180D01*
X163719463Y-90612494D01*
X163798815Y-90709185D01*
X163895506Y-90788537D01*
X164005820Y-90847502D01*
X164125518Y-90883812D01*
X164250000Y-90896072D01*
X165950000Y-90896072D01*
X166074482Y-90883812D01*
X166194180Y-90847502D01*
X166304494Y-90788537D01*
X166401185Y-90709185D01*
X166480537Y-90612494D01*
X166539502Y-90502180D01*
X166561513Y-90429620D01*
X166693368Y-90561475D01*
X166936589Y-90723990D01*
X167206842Y-90835932D01*
X167493740Y-90893000D01*
X167786260Y-90893000D01*
X168073158Y-90835932D01*
X168343411Y-90723990D01*
X168586632Y-90561475D01*
X168793475Y-90354632D01*
X168915195Y-90172466D01*
X168984822Y-90289355D01*
X169179731Y-90505588D01*
X169413080Y-90679641D01*
X169675901Y-90804825D01*
X169823110Y-90849476D01*
X170053000Y-90728155D01*
X170053000Y-89535000D01*
X170033000Y-89535000D01*
X170033000Y-89281000D01*
X170053000Y-89281000D01*
X170053000Y-88087845D01*
X170307000Y-88087845D01*
X170307000Y-89281000D01*
X170327000Y-89281000D01*
X170327000Y-89535000D01*
X170307000Y-89535000D01*
X170307000Y-90728155D01*
X170536890Y-90849476D01*
X170684099Y-90804825D01*
X170946920Y-90679641D01*
X171180269Y-90505588D01*
X171375178Y-90289355D01*
X171444805Y-90172466D01*
X171566525Y-90354632D01*
X171773368Y-90561475D01*
X172016589Y-90723990D01*
X172286842Y-90835932D01*
X172573740Y-90893000D01*
X172866260Y-90893000D01*
X173153158Y-90835932D01*
X173423411Y-90723990D01*
X173666632Y-90561475D01*
X173873475Y-90354632D01*
X174035990Y-90111411D01*
X174147932Y-89841158D01*
X174205000Y-89554260D01*
X174205000Y-89261740D01*
X174147932Y-88974842D01*
X174035990Y-88704589D01*
X173873475Y-88461368D01*
X173666632Y-88254525D01*
X173423411Y-88092010D01*
X173153158Y-87980068D01*
X172866260Y-87923000D01*
X172573740Y-87923000D01*
X172286842Y-87980068D01*
X172016589Y-88092010D01*
X171773368Y-88254525D01*
X171566525Y-88461368D01*
X171444805Y-88643534D01*
X171375178Y-88526645D01*
X171180269Y-88310412D01*
X170946920Y-88136359D01*
X170684099Y-88011175D01*
X170536890Y-87966524D01*
X170307000Y-88087845D01*
X170053000Y-88087845D01*
X169823110Y-87966524D01*
X169675901Y-88011175D01*
X169413080Y-88136359D01*
X169179731Y-88310412D01*
X168984822Y-88526645D01*
X168915195Y-88643534D01*
X168793475Y-88461368D01*
X168586632Y-88254525D01*
X168343411Y-88092010D01*
X168073158Y-87980068D01*
X167786260Y-87923000D01*
X167493740Y-87923000D01*
X167206842Y-87980068D01*
X166936589Y-88092010D01*
X166693368Y-88254525D01*
X166561513Y-88386380D01*
X166539502Y-88313820D01*
X166480537Y-88203506D01*
X166401185Y-88106815D01*
X166304494Y-88027463D01*
X166194180Y-87968498D01*
X166074482Y-87932188D01*
X165950000Y-87919928D01*
X165612205Y-87919928D01*
X168233928Y-85298206D01*
X168233928Y-85420000D01*
X168246188Y-85544482D01*
X168282498Y-85664180D01*
X168341463Y-85774494D01*
X168420815Y-85871185D01*
X168517506Y-85950537D01*
X168627820Y-86009502D01*
X168747518Y-86045812D01*
X168872000Y-86058072D01*
X170472000Y-86058072D01*
X170596482Y-86045812D01*
X170716180Y-86009502D01*
X170826494Y-85950537D01*
X170923185Y-85871185D01*
X171002537Y-85774494D01*
X171061502Y-85664180D01*
X171097812Y-85544482D01*
X171110072Y-85420000D01*
X171110072Y-85002000D01*
X171231928Y-85002000D01*
X171231928Y-86702000D01*
X171244188Y-86826482D01*
X171280498Y-86946180D01*
X171339463Y-87056494D01*
X171418815Y-87153185D01*
X171515506Y-87232537D01*
X171625820Y-87291502D01*
X171745518Y-87327812D01*
X171870000Y-87340072D01*
X173570000Y-87340072D01*
X173694482Y-87327812D01*
X173814180Y-87291502D01*
X173924494Y-87232537D01*
X174021185Y-87153185D01*
X174100537Y-87056494D01*
X174159502Y-86946180D01*
X174195812Y-86826482D01*
X174208072Y-86702000D01*
X174208072Y-85002000D01*
X174195812Y-84877518D01*
X174159502Y-84757820D01*
X174100537Y-84647506D01*
X174021185Y-84550815D01*
X173924494Y-84471463D01*
X173814180Y-84412498D01*
X173694482Y-84376188D01*
X173570000Y-84363928D01*
X171870000Y-84363928D01*
X171745518Y-84376188D01*
X171625820Y-84412498D01*
X171515506Y-84471463D01*
X171418815Y-84550815D01*
X171339463Y-84647506D01*
X171280498Y-84757820D01*
X171244188Y-84877518D01*
X171231928Y-85002000D01*
X171110072Y-85002000D01*
X171110072Y-82220000D01*
X171097812Y-82095518D01*
X171067974Y-81997157D01*
X172187060Y-80878072D01*
X174220000Y-80878072D01*
X174344482Y-80865812D01*
X174464180Y-80829502D01*
X174574494Y-80770537D01*
X174671185Y-80691185D01*
X174750537Y-80594494D01*
X174809502Y-80484180D01*
X174845812Y-80364482D01*
X174858072Y-80240000D01*
X174858072Y-77240000D01*
X174845812Y-77115518D01*
X174809502Y-76995820D01*
X174750537Y-76885506D01*
X174709088Y-76835000D01*
X174750537Y-76784494D01*
X174809502Y-76674180D01*
X174845812Y-76554482D01*
X174858072Y-76430000D01*
X174858072Y-73430000D01*
X174845812Y-73305518D01*
X174809502Y-73185820D01*
X174750537Y-73075506D01*
X174709088Y-73025000D01*
X174750537Y-72974494D01*
X174809502Y-72864180D01*
X174845812Y-72744482D01*
X174858072Y-72620000D01*
X174858072Y-69620000D01*
X174845812Y-69495518D01*
X174809502Y-69375820D01*
X174750537Y-69265506D01*
X174709088Y-69215000D01*
X174750537Y-69164494D01*
X174809502Y-69054180D01*
X174845812Y-68934482D01*
X174858072Y-68810000D01*
X174858072Y-65810000D01*
X174845812Y-65685518D01*
X174809502Y-65565820D01*
X174750537Y-65455506D01*
X174671185Y-65358815D01*
X174574494Y-65279463D01*
X174464180Y-65220498D01*
X174344482Y-65184188D01*
X174220000Y-65171928D01*
X171220000Y-65171928D01*
X171095518Y-65184188D01*
X170975820Y-65220498D01*
X170865506Y-65279463D01*
X170768815Y-65358815D01*
X170689463Y-65455506D01*
X170664957Y-65501352D01*
X169070550Y-65501352D01*
X169143226Y-65325898D01*
X169183000Y-65125939D01*
X169183000Y-64922061D01*
X169143226Y-64722102D01*
X169065205Y-64533744D01*
X168951937Y-64364226D01*
X168807774Y-64220063D01*
X168638256Y-64106795D01*
X168449898Y-64028774D01*
X168249939Y-63989000D01*
X168046061Y-63989000D01*
X167846102Y-64028774D01*
X167657744Y-64106795D01*
X167488226Y-64220063D01*
X167344063Y-64364226D01*
X167230795Y-64533744D01*
X167152774Y-64722102D01*
X167113000Y-64922061D01*
X167113000Y-65125939D01*
X167152774Y-65325898D01*
X167230795Y-65514256D01*
X167344063Y-65683774D01*
X167348525Y-65688236D01*
X167175903Y-65829903D01*
X167034068Y-66002729D01*
X166928676Y-66199905D01*
X166863775Y-66413853D01*
X166841861Y-66636352D01*
X166847352Y-66692104D01*
X166847352Y-67714418D01*
X166780412Y-67714418D01*
X166580453Y-67754192D01*
X166392095Y-67832213D01*
X166222577Y-67945481D01*
X166078414Y-68089644D01*
X165965146Y-68259162D01*
X165887125Y-68447520D01*
X165847351Y-68647479D01*
X165847351Y-68851357D01*
X165867795Y-68954136D01*
X165769627Y-68807217D01*
X165625464Y-68663054D01*
X165455946Y-68549786D01*
X165267588Y-68471765D01*
X165067629Y-68431991D01*
X164863751Y-68431991D01*
X164691083Y-68466336D01*
X164661502Y-68368820D01*
X164602537Y-68258506D01*
X164523185Y-68161815D01*
X164426494Y-68082463D01*
X164316180Y-68023498D01*
X164196482Y-67987188D01*
X164072000Y-67974928D01*
X162472000Y-67974928D01*
X162347518Y-67987188D01*
X162227820Y-68023498D01*
X162117506Y-68082463D01*
X162020815Y-68161815D01*
X161941463Y-68258506D01*
X161882498Y-68368820D01*
X161846188Y-68488518D01*
X161835338Y-68598682D01*
X161645932Y-68561007D01*
X161563000Y-68561007D01*
X161563000Y-68478061D01*
X161523226Y-68278102D01*
X161445205Y-68089744D01*
X161331937Y-67920226D01*
X161187774Y-67776063D01*
X161018256Y-67662795D01*
X160829898Y-67584774D01*
X160629939Y-67545000D01*
X160526072Y-67545000D01*
X160526072Y-67443000D01*
X160513812Y-67318518D01*
X160477502Y-67198820D01*
X160418537Y-67088506D01*
X160339185Y-66991815D01*
X160268644Y-66933924D01*
X160351185Y-66866185D01*
X160430537Y-66769494D01*
X160489502Y-66659180D01*
X160525812Y-66539482D01*
X160535385Y-66442283D01*
X160545744Y-66449205D01*
X160734102Y-66527226D01*
X160934061Y-66567000D01*
X161137939Y-66567000D01*
X161337898Y-66527226D01*
X161526256Y-66449205D01*
X161695774Y-66335937D01*
X161739711Y-66292000D01*
X161835996Y-66292000D01*
X161833928Y-66313000D01*
X161833928Y-67263000D01*
X161846188Y-67387482D01*
X161882498Y-67507180D01*
X161941463Y-67617494D01*
X162020815Y-67714185D01*
X162117506Y-67793537D01*
X162227820Y-67852502D01*
X162347518Y-67888812D01*
X162472000Y-67901072D01*
X164072000Y-67901072D01*
X164196482Y-67888812D01*
X164316180Y-67852502D01*
X164426494Y-67793537D01*
X164523185Y-67714185D01*
X164602537Y-67617494D01*
X164661502Y-67507180D01*
X164697812Y-67387482D01*
X164710072Y-67263000D01*
X164710072Y-66313000D01*
X164697812Y-66188518D01*
X164661502Y-66068820D01*
X164602537Y-65958506D01*
X164523185Y-65861815D01*
X164426494Y-65782463D01*
X164316180Y-65723498D01*
X164196482Y-65687188D01*
X164072000Y-65674928D01*
X163926326Y-65674928D01*
X163906974Y-65638724D01*
X163860977Y-65582676D01*
X163835799Y-65551996D01*
X163835795Y-65551992D01*
X163812001Y-65522999D01*
X163783007Y-65499205D01*
X163305801Y-65022000D01*
X164142281Y-65022000D01*
X164186218Y-65065937D01*
X164355736Y-65179205D01*
X164544094Y-65257226D01*
X164744053Y-65297000D01*
X164947931Y-65297000D01*
X165147890Y-65257226D01*
X165336248Y-65179205D01*
X165505766Y-65065937D01*
X165649929Y-64921774D01*
X165763197Y-64752256D01*
X165841218Y-64563898D01*
X165880992Y-64363939D01*
X165880992Y-64160061D01*
X165841218Y-63960102D01*
X165763197Y-63771744D01*
X165649929Y-63602226D01*
X165505766Y-63458063D01*
X165336248Y-63344795D01*
X165147890Y-63266774D01*
X164947931Y-63227000D01*
X164744053Y-63227000D01*
X164544094Y-63266774D01*
X164355736Y-63344795D01*
X164186218Y-63458063D01*
X164142281Y-63502000D01*
X160690322Y-63502000D01*
X160652999Y-63498324D01*
X160615676Y-63502000D01*
X160615667Y-63502000D01*
X160504014Y-63512997D01*
X160360753Y-63556454D01*
X160228724Y-63627026D01*
X160112999Y-63721999D01*
X160089201Y-63750997D01*
X158988998Y-64851201D01*
X158960000Y-64874999D01*
X158936202Y-64903997D01*
X158936201Y-64903998D01*
X158865026Y-64990724D01*
X158824824Y-65065937D01*
X158805270Y-65102518D01*
X158750000Y-65132061D01*
X158644180Y-65075498D01*
X158524482Y-65039188D01*
X158400000Y-65026928D01*
X158285750Y-65030000D01*
X158127000Y-65188750D01*
X158127000Y-65913000D01*
X158147000Y-65913000D01*
X158147000Y-65980001D01*
X157853000Y-65980001D01*
X157853000Y-65913000D01*
X157873000Y-65913000D01*
X157873000Y-65188750D01*
X157714250Y-65030000D01*
X157600000Y-65026928D01*
X157475518Y-65039188D01*
X157355820Y-65075498D01*
X157245506Y-65134463D01*
X157148815Y-65213815D01*
X157069463Y-65310506D01*
X157010498Y-65420820D01*
X156974188Y-65540518D01*
X156972000Y-65562734D01*
X156969812Y-65540518D01*
X156933502Y-65420820D01*
X156874537Y-65310506D01*
X156795185Y-65213815D01*
X156698494Y-65134463D01*
X156588180Y-65075498D01*
X156468482Y-65039188D01*
X156344000Y-65026928D01*
X155544000Y-65026928D01*
X155419518Y-65039188D01*
X155299820Y-65075498D01*
X155194000Y-65132061D01*
X155088180Y-65075498D01*
X154968482Y-65039188D01*
X154844000Y-65026928D01*
X154729750Y-65030000D01*
X154571000Y-65188750D01*
X154571000Y-65913000D01*
X154591000Y-65913000D01*
X154591000Y-65980001D01*
X154297000Y-65980001D01*
X154297000Y-65913000D01*
X154317000Y-65913000D01*
X154317000Y-65188750D01*
X154158250Y-65030000D01*
X154044000Y-65026928D01*
X153919518Y-65039188D01*
X153799820Y-65075498D01*
X153689506Y-65134463D01*
X153592815Y-65213815D01*
X153513463Y-65310506D01*
X153468081Y-65395408D01*
X153457937Y-65380226D01*
X153313774Y-65236063D01*
X153144256Y-65122795D01*
X152955898Y-65044774D01*
X152755939Y-65005000D01*
X152552061Y-65005000D01*
X152352102Y-65044774D01*
X152279726Y-65074753D01*
X152162482Y-65039188D01*
X152038000Y-65026928D01*
X151238000Y-65026928D01*
X151113518Y-65039188D01*
X150993820Y-65075498D01*
X150888000Y-65132061D01*
X150782180Y-65075498D01*
X150662482Y-65039188D01*
X150538000Y-65026928D01*
X150423750Y-65030000D01*
X150265000Y-65188750D01*
X150265000Y-65913000D01*
X150285000Y-65913000D01*
X150285000Y-66167000D01*
X150265000Y-66167000D01*
X150265000Y-66187000D01*
X150011000Y-66187000D01*
X150011000Y-66167000D01*
X149261750Y-66167000D01*
X149161892Y-66266858D01*
X149153799Y-66256996D01*
X149153795Y-66256992D01*
X149130001Y-66227999D01*
X149101008Y-66204205D01*
X148561802Y-65665000D01*
X149099928Y-65665000D01*
X149103000Y-65754250D01*
X149261750Y-65913000D01*
X150011000Y-65913000D01*
X150011000Y-65188750D01*
X149852250Y-65030000D01*
X149738000Y-65026928D01*
X149613518Y-65039188D01*
X149493820Y-65075498D01*
X149383506Y-65134463D01*
X149286815Y-65213815D01*
X149207463Y-65310506D01*
X149148498Y-65420820D01*
X149112188Y-65540518D01*
X149099928Y-65665000D01*
X148561802Y-65665000D01*
X148425803Y-65529002D01*
X148402001Y-65499999D01*
X148286276Y-65405026D01*
X148154247Y-65334454D01*
X148010986Y-65290997D01*
X147977848Y-65287733D01*
X147917185Y-65213815D01*
X147820494Y-65134463D01*
X147710180Y-65075498D01*
X147590482Y-65039188D01*
X147466000Y-65026928D01*
X147119991Y-65026928D01*
X147331261Y-64984904D01*
X147813708Y-64785068D01*
X148247899Y-64494951D01*
X148617148Y-64125702D01*
X148907265Y-63691511D01*
X149107101Y-63209064D01*
X149208976Y-62696901D01*
X149208976Y-62174705D01*
X149107101Y-61662542D01*
X148907265Y-61180095D01*
X148617148Y-60745904D01*
X148475244Y-60604000D01*
X171564756Y-60604000D01*
X171422852Y-60745904D01*
G37*
X171422852Y-60745904D02*
X171132735Y-61180095D01*
X170932899Y-61662542D01*
X170831024Y-62174705D01*
X170831024Y-62696901D01*
X170932899Y-63209064D01*
X171132735Y-63691511D01*
X171422852Y-64125702D01*
X171792101Y-64494951D01*
X172226292Y-64785068D01*
X172708739Y-64984904D01*
X173220902Y-65086779D01*
X173743098Y-65086779D01*
X174255261Y-64984904D01*
X174737708Y-64785068D01*
X175171899Y-64494951D01*
X175362000Y-64304850D01*
X175362001Y-91856954D01*
X175171899Y-91666852D01*
X174737708Y-91376735D01*
X174255261Y-91176899D01*
X173743098Y-91075024D01*
X173220902Y-91075024D01*
X172708739Y-91176899D01*
X172226292Y-91376735D01*
X171792101Y-91666852D01*
X171422852Y-92036101D01*
X171132735Y-92470292D01*
X170932899Y-92952739D01*
X170831024Y-93464902D01*
X170831024Y-93987098D01*
X170932899Y-94499261D01*
X171132735Y-94981708D01*
X171422852Y-95415899D01*
X171612953Y-95606000D01*
X161234896Y-95606000D01*
X161321185Y-95535185D01*
X161400537Y-95438494D01*
X161459502Y-95328180D01*
X161495812Y-95208482D01*
X161508072Y-95084000D01*
X161508072Y-93384000D01*
X161495812Y-93259518D01*
X161459502Y-93139820D01*
X161400537Y-93029506D01*
X161321185Y-92932815D01*
X161224494Y-92853463D01*
X161155000Y-92816317D01*
X161155000Y-89878131D01*
X162040133Y-88992999D01*
X163611928Y-88992999D01*
X163611928Y-90258000D01*
X163624188Y-90382482D01*
X163660498Y-90502180D01*
X163719463Y-90612494D01*
X163798815Y-90709185D01*
X163895506Y-90788537D01*
X164005820Y-90847502D01*
X164125518Y-90883812D01*
X164250000Y-90896072D01*
X165950000Y-90896072D01*
X166074482Y-90883812D01*
X166194180Y-90847502D01*
X166304494Y-90788537D01*
X166401185Y-90709185D01*
X166480537Y-90612494D01*
X166539502Y-90502180D01*
X166561513Y-90429620D01*
X166693368Y-90561475D01*
X166936589Y-90723990D01*
X167206842Y-90835932D01*
X167493740Y-90893000D01*
X167786260Y-90893000D01*
X168073158Y-90835932D01*
X168343411Y-90723990D01*
X168586632Y-90561475D01*
X168793475Y-90354632D01*
X168915195Y-90172466D01*
X168984822Y-90289355D01*
X169179731Y-90505588D01*
X169413080Y-90679641D01*
X169675901Y-90804825D01*
X169823110Y-90849476D01*
X170053000Y-90728155D01*
X170053000Y-89535000D01*
X170033000Y-89535000D01*
X170033000Y-89281000D01*
X170053000Y-89281000D01*
X170053000Y-88087845D01*
X170307000Y-88087845D01*
X170307000Y-89281000D01*
X170327000Y-89281000D01*
X170327000Y-89535000D01*
X170307000Y-89535000D01*
X170307000Y-90728155D01*
X170536890Y-90849476D01*
X170684099Y-90804825D01*
X170946920Y-90679641D01*
X171180269Y-90505588D01*
X171375178Y-90289355D01*
X171444805Y-90172466D01*
X171566525Y-90354632D01*
X171773368Y-90561475D01*
X172016589Y-90723990D01*
X172286842Y-90835932D01*
X172573740Y-90893000D01*
X172866260Y-90893000D01*
X173153158Y-90835932D01*
X173423411Y-90723990D01*
X173666632Y-90561475D01*
X173873475Y-90354632D01*
X174035990Y-90111411D01*
X174147932Y-89841158D01*
X174205000Y-89554260D01*
X174205000Y-89261740D01*
X174147932Y-88974842D01*
X174035990Y-88704589D01*
X173873475Y-88461368D01*
X173666632Y-88254525D01*
X173423411Y-88092010D01*
X173153158Y-87980068D01*
X172866260Y-87923000D01*
X172573740Y-87923000D01*
X172286842Y-87980068D01*
X172016589Y-88092010D01*
X171773368Y-88254525D01*
X171566525Y-88461368D01*
X171444805Y-88643534D01*
X171375178Y-88526645D01*
X171180269Y-88310412D01*
X170946920Y-88136359D01*
X170684099Y-88011175D01*
X170536890Y-87966524D01*
X170307000Y-88087845D01*
X170053000Y-88087845D01*
X169823110Y-87966524D01*
X169675901Y-88011175D01*
X169413080Y-88136359D01*
X169179731Y-88310412D01*
X168984822Y-88526645D01*
X168915195Y-88643534D01*
X168793475Y-88461368D01*
X168586632Y-88254525D01*
X168343411Y-88092010D01*
X168073158Y-87980068D01*
X167786260Y-87923000D01*
X167493740Y-87923000D01*
X167206842Y-87980068D01*
X166936589Y-88092010D01*
X166693368Y-88254525D01*
X166561513Y-88386380D01*
X166539502Y-88313820D01*
X166480537Y-88203506D01*
X166401185Y-88106815D01*
X166304494Y-88027463D01*
X166194180Y-87968498D01*
X166074482Y-87932188D01*
X165950000Y-87919928D01*
X165612205Y-87919928D01*
X168233928Y-85298206D01*
X168233928Y-85420000D01*
X168246188Y-85544482D01*
X168282498Y-85664180D01*
X168341463Y-85774494D01*
X168420815Y-85871185D01*
X168517506Y-85950537D01*
X168627820Y-86009502D01*
X168747518Y-86045812D01*
X168872000Y-86058072D01*
X170472000Y-86058072D01*
X170596482Y-86045812D01*
X170716180Y-86009502D01*
X170826494Y-85950537D01*
X170923185Y-85871185D01*
X171002537Y-85774494D01*
X171061502Y-85664180D01*
X171097812Y-85544482D01*
X171110072Y-85420000D01*
X171110072Y-85002000D01*
X171231928Y-85002000D01*
X171231928Y-86702000D01*
X171244188Y-86826482D01*
X171280498Y-86946180D01*
X171339463Y-87056494D01*
X171418815Y-87153185D01*
X171515506Y-87232537D01*
X171625820Y-87291502D01*
X171745518Y-87327812D01*
X171870000Y-87340072D01*
X173570000Y-87340072D01*
X173694482Y-87327812D01*
X173814180Y-87291502D01*
X173924494Y-87232537D01*
X174021185Y-87153185D01*
X174100537Y-87056494D01*
X174159502Y-86946180D01*
X174195812Y-86826482D01*
X174208072Y-86702000D01*
X174208072Y-85002000D01*
X174195812Y-84877518D01*
X174159502Y-84757820D01*
X174100537Y-84647506D01*
X174021185Y-84550815D01*
X173924494Y-84471463D01*
X173814180Y-84412498D01*
X173694482Y-84376188D01*
X173570000Y-84363928D01*
X171870000Y-84363928D01*
X171745518Y-84376188D01*
X171625820Y-84412498D01*
X171515506Y-84471463D01*
X171418815Y-84550815D01*
X171339463Y-84647506D01*
X171280498Y-84757820D01*
X171244188Y-84877518D01*
X171231928Y-85002000D01*
X171110072Y-85002000D01*
X171110072Y-82220000D01*
X171097812Y-82095518D01*
X171067974Y-81997157D01*
X172187060Y-80878072D01*
X174220000Y-80878072D01*
X174344482Y-80865812D01*
X174464180Y-80829502D01*
X174574494Y-80770537D01*
X174671185Y-80691185D01*
X174750537Y-80594494D01*
X174809502Y-80484180D01*
X174845812Y-80364482D01*
X174858072Y-80240000D01*
X174858072Y-77240000D01*
X174845812Y-77115518D01*
X174809502Y-76995820D01*
X174750537Y-76885506D01*
X174709088Y-76835000D01*
X174750537Y-76784494D01*
X174809502Y-76674180D01*
X174845812Y-76554482D01*
X174858072Y-76430000D01*
X174858072Y-73430000D01*
X174845812Y-73305518D01*
X174809502Y-73185820D01*
X174750537Y-73075506D01*
X174709088Y-73025000D01*
X174750537Y-72974494D01*
X174809502Y-72864180D01*
X174845812Y-72744482D01*
X174858072Y-72620000D01*
X174858072Y-69620000D01*
X174845812Y-69495518D01*
X174809502Y-69375820D01*
X174750537Y-69265506D01*
X174709088Y-69215000D01*
X174750537Y-69164494D01*
X174809502Y-69054180D01*
X174845812Y-68934482D01*
X174858072Y-68810000D01*
X174858072Y-65810000D01*
X174845812Y-65685518D01*
X174809502Y-65565820D01*
X174750537Y-65455506D01*
X174671185Y-65358815D01*
X174574494Y-65279463D01*
X174464180Y-65220498D01*
X174344482Y-65184188D01*
X174220000Y-65171928D01*
X171220000Y-65171928D01*
X171095518Y-65184188D01*
X170975820Y-65220498D01*
X170865506Y-65279463D01*
X170768815Y-65358815D01*
X170689463Y-65455506D01*
X170664957Y-65501352D01*
X169070550Y-65501352D01*
X169143226Y-65325898D01*
X169183000Y-65125939D01*
X169183000Y-64922061D01*
X169143226Y-64722102D01*
X169065205Y-64533744D01*
X168951937Y-64364226D01*
X168807774Y-64220063D01*
X168638256Y-64106795D01*
X168449898Y-64028774D01*
X168249939Y-63989000D01*
X168046061Y-63989000D01*
X167846102Y-64028774D01*
X167657744Y-64106795D01*
X167488226Y-64220063D01*
X167344063Y-64364226D01*
X167230795Y-64533744D01*
X167152774Y-64722102D01*
X167113000Y-64922061D01*
X167113000Y-65125939D01*
X167152774Y-65325898D01*
X167230795Y-65514256D01*
X167344063Y-65683774D01*
X167348525Y-65688236D01*
X167175903Y-65829903D01*
X167034068Y-66002729D01*
X166928676Y-66199905D01*
X166863775Y-66413853D01*
X166841861Y-66636352D01*
X166847352Y-66692104D01*
X166847352Y-67714418D01*
X166780412Y-67714418D01*
X166580453Y-67754192D01*
X166392095Y-67832213D01*
X166222577Y-67945481D01*
X166078414Y-68089644D01*
X165965146Y-68259162D01*
X165887125Y-68447520D01*
X165847351Y-68647479D01*
X165847351Y-68851357D01*
X165867795Y-68954136D01*
X165769627Y-68807217D01*
X165625464Y-68663054D01*
X165455946Y-68549786D01*
X165267588Y-68471765D01*
X165067629Y-68431991D01*
X164863751Y-68431991D01*
X164691083Y-68466336D01*
X164661502Y-68368820D01*
X164602537Y-68258506D01*
X164523185Y-68161815D01*
X164426494Y-68082463D01*
X164316180Y-68023498D01*
X164196482Y-67987188D01*
X164072000Y-67974928D01*
X162472000Y-67974928D01*
X162347518Y-67987188D01*
X162227820Y-68023498D01*
X162117506Y-68082463D01*
X162020815Y-68161815D01*
X161941463Y-68258506D01*
X161882498Y-68368820D01*
X161846188Y-68488518D01*
X161835338Y-68598682D01*
X161645932Y-68561007D01*
X161563000Y-68561007D01*
X161563000Y-68478061D01*
X161523226Y-68278102D01*
X161445205Y-68089744D01*
X161331937Y-67920226D01*
X161187774Y-67776063D01*
X161018256Y-67662795D01*
X160829898Y-67584774D01*
X160629939Y-67545000D01*
X160526072Y-67545000D01*
X160526072Y-67443000D01*
X160513812Y-67318518D01*
X160477502Y-67198820D01*
X160418537Y-67088506D01*
X160339185Y-66991815D01*
X160268644Y-66933924D01*
X160351185Y-66866185D01*
X160430537Y-66769494D01*
X160489502Y-66659180D01*
X160525812Y-66539482D01*
X160535385Y-66442283D01*
X160545744Y-66449205D01*
X160734102Y-66527226D01*
X160934061Y-66567000D01*
X161137939Y-66567000D01*
X161337898Y-66527226D01*
X161526256Y-66449205D01*
X161695774Y-66335937D01*
X161739711Y-66292000D01*
X161835996Y-66292000D01*
X161833928Y-66313000D01*
X161833928Y-67263000D01*
X161846188Y-67387482D01*
X161882498Y-67507180D01*
X161941463Y-67617494D01*
X162020815Y-67714185D01*
X162117506Y-67793537D01*
X162227820Y-67852502D01*
X162347518Y-67888812D01*
X162472000Y-67901072D01*
X164072000Y-67901072D01*
X164196482Y-67888812D01*
X164316180Y-67852502D01*
X164426494Y-67793537D01*
X164523185Y-67714185D01*
X164602537Y-67617494D01*
X164661502Y-67507180D01*
X164697812Y-67387482D01*
X164710072Y-67263000D01*
X164710072Y-66313000D01*
X164697812Y-66188518D01*
X164661502Y-66068820D01*
X164602537Y-65958506D01*
X164523185Y-65861815D01*
X164426494Y-65782463D01*
X164316180Y-65723498D01*
X164196482Y-65687188D01*
X164072000Y-65674928D01*
X163926326Y-65674928D01*
X163906974Y-65638724D01*
X163860977Y-65582676D01*
X163835799Y-65551996D01*
X163835795Y-65551992D01*
X163812001Y-65522999D01*
X163783007Y-65499205D01*
X163305801Y-65022000D01*
X164142281Y-65022000D01*
X164186218Y-65065937D01*
X164355736Y-65179205D01*
X164544094Y-65257226D01*
X164744053Y-65297000D01*
X164947931Y-65297000D01*
X165147890Y-65257226D01*
X165336248Y-65179205D01*
X165505766Y-65065937D01*
X165649929Y-64921774D01*
X165763197Y-64752256D01*
X165841218Y-64563898D01*
X165880992Y-64363939D01*
X165880992Y-64160061D01*
X165841218Y-63960102D01*
X165763197Y-63771744D01*
X165649929Y-63602226D01*
X165505766Y-63458063D01*
X165336248Y-63344795D01*
X165147890Y-63266774D01*
X164947931Y-63227000D01*
X164744053Y-63227000D01*
X164544094Y-63266774D01*
X164355736Y-63344795D01*
X164186218Y-63458063D01*
X164142281Y-63502000D01*
X160690322Y-63502000D01*
X160652999Y-63498324D01*
X160615676Y-63502000D01*
X160615667Y-63502000D01*
X160504014Y-63512997D01*
X160360753Y-63556454D01*
X160228724Y-63627026D01*
X160112999Y-63721999D01*
X160089201Y-63750997D01*
X158988998Y-64851201D01*
X158960000Y-64874999D01*
X158936202Y-64903997D01*
X158936201Y-64903998D01*
X158865026Y-64990724D01*
X158824824Y-65065937D01*
X158805270Y-65102518D01*
X158750000Y-65132061D01*
X158644180Y-65075498D01*
X158524482Y-65039188D01*
X158400000Y-65026928D01*
X158285750Y-65030000D01*
X158127000Y-65188750D01*
X158127000Y-65913000D01*
X158147000Y-65913000D01*
X158147000Y-65980001D01*
X157853000Y-65980001D01*
X157853000Y-65913000D01*
X157873000Y-65913000D01*
X157873000Y-65188750D01*
X157714250Y-65030000D01*
X157600000Y-65026928D01*
X157475518Y-65039188D01*
X157355820Y-65075498D01*
X157245506Y-65134463D01*
X157148815Y-65213815D01*
X157069463Y-65310506D01*
X157010498Y-65420820D01*
X156974188Y-65540518D01*
X156972000Y-65562734D01*
X156969812Y-65540518D01*
X156933502Y-65420820D01*
X156874537Y-65310506D01*
X156795185Y-65213815D01*
X156698494Y-65134463D01*
X156588180Y-65075498D01*
X156468482Y-65039188D01*
X156344000Y-65026928D01*
X155544000Y-65026928D01*
X155419518Y-65039188D01*
X155299820Y-65075498D01*
X155194000Y-65132061D01*
X155088180Y-65075498D01*
X154968482Y-65039188D01*
X154844000Y-65026928D01*
X154729750Y-65030000D01*
X154571000Y-65188750D01*
X154571000Y-65913000D01*
X154591000Y-65913000D01*
X154591000Y-65980001D01*
X154297000Y-65980001D01*
X154297000Y-65913000D01*
X154317000Y-65913000D01*
X154317000Y-65188750D01*
X154158250Y-65030000D01*
X154044000Y-65026928D01*
X153919518Y-65039188D01*
X153799820Y-65075498D01*
X153689506Y-65134463D01*
X153592815Y-65213815D01*
X153513463Y-65310506D01*
X153468081Y-65395408D01*
X153457937Y-65380226D01*
X153313774Y-65236063D01*
X153144256Y-65122795D01*
X152955898Y-65044774D01*
X152755939Y-65005000D01*
X152552061Y-65005000D01*
X152352102Y-65044774D01*
X152279726Y-65074753D01*
X152162482Y-65039188D01*
X152038000Y-65026928D01*
X151238000Y-65026928D01*
X151113518Y-65039188D01*
X150993820Y-65075498D01*
X150888000Y-65132061D01*
X150782180Y-65075498D01*
X150662482Y-65039188D01*
X150538000Y-65026928D01*
X150423750Y-65030000D01*
X150265000Y-65188750D01*
X150265000Y-65913000D01*
X150285000Y-65913000D01*
X150285000Y-66167000D01*
X150265000Y-66167000D01*
X150265000Y-66187000D01*
X150011000Y-66187000D01*
X150011000Y-66167000D01*
X149261750Y-66167000D01*
X149161892Y-66266858D01*
X149153799Y-66256996D01*
X149153795Y-66256992D01*
X149130001Y-66227999D01*
X149101008Y-66204205D01*
X148561802Y-65665000D01*
X149099928Y-65665000D01*
X149103000Y-65754250D01*
X149261750Y-65913000D01*
X150011000Y-65913000D01*
X150011000Y-65188750D01*
X149852250Y-65030000D01*
X149738000Y-65026928D01*
X149613518Y-65039188D01*
X149493820Y-65075498D01*
X149383506Y-65134463D01*
X149286815Y-65213815D01*
X149207463Y-65310506D01*
X149148498Y-65420820D01*
X149112188Y-65540518D01*
X149099928Y-65665000D01*
X148561802Y-65665000D01*
X148425803Y-65529002D01*
X148402001Y-65499999D01*
X148286276Y-65405026D01*
X148154247Y-65334454D01*
X148010986Y-65290997D01*
X147977848Y-65287733D01*
X147917185Y-65213815D01*
X147820494Y-65134463D01*
X147710180Y-65075498D01*
X147590482Y-65039188D01*
X147466000Y-65026928D01*
X147119991Y-65026928D01*
X147331261Y-64984904D01*
X147813708Y-64785068D01*
X148247899Y-64494951D01*
X148617148Y-64125702D01*
X148907265Y-63691511D01*
X149107101Y-63209064D01*
X149208976Y-62696901D01*
X149208976Y-62174705D01*
X149107101Y-61662542D01*
X148907265Y-61180095D01*
X148617148Y-60745904D01*
X148475244Y-60604000D01*
X171564756Y-60604000D01*
X171422852Y-60745904D01*
G36*
X149095000Y-80486250D02*
G01*
X149253750Y-80645000D01*
X151353000Y-80645000D01*
X151353000Y-80625000D01*
X151607000Y-80625000D01*
X151607000Y-80645000D01*
X151627000Y-80645000D01*
X151627000Y-80899000D01*
X151607000Y-80899000D01*
X151607000Y-82998250D01*
X151765750Y-83157000D01*
X152437345Y-83158409D01*
X152375506Y-83191463D01*
X152278815Y-83270815D01*
X152199463Y-83367506D01*
X152140498Y-83477820D01*
X152104188Y-83597518D01*
X152091928Y-83722000D01*
X152091928Y-85993123D01*
X151767660Y-85668855D01*
X151767660Y-85154051D01*
X151811597Y-85110114D01*
X151924865Y-84940596D01*
X152002886Y-84752238D01*
X152042660Y-84552279D01*
X152042660Y-84348401D01*
X152002886Y-84148442D01*
X151924865Y-83960084D01*
X151811597Y-83790566D01*
X151667434Y-83646403D01*
X151497916Y-83533135D01*
X151309558Y-83455114D01*
X151109599Y-83415340D01*
X150905721Y-83415340D01*
X150705762Y-83455114D01*
X150517404Y-83533135D01*
X150347886Y-83646403D01*
X150203723Y-83790566D01*
X150090455Y-83960084D01*
X150012434Y-84148442D01*
X149972660Y-84348401D01*
X149972660Y-84552279D01*
X150012434Y-84752238D01*
X150090455Y-84940596D01*
X150203723Y-85110114D01*
X150247661Y-85154052D01*
X150247660Y-85946333D01*
X150243984Y-85983656D01*
X150247660Y-86020978D01*
X150247660Y-86020988D01*
X150258657Y-86132641D01*
X150293347Y-86247000D01*
X150302114Y-86275902D01*
X150372686Y-86407932D01*
X150412531Y-86456482D01*
X150467659Y-86523657D01*
X150496663Y-86547460D01*
X152381004Y-88431802D01*
X152381004Y-88493939D01*
X152420778Y-88693898D01*
X152498799Y-88882256D01*
X152612067Y-89051774D01*
X152756230Y-89195937D01*
X152925748Y-89309205D01*
X153114106Y-89387226D01*
X153314065Y-89427000D01*
X153517943Y-89427000D01*
X153717902Y-89387226D01*
X153906260Y-89309205D01*
X154075778Y-89195937D01*
X154219941Y-89051774D01*
X154333209Y-88882256D01*
X154411230Y-88693898D01*
X154451004Y-88493939D01*
X154451004Y-88290061D01*
X154411230Y-88090102D01*
X154333209Y-87901744D01*
X154305365Y-87860072D01*
X156230000Y-87860072D01*
X156345000Y-87848746D01*
X156345001Y-93268892D01*
X156326525Y-93287368D01*
X156210000Y-93461760D01*
X156093475Y-93287368D01*
X155886632Y-93080525D01*
X155643411Y-92918010D01*
X155373158Y-92806068D01*
X155086260Y-92749000D01*
X154793740Y-92749000D01*
X154506842Y-92806068D01*
X154236589Y-92918010D01*
X153993368Y-93080525D01*
X153786525Y-93287368D01*
X153624010Y-93530589D01*
X153512068Y-93800842D01*
X153455000Y-94087740D01*
X153455000Y-94380260D01*
X153512068Y-94667158D01*
X153624010Y-94937411D01*
X153786525Y-95180632D01*
X153993368Y-95387475D01*
X154236589Y-95549990D01*
X154371810Y-95606000D01*
X148299170Y-95606000D01*
X148617148Y-95288022D01*
X148907265Y-94853831D01*
X149107101Y-94371384D01*
X149208976Y-93859221D01*
X149208976Y-93337025D01*
X149107101Y-92824862D01*
X148907265Y-92342415D01*
X148617148Y-91908224D01*
X148247899Y-91538975D01*
X147813708Y-91248858D01*
X147331261Y-91049022D01*
X147225938Y-91028072D01*
X147235502Y-91010180D01*
X147271812Y-90890482D01*
X147284072Y-90766000D01*
X147281000Y-90201750D01*
X147122250Y-90043000D01*
X145923000Y-90043000D01*
X145923000Y-90063000D01*
X145669000Y-90063000D01*
X145669000Y-90043000D01*
X145649000Y-90043000D01*
X145649000Y-89789000D01*
X145669000Y-89789000D01*
X145669000Y-89769000D01*
X145923000Y-89769000D01*
X145923000Y-89789000D01*
X147122250Y-89789000D01*
X147281000Y-89630250D01*
X147284072Y-89066000D01*
X147271812Y-88941518D01*
X147235502Y-88821820D01*
X147176537Y-88711506D01*
X147122778Y-88646000D01*
X147176537Y-88580494D01*
X147235502Y-88470180D01*
X147271812Y-88350482D01*
X147284072Y-88226000D01*
X147284072Y-86526000D01*
X147271812Y-86401518D01*
X147235502Y-86281820D01*
X147176537Y-86171506D01*
X147097185Y-86074815D01*
X147000494Y-85995463D01*
X146931000Y-85958317D01*
X146931000Y-82522000D01*
X149091928Y-82522000D01*
X149104188Y-82646482D01*
X149140498Y-82766180D01*
X149199463Y-82876494D01*
X149278815Y-82973185D01*
X149375506Y-83052537D01*
X149485820Y-83111502D01*
X149605518Y-83147812D01*
X149730000Y-83160072D01*
X151194250Y-83157000D01*
X151353000Y-82998250D01*
X151353000Y-80899000D01*
X149253750Y-80899000D01*
X149095000Y-81057750D01*
X149091928Y-82522000D01*
X146931000Y-82522000D01*
X146931000Y-82166129D01*
X149093986Y-80003143D01*
X149095000Y-80486250D01*
G37*
X149095000Y-80486250D02*
X149253750Y-80645000D01*
X151353000Y-80645000D01*
X151353000Y-80625000D01*
X151607000Y-80625000D01*
X151607000Y-80645000D01*
X151627000Y-80645000D01*
X151627000Y-80899000D01*
X151607000Y-80899000D01*
X151607000Y-82998250D01*
X151765750Y-83157000D01*
X152437345Y-83158409D01*
X152375506Y-83191463D01*
X152278815Y-83270815D01*
X152199463Y-83367506D01*
X152140498Y-83477820D01*
X152104188Y-83597518D01*
X152091928Y-83722000D01*
X152091928Y-85993123D01*
X151767660Y-85668855D01*
X151767660Y-85154051D01*
X151811597Y-85110114D01*
X151924865Y-84940596D01*
X152002886Y-84752238D01*
X152042660Y-84552279D01*
X152042660Y-84348401D01*
X152002886Y-84148442D01*
X151924865Y-83960084D01*
X151811597Y-83790566D01*
X151667434Y-83646403D01*
X151497916Y-83533135D01*
X151309558Y-83455114D01*
X151109599Y-83415340D01*
X150905721Y-83415340D01*
X150705762Y-83455114D01*
X150517404Y-83533135D01*
X150347886Y-83646403D01*
X150203723Y-83790566D01*
X150090455Y-83960084D01*
X150012434Y-84148442D01*
X149972660Y-84348401D01*
X149972660Y-84552279D01*
X150012434Y-84752238D01*
X150090455Y-84940596D01*
X150203723Y-85110114D01*
X150247661Y-85154052D01*
X150247660Y-85946333D01*
X150243984Y-85983656D01*
X150247660Y-86020978D01*
X150247660Y-86020988D01*
X150258657Y-86132641D01*
X150293347Y-86247000D01*
X150302114Y-86275902D01*
X150372686Y-86407932D01*
X150412531Y-86456482D01*
X150467659Y-86523657D01*
X150496663Y-86547460D01*
X152381004Y-88431802D01*
X152381004Y-88493939D01*
X152420778Y-88693898D01*
X152498799Y-88882256D01*
X152612067Y-89051774D01*
X152756230Y-89195937D01*
X152925748Y-89309205D01*
X153114106Y-89387226D01*
X153314065Y-89427000D01*
X153517943Y-89427000D01*
X153717902Y-89387226D01*
X153906260Y-89309205D01*
X154075778Y-89195937D01*
X154219941Y-89051774D01*
X154333209Y-88882256D01*
X154411230Y-88693898D01*
X154451004Y-88493939D01*
X154451004Y-88290061D01*
X154411230Y-88090102D01*
X154333209Y-87901744D01*
X154305365Y-87860072D01*
X156230000Y-87860072D01*
X156345000Y-87848746D01*
X156345001Y-93268892D01*
X156326525Y-93287368D01*
X156210000Y-93461760D01*
X156093475Y-93287368D01*
X155886632Y-93080525D01*
X155643411Y-92918010D01*
X155373158Y-92806068D01*
X155086260Y-92749000D01*
X154793740Y-92749000D01*
X154506842Y-92806068D01*
X154236589Y-92918010D01*
X153993368Y-93080525D01*
X153786525Y-93287368D01*
X153624010Y-93530589D01*
X153512068Y-93800842D01*
X153455000Y-94087740D01*
X153455000Y-94380260D01*
X153512068Y-94667158D01*
X153624010Y-94937411D01*
X153786525Y-95180632D01*
X153993368Y-95387475D01*
X154236589Y-95549990D01*
X154371810Y-95606000D01*
X148299170Y-95606000D01*
X148617148Y-95288022D01*
X148907265Y-94853831D01*
X149107101Y-94371384D01*
X149208976Y-93859221D01*
X149208976Y-93337025D01*
X149107101Y-92824862D01*
X148907265Y-92342415D01*
X148617148Y-91908224D01*
X148247899Y-91538975D01*
X147813708Y-91248858D01*
X147331261Y-91049022D01*
X147225938Y-91028072D01*
X147235502Y-91010180D01*
X147271812Y-90890482D01*
X147284072Y-90766000D01*
X147281000Y-90201750D01*
X147122250Y-90043000D01*
X145923000Y-90043000D01*
X145923000Y-90063000D01*
X145669000Y-90063000D01*
X145669000Y-90043000D01*
X145649000Y-90043000D01*
X145649000Y-89789000D01*
X145669000Y-89789000D01*
X145669000Y-89769000D01*
X145923000Y-89769000D01*
X145923000Y-89789000D01*
X147122250Y-89789000D01*
X147281000Y-89630250D01*
X147284072Y-89066000D01*
X147271812Y-88941518D01*
X147235502Y-88821820D01*
X147176537Y-88711506D01*
X147122778Y-88646000D01*
X147176537Y-88580494D01*
X147235502Y-88470180D01*
X147271812Y-88350482D01*
X147284072Y-88226000D01*
X147284072Y-86526000D01*
X147271812Y-86401518D01*
X147235502Y-86281820D01*
X147176537Y-86171506D01*
X147097185Y-86074815D01*
X147000494Y-85995463D01*
X146931000Y-85958317D01*
X146931000Y-82522000D01*
X149091928Y-82522000D01*
X149104188Y-82646482D01*
X149140498Y-82766180D01*
X149199463Y-82876494D01*
X149278815Y-82973185D01*
X149375506Y-83052537D01*
X149485820Y-83111502D01*
X149605518Y-83147812D01*
X149730000Y-83160072D01*
X151194250Y-83157000D01*
X151353000Y-82998250D01*
X151353000Y-80899000D01*
X149253750Y-80899000D01*
X149095000Y-81057750D01*
X149091928Y-82522000D01*
X146931000Y-82522000D01*
X146931000Y-82166129D01*
X149093986Y-80003143D01*
X149095000Y-80486250D01*
G36*
X166847353Y-83474517D02*
G01*
X164707095Y-85614775D01*
X164697812Y-85520518D01*
X164661502Y-85400820D01*
X164602537Y-85290506D01*
X164523185Y-85193815D01*
X164426494Y-85114463D01*
X164316180Y-85055498D01*
X164196482Y-85019188D01*
X164072000Y-85006928D01*
X163557750Y-85010000D01*
X163399000Y-85168750D01*
X163399000Y-85993000D01*
X163419000Y-85993000D01*
X163419000Y-86247000D01*
X163399000Y-86247000D01*
X163399000Y-86267000D01*
X163145000Y-86267000D01*
X163145000Y-86247000D01*
X161995750Y-86247000D01*
X161837000Y-86405750D01*
X161833928Y-86595000D01*
X161846188Y-86719482D01*
X161847255Y-86722999D01*
X161625742Y-86722999D01*
X161570000Y-86717509D01*
X161514258Y-86722999D01*
X161514249Y-86722999D01*
X161347502Y-86739422D01*
X161133554Y-86804323D01*
X160936378Y-86909715D01*
X160763552Y-87051550D01*
X160728012Y-87094856D01*
X159256865Y-88566004D01*
X159213551Y-88601551D01*
X159071716Y-88774377D01*
X158974745Y-88955799D01*
X158966324Y-88971554D01*
X158901423Y-89185502D01*
X158879509Y-89408000D01*
X158885000Y-89463752D01*
X158885001Y-92816317D01*
X158815506Y-92853463D01*
X158718815Y-92932815D01*
X158639463Y-93029506D01*
X158615000Y-93075272D01*
X158615000Y-85645000D01*
X161833928Y-85645000D01*
X161837000Y-85834250D01*
X161995750Y-85993000D01*
X163145000Y-85993000D01*
X163145000Y-85168750D01*
X162986250Y-85010000D01*
X162472000Y-85006928D01*
X162347518Y-85019188D01*
X162227820Y-85055498D01*
X162117506Y-85114463D01*
X162020815Y-85193815D01*
X161941463Y-85290506D01*
X161882498Y-85400820D01*
X161846188Y-85520518D01*
X161833928Y-85645000D01*
X158615000Y-85645000D01*
X158615000Y-83345000D01*
X161833928Y-83345000D01*
X161833928Y-84295000D01*
X161846188Y-84419482D01*
X161882498Y-84539180D01*
X161941463Y-84649494D01*
X162020815Y-84746185D01*
X162117506Y-84825537D01*
X162227820Y-84884502D01*
X162347518Y-84920812D01*
X162472000Y-84933072D01*
X164072000Y-84933072D01*
X164196482Y-84920812D01*
X164316180Y-84884502D01*
X164426494Y-84825537D01*
X164523185Y-84746185D01*
X164602537Y-84649494D01*
X164661502Y-84539180D01*
X164697812Y-84419482D01*
X164710072Y-84295000D01*
X164710072Y-83345000D01*
X164697812Y-83220518D01*
X164661502Y-83100820D01*
X164602537Y-82990506D01*
X164523185Y-82893815D01*
X164426494Y-82814463D01*
X164316180Y-82755498D01*
X164196482Y-82719188D01*
X164072000Y-82706928D01*
X162472000Y-82706928D01*
X162347518Y-82719188D01*
X162227820Y-82755498D01*
X162117506Y-82814463D01*
X162020815Y-82893815D01*
X161941463Y-82990506D01*
X161882498Y-83100820D01*
X161846188Y-83220518D01*
X161833928Y-83345000D01*
X158615000Y-83345000D01*
X158615000Y-83160072D01*
X159230000Y-83160072D01*
X159354482Y-83147812D01*
X159474180Y-83111502D01*
X159584494Y-83052537D01*
X159681185Y-82973185D01*
X159760537Y-82876494D01*
X159819502Y-82766180D01*
X159855812Y-82646482D01*
X159868072Y-82522000D01*
X159868072Y-81045000D01*
X161833928Y-81045000D01*
X161833928Y-81995000D01*
X161846188Y-82119482D01*
X161882498Y-82239180D01*
X161941463Y-82349494D01*
X162020815Y-82446185D01*
X162117506Y-82525537D01*
X162227820Y-82584502D01*
X162347518Y-82620812D01*
X162472000Y-82633072D01*
X164072000Y-82633072D01*
X164196482Y-82620812D01*
X164316180Y-82584502D01*
X164426494Y-82525537D01*
X164523185Y-82446185D01*
X164602537Y-82349494D01*
X164661502Y-82239180D01*
X164697812Y-82119482D01*
X164710072Y-81995000D01*
X164710072Y-81045000D01*
X164697812Y-80920518D01*
X164661502Y-80800820D01*
X164602537Y-80690506D01*
X164523185Y-80593815D01*
X164426494Y-80514463D01*
X164316180Y-80455498D01*
X164196482Y-80419188D01*
X164072000Y-80406928D01*
X162472000Y-80406928D01*
X162347518Y-80419188D01*
X162227820Y-80455498D01*
X162117506Y-80514463D01*
X162020815Y-80593815D01*
X161941463Y-80690506D01*
X161882498Y-80800820D01*
X161846188Y-80920518D01*
X161833928Y-81045000D01*
X159868072Y-81045000D01*
X159868072Y-79229000D01*
X161833928Y-79229000D01*
X161846188Y-79353482D01*
X161882498Y-79473180D01*
X161941463Y-79583494D01*
X162020815Y-79680185D01*
X162117506Y-79759537D01*
X162227820Y-79818502D01*
X162347518Y-79854812D01*
X162472000Y-79867072D01*
X162986250Y-79864000D01*
X163145000Y-79705250D01*
X163145000Y-78881000D01*
X163399000Y-78881000D01*
X163399000Y-79705250D01*
X163557750Y-79864000D01*
X164072000Y-79867072D01*
X164196482Y-79854812D01*
X164316180Y-79818502D01*
X164426494Y-79759537D01*
X164523185Y-79680185D01*
X164602537Y-79583494D01*
X164661502Y-79473180D01*
X164697812Y-79353482D01*
X164710072Y-79229000D01*
X164707000Y-79039750D01*
X164548250Y-78881000D01*
X163399000Y-78881000D01*
X163145000Y-78881000D01*
X161995750Y-78881000D01*
X161837000Y-79039750D01*
X161833928Y-79229000D01*
X159868072Y-79229000D01*
X159868072Y-79022000D01*
X159855812Y-78897518D01*
X159819502Y-78777820D01*
X159760537Y-78667506D01*
X159729756Y-78629999D01*
X165434690Y-78629999D01*
X165472012Y-78633675D01*
X165509334Y-78629999D01*
X165509345Y-78629999D01*
X165620998Y-78619002D01*
X165764259Y-78575545D01*
X165896237Y-78505000D01*
X165973950Y-78505000D01*
X166173909Y-78465226D01*
X166362267Y-78387205D01*
X166531785Y-78273937D01*
X166675948Y-78129774D01*
X166789216Y-77960256D01*
X166847353Y-77819903D01*
X166847353Y-83474517D01*
G37*
X166847353Y-83474517D02*
X164707095Y-85614775D01*
X164697812Y-85520518D01*
X164661502Y-85400820D01*
X164602537Y-85290506D01*
X164523185Y-85193815D01*
X164426494Y-85114463D01*
X164316180Y-85055498D01*
X164196482Y-85019188D01*
X164072000Y-85006928D01*
X163557750Y-85010000D01*
X163399000Y-85168750D01*
X163399000Y-85993000D01*
X163419000Y-85993000D01*
X163419000Y-86247000D01*
X163399000Y-86247000D01*
X163399000Y-86267000D01*
X163145000Y-86267000D01*
X163145000Y-86247000D01*
X161995750Y-86247000D01*
X161837000Y-86405750D01*
X161833928Y-86595000D01*
X161846188Y-86719482D01*
X161847255Y-86722999D01*
X161625742Y-86722999D01*
X161570000Y-86717509D01*
X161514258Y-86722999D01*
X161514249Y-86722999D01*
X161347502Y-86739422D01*
X161133554Y-86804323D01*
X160936378Y-86909715D01*
X160763552Y-87051550D01*
X160728012Y-87094856D01*
X159256865Y-88566004D01*
X159213551Y-88601551D01*
X159071716Y-88774377D01*
X158974745Y-88955799D01*
X158966324Y-88971554D01*
X158901423Y-89185502D01*
X158879509Y-89408000D01*
X158885000Y-89463752D01*
X158885001Y-92816317D01*
X158815506Y-92853463D01*
X158718815Y-92932815D01*
X158639463Y-93029506D01*
X158615000Y-93075272D01*
X158615000Y-85645000D01*
X161833928Y-85645000D01*
X161837000Y-85834250D01*
X161995750Y-85993000D01*
X163145000Y-85993000D01*
X163145000Y-85168750D01*
X162986250Y-85010000D01*
X162472000Y-85006928D01*
X162347518Y-85019188D01*
X162227820Y-85055498D01*
X162117506Y-85114463D01*
X162020815Y-85193815D01*
X161941463Y-85290506D01*
X161882498Y-85400820D01*
X161846188Y-85520518D01*
X161833928Y-85645000D01*
X158615000Y-85645000D01*
X158615000Y-83345000D01*
X161833928Y-83345000D01*
X161833928Y-84295000D01*
X161846188Y-84419482D01*
X161882498Y-84539180D01*
X161941463Y-84649494D01*
X162020815Y-84746185D01*
X162117506Y-84825537D01*
X162227820Y-84884502D01*
X162347518Y-84920812D01*
X162472000Y-84933072D01*
X164072000Y-84933072D01*
X164196482Y-84920812D01*
X164316180Y-84884502D01*
X164426494Y-84825537D01*
X164523185Y-84746185D01*
X164602537Y-84649494D01*
X164661502Y-84539180D01*
X164697812Y-84419482D01*
X164710072Y-84295000D01*
X164710072Y-83345000D01*
X164697812Y-83220518D01*
X164661502Y-83100820D01*
X164602537Y-82990506D01*
X164523185Y-82893815D01*
X164426494Y-82814463D01*
X164316180Y-82755498D01*
X164196482Y-82719188D01*
X164072000Y-82706928D01*
X162472000Y-82706928D01*
X162347518Y-82719188D01*
X162227820Y-82755498D01*
X162117506Y-82814463D01*
X162020815Y-82893815D01*
X161941463Y-82990506D01*
X161882498Y-83100820D01*
X161846188Y-83220518D01*
X161833928Y-83345000D01*
X158615000Y-83345000D01*
X158615000Y-83160072D01*
X159230000Y-83160072D01*
X159354482Y-83147812D01*
X159474180Y-83111502D01*
X159584494Y-83052537D01*
X159681185Y-82973185D01*
X159760537Y-82876494D01*
X159819502Y-82766180D01*
X159855812Y-82646482D01*
X159868072Y-82522000D01*
X159868072Y-81045000D01*
X161833928Y-81045000D01*
X161833928Y-81995000D01*
X161846188Y-82119482D01*
X161882498Y-82239180D01*
X161941463Y-82349494D01*
X162020815Y-82446185D01*
X162117506Y-82525537D01*
X162227820Y-82584502D01*
X162347518Y-82620812D01*
X162472000Y-82633072D01*
X164072000Y-82633072D01*
X164196482Y-82620812D01*
X164316180Y-82584502D01*
X164426494Y-82525537D01*
X164523185Y-82446185D01*
X164602537Y-82349494D01*
X164661502Y-82239180D01*
X164697812Y-82119482D01*
X164710072Y-81995000D01*
X164710072Y-81045000D01*
X164697812Y-80920518D01*
X164661502Y-80800820D01*
X164602537Y-80690506D01*
X164523185Y-80593815D01*
X164426494Y-80514463D01*
X164316180Y-80455498D01*
X164196482Y-80419188D01*
X164072000Y-80406928D01*
X162472000Y-80406928D01*
X162347518Y-80419188D01*
X162227820Y-80455498D01*
X162117506Y-80514463D01*
X162020815Y-80593815D01*
X161941463Y-80690506D01*
X161882498Y-80800820D01*
X161846188Y-80920518D01*
X161833928Y-81045000D01*
X159868072Y-81045000D01*
X159868072Y-79229000D01*
X161833928Y-79229000D01*
X161846188Y-79353482D01*
X161882498Y-79473180D01*
X161941463Y-79583494D01*
X162020815Y-79680185D01*
X162117506Y-79759537D01*
X162227820Y-79818502D01*
X162347518Y-79854812D01*
X162472000Y-79867072D01*
X162986250Y-79864000D01*
X163145000Y-79705250D01*
X163145000Y-78881000D01*
X163399000Y-78881000D01*
X163399000Y-79705250D01*
X163557750Y-79864000D01*
X164072000Y-79867072D01*
X164196482Y-79854812D01*
X164316180Y-79818502D01*
X164426494Y-79759537D01*
X164523185Y-79680185D01*
X164602537Y-79583494D01*
X164661502Y-79473180D01*
X164697812Y-79353482D01*
X164710072Y-79229000D01*
X164707000Y-79039750D01*
X164548250Y-78881000D01*
X163399000Y-78881000D01*
X163145000Y-78881000D01*
X161995750Y-78881000D01*
X161837000Y-79039750D01*
X161833928Y-79229000D01*
X159868072Y-79229000D01*
X159868072Y-79022000D01*
X159855812Y-78897518D01*
X159819502Y-78777820D01*
X159760537Y-78667506D01*
X159729756Y-78629999D01*
X165434690Y-78629999D01*
X165472012Y-78633675D01*
X165509334Y-78629999D01*
X165509345Y-78629999D01*
X165620998Y-78619002D01*
X165764259Y-78575545D01*
X165896237Y-78505000D01*
X165973950Y-78505000D01*
X166173909Y-78465226D01*
X166362267Y-78387205D01*
X166531785Y-78273937D01*
X166675948Y-78129774D01*
X166789216Y-77960256D01*
X166847353Y-77819903D01*
X166847353Y-83474517D01*
G36*
X144498852Y-64125702D02*
G01*
X144868101Y-64494951D01*
X145302292Y-64785068D01*
X145784739Y-64984904D01*
X146025440Y-65032782D01*
X145966000Y-65026928D01*
X145851750Y-65030000D01*
X145693000Y-65188750D01*
X145693000Y-65913000D01*
X145713000Y-65913000D01*
X145713000Y-66167000D01*
X145693000Y-66167000D01*
X145693000Y-66891250D01*
X145851750Y-67050000D01*
X145966000Y-67053072D01*
X146090482Y-67040812D01*
X146210180Y-67004502D01*
X146316000Y-66947939D01*
X146356686Y-66969687D01*
X146351928Y-67018000D01*
X146351928Y-68618000D01*
X146364188Y-68742482D01*
X146400498Y-68862180D01*
X146459463Y-68972494D01*
X146538815Y-69069185D01*
X146635506Y-69148537D01*
X146745820Y-69207502D01*
X146865518Y-69243812D01*
X146990000Y-69256072D01*
X147830000Y-69256072D01*
X147830001Y-72850317D01*
X147760506Y-72887463D01*
X147663815Y-72966815D01*
X147584463Y-73063506D01*
X147525498Y-73173820D01*
X147489188Y-73293518D01*
X147476928Y-73418000D01*
X147476928Y-75018000D01*
X147489188Y-75142482D01*
X147525498Y-75262180D01*
X147584463Y-75372494D01*
X147663815Y-75469185D01*
X147760506Y-75548537D01*
X147870820Y-75607502D01*
X147917240Y-75621583D01*
X147955026Y-75692276D01*
X148012047Y-75761755D01*
X148050000Y-75808001D01*
X148078998Y-75831799D01*
X149434197Y-77186999D01*
X149225750Y-77186999D01*
X149169998Y-77181508D01*
X148947499Y-77203422D01*
X148906036Y-77216000D01*
X148733552Y-77268323D01*
X148536376Y-77373715D01*
X148363550Y-77515550D01*
X148328008Y-77558858D01*
X145032865Y-80854002D01*
X144989551Y-80889549D01*
X144847716Y-81062375D01*
X144769640Y-81208447D01*
X144742324Y-81259552D01*
X144677423Y-81473500D01*
X144655509Y-81695998D01*
X144661000Y-81751750D01*
X144661001Y-85470239D01*
X144661000Y-85470249D01*
X144661000Y-85958317D01*
X144591506Y-85995463D01*
X144494815Y-86074815D01*
X144424000Y-86161104D01*
X144424000Y-75018000D01*
X145176928Y-75018000D01*
X145189188Y-75142482D01*
X145225498Y-75262180D01*
X145284463Y-75372494D01*
X145363815Y-75469185D01*
X145460506Y-75548537D01*
X145570820Y-75607502D01*
X145690518Y-75643812D01*
X145815000Y-75656072D01*
X146004250Y-75653000D01*
X146163000Y-75494250D01*
X146163000Y-74345000D01*
X146417000Y-74345000D01*
X146417000Y-75494250D01*
X146575750Y-75653000D01*
X146765000Y-75656072D01*
X146889482Y-75643812D01*
X147009180Y-75607502D01*
X147119494Y-75548537D01*
X147216185Y-75469185D01*
X147295537Y-75372494D01*
X147354502Y-75262180D01*
X147390812Y-75142482D01*
X147403072Y-75018000D01*
X147400000Y-74503750D01*
X147241250Y-74345000D01*
X146417000Y-74345000D01*
X146163000Y-74345000D01*
X145338750Y-74345000D01*
X145180000Y-74503750D01*
X145176928Y-75018000D01*
X144424000Y-75018000D01*
X144424000Y-73418000D01*
X145176928Y-73418000D01*
X145180000Y-73932250D01*
X145338750Y-74091000D01*
X146163000Y-74091000D01*
X146163000Y-72941750D01*
X146417000Y-72941750D01*
X146417000Y-74091000D01*
X147241250Y-74091000D01*
X147400000Y-73932250D01*
X147403072Y-73418000D01*
X147390812Y-73293518D01*
X147354502Y-73173820D01*
X147295537Y-73063506D01*
X147216185Y-72966815D01*
X147119494Y-72887463D01*
X147009180Y-72828498D01*
X146889482Y-72792188D01*
X146765000Y-72779928D01*
X146575750Y-72783000D01*
X146417000Y-72941750D01*
X146163000Y-72941750D01*
X146004250Y-72783000D01*
X145815000Y-72779928D01*
X145690518Y-72792188D01*
X145570820Y-72828498D01*
X145460506Y-72887463D01*
X145363815Y-72966815D01*
X145284463Y-73063506D01*
X145225498Y-73173820D01*
X145189188Y-73293518D01*
X145176928Y-73418000D01*
X144424000Y-73418000D01*
X144424000Y-66415000D01*
X144527928Y-66415000D01*
X144540188Y-66539482D01*
X144576498Y-66659180D01*
X144635463Y-66769494D01*
X144714815Y-66866185D01*
X144811506Y-66945537D01*
X144921820Y-67004502D01*
X145041518Y-67040812D01*
X145166000Y-67053072D01*
X145280250Y-67050000D01*
X145439000Y-66891250D01*
X145439000Y-66167000D01*
X144689750Y-66167000D01*
X144531000Y-66325750D01*
X144527928Y-66415000D01*
X144424000Y-66415000D01*
X144424000Y-65665000D01*
X144527928Y-65665000D01*
X144531000Y-65754250D01*
X144689750Y-65913000D01*
X145439000Y-65913000D01*
X145439000Y-65188750D01*
X145280250Y-65030000D01*
X145166000Y-65026928D01*
X145041518Y-65039188D01*
X144921820Y-65075498D01*
X144811506Y-65134463D01*
X144714815Y-65213815D01*
X144635463Y-65310506D01*
X144576498Y-65420820D01*
X144540188Y-65540518D01*
X144527928Y-65665000D01*
X144424000Y-65665000D01*
X144424000Y-64013678D01*
X144498852Y-64125702D01*
G37*
X144498852Y-64125702D02*
X144868101Y-64494951D01*
X145302292Y-64785068D01*
X145784739Y-64984904D01*
X146025440Y-65032782D01*
X145966000Y-65026928D01*
X145851750Y-65030000D01*
X145693000Y-65188750D01*
X145693000Y-65913000D01*
X145713000Y-65913000D01*
X145713000Y-66167000D01*
X145693000Y-66167000D01*
X145693000Y-66891250D01*
X145851750Y-67050000D01*
X145966000Y-67053072D01*
X146090482Y-67040812D01*
X146210180Y-67004502D01*
X146316000Y-66947939D01*
X146356686Y-66969687D01*
X146351928Y-67018000D01*
X146351928Y-68618000D01*
X146364188Y-68742482D01*
X146400498Y-68862180D01*
X146459463Y-68972494D01*
X146538815Y-69069185D01*
X146635506Y-69148537D01*
X146745820Y-69207502D01*
X146865518Y-69243812D01*
X146990000Y-69256072D01*
X147830000Y-69256072D01*
X147830001Y-72850317D01*
X147760506Y-72887463D01*
X147663815Y-72966815D01*
X147584463Y-73063506D01*
X147525498Y-73173820D01*
X147489188Y-73293518D01*
X147476928Y-73418000D01*
X147476928Y-75018000D01*
X147489188Y-75142482D01*
X147525498Y-75262180D01*
X147584463Y-75372494D01*
X147663815Y-75469185D01*
X147760506Y-75548537D01*
X147870820Y-75607502D01*
X147917240Y-75621583D01*
X147955026Y-75692276D01*
X148012047Y-75761755D01*
X148050000Y-75808001D01*
X148078998Y-75831799D01*
X149434197Y-77186999D01*
X149225750Y-77186999D01*
X149169998Y-77181508D01*
X148947499Y-77203422D01*
X148906036Y-77216000D01*
X148733552Y-77268323D01*
X148536376Y-77373715D01*
X148363550Y-77515550D01*
X148328008Y-77558858D01*
X145032865Y-80854002D01*
X144989551Y-80889549D01*
X144847716Y-81062375D01*
X144769640Y-81208447D01*
X144742324Y-81259552D01*
X144677423Y-81473500D01*
X144655509Y-81695998D01*
X144661000Y-81751750D01*
X144661001Y-85470239D01*
X144661000Y-85470249D01*
X144661000Y-85958317D01*
X144591506Y-85995463D01*
X144494815Y-86074815D01*
X144424000Y-86161104D01*
X144424000Y-75018000D01*
X145176928Y-75018000D01*
X145189188Y-75142482D01*
X145225498Y-75262180D01*
X145284463Y-75372494D01*
X145363815Y-75469185D01*
X145460506Y-75548537D01*
X145570820Y-75607502D01*
X145690518Y-75643812D01*
X145815000Y-75656072D01*
X146004250Y-75653000D01*
X146163000Y-75494250D01*
X146163000Y-74345000D01*
X146417000Y-74345000D01*
X146417000Y-75494250D01*
X146575750Y-75653000D01*
X146765000Y-75656072D01*
X146889482Y-75643812D01*
X147009180Y-75607502D01*
X147119494Y-75548537D01*
X147216185Y-75469185D01*
X147295537Y-75372494D01*
X147354502Y-75262180D01*
X147390812Y-75142482D01*
X147403072Y-75018000D01*
X147400000Y-74503750D01*
X147241250Y-74345000D01*
X146417000Y-74345000D01*
X146163000Y-74345000D01*
X145338750Y-74345000D01*
X145180000Y-74503750D01*
X145176928Y-75018000D01*
X144424000Y-75018000D01*
X144424000Y-73418000D01*
X145176928Y-73418000D01*
X145180000Y-73932250D01*
X145338750Y-74091000D01*
X146163000Y-74091000D01*
X146163000Y-72941750D01*
X146417000Y-72941750D01*
X146417000Y-74091000D01*
X147241250Y-74091000D01*
X147400000Y-73932250D01*
X147403072Y-73418000D01*
X147390812Y-73293518D01*
X147354502Y-73173820D01*
X147295537Y-73063506D01*
X147216185Y-72966815D01*
X147119494Y-72887463D01*
X147009180Y-72828498D01*
X146889482Y-72792188D01*
X146765000Y-72779928D01*
X146575750Y-72783000D01*
X146417000Y-72941750D01*
X146163000Y-72941750D01*
X146004250Y-72783000D01*
X145815000Y-72779928D01*
X145690518Y-72792188D01*
X145570820Y-72828498D01*
X145460506Y-72887463D01*
X145363815Y-72966815D01*
X145284463Y-73063506D01*
X145225498Y-73173820D01*
X145189188Y-73293518D01*
X145176928Y-73418000D01*
X144424000Y-73418000D01*
X144424000Y-66415000D01*
X144527928Y-66415000D01*
X144540188Y-66539482D01*
X144576498Y-66659180D01*
X144635463Y-66769494D01*
X144714815Y-66866185D01*
X144811506Y-66945537D01*
X144921820Y-67004502D01*
X145041518Y-67040812D01*
X145166000Y-67053072D01*
X145280250Y-67050000D01*
X145439000Y-66891250D01*
X145439000Y-66167000D01*
X144689750Y-66167000D01*
X144531000Y-66325750D01*
X144527928Y-66415000D01*
X144424000Y-66415000D01*
X144424000Y-65665000D01*
X144527928Y-65665000D01*
X144531000Y-65754250D01*
X144689750Y-65913000D01*
X145439000Y-65913000D01*
X145439000Y-65188750D01*
X145280250Y-65030000D01*
X145166000Y-65026928D01*
X145041518Y-65039188D01*
X144921820Y-65075498D01*
X144811506Y-65134463D01*
X144714815Y-65213815D01*
X144635463Y-65310506D01*
X144576498Y-65420820D01*
X144540188Y-65540518D01*
X144527928Y-65665000D01*
X144424000Y-65665000D01*
X144424000Y-64013678D01*
X144498852Y-64125702D01*
G36*
X163889990Y-70276015D02*
G01*
X163557750Y-70278000D01*
X163399000Y-70436750D01*
X163399000Y-71261000D01*
X163419000Y-71261000D01*
X163419000Y-71515000D01*
X163399000Y-71515000D01*
X163399000Y-72339250D01*
X163557750Y-72498000D01*
X163889990Y-72499985D01*
X163889989Y-73040928D01*
X162598224Y-73040928D01*
X162566797Y-72882934D01*
X162488776Y-72694576D01*
X162375508Y-72525058D01*
X162336009Y-72485559D01*
X162336191Y-72485376D01*
X162347518Y-72488812D01*
X162472000Y-72501072D01*
X162986250Y-72498000D01*
X163145000Y-72339250D01*
X163145000Y-71515000D01*
X163125000Y-71515000D01*
X163125000Y-71261000D01*
X163145000Y-71261000D01*
X163145000Y-70436750D01*
X162986250Y-70278000D01*
X162711018Y-70276356D01*
X162711018Y-70201072D01*
X163889990Y-70201072D01*
X163889990Y-70276015D01*
G37*
X163889990Y-70276015D02*
X163557750Y-70278000D01*
X163399000Y-70436750D01*
X163399000Y-71261000D01*
X163419000Y-71261000D01*
X163419000Y-71515000D01*
X163399000Y-71515000D01*
X163399000Y-72339250D01*
X163557750Y-72498000D01*
X163889990Y-72499985D01*
X163889989Y-73040928D01*
X162598224Y-73040928D01*
X162566797Y-72882934D01*
X162488776Y-72694576D01*
X162375508Y-72525058D01*
X162336009Y-72485559D01*
X162336191Y-72485376D01*
X162347518Y-72488812D01*
X162472000Y-72501072D01*
X162986250Y-72498000D01*
X163145000Y-72339250D01*
X163145000Y-71515000D01*
X163125000Y-71515000D01*
X163125000Y-71261000D01*
X163145000Y-71261000D01*
X163145000Y-70436750D01*
X162986250Y-70278000D01*
X162711018Y-70276356D01*
X162711018Y-70201072D01*
X163889990Y-70201072D01*
X163889990Y-70276015D01*
G36*
X157099000Y-72009000D02*
G01*
X157119000Y-72009000D01*
X157119000Y-72263000D01*
X157099000Y-72263000D01*
X157099000Y-72283000D01*
X156845000Y-72283000D01*
X156845000Y-72263000D01*
X156825000Y-72263000D01*
X156825000Y-72009000D01*
X156845000Y-72009000D01*
X156845000Y-71989000D01*
X157099000Y-71989000D01*
X157099000Y-72009000D01*
G37*
X157099000Y-72009000D02*
X157119000Y-72009000D01*
X157119000Y-72263000D01*
X157099000Y-72263000D01*
X157099000Y-72283000D01*
X156845000Y-72283000D01*
X156845000Y-72263000D01*
X156825000Y-72263000D01*
X156825000Y-72009000D01*
X156845000Y-72009000D01*
X156845000Y-71989000D01*
X157099000Y-71989000D01*
X157099000Y-72009000D01*
G36*
X153409000Y-67532250D02*
G01*
X153567750Y-67691000D01*
X154317000Y-67691000D01*
X154317000Y-67671000D01*
X154571000Y-67671000D01*
X154571000Y-67691000D01*
X154591000Y-67691000D01*
X154591000Y-67945000D01*
X154571000Y-67945000D01*
X154571000Y-68669250D01*
X154670659Y-68768909D01*
X154620815Y-68809815D01*
X154541463Y-68906506D01*
X154482498Y-69016820D01*
X154446188Y-69136518D01*
X154433928Y-69261000D01*
X154433928Y-69597928D01*
X154097000Y-69597928D01*
X153972518Y-69610188D01*
X153852820Y-69646498D01*
X153742506Y-69705463D01*
X153645815Y-69784815D01*
X153566463Y-69881506D01*
X153507498Y-69991820D01*
X153471188Y-70111518D01*
X153469762Y-70126000D01*
X151176375Y-70126000D01*
X151102431Y-70052056D01*
X151078628Y-70023052D01*
X150962903Y-69928079D01*
X150830874Y-69857507D01*
X150687613Y-69814050D01*
X150575960Y-69803053D01*
X150575949Y-69803053D01*
X150538627Y-69799377D01*
X150501305Y-69803053D01*
X149879947Y-69803053D01*
X149842624Y-69799377D01*
X149805301Y-69803053D01*
X149805292Y-69803053D01*
X149693639Y-69814050D01*
X149550378Y-69857507D01*
X149418349Y-69928079D01*
X149350000Y-69984172D01*
X149350000Y-69256072D01*
X150190000Y-69256072D01*
X150314482Y-69243812D01*
X150434180Y-69207502D01*
X150544494Y-69148537D01*
X150641185Y-69069185D01*
X150720537Y-68972494D01*
X150779502Y-68862180D01*
X150815812Y-68742482D01*
X150828072Y-68618000D01*
X150828072Y-68578000D01*
X151911680Y-68578000D01*
X151949002Y-68581676D01*
X151986324Y-68578000D01*
X151986335Y-68578000D01*
X152097988Y-68567003D01*
X152241249Y-68523546D01*
X152373278Y-68452974D01*
X152489003Y-68358001D01*
X152512806Y-68328998D01*
X152648804Y-68193000D01*
X153405928Y-68193000D01*
X153418188Y-68317482D01*
X153454498Y-68437180D01*
X153513463Y-68547494D01*
X153592815Y-68644185D01*
X153689506Y-68723537D01*
X153799820Y-68782502D01*
X153919518Y-68818812D01*
X154044000Y-68831072D01*
X154158250Y-68828000D01*
X154317000Y-68669250D01*
X154317000Y-67945000D01*
X153567750Y-67945000D01*
X153409000Y-68103750D01*
X153405928Y-68193000D01*
X152648804Y-68193000D01*
X153341803Y-67500001D01*
X153407890Y-67500001D01*
X153409000Y-67532250D01*
G37*
X153409000Y-67532250D02*
X153567750Y-67691000D01*
X154317000Y-67691000D01*
X154317000Y-67671000D01*
X154571000Y-67671000D01*
X154571000Y-67691000D01*
X154591000Y-67691000D01*
X154591000Y-67945000D01*
X154571000Y-67945000D01*
X154571000Y-68669250D01*
X154670659Y-68768909D01*
X154620815Y-68809815D01*
X154541463Y-68906506D01*
X154482498Y-69016820D01*
X154446188Y-69136518D01*
X154433928Y-69261000D01*
X154433928Y-69597928D01*
X154097000Y-69597928D01*
X153972518Y-69610188D01*
X153852820Y-69646498D01*
X153742506Y-69705463D01*
X153645815Y-69784815D01*
X153566463Y-69881506D01*
X153507498Y-69991820D01*
X153471188Y-70111518D01*
X153469762Y-70126000D01*
X151176375Y-70126000D01*
X151102431Y-70052056D01*
X151078628Y-70023052D01*
X150962903Y-69928079D01*
X150830874Y-69857507D01*
X150687613Y-69814050D01*
X150575960Y-69803053D01*
X150575949Y-69803053D01*
X150538627Y-69799377D01*
X150501305Y-69803053D01*
X149879947Y-69803053D01*
X149842624Y-69799377D01*
X149805301Y-69803053D01*
X149805292Y-69803053D01*
X149693639Y-69814050D01*
X149550378Y-69857507D01*
X149418349Y-69928079D01*
X149350000Y-69984172D01*
X149350000Y-69256072D01*
X150190000Y-69256072D01*
X150314482Y-69243812D01*
X150434180Y-69207502D01*
X150544494Y-69148537D01*
X150641185Y-69069185D01*
X150720537Y-68972494D01*
X150779502Y-68862180D01*
X150815812Y-68742482D01*
X150828072Y-68618000D01*
X150828072Y-68578000D01*
X151911680Y-68578000D01*
X151949002Y-68581676D01*
X151986324Y-68578000D01*
X151986335Y-68578000D01*
X152097988Y-68567003D01*
X152241249Y-68523546D01*
X152373278Y-68452974D01*
X152489003Y-68358001D01*
X152512806Y-68328998D01*
X152648804Y-68193000D01*
X153405928Y-68193000D01*
X153418188Y-68317482D01*
X153454498Y-68437180D01*
X153513463Y-68547494D01*
X153592815Y-68644185D01*
X153689506Y-68723537D01*
X153799820Y-68782502D01*
X153919518Y-68818812D01*
X154044000Y-68831072D01*
X154158250Y-68828000D01*
X154317000Y-68669250D01*
X154317000Y-67945000D01*
X153567750Y-67945000D01*
X153409000Y-68103750D01*
X153405928Y-68193000D01*
X152648804Y-68193000D01*
X153341803Y-67500001D01*
X153407890Y-67500001D01*
X153409000Y-67532250D01*
G36*
X158115000Y-67691000D02*
G01*
X158135000Y-67691000D01*
X158135000Y-67945000D01*
X158115000Y-67945000D01*
X158115000Y-67965000D01*
X157861000Y-67965000D01*
X157861000Y-67945000D01*
X157841000Y-67945000D01*
X157841000Y-67691000D01*
X157861000Y-67691000D01*
X157861000Y-67671000D01*
X158115000Y-67671000D01*
X158115000Y-67691000D01*
G37*
X158115000Y-67691000D02*
X158135000Y-67691000D01*
X158135000Y-67945000D01*
X158115000Y-67945000D01*
X158115000Y-67965000D01*
X157861000Y-67965000D01*
X157861000Y-67945000D01*
X157841000Y-67945000D01*
X157841000Y-67691000D01*
X157861000Y-67691000D01*
X157861000Y-67671000D01*
X158115000Y-67671000D01*
X158115000Y-67691000D01*
G36*
X157111748Y-67690998D02*
G01*
X156982072Y-67690998D01*
X156982072Y-67561322D01*
X157111748Y-67690998D01*
G37*
X157111748Y-67690998D02*
X156982072Y-67690998D01*
X156982072Y-67561322D01*
X157111748Y-67690998D01*
M02*
