G04 #@! TF.GenerationSoftware,KiCad,Pcbnew,(5.1.0)-1*
G04 #@! TF.CreationDate,2019-05-01T15:09:39-04:00*
G04 #@! TF.ProjectId,PicoTrackerWSPR1Rev4,5069636f-5472-4616-936b-657257535052,rev?*
G04 #@! TF.SameCoordinates,Original*
G04 #@! TF.FileFunction,Paste,Top*
G04 #@! TF.FilePolarity,Positive*
%FSLAX46Y46*%
G04 Gerber Fmt 4.6, Leading zero omitted, Abs format (unit mm)*
G04 Created by KiCad (PCBNEW (5.1.0)-1) date 2019-05-01 15:09:39*
%MOMM*%
%LPD*%
G04 APERTURE LIST*
%ADD10C,0.100000*%
%ADD11C,0.066040*%
%ADD12O,3.799840X0.279400*%
%ADD13O,2.397760X1.648460*%
%ADD14O,0.279400X0.848360*%
%ADD15R,0.750000X1.200000*%
%ADD16R,1.200000X0.750000*%
%ADD17R,1.200000X0.900000*%
%ADD18R,1.000000X1.000000*%
%ADD19R,1.143000X3.048000*%
%ADD20R,1.500000X0.400000*%
%ADD21R,0.797560X1.798320*%
%ADD22R,0.248920X1.300000*%
%ADD23R,0.550000X1.600000*%
%ADD24R,1.600000X0.550000*%
%ADD25R,1.193800X1.397000*%
%ADD26R,0.635000X0.863600*%
G04 APERTURE END LIST*
D10*
X53975000Y-62230000D02*
X53975000Y-63500000D01*
X123190000Y-62230000D02*
X123190000Y-63500000D01*
X53975000Y-90170000D02*
X53975000Y-63500000D01*
X123190000Y-90170000D02*
X53975000Y-90170000D01*
X123190000Y-63500000D02*
X123190000Y-90170000D01*
X53975000Y-62230000D02*
X123190000Y-62230000D01*
X105791021Y-89408000D02*
G75*
G03X105791021Y-89408000I-381021J0D01*
G01*
X105791021Y-64389000D02*
G75*
G03X105791021Y-64389000I-381021J0D01*
G01*
X105791021Y-65913000D02*
G75*
G03X105791021Y-65913000I-381021J0D01*
G01*
X105791021Y-67437000D02*
G75*
G03X105791021Y-67437000I-381021J0D01*
G01*
X105791021Y-68961000D02*
G75*
G03X105791021Y-68961000I-381021J0D01*
G01*
X105791021Y-70612000D02*
G75*
G03X105791021Y-70612000I-381021J0D01*
G01*
X105791021Y-72136000D02*
G75*
G03X105791021Y-72136000I-381021J0D01*
G01*
X105791021Y-73914000D02*
G75*
G03X105791021Y-73914000I-381021J0D01*
G01*
X105791021Y-75438000D02*
G75*
G03X105791021Y-75438000I-381021J0D01*
G01*
X105791021Y-77216000D02*
G75*
G03X105791021Y-77216000I-381021J0D01*
G01*
X105791021Y-78740000D02*
G75*
G03X105791021Y-78740000I-381021J0D01*
G01*
X105791021Y-80264000D02*
G75*
G03X105791021Y-80264000I-381021J0D01*
G01*
X105791021Y-81788000D02*
G75*
G03X105791021Y-81788000I-381021J0D01*
G01*
X105791021Y-83312000D02*
G75*
G03X105791021Y-83312000I-381021J0D01*
G01*
X105791021Y-86360000D02*
G75*
G03X105791021Y-86360000I-381021J0D01*
G01*
X105791021Y-84836000D02*
G75*
G03X105791021Y-84836000I-381021J0D01*
G01*
X105791021Y-88011000D02*
G75*
G03X105791021Y-88011000I-381021J0D01*
G01*
X56388000Y-76835000D02*
G75*
G03X56388000Y-76835000I-889000J0D01*
G01*
X81757520Y-71140320D02*
G75*
G03X81757520Y-71140320I-114300J0D01*
G01*
X81257140Y-71140320D02*
G75*
G03X81257140Y-71140320I-114300J0D01*
G01*
X80759300Y-71140320D02*
G75*
G03X80759300Y-71140320I-114300J0D01*
G01*
X80261460Y-71140320D02*
G75*
G03X80261460Y-71140320I-114300J0D01*
G01*
X79761080Y-71140320D02*
G75*
G03X79761080Y-71140320I-114300J0D01*
G01*
X79761080Y-68813680D02*
G75*
G03X79761080Y-68813680I-114300J0D01*
G01*
X80261460Y-68813680D02*
G75*
G03X80261460Y-68813680I-114300J0D01*
G01*
X80759300Y-68813680D02*
G75*
G03X80759300Y-68813680I-114300J0D01*
G01*
X81257140Y-68813680D02*
G75*
G03X81257140Y-68813680I-114300J0D01*
G01*
X81757520Y-68813680D02*
G75*
G03X81757520Y-68813680I-114300J0D01*
G01*
D11*
X79321660Y-70126860D02*
X79321660Y-70375780D01*
X79321660Y-70375780D02*
X78745080Y-70375780D01*
X78745080Y-70126860D02*
X78745080Y-70375780D01*
X79321660Y-70126860D02*
X78745080Y-70126860D01*
X79321660Y-69578220D02*
X79321660Y-69827140D01*
X79321660Y-69827140D02*
X78745080Y-69827140D01*
X78745080Y-69578220D02*
X78745080Y-69827140D01*
X79321660Y-69578220D02*
X78745080Y-69578220D01*
X81300320Y-71368920D02*
X81300320Y-71597520D01*
X81485740Y-71368920D02*
X81485740Y-71597520D01*
X80802480Y-71368920D02*
X80802480Y-71597520D01*
X80985360Y-71368920D02*
X80985360Y-71597520D01*
X80304640Y-71368920D02*
X80304640Y-71597520D01*
X80487520Y-71368920D02*
X80487520Y-71597520D01*
X79804260Y-71368920D02*
X79804260Y-71597520D01*
X79989680Y-71368920D02*
X79989680Y-71597520D01*
X79989680Y-68356480D02*
X79989680Y-68585080D01*
X80487520Y-68356480D02*
X80487520Y-68585080D01*
X79804260Y-68356480D02*
X79804260Y-68585080D01*
X80985360Y-68356480D02*
X80985360Y-68585080D01*
X80304640Y-68356480D02*
X80304640Y-68585080D01*
X81485740Y-68356480D02*
X81485740Y-68585080D01*
X80802480Y-68356480D02*
X80802480Y-68585080D01*
X81300320Y-68356480D02*
X81300320Y-68585080D01*
X80495140Y-70126860D02*
X80495140Y-70774560D01*
X80495140Y-70126860D02*
X79471520Y-70126860D01*
X80495140Y-69179440D02*
X80495140Y-69827140D01*
X80495140Y-69827140D02*
X79471520Y-69827140D01*
X81818480Y-69827140D02*
X80794860Y-69827140D01*
X80794860Y-69179440D02*
X80794860Y-69827140D01*
X80794860Y-70126860D02*
X80794860Y-70774560D01*
X81818480Y-70126860D02*
X80794860Y-70126860D01*
X82544920Y-69578220D02*
X82544920Y-69827140D01*
X82544920Y-69827140D02*
X81968340Y-69827140D01*
X81968340Y-69578220D02*
X81968340Y-69827140D01*
X82544920Y-69578220D02*
X81968340Y-69578220D01*
X82544920Y-70126860D02*
X82544920Y-70375780D01*
X82544920Y-70375780D02*
X81968340Y-70375780D01*
X81968340Y-70126860D02*
X81968340Y-70375780D01*
X82544920Y-70126860D02*
X81968340Y-70126860D01*
D12*
X80645000Y-69702680D03*
X80645000Y-70251320D03*
D13*
X80645000Y-69977000D03*
D14*
X81643220Y-71450200D03*
X81142840Y-71450200D03*
X80645000Y-71450200D03*
X80147160Y-71450200D03*
X79646780Y-71450200D03*
X79646780Y-68503800D03*
X80147160Y-68503800D03*
X80645000Y-68503800D03*
X81142840Y-68503800D03*
X81643220Y-68503800D03*
D15*
X103124000Y-77475000D03*
X103124000Y-79375000D03*
X77851000Y-68519000D03*
X77851000Y-70419000D03*
X83312000Y-70358000D03*
X83312000Y-68458000D03*
X84582000Y-68458000D03*
X84582000Y-70358000D03*
X71755000Y-85095000D03*
X71755000Y-86995000D03*
X79629000Y-73787000D03*
X79629000Y-75687000D03*
D16*
X81280000Y-82550000D03*
X83180000Y-82550000D03*
D15*
X85598000Y-86228000D03*
X85598000Y-84328000D03*
X89789000Y-75885000D03*
X89789000Y-77785000D03*
X75819000Y-80899000D03*
X75819000Y-82799000D03*
D17*
X97917000Y-65659000D03*
X95717000Y-65659000D03*
X95717000Y-67183000D03*
X97917000Y-67183000D03*
D18*
X70104000Y-85471000D03*
X70104000Y-84201000D03*
D19*
X80327500Y-65786000D03*
X78168500Y-65786000D03*
D20*
X77717000Y-73899000D03*
X77717000Y-74549000D03*
X77717000Y-75199000D03*
X75057000Y-75199000D03*
X75057000Y-74549000D03*
X75057000Y-73899000D03*
X80899000Y-84963000D03*
X80899000Y-85613000D03*
X80899000Y-86263000D03*
X83559000Y-86263000D03*
X83559000Y-85613000D03*
X83559000Y-84963000D03*
D21*
X72336660Y-70553580D03*
X71236840Y-70553580D03*
X70137020Y-70553580D03*
X69037200Y-70553580D03*
X67937380Y-70553580D03*
X66837560Y-70553580D03*
X65735200Y-70553580D03*
X62738000Y-70553580D03*
X61638180Y-70553580D03*
X60538360Y-70553580D03*
X59438540Y-70553580D03*
X58338720Y-70553580D03*
X58338720Y-82550000D03*
X59438540Y-82550000D03*
X60538360Y-82550000D03*
X61638180Y-82550000D03*
X62738000Y-82550000D03*
X65735200Y-82550000D03*
X66837560Y-82550000D03*
X67937380Y-82550000D03*
X69037200Y-82550000D03*
X70137020Y-82550000D03*
X71236840Y-82550000D03*
X72336660Y-82550000D03*
D22*
X79230220Y-79284000D03*
X78729840Y-79284000D03*
X78232000Y-79284000D03*
X77734160Y-79284000D03*
X77233780Y-79284000D03*
X77233780Y-83784000D03*
X77734160Y-83784000D03*
X78232000Y-83784000D03*
X78729840Y-83784000D03*
X79230220Y-83784000D03*
D17*
X101895000Y-65659000D03*
X99695000Y-65659000D03*
X99695000Y-67183000D03*
X101895000Y-67183000D03*
X93726000Y-65659000D03*
X91526000Y-65659000D03*
X91526000Y-67183000D03*
X93726000Y-67183000D03*
D23*
X93915000Y-76503000D03*
X94715000Y-76503000D03*
X95515000Y-76503000D03*
X96315000Y-76503000D03*
X97115000Y-76503000D03*
X97915000Y-76503000D03*
X98715000Y-76503000D03*
X99515000Y-76503000D03*
D24*
X100965000Y-77953000D03*
X100965000Y-78753000D03*
X100965000Y-79553000D03*
X100965000Y-80353000D03*
X100965000Y-81153000D03*
X100965000Y-81953000D03*
X100965000Y-82753000D03*
X100965000Y-83553000D03*
D23*
X99515000Y-85003000D03*
X98715000Y-85003000D03*
X97915000Y-85003000D03*
X97115000Y-85003000D03*
X96315000Y-85003000D03*
X95515000Y-85003000D03*
X94715000Y-85003000D03*
X93915000Y-85003000D03*
D24*
X92465000Y-83553000D03*
X92465000Y-82753000D03*
X92465000Y-81953000D03*
X92465000Y-81153000D03*
X92465000Y-80353000D03*
X92465000Y-79553000D03*
X92465000Y-78753000D03*
X92465000Y-77953000D03*
D17*
X89576000Y-65659000D03*
X87376000Y-65659000D03*
X87376000Y-67183000D03*
X89576000Y-67183000D03*
D15*
X89789000Y-79507000D03*
X89789000Y-81407000D03*
D17*
X99609000Y-72263000D03*
X97409000Y-72263000D03*
X93726000Y-68707000D03*
X91526000Y-68707000D03*
X81280000Y-81026000D03*
X83480000Y-81026000D03*
X81280000Y-79375000D03*
X83480000Y-79375000D03*
X81239000Y-77724000D03*
X83439000Y-77724000D03*
D25*
X89789000Y-86156800D03*
X89789000Y-83947000D03*
X88087200Y-83947000D03*
X88087200Y-86156800D03*
X85598000Y-80010000D03*
X85598000Y-77800200D03*
X87299800Y-77800200D03*
X87299800Y-80010000D03*
D26*
X97624900Y-70739000D03*
X99225100Y-70739000D03*
M02*
