G04 #@! TF.GenerationSoftware,KiCad,Pcbnew,(5.1.5)-3*
G04 #@! TF.CreationDate,2020-06-27T17:11:00-04:00*
G04 #@! TF.ProjectId,BreakoutSI4463PRORev2,42726561-6b6f-4757-9453-493434363350,rev?*
G04 #@! TF.SameCoordinates,Original*
G04 #@! TF.FileFunction,Soldermask,Top*
G04 #@! TF.FilePolarity,Negative*
%FSLAX46Y46*%
G04 Gerber Fmt 4.6, Leading zero omitted, Abs format (unit mm)*
G04 Created by KiCad (PCBNEW (5.1.5)-3) date 2020-06-27 17:11:00*
%MOMM*%
%LPD*%
G04 APERTURE LIST*
%ADD10C,0.100000*%
G04 APERTURE END LIST*
D10*
G36*
X147433512Y-118483927D02*
G01*
X147582812Y-118513624D01*
X147746784Y-118581544D01*
X147894354Y-118680147D01*
X148019853Y-118805646D01*
X148118456Y-118953216D01*
X148186376Y-119117188D01*
X148221000Y-119291259D01*
X148221000Y-119468741D01*
X148186376Y-119642812D01*
X148118456Y-119806784D01*
X148019853Y-119954354D01*
X147894354Y-120079853D01*
X147746784Y-120178456D01*
X147582812Y-120246376D01*
X147433512Y-120276073D01*
X147408742Y-120281000D01*
X147231258Y-120281000D01*
X147206488Y-120276073D01*
X147057188Y-120246376D01*
X146893216Y-120178456D01*
X146745646Y-120079853D01*
X146620147Y-119954354D01*
X146521544Y-119806784D01*
X146453624Y-119642812D01*
X146419000Y-119468741D01*
X146419000Y-119291259D01*
X146453624Y-119117188D01*
X146521544Y-118953216D01*
X146620147Y-118805646D01*
X146745646Y-118680147D01*
X146893216Y-118581544D01*
X147057188Y-118513624D01*
X147206488Y-118483927D01*
X147231258Y-118479000D01*
X147408742Y-118479000D01*
X147433512Y-118483927D01*
G37*
G36*
X147433512Y-115943927D02*
G01*
X147582812Y-115973624D01*
X147746784Y-116041544D01*
X147894354Y-116140147D01*
X148019853Y-116265646D01*
X148118456Y-116413216D01*
X148186376Y-116577188D01*
X148221000Y-116751259D01*
X148221000Y-116928741D01*
X148186376Y-117102812D01*
X148118456Y-117266784D01*
X148019853Y-117414354D01*
X147894354Y-117539853D01*
X147746784Y-117638456D01*
X147582812Y-117706376D01*
X147433512Y-117736073D01*
X147408742Y-117741000D01*
X147231258Y-117741000D01*
X147206488Y-117736073D01*
X147057188Y-117706376D01*
X146893216Y-117638456D01*
X146745646Y-117539853D01*
X146620147Y-117414354D01*
X146521544Y-117266784D01*
X146453624Y-117102812D01*
X146419000Y-116928741D01*
X146419000Y-116751259D01*
X146453624Y-116577188D01*
X146521544Y-116413216D01*
X146620147Y-116265646D01*
X146745646Y-116140147D01*
X146893216Y-116041544D01*
X147057188Y-115973624D01*
X147206488Y-115943927D01*
X147231258Y-115939000D01*
X147408742Y-115939000D01*
X147433512Y-115943927D01*
G37*
G36*
X129171000Y-117741000D02*
G01*
X127369000Y-117741000D01*
X127369000Y-115939000D01*
X129171000Y-115939000D01*
X129171000Y-117741000D01*
G37*
G36*
X130923512Y-115943927D02*
G01*
X131072812Y-115973624D01*
X131236784Y-116041544D01*
X131384354Y-116140147D01*
X131509853Y-116265646D01*
X131608456Y-116413216D01*
X131676376Y-116577188D01*
X131711000Y-116751259D01*
X131711000Y-116928741D01*
X131676376Y-117102812D01*
X131608456Y-117266784D01*
X131509853Y-117414354D01*
X131384354Y-117539853D01*
X131236784Y-117638456D01*
X131072812Y-117706376D01*
X130923512Y-117736073D01*
X130898742Y-117741000D01*
X130721258Y-117741000D01*
X130696488Y-117736073D01*
X130547188Y-117706376D01*
X130383216Y-117638456D01*
X130235646Y-117539853D01*
X130110147Y-117414354D01*
X130011544Y-117266784D01*
X129943624Y-117102812D01*
X129909000Y-116928741D01*
X129909000Y-116751259D01*
X129943624Y-116577188D01*
X130011544Y-116413216D01*
X130110147Y-116265646D01*
X130235646Y-116140147D01*
X130383216Y-116041544D01*
X130547188Y-115973624D01*
X130696488Y-115943927D01*
X130721258Y-115939000D01*
X130898742Y-115939000D01*
X130923512Y-115943927D01*
G37*
G36*
X147433512Y-113403927D02*
G01*
X147582812Y-113433624D01*
X147746784Y-113501544D01*
X147894354Y-113600147D01*
X148019853Y-113725646D01*
X148118456Y-113873216D01*
X148186376Y-114037188D01*
X148221000Y-114211259D01*
X148221000Y-114388741D01*
X148186376Y-114562812D01*
X148118456Y-114726784D01*
X148019853Y-114874354D01*
X147894354Y-114999853D01*
X147746784Y-115098456D01*
X147582812Y-115166376D01*
X147433512Y-115196073D01*
X147408742Y-115201000D01*
X147231258Y-115201000D01*
X147206488Y-115196073D01*
X147057188Y-115166376D01*
X146893216Y-115098456D01*
X146745646Y-114999853D01*
X146620147Y-114874354D01*
X146521544Y-114726784D01*
X146453624Y-114562812D01*
X146419000Y-114388741D01*
X146419000Y-114211259D01*
X146453624Y-114037188D01*
X146521544Y-113873216D01*
X146620147Y-113725646D01*
X146745646Y-113600147D01*
X146893216Y-113501544D01*
X147057188Y-113433624D01*
X147206488Y-113403927D01*
X147231258Y-113399000D01*
X147408742Y-113399000D01*
X147433512Y-113403927D01*
G37*
G36*
X121874480Y-113741400D02*
G01*
X120096080Y-113741400D01*
X120096080Y-112826600D01*
X121874480Y-112826600D01*
X121874480Y-113741400D01*
G37*
G36*
X139016940Y-113741400D02*
G01*
X137238540Y-113741400D01*
X137238540Y-112826600D01*
X139016940Y-112826600D01*
X139016940Y-113741400D01*
G37*
G36*
X147433512Y-110863927D02*
G01*
X147582812Y-110893624D01*
X147746784Y-110961544D01*
X147894354Y-111060147D01*
X148019853Y-111185646D01*
X148118456Y-111333216D01*
X148186376Y-111497188D01*
X148221000Y-111671259D01*
X148221000Y-111848741D01*
X148186376Y-112022812D01*
X148118456Y-112186784D01*
X148019853Y-112334354D01*
X147894354Y-112459853D01*
X147746784Y-112558456D01*
X147582812Y-112626376D01*
X147433512Y-112656073D01*
X147408742Y-112661000D01*
X147231258Y-112661000D01*
X147206488Y-112656073D01*
X147057188Y-112626376D01*
X146893216Y-112558456D01*
X146745646Y-112459853D01*
X146620147Y-112334354D01*
X146521544Y-112186784D01*
X146453624Y-112022812D01*
X146419000Y-111848741D01*
X146419000Y-111671259D01*
X146453624Y-111497188D01*
X146521544Y-111333216D01*
X146620147Y-111185646D01*
X146745646Y-111060147D01*
X146893216Y-110961544D01*
X147057188Y-110893624D01*
X147206488Y-110863927D01*
X147231258Y-110859000D01*
X147408742Y-110859000D01*
X147433512Y-110863927D01*
G37*
G36*
X121874480Y-112550140D02*
G01*
X120096080Y-112550140D01*
X120096080Y-111635340D01*
X121874480Y-111635340D01*
X121874480Y-112550140D01*
G37*
G36*
X139016940Y-112471400D02*
G01*
X137238540Y-112471400D01*
X137238540Y-111556600D01*
X139016940Y-111556600D01*
X139016940Y-112471400D01*
G37*
G36*
X139016940Y-111201400D02*
G01*
X137238540Y-111201400D01*
X137238540Y-110286600D01*
X139016940Y-110286600D01*
X139016940Y-111201400D01*
G37*
G36*
X147433512Y-108323927D02*
G01*
X147582812Y-108353624D01*
X147746784Y-108421544D01*
X147894354Y-108520147D01*
X148019853Y-108645646D01*
X148118456Y-108793216D01*
X148186376Y-108957188D01*
X148221000Y-109131259D01*
X148221000Y-109308741D01*
X148186376Y-109482812D01*
X148118456Y-109646784D01*
X148019853Y-109794354D01*
X147894354Y-109919853D01*
X147746784Y-110018456D01*
X147582812Y-110086376D01*
X147433512Y-110116073D01*
X147408742Y-110121000D01*
X147231258Y-110121000D01*
X147206488Y-110116073D01*
X147057188Y-110086376D01*
X146893216Y-110018456D01*
X146745646Y-109919853D01*
X146620147Y-109794354D01*
X146521544Y-109646784D01*
X146453624Y-109482812D01*
X146419000Y-109308741D01*
X146419000Y-109131259D01*
X146453624Y-108957188D01*
X146521544Y-108793216D01*
X146620147Y-108645646D01*
X146745646Y-108520147D01*
X146893216Y-108421544D01*
X147057188Y-108353624D01*
X147206488Y-108323927D01*
X147231258Y-108319000D01*
X147408742Y-108319000D01*
X147433512Y-108323927D01*
G37*
G36*
X139016940Y-109931400D02*
G01*
X137238540Y-109931400D01*
X137238540Y-109016600D01*
X139016940Y-109016600D01*
X139016940Y-109931400D01*
G37*
G36*
X117921000Y-108961000D02*
G01*
X113619000Y-108961000D01*
X113619000Y-107509000D01*
X117921000Y-107509000D01*
X117921000Y-108961000D01*
G37*
G36*
X139016940Y-108661400D02*
G01*
X137238540Y-108661400D01*
X137238540Y-107746600D01*
X139016940Y-107746600D01*
X139016940Y-108661400D01*
G37*
G36*
X147433512Y-105783927D02*
G01*
X147582812Y-105813624D01*
X147746784Y-105881544D01*
X147894354Y-105980147D01*
X148019853Y-106105646D01*
X148118456Y-106253216D01*
X148186376Y-106417188D01*
X148221000Y-106591259D01*
X148221000Y-106768741D01*
X148186376Y-106942812D01*
X148118456Y-107106784D01*
X148019853Y-107254354D01*
X147894354Y-107379853D01*
X147746784Y-107478456D01*
X147582812Y-107546376D01*
X147433512Y-107576073D01*
X147408742Y-107581000D01*
X147231258Y-107581000D01*
X147206488Y-107576073D01*
X147057188Y-107546376D01*
X146893216Y-107478456D01*
X146745646Y-107379853D01*
X146620147Y-107254354D01*
X146521544Y-107106784D01*
X146453624Y-106942812D01*
X146419000Y-106768741D01*
X146419000Y-106591259D01*
X146453624Y-106417188D01*
X146521544Y-106253216D01*
X146620147Y-106105646D01*
X146745646Y-105980147D01*
X146893216Y-105881544D01*
X147057188Y-105813624D01*
X147206488Y-105783927D01*
X147231258Y-105779000D01*
X147408742Y-105779000D01*
X147433512Y-105783927D01*
G37*
G36*
X139016940Y-107391400D02*
G01*
X137238540Y-107391400D01*
X137238540Y-106476600D01*
X139016940Y-106476600D01*
X139016940Y-107391400D01*
G37*
G36*
X117421000Y-106096000D02*
G01*
X113719000Y-106096000D01*
X113719000Y-104724000D01*
X117421000Y-104724000D01*
X117421000Y-106096000D01*
G37*
G36*
X139016940Y-106042660D02*
G01*
X137238540Y-106042660D01*
X137238540Y-105127860D01*
X139016940Y-105127860D01*
X139016940Y-106042660D01*
G37*
G36*
X147433512Y-103243927D02*
G01*
X147582812Y-103273624D01*
X147746784Y-103341544D01*
X147894354Y-103440147D01*
X148019853Y-103565646D01*
X148118456Y-103713216D01*
X148186376Y-103877188D01*
X148221000Y-104051259D01*
X148221000Y-104228741D01*
X148186376Y-104402812D01*
X148118456Y-104566784D01*
X148019853Y-104714354D01*
X147894354Y-104839853D01*
X147746784Y-104938456D01*
X147582812Y-105006376D01*
X147433512Y-105036073D01*
X147408742Y-105041000D01*
X147231258Y-105041000D01*
X147206488Y-105036073D01*
X147057188Y-105006376D01*
X146893216Y-104938456D01*
X146745646Y-104839853D01*
X146620147Y-104714354D01*
X146521544Y-104566784D01*
X146453624Y-104402812D01*
X146419000Y-104228741D01*
X146419000Y-104051259D01*
X146453624Y-103877188D01*
X146521544Y-103713216D01*
X146620147Y-103565646D01*
X146745646Y-103440147D01*
X146893216Y-103341544D01*
X147057188Y-103273624D01*
X147206488Y-103243927D01*
X147231258Y-103239000D01*
X147408742Y-103239000D01*
X147433512Y-103243927D01*
G37*
G36*
X139016940Y-104851400D02*
G01*
X137238540Y-104851400D01*
X137238540Y-103936600D01*
X139016940Y-103936600D01*
X139016940Y-104851400D01*
G37*
G36*
X139016940Y-103581400D02*
G01*
X137238540Y-103581400D01*
X137238540Y-102666600D01*
X139016940Y-102666600D01*
X139016940Y-103581400D01*
G37*
G36*
X117921000Y-103311000D02*
G01*
X113619000Y-103311000D01*
X113619000Y-101859000D01*
X117921000Y-101859000D01*
X117921000Y-103311000D01*
G37*
G36*
X147433512Y-100703927D02*
G01*
X147582812Y-100733624D01*
X147746784Y-100801544D01*
X147894354Y-100900147D01*
X148019853Y-101025646D01*
X148118456Y-101173216D01*
X148186376Y-101337188D01*
X148221000Y-101511259D01*
X148221000Y-101688741D01*
X148186376Y-101862812D01*
X148118456Y-102026784D01*
X148019853Y-102174354D01*
X147894354Y-102299853D01*
X147746784Y-102398456D01*
X147582812Y-102466376D01*
X147433512Y-102496073D01*
X147408742Y-102501000D01*
X147231258Y-102501000D01*
X147206488Y-102496073D01*
X147057188Y-102466376D01*
X146893216Y-102398456D01*
X146745646Y-102299853D01*
X146620147Y-102174354D01*
X146521544Y-102026784D01*
X146453624Y-101862812D01*
X146419000Y-101688741D01*
X146419000Y-101511259D01*
X146453624Y-101337188D01*
X146521544Y-101173216D01*
X146620147Y-101025646D01*
X146745646Y-100900147D01*
X146893216Y-100801544D01*
X147057188Y-100733624D01*
X147206488Y-100703927D01*
X147231258Y-100699000D01*
X147408742Y-100699000D01*
X147433512Y-100703927D01*
G37*
G36*
X139016940Y-102311400D02*
G01*
X137238540Y-102311400D01*
X137238540Y-101396600D01*
X139016940Y-101396600D01*
X139016940Y-102311400D01*
G37*
G36*
X139016940Y-101041400D02*
G01*
X137238540Y-101041400D01*
X137238540Y-100126600D01*
X139016940Y-100126600D01*
X139016940Y-101041400D01*
G37*
G36*
X147433512Y-98163927D02*
G01*
X147582812Y-98193624D01*
X147746784Y-98261544D01*
X147894354Y-98360147D01*
X148019853Y-98485646D01*
X148118456Y-98633216D01*
X148186376Y-98797188D01*
X148221000Y-98971259D01*
X148221000Y-99148741D01*
X148186376Y-99322812D01*
X148118456Y-99486784D01*
X148019853Y-99634354D01*
X147894354Y-99759853D01*
X147746784Y-99858456D01*
X147582812Y-99926376D01*
X147433512Y-99956073D01*
X147408742Y-99961000D01*
X147231258Y-99961000D01*
X147206488Y-99956073D01*
X147057188Y-99926376D01*
X146893216Y-99858456D01*
X146745646Y-99759853D01*
X146620147Y-99634354D01*
X146521544Y-99486784D01*
X146453624Y-99322812D01*
X146419000Y-99148741D01*
X146419000Y-98971259D01*
X146453624Y-98797188D01*
X146521544Y-98633216D01*
X146620147Y-98485646D01*
X146745646Y-98360147D01*
X146893216Y-98261544D01*
X147057188Y-98193624D01*
X147206488Y-98163927D01*
X147231258Y-98159000D01*
X147408742Y-98159000D01*
X147433512Y-98163927D01*
G37*
G36*
X139016940Y-99771400D02*
G01*
X137238540Y-99771400D01*
X137238540Y-98856600D01*
X139016940Y-98856600D01*
X139016940Y-99771400D01*
G37*
G36*
X147433512Y-95623927D02*
G01*
X147582812Y-95653624D01*
X147746784Y-95721544D01*
X147894354Y-95820147D01*
X148019853Y-95945646D01*
X148118456Y-96093216D01*
X148186376Y-96257188D01*
X148221000Y-96431259D01*
X148221000Y-96608741D01*
X148186376Y-96782812D01*
X148118456Y-96946784D01*
X148019853Y-97094354D01*
X147894354Y-97219853D01*
X147746784Y-97318456D01*
X147582812Y-97386376D01*
X147433512Y-97416073D01*
X147408742Y-97421000D01*
X147231258Y-97421000D01*
X147206488Y-97416073D01*
X147057188Y-97386376D01*
X146893216Y-97318456D01*
X146745646Y-97219853D01*
X146620147Y-97094354D01*
X146521544Y-96946784D01*
X146453624Y-96782812D01*
X146419000Y-96608741D01*
X146419000Y-96431259D01*
X146453624Y-96257188D01*
X146521544Y-96093216D01*
X146620147Y-95945646D01*
X146745646Y-95820147D01*
X146893216Y-95721544D01*
X147057188Y-95653624D01*
X147206488Y-95623927D01*
X147231258Y-95619000D01*
X147408742Y-95619000D01*
X147433512Y-95623927D01*
G37*
G36*
X147433512Y-93083927D02*
G01*
X147582812Y-93113624D01*
X147746784Y-93181544D01*
X147894354Y-93280147D01*
X148019853Y-93405646D01*
X148118456Y-93553216D01*
X148186376Y-93717188D01*
X148221000Y-93891259D01*
X148221000Y-94068741D01*
X148186376Y-94242812D01*
X148118456Y-94406784D01*
X148019853Y-94554354D01*
X147894354Y-94679853D01*
X147746784Y-94778456D01*
X147582812Y-94846376D01*
X147433512Y-94876073D01*
X147408742Y-94881000D01*
X147231258Y-94881000D01*
X147206488Y-94876073D01*
X147057188Y-94846376D01*
X146893216Y-94778456D01*
X146745646Y-94679853D01*
X146620147Y-94554354D01*
X146521544Y-94406784D01*
X146453624Y-94242812D01*
X146419000Y-94068741D01*
X146419000Y-93891259D01*
X146453624Y-93717188D01*
X146521544Y-93553216D01*
X146620147Y-93405646D01*
X146745646Y-93280147D01*
X146893216Y-93181544D01*
X147057188Y-93113624D01*
X147206488Y-93083927D01*
X147231258Y-93079000D01*
X147408742Y-93079000D01*
X147433512Y-93083927D01*
G37*
G36*
X148221000Y-92341000D02*
G01*
X146419000Y-92341000D01*
X146419000Y-90539000D01*
X148221000Y-90539000D01*
X148221000Y-92341000D01*
G37*
M02*
