G04 #@! TF.GenerationSoftware,KiCad,Pcbnew,(5.1.5)-3*
G04 #@! TF.CreationDate,2020-06-27T17:11:00-04:00*
G04 #@! TF.ProjectId,BreakoutSI4463PRORev2,42726561-6b6f-4757-9453-493434363350,rev?*
G04 #@! TF.SameCoordinates,Original*
G04 #@! TF.FileFunction,Copper,L2,Bot*
G04 #@! TF.FilePolarity,Positive*
%FSLAX46Y46*%
G04 Gerber Fmt 4.6, Leading zero omitted, Abs format (unit mm)*
G04 Created by KiCad (PCBNEW (5.1.5)-3) date 2020-06-27 17:11:00*
%MOMM*%
%LPD*%
G04 APERTURE LIST*
%ADD10O,1.700000X1.700000*%
%ADD11R,1.700000X1.700000*%
%ADD12R,4.200000X1.350000*%
%ADD13C,0.800000*%
%ADD14C,0.254000*%
G04 APERTURE END LIST*
D10*
X130810000Y-116840000D03*
D11*
X128270000Y-116840000D03*
D10*
X147320000Y-119380000D03*
X147320000Y-116840000D03*
X147320000Y-114300000D03*
X147320000Y-111760000D03*
X147320000Y-109220000D03*
X147320000Y-106680000D03*
X147320000Y-104140000D03*
X147320000Y-101600000D03*
X147320000Y-99060000D03*
X147320000Y-96520000D03*
X147320000Y-93980000D03*
D11*
X147320000Y-91440000D03*
D12*
X115770000Y-102585000D03*
X115770000Y-108235000D03*
D13*
X115570000Y-100330000D03*
X115570000Y-110490000D03*
X123190000Y-110490000D03*
D14*
G36*
X145835000Y-91154250D02*
G01*
X145993750Y-91313000D01*
X147193000Y-91313000D01*
X147193000Y-91293000D01*
X147447000Y-91293000D01*
X147447000Y-91313000D01*
X147467000Y-91313000D01*
X147467000Y-91567000D01*
X147447000Y-91567000D01*
X147447000Y-91587000D01*
X147193000Y-91587000D01*
X147193000Y-91567000D01*
X145993750Y-91567000D01*
X145835000Y-91725750D01*
X145831928Y-92290000D01*
X145844188Y-92414482D01*
X145880498Y-92534180D01*
X145939463Y-92644494D01*
X146018815Y-92741185D01*
X146115506Y-92820537D01*
X146225820Y-92879502D01*
X146298380Y-92901513D01*
X146166525Y-93033368D01*
X146004010Y-93276589D01*
X145892068Y-93546842D01*
X145835000Y-93833740D01*
X145835000Y-94126260D01*
X145892068Y-94413158D01*
X146004010Y-94683411D01*
X146166525Y-94926632D01*
X146373368Y-95133475D01*
X146547760Y-95250000D01*
X146373368Y-95366525D01*
X146166525Y-95573368D01*
X146004010Y-95816589D01*
X145892068Y-96086842D01*
X145835000Y-96373740D01*
X145835000Y-96666260D01*
X145892068Y-96953158D01*
X146004010Y-97223411D01*
X146166525Y-97466632D01*
X146373368Y-97673475D01*
X146547760Y-97790000D01*
X146373368Y-97906525D01*
X146166525Y-98113368D01*
X146004010Y-98356589D01*
X145892068Y-98626842D01*
X145835000Y-98913740D01*
X145835000Y-99206260D01*
X145892068Y-99493158D01*
X146004010Y-99763411D01*
X146166525Y-100006632D01*
X146373368Y-100213475D01*
X146547760Y-100330000D01*
X146373368Y-100446525D01*
X146166525Y-100653368D01*
X146004010Y-100896589D01*
X145892068Y-101166842D01*
X145835000Y-101453740D01*
X145835000Y-101746260D01*
X145892068Y-102033158D01*
X146004010Y-102303411D01*
X146166525Y-102546632D01*
X146373368Y-102753475D01*
X146547760Y-102870000D01*
X146373368Y-102986525D01*
X146166525Y-103193368D01*
X146004010Y-103436589D01*
X145892068Y-103706842D01*
X145835000Y-103993740D01*
X145835000Y-104286260D01*
X145892068Y-104573158D01*
X146004010Y-104843411D01*
X146166525Y-105086632D01*
X146373368Y-105293475D01*
X146547760Y-105410000D01*
X146373368Y-105526525D01*
X146166525Y-105733368D01*
X146004010Y-105976589D01*
X145892068Y-106246842D01*
X145835000Y-106533740D01*
X145835000Y-106826260D01*
X145892068Y-107113158D01*
X146004010Y-107383411D01*
X146166525Y-107626632D01*
X146373368Y-107833475D01*
X146547760Y-107950000D01*
X146373368Y-108066525D01*
X146166525Y-108273368D01*
X146004010Y-108516589D01*
X145892068Y-108786842D01*
X145835000Y-109073740D01*
X145835000Y-109366260D01*
X145892068Y-109653158D01*
X146004010Y-109923411D01*
X146166525Y-110166632D01*
X146373368Y-110373475D01*
X146547760Y-110490000D01*
X146373368Y-110606525D01*
X146166525Y-110813368D01*
X146004010Y-111056589D01*
X145892068Y-111326842D01*
X145835000Y-111613740D01*
X145835000Y-111906260D01*
X145892068Y-112193158D01*
X146004010Y-112463411D01*
X146166525Y-112706632D01*
X146373368Y-112913475D01*
X146547760Y-113030000D01*
X146373368Y-113146525D01*
X146166525Y-113353368D01*
X146004010Y-113596589D01*
X145892068Y-113866842D01*
X145835000Y-114153740D01*
X145835000Y-114446260D01*
X145892068Y-114733158D01*
X146004010Y-115003411D01*
X146166525Y-115246632D01*
X146373368Y-115453475D01*
X146547760Y-115570000D01*
X146373368Y-115686525D01*
X146166525Y-115893368D01*
X146004010Y-116136589D01*
X145892068Y-116406842D01*
X145835000Y-116693740D01*
X145835000Y-116986260D01*
X145892068Y-117273158D01*
X146004010Y-117543411D01*
X146166525Y-117786632D01*
X146373368Y-117993475D01*
X146555534Y-118115195D01*
X146438645Y-118184822D01*
X146222412Y-118379731D01*
X146048359Y-118613080D01*
X145923175Y-118875901D01*
X145878524Y-119023110D01*
X145999845Y-119253000D01*
X147193000Y-119253000D01*
X147193000Y-119233000D01*
X147447000Y-119233000D01*
X147447000Y-119253000D01*
X147467000Y-119253000D01*
X147467000Y-119507000D01*
X147447000Y-119507000D01*
X147447000Y-119527000D01*
X147193000Y-119527000D01*
X147193000Y-119507000D01*
X145999845Y-119507000D01*
X145878524Y-119736890D01*
X145923175Y-119884099D01*
X145973617Y-119990000D01*
X113690000Y-119990000D01*
X113690000Y-115990000D01*
X126781928Y-115990000D01*
X126781928Y-117690000D01*
X126794188Y-117814482D01*
X126830498Y-117934180D01*
X126889463Y-118044494D01*
X126968815Y-118141185D01*
X127065506Y-118220537D01*
X127175820Y-118279502D01*
X127295518Y-118315812D01*
X127420000Y-118328072D01*
X129120000Y-118328072D01*
X129244482Y-118315812D01*
X129364180Y-118279502D01*
X129474494Y-118220537D01*
X129571185Y-118141185D01*
X129650537Y-118044494D01*
X129709502Y-117934180D01*
X129733966Y-117853534D01*
X129809731Y-117937588D01*
X130043080Y-118111641D01*
X130305901Y-118236825D01*
X130453110Y-118281476D01*
X130683000Y-118160155D01*
X130683000Y-116967000D01*
X130937000Y-116967000D01*
X130937000Y-118160155D01*
X131166890Y-118281476D01*
X131314099Y-118236825D01*
X131576920Y-118111641D01*
X131810269Y-117937588D01*
X132005178Y-117721355D01*
X132154157Y-117471252D01*
X132251481Y-117196891D01*
X132130814Y-116967000D01*
X130937000Y-116967000D01*
X130683000Y-116967000D01*
X130663000Y-116967000D01*
X130663000Y-116713000D01*
X130683000Y-116713000D01*
X130683000Y-115519845D01*
X130937000Y-115519845D01*
X130937000Y-116713000D01*
X132130814Y-116713000D01*
X132251481Y-116483109D01*
X132154157Y-116208748D01*
X132005178Y-115958645D01*
X131810269Y-115742412D01*
X131576920Y-115568359D01*
X131314099Y-115443175D01*
X131166890Y-115398524D01*
X130937000Y-115519845D01*
X130683000Y-115519845D01*
X130453110Y-115398524D01*
X130305901Y-115443175D01*
X130043080Y-115568359D01*
X129809731Y-115742412D01*
X129733966Y-115826466D01*
X129709502Y-115745820D01*
X129650537Y-115635506D01*
X129571185Y-115538815D01*
X129474494Y-115459463D01*
X129364180Y-115400498D01*
X129244482Y-115364188D01*
X129120000Y-115351928D01*
X127420000Y-115351928D01*
X127295518Y-115364188D01*
X127175820Y-115400498D01*
X127065506Y-115459463D01*
X126968815Y-115538815D01*
X126889463Y-115635506D01*
X126830498Y-115745820D01*
X126794188Y-115865518D01*
X126781928Y-115990000D01*
X113690000Y-115990000D01*
X113690000Y-109548038D01*
X115484250Y-109545000D01*
X115643000Y-109386250D01*
X115643000Y-108362000D01*
X115897000Y-108362000D01*
X115897000Y-109386250D01*
X116055750Y-109545000D01*
X117870000Y-109548072D01*
X117994482Y-109535812D01*
X118114180Y-109499502D01*
X118224494Y-109440537D01*
X118321185Y-109361185D01*
X118400537Y-109264494D01*
X118459502Y-109154180D01*
X118495812Y-109034482D01*
X118508072Y-108910000D01*
X118505000Y-108520750D01*
X118346250Y-108362000D01*
X115897000Y-108362000D01*
X115643000Y-108362000D01*
X115623000Y-108362000D01*
X115623000Y-108108000D01*
X115643000Y-108108000D01*
X115643000Y-107083750D01*
X115897000Y-107083750D01*
X115897000Y-108108000D01*
X118346250Y-108108000D01*
X118505000Y-107949250D01*
X118508072Y-107560000D01*
X118495812Y-107435518D01*
X118459502Y-107315820D01*
X118400537Y-107205506D01*
X118321185Y-107108815D01*
X118224494Y-107029463D01*
X118114180Y-106970498D01*
X117994482Y-106934188D01*
X117870000Y-106921928D01*
X116055750Y-106925000D01*
X115897000Y-107083750D01*
X115643000Y-107083750D01*
X115484250Y-106925000D01*
X113690000Y-106921962D01*
X113690000Y-103898038D01*
X115484250Y-103895000D01*
X115643000Y-103736250D01*
X115643000Y-102712000D01*
X115897000Y-102712000D01*
X115897000Y-103736250D01*
X116055750Y-103895000D01*
X117870000Y-103898072D01*
X117994482Y-103885812D01*
X118114180Y-103849502D01*
X118224494Y-103790537D01*
X118321185Y-103711185D01*
X118400537Y-103614494D01*
X118459502Y-103504180D01*
X118495812Y-103384482D01*
X118508072Y-103260000D01*
X118505000Y-102870750D01*
X118346250Y-102712000D01*
X115897000Y-102712000D01*
X115643000Y-102712000D01*
X115623000Y-102712000D01*
X115623000Y-102458000D01*
X115643000Y-102458000D01*
X115643000Y-101433750D01*
X115897000Y-101433750D01*
X115897000Y-102458000D01*
X118346250Y-102458000D01*
X118505000Y-102299250D01*
X118508072Y-101910000D01*
X118495812Y-101785518D01*
X118459502Y-101665820D01*
X118400537Y-101555506D01*
X118321185Y-101458815D01*
X118224494Y-101379463D01*
X118114180Y-101320498D01*
X117994482Y-101284188D01*
X117870000Y-101271928D01*
X116055750Y-101275000D01*
X115897000Y-101433750D01*
X115643000Y-101433750D01*
X115484250Y-101275000D01*
X113690000Y-101271962D01*
X113690000Y-90830000D01*
X145833235Y-90830000D01*
X145835000Y-91154250D01*
G37*
X145835000Y-91154250D02*
X145993750Y-91313000D01*
X147193000Y-91313000D01*
X147193000Y-91293000D01*
X147447000Y-91293000D01*
X147447000Y-91313000D01*
X147467000Y-91313000D01*
X147467000Y-91567000D01*
X147447000Y-91567000D01*
X147447000Y-91587000D01*
X147193000Y-91587000D01*
X147193000Y-91567000D01*
X145993750Y-91567000D01*
X145835000Y-91725750D01*
X145831928Y-92290000D01*
X145844188Y-92414482D01*
X145880498Y-92534180D01*
X145939463Y-92644494D01*
X146018815Y-92741185D01*
X146115506Y-92820537D01*
X146225820Y-92879502D01*
X146298380Y-92901513D01*
X146166525Y-93033368D01*
X146004010Y-93276589D01*
X145892068Y-93546842D01*
X145835000Y-93833740D01*
X145835000Y-94126260D01*
X145892068Y-94413158D01*
X146004010Y-94683411D01*
X146166525Y-94926632D01*
X146373368Y-95133475D01*
X146547760Y-95250000D01*
X146373368Y-95366525D01*
X146166525Y-95573368D01*
X146004010Y-95816589D01*
X145892068Y-96086842D01*
X145835000Y-96373740D01*
X145835000Y-96666260D01*
X145892068Y-96953158D01*
X146004010Y-97223411D01*
X146166525Y-97466632D01*
X146373368Y-97673475D01*
X146547760Y-97790000D01*
X146373368Y-97906525D01*
X146166525Y-98113368D01*
X146004010Y-98356589D01*
X145892068Y-98626842D01*
X145835000Y-98913740D01*
X145835000Y-99206260D01*
X145892068Y-99493158D01*
X146004010Y-99763411D01*
X146166525Y-100006632D01*
X146373368Y-100213475D01*
X146547760Y-100330000D01*
X146373368Y-100446525D01*
X146166525Y-100653368D01*
X146004010Y-100896589D01*
X145892068Y-101166842D01*
X145835000Y-101453740D01*
X145835000Y-101746260D01*
X145892068Y-102033158D01*
X146004010Y-102303411D01*
X146166525Y-102546632D01*
X146373368Y-102753475D01*
X146547760Y-102870000D01*
X146373368Y-102986525D01*
X146166525Y-103193368D01*
X146004010Y-103436589D01*
X145892068Y-103706842D01*
X145835000Y-103993740D01*
X145835000Y-104286260D01*
X145892068Y-104573158D01*
X146004010Y-104843411D01*
X146166525Y-105086632D01*
X146373368Y-105293475D01*
X146547760Y-105410000D01*
X146373368Y-105526525D01*
X146166525Y-105733368D01*
X146004010Y-105976589D01*
X145892068Y-106246842D01*
X145835000Y-106533740D01*
X145835000Y-106826260D01*
X145892068Y-107113158D01*
X146004010Y-107383411D01*
X146166525Y-107626632D01*
X146373368Y-107833475D01*
X146547760Y-107950000D01*
X146373368Y-108066525D01*
X146166525Y-108273368D01*
X146004010Y-108516589D01*
X145892068Y-108786842D01*
X145835000Y-109073740D01*
X145835000Y-109366260D01*
X145892068Y-109653158D01*
X146004010Y-109923411D01*
X146166525Y-110166632D01*
X146373368Y-110373475D01*
X146547760Y-110490000D01*
X146373368Y-110606525D01*
X146166525Y-110813368D01*
X146004010Y-111056589D01*
X145892068Y-111326842D01*
X145835000Y-111613740D01*
X145835000Y-111906260D01*
X145892068Y-112193158D01*
X146004010Y-112463411D01*
X146166525Y-112706632D01*
X146373368Y-112913475D01*
X146547760Y-113030000D01*
X146373368Y-113146525D01*
X146166525Y-113353368D01*
X146004010Y-113596589D01*
X145892068Y-113866842D01*
X145835000Y-114153740D01*
X145835000Y-114446260D01*
X145892068Y-114733158D01*
X146004010Y-115003411D01*
X146166525Y-115246632D01*
X146373368Y-115453475D01*
X146547760Y-115570000D01*
X146373368Y-115686525D01*
X146166525Y-115893368D01*
X146004010Y-116136589D01*
X145892068Y-116406842D01*
X145835000Y-116693740D01*
X145835000Y-116986260D01*
X145892068Y-117273158D01*
X146004010Y-117543411D01*
X146166525Y-117786632D01*
X146373368Y-117993475D01*
X146555534Y-118115195D01*
X146438645Y-118184822D01*
X146222412Y-118379731D01*
X146048359Y-118613080D01*
X145923175Y-118875901D01*
X145878524Y-119023110D01*
X145999845Y-119253000D01*
X147193000Y-119253000D01*
X147193000Y-119233000D01*
X147447000Y-119233000D01*
X147447000Y-119253000D01*
X147467000Y-119253000D01*
X147467000Y-119507000D01*
X147447000Y-119507000D01*
X147447000Y-119527000D01*
X147193000Y-119527000D01*
X147193000Y-119507000D01*
X145999845Y-119507000D01*
X145878524Y-119736890D01*
X145923175Y-119884099D01*
X145973617Y-119990000D01*
X113690000Y-119990000D01*
X113690000Y-115990000D01*
X126781928Y-115990000D01*
X126781928Y-117690000D01*
X126794188Y-117814482D01*
X126830498Y-117934180D01*
X126889463Y-118044494D01*
X126968815Y-118141185D01*
X127065506Y-118220537D01*
X127175820Y-118279502D01*
X127295518Y-118315812D01*
X127420000Y-118328072D01*
X129120000Y-118328072D01*
X129244482Y-118315812D01*
X129364180Y-118279502D01*
X129474494Y-118220537D01*
X129571185Y-118141185D01*
X129650537Y-118044494D01*
X129709502Y-117934180D01*
X129733966Y-117853534D01*
X129809731Y-117937588D01*
X130043080Y-118111641D01*
X130305901Y-118236825D01*
X130453110Y-118281476D01*
X130683000Y-118160155D01*
X130683000Y-116967000D01*
X130937000Y-116967000D01*
X130937000Y-118160155D01*
X131166890Y-118281476D01*
X131314099Y-118236825D01*
X131576920Y-118111641D01*
X131810269Y-117937588D01*
X132005178Y-117721355D01*
X132154157Y-117471252D01*
X132251481Y-117196891D01*
X132130814Y-116967000D01*
X130937000Y-116967000D01*
X130683000Y-116967000D01*
X130663000Y-116967000D01*
X130663000Y-116713000D01*
X130683000Y-116713000D01*
X130683000Y-115519845D01*
X130937000Y-115519845D01*
X130937000Y-116713000D01*
X132130814Y-116713000D01*
X132251481Y-116483109D01*
X132154157Y-116208748D01*
X132005178Y-115958645D01*
X131810269Y-115742412D01*
X131576920Y-115568359D01*
X131314099Y-115443175D01*
X131166890Y-115398524D01*
X130937000Y-115519845D01*
X130683000Y-115519845D01*
X130453110Y-115398524D01*
X130305901Y-115443175D01*
X130043080Y-115568359D01*
X129809731Y-115742412D01*
X129733966Y-115826466D01*
X129709502Y-115745820D01*
X129650537Y-115635506D01*
X129571185Y-115538815D01*
X129474494Y-115459463D01*
X129364180Y-115400498D01*
X129244482Y-115364188D01*
X129120000Y-115351928D01*
X127420000Y-115351928D01*
X127295518Y-115364188D01*
X127175820Y-115400498D01*
X127065506Y-115459463D01*
X126968815Y-115538815D01*
X126889463Y-115635506D01*
X126830498Y-115745820D01*
X126794188Y-115865518D01*
X126781928Y-115990000D01*
X113690000Y-115990000D01*
X113690000Y-109548038D01*
X115484250Y-109545000D01*
X115643000Y-109386250D01*
X115643000Y-108362000D01*
X115897000Y-108362000D01*
X115897000Y-109386250D01*
X116055750Y-109545000D01*
X117870000Y-109548072D01*
X117994482Y-109535812D01*
X118114180Y-109499502D01*
X118224494Y-109440537D01*
X118321185Y-109361185D01*
X118400537Y-109264494D01*
X118459502Y-109154180D01*
X118495812Y-109034482D01*
X118508072Y-108910000D01*
X118505000Y-108520750D01*
X118346250Y-108362000D01*
X115897000Y-108362000D01*
X115643000Y-108362000D01*
X115623000Y-108362000D01*
X115623000Y-108108000D01*
X115643000Y-108108000D01*
X115643000Y-107083750D01*
X115897000Y-107083750D01*
X115897000Y-108108000D01*
X118346250Y-108108000D01*
X118505000Y-107949250D01*
X118508072Y-107560000D01*
X118495812Y-107435518D01*
X118459502Y-107315820D01*
X118400537Y-107205506D01*
X118321185Y-107108815D01*
X118224494Y-107029463D01*
X118114180Y-106970498D01*
X117994482Y-106934188D01*
X117870000Y-106921928D01*
X116055750Y-106925000D01*
X115897000Y-107083750D01*
X115643000Y-107083750D01*
X115484250Y-106925000D01*
X113690000Y-106921962D01*
X113690000Y-103898038D01*
X115484250Y-103895000D01*
X115643000Y-103736250D01*
X115643000Y-102712000D01*
X115897000Y-102712000D01*
X115897000Y-103736250D01*
X116055750Y-103895000D01*
X117870000Y-103898072D01*
X117994482Y-103885812D01*
X118114180Y-103849502D01*
X118224494Y-103790537D01*
X118321185Y-103711185D01*
X118400537Y-103614494D01*
X118459502Y-103504180D01*
X118495812Y-103384482D01*
X118508072Y-103260000D01*
X118505000Y-102870750D01*
X118346250Y-102712000D01*
X115897000Y-102712000D01*
X115643000Y-102712000D01*
X115623000Y-102712000D01*
X115623000Y-102458000D01*
X115643000Y-102458000D01*
X115643000Y-101433750D01*
X115897000Y-101433750D01*
X115897000Y-102458000D01*
X118346250Y-102458000D01*
X118505000Y-102299250D01*
X118508072Y-101910000D01*
X118495812Y-101785518D01*
X118459502Y-101665820D01*
X118400537Y-101555506D01*
X118321185Y-101458815D01*
X118224494Y-101379463D01*
X118114180Y-101320498D01*
X117994482Y-101284188D01*
X117870000Y-101271928D01*
X116055750Y-101275000D01*
X115897000Y-101433750D01*
X115643000Y-101433750D01*
X115484250Y-101275000D01*
X113690000Y-101271962D01*
X113690000Y-90830000D01*
X145833235Y-90830000D01*
X145835000Y-91154250D01*
M02*
