G04 #@! TF.GenerationSoftware,KiCad,Pcbnew,(5.1.5)-3*
G04 #@! TF.CreationDate,2020-06-27T17:11:00-04:00*
G04 #@! TF.ProjectId,BreakoutSI4463PRORev2,42726561-6b6f-4757-9453-493434363350,rev?*
G04 #@! TF.SameCoordinates,Original*
G04 #@! TF.FileFunction,Copper,L1,Top*
G04 #@! TF.FilePolarity,Positive*
%FSLAX46Y46*%
G04 Gerber Fmt 4.6, Leading zero omitted, Abs format (unit mm)*
G04 Created by KiCad (PCBNEW (5.1.5)-3) date 2020-06-27 17:11:00*
%MOMM*%
%LPD*%
G04 APERTURE LIST*
%ADD10O,1.700000X1.700000*%
%ADD11R,1.700000X1.700000*%
%ADD12R,1.676400X0.812800*%
%ADD13R,4.200000X1.350000*%
%ADD14R,3.600000X1.270000*%
%ADD15C,0.800000*%
%ADD16C,0.250000*%
%ADD17C,0.254000*%
G04 APERTURE END LIST*
D10*
X130810000Y-116840000D03*
D11*
X128270000Y-116840000D03*
D10*
X147320000Y-119380000D03*
X147320000Y-116840000D03*
X147320000Y-114300000D03*
X147320000Y-111760000D03*
X147320000Y-109220000D03*
X147320000Y-106680000D03*
X147320000Y-104140000D03*
X147320000Y-101600000D03*
X147320000Y-99060000D03*
X147320000Y-96520000D03*
X147320000Y-93980000D03*
D11*
X147320000Y-91440000D03*
D12*
X120985280Y-112092740D03*
X138127740Y-99314000D03*
X138127740Y-103124000D03*
X138127740Y-112014000D03*
X138127740Y-108204000D03*
X138127740Y-106934000D03*
X138127740Y-105585260D03*
X138127740Y-101854000D03*
X138127740Y-113284000D03*
X120985280Y-113284000D03*
X138127740Y-100584000D03*
X138127740Y-104394000D03*
X138127740Y-109474000D03*
X138127740Y-110744000D03*
D13*
X115770000Y-102585000D03*
X115770000Y-108235000D03*
D14*
X115570000Y-105410000D03*
D15*
X115570000Y-100330000D03*
X115570000Y-110490000D03*
X123190000Y-110490000D03*
D16*
X120985280Y-113940400D02*
X120985280Y-113284000D01*
X123884880Y-116840000D02*
X120985280Y-113940400D01*
X128270000Y-116840000D02*
X123884880Y-116840000D01*
X117620000Y-105410000D02*
X115570000Y-105410000D01*
X118195001Y-105985001D02*
X117620000Y-105410000D01*
X118195001Y-111581921D02*
X118195001Y-105985001D01*
X119897080Y-113284000D02*
X118195001Y-111581921D01*
X120985280Y-113284000D02*
X119897080Y-113284000D01*
X142494000Y-112014000D02*
X147320000Y-116840000D01*
X138127740Y-112014000D02*
X142494000Y-112014000D01*
X143764000Y-110744000D02*
X138127740Y-110744000D01*
X147320000Y-114300000D02*
X143764000Y-110744000D01*
X145034000Y-109474000D02*
X147320000Y-111760000D01*
X138127740Y-109474000D02*
X145034000Y-109474000D01*
X146304000Y-108204000D02*
X138127740Y-108204000D01*
X147320000Y-109220000D02*
X146304000Y-108204000D01*
X147066000Y-106934000D02*
X147320000Y-106680000D01*
X138127740Y-106934000D02*
X147066000Y-106934000D01*
X145874740Y-105585260D02*
X138127740Y-105585260D01*
X147320000Y-104140000D02*
X145874740Y-105585260D01*
X144526000Y-104394000D02*
X138127740Y-104394000D01*
X147320000Y-101600000D02*
X144526000Y-104394000D01*
X143256000Y-103124000D02*
X147320000Y-99060000D01*
X138127740Y-103124000D02*
X143256000Y-103124000D01*
X141986000Y-101854000D02*
X147320000Y-96520000D01*
X138127740Y-101854000D02*
X141986000Y-101854000D01*
X140716000Y-100584000D02*
X147320000Y-93980000D01*
X138127740Y-100584000D02*
X140716000Y-100584000D01*
X139446000Y-99314000D02*
X147320000Y-91440000D01*
X138127740Y-99314000D02*
X139446000Y-99314000D01*
X138127740Y-113940400D02*
X138127740Y-113284000D01*
X143567340Y-119380000D02*
X138127740Y-113940400D01*
X147320000Y-119380000D02*
X143567340Y-119380000D01*
D17*
G36*
X145835000Y-91154250D02*
G01*
X145993750Y-91313000D01*
X147193000Y-91313000D01*
X147193000Y-91293000D01*
X147447000Y-91293000D01*
X147447000Y-91313000D01*
X147467000Y-91313000D01*
X147467000Y-91567000D01*
X147447000Y-91567000D01*
X147447000Y-91587000D01*
X147193000Y-91587000D01*
X147193000Y-91567000D01*
X145993750Y-91567000D01*
X145835000Y-91725750D01*
X145831928Y-92290000D01*
X145844188Y-92414482D01*
X145880498Y-92534180D01*
X145939463Y-92644494D01*
X146018815Y-92741185D01*
X146115506Y-92820537D01*
X146225820Y-92879502D01*
X146298380Y-92901513D01*
X146166525Y-93033368D01*
X146004010Y-93276589D01*
X145892068Y-93546842D01*
X145835000Y-93833740D01*
X145835000Y-94126260D01*
X145878790Y-94346408D01*
X140401199Y-99824000D01*
X139593809Y-99824000D01*
X139604012Y-99720400D01*
X139600940Y-99599750D01*
X139442190Y-99441000D01*
X138254740Y-99441000D01*
X138254740Y-99461000D01*
X138000740Y-99461000D01*
X138000740Y-99441000D01*
X136813290Y-99441000D01*
X136654540Y-99599750D01*
X136651468Y-99720400D01*
X136663728Y-99844882D01*
X136695312Y-99949000D01*
X136663728Y-100053118D01*
X136651468Y-100177600D01*
X136651468Y-100990400D01*
X136663728Y-101114882D01*
X136695312Y-101219000D01*
X136663728Y-101323118D01*
X136651468Y-101447600D01*
X136651468Y-102260400D01*
X136663728Y-102384882D01*
X136695312Y-102489000D01*
X136663728Y-102593118D01*
X136651468Y-102717600D01*
X136651468Y-103530400D01*
X136663728Y-103654882D01*
X136695312Y-103759000D01*
X136663728Y-103863118D01*
X136651468Y-103987600D01*
X136651468Y-104800400D01*
X136663728Y-104924882D01*
X136683369Y-104989630D01*
X136663728Y-105054378D01*
X136651468Y-105178860D01*
X136651468Y-105991660D01*
X136663728Y-106116142D01*
X136700038Y-106235840D01*
X136712754Y-106259630D01*
X136700038Y-106283420D01*
X136663728Y-106403118D01*
X136651468Y-106527600D01*
X136651468Y-107340400D01*
X136663728Y-107464882D01*
X136695312Y-107569000D01*
X136663728Y-107673118D01*
X136651468Y-107797600D01*
X136651468Y-108610400D01*
X136663728Y-108734882D01*
X136695312Y-108839000D01*
X136663728Y-108943118D01*
X136651468Y-109067600D01*
X136651468Y-109880400D01*
X136663728Y-110004882D01*
X136695312Y-110109000D01*
X136663728Y-110213118D01*
X136651468Y-110337600D01*
X136651468Y-111150400D01*
X136663728Y-111274882D01*
X136695312Y-111379000D01*
X136663728Y-111483118D01*
X136651468Y-111607600D01*
X136651468Y-112420400D01*
X136663728Y-112544882D01*
X136695312Y-112649000D01*
X136663728Y-112753118D01*
X136651468Y-112877600D01*
X136654540Y-112998250D01*
X136813290Y-113157000D01*
X138000740Y-113157000D01*
X138000740Y-113137000D01*
X138254740Y-113137000D01*
X138254740Y-113157000D01*
X139442190Y-113157000D01*
X139600940Y-112998250D01*
X139604012Y-112877600D01*
X139593809Y-112774000D01*
X142179199Y-112774000D01*
X145878790Y-116473592D01*
X145835000Y-116693740D01*
X145835000Y-116986260D01*
X145892068Y-117273158D01*
X146004010Y-117543411D01*
X146166525Y-117786632D01*
X146373368Y-117993475D01*
X146555534Y-118115195D01*
X146438645Y-118184822D01*
X146222412Y-118379731D01*
X146048359Y-118613080D01*
X145923175Y-118875901D01*
X145878524Y-119023110D01*
X145999845Y-119253000D01*
X147193000Y-119253000D01*
X147193000Y-119233000D01*
X147447000Y-119233000D01*
X147447000Y-119253000D01*
X147467000Y-119253000D01*
X147467000Y-119507000D01*
X147447000Y-119507000D01*
X147447000Y-119527000D01*
X147193000Y-119527000D01*
X147193000Y-119507000D01*
X145999845Y-119507000D01*
X145878524Y-119736890D01*
X145923175Y-119884099D01*
X145973617Y-119990000D01*
X113690000Y-119990000D01*
X113690000Y-109548038D01*
X115484250Y-109545000D01*
X115643000Y-109386250D01*
X115643000Y-108362000D01*
X115623000Y-108362000D01*
X115623000Y-108108000D01*
X115643000Y-108108000D01*
X115643000Y-107083750D01*
X115484250Y-106925000D01*
X113690000Y-106921962D01*
X113690000Y-106675193D01*
X113770000Y-106683072D01*
X117370000Y-106683072D01*
X117435002Y-106676670D01*
X117435002Y-106922665D01*
X116055750Y-106925000D01*
X115897000Y-107083750D01*
X115897000Y-108108000D01*
X115917000Y-108108000D01*
X115917000Y-108362000D01*
X115897000Y-108362000D01*
X115897000Y-109386250D01*
X116055750Y-109545000D01*
X117435001Y-109547335D01*
X117435001Y-111544598D01*
X117431325Y-111581921D01*
X117435001Y-111619243D01*
X117435001Y-111619253D01*
X117445998Y-111730906D01*
X117486679Y-111865014D01*
X117489455Y-111874167D01*
X117560027Y-112006197D01*
X117597819Y-112052246D01*
X117655000Y-112121922D01*
X117684004Y-112145725D01*
X119333281Y-113795003D01*
X119357079Y-113824001D01*
X119472804Y-113918974D01*
X119579809Y-113976170D01*
X119616543Y-114044894D01*
X119695895Y-114141585D01*
X119792586Y-114220937D01*
X119902900Y-114279902D01*
X120022598Y-114316212D01*
X120147080Y-114328472D01*
X120330954Y-114328472D01*
X120350306Y-114364676D01*
X120390151Y-114413226D01*
X120445279Y-114480401D01*
X120474283Y-114504204D01*
X123321081Y-117351003D01*
X123344879Y-117380001D01*
X123460604Y-117474974D01*
X123592633Y-117545546D01*
X123735894Y-117589003D01*
X123847547Y-117600000D01*
X123847555Y-117600000D01*
X123884880Y-117603676D01*
X123922205Y-117600000D01*
X126781928Y-117600000D01*
X126781928Y-117690000D01*
X126794188Y-117814482D01*
X126830498Y-117934180D01*
X126889463Y-118044494D01*
X126968815Y-118141185D01*
X127065506Y-118220537D01*
X127175820Y-118279502D01*
X127295518Y-118315812D01*
X127420000Y-118328072D01*
X129120000Y-118328072D01*
X129244482Y-118315812D01*
X129364180Y-118279502D01*
X129474494Y-118220537D01*
X129571185Y-118141185D01*
X129650537Y-118044494D01*
X129709502Y-117934180D01*
X129733966Y-117853534D01*
X129809731Y-117937588D01*
X130043080Y-118111641D01*
X130305901Y-118236825D01*
X130453110Y-118281476D01*
X130683000Y-118160155D01*
X130683000Y-116967000D01*
X130937000Y-116967000D01*
X130937000Y-118160155D01*
X131166890Y-118281476D01*
X131314099Y-118236825D01*
X131576920Y-118111641D01*
X131810269Y-117937588D01*
X132005178Y-117721355D01*
X132154157Y-117471252D01*
X132251481Y-117196891D01*
X132130814Y-116967000D01*
X130937000Y-116967000D01*
X130683000Y-116967000D01*
X130663000Y-116967000D01*
X130663000Y-116713000D01*
X130683000Y-116713000D01*
X130683000Y-115519845D01*
X130937000Y-115519845D01*
X130937000Y-116713000D01*
X132130814Y-116713000D01*
X132251481Y-116483109D01*
X132154157Y-116208748D01*
X132005178Y-115958645D01*
X131810269Y-115742412D01*
X131576920Y-115568359D01*
X131314099Y-115443175D01*
X131166890Y-115398524D01*
X130937000Y-115519845D01*
X130683000Y-115519845D01*
X130453110Y-115398524D01*
X130305901Y-115443175D01*
X130043080Y-115568359D01*
X129809731Y-115742412D01*
X129733966Y-115826466D01*
X129709502Y-115745820D01*
X129650537Y-115635506D01*
X129571185Y-115538815D01*
X129474494Y-115459463D01*
X129364180Y-115400498D01*
X129244482Y-115364188D01*
X129120000Y-115351928D01*
X127420000Y-115351928D01*
X127295518Y-115364188D01*
X127175820Y-115400498D01*
X127065506Y-115459463D01*
X126968815Y-115538815D01*
X126889463Y-115635506D01*
X126830498Y-115745820D01*
X126794188Y-115865518D01*
X126781928Y-115990000D01*
X126781928Y-116080000D01*
X124199682Y-116080000D01*
X122267306Y-114147625D01*
X122274665Y-114141585D01*
X122354017Y-114044894D01*
X122412982Y-113934580D01*
X122449292Y-113814882D01*
X122461552Y-113690400D01*
X136651468Y-113690400D01*
X136663728Y-113814882D01*
X136700038Y-113934580D01*
X136759003Y-114044894D01*
X136838355Y-114141585D01*
X136935046Y-114220937D01*
X137045360Y-114279902D01*
X137165058Y-114316212D01*
X137289540Y-114328472D01*
X137841990Y-114325400D01*
X138000740Y-114166650D01*
X138000740Y-113411000D01*
X138254740Y-113411000D01*
X138254740Y-114166650D01*
X138413490Y-114325400D01*
X138965940Y-114328472D01*
X139090422Y-114316212D01*
X139210120Y-114279902D01*
X139320434Y-114220937D01*
X139417125Y-114141585D01*
X139496477Y-114044894D01*
X139555442Y-113934580D01*
X139591752Y-113814882D01*
X139604012Y-113690400D01*
X139600940Y-113569750D01*
X139442190Y-113411000D01*
X138254740Y-113411000D01*
X138000740Y-113411000D01*
X136813290Y-113411000D01*
X136654540Y-113569750D01*
X136651468Y-113690400D01*
X122461552Y-113690400D01*
X122461552Y-112877600D01*
X122449292Y-112753118D01*
X122429651Y-112688370D01*
X122449292Y-112623622D01*
X122461552Y-112499140D01*
X122458480Y-112378490D01*
X122299730Y-112219740D01*
X121112280Y-112219740D01*
X121112280Y-112239528D01*
X120858280Y-112239528D01*
X120858280Y-112219740D01*
X120838280Y-112219740D01*
X120838280Y-111965740D01*
X120858280Y-111965740D01*
X120858280Y-111210090D01*
X121112280Y-111210090D01*
X121112280Y-111965740D01*
X122299730Y-111965740D01*
X122458480Y-111806990D01*
X122461552Y-111686340D01*
X122449292Y-111561858D01*
X122412982Y-111442160D01*
X122354017Y-111331846D01*
X122274665Y-111235155D01*
X122177974Y-111155803D01*
X122067660Y-111096838D01*
X121947962Y-111060528D01*
X121823480Y-111048268D01*
X121271030Y-111051340D01*
X121112280Y-111210090D01*
X120858280Y-111210090D01*
X120699530Y-111051340D01*
X120147080Y-111048268D01*
X120022598Y-111060528D01*
X119902900Y-111096838D01*
X119792586Y-111155803D01*
X119695895Y-111235155D01*
X119616543Y-111331846D01*
X119557578Y-111442160D01*
X119521268Y-111561858D01*
X119509008Y-111686340D01*
X119512080Y-111806990D01*
X119670828Y-111965738D01*
X119653620Y-111965738D01*
X118955001Y-111267120D01*
X118955001Y-106022323D01*
X118958677Y-105985000D01*
X118955001Y-105947677D01*
X118955001Y-105947668D01*
X118944004Y-105836015D01*
X118900547Y-105692754D01*
X118829975Y-105560725D01*
X118735002Y-105445000D01*
X118706003Y-105421201D01*
X118183803Y-104899002D01*
X118160001Y-104869999D01*
X118044276Y-104775026D01*
X118006063Y-104754600D01*
X117995812Y-104650518D01*
X117959502Y-104530820D01*
X117900537Y-104420506D01*
X117821185Y-104323815D01*
X117724494Y-104244463D01*
X117614180Y-104185498D01*
X117494482Y-104149188D01*
X117370000Y-104136928D01*
X113770000Y-104136928D01*
X113690000Y-104144807D01*
X113690000Y-103898038D01*
X115484250Y-103895000D01*
X115643000Y-103736250D01*
X115643000Y-102712000D01*
X115897000Y-102712000D01*
X115897000Y-103736250D01*
X116055750Y-103895000D01*
X117870000Y-103898072D01*
X117994482Y-103885812D01*
X118114180Y-103849502D01*
X118224494Y-103790537D01*
X118321185Y-103711185D01*
X118400537Y-103614494D01*
X118459502Y-103504180D01*
X118495812Y-103384482D01*
X118508072Y-103260000D01*
X118505000Y-102870750D01*
X118346250Y-102712000D01*
X115897000Y-102712000D01*
X115643000Y-102712000D01*
X115623000Y-102712000D01*
X115623000Y-102458000D01*
X115643000Y-102458000D01*
X115643000Y-101433750D01*
X115897000Y-101433750D01*
X115897000Y-102458000D01*
X118346250Y-102458000D01*
X118505000Y-102299250D01*
X118508072Y-101910000D01*
X118495812Y-101785518D01*
X118459502Y-101665820D01*
X118400537Y-101555506D01*
X118321185Y-101458815D01*
X118224494Y-101379463D01*
X118114180Y-101320498D01*
X117994482Y-101284188D01*
X117870000Y-101271928D01*
X116055750Y-101275000D01*
X115897000Y-101433750D01*
X115643000Y-101433750D01*
X115484250Y-101275000D01*
X113690000Y-101271962D01*
X113690000Y-98907600D01*
X136651468Y-98907600D01*
X136654540Y-99028250D01*
X136813290Y-99187000D01*
X138000740Y-99187000D01*
X138000740Y-98431350D01*
X138254740Y-98431350D01*
X138254740Y-99187000D01*
X139442190Y-99187000D01*
X139600940Y-99028250D01*
X139604012Y-98907600D01*
X139591752Y-98783118D01*
X139555442Y-98663420D01*
X139496477Y-98553106D01*
X139417125Y-98456415D01*
X139320434Y-98377063D01*
X139210120Y-98318098D01*
X139090422Y-98281788D01*
X138965940Y-98269528D01*
X138413490Y-98272600D01*
X138254740Y-98431350D01*
X138000740Y-98431350D01*
X137841990Y-98272600D01*
X137289540Y-98269528D01*
X137165058Y-98281788D01*
X137045360Y-98318098D01*
X136935046Y-98377063D01*
X136838355Y-98456415D01*
X136759003Y-98553106D01*
X136700038Y-98663420D01*
X136663728Y-98783118D01*
X136651468Y-98907600D01*
X113690000Y-98907600D01*
X113690000Y-90830000D01*
X145833235Y-90830000D01*
X145835000Y-91154250D01*
G37*
X145835000Y-91154250D02*
X145993750Y-91313000D01*
X147193000Y-91313000D01*
X147193000Y-91293000D01*
X147447000Y-91293000D01*
X147447000Y-91313000D01*
X147467000Y-91313000D01*
X147467000Y-91567000D01*
X147447000Y-91567000D01*
X147447000Y-91587000D01*
X147193000Y-91587000D01*
X147193000Y-91567000D01*
X145993750Y-91567000D01*
X145835000Y-91725750D01*
X145831928Y-92290000D01*
X145844188Y-92414482D01*
X145880498Y-92534180D01*
X145939463Y-92644494D01*
X146018815Y-92741185D01*
X146115506Y-92820537D01*
X146225820Y-92879502D01*
X146298380Y-92901513D01*
X146166525Y-93033368D01*
X146004010Y-93276589D01*
X145892068Y-93546842D01*
X145835000Y-93833740D01*
X145835000Y-94126260D01*
X145878790Y-94346408D01*
X140401199Y-99824000D01*
X139593809Y-99824000D01*
X139604012Y-99720400D01*
X139600940Y-99599750D01*
X139442190Y-99441000D01*
X138254740Y-99441000D01*
X138254740Y-99461000D01*
X138000740Y-99461000D01*
X138000740Y-99441000D01*
X136813290Y-99441000D01*
X136654540Y-99599750D01*
X136651468Y-99720400D01*
X136663728Y-99844882D01*
X136695312Y-99949000D01*
X136663728Y-100053118D01*
X136651468Y-100177600D01*
X136651468Y-100990400D01*
X136663728Y-101114882D01*
X136695312Y-101219000D01*
X136663728Y-101323118D01*
X136651468Y-101447600D01*
X136651468Y-102260400D01*
X136663728Y-102384882D01*
X136695312Y-102489000D01*
X136663728Y-102593118D01*
X136651468Y-102717600D01*
X136651468Y-103530400D01*
X136663728Y-103654882D01*
X136695312Y-103759000D01*
X136663728Y-103863118D01*
X136651468Y-103987600D01*
X136651468Y-104800400D01*
X136663728Y-104924882D01*
X136683369Y-104989630D01*
X136663728Y-105054378D01*
X136651468Y-105178860D01*
X136651468Y-105991660D01*
X136663728Y-106116142D01*
X136700038Y-106235840D01*
X136712754Y-106259630D01*
X136700038Y-106283420D01*
X136663728Y-106403118D01*
X136651468Y-106527600D01*
X136651468Y-107340400D01*
X136663728Y-107464882D01*
X136695312Y-107569000D01*
X136663728Y-107673118D01*
X136651468Y-107797600D01*
X136651468Y-108610400D01*
X136663728Y-108734882D01*
X136695312Y-108839000D01*
X136663728Y-108943118D01*
X136651468Y-109067600D01*
X136651468Y-109880400D01*
X136663728Y-110004882D01*
X136695312Y-110109000D01*
X136663728Y-110213118D01*
X136651468Y-110337600D01*
X136651468Y-111150400D01*
X136663728Y-111274882D01*
X136695312Y-111379000D01*
X136663728Y-111483118D01*
X136651468Y-111607600D01*
X136651468Y-112420400D01*
X136663728Y-112544882D01*
X136695312Y-112649000D01*
X136663728Y-112753118D01*
X136651468Y-112877600D01*
X136654540Y-112998250D01*
X136813290Y-113157000D01*
X138000740Y-113157000D01*
X138000740Y-113137000D01*
X138254740Y-113137000D01*
X138254740Y-113157000D01*
X139442190Y-113157000D01*
X139600940Y-112998250D01*
X139604012Y-112877600D01*
X139593809Y-112774000D01*
X142179199Y-112774000D01*
X145878790Y-116473592D01*
X145835000Y-116693740D01*
X145835000Y-116986260D01*
X145892068Y-117273158D01*
X146004010Y-117543411D01*
X146166525Y-117786632D01*
X146373368Y-117993475D01*
X146555534Y-118115195D01*
X146438645Y-118184822D01*
X146222412Y-118379731D01*
X146048359Y-118613080D01*
X145923175Y-118875901D01*
X145878524Y-119023110D01*
X145999845Y-119253000D01*
X147193000Y-119253000D01*
X147193000Y-119233000D01*
X147447000Y-119233000D01*
X147447000Y-119253000D01*
X147467000Y-119253000D01*
X147467000Y-119507000D01*
X147447000Y-119507000D01*
X147447000Y-119527000D01*
X147193000Y-119527000D01*
X147193000Y-119507000D01*
X145999845Y-119507000D01*
X145878524Y-119736890D01*
X145923175Y-119884099D01*
X145973617Y-119990000D01*
X113690000Y-119990000D01*
X113690000Y-109548038D01*
X115484250Y-109545000D01*
X115643000Y-109386250D01*
X115643000Y-108362000D01*
X115623000Y-108362000D01*
X115623000Y-108108000D01*
X115643000Y-108108000D01*
X115643000Y-107083750D01*
X115484250Y-106925000D01*
X113690000Y-106921962D01*
X113690000Y-106675193D01*
X113770000Y-106683072D01*
X117370000Y-106683072D01*
X117435002Y-106676670D01*
X117435002Y-106922665D01*
X116055750Y-106925000D01*
X115897000Y-107083750D01*
X115897000Y-108108000D01*
X115917000Y-108108000D01*
X115917000Y-108362000D01*
X115897000Y-108362000D01*
X115897000Y-109386250D01*
X116055750Y-109545000D01*
X117435001Y-109547335D01*
X117435001Y-111544598D01*
X117431325Y-111581921D01*
X117435001Y-111619243D01*
X117435001Y-111619253D01*
X117445998Y-111730906D01*
X117486679Y-111865014D01*
X117489455Y-111874167D01*
X117560027Y-112006197D01*
X117597819Y-112052246D01*
X117655000Y-112121922D01*
X117684004Y-112145725D01*
X119333281Y-113795003D01*
X119357079Y-113824001D01*
X119472804Y-113918974D01*
X119579809Y-113976170D01*
X119616543Y-114044894D01*
X119695895Y-114141585D01*
X119792586Y-114220937D01*
X119902900Y-114279902D01*
X120022598Y-114316212D01*
X120147080Y-114328472D01*
X120330954Y-114328472D01*
X120350306Y-114364676D01*
X120390151Y-114413226D01*
X120445279Y-114480401D01*
X120474283Y-114504204D01*
X123321081Y-117351003D01*
X123344879Y-117380001D01*
X123460604Y-117474974D01*
X123592633Y-117545546D01*
X123735894Y-117589003D01*
X123847547Y-117600000D01*
X123847555Y-117600000D01*
X123884880Y-117603676D01*
X123922205Y-117600000D01*
X126781928Y-117600000D01*
X126781928Y-117690000D01*
X126794188Y-117814482D01*
X126830498Y-117934180D01*
X126889463Y-118044494D01*
X126968815Y-118141185D01*
X127065506Y-118220537D01*
X127175820Y-118279502D01*
X127295518Y-118315812D01*
X127420000Y-118328072D01*
X129120000Y-118328072D01*
X129244482Y-118315812D01*
X129364180Y-118279502D01*
X129474494Y-118220537D01*
X129571185Y-118141185D01*
X129650537Y-118044494D01*
X129709502Y-117934180D01*
X129733966Y-117853534D01*
X129809731Y-117937588D01*
X130043080Y-118111641D01*
X130305901Y-118236825D01*
X130453110Y-118281476D01*
X130683000Y-118160155D01*
X130683000Y-116967000D01*
X130937000Y-116967000D01*
X130937000Y-118160155D01*
X131166890Y-118281476D01*
X131314099Y-118236825D01*
X131576920Y-118111641D01*
X131810269Y-117937588D01*
X132005178Y-117721355D01*
X132154157Y-117471252D01*
X132251481Y-117196891D01*
X132130814Y-116967000D01*
X130937000Y-116967000D01*
X130683000Y-116967000D01*
X130663000Y-116967000D01*
X130663000Y-116713000D01*
X130683000Y-116713000D01*
X130683000Y-115519845D01*
X130937000Y-115519845D01*
X130937000Y-116713000D01*
X132130814Y-116713000D01*
X132251481Y-116483109D01*
X132154157Y-116208748D01*
X132005178Y-115958645D01*
X131810269Y-115742412D01*
X131576920Y-115568359D01*
X131314099Y-115443175D01*
X131166890Y-115398524D01*
X130937000Y-115519845D01*
X130683000Y-115519845D01*
X130453110Y-115398524D01*
X130305901Y-115443175D01*
X130043080Y-115568359D01*
X129809731Y-115742412D01*
X129733966Y-115826466D01*
X129709502Y-115745820D01*
X129650537Y-115635506D01*
X129571185Y-115538815D01*
X129474494Y-115459463D01*
X129364180Y-115400498D01*
X129244482Y-115364188D01*
X129120000Y-115351928D01*
X127420000Y-115351928D01*
X127295518Y-115364188D01*
X127175820Y-115400498D01*
X127065506Y-115459463D01*
X126968815Y-115538815D01*
X126889463Y-115635506D01*
X126830498Y-115745820D01*
X126794188Y-115865518D01*
X126781928Y-115990000D01*
X126781928Y-116080000D01*
X124199682Y-116080000D01*
X122267306Y-114147625D01*
X122274665Y-114141585D01*
X122354017Y-114044894D01*
X122412982Y-113934580D01*
X122449292Y-113814882D01*
X122461552Y-113690400D01*
X136651468Y-113690400D01*
X136663728Y-113814882D01*
X136700038Y-113934580D01*
X136759003Y-114044894D01*
X136838355Y-114141585D01*
X136935046Y-114220937D01*
X137045360Y-114279902D01*
X137165058Y-114316212D01*
X137289540Y-114328472D01*
X137841990Y-114325400D01*
X138000740Y-114166650D01*
X138000740Y-113411000D01*
X138254740Y-113411000D01*
X138254740Y-114166650D01*
X138413490Y-114325400D01*
X138965940Y-114328472D01*
X139090422Y-114316212D01*
X139210120Y-114279902D01*
X139320434Y-114220937D01*
X139417125Y-114141585D01*
X139496477Y-114044894D01*
X139555442Y-113934580D01*
X139591752Y-113814882D01*
X139604012Y-113690400D01*
X139600940Y-113569750D01*
X139442190Y-113411000D01*
X138254740Y-113411000D01*
X138000740Y-113411000D01*
X136813290Y-113411000D01*
X136654540Y-113569750D01*
X136651468Y-113690400D01*
X122461552Y-113690400D01*
X122461552Y-112877600D01*
X122449292Y-112753118D01*
X122429651Y-112688370D01*
X122449292Y-112623622D01*
X122461552Y-112499140D01*
X122458480Y-112378490D01*
X122299730Y-112219740D01*
X121112280Y-112219740D01*
X121112280Y-112239528D01*
X120858280Y-112239528D01*
X120858280Y-112219740D01*
X120838280Y-112219740D01*
X120838280Y-111965740D01*
X120858280Y-111965740D01*
X120858280Y-111210090D01*
X121112280Y-111210090D01*
X121112280Y-111965740D01*
X122299730Y-111965740D01*
X122458480Y-111806990D01*
X122461552Y-111686340D01*
X122449292Y-111561858D01*
X122412982Y-111442160D01*
X122354017Y-111331846D01*
X122274665Y-111235155D01*
X122177974Y-111155803D01*
X122067660Y-111096838D01*
X121947962Y-111060528D01*
X121823480Y-111048268D01*
X121271030Y-111051340D01*
X121112280Y-111210090D01*
X120858280Y-111210090D01*
X120699530Y-111051340D01*
X120147080Y-111048268D01*
X120022598Y-111060528D01*
X119902900Y-111096838D01*
X119792586Y-111155803D01*
X119695895Y-111235155D01*
X119616543Y-111331846D01*
X119557578Y-111442160D01*
X119521268Y-111561858D01*
X119509008Y-111686340D01*
X119512080Y-111806990D01*
X119670828Y-111965738D01*
X119653620Y-111965738D01*
X118955001Y-111267120D01*
X118955001Y-106022323D01*
X118958677Y-105985000D01*
X118955001Y-105947677D01*
X118955001Y-105947668D01*
X118944004Y-105836015D01*
X118900547Y-105692754D01*
X118829975Y-105560725D01*
X118735002Y-105445000D01*
X118706003Y-105421201D01*
X118183803Y-104899002D01*
X118160001Y-104869999D01*
X118044276Y-104775026D01*
X118006063Y-104754600D01*
X117995812Y-104650518D01*
X117959502Y-104530820D01*
X117900537Y-104420506D01*
X117821185Y-104323815D01*
X117724494Y-104244463D01*
X117614180Y-104185498D01*
X117494482Y-104149188D01*
X117370000Y-104136928D01*
X113770000Y-104136928D01*
X113690000Y-104144807D01*
X113690000Y-103898038D01*
X115484250Y-103895000D01*
X115643000Y-103736250D01*
X115643000Y-102712000D01*
X115897000Y-102712000D01*
X115897000Y-103736250D01*
X116055750Y-103895000D01*
X117870000Y-103898072D01*
X117994482Y-103885812D01*
X118114180Y-103849502D01*
X118224494Y-103790537D01*
X118321185Y-103711185D01*
X118400537Y-103614494D01*
X118459502Y-103504180D01*
X118495812Y-103384482D01*
X118508072Y-103260000D01*
X118505000Y-102870750D01*
X118346250Y-102712000D01*
X115897000Y-102712000D01*
X115643000Y-102712000D01*
X115623000Y-102712000D01*
X115623000Y-102458000D01*
X115643000Y-102458000D01*
X115643000Y-101433750D01*
X115897000Y-101433750D01*
X115897000Y-102458000D01*
X118346250Y-102458000D01*
X118505000Y-102299250D01*
X118508072Y-101910000D01*
X118495812Y-101785518D01*
X118459502Y-101665820D01*
X118400537Y-101555506D01*
X118321185Y-101458815D01*
X118224494Y-101379463D01*
X118114180Y-101320498D01*
X117994482Y-101284188D01*
X117870000Y-101271928D01*
X116055750Y-101275000D01*
X115897000Y-101433750D01*
X115643000Y-101433750D01*
X115484250Y-101275000D01*
X113690000Y-101271962D01*
X113690000Y-98907600D01*
X136651468Y-98907600D01*
X136654540Y-99028250D01*
X136813290Y-99187000D01*
X138000740Y-99187000D01*
X138000740Y-98431350D01*
X138254740Y-98431350D01*
X138254740Y-99187000D01*
X139442190Y-99187000D01*
X139600940Y-99028250D01*
X139604012Y-98907600D01*
X139591752Y-98783118D01*
X139555442Y-98663420D01*
X139496477Y-98553106D01*
X139417125Y-98456415D01*
X139320434Y-98377063D01*
X139210120Y-98318098D01*
X139090422Y-98281788D01*
X138965940Y-98269528D01*
X138413490Y-98272600D01*
X138254740Y-98431350D01*
X138000740Y-98431350D01*
X137841990Y-98272600D01*
X137289540Y-98269528D01*
X137165058Y-98281788D01*
X137045360Y-98318098D01*
X136935046Y-98377063D01*
X136838355Y-98456415D01*
X136759003Y-98553106D01*
X136700038Y-98663420D01*
X136663728Y-98783118D01*
X136651468Y-98907600D01*
X113690000Y-98907600D01*
X113690000Y-90830000D01*
X145833235Y-90830000D01*
X145835000Y-91154250D01*
M02*
