G04 #@! TF.GenerationSoftware,KiCad,Pcbnew,(5.1.5)-3*
G04 #@! TF.CreationDate,2020-06-27T17:11:00-04:00*
G04 #@! TF.ProjectId,BreakoutSI4463PRORev2,42726561-6b6f-4757-9453-493434363350,rev?*
G04 #@! TF.SameCoordinates,Original*
G04 #@! TF.FileFunction,Legend,Bot*
G04 #@! TF.FilePolarity,Positive*
%FSLAX46Y46*%
G04 Gerber Fmt 4.6, Leading zero omitted, Abs format (unit mm)*
G04 Created by KiCad (PCBNEW (5.1.5)-3) date 2020-06-27 17:11:00*
%MOMM*%
%LPD*%
G04 APERTURE LIST*
%ADD10C,0.150000*%
G04 APERTURE END LIST*
D10*
X143476071Y-92448571D02*
X143333214Y-92496190D01*
X143285595Y-92543809D01*
X143237976Y-92639047D01*
X143237976Y-92781904D01*
X143285595Y-92877142D01*
X143333214Y-92924761D01*
X143428452Y-92972380D01*
X143809404Y-92972380D01*
X143809404Y-91972380D01*
X143476071Y-91972380D01*
X143380833Y-92020000D01*
X143333214Y-92067619D01*
X143285595Y-92162857D01*
X143285595Y-92258095D01*
X143333214Y-92353333D01*
X143380833Y-92400952D01*
X143476071Y-92448571D01*
X143809404Y-92448571D01*
X142809404Y-92972380D02*
X142809404Y-92305714D01*
X142809404Y-92496190D02*
X142761785Y-92400952D01*
X142714166Y-92353333D01*
X142618928Y-92305714D01*
X142523690Y-92305714D01*
X141809404Y-92924761D02*
X141904642Y-92972380D01*
X142095119Y-92972380D01*
X142190357Y-92924761D01*
X142237976Y-92829523D01*
X142237976Y-92448571D01*
X142190357Y-92353333D01*
X142095119Y-92305714D01*
X141904642Y-92305714D01*
X141809404Y-92353333D01*
X141761785Y-92448571D01*
X141761785Y-92543809D01*
X142237976Y-92639047D01*
X140904642Y-92972380D02*
X140904642Y-92448571D01*
X140952261Y-92353333D01*
X141047500Y-92305714D01*
X141237976Y-92305714D01*
X141333214Y-92353333D01*
X140904642Y-92924761D02*
X140999880Y-92972380D01*
X141237976Y-92972380D01*
X141333214Y-92924761D01*
X141380833Y-92829523D01*
X141380833Y-92734285D01*
X141333214Y-92639047D01*
X141237976Y-92591428D01*
X140999880Y-92591428D01*
X140904642Y-92543809D01*
X140428452Y-92972380D02*
X140428452Y-91972380D01*
X140333214Y-92591428D02*
X140047500Y-92972380D01*
X140047500Y-92305714D02*
X140428452Y-92686666D01*
X139476071Y-92972380D02*
X139571309Y-92924761D01*
X139618928Y-92877142D01*
X139666547Y-92781904D01*
X139666547Y-92496190D01*
X139618928Y-92400952D01*
X139571309Y-92353333D01*
X139476071Y-92305714D01*
X139333214Y-92305714D01*
X139237976Y-92353333D01*
X139190357Y-92400952D01*
X139142738Y-92496190D01*
X139142738Y-92781904D01*
X139190357Y-92877142D01*
X139237976Y-92924761D01*
X139333214Y-92972380D01*
X139476071Y-92972380D01*
X138285595Y-92305714D02*
X138285595Y-92972380D01*
X138714166Y-92305714D02*
X138714166Y-92829523D01*
X138666547Y-92924761D01*
X138571309Y-92972380D01*
X138428452Y-92972380D01*
X138333214Y-92924761D01*
X138285595Y-92877142D01*
X137952261Y-92305714D02*
X137571309Y-92305714D01*
X137809404Y-91972380D02*
X137809404Y-92829523D01*
X137761785Y-92924761D01*
X137666547Y-92972380D01*
X137571309Y-92972380D01*
X137285595Y-92924761D02*
X137142738Y-92972380D01*
X136904642Y-92972380D01*
X136809404Y-92924761D01*
X136761785Y-92877142D01*
X136714166Y-92781904D01*
X136714166Y-92686666D01*
X136761785Y-92591428D01*
X136809404Y-92543809D01*
X136904642Y-92496190D01*
X137095119Y-92448571D01*
X137190357Y-92400952D01*
X137237976Y-92353333D01*
X137285595Y-92258095D01*
X137285595Y-92162857D01*
X137237976Y-92067619D01*
X137190357Y-92020000D01*
X137095119Y-91972380D01*
X136857023Y-91972380D01*
X136714166Y-92020000D01*
X136285595Y-92972380D02*
X136285595Y-91972380D01*
X135380833Y-92305714D02*
X135380833Y-92972380D01*
X135618928Y-91924761D02*
X135857023Y-92639047D01*
X135237976Y-92639047D01*
X134428452Y-92305714D02*
X134428452Y-92972380D01*
X134666547Y-91924761D02*
X134904642Y-92639047D01*
X134285595Y-92639047D01*
X133476071Y-91972380D02*
X133666547Y-91972380D01*
X133761785Y-92020000D01*
X133809404Y-92067619D01*
X133904642Y-92210476D01*
X133952261Y-92400952D01*
X133952261Y-92781904D01*
X133904642Y-92877142D01*
X133857023Y-92924761D01*
X133761785Y-92972380D01*
X133571309Y-92972380D01*
X133476071Y-92924761D01*
X133428452Y-92877142D01*
X133380833Y-92781904D01*
X133380833Y-92543809D01*
X133428452Y-92448571D01*
X133476071Y-92400952D01*
X133571309Y-92353333D01*
X133761785Y-92353333D01*
X133857023Y-92400952D01*
X133904642Y-92448571D01*
X133952261Y-92543809D01*
X133047500Y-91972380D02*
X132428452Y-91972380D01*
X132761785Y-92353333D01*
X132618928Y-92353333D01*
X132523690Y-92400952D01*
X132476071Y-92448571D01*
X132428452Y-92543809D01*
X132428452Y-92781904D01*
X132476071Y-92877142D01*
X132523690Y-92924761D01*
X132618928Y-92972380D01*
X132904642Y-92972380D01*
X132999880Y-92924761D01*
X133047500Y-92877142D01*
X131999880Y-92972380D02*
X131999880Y-91972380D01*
X131618928Y-91972380D01*
X131523690Y-92020000D01*
X131476071Y-92067619D01*
X131428452Y-92162857D01*
X131428452Y-92305714D01*
X131476071Y-92400952D01*
X131523690Y-92448571D01*
X131618928Y-92496190D01*
X131999880Y-92496190D01*
X130428452Y-92972380D02*
X130761785Y-92496190D01*
X130999880Y-92972380D02*
X130999880Y-91972380D01*
X130618928Y-91972380D01*
X130523690Y-92020000D01*
X130476071Y-92067619D01*
X130428452Y-92162857D01*
X130428452Y-92305714D01*
X130476071Y-92400952D01*
X130523690Y-92448571D01*
X130618928Y-92496190D01*
X130999880Y-92496190D01*
X129809404Y-91972380D02*
X129618928Y-91972380D01*
X129523690Y-92020000D01*
X129428452Y-92115238D01*
X129380833Y-92305714D01*
X129380833Y-92639047D01*
X129428452Y-92829523D01*
X129523690Y-92924761D01*
X129618928Y-92972380D01*
X129809404Y-92972380D01*
X129904642Y-92924761D01*
X129999880Y-92829523D01*
X130047500Y-92639047D01*
X130047500Y-92305714D01*
X129999880Y-92115238D01*
X129904642Y-92020000D01*
X129809404Y-91972380D01*
X128380833Y-92972380D02*
X128714166Y-92496190D01*
X128952261Y-92972380D02*
X128952261Y-91972380D01*
X128571309Y-91972380D01*
X128476071Y-92020000D01*
X128428452Y-92067619D01*
X128380833Y-92162857D01*
X128380833Y-92305714D01*
X128428452Y-92400952D01*
X128476071Y-92448571D01*
X128571309Y-92496190D01*
X128952261Y-92496190D01*
X127571309Y-92924761D02*
X127666547Y-92972380D01*
X127857023Y-92972380D01*
X127952261Y-92924761D01*
X127999880Y-92829523D01*
X127999880Y-92448571D01*
X127952261Y-92353333D01*
X127857023Y-92305714D01*
X127666547Y-92305714D01*
X127571309Y-92353333D01*
X127523690Y-92448571D01*
X127523690Y-92543809D01*
X127999880Y-92639047D01*
X127190357Y-92305714D02*
X126952261Y-92972380D01*
X126714166Y-92305714D01*
X126380833Y-92067619D02*
X126333214Y-92020000D01*
X126237976Y-91972380D01*
X125999880Y-91972380D01*
X125904642Y-92020000D01*
X125857023Y-92067619D01*
X125809404Y-92162857D01*
X125809404Y-92258095D01*
X125857023Y-92400952D01*
X126428452Y-92972380D01*
X125809404Y-92972380D01*
X143857023Y-93717619D02*
X143809404Y-93670000D01*
X143714166Y-93622380D01*
X143476071Y-93622380D01*
X143380833Y-93670000D01*
X143333214Y-93717619D01*
X143285595Y-93812857D01*
X143285595Y-93908095D01*
X143333214Y-94050952D01*
X143904642Y-94622380D01*
X143285595Y-94622380D01*
X142666547Y-93622380D02*
X142571309Y-93622380D01*
X142476071Y-93670000D01*
X142428452Y-93717619D01*
X142380833Y-93812857D01*
X142333214Y-94003333D01*
X142333214Y-94241428D01*
X142380833Y-94431904D01*
X142428452Y-94527142D01*
X142476071Y-94574761D01*
X142571309Y-94622380D01*
X142666547Y-94622380D01*
X142761785Y-94574761D01*
X142809404Y-94527142D01*
X142857023Y-94431904D01*
X142904642Y-94241428D01*
X142904642Y-94003333D01*
X142857023Y-93812857D01*
X142809404Y-93717619D01*
X142761785Y-93670000D01*
X142666547Y-93622380D01*
X141952261Y-93717619D02*
X141904642Y-93670000D01*
X141809404Y-93622380D01*
X141571309Y-93622380D01*
X141476071Y-93670000D01*
X141428452Y-93717619D01*
X141380833Y-93812857D01*
X141380833Y-93908095D01*
X141428452Y-94050952D01*
X141999880Y-94622380D01*
X141380833Y-94622380D01*
X140761785Y-93622380D02*
X140666547Y-93622380D01*
X140571309Y-93670000D01*
X140523690Y-93717619D01*
X140476071Y-93812857D01*
X140428452Y-94003333D01*
X140428452Y-94241428D01*
X140476071Y-94431904D01*
X140523690Y-94527142D01*
X140571309Y-94574761D01*
X140666547Y-94622380D01*
X140761785Y-94622380D01*
X140857023Y-94574761D01*
X140904642Y-94527142D01*
X140952261Y-94431904D01*
X140999880Y-94241428D01*
X140999880Y-94003333D01*
X140952261Y-93812857D01*
X140904642Y-93717619D01*
X140857023Y-93670000D01*
X140761785Y-93622380D01*
X139999880Y-94241428D02*
X139237976Y-94241428D01*
X138571309Y-93622380D02*
X138476071Y-93622380D01*
X138380833Y-93670000D01*
X138333214Y-93717619D01*
X138285595Y-93812857D01*
X138237976Y-94003333D01*
X138237976Y-94241428D01*
X138285595Y-94431904D01*
X138333214Y-94527142D01*
X138380833Y-94574761D01*
X138476071Y-94622380D01*
X138571309Y-94622380D01*
X138666547Y-94574761D01*
X138714166Y-94527142D01*
X138761785Y-94431904D01*
X138809404Y-94241428D01*
X138809404Y-94003333D01*
X138761785Y-93812857D01*
X138714166Y-93717619D01*
X138666547Y-93670000D01*
X138571309Y-93622380D01*
X137380833Y-93622380D02*
X137571309Y-93622380D01*
X137666547Y-93670000D01*
X137714166Y-93717619D01*
X137809404Y-93860476D01*
X137857023Y-94050952D01*
X137857023Y-94431904D01*
X137809404Y-94527142D01*
X137761785Y-94574761D01*
X137666547Y-94622380D01*
X137476071Y-94622380D01*
X137380833Y-94574761D01*
X137333214Y-94527142D01*
X137285595Y-94431904D01*
X137285595Y-94193809D01*
X137333214Y-94098571D01*
X137380833Y-94050952D01*
X137476071Y-94003333D01*
X137666547Y-94003333D01*
X137761785Y-94050952D01*
X137809404Y-94098571D01*
X137857023Y-94193809D01*
X136857023Y-94241428D02*
X136095119Y-94241428D01*
X135666547Y-93717619D02*
X135618928Y-93670000D01*
X135523690Y-93622380D01*
X135285595Y-93622380D01*
X135190357Y-93670000D01*
X135142738Y-93717619D01*
X135095119Y-93812857D01*
X135095119Y-93908095D01*
X135142738Y-94050952D01*
X135714166Y-94622380D01*
X135095119Y-94622380D01*
X134761785Y-93622380D02*
X134095119Y-93622380D01*
X134523690Y-94622380D01*
M02*
