G04 #@! TF.FileFunction,Legend,Bot*
%FSLAX46Y46*%
G04 Gerber Fmt 4.6, Leading zero omitted, Abs format (unit mm)*
G04 Created by KiCad (PCBNEW 4.0.7) date 05/06/18 23:55:50*
%MOMM*%
%LPD*%
G01*
G04 APERTURE LIST*
%ADD10C,0.100000*%
%ADD11C,0.254000*%
%ADD12C,0.300000*%
G04 APERTURE END LIST*
D10*
D11*
X230946476Y-173004238D02*
X230801333Y-173052619D01*
X230559429Y-173052619D01*
X230462667Y-173004238D01*
X230414286Y-172955857D01*
X230365905Y-172859095D01*
X230365905Y-172762333D01*
X230414286Y-172665571D01*
X230462667Y-172617190D01*
X230559429Y-172568810D01*
X230752952Y-172520429D01*
X230849714Y-172472048D01*
X230898095Y-172423667D01*
X230946476Y-172326905D01*
X230946476Y-172230143D01*
X230898095Y-172133381D01*
X230849714Y-172085000D01*
X230752952Y-172036619D01*
X230511048Y-172036619D01*
X230365905Y-172085000D01*
X229495048Y-173052619D02*
X229495048Y-172520429D01*
X229543429Y-172423667D01*
X229640191Y-172375286D01*
X229833714Y-172375286D01*
X229930476Y-172423667D01*
X229495048Y-173004238D02*
X229591810Y-173052619D01*
X229833714Y-173052619D01*
X229930476Y-173004238D01*
X229978857Y-172907476D01*
X229978857Y-172810714D01*
X229930476Y-172713952D01*
X229833714Y-172665571D01*
X229591810Y-172665571D01*
X229495048Y-172617190D01*
X229156381Y-172375286D02*
X228769333Y-172375286D01*
X229011238Y-173052619D02*
X229011238Y-172181762D01*
X228962857Y-172085000D01*
X228866095Y-172036619D01*
X228769333Y-172036619D01*
X228043620Y-173004238D02*
X228140382Y-173052619D01*
X228333905Y-173052619D01*
X228430667Y-173004238D01*
X228479048Y-172907476D01*
X228479048Y-172520429D01*
X228430667Y-172423667D01*
X228333905Y-172375286D01*
X228140382Y-172375286D01*
X228043620Y-172423667D01*
X227995239Y-172520429D01*
X227995239Y-172617190D01*
X228479048Y-172713952D01*
X226834096Y-173004238D02*
X226737334Y-173052619D01*
X226543810Y-173052619D01*
X226447049Y-173004238D01*
X226398668Y-172907476D01*
X226398668Y-172859095D01*
X226447049Y-172762333D01*
X226543810Y-172713952D01*
X226688953Y-172713952D01*
X226785715Y-172665571D01*
X226834096Y-172568810D01*
X226834096Y-172520429D01*
X226785715Y-172423667D01*
X226688953Y-172375286D01*
X226543810Y-172375286D01*
X226447049Y-172423667D01*
X225527811Y-173004238D02*
X225624573Y-173052619D01*
X225818096Y-173052619D01*
X225914858Y-173004238D01*
X225963239Y-172955857D01*
X226011620Y-172859095D01*
X226011620Y-172568810D01*
X225963239Y-172472048D01*
X225914858Y-172423667D01*
X225818096Y-172375286D01*
X225624573Y-172375286D01*
X225527811Y-172423667D01*
X225092382Y-173052619D02*
X225092382Y-172375286D01*
X225092382Y-172036619D02*
X225140763Y-172085000D01*
X225092382Y-172133381D01*
X225044001Y-172085000D01*
X225092382Y-172036619D01*
X225092382Y-172133381D01*
X224221525Y-173004238D02*
X224318287Y-173052619D01*
X224511810Y-173052619D01*
X224608572Y-173004238D01*
X224656953Y-172907476D01*
X224656953Y-172520429D01*
X224608572Y-172423667D01*
X224511810Y-172375286D01*
X224318287Y-172375286D01*
X224221525Y-172423667D01*
X224173144Y-172520429D01*
X224173144Y-172617190D01*
X224656953Y-172713952D01*
X223737715Y-172375286D02*
X223737715Y-173052619D01*
X223737715Y-172472048D02*
X223689334Y-172423667D01*
X223592572Y-172375286D01*
X223447430Y-172375286D01*
X223350668Y-172423667D01*
X223302287Y-172520429D01*
X223302287Y-173052619D01*
X222963620Y-172375286D02*
X222576572Y-172375286D01*
X222818477Y-172036619D02*
X222818477Y-172907476D01*
X222770096Y-173004238D01*
X222673334Y-173052619D01*
X222576572Y-173052619D01*
X222237906Y-173052619D02*
X222237906Y-172375286D01*
X222237906Y-172036619D02*
X222286287Y-172085000D01*
X222237906Y-172133381D01*
X222189525Y-172085000D01*
X222237906Y-172036619D01*
X222237906Y-172133381D01*
X221899239Y-172375286D02*
X221512191Y-172375286D01*
X221754096Y-173052619D02*
X221754096Y-172181762D01*
X221705715Y-172085000D01*
X221608953Y-172036619D01*
X221512191Y-172036619D01*
X221173525Y-173052619D02*
X221173525Y-172375286D01*
X221173525Y-172036619D02*
X221221906Y-172085000D01*
X221173525Y-172133381D01*
X221125144Y-172085000D01*
X221173525Y-172036619D01*
X221173525Y-172133381D01*
X220254287Y-173004238D02*
X220351049Y-173052619D01*
X220544572Y-173052619D01*
X220641334Y-173004238D01*
X220689715Y-172955857D01*
X220738096Y-172859095D01*
X220738096Y-172568810D01*
X220689715Y-172472048D01*
X220641334Y-172423667D01*
X220544572Y-172375286D01*
X220351049Y-172375286D01*
X220254287Y-172423667D01*
X218657716Y-173004238D02*
X218754478Y-173052619D01*
X218948001Y-173052619D01*
X219044763Y-173004238D01*
X219093144Y-172907476D01*
X219093144Y-172520429D01*
X219044763Y-172423667D01*
X218948001Y-172375286D01*
X218754478Y-172375286D01*
X218657716Y-172423667D01*
X218609335Y-172520429D01*
X218609335Y-172617190D01*
X219093144Y-172713952D01*
X218270668Y-173052619D02*
X217738478Y-172375286D01*
X218270668Y-172375286D02*
X217738478Y-173052619D01*
X217351430Y-172375286D02*
X217351430Y-173391286D01*
X217351430Y-172423667D02*
X217254668Y-172375286D01*
X217061145Y-172375286D01*
X216964383Y-172423667D01*
X216916002Y-172472048D01*
X216867621Y-172568810D01*
X216867621Y-172859095D01*
X216916002Y-172955857D01*
X216964383Y-173004238D01*
X217061145Y-173052619D01*
X217254668Y-173052619D01*
X217351430Y-173004238D01*
X216045145Y-173004238D02*
X216141907Y-173052619D01*
X216335430Y-173052619D01*
X216432192Y-173004238D01*
X216480573Y-172907476D01*
X216480573Y-172520429D01*
X216432192Y-172423667D01*
X216335430Y-172375286D01*
X216141907Y-172375286D01*
X216045145Y-172423667D01*
X215996764Y-172520429D01*
X215996764Y-172617190D01*
X216480573Y-172713952D01*
X215561335Y-173052619D02*
X215561335Y-172375286D01*
X215561335Y-172568810D02*
X215512954Y-172472048D01*
X215464573Y-172423667D01*
X215367811Y-172375286D01*
X215271050Y-172375286D01*
X214932383Y-173052619D02*
X214932383Y-172375286D01*
X214932383Y-172036619D02*
X214980764Y-172085000D01*
X214932383Y-172133381D01*
X214884002Y-172085000D01*
X214932383Y-172036619D01*
X214932383Y-172133381D01*
X214448573Y-173052619D02*
X214448573Y-172375286D01*
X214448573Y-172472048D02*
X214400192Y-172423667D01*
X214303430Y-172375286D01*
X214158288Y-172375286D01*
X214061526Y-172423667D01*
X214013145Y-172520429D01*
X214013145Y-173052619D01*
X214013145Y-172520429D02*
X213964764Y-172423667D01*
X213868002Y-172375286D01*
X213722859Y-172375286D01*
X213626097Y-172423667D01*
X213577716Y-172520429D01*
X213577716Y-173052619D01*
X212706859Y-173004238D02*
X212803621Y-173052619D01*
X212997144Y-173052619D01*
X213093906Y-173004238D01*
X213142287Y-172907476D01*
X213142287Y-172520429D01*
X213093906Y-172423667D01*
X212997144Y-172375286D01*
X212803621Y-172375286D01*
X212706859Y-172423667D01*
X212658478Y-172520429D01*
X212658478Y-172617190D01*
X213142287Y-172713952D01*
X212223049Y-172375286D02*
X212223049Y-173052619D01*
X212223049Y-172472048D02*
X212174668Y-172423667D01*
X212077906Y-172375286D01*
X211932764Y-172375286D01*
X211836002Y-172423667D01*
X211787621Y-172520429D01*
X211787621Y-173052619D01*
X211448954Y-172375286D02*
X211061906Y-172375286D01*
X211303811Y-172036619D02*
X211303811Y-172907476D01*
X211255430Y-173004238D01*
X211158668Y-173052619D01*
X211061906Y-173052619D01*
X209949145Y-173052619D02*
X209949145Y-172375286D01*
X209949145Y-172036619D02*
X209997526Y-172085000D01*
X209949145Y-172133381D01*
X209900764Y-172085000D01*
X209949145Y-172036619D01*
X209949145Y-172133381D01*
X209465335Y-172375286D02*
X209465335Y-173052619D01*
X209465335Y-172472048D02*
X209416954Y-172423667D01*
X209320192Y-172375286D01*
X209175050Y-172375286D01*
X209078288Y-172423667D01*
X209029907Y-172520429D01*
X209029907Y-173052619D01*
X207772002Y-173052619D02*
X207772002Y-172036619D01*
X207772002Y-172520429D02*
X207191431Y-172520429D01*
X207191431Y-173052619D02*
X207191431Y-172036619D01*
X206272193Y-173052619D02*
X206272193Y-172520429D01*
X206320574Y-172423667D01*
X206417336Y-172375286D01*
X206610859Y-172375286D01*
X206707621Y-172423667D01*
X206272193Y-173004238D02*
X206368955Y-173052619D01*
X206610859Y-173052619D01*
X206707621Y-173004238D01*
X206756002Y-172907476D01*
X206756002Y-172810714D01*
X206707621Y-172713952D01*
X206610859Y-172665571D01*
X206368955Y-172665571D01*
X206272193Y-172617190D01*
X205788383Y-173052619D02*
X205788383Y-172375286D01*
X205788383Y-172472048D02*
X205740002Y-172423667D01*
X205643240Y-172375286D01*
X205498098Y-172375286D01*
X205401336Y-172423667D01*
X205352955Y-172520429D01*
X205352955Y-173052619D01*
X205352955Y-172520429D02*
X205304574Y-172423667D01*
X205207812Y-172375286D01*
X205062669Y-172375286D01*
X204965907Y-172423667D01*
X204917526Y-172520429D01*
X204917526Y-173052619D01*
X203079050Y-173052619D02*
X203417716Y-172568810D01*
X203659621Y-173052619D02*
X203659621Y-172036619D01*
X203272574Y-172036619D01*
X203175812Y-172085000D01*
X203127431Y-172133381D01*
X203079050Y-172230143D01*
X203079050Y-172375286D01*
X203127431Y-172472048D01*
X203175812Y-172520429D01*
X203272574Y-172568810D01*
X203659621Y-172568810D01*
X202208193Y-173052619D02*
X202208193Y-172520429D01*
X202256574Y-172423667D01*
X202353336Y-172375286D01*
X202546859Y-172375286D01*
X202643621Y-172423667D01*
X202208193Y-173004238D02*
X202304955Y-173052619D01*
X202546859Y-173052619D01*
X202643621Y-173004238D01*
X202692002Y-172907476D01*
X202692002Y-172810714D01*
X202643621Y-172713952D01*
X202546859Y-172665571D01*
X202304955Y-172665571D01*
X202208193Y-172617190D01*
X201288955Y-173052619D02*
X201288955Y-172036619D01*
X201288955Y-173004238D02*
X201385717Y-173052619D01*
X201579240Y-173052619D01*
X201676002Y-173004238D01*
X201724383Y-172955857D01*
X201772764Y-172859095D01*
X201772764Y-172568810D01*
X201724383Y-172472048D01*
X201676002Y-172423667D01*
X201579240Y-172375286D01*
X201385717Y-172375286D01*
X201288955Y-172423667D01*
X200805145Y-173052619D02*
X200805145Y-172375286D01*
X200805145Y-172036619D02*
X200853526Y-172085000D01*
X200805145Y-172133381D01*
X200756764Y-172085000D01*
X200805145Y-172036619D01*
X200805145Y-172133381D01*
X200176192Y-173052619D02*
X200272954Y-173004238D01*
X200321335Y-172955857D01*
X200369716Y-172859095D01*
X200369716Y-172568810D01*
X200321335Y-172472048D01*
X200272954Y-172423667D01*
X200176192Y-172375286D01*
X200031050Y-172375286D01*
X199934288Y-172423667D01*
X199885907Y-172472048D01*
X199837526Y-172568810D01*
X199837526Y-172859095D01*
X199885907Y-172955857D01*
X199934288Y-173004238D01*
X200031050Y-173052619D01*
X200176192Y-173052619D01*
X198337717Y-173439667D02*
X198386097Y-173391286D01*
X198482859Y-173246143D01*
X198531240Y-173149381D01*
X198579621Y-173004238D01*
X198628002Y-172762333D01*
X198628002Y-172568810D01*
X198579621Y-172326905D01*
X198531240Y-172181762D01*
X198482859Y-172085000D01*
X198386097Y-171939857D01*
X198337717Y-171891476D01*
X197999050Y-172762333D02*
X197515241Y-172762333D01*
X198095812Y-173052619D02*
X197757145Y-172036619D01*
X197418479Y-173052619D01*
X197079812Y-173052619D02*
X197079812Y-172036619D01*
X196692765Y-172036619D01*
X196596003Y-172085000D01*
X196547622Y-172133381D01*
X196499241Y-172230143D01*
X196499241Y-172375286D01*
X196547622Y-172472048D01*
X196596003Y-172520429D01*
X196692765Y-172568810D01*
X197079812Y-172568810D01*
X195483241Y-173052619D02*
X195821907Y-172568810D01*
X196063812Y-173052619D02*
X196063812Y-172036619D01*
X195676765Y-172036619D01*
X195580003Y-172085000D01*
X195531622Y-172133381D01*
X195483241Y-172230143D01*
X195483241Y-172375286D01*
X195531622Y-172472048D01*
X195580003Y-172520429D01*
X195676765Y-172568810D01*
X196063812Y-172568810D01*
X195096193Y-173004238D02*
X194951050Y-173052619D01*
X194709146Y-173052619D01*
X194612384Y-173004238D01*
X194564003Y-172955857D01*
X194515622Y-172859095D01*
X194515622Y-172762333D01*
X194564003Y-172665571D01*
X194612384Y-172617190D01*
X194709146Y-172568810D01*
X194902669Y-172520429D01*
X194999431Y-172472048D01*
X195047812Y-172423667D01*
X195096193Y-172326905D01*
X195096193Y-172230143D01*
X195047812Y-172133381D01*
X194999431Y-172085000D01*
X194902669Y-172036619D01*
X194660765Y-172036619D01*
X194515622Y-172085000D01*
X194176955Y-173439667D02*
X194128574Y-173391286D01*
X194031812Y-173246143D01*
X193983431Y-173149381D01*
X193935050Y-173004238D01*
X193886669Y-172762333D01*
X193886669Y-172568810D01*
X193935050Y-172326905D01*
X193983431Y-172181762D01*
X194031812Y-172085000D01*
X194128574Y-171939857D01*
X194176955Y-171891476D01*
X230898095Y-176608619D02*
X230898095Y-175592619D01*
X230559428Y-175931286D02*
X230172380Y-175931286D01*
X230414285Y-176608619D02*
X230414285Y-175737762D01*
X230365904Y-175641000D01*
X230269142Y-175592619D01*
X230172380Y-175592619D01*
X229204762Y-175931286D02*
X228817714Y-175931286D01*
X229059619Y-176608619D02*
X229059619Y-175737762D01*
X229011238Y-175641000D01*
X228914476Y-175592619D01*
X228817714Y-175592619D01*
X228333905Y-176608619D02*
X228430667Y-176560238D01*
X228479048Y-176511857D01*
X228527429Y-176415095D01*
X228527429Y-176124810D01*
X228479048Y-176028048D01*
X228430667Y-175979667D01*
X228333905Y-175931286D01*
X228188763Y-175931286D01*
X228092001Y-175979667D01*
X228043620Y-176028048D01*
X227995239Y-176124810D01*
X227995239Y-176415095D01*
X228043620Y-176511857D01*
X228092001Y-176560238D01*
X228188763Y-176608619D01*
X228333905Y-176608619D01*
X227124382Y-175931286D02*
X227124382Y-176608619D01*
X227559810Y-175931286D02*
X227559810Y-176463476D01*
X227511429Y-176560238D01*
X227414667Y-176608619D01*
X227269525Y-176608619D01*
X227172763Y-176560238D01*
X227124382Y-176511857D01*
X226640572Y-175931286D02*
X226640572Y-176608619D01*
X226640572Y-176028048D02*
X226592191Y-175979667D01*
X226495429Y-175931286D01*
X226350287Y-175931286D01*
X226253525Y-175979667D01*
X226205144Y-176076429D01*
X226205144Y-176608619D01*
X225285906Y-176608619D02*
X225285906Y-175592619D01*
X225285906Y-176560238D02*
X225382668Y-176608619D01*
X225576191Y-176608619D01*
X225672953Y-176560238D01*
X225721334Y-176511857D01*
X225769715Y-176415095D01*
X225769715Y-176124810D01*
X225721334Y-176028048D01*
X225672953Y-175979667D01*
X225576191Y-175931286D01*
X225382668Y-175931286D01*
X225285906Y-175979667D01*
X224753715Y-176560238D02*
X224753715Y-176608619D01*
X224802096Y-176705381D01*
X224850477Y-176753762D01*
X223544191Y-175931286D02*
X223544191Y-176947286D01*
X223544191Y-175979667D02*
X223447429Y-175931286D01*
X223253906Y-175931286D01*
X223157144Y-175979667D01*
X223108763Y-176028048D01*
X223060382Y-176124810D01*
X223060382Y-176415095D01*
X223108763Y-176511857D01*
X223157144Y-176560238D01*
X223253906Y-176608619D01*
X223447429Y-176608619D01*
X223544191Y-176560238D01*
X222479810Y-176608619D02*
X222576572Y-176560238D01*
X222624953Y-176463476D01*
X222624953Y-175592619D01*
X221705716Y-176560238D02*
X221802478Y-176608619D01*
X221996001Y-176608619D01*
X222092763Y-176560238D01*
X222141144Y-176463476D01*
X222141144Y-176076429D01*
X222092763Y-175979667D01*
X221996001Y-175931286D01*
X221802478Y-175931286D01*
X221705716Y-175979667D01*
X221657335Y-176076429D01*
X221657335Y-176173190D01*
X222141144Y-176269952D01*
X220786478Y-176608619D02*
X220786478Y-176076429D01*
X220834859Y-175979667D01*
X220931621Y-175931286D01*
X221125144Y-175931286D01*
X221221906Y-175979667D01*
X220786478Y-176560238D02*
X220883240Y-176608619D01*
X221125144Y-176608619D01*
X221221906Y-176560238D01*
X221270287Y-176463476D01*
X221270287Y-176366714D01*
X221221906Y-176269952D01*
X221125144Y-176221571D01*
X220883240Y-176221571D01*
X220786478Y-176173190D01*
X220351049Y-176560238D02*
X220254287Y-176608619D01*
X220060763Y-176608619D01*
X219964002Y-176560238D01*
X219915621Y-176463476D01*
X219915621Y-176415095D01*
X219964002Y-176318333D01*
X220060763Y-176269952D01*
X220205906Y-176269952D01*
X220302668Y-176221571D01*
X220351049Y-176124810D01*
X220351049Y-176076429D01*
X220302668Y-175979667D01*
X220205906Y-175931286D01*
X220060763Y-175931286D01*
X219964002Y-175979667D01*
X219093145Y-176560238D02*
X219189907Y-176608619D01*
X219383430Y-176608619D01*
X219480192Y-176560238D01*
X219528573Y-176463476D01*
X219528573Y-176076429D01*
X219480192Y-175979667D01*
X219383430Y-175931286D01*
X219189907Y-175931286D01*
X219093145Y-175979667D01*
X219044764Y-176076429D01*
X219044764Y-176173190D01*
X219528573Y-176269952D01*
X217399812Y-176560238D02*
X217496574Y-176608619D01*
X217690097Y-176608619D01*
X217786859Y-176560238D01*
X217835240Y-176511857D01*
X217883621Y-176415095D01*
X217883621Y-176124810D01*
X217835240Y-176028048D01*
X217786859Y-175979667D01*
X217690097Y-175931286D01*
X217496574Y-175931286D01*
X217399812Y-175979667D01*
X216819240Y-176608619D02*
X216916002Y-176560238D01*
X216964383Y-176511857D01*
X217012764Y-176415095D01*
X217012764Y-176124810D01*
X216964383Y-176028048D01*
X216916002Y-175979667D01*
X216819240Y-175931286D01*
X216674098Y-175931286D01*
X216577336Y-175979667D01*
X216528955Y-176028048D01*
X216480574Y-176124810D01*
X216480574Y-176415095D01*
X216528955Y-176511857D01*
X216577336Y-176560238D01*
X216674098Y-176608619D01*
X216819240Y-176608619D01*
X216045145Y-175931286D02*
X216045145Y-176608619D01*
X216045145Y-176028048D02*
X215996764Y-175979667D01*
X215900002Y-175931286D01*
X215754860Y-175931286D01*
X215658098Y-175979667D01*
X215609717Y-176076429D01*
X215609717Y-176608619D01*
X215271050Y-175931286D02*
X214884002Y-175931286D01*
X215125907Y-175592619D02*
X215125907Y-176463476D01*
X215077526Y-176560238D01*
X214980764Y-176608619D01*
X214884002Y-176608619D01*
X214109908Y-176608619D02*
X214109908Y-176076429D01*
X214158289Y-175979667D01*
X214255051Y-175931286D01*
X214448574Y-175931286D01*
X214545336Y-175979667D01*
X214109908Y-176560238D02*
X214206670Y-176608619D01*
X214448574Y-176608619D01*
X214545336Y-176560238D01*
X214593717Y-176463476D01*
X214593717Y-176366714D01*
X214545336Y-176269952D01*
X214448574Y-176221571D01*
X214206670Y-176221571D01*
X214109908Y-176173190D01*
X213190670Y-176560238D02*
X213287432Y-176608619D01*
X213480955Y-176608619D01*
X213577717Y-176560238D01*
X213626098Y-176511857D01*
X213674479Y-176415095D01*
X213674479Y-176124810D01*
X213626098Y-176028048D01*
X213577717Y-175979667D01*
X213480955Y-175931286D01*
X213287432Y-175931286D01*
X213190670Y-175979667D01*
X212900384Y-175931286D02*
X212513336Y-175931286D01*
X212755241Y-175592619D02*
X212755241Y-176463476D01*
X212706860Y-176560238D01*
X212610098Y-176608619D01*
X212513336Y-176608619D01*
X210965147Y-175931286D02*
X210965147Y-176608619D01*
X211400575Y-175931286D02*
X211400575Y-176463476D01*
X211352194Y-176560238D01*
X211255432Y-176608619D01*
X211110290Y-176608619D01*
X211013528Y-176560238D01*
X210965147Y-176511857D01*
X210529718Y-176560238D02*
X210432956Y-176608619D01*
X210239432Y-176608619D01*
X210142671Y-176560238D01*
X210094290Y-176463476D01*
X210094290Y-176415095D01*
X210142671Y-176318333D01*
X210239432Y-176269952D01*
X210384575Y-176269952D01*
X210481337Y-176221571D01*
X210529718Y-176124810D01*
X210529718Y-176076429D01*
X210481337Y-175979667D01*
X210384575Y-175931286D01*
X210239432Y-175931286D01*
X210142671Y-175979667D01*
X209658861Y-176511857D02*
X209610480Y-176560238D01*
X209658861Y-176608619D01*
X209707242Y-176560238D01*
X209658861Y-176511857D01*
X209658861Y-176608619D01*
X209658861Y-176221571D02*
X209707242Y-175641000D01*
X209658861Y-175592619D01*
X209610480Y-175641000D01*
X209658861Y-176221571D01*
X209658861Y-175592619D01*
X230898095Y-180164619D02*
X230898095Y-179148619D01*
X230656190Y-179148619D01*
X230511048Y-179197000D01*
X230414286Y-179293762D01*
X230365905Y-179390524D01*
X230317524Y-179584048D01*
X230317524Y-179729190D01*
X230365905Y-179922714D01*
X230414286Y-180019476D01*
X230511048Y-180116238D01*
X230656190Y-180164619D01*
X230898095Y-180164619D01*
X229736952Y-180164619D02*
X229833714Y-180116238D01*
X229882095Y-180067857D01*
X229930476Y-179971095D01*
X229930476Y-179680810D01*
X229882095Y-179584048D01*
X229833714Y-179535667D01*
X229736952Y-179487286D01*
X229591810Y-179487286D01*
X229495048Y-179535667D01*
X229446667Y-179584048D01*
X229398286Y-179680810D01*
X229398286Y-179971095D01*
X229446667Y-180067857D01*
X229495048Y-180116238D01*
X229591810Y-180164619D01*
X229736952Y-180164619D01*
X228527429Y-179487286D02*
X228527429Y-180164619D01*
X228962857Y-179487286D02*
X228962857Y-180019476D01*
X228914476Y-180116238D01*
X228817714Y-180164619D01*
X228672572Y-180164619D01*
X228575810Y-180116238D01*
X228527429Y-180067857D01*
X227608191Y-179487286D02*
X227608191Y-180309762D01*
X227656572Y-180406524D01*
X227704953Y-180454905D01*
X227801714Y-180503286D01*
X227946857Y-180503286D01*
X228043619Y-180454905D01*
X227608191Y-180116238D02*
X227704953Y-180164619D01*
X227898476Y-180164619D01*
X227995238Y-180116238D01*
X228043619Y-180067857D01*
X228092000Y-179971095D01*
X228092000Y-179680810D01*
X228043619Y-179584048D01*
X227995238Y-179535667D01*
X227898476Y-179487286D01*
X227704953Y-179487286D01*
X227608191Y-179535667D01*
X226979238Y-180164619D02*
X227076000Y-180116238D01*
X227124381Y-180019476D01*
X227124381Y-179148619D01*
X226156763Y-180164619D02*
X226156763Y-179632429D01*
X226205144Y-179535667D01*
X226301906Y-179487286D01*
X226495429Y-179487286D01*
X226592191Y-179535667D01*
X226156763Y-180116238D02*
X226253525Y-180164619D01*
X226495429Y-180164619D01*
X226592191Y-180116238D01*
X226640572Y-180019476D01*
X226640572Y-179922714D01*
X226592191Y-179825952D01*
X226495429Y-179777571D01*
X226253525Y-179777571D01*
X226156763Y-179729190D01*
X225721334Y-180116238D02*
X225624572Y-180164619D01*
X225431048Y-180164619D01*
X225334287Y-180116238D01*
X225285906Y-180019476D01*
X225285906Y-179971095D01*
X225334287Y-179874333D01*
X225431048Y-179825952D01*
X225576191Y-179825952D01*
X225672953Y-179777571D01*
X225721334Y-179680810D01*
X225721334Y-179632429D01*
X225672953Y-179535667D01*
X225576191Y-179487286D01*
X225431048Y-179487286D01*
X225334287Y-179535667D01*
X224076382Y-180164619D02*
X224076382Y-179148619D01*
X223737716Y-179874333D01*
X223399049Y-179148619D01*
X223399049Y-180164619D01*
X222479811Y-180164619D02*
X222479811Y-179632429D01*
X222528192Y-179535667D01*
X222624954Y-179487286D01*
X222818477Y-179487286D01*
X222915239Y-179535667D01*
X222479811Y-180116238D02*
X222576573Y-180164619D01*
X222818477Y-180164619D01*
X222915239Y-180116238D01*
X222963620Y-180019476D01*
X222963620Y-179922714D01*
X222915239Y-179825952D01*
X222818477Y-179777571D01*
X222576573Y-179777571D01*
X222479811Y-179729190D01*
X221850858Y-180164619D02*
X221947620Y-180116238D01*
X221996001Y-180019476D01*
X221996001Y-179148619D01*
X221463811Y-179487286D02*
X221463811Y-180164619D01*
X221463811Y-179584048D02*
X221415430Y-179535667D01*
X221318668Y-179487286D01*
X221173526Y-179487286D01*
X221076764Y-179535667D01*
X221028383Y-179632429D01*
X221028383Y-180164619D01*
X220109145Y-180164619D02*
X220109145Y-179632429D01*
X220157526Y-179535667D01*
X220254288Y-179487286D01*
X220447811Y-179487286D01*
X220544573Y-179535667D01*
X220109145Y-180116238D02*
X220205907Y-180164619D01*
X220447811Y-180164619D01*
X220544573Y-180116238D01*
X220592954Y-180019476D01*
X220592954Y-179922714D01*
X220544573Y-179825952D01*
X220447811Y-179777571D01*
X220205907Y-179777571D01*
X220109145Y-179729190D01*
X219770478Y-179487286D02*
X219383430Y-179487286D01*
X219625335Y-179148619D02*
X219625335Y-180019476D01*
X219576954Y-180116238D01*
X219480192Y-180164619D01*
X219383430Y-180164619D01*
X219044764Y-180164619D02*
X219044764Y-179487286D01*
X219044764Y-179148619D02*
X219093145Y-179197000D01*
X219044764Y-179245381D01*
X218996383Y-179197000D01*
X219044764Y-179148619D01*
X219044764Y-179245381D01*
X217496574Y-180551667D02*
X217544954Y-180503286D01*
X217641716Y-180358143D01*
X217690097Y-180261381D01*
X217738478Y-180116238D01*
X217786859Y-179874333D01*
X217786859Y-179680810D01*
X217738478Y-179438905D01*
X217690097Y-179293762D01*
X217641716Y-179197000D01*
X217544954Y-179051857D01*
X217496574Y-179003476D01*
X217109526Y-180164619D02*
X217109526Y-179148619D01*
X216528955Y-180164619D02*
X216964383Y-179584048D01*
X216528955Y-179148619D02*
X217109526Y-179729190D01*
X216093526Y-180164619D02*
X216093526Y-179148619D01*
X215851621Y-179148619D01*
X215706479Y-179197000D01*
X215609717Y-179293762D01*
X215561336Y-179390524D01*
X215512955Y-179584048D01*
X215512955Y-179729190D01*
X215561336Y-179922714D01*
X215609717Y-180019476D01*
X215706479Y-180116238D01*
X215851621Y-180164619D01*
X216093526Y-180164619D01*
X215125907Y-179245381D02*
X215077526Y-179197000D01*
X214980764Y-179148619D01*
X214738860Y-179148619D01*
X214642098Y-179197000D01*
X214593717Y-179245381D01*
X214545336Y-179342143D01*
X214545336Y-179438905D01*
X214593717Y-179584048D01*
X215174288Y-180164619D01*
X214545336Y-180164619D01*
X214109907Y-180164619D02*
X214109907Y-179148619D01*
X213529336Y-180164619D02*
X213964764Y-179584048D01*
X213529336Y-179148619D02*
X214109907Y-179729190D01*
X213093907Y-180164619D02*
X213093907Y-179148619D01*
X212852002Y-179148619D01*
X212706860Y-179197000D01*
X212610098Y-179293762D01*
X212561717Y-179390524D01*
X212513336Y-179584048D01*
X212513336Y-179729190D01*
X212561717Y-179922714D01*
X212610098Y-180019476D01*
X212706860Y-180116238D01*
X212852002Y-180164619D01*
X213093907Y-180164619D01*
X212077907Y-180164619D02*
X212077907Y-179148619D01*
X211836002Y-179148619D01*
X211690860Y-179197000D01*
X211594098Y-179293762D01*
X211545717Y-179390524D01*
X211497336Y-179584048D01*
X211497336Y-179729190D01*
X211545717Y-179922714D01*
X211594098Y-180019476D01*
X211690860Y-180116238D01*
X211836002Y-180164619D01*
X212077907Y-180164619D01*
X211158669Y-180551667D02*
X211110288Y-180503286D01*
X211013526Y-180358143D01*
X210965145Y-180261381D01*
X210916764Y-180116238D01*
X210868383Y-179874333D01*
X210868383Y-179680810D01*
X210916764Y-179438905D01*
X210965145Y-179293762D01*
X211013526Y-179197000D01*
X211110288Y-179051857D01*
X211158669Y-179003476D01*
X230898095Y-181942619D02*
X230898095Y-180926619D01*
X230559429Y-181652333D01*
X230220762Y-180926619D01*
X230220762Y-181942619D01*
X229301524Y-181942619D02*
X229301524Y-181410429D01*
X229349905Y-181313667D01*
X229446667Y-181265286D01*
X229640190Y-181265286D01*
X229736952Y-181313667D01*
X229301524Y-181894238D02*
X229398286Y-181942619D01*
X229640190Y-181942619D01*
X229736952Y-181894238D01*
X229785333Y-181797476D01*
X229785333Y-181700714D01*
X229736952Y-181603952D01*
X229640190Y-181555571D01*
X229398286Y-181555571D01*
X229301524Y-181507190D01*
X228817714Y-181942619D02*
X228817714Y-181265286D01*
X228817714Y-181458810D02*
X228769333Y-181362048D01*
X228720952Y-181313667D01*
X228624190Y-181265286D01*
X228527429Y-181265286D01*
X228188762Y-181942619D02*
X228188762Y-180926619D01*
X228092000Y-181555571D02*
X227801715Y-181942619D01*
X227801715Y-181265286D02*
X228188762Y-181652333D01*
X226592191Y-181942619D02*
X226592191Y-180926619D01*
X226253525Y-181652333D01*
X225914858Y-180926619D01*
X225914858Y-181942619D01*
X224995620Y-181942619D02*
X224995620Y-181410429D01*
X225044001Y-181313667D01*
X225140763Y-181265286D01*
X225334286Y-181265286D01*
X225431048Y-181313667D01*
X224995620Y-181894238D02*
X225092382Y-181942619D01*
X225334286Y-181942619D01*
X225431048Y-181894238D01*
X225479429Y-181797476D01*
X225479429Y-181700714D01*
X225431048Y-181603952D01*
X225334286Y-181555571D01*
X225092382Y-181555571D01*
X224995620Y-181507190D01*
X224366667Y-181942619D02*
X224463429Y-181894238D01*
X224511810Y-181797476D01*
X224511810Y-180926619D01*
X223979620Y-181265286D02*
X223979620Y-181942619D01*
X223979620Y-181362048D02*
X223931239Y-181313667D01*
X223834477Y-181265286D01*
X223689335Y-181265286D01*
X223592573Y-181313667D01*
X223544192Y-181410429D01*
X223544192Y-181942619D01*
X222624954Y-181942619D02*
X222624954Y-181410429D01*
X222673335Y-181313667D01*
X222770097Y-181265286D01*
X222963620Y-181265286D01*
X223060382Y-181313667D01*
X222624954Y-181894238D02*
X222721716Y-181942619D01*
X222963620Y-181942619D01*
X223060382Y-181894238D01*
X223108763Y-181797476D01*
X223108763Y-181700714D01*
X223060382Y-181603952D01*
X222963620Y-181555571D01*
X222721716Y-181555571D01*
X222624954Y-181507190D01*
X222286287Y-181265286D02*
X221899239Y-181265286D01*
X222141144Y-180926619D02*
X222141144Y-181797476D01*
X222092763Y-181894238D01*
X221996001Y-181942619D01*
X221899239Y-181942619D01*
X221560573Y-181942619D02*
X221560573Y-181265286D01*
X221560573Y-180926619D02*
X221608954Y-180975000D01*
X221560573Y-181023381D01*
X221512192Y-180975000D01*
X221560573Y-180926619D01*
X221560573Y-181023381D01*
X220012383Y-182329667D02*
X220060763Y-182281286D01*
X220157525Y-182136143D01*
X220205906Y-182039381D01*
X220254287Y-181894238D01*
X220302668Y-181652333D01*
X220302668Y-181458810D01*
X220254287Y-181216905D01*
X220205906Y-181071762D01*
X220157525Y-180975000D01*
X220060763Y-180829857D01*
X220012383Y-180781476D01*
X219625335Y-181942619D02*
X219625335Y-180926619D01*
X219044764Y-181942619D02*
X219480192Y-181362048D01*
X219044764Y-180926619D02*
X219625335Y-181507190D01*
X218609335Y-181942619D02*
X218609335Y-180926619D01*
X218028764Y-181942619D01*
X218028764Y-180926619D01*
X217109526Y-181265286D02*
X217109526Y-181942619D01*
X217351430Y-180878238D02*
X217593335Y-181603952D01*
X216964383Y-181603952D01*
X216577335Y-181942619D02*
X216577335Y-180926619D01*
X216093525Y-180926619D02*
X216093525Y-181749095D01*
X216045144Y-181845857D01*
X215996763Y-181894238D01*
X215900001Y-181942619D01*
X215706478Y-181942619D01*
X215609716Y-181894238D01*
X215561335Y-181845857D01*
X215512954Y-181749095D01*
X215512954Y-180926619D01*
X215029144Y-181942619D02*
X215029144Y-180926619D01*
X214787239Y-180926619D01*
X214642097Y-180975000D01*
X214545335Y-181071762D01*
X214496954Y-181168524D01*
X214448573Y-181362048D01*
X214448573Y-181507190D01*
X214496954Y-181700714D01*
X214545335Y-181797476D01*
X214642097Y-181894238D01*
X214787239Y-181942619D01*
X215029144Y-181942619D01*
X214109906Y-182329667D02*
X214061525Y-182281286D01*
X213964763Y-182136143D01*
X213916382Y-182039381D01*
X213868001Y-181894238D01*
X213819620Y-181652333D01*
X213819620Y-181458810D01*
X213868001Y-181216905D01*
X213916382Y-181071762D01*
X213964763Y-180975000D01*
X214061525Y-180829857D01*
X214109906Y-180781476D01*
X230462667Y-185498619D02*
X230462667Y-184482619D01*
X230462667Y-185450238D02*
X230559429Y-185498619D01*
X230752952Y-185498619D01*
X230849714Y-185450238D01*
X230898095Y-185401857D01*
X230946476Y-185305095D01*
X230946476Y-185014810D01*
X230898095Y-184918048D01*
X230849714Y-184869667D01*
X230752952Y-184821286D01*
X230559429Y-184821286D01*
X230462667Y-184869667D01*
X229833714Y-185498619D02*
X229930476Y-185450238D01*
X229978857Y-185401857D01*
X230027238Y-185305095D01*
X230027238Y-185014810D01*
X229978857Y-184918048D01*
X229930476Y-184869667D01*
X229833714Y-184821286D01*
X229688572Y-184821286D01*
X229591810Y-184869667D01*
X229543429Y-184918048D01*
X229495048Y-185014810D01*
X229495048Y-185305095D01*
X229543429Y-185401857D01*
X229591810Y-185450238D01*
X229688572Y-185498619D01*
X229833714Y-185498619D01*
X228624191Y-184821286D02*
X228624191Y-185498619D01*
X229059619Y-184821286D02*
X229059619Y-185353476D01*
X229011238Y-185450238D01*
X228914476Y-185498619D01*
X228769334Y-185498619D01*
X228672572Y-185450238D01*
X228624191Y-185401857D01*
X227704953Y-184821286D02*
X227704953Y-185643762D01*
X227753334Y-185740524D01*
X227801715Y-185788905D01*
X227898476Y-185837286D01*
X228043619Y-185837286D01*
X228140381Y-185788905D01*
X227704953Y-185450238D02*
X227801715Y-185498619D01*
X227995238Y-185498619D01*
X228092000Y-185450238D01*
X228140381Y-185401857D01*
X228188762Y-185305095D01*
X228188762Y-185014810D01*
X228140381Y-184918048D01*
X228092000Y-184869667D01*
X227995238Y-184821286D01*
X227801715Y-184821286D01*
X227704953Y-184869667D01*
X227076000Y-185498619D02*
X227172762Y-185450238D01*
X227221143Y-185353476D01*
X227221143Y-184482619D01*
X226253525Y-185498619D02*
X226253525Y-184966429D01*
X226301906Y-184869667D01*
X226398668Y-184821286D01*
X226592191Y-184821286D01*
X226688953Y-184869667D01*
X226253525Y-185450238D02*
X226350287Y-185498619D01*
X226592191Y-185498619D01*
X226688953Y-185450238D01*
X226737334Y-185353476D01*
X226737334Y-185256714D01*
X226688953Y-185159952D01*
X226592191Y-185111571D01*
X226350287Y-185111571D01*
X226253525Y-185063190D01*
X225818096Y-185450238D02*
X225721334Y-185498619D01*
X225527810Y-185498619D01*
X225431049Y-185450238D01*
X225382668Y-185353476D01*
X225382668Y-185305095D01*
X225431049Y-185208333D01*
X225527810Y-185159952D01*
X225672953Y-185159952D01*
X225769715Y-185111571D01*
X225818096Y-185014810D01*
X225818096Y-184966429D01*
X225769715Y-184869667D01*
X225672953Y-184821286D01*
X225527810Y-184821286D01*
X225431049Y-184869667D01*
X224947239Y-185401857D02*
X224898858Y-185450238D01*
X224947239Y-185498619D01*
X224995620Y-185450238D01*
X224947239Y-185401857D01*
X224947239Y-185498619D01*
X224463429Y-185498619D02*
X224463429Y-184821286D01*
X224463429Y-184918048D02*
X224415048Y-184869667D01*
X224318286Y-184821286D01*
X224173144Y-184821286D01*
X224076382Y-184869667D01*
X224028001Y-184966429D01*
X224028001Y-185498619D01*
X224028001Y-184966429D02*
X223979620Y-184869667D01*
X223882858Y-184821286D01*
X223737715Y-184821286D01*
X223640953Y-184869667D01*
X223592572Y-184966429D01*
X223592572Y-185498619D01*
X222673334Y-185498619D02*
X222673334Y-184966429D01*
X222721715Y-184869667D01*
X222818477Y-184821286D01*
X223012000Y-184821286D01*
X223108762Y-184869667D01*
X222673334Y-185450238D02*
X222770096Y-185498619D01*
X223012000Y-185498619D01*
X223108762Y-185450238D01*
X223157143Y-185353476D01*
X223157143Y-185256714D01*
X223108762Y-185159952D01*
X223012000Y-185111571D01*
X222770096Y-185111571D01*
X222673334Y-185063190D01*
X222044381Y-185498619D02*
X222141143Y-185450238D01*
X222189524Y-185353476D01*
X222189524Y-184482619D01*
X221657334Y-184821286D02*
X221657334Y-185498619D01*
X221657334Y-184918048D02*
X221608953Y-184869667D01*
X221512191Y-184821286D01*
X221367049Y-184821286D01*
X221270287Y-184869667D01*
X221221906Y-184966429D01*
X221221906Y-185498619D01*
X220302668Y-185498619D02*
X220302668Y-184966429D01*
X220351049Y-184869667D01*
X220447811Y-184821286D01*
X220641334Y-184821286D01*
X220738096Y-184869667D01*
X220302668Y-185450238D02*
X220399430Y-185498619D01*
X220641334Y-185498619D01*
X220738096Y-185450238D01*
X220786477Y-185353476D01*
X220786477Y-185256714D01*
X220738096Y-185159952D01*
X220641334Y-185111571D01*
X220399430Y-185111571D01*
X220302668Y-185063190D01*
X219964001Y-184821286D02*
X219576953Y-184821286D01*
X219818858Y-184482619D02*
X219818858Y-185353476D01*
X219770477Y-185450238D01*
X219673715Y-185498619D01*
X219576953Y-185498619D01*
X219238287Y-185498619D02*
X219238287Y-184821286D01*
X219238287Y-184482619D02*
X219286668Y-184531000D01*
X219238287Y-184579381D01*
X219189906Y-184531000D01*
X219238287Y-184482619D01*
X219238287Y-184579381D01*
X218125525Y-185014810D02*
X218173906Y-184966429D01*
X218270668Y-184918048D01*
X218367430Y-184918048D01*
X218464192Y-184966429D01*
X218512572Y-185014810D01*
X218560953Y-185111571D01*
X218560953Y-185208333D01*
X218512572Y-185305095D01*
X218464192Y-185353476D01*
X218367430Y-185401857D01*
X218270668Y-185401857D01*
X218173906Y-185353476D01*
X218125525Y-185305095D01*
X218125525Y-184918048D02*
X218125525Y-185305095D01*
X218077144Y-185353476D01*
X218028763Y-185353476D01*
X217932001Y-185305095D01*
X217883620Y-185208333D01*
X217883620Y-184966429D01*
X217980382Y-184821286D01*
X218125525Y-184724524D01*
X218319049Y-184676143D01*
X218512572Y-184724524D01*
X218657715Y-184821286D01*
X218754477Y-184966429D01*
X218802858Y-185159952D01*
X218754477Y-185353476D01*
X218657715Y-185498619D01*
X218512572Y-185595381D01*
X218319049Y-185643762D01*
X218125525Y-185595381D01*
X217980382Y-185498619D01*
X217012763Y-184821286D02*
X217012763Y-185643762D01*
X217061144Y-185740524D01*
X217109525Y-185788905D01*
X217206286Y-185837286D01*
X217351429Y-185837286D01*
X217448191Y-185788905D01*
X217012763Y-185450238D02*
X217109525Y-185498619D01*
X217303048Y-185498619D01*
X217399810Y-185450238D01*
X217448191Y-185401857D01*
X217496572Y-185305095D01*
X217496572Y-185014810D01*
X217448191Y-184918048D01*
X217399810Y-184869667D01*
X217303048Y-184821286D01*
X217109525Y-184821286D01*
X217012763Y-184869667D01*
X216528953Y-185498619D02*
X216528953Y-184821286D01*
X216528953Y-184918048D02*
X216480572Y-184869667D01*
X216383810Y-184821286D01*
X216238668Y-184821286D01*
X216141906Y-184869667D01*
X216093525Y-184966429D01*
X216093525Y-185498619D01*
X216093525Y-184966429D02*
X216045144Y-184869667D01*
X215948382Y-184821286D01*
X215803239Y-184821286D01*
X215706477Y-184869667D01*
X215658096Y-184966429D01*
X215658096Y-185498619D01*
X214738858Y-185498619D02*
X214738858Y-184966429D01*
X214787239Y-184869667D01*
X214884001Y-184821286D01*
X215077524Y-184821286D01*
X215174286Y-184869667D01*
X214738858Y-185450238D02*
X214835620Y-185498619D01*
X215077524Y-185498619D01*
X215174286Y-185450238D01*
X215222667Y-185353476D01*
X215222667Y-185256714D01*
X215174286Y-185159952D01*
X215077524Y-185111571D01*
X214835620Y-185111571D01*
X214738858Y-185063190D01*
X214255048Y-185498619D02*
X214255048Y-184821286D01*
X214255048Y-184482619D02*
X214303429Y-184531000D01*
X214255048Y-184579381D01*
X214206667Y-184531000D01*
X214255048Y-184482619D01*
X214255048Y-184579381D01*
X213626095Y-185498619D02*
X213722857Y-185450238D01*
X213771238Y-185353476D01*
X213771238Y-184482619D01*
X213239048Y-185401857D02*
X213190667Y-185450238D01*
X213239048Y-185498619D01*
X213287429Y-185450238D01*
X213239048Y-185401857D01*
X213239048Y-185498619D01*
X212319810Y-185450238D02*
X212416572Y-185498619D01*
X212610095Y-185498619D01*
X212706857Y-185450238D01*
X212755238Y-185401857D01*
X212803619Y-185305095D01*
X212803619Y-185014810D01*
X212755238Y-184918048D01*
X212706857Y-184869667D01*
X212610095Y-184821286D01*
X212416572Y-184821286D01*
X212319810Y-184869667D01*
X211739238Y-185498619D02*
X211836000Y-185450238D01*
X211884381Y-185401857D01*
X211932762Y-185305095D01*
X211932762Y-185014810D01*
X211884381Y-184918048D01*
X211836000Y-184869667D01*
X211739238Y-184821286D01*
X211594096Y-184821286D01*
X211497334Y-184869667D01*
X211448953Y-184918048D01*
X211400572Y-185014810D01*
X211400572Y-185305095D01*
X211448953Y-185401857D01*
X211497334Y-185450238D01*
X211594096Y-185498619D01*
X211739238Y-185498619D01*
X210965143Y-185498619D02*
X210965143Y-184821286D01*
X210965143Y-184918048D02*
X210916762Y-184869667D01*
X210820000Y-184821286D01*
X210674858Y-184821286D01*
X210578096Y-184869667D01*
X210529715Y-184966429D01*
X210529715Y-185498619D01*
X210529715Y-184966429D02*
X210481334Y-184869667D01*
X210384572Y-184821286D01*
X210239429Y-184821286D01*
X210142667Y-184869667D01*
X210094286Y-184966429D01*
X210094286Y-185498619D01*
X230946476Y-186357381D02*
X230898095Y-186309000D01*
X230801333Y-186260619D01*
X230559429Y-186260619D01*
X230462667Y-186309000D01*
X230414286Y-186357381D01*
X230365905Y-186454143D01*
X230365905Y-186550905D01*
X230414286Y-186696048D01*
X230994857Y-187276619D01*
X230365905Y-187276619D01*
X229736952Y-186260619D02*
X229640191Y-186260619D01*
X229543429Y-186309000D01*
X229495048Y-186357381D01*
X229446667Y-186454143D01*
X229398286Y-186647667D01*
X229398286Y-186889571D01*
X229446667Y-187083095D01*
X229495048Y-187179857D01*
X229543429Y-187228238D01*
X229640191Y-187276619D01*
X229736952Y-187276619D01*
X229833714Y-187228238D01*
X229882095Y-187179857D01*
X229930476Y-187083095D01*
X229978857Y-186889571D01*
X229978857Y-186647667D01*
X229930476Y-186454143D01*
X229882095Y-186357381D01*
X229833714Y-186309000D01*
X229736952Y-186260619D01*
X228430667Y-187276619D02*
X229011238Y-187276619D01*
X228720952Y-187276619D02*
X228720952Y-186260619D01*
X228817714Y-186405762D01*
X228914476Y-186502524D01*
X229011238Y-186550905D01*
X227995238Y-186889571D02*
X227221143Y-186889571D01*
X226688952Y-187276619D02*
X226495428Y-187276619D01*
X226398667Y-187228238D01*
X226350286Y-187179857D01*
X226253524Y-187034714D01*
X226205143Y-186841190D01*
X226205143Y-186454143D01*
X226253524Y-186357381D01*
X226301905Y-186309000D01*
X226398667Y-186260619D01*
X226592190Y-186260619D01*
X226688952Y-186309000D01*
X226737333Y-186357381D01*
X226785714Y-186454143D01*
X226785714Y-186696048D01*
X226737333Y-186792810D01*
X226688952Y-186841190D01*
X226592190Y-186889571D01*
X226398667Y-186889571D01*
X226301905Y-186841190D01*
X226253524Y-186792810D01*
X226205143Y-186696048D01*
X225721333Y-187276619D02*
X225527809Y-187276619D01*
X225431048Y-187228238D01*
X225382667Y-187179857D01*
X225285905Y-187034714D01*
X225237524Y-186841190D01*
X225237524Y-186454143D01*
X225285905Y-186357381D01*
X225334286Y-186309000D01*
X225431048Y-186260619D01*
X225624571Y-186260619D01*
X225721333Y-186309000D01*
X225769714Y-186357381D01*
X225818095Y-186454143D01*
X225818095Y-186696048D01*
X225769714Y-186792810D01*
X225721333Y-186841190D01*
X225624571Y-186889571D01*
X225431048Y-186889571D01*
X225334286Y-186841190D01*
X225285905Y-186792810D01*
X225237524Y-186696048D01*
X224898857Y-186260619D02*
X224269905Y-186260619D01*
X224608571Y-186647667D01*
X224463429Y-186647667D01*
X224366667Y-186696048D01*
X224318286Y-186744429D01*
X224269905Y-186841190D01*
X224269905Y-187083095D01*
X224318286Y-187179857D01*
X224366667Y-187228238D01*
X224463429Y-187276619D01*
X224753714Y-187276619D01*
X224850476Y-187228238D01*
X224898857Y-187179857D01*
X223834476Y-186889571D02*
X223060381Y-186889571D01*
X222141143Y-186260619D02*
X222334666Y-186260619D01*
X222431428Y-186309000D01*
X222479809Y-186357381D01*
X222576571Y-186502524D01*
X222624952Y-186696048D01*
X222624952Y-187083095D01*
X222576571Y-187179857D01*
X222528190Y-187228238D01*
X222431428Y-187276619D01*
X222237905Y-187276619D01*
X222141143Y-187228238D01*
X222092762Y-187179857D01*
X222044381Y-187083095D01*
X222044381Y-186841190D01*
X222092762Y-186744429D01*
X222141143Y-186696048D01*
X222237905Y-186647667D01*
X222431428Y-186647667D01*
X222528190Y-186696048D01*
X222576571Y-186744429D01*
X222624952Y-186841190D01*
X221705714Y-186260619D02*
X221028381Y-186260619D01*
X221463809Y-187276619D01*
X220109143Y-187276619D02*
X220689714Y-187276619D01*
X220399428Y-187276619D02*
X220399428Y-186260619D01*
X220496190Y-186405762D01*
X220592952Y-186502524D01*
X220689714Y-186550905D01*
X219238286Y-186260619D02*
X219431809Y-186260619D01*
X219528571Y-186309000D01*
X219576952Y-186357381D01*
X219673714Y-186502524D01*
X219722095Y-186696048D01*
X219722095Y-187083095D01*
X219673714Y-187179857D01*
X219625333Y-187228238D01*
X219528571Y-187276619D01*
X219335048Y-187276619D01*
X219238286Y-187228238D01*
X219189905Y-187179857D01*
X219141524Y-187083095D01*
X219141524Y-186841190D01*
X219189905Y-186744429D01*
X219238286Y-186696048D01*
X219335048Y-186647667D01*
X219528571Y-186647667D01*
X219625333Y-186696048D01*
X219673714Y-186744429D01*
X219722095Y-186841190D01*
D12*
X230854286Y-168866429D02*
X230782857Y-168795000D01*
X230640000Y-168723571D01*
X230282857Y-168723571D01*
X230140000Y-168795000D01*
X230068571Y-168866429D01*
X229997143Y-169009286D01*
X229997143Y-169152143D01*
X230068571Y-169366429D01*
X230925714Y-170223571D01*
X229997143Y-170223571D01*
X229068572Y-168723571D02*
X228925715Y-168723571D01*
X228782858Y-168795000D01*
X228711429Y-168866429D01*
X228640000Y-169009286D01*
X228568572Y-169295000D01*
X228568572Y-169652143D01*
X228640000Y-169937857D01*
X228711429Y-170080714D01*
X228782858Y-170152143D01*
X228925715Y-170223571D01*
X229068572Y-170223571D01*
X229211429Y-170152143D01*
X229282858Y-170080714D01*
X229354286Y-169937857D01*
X229425715Y-169652143D01*
X229425715Y-169295000D01*
X229354286Y-169009286D01*
X229282858Y-168866429D01*
X229211429Y-168795000D01*
X229068572Y-168723571D01*
X227140001Y-170223571D02*
X227997144Y-170223571D01*
X227568572Y-170223571D02*
X227568572Y-168723571D01*
X227711429Y-168937857D01*
X227854287Y-169080714D01*
X227997144Y-169152143D01*
X226282858Y-169366429D02*
X226425716Y-169295000D01*
X226497144Y-169223571D01*
X226568573Y-169080714D01*
X226568573Y-169009286D01*
X226497144Y-168866429D01*
X226425716Y-168795000D01*
X226282858Y-168723571D01*
X225997144Y-168723571D01*
X225854287Y-168795000D01*
X225782858Y-168866429D01*
X225711430Y-169009286D01*
X225711430Y-169080714D01*
X225782858Y-169223571D01*
X225854287Y-169295000D01*
X225997144Y-169366429D01*
X226282858Y-169366429D01*
X226425716Y-169437857D01*
X226497144Y-169509286D01*
X226568573Y-169652143D01*
X226568573Y-169937857D01*
X226497144Y-170080714D01*
X226425716Y-170152143D01*
X226282858Y-170223571D01*
X225997144Y-170223571D01*
X225854287Y-170152143D01*
X225782858Y-170080714D01*
X225711430Y-169937857D01*
X225711430Y-169652143D01*
X225782858Y-169509286D01*
X225854287Y-169437857D01*
X225997144Y-169366429D01*
X225068573Y-169652143D02*
X223925716Y-169652143D01*
X222925716Y-168723571D02*
X222782859Y-168723571D01*
X222640002Y-168795000D01*
X222568573Y-168866429D01*
X222497144Y-169009286D01*
X222425716Y-169295000D01*
X222425716Y-169652143D01*
X222497144Y-169937857D01*
X222568573Y-170080714D01*
X222640002Y-170152143D01*
X222782859Y-170223571D01*
X222925716Y-170223571D01*
X223068573Y-170152143D01*
X223140002Y-170080714D01*
X223211430Y-169937857D01*
X223282859Y-169652143D01*
X223282859Y-169295000D01*
X223211430Y-169009286D01*
X223140002Y-168866429D01*
X223068573Y-168795000D01*
X222925716Y-168723571D01*
X221925716Y-168723571D02*
X220997145Y-168723571D01*
X221497145Y-169295000D01*
X221282859Y-169295000D01*
X221140002Y-169366429D01*
X221068573Y-169437857D01*
X220997145Y-169580714D01*
X220997145Y-169937857D01*
X221068573Y-170080714D01*
X221140002Y-170152143D01*
X221282859Y-170223571D01*
X221711431Y-170223571D01*
X221854288Y-170152143D01*
X221925716Y-170080714D01*
X220354288Y-169652143D02*
X219211431Y-169652143D01*
X218568574Y-168866429D02*
X218497145Y-168795000D01*
X218354288Y-168723571D01*
X217997145Y-168723571D01*
X217854288Y-168795000D01*
X217782859Y-168866429D01*
X217711431Y-169009286D01*
X217711431Y-169152143D01*
X217782859Y-169366429D01*
X218640002Y-170223571D01*
X217711431Y-170223571D01*
X216425717Y-169223571D02*
X216425717Y-170223571D01*
X216782860Y-168652143D02*
X217140003Y-169723571D01*
X216211431Y-169723571D01*
X214497146Y-169652143D02*
X213354289Y-169652143D01*
X211497146Y-170223571D02*
X211497146Y-168723571D01*
X210925718Y-168723571D01*
X210782860Y-168795000D01*
X210711432Y-168866429D01*
X210640003Y-169009286D01*
X210640003Y-169223571D01*
X210711432Y-169366429D01*
X210782860Y-169437857D01*
X210925718Y-169509286D01*
X211497146Y-169509286D01*
X209997146Y-170223571D02*
X209997146Y-169223571D01*
X209997146Y-168723571D02*
X210068575Y-168795000D01*
X209997146Y-168866429D01*
X209925718Y-168795000D01*
X209997146Y-168723571D01*
X209997146Y-168866429D01*
X208640003Y-170152143D02*
X208782860Y-170223571D01*
X209068574Y-170223571D01*
X209211432Y-170152143D01*
X209282860Y-170080714D01*
X209354289Y-169937857D01*
X209354289Y-169509286D01*
X209282860Y-169366429D01*
X209211432Y-169295000D01*
X209068574Y-169223571D01*
X208782860Y-169223571D01*
X208640003Y-169295000D01*
X207782860Y-170223571D02*
X207925718Y-170152143D01*
X207997146Y-170080714D01*
X208068575Y-169937857D01*
X208068575Y-169509286D01*
X207997146Y-169366429D01*
X207925718Y-169295000D01*
X207782860Y-169223571D01*
X207568575Y-169223571D01*
X207425718Y-169295000D01*
X207354289Y-169366429D01*
X207282860Y-169509286D01*
X207282860Y-169937857D01*
X207354289Y-170080714D01*
X207425718Y-170152143D01*
X207568575Y-170223571D01*
X207782860Y-170223571D01*
X206854289Y-168723571D02*
X205997146Y-168723571D01*
X206425717Y-170223571D02*
X206425717Y-168723571D01*
X205497146Y-170223571D02*
X205497146Y-169223571D01*
X205497146Y-169509286D02*
X205425718Y-169366429D01*
X205354289Y-169295000D01*
X205211432Y-169223571D01*
X205068575Y-169223571D01*
X203925718Y-170223571D02*
X203925718Y-169437857D01*
X203997147Y-169295000D01*
X204140004Y-169223571D01*
X204425718Y-169223571D01*
X204568575Y-169295000D01*
X203925718Y-170152143D02*
X204068575Y-170223571D01*
X204425718Y-170223571D01*
X204568575Y-170152143D01*
X204640004Y-170009286D01*
X204640004Y-169866429D01*
X204568575Y-169723571D01*
X204425718Y-169652143D01*
X204068575Y-169652143D01*
X203925718Y-169580714D01*
X202568575Y-170152143D02*
X202711432Y-170223571D01*
X202997146Y-170223571D01*
X203140004Y-170152143D01*
X203211432Y-170080714D01*
X203282861Y-169937857D01*
X203282861Y-169509286D01*
X203211432Y-169366429D01*
X203140004Y-169295000D01*
X202997146Y-169223571D01*
X202711432Y-169223571D01*
X202568575Y-169295000D01*
X201925718Y-170223571D02*
X201925718Y-168723571D01*
X201782861Y-169652143D02*
X201354290Y-170223571D01*
X201354290Y-169223571D02*
X201925718Y-169795000D01*
X200140004Y-170152143D02*
X200282861Y-170223571D01*
X200568575Y-170223571D01*
X200711432Y-170152143D01*
X200782861Y-170009286D01*
X200782861Y-169437857D01*
X200711432Y-169295000D01*
X200568575Y-169223571D01*
X200282861Y-169223571D01*
X200140004Y-169295000D01*
X200068575Y-169437857D01*
X200068575Y-169580714D01*
X200782861Y-169723571D01*
X199425718Y-170223571D02*
X199425718Y-169223571D01*
X199425718Y-169509286D02*
X199354290Y-169366429D01*
X199282861Y-169295000D01*
X199140004Y-169223571D01*
X198997147Y-169223571D01*
X197711433Y-170223571D02*
X198568576Y-170223571D01*
X198140004Y-170223571D02*
X198140004Y-168723571D01*
X198282861Y-168937857D01*
X198425719Y-169080714D01*
X198568576Y-169152143D01*
X195925719Y-169652143D02*
X194782862Y-169652143D01*
X192068576Y-170223571D02*
X192568576Y-169509286D01*
X192925719Y-170223571D02*
X192925719Y-168723571D01*
X192354291Y-168723571D01*
X192211433Y-168795000D01*
X192140005Y-168866429D01*
X192068576Y-169009286D01*
X192068576Y-169223571D01*
X192140005Y-169366429D01*
X192211433Y-169437857D01*
X192354291Y-169509286D01*
X192925719Y-169509286D01*
X190854291Y-170152143D02*
X190997148Y-170223571D01*
X191282862Y-170223571D01*
X191425719Y-170152143D01*
X191497148Y-170009286D01*
X191497148Y-169437857D01*
X191425719Y-169295000D01*
X191282862Y-169223571D01*
X190997148Y-169223571D01*
X190854291Y-169295000D01*
X190782862Y-169437857D01*
X190782862Y-169580714D01*
X191497148Y-169723571D01*
X190282862Y-169223571D02*
X189925719Y-170223571D01*
X189568577Y-169223571D01*
X187925720Y-168866429D02*
X187854291Y-168795000D01*
X187711434Y-168723571D01*
X187354291Y-168723571D01*
X187211434Y-168795000D01*
X187140005Y-168866429D01*
X187068577Y-169009286D01*
X187068577Y-169152143D01*
X187140005Y-169366429D01*
X187997148Y-170223571D01*
X187068577Y-170223571D01*
M02*
