G04 #@! TF.FileFunction,Copper,L1,Top,Signal*
%FSLAX46Y46*%
G04 Gerber Fmt 4.6, Leading zero omitted, Abs format (unit mm)*
G04 Created by KiCad (PCBNEW 4.0.7) date 05/06/18 23:55:50*
%MOMM*%
%LPD*%
G01*
G04 APERTURE LIST*
%ADD10C,0.100000*%
%ADD11R,1.798320X0.797560*%
%ADD12O,0.279400X0.848360*%
%ADD13O,2.397760X1.648460*%
%ADD14O,3.799840X0.279400*%
%ADD15R,1.700000X1.700000*%
%ADD16O,1.700000X1.700000*%
%ADD17R,0.750000X1.200000*%
%ADD18R,1.200000X0.750000*%
%ADD19R,1.200000X0.900000*%
%ADD20R,3.000000X3.000000*%
%ADD21R,1.676400X0.812800*%
%ADD22R,0.900000X1.200000*%
%ADD23R,1.600000X0.550000*%
%ADD24R,0.550000X1.600000*%
%ADD25C,0.685800*%
%ADD26C,0.300000*%
%ADD27C,0.400000*%
%ADD28C,0.152400*%
%ADD29C,0.250000*%
%ADD30C,0.254000*%
G04 APERTURE END LIST*
D10*
D11*
X228013260Y-184564020D03*
X228013260Y-183464200D03*
X228013260Y-182364380D03*
X228013260Y-181264560D03*
X228013260Y-180164740D03*
X228013260Y-179064920D03*
X228013260Y-177962560D03*
X228013260Y-174965360D03*
X228013260Y-173865540D03*
X228013260Y-172765720D03*
X228013260Y-171665900D03*
X228013260Y-170566080D03*
X216016840Y-170566080D03*
X216016840Y-171665900D03*
X216016840Y-172765720D03*
X216016840Y-173865540D03*
X216016840Y-174965360D03*
X216016840Y-177962560D03*
X216016840Y-179064920D03*
X216016840Y-180164740D03*
X216016840Y-181264560D03*
X216016840Y-182364380D03*
X216016840Y-183464200D03*
X216016840Y-184564020D03*
D12*
X223883220Y-191566800D03*
X223382840Y-191566800D03*
X222885000Y-191566800D03*
X222387160Y-191566800D03*
X221886780Y-191566800D03*
X221886780Y-194513200D03*
X222387160Y-194513200D03*
X222885000Y-194513200D03*
X223382840Y-194513200D03*
X223883220Y-194513200D03*
D13*
X222885000Y-193040000D03*
D14*
X222885000Y-193314320D03*
X222885000Y-192765680D03*
D12*
X195308220Y-191841120D03*
X194807840Y-191841120D03*
X194310000Y-191841120D03*
X193812160Y-191841120D03*
X193311780Y-191841120D03*
X193311780Y-194787520D03*
X193812160Y-194787520D03*
X194310000Y-194787520D03*
X194807840Y-194787520D03*
X195308220Y-194787520D03*
D13*
X194310000Y-193314320D03*
D14*
X194310000Y-193588640D03*
X194310000Y-193040000D03*
D15*
X209550000Y-194310000D03*
D16*
X207010000Y-194310000D03*
D17*
X189545000Y-194625000D03*
X189545000Y-192725000D03*
X198120000Y-192410000D03*
X198120000Y-194310000D03*
D18*
X195265000Y-188595000D03*
X197165000Y-188595000D03*
D17*
X217805000Y-194305000D03*
X217805000Y-192405000D03*
X226695000Y-192410000D03*
X226695000Y-194310000D03*
D18*
X223525000Y-187960000D03*
X225425000Y-187960000D03*
D17*
X213360000Y-178440000D03*
X213360000Y-180340000D03*
X213995000Y-183520000D03*
X213995000Y-185420000D03*
X195580000Y-175575000D03*
X195580000Y-173675000D03*
X230505000Y-172720000D03*
X230505000Y-174620000D03*
D19*
X207858000Y-170434000D03*
X210058000Y-170434000D03*
X202778000Y-170434000D03*
X204978000Y-170434000D03*
D20*
X180340000Y-188595000D03*
X175895000Y-188595000D03*
X227330000Y-167005000D03*
X222885000Y-167005000D03*
D15*
X213360000Y-190500000D03*
D16*
X213360000Y-187960000D03*
D19*
X190035000Y-188595000D03*
X192235000Y-188595000D03*
X218440000Y-187960000D03*
X220640000Y-187960000D03*
D21*
X176611280Y-184150000D03*
X176611280Y-182958740D03*
X193753740Y-184150000D03*
X193753740Y-170180000D03*
X193753740Y-181610000D03*
X193753740Y-180340000D03*
X193753740Y-182880000D03*
X193753740Y-172720000D03*
X193753740Y-173990000D03*
X193753740Y-175260000D03*
X193753740Y-176451260D03*
X193753740Y-171450000D03*
X193753740Y-177800000D03*
X193753740Y-179070000D03*
D22*
X208915000Y-188300000D03*
X208915000Y-190500000D03*
D19*
X207858000Y-172466000D03*
X210058000Y-172466000D03*
X202778000Y-172466000D03*
X204978000Y-172466000D03*
D23*
X211895000Y-183140000D03*
X211895000Y-182340000D03*
X211895000Y-181540000D03*
X211895000Y-180740000D03*
X211895000Y-179940000D03*
X211895000Y-179140000D03*
X211895000Y-178340000D03*
X211895000Y-177540000D03*
D24*
X210445000Y-176090000D03*
X209645000Y-176090000D03*
X208845000Y-176090000D03*
X208045000Y-176090000D03*
X207245000Y-176090000D03*
X206445000Y-176090000D03*
X205645000Y-176090000D03*
X204845000Y-176090000D03*
D23*
X203395000Y-177540000D03*
X203395000Y-178340000D03*
X203395000Y-179140000D03*
X203395000Y-179940000D03*
X203395000Y-180740000D03*
X203395000Y-181540000D03*
X203395000Y-182340000D03*
X203395000Y-183140000D03*
D24*
X204845000Y-184590000D03*
X205645000Y-184590000D03*
X206445000Y-184590000D03*
X207245000Y-184590000D03*
X208045000Y-184590000D03*
X208845000Y-184590000D03*
X209645000Y-184590000D03*
X210445000Y-184590000D03*
D15*
X197485000Y-178435000D03*
D16*
X200025000Y-178435000D03*
X197485000Y-180975000D03*
X200025000Y-180975000D03*
X197485000Y-183515000D03*
X200025000Y-183515000D03*
D15*
X203200000Y-187960000D03*
D16*
X203200000Y-190500000D03*
D25*
X191770000Y-196215000D03*
X209550000Y-196215000D03*
X219710000Y-189865000D03*
X219075000Y-195580000D03*
X188595000Y-187960000D03*
X196215000Y-170180000D03*
X201930000Y-194310000D03*
X199390000Y-193675000D03*
X191770000Y-183515000D03*
X201676000Y-192532000D03*
X207772000Y-191516000D03*
X205740000Y-182245000D03*
X217805000Y-179070000D03*
X220345000Y-180340000D03*
X220345000Y-194310000D03*
X201843381Y-175196510D03*
X191770000Y-177800000D03*
X201106775Y-175909987D03*
X191770000Y-175260000D03*
X212090000Y-186055000D03*
X189230000Y-181610000D03*
X202795880Y-186283611D03*
X191770000Y-173990000D03*
X203835000Y-175260000D03*
X189230000Y-176530000D03*
X207022631Y-174794688D03*
X191770000Y-171450000D03*
X219075000Y-182245006D03*
X201940310Y-182245000D03*
X203200000Y-184150000D03*
X217805000Y-181610000D03*
X196412196Y-186760196D03*
X206296494Y-186283611D03*
X207645000Y-188595000D03*
X208915000Y-186690000D03*
X210185000Y-186690000D03*
D26*
X216535000Y-194310000D02*
X216540000Y-194305000D01*
X216540000Y-194305000D02*
X217805000Y-194305000D01*
X215900000Y-193675000D02*
X216535000Y-194310000D01*
X215900000Y-193040000D02*
X215900000Y-193675000D01*
X211455000Y-193040000D02*
X215900000Y-193040000D01*
X211455000Y-193555000D02*
X211455000Y-193040000D01*
X209550000Y-194310000D02*
X210700000Y-194310000D01*
X210700000Y-194310000D02*
X211455000Y-193555000D01*
X209550000Y-194310000D02*
X209550000Y-196215000D01*
X191770000Y-196215000D02*
X191770000Y-194787520D01*
D27*
X191074698Y-192536422D02*
X191770000Y-191841120D01*
X191770000Y-194787520D02*
X191074698Y-194092218D01*
X191074698Y-194092218D02*
X191074698Y-192536422D01*
D26*
X219710000Y-189865000D02*
X218440000Y-189865000D01*
X219075000Y-196215000D02*
X222885000Y-196215000D01*
X217805000Y-196215000D02*
X219075000Y-196215000D01*
X219075000Y-196215000D02*
X219075000Y-195580000D01*
X221886780Y-191566800D02*
X220141800Y-191566800D01*
X220141800Y-191566800D02*
X218440000Y-189865000D01*
X218440000Y-189865000D02*
X218440000Y-187960000D01*
D28*
X222387160Y-194513200D02*
X222885000Y-194513200D01*
X189230000Y-188595000D02*
X188595000Y-187960000D01*
X190035000Y-188595000D02*
X189230000Y-188595000D01*
X200025000Y-178435000D02*
X196215000Y-174625000D01*
X196215000Y-174625000D02*
X196215000Y-170180000D01*
D26*
X209555000Y-194305000D02*
X209550000Y-194310000D01*
X217805000Y-194305000D02*
X217805000Y-196215000D01*
X222885000Y-196215000D02*
X222885000Y-194513200D01*
D27*
X193311780Y-194787520D02*
X189707520Y-194787520D01*
X189707520Y-194787520D02*
X189545000Y-194625000D01*
X191770000Y-191841120D02*
X193272450Y-191841120D01*
X191770000Y-191841120D02*
X190035000Y-190106120D01*
X190035000Y-190106120D02*
X190035000Y-188595000D01*
D29*
X191770000Y-194787520D02*
X193311780Y-194787520D01*
X190306780Y-188866780D02*
X190035000Y-188595000D01*
X193311780Y-194787520D02*
X193812160Y-194787520D01*
D28*
X213360000Y-180340000D02*
X213360000Y-185312400D01*
X213467600Y-185420000D02*
X213995000Y-185420000D01*
X213360000Y-185312400D02*
X213467600Y-185420000D01*
X194310000Y-193314320D02*
X194310000Y-194433910D01*
X194310000Y-193588640D02*
X194310000Y-193880740D01*
X194310000Y-193588640D02*
X194310000Y-193314320D01*
D26*
X213995000Y-185420000D02*
X215900000Y-185420000D01*
X215900000Y-185420000D02*
X216016840Y-185303160D01*
X216016840Y-185303160D02*
X216016840Y-184564020D01*
X201930000Y-194310000D02*
X207010000Y-194310000D01*
X198120000Y-194310000D02*
X198755000Y-194310000D01*
X198755000Y-194310000D02*
X199390000Y-193675000D01*
D28*
X191770000Y-183515000D02*
X192405000Y-184150000D01*
X192405000Y-184150000D02*
X193753740Y-184150000D01*
D26*
X195580000Y-173675000D02*
X195580000Y-170868060D01*
X195580000Y-170868060D02*
X194891940Y-170180000D01*
X194891940Y-170180000D02*
X193753740Y-170180000D01*
X211895000Y-181540000D02*
X205014322Y-181540000D01*
X205014322Y-181540000D02*
X204214322Y-180740000D01*
X204214322Y-180740000D02*
X203395000Y-180740000D01*
X211895000Y-181540000D02*
X213060000Y-181540000D01*
X213060000Y-181540000D02*
X213360000Y-181240000D01*
X213360000Y-181240000D02*
X213360000Y-180340000D01*
X213360000Y-180340000D02*
X212960000Y-179940000D01*
X212960000Y-179940000D02*
X211895000Y-179940000D01*
X194310000Y-193314320D02*
X197349320Y-193314320D01*
X197349320Y-193314320D02*
X198120000Y-194085000D01*
X198120000Y-194085000D02*
X198120000Y-194310000D01*
X222885000Y-193040000D02*
X218440000Y-193040000D01*
X218440000Y-193040000D02*
X217805000Y-192405000D01*
X222885000Y-193040000D02*
X225650000Y-193040000D01*
X225650000Y-193040000D02*
X226695000Y-194085000D01*
X226695000Y-194085000D02*
X226695000Y-194310000D01*
X222885000Y-193040000D02*
X223382840Y-193537840D01*
X223382840Y-193537840D02*
X223382840Y-194513200D01*
X222387160Y-191566800D02*
X222387160Y-192267840D01*
X222387160Y-192267840D02*
X222885000Y-192765680D01*
X193812160Y-191841120D02*
X193812160Y-192542160D01*
X193812160Y-192542160D02*
X194310000Y-193040000D01*
X194807840Y-194787520D02*
X194807840Y-194086480D01*
X194807840Y-194086480D02*
X194310000Y-193588640D01*
D29*
X198120000Y-192410000D02*
X198120000Y-192185000D01*
X198120000Y-192185000D02*
X197776120Y-191841120D01*
X197776120Y-191841120D02*
X195308220Y-191841120D01*
D28*
X216016840Y-182364380D02*
X214965280Y-182364380D01*
X214404018Y-181803118D02*
X214404018Y-179709018D01*
X214404018Y-179709018D02*
X213360000Y-178665000D01*
X214965280Y-182364380D02*
X214404018Y-181803118D01*
X213360000Y-178665000D02*
X213360000Y-178440000D01*
D26*
X200578153Y-184667401D02*
X201177401Y-184068153D01*
X195490000Y-188595000D02*
X199444723Y-184640277D01*
X195265000Y-188595000D02*
X195490000Y-188595000D01*
X201177401Y-182961847D02*
X201150277Y-182934723D01*
X199444723Y-184640277D02*
X199471847Y-184667401D01*
X199471847Y-184667401D02*
X200578153Y-184667401D01*
X201177401Y-184068153D02*
X201177401Y-182961847D01*
X201150277Y-182934723D02*
X201295000Y-182790000D01*
X201295000Y-182790000D02*
X201295000Y-180940000D01*
X200660000Y-190500000D02*
X200660000Y-192532000D01*
X200660000Y-192532000D02*
X200660000Y-195580000D01*
D28*
X201676000Y-192532000D02*
X200660000Y-192532000D01*
X208915000Y-190500000D02*
X208915000Y-190650000D01*
X208915000Y-190650000D02*
X208049000Y-191516000D01*
X208049000Y-191516000D02*
X207772000Y-191516000D01*
D26*
X194807840Y-190500000D02*
X200660000Y-190500000D01*
X200660000Y-195580000D02*
X195376520Y-195580000D01*
X195376520Y-195580000D02*
X195308220Y-195511700D01*
X195308220Y-195511700D02*
X195308220Y-194787520D01*
X195580000Y-175575000D02*
X195580000Y-178381940D01*
X195580000Y-178381940D02*
X194891940Y-179070000D01*
X211895000Y-180740000D02*
X210795000Y-180740000D01*
X210795000Y-180740000D02*
X209995000Y-179940000D01*
X209995000Y-179940000D02*
X203395000Y-179940000D01*
X211895000Y-179140000D02*
X212660000Y-179140000D01*
X212660000Y-179140000D02*
X213360000Y-178440000D01*
X203395000Y-178340000D02*
X210275678Y-178340000D01*
X210275678Y-178340000D02*
X211075678Y-179140000D01*
X211075678Y-179140000D02*
X211895000Y-179140000D01*
X201295000Y-178435000D02*
X201390000Y-178340000D01*
X201390000Y-178340000D02*
X203395000Y-178340000D01*
X201295000Y-180940000D02*
X201295000Y-178435000D01*
X201295000Y-180940000D02*
X202295000Y-179940000D01*
X202295000Y-179940000D02*
X203395000Y-179940000D01*
X194891940Y-179070000D02*
X193753740Y-179070000D01*
X195265000Y-188595000D02*
X195265000Y-179443060D01*
X195265000Y-179443060D02*
X194891940Y-179070000D01*
X194807840Y-190500000D02*
X194807840Y-189052160D01*
X194807840Y-191841120D02*
X194807840Y-190500000D01*
X194807840Y-189052160D02*
X195265000Y-188595000D01*
D29*
X223883220Y-191566800D02*
X225851800Y-191566800D01*
X225851800Y-191566800D02*
X225858600Y-191560000D01*
X225858600Y-191560000D02*
X226070000Y-191560000D01*
X226070000Y-191560000D02*
X226695000Y-192185000D01*
X226695000Y-192185000D02*
X226695000Y-192410000D01*
D28*
X205740000Y-182245000D02*
X205740000Y-184495000D01*
X205740000Y-184495000D02*
X205645000Y-184590000D01*
X220345000Y-180340000D02*
X219075000Y-180340000D01*
X219075000Y-180340000D02*
X217805000Y-179070000D01*
X221886780Y-194513200D02*
X220548200Y-194513200D01*
X220548200Y-194513200D02*
X220345000Y-194310000D01*
D26*
X218129200Y-183464200D02*
X216016840Y-183464200D01*
X223525000Y-187960000D02*
X222625000Y-187960000D01*
X222625000Y-187960000D02*
X218129200Y-183464200D01*
X228013260Y-173865540D02*
X229750540Y-173865540D01*
X229750540Y-173865540D02*
X230505000Y-174620000D01*
X223525000Y-173995000D02*
X223654460Y-173865540D01*
X223654460Y-173865540D02*
X228013260Y-173865540D01*
X223525000Y-187960000D02*
X223525000Y-173995000D01*
X223525000Y-187960000D02*
X225425000Y-186060000D01*
X225425000Y-186060000D02*
X225425000Y-182245000D01*
X225425000Y-182245000D02*
X226060000Y-181610000D01*
X226060000Y-181610000D02*
X226060000Y-178716660D01*
X226060000Y-178716660D02*
X226814100Y-177962560D01*
X226814100Y-177962560D02*
X228013260Y-177962560D01*
X216016840Y-183464200D02*
X214050800Y-183464200D01*
X214050800Y-183464200D02*
X213995000Y-183520000D01*
X227965000Y-190500000D02*
X223382840Y-190500000D01*
X223382840Y-191566800D02*
X223382840Y-190500000D01*
X223382840Y-190500000D02*
X223382840Y-188102160D01*
X223883220Y-194513200D02*
X223883220Y-195943220D01*
X223883220Y-195943220D02*
X224155000Y-196215000D01*
X224155000Y-196215000D02*
X227965000Y-196215000D01*
X227965000Y-196215000D02*
X227965000Y-190500000D01*
X223382840Y-188102160D02*
X223525000Y-187960000D01*
X175895000Y-188595000D02*
X175895000Y-184866280D01*
X175895000Y-184866280D02*
X176611280Y-184150000D01*
X176611280Y-184150000D02*
X176611280Y-184231280D01*
D28*
X202736871Y-176090000D02*
X201843381Y-175196510D01*
X204845000Y-176090000D02*
X202736871Y-176090000D01*
X191770000Y-177800000D02*
X193753740Y-177800000D01*
X202931788Y-177735000D02*
X201106775Y-175909987D01*
X203395000Y-177540000D02*
X202931788Y-177735000D01*
X191770000Y-175260000D02*
X193753740Y-175260000D01*
X211895000Y-185860000D02*
X212090000Y-186055000D01*
X211895000Y-183140000D02*
X211895000Y-185860000D01*
X193753740Y-181610000D02*
X189230000Y-181610000D01*
X204417600Y-184590000D02*
X202795880Y-186211720D01*
X204845000Y-184590000D02*
X204417600Y-184590000D01*
X202795880Y-186211720D02*
X202795880Y-186283611D01*
X193753740Y-173990000D02*
X191770000Y-173990000D01*
X205505000Y-175950000D02*
X205505000Y-175175067D01*
X205505000Y-175175067D02*
X204954933Y-174625000D01*
X204954933Y-174625000D02*
X204470000Y-174625000D01*
X204470000Y-174625000D02*
X203835000Y-175260000D01*
X189230000Y-176530000D02*
X193675000Y-176530000D01*
X193675000Y-176530000D02*
X193753740Y-176451260D01*
X207702088Y-174794688D02*
X207022631Y-174794688D01*
X208045000Y-175137600D02*
X207702088Y-174794688D01*
X208045000Y-176090000D02*
X208045000Y-175137600D01*
X193753740Y-171450000D02*
X191770000Y-171450000D01*
X219075000Y-181760073D02*
X219075000Y-182245006D01*
X216016840Y-180164740D02*
X217479667Y-180164740D01*
X217479667Y-180164740D02*
X219075000Y-181760073D01*
X203395000Y-182340000D02*
X202035310Y-182340000D01*
X202035310Y-182340000D02*
X201940310Y-182245000D01*
X203395000Y-183955000D02*
X203200000Y-184150000D01*
X203395000Y-183140000D02*
X203395000Y-183955000D01*
X217805000Y-181610000D02*
X216362280Y-181610000D01*
X216362280Y-181610000D02*
X216016840Y-181264560D01*
X197485000Y-183515000D02*
X197485000Y-185687392D01*
X197485000Y-185687392D02*
X196412196Y-186760196D01*
X208045000Y-184590000D02*
X208045000Y-185542400D01*
X207303789Y-186283611D02*
X206296494Y-186283611D01*
X208045000Y-185542400D02*
X207303789Y-186283611D01*
X207940000Y-188300000D02*
X207645000Y-188595000D01*
X208915000Y-188300000D02*
X207940000Y-188300000D01*
X207858000Y-172466000D02*
X208008000Y-172466000D01*
X208008000Y-172466000D02*
X210040000Y-170434000D01*
X210040000Y-170434000D02*
X210058000Y-170434000D01*
X202778000Y-172466000D02*
X202928000Y-172466000D01*
X202928000Y-172466000D02*
X204960000Y-170434000D01*
X204960000Y-170434000D02*
X204978000Y-170434000D01*
X209645000Y-176090000D02*
X209645000Y-172879000D01*
X209645000Y-172879000D02*
X210058000Y-172466000D01*
X204978000Y-172466000D02*
X206173400Y-172466000D01*
X206173400Y-172466000D02*
X208845000Y-175137600D01*
X208845000Y-175137600D02*
X208845000Y-176090000D01*
X223100900Y-171665900D02*
X222885000Y-171450000D01*
X222885000Y-171450000D02*
X222885000Y-167005000D01*
X228013260Y-171665900D02*
X223100900Y-171665900D01*
X208915000Y-186690000D02*
X208915000Y-184660000D01*
X208915000Y-184660000D02*
X208845000Y-184590000D01*
X209645000Y-184590000D02*
X209645000Y-186150000D01*
X209645000Y-186150000D02*
X210185000Y-186690000D01*
D29*
X194310000Y-191841120D02*
X194310000Y-190500000D01*
X194310000Y-190500000D02*
X192405000Y-190500000D01*
X192405000Y-190500000D02*
X192235000Y-190330000D01*
X192235000Y-190330000D02*
X192235000Y-188595000D01*
X220980000Y-190500000D02*
X220640000Y-190160000D01*
X220640000Y-190160000D02*
X220640000Y-187960000D01*
X222885000Y-190500000D02*
X220980000Y-190500000D01*
X222885000Y-191566800D02*
X222885000Y-190500000D01*
D30*
G36*
X177677287Y-165175719D02*
X177034929Y-165604929D01*
X176605719Y-166247287D01*
X176455000Y-167005000D01*
X176605719Y-167762713D01*
X177034929Y-168405071D01*
X177677287Y-168834281D01*
X178435000Y-168985000D01*
X179192713Y-168834281D01*
X179835071Y-168405071D01*
X180264281Y-167762713D01*
X180415000Y-167005000D01*
X180264281Y-166247287D01*
X179835071Y-165604929D01*
X179192713Y-165175719D01*
X179189098Y-165175000D01*
X212605902Y-165175000D01*
X212602287Y-165175719D01*
X211959929Y-165604929D01*
X211530719Y-166247287D01*
X211380000Y-167005000D01*
X211530719Y-167762713D01*
X211959929Y-168405071D01*
X212602287Y-168834281D01*
X213360000Y-168985000D01*
X214117713Y-168834281D01*
X214760071Y-168405071D01*
X215189281Y-167762713D01*
X215340000Y-167005000D01*
X215189281Y-166247287D01*
X214760071Y-165604929D01*
X214117713Y-165175719D01*
X214114098Y-165175000D01*
X220841939Y-165175000D01*
X220788569Y-165253110D01*
X220737560Y-165505000D01*
X220737560Y-168505000D01*
X220781838Y-168740317D01*
X220920910Y-168956441D01*
X221133110Y-169101431D01*
X221385000Y-169152440D01*
X222173800Y-169152440D01*
X222173800Y-171450000D01*
X222227937Y-171722165D01*
X222382106Y-171952894D01*
X222598006Y-172168795D01*
X222828736Y-172322963D01*
X223100900Y-172377100D01*
X226479100Y-172377100D01*
X226479100Y-172479970D01*
X226637850Y-172638720D01*
X226829440Y-172638720D01*
X226862210Y-172661111D01*
X227114100Y-172712120D01*
X228912420Y-172712120D01*
X229147737Y-172667842D01*
X229192994Y-172638720D01*
X229388670Y-172638720D01*
X229544070Y-172483320D01*
X229653750Y-172593000D01*
X230378000Y-172593000D01*
X230378000Y-171643750D01*
X230632000Y-171643750D01*
X230632000Y-172593000D01*
X231356250Y-172593000D01*
X231515000Y-172434250D01*
X231515000Y-171993691D01*
X231418327Y-171760302D01*
X231239699Y-171581673D01*
X231006310Y-171485000D01*
X230790750Y-171485000D01*
X230632000Y-171643750D01*
X230378000Y-171643750D01*
X230219250Y-171485000D01*
X230003690Y-171485000D01*
X229770301Y-171581673D01*
X229591673Y-171760302D01*
X229559860Y-171837105D01*
X229559860Y-171267120D01*
X229533208Y-171125479D01*
X229547420Y-171091169D01*
X229547420Y-170851830D01*
X229388670Y-170693080D01*
X229197080Y-170693080D01*
X229164310Y-170670689D01*
X228912420Y-170619680D01*
X227114100Y-170619680D01*
X226878783Y-170663958D01*
X226833526Y-170693080D01*
X226637850Y-170693080D01*
X226479100Y-170851830D01*
X226479100Y-170954700D01*
X223596200Y-170954700D01*
X223596200Y-170040991D01*
X226479100Y-170040991D01*
X226479100Y-170280330D01*
X226637850Y-170439080D01*
X227886260Y-170439080D01*
X227886260Y-169691050D01*
X228140260Y-169691050D01*
X228140260Y-170439080D01*
X229388670Y-170439080D01*
X229547420Y-170280330D01*
X229547420Y-170040991D01*
X229450747Y-169807602D01*
X229272119Y-169628973D01*
X229038730Y-169532300D01*
X228299010Y-169532300D01*
X228140260Y-169691050D01*
X227886260Y-169691050D01*
X227727510Y-169532300D01*
X226987790Y-169532300D01*
X226754401Y-169628973D01*
X226575773Y-169807602D01*
X226479100Y-170040991D01*
X223596200Y-170040991D01*
X223596200Y-169152440D01*
X224385000Y-169152440D01*
X224620317Y-169108162D01*
X224836441Y-168969090D01*
X224981431Y-168756890D01*
X225032440Y-168505000D01*
X225032440Y-167290750D01*
X225195000Y-167290750D01*
X225195000Y-168631309D01*
X225291673Y-168864698D01*
X225470301Y-169043327D01*
X225703690Y-169140000D01*
X227044250Y-169140000D01*
X227203000Y-168981250D01*
X227203000Y-167132000D01*
X227457000Y-167132000D01*
X227457000Y-168981250D01*
X227615750Y-169140000D01*
X228956310Y-169140000D01*
X229189699Y-169043327D01*
X229368327Y-168864698D01*
X229465000Y-168631309D01*
X229465000Y-167290750D01*
X229306250Y-167132000D01*
X227457000Y-167132000D01*
X227203000Y-167132000D01*
X225353750Y-167132000D01*
X225195000Y-167290750D01*
X225032440Y-167290750D01*
X225032440Y-165505000D01*
X224988162Y-165269683D01*
X224927235Y-165175000D01*
X225279372Y-165175000D01*
X225195000Y-165378691D01*
X225195000Y-166719250D01*
X225353750Y-166878000D01*
X227203000Y-166878000D01*
X227203000Y-166858000D01*
X227457000Y-166858000D01*
X227457000Y-166878000D01*
X229306250Y-166878000D01*
X229465000Y-166719250D01*
X229465000Y-165378691D01*
X229380628Y-165175000D01*
X231700000Y-165175000D01*
X231700000Y-197410000D01*
X214381272Y-197410000D01*
X214866069Y-197086069D01*
X215327774Y-196395079D01*
X215489903Y-195580000D01*
X215327774Y-194764921D01*
X214866069Y-194073931D01*
X214493518Y-193825000D01*
X215144837Y-193825000D01*
X215174755Y-193975407D01*
X215344921Y-194230079D01*
X215979921Y-194865079D01*
X216234593Y-195035245D01*
X216284435Y-195045159D01*
X216535000Y-195095001D01*
X216560141Y-195090000D01*
X216817370Y-195090000D01*
X216826838Y-195140317D01*
X216965910Y-195356441D01*
X217020000Y-195393399D01*
X217020000Y-196215000D01*
X217079755Y-196515406D01*
X217249921Y-196770079D01*
X217504594Y-196940245D01*
X217805000Y-197000000D01*
X222885000Y-197000000D01*
X223185406Y-196940245D01*
X223440079Y-196770079D01*
X223504102Y-196674260D01*
X223599921Y-196770079D01*
X223854593Y-196940245D01*
X224155000Y-197000000D01*
X227965000Y-197000000D01*
X228265406Y-196940245D01*
X228520079Y-196770079D01*
X228690245Y-196515406D01*
X228750000Y-196215000D01*
X228750000Y-190500000D01*
X228690245Y-190199594D01*
X228520079Y-189944921D01*
X228265406Y-189774755D01*
X227965000Y-189715000D01*
X224167840Y-189715000D01*
X224167840Y-188974379D01*
X224360317Y-188938162D01*
X224463646Y-188871671D01*
X224465302Y-188873327D01*
X224698691Y-188970000D01*
X225139250Y-188970000D01*
X225298000Y-188811250D01*
X225298000Y-188087000D01*
X225552000Y-188087000D01*
X225552000Y-188811250D01*
X225710750Y-188970000D01*
X226151309Y-188970000D01*
X226384698Y-188873327D01*
X226563327Y-188694699D01*
X226660000Y-188461310D01*
X226660000Y-188245750D01*
X226501250Y-188087000D01*
X225552000Y-188087000D01*
X225298000Y-188087000D01*
X225278000Y-188087000D01*
X225278000Y-187833000D01*
X225298000Y-187833000D01*
X225298000Y-187813000D01*
X225552000Y-187813000D01*
X225552000Y-187833000D01*
X226501250Y-187833000D01*
X226660000Y-187674250D01*
X226660000Y-187458690D01*
X226563327Y-187225301D01*
X226384698Y-187046673D01*
X226151309Y-186950000D01*
X225710750Y-186950000D01*
X225552002Y-187108748D01*
X225552002Y-187043156D01*
X225980079Y-186615079D01*
X226150245Y-186360406D01*
X226210000Y-186060000D01*
X226210000Y-182570158D01*
X226466660Y-182313498D01*
X226466660Y-182763160D01*
X226496141Y-182919838D01*
X226466660Y-183065420D01*
X226466660Y-183862980D01*
X226496141Y-184019658D01*
X226466660Y-184165240D01*
X226466660Y-184962800D01*
X226510938Y-185198117D01*
X226650010Y-185414241D01*
X226862210Y-185559231D01*
X227114100Y-185610240D01*
X228912420Y-185610240D01*
X229147737Y-185565962D01*
X229363861Y-185426890D01*
X229508851Y-185214690D01*
X229559860Y-184962800D01*
X229559860Y-184165240D01*
X229530379Y-184008562D01*
X229559860Y-183862980D01*
X229559860Y-183065420D01*
X229530379Y-182908742D01*
X229559860Y-182763160D01*
X229559860Y-181965600D01*
X229530379Y-181808922D01*
X229559860Y-181663340D01*
X229559860Y-180865780D01*
X229530379Y-180709102D01*
X229559860Y-180563520D01*
X229559860Y-179765960D01*
X229530379Y-179609282D01*
X229559860Y-179463700D01*
X229559860Y-178666140D01*
X229530131Y-178508145D01*
X229559860Y-178361340D01*
X229559860Y-177563780D01*
X229515582Y-177328463D01*
X229376510Y-177112339D01*
X229164310Y-176967349D01*
X228912420Y-176916340D01*
X227114100Y-176916340D01*
X226878783Y-176960618D01*
X226662659Y-177099690D01*
X226577264Y-177224670D01*
X226513694Y-177237315D01*
X226338927Y-177354090D01*
X226259021Y-177407481D01*
X225504921Y-178161581D01*
X225334755Y-178416253D01*
X225295574Y-178613230D01*
X225275000Y-178716660D01*
X225275000Y-181284842D01*
X224869921Y-181689921D01*
X224699755Y-181944593D01*
X224670391Y-182092215D01*
X224640000Y-182245000D01*
X224640000Y-185734842D01*
X224310000Y-186064842D01*
X224310000Y-174650540D01*
X226466660Y-174650540D01*
X226466660Y-175364140D01*
X226510938Y-175599457D01*
X226650010Y-175815581D01*
X226862210Y-175960571D01*
X227114100Y-176011580D01*
X228912420Y-176011580D01*
X229147737Y-175967302D01*
X229363861Y-175828230D01*
X229508851Y-175616030D01*
X229537911Y-175472526D01*
X229665910Y-175671441D01*
X229878110Y-175816431D01*
X230130000Y-175867440D01*
X230880000Y-175867440D01*
X231115317Y-175823162D01*
X231331441Y-175684090D01*
X231476431Y-175471890D01*
X231527440Y-175220000D01*
X231527440Y-174020000D01*
X231483162Y-173784683D01*
X231416671Y-173681354D01*
X231418327Y-173679698D01*
X231515000Y-173446309D01*
X231515000Y-173005750D01*
X231356250Y-172847000D01*
X230632000Y-172847000D01*
X230632000Y-172867000D01*
X230378000Y-172867000D01*
X230378000Y-172847000D01*
X229653750Y-172847000D01*
X229498350Y-173002400D01*
X229388670Y-172892720D01*
X229197080Y-172892720D01*
X229164310Y-172870329D01*
X228912420Y-172819320D01*
X227114100Y-172819320D01*
X226878783Y-172863598D01*
X226833526Y-172892720D01*
X226637850Y-172892720D01*
X226479100Y-173051470D01*
X226479100Y-173080540D01*
X223654460Y-173080540D01*
X223354053Y-173140295D01*
X223099381Y-173310461D01*
X222969921Y-173439921D01*
X222799755Y-173694593D01*
X222775415Y-173816958D01*
X222740000Y-173995000D01*
X222740000Y-186964842D01*
X218997997Y-183222839D01*
X219268663Y-183223075D01*
X219628212Y-183074513D01*
X219903540Y-182799665D01*
X220052730Y-182440376D01*
X220053069Y-182051343D01*
X219904507Y-181691794D01*
X219739799Y-181526798D01*
X219732063Y-181487909D01*
X219713415Y-181460000D01*
X219577895Y-181257179D01*
X219371916Y-181051200D01*
X219673206Y-181051200D01*
X219790341Y-181168540D01*
X220149630Y-181317730D01*
X220538663Y-181318069D01*
X220898212Y-181169507D01*
X221173540Y-180894659D01*
X221322730Y-180535370D01*
X221323069Y-180146337D01*
X221174507Y-179786788D01*
X220899659Y-179511460D01*
X220540370Y-179362270D01*
X220151337Y-179361931D01*
X219791788Y-179510493D01*
X219673274Y-179628800D01*
X219369589Y-179628800D01*
X218782925Y-179042136D01*
X218783069Y-178876337D01*
X218634507Y-178516788D01*
X218359659Y-178241460D01*
X218000370Y-178092270D01*
X217611337Y-178091931D01*
X217563440Y-178111722D01*
X217563440Y-177563780D01*
X217519162Y-177328463D01*
X217380090Y-177112339D01*
X217167890Y-176967349D01*
X216916000Y-176916340D01*
X215117680Y-176916340D01*
X214882363Y-176960618D01*
X214666239Y-177099690D01*
X214521249Y-177311890D01*
X214470240Y-177563780D01*
X214470240Y-178361340D01*
X214499969Y-178519335D01*
X214470240Y-178666140D01*
X214470240Y-178769451D01*
X214382440Y-178681652D01*
X214382440Y-177840000D01*
X214338162Y-177604683D01*
X214199090Y-177388559D01*
X213986890Y-177243569D01*
X213735000Y-177192560D01*
X213328809Y-177192560D01*
X213298162Y-177029683D01*
X213159090Y-176813559D01*
X212946890Y-176668569D01*
X212695000Y-176617560D01*
X211367440Y-176617560D01*
X211367440Y-175290000D01*
X211323162Y-175054683D01*
X211184090Y-174838559D01*
X210971890Y-174693569D01*
X210720000Y-174642560D01*
X210356200Y-174642560D01*
X210356200Y-173563440D01*
X210658000Y-173563440D01*
X210893317Y-173519162D01*
X211109441Y-173380090D01*
X211254431Y-173167890D01*
X211305440Y-172916000D01*
X211305440Y-172016000D01*
X211261162Y-171780683D01*
X211122090Y-171564559D01*
X210952798Y-171448887D01*
X211109441Y-171348090D01*
X211164765Y-171267120D01*
X214470240Y-171267120D01*
X214470240Y-172064680D01*
X214499721Y-172221358D01*
X214470240Y-172366940D01*
X214470240Y-173164500D01*
X214499721Y-173321178D01*
X214470240Y-173466760D01*
X214470240Y-174264320D01*
X214499721Y-174420998D01*
X214470240Y-174566580D01*
X214470240Y-175364140D01*
X214514518Y-175599457D01*
X214653590Y-175815581D01*
X214865790Y-175960571D01*
X215117680Y-176011580D01*
X216916000Y-176011580D01*
X217151317Y-175967302D01*
X217367441Y-175828230D01*
X217512431Y-175616030D01*
X217563440Y-175364140D01*
X217563440Y-174566580D01*
X217533959Y-174409902D01*
X217563440Y-174264320D01*
X217563440Y-173466760D01*
X217533959Y-173310082D01*
X217563440Y-173164500D01*
X217563440Y-172366940D01*
X217533959Y-172210262D01*
X217563440Y-172064680D01*
X217563440Y-171267120D01*
X217536788Y-171125479D01*
X217551000Y-171091169D01*
X217551000Y-170851830D01*
X217392250Y-170693080D01*
X217200660Y-170693080D01*
X217167890Y-170670689D01*
X216916000Y-170619680D01*
X215117680Y-170619680D01*
X214882363Y-170663958D01*
X214837106Y-170693080D01*
X214641430Y-170693080D01*
X214482680Y-170851830D01*
X214482680Y-171091169D01*
X214498256Y-171128773D01*
X214470240Y-171267120D01*
X211164765Y-171267120D01*
X211254431Y-171135890D01*
X211305440Y-170884000D01*
X211305440Y-170040991D01*
X214482680Y-170040991D01*
X214482680Y-170280330D01*
X214641430Y-170439080D01*
X215889840Y-170439080D01*
X215889840Y-169691050D01*
X216143840Y-169691050D01*
X216143840Y-170439080D01*
X217392250Y-170439080D01*
X217551000Y-170280330D01*
X217551000Y-170040991D01*
X217454327Y-169807602D01*
X217275699Y-169628973D01*
X217042310Y-169532300D01*
X216302590Y-169532300D01*
X216143840Y-169691050D01*
X215889840Y-169691050D01*
X215731090Y-169532300D01*
X214991370Y-169532300D01*
X214757981Y-169628973D01*
X214579353Y-169807602D01*
X214482680Y-170040991D01*
X211305440Y-170040991D01*
X211305440Y-169984000D01*
X211261162Y-169748683D01*
X211122090Y-169532559D01*
X210909890Y-169387569D01*
X210658000Y-169336560D01*
X209458000Y-169336560D01*
X209222683Y-169380838D01*
X209006559Y-169519910D01*
X208960031Y-169588006D01*
X208817698Y-169445673D01*
X208584309Y-169349000D01*
X208143750Y-169349000D01*
X207985000Y-169507750D01*
X207985000Y-170307000D01*
X208005000Y-170307000D01*
X208005000Y-170561000D01*
X207985000Y-170561000D01*
X207985000Y-170581000D01*
X207731000Y-170581000D01*
X207731000Y-170561000D01*
X206781750Y-170561000D01*
X206623000Y-170719750D01*
X206623000Y-171010310D01*
X206719673Y-171243699D01*
X206898302Y-171422327D01*
X206965002Y-171449955D01*
X206806559Y-171551910D01*
X206661569Y-171764110D01*
X206627829Y-171930723D01*
X206445565Y-171808937D01*
X206173400Y-171754800D01*
X206164507Y-171754800D01*
X206042090Y-171564559D01*
X205872798Y-171448887D01*
X206029441Y-171348090D01*
X206174431Y-171135890D01*
X206225440Y-170884000D01*
X206225440Y-169984000D01*
X206201674Y-169857690D01*
X206623000Y-169857690D01*
X206623000Y-170148250D01*
X206781750Y-170307000D01*
X207731000Y-170307000D01*
X207731000Y-169507750D01*
X207572250Y-169349000D01*
X207131691Y-169349000D01*
X206898302Y-169445673D01*
X206719673Y-169624301D01*
X206623000Y-169857690D01*
X206201674Y-169857690D01*
X206181162Y-169748683D01*
X206042090Y-169532559D01*
X205829890Y-169387569D01*
X205578000Y-169336560D01*
X204378000Y-169336560D01*
X204142683Y-169380838D01*
X203926559Y-169519910D01*
X203880031Y-169588006D01*
X203737698Y-169445673D01*
X203504309Y-169349000D01*
X203063750Y-169349000D01*
X202905000Y-169507750D01*
X202905000Y-170307000D01*
X202925000Y-170307000D01*
X202925000Y-170561000D01*
X202905000Y-170561000D01*
X202905000Y-170581000D01*
X202651000Y-170581000D01*
X202651000Y-170561000D01*
X201701750Y-170561000D01*
X201543000Y-170719750D01*
X201543000Y-171010310D01*
X201639673Y-171243699D01*
X201818302Y-171422327D01*
X201885002Y-171449955D01*
X201726559Y-171551910D01*
X201581569Y-171764110D01*
X201530560Y-172016000D01*
X201530560Y-172916000D01*
X201574838Y-173151317D01*
X201713910Y-173367441D01*
X201926110Y-173512431D01*
X202178000Y-173563440D01*
X203378000Y-173563440D01*
X203613317Y-173519162D01*
X203829441Y-173380090D01*
X203877134Y-173310289D01*
X203913910Y-173367441D01*
X204126110Y-173512431D01*
X204378000Y-173563440D01*
X205578000Y-173563440D01*
X205813317Y-173519162D01*
X206029441Y-173380090D01*
X206050655Y-173349043D01*
X206609085Y-173907473D01*
X206469419Y-173965181D01*
X206194091Y-174240029D01*
X206044901Y-174599318D01*
X206044843Y-174666110D01*
X206040411Y-174666944D01*
X205993080Y-174657359D01*
X205457827Y-174122106D01*
X205227098Y-173967937D01*
X204954933Y-173913800D01*
X204470000Y-173913800D01*
X204197836Y-173967937D01*
X203967106Y-174122105D01*
X203807136Y-174282075D01*
X203641337Y-174281931D01*
X203281788Y-174430493D01*
X203006460Y-174705341D01*
X202857270Y-175064630D01*
X202857148Y-175204489D01*
X202821306Y-175168646D01*
X202821450Y-175002847D01*
X202672888Y-174643298D01*
X202398040Y-174367970D01*
X202038751Y-174218780D01*
X201649718Y-174218441D01*
X201290169Y-174367003D01*
X201014841Y-174641851D01*
X200890518Y-174941254D01*
X200553563Y-175080480D01*
X200278235Y-175355328D01*
X200129045Y-175714617D01*
X200128706Y-176103650D01*
X200277268Y-176463199D01*
X200552116Y-176738527D01*
X200911405Y-176887717D01*
X201078863Y-176887863D01*
X201746000Y-177555000D01*
X201390000Y-177555000D01*
X201237978Y-177585239D01*
X201104147Y-177384946D01*
X200622378Y-177063039D01*
X200054093Y-176950000D01*
X199995907Y-176950000D01*
X199620468Y-177024679D01*
X196926200Y-174330412D01*
X196926200Y-170851794D01*
X197043540Y-170734659D01*
X197192730Y-170375370D01*
X197193069Y-169986337D01*
X197139914Y-169857690D01*
X201543000Y-169857690D01*
X201543000Y-170148250D01*
X201701750Y-170307000D01*
X202651000Y-170307000D01*
X202651000Y-169507750D01*
X202492250Y-169349000D01*
X202051691Y-169349000D01*
X201818302Y-169445673D01*
X201639673Y-169624301D01*
X201543000Y-169857690D01*
X197139914Y-169857690D01*
X197044507Y-169626788D01*
X196769659Y-169351460D01*
X196410370Y-169202270D01*
X196021337Y-169201931D01*
X195661788Y-169350493D01*
X195386460Y-169625341D01*
X195237270Y-169984630D01*
X195236931Y-170373663D01*
X195385493Y-170733212D01*
X195503800Y-170851726D01*
X195503800Y-172440000D01*
X195452998Y-172440000D01*
X195452998Y-172598748D01*
X195294250Y-172440000D01*
X195239380Y-172440000D01*
X195239380Y-172313600D01*
X195195102Y-172078283D01*
X195194604Y-172077509D01*
X195239380Y-171856400D01*
X195239380Y-171043600D01*
X195195102Y-170808283D01*
X195190387Y-170800956D01*
X195226940Y-170712710D01*
X195226940Y-170465750D01*
X195068190Y-170307000D01*
X193880740Y-170307000D01*
X193880740Y-170327000D01*
X193626740Y-170327000D01*
X193626740Y-170307000D01*
X192439290Y-170307000D01*
X192280540Y-170465750D01*
X192280540Y-170603140D01*
X191965370Y-170472270D01*
X191576337Y-170471931D01*
X191216788Y-170620493D01*
X190941460Y-170895341D01*
X190792270Y-171254630D01*
X190791931Y-171643663D01*
X190940493Y-172003212D01*
X191215341Y-172278540D01*
X191574630Y-172427730D01*
X191963663Y-172428069D01*
X192270602Y-172301245D01*
X192268100Y-172313600D01*
X192268100Y-173126400D01*
X192270463Y-173138956D01*
X191965370Y-173012270D01*
X191576337Y-173011931D01*
X191216788Y-173160493D01*
X190941460Y-173435341D01*
X190792270Y-173794630D01*
X190791931Y-174183663D01*
X190940493Y-174543212D01*
X191022040Y-174624901D01*
X190941460Y-174705341D01*
X190792270Y-175064630D01*
X190791931Y-175453663D01*
X190940493Y-175813212D01*
X190946071Y-175818800D01*
X189901794Y-175818800D01*
X189784659Y-175701460D01*
X189425370Y-175552270D01*
X189036337Y-175551931D01*
X188676788Y-175700493D01*
X188401460Y-175975341D01*
X188252270Y-176334630D01*
X188251931Y-176723663D01*
X188400493Y-177083212D01*
X188675341Y-177358540D01*
X189034630Y-177507730D01*
X189423663Y-177508069D01*
X189783212Y-177359507D01*
X189901726Y-177241200D01*
X190945608Y-177241200D01*
X190941460Y-177245341D01*
X190792270Y-177604630D01*
X190791931Y-177993663D01*
X190940493Y-178353212D01*
X191215341Y-178628540D01*
X191574630Y-178777730D01*
X191963663Y-178778069D01*
X192270602Y-178651245D01*
X192268100Y-178663600D01*
X192268100Y-179476400D01*
X192312378Y-179711717D01*
X192312876Y-179712491D01*
X192268100Y-179933600D01*
X192268100Y-180746400D01*
X192296776Y-180898800D01*
X189901794Y-180898800D01*
X189784659Y-180781460D01*
X189425370Y-180632270D01*
X189036337Y-180631931D01*
X188676788Y-180780493D01*
X188401460Y-181055341D01*
X188252270Y-181414630D01*
X188251931Y-181803663D01*
X188400493Y-182163212D01*
X188675341Y-182438540D01*
X189034630Y-182587730D01*
X189423663Y-182588069D01*
X189783212Y-182439507D01*
X189901726Y-182321200D01*
X192298962Y-182321200D01*
X192268100Y-182473600D01*
X192268100Y-183286400D01*
X192312378Y-183521717D01*
X192317093Y-183529044D01*
X192280540Y-183617290D01*
X192280540Y-183864250D01*
X192439290Y-184023000D01*
X193626740Y-184023000D01*
X193626740Y-184003000D01*
X193880740Y-184003000D01*
X193880740Y-184023000D01*
X193900740Y-184023000D01*
X193900740Y-184277000D01*
X193880740Y-184277000D01*
X193880740Y-185032650D01*
X194039490Y-185191400D01*
X194480000Y-185191400D01*
X194480000Y-187607370D01*
X194429683Y-187616838D01*
X194213559Y-187755910D01*
X194068569Y-187968110D01*
X194017560Y-188220000D01*
X194017560Y-188970000D01*
X194028071Y-189025862D01*
X194022840Y-189052160D01*
X194022840Y-189740000D01*
X192995000Y-189740000D01*
X192995000Y-189662334D01*
X193070317Y-189648162D01*
X193286441Y-189509090D01*
X193431431Y-189296890D01*
X193482440Y-189045000D01*
X193482440Y-188145000D01*
X193438162Y-187909683D01*
X193299090Y-187693559D01*
X193086890Y-187548569D01*
X192835000Y-187497560D01*
X191635000Y-187497560D01*
X191399683Y-187541838D01*
X191183559Y-187680910D01*
X191135866Y-187750711D01*
X191099090Y-187693559D01*
X190886890Y-187548569D01*
X190635000Y-187497560D01*
X189462013Y-187497560D01*
X189424507Y-187406788D01*
X189149659Y-187131460D01*
X188790370Y-186982270D01*
X188401337Y-186981931D01*
X188041788Y-187130493D01*
X187766460Y-187405341D01*
X187617270Y-187764630D01*
X187616931Y-188153663D01*
X187765493Y-188513212D01*
X188040341Y-188788540D01*
X188399630Y-188937730D01*
X188567087Y-188937876D01*
X188727106Y-189097895D01*
X188807638Y-189151704D01*
X188831838Y-189280317D01*
X188970910Y-189496441D01*
X189183110Y-189641431D01*
X189200000Y-189644851D01*
X189200000Y-190106120D01*
X189263561Y-190425661D01*
X189360841Y-190571250D01*
X189444566Y-190696554D01*
X190589132Y-191841120D01*
X190518846Y-191911406D01*
X190458327Y-191765302D01*
X190279699Y-191586673D01*
X190046310Y-191490000D01*
X189830750Y-191490000D01*
X189672000Y-191648750D01*
X189672000Y-192598000D01*
X189692000Y-192598000D01*
X189692000Y-192852000D01*
X189672000Y-192852000D01*
X189672000Y-192872000D01*
X189418000Y-192872000D01*
X189418000Y-192852000D01*
X188693750Y-192852000D01*
X188535000Y-193010750D01*
X188535000Y-193451309D01*
X188631673Y-193684698D01*
X188633043Y-193686068D01*
X188573569Y-193773110D01*
X188522560Y-194025000D01*
X188522560Y-195225000D01*
X188566838Y-195460317D01*
X188705910Y-195676441D01*
X188918110Y-195821431D01*
X189170000Y-195872440D01*
X189920000Y-195872440D01*
X190155317Y-195828162D01*
X190371441Y-195689090D01*
X190416926Y-195622520D01*
X190979347Y-195622520D01*
X190941460Y-195660341D01*
X190792270Y-196019630D01*
X190791931Y-196408663D01*
X190940493Y-196768212D01*
X191215341Y-197043540D01*
X191574630Y-197192730D01*
X191963663Y-197193069D01*
X192323212Y-197044507D01*
X192598540Y-196769659D01*
X192747730Y-196410370D01*
X192748069Y-196021337D01*
X192599507Y-195661788D01*
X192560307Y-195622520D01*
X192751939Y-195622520D01*
X192763984Y-195640547D01*
X193015315Y-195808480D01*
X193311780Y-195867451D01*
X193561970Y-195817685D01*
X193812160Y-195867451D01*
X194093041Y-195811580D01*
X194120314Y-195823119D01*
X194165857Y-195770239D01*
X194314009Y-195671248D01*
X194349847Y-195709599D01*
X194431769Y-195744260D01*
X194499686Y-195823119D01*
X194558920Y-195798057D01*
X194582134Y-195807879D01*
X194582975Y-195812107D01*
X194753141Y-196066779D01*
X194821441Y-196135079D01*
X195076114Y-196305245D01*
X195376520Y-196365000D01*
X200660000Y-196365000D01*
X200960406Y-196305245D01*
X201215079Y-196135079D01*
X201385245Y-195880406D01*
X201445000Y-195580000D01*
X201445000Y-194666892D01*
X205568514Y-194666892D01*
X205814817Y-195191358D01*
X206243076Y-195581645D01*
X206653110Y-195751476D01*
X206883000Y-195630155D01*
X206883000Y-194437000D01*
X205689181Y-194437000D01*
X205568514Y-194666892D01*
X201445000Y-194666892D01*
X201445000Y-193953108D01*
X205568514Y-193953108D01*
X205689181Y-194183000D01*
X206883000Y-194183000D01*
X206883000Y-192989845D01*
X206653110Y-192868524D01*
X206243076Y-193038355D01*
X205814817Y-193428642D01*
X205568514Y-193953108D01*
X201445000Y-193953108D01*
X201445000Y-193494935D01*
X201480630Y-193509730D01*
X201869663Y-193510069D01*
X202229212Y-193361507D01*
X202504540Y-193086659D01*
X202653730Y-192727370D01*
X202654069Y-192338337D01*
X202505507Y-191978788D01*
X202230659Y-191703460D01*
X201871370Y-191554270D01*
X201482337Y-191553931D01*
X201445000Y-191569358D01*
X201445000Y-190500000D01*
X201385245Y-190199594D01*
X201215079Y-189944921D01*
X200960406Y-189774755D01*
X200660000Y-189715000D01*
X195592840Y-189715000D01*
X195592840Y-189617440D01*
X195865000Y-189617440D01*
X196100317Y-189573162D01*
X196203646Y-189506671D01*
X196205302Y-189508327D01*
X196438691Y-189605000D01*
X196879250Y-189605000D01*
X197038000Y-189446250D01*
X197038000Y-188722000D01*
X197292000Y-188722000D01*
X197292000Y-189446250D01*
X197450750Y-189605000D01*
X197891309Y-189605000D01*
X198124698Y-189508327D01*
X198303327Y-189329699D01*
X198400000Y-189096310D01*
X198400000Y-188880750D01*
X198241250Y-188722000D01*
X197292000Y-188722000D01*
X197038000Y-188722000D01*
X197018000Y-188722000D01*
X197018000Y-188468000D01*
X197038000Y-188468000D01*
X197038000Y-188448000D01*
X197292000Y-188448000D01*
X197292000Y-188468000D01*
X198241250Y-188468000D01*
X198400000Y-188309250D01*
X198400000Y-188093690D01*
X198303327Y-187860301D01*
X198124698Y-187681673D01*
X197891309Y-187585000D01*
X197610158Y-187585000D01*
X199742757Y-185452401D01*
X200578153Y-185452401D01*
X200878560Y-185392646D01*
X201133232Y-185222480D01*
X201732480Y-184623232D01*
X201902646Y-184368559D01*
X201962401Y-184068153D01*
X201962401Y-183493873D01*
X201991838Y-183650317D01*
X202130910Y-183866441D01*
X202230604Y-183934559D01*
X202222270Y-183954630D01*
X202221931Y-184343663D01*
X202370493Y-184703212D01*
X202645341Y-184978540D01*
X202912385Y-185089427D01*
X202696188Y-185305624D01*
X202602217Y-185305542D01*
X202242668Y-185454104D01*
X201967340Y-185728952D01*
X201818150Y-186088241D01*
X201817811Y-186477274D01*
X201891661Y-186656005D01*
X201753569Y-186858110D01*
X201702560Y-187110000D01*
X201702560Y-188810000D01*
X201746838Y-189045317D01*
X201885910Y-189261441D01*
X202098110Y-189406431D01*
X202165541Y-189420086D01*
X202120853Y-189449946D01*
X201798946Y-189931715D01*
X201685907Y-190500000D01*
X201798946Y-191068285D01*
X202120853Y-191550054D01*
X202602622Y-191871961D01*
X203170907Y-191985000D01*
X203229093Y-191985000D01*
X203797378Y-191871961D01*
X204279147Y-191550054D01*
X204601054Y-191068285D01*
X204714093Y-190500000D01*
X204601054Y-189931715D01*
X204279147Y-189449946D01*
X204237548Y-189422150D01*
X204285317Y-189413162D01*
X204501441Y-189274090D01*
X204646431Y-189061890D01*
X204697440Y-188810000D01*
X204697440Y-187110000D01*
X204653162Y-186874683D01*
X204514090Y-186658559D01*
X204301890Y-186513569D01*
X204050000Y-186462560D01*
X203773624Y-186462560D01*
X203773819Y-186239570D01*
X204145142Y-185868247D01*
X204318110Y-185986431D01*
X204570000Y-186037440D01*
X205120000Y-186037440D01*
X205249589Y-186013056D01*
X205342196Y-186031810D01*
X205318764Y-186088241D01*
X205318425Y-186477274D01*
X205466987Y-186836823D01*
X205741835Y-187112151D01*
X206101124Y-187261341D01*
X206490157Y-187261680D01*
X206849706Y-187113118D01*
X206968220Y-186994811D01*
X207303789Y-186994811D01*
X207575954Y-186940674D01*
X207806683Y-186786505D01*
X207937129Y-186656059D01*
X207936931Y-186883663D01*
X208068001Y-187200878D01*
X208013559Y-187235910D01*
X207868569Y-187448110D01*
X207835885Y-187609510D01*
X207797061Y-187617232D01*
X207451337Y-187616931D01*
X207091788Y-187765493D01*
X206816460Y-188040341D01*
X206667270Y-188399630D01*
X206666931Y-188788663D01*
X206815493Y-189148212D01*
X207090341Y-189423540D01*
X207449630Y-189572730D01*
X207838663Y-189573069D01*
X207951777Y-189526332D01*
X207868569Y-189648110D01*
X207817560Y-189900000D01*
X207817560Y-190538139D01*
X207578337Y-190537931D01*
X207218788Y-190686493D01*
X206943460Y-190961341D01*
X206794270Y-191320630D01*
X206793931Y-191709663D01*
X206942493Y-192069212D01*
X207217341Y-192344540D01*
X207576630Y-192493730D01*
X207965663Y-192494069D01*
X208325212Y-192345507D01*
X208600540Y-192070659D01*
X208671841Y-191898947D01*
X208823348Y-191747440D01*
X209365000Y-191747440D01*
X209600317Y-191703162D01*
X209816441Y-191564090D01*
X209961431Y-191351890D01*
X210012440Y-191100000D01*
X210012440Y-189900000D01*
X209968162Y-189664683D01*
X209829090Y-189448559D01*
X209759289Y-189400866D01*
X209816441Y-189364090D01*
X209961431Y-189151890D01*
X210012440Y-188900000D01*
X210012440Y-187700000D01*
X210006371Y-187667745D01*
X210378663Y-187668069D01*
X210738212Y-187519507D01*
X211013540Y-187244659D01*
X211162730Y-186885370D01*
X211163069Y-186496337D01*
X211014507Y-186136788D01*
X210884444Y-186006498D01*
X210955317Y-185993162D01*
X211112242Y-185892184D01*
X211111931Y-186248663D01*
X211260493Y-186608212D01*
X211535341Y-186883540D01*
X211894630Y-187032730D01*
X212198635Y-187032995D01*
X211958946Y-187391715D01*
X211845907Y-187960000D01*
X211958946Y-188528285D01*
X212280853Y-189010054D01*
X212322452Y-189037850D01*
X212274683Y-189046838D01*
X212058559Y-189185910D01*
X211913569Y-189398110D01*
X211862560Y-189650000D01*
X211862560Y-191350000D01*
X211906838Y-191585317D01*
X212045910Y-191801441D01*
X212258110Y-191946431D01*
X212510000Y-191997440D01*
X214210000Y-191997440D01*
X214445317Y-191953162D01*
X214661441Y-191814090D01*
X214753955Y-191678691D01*
X216795000Y-191678691D01*
X216795000Y-192119250D01*
X216953750Y-192278000D01*
X217678000Y-192278000D01*
X217678000Y-191328750D01*
X217932000Y-191328750D01*
X217932000Y-192278000D01*
X218656250Y-192278000D01*
X218815000Y-192119250D01*
X218815000Y-191678691D01*
X218718327Y-191445302D01*
X218539699Y-191266673D01*
X218306310Y-191170000D01*
X218090750Y-191170000D01*
X217932000Y-191328750D01*
X217678000Y-191328750D01*
X217519250Y-191170000D01*
X217303690Y-191170000D01*
X217070301Y-191266673D01*
X216891673Y-191445302D01*
X216795000Y-191678691D01*
X214753955Y-191678691D01*
X214806431Y-191601890D01*
X214857440Y-191350000D01*
X214857440Y-189650000D01*
X214813162Y-189414683D01*
X214674090Y-189198559D01*
X214461890Y-189053569D01*
X214394459Y-189039914D01*
X214439147Y-189010054D01*
X214761054Y-188528285D01*
X214874093Y-187960000D01*
X214761054Y-187391715D01*
X214439147Y-186909946D01*
X214057592Y-186655000D01*
X214122002Y-186655000D01*
X214122002Y-186496252D01*
X214280750Y-186655000D01*
X214496310Y-186655000D01*
X214729699Y-186558327D01*
X214908327Y-186379698D01*
X215005000Y-186146309D01*
X215005000Y-185705750D01*
X214846252Y-185547002D01*
X214868733Y-185547002D01*
X214991370Y-185597800D01*
X215731090Y-185597800D01*
X215889840Y-185439050D01*
X215889840Y-184691020D01*
X216143840Y-184691020D01*
X216143840Y-185439050D01*
X216302590Y-185597800D01*
X217042310Y-185597800D01*
X217275699Y-185501127D01*
X217454327Y-185322498D01*
X217551000Y-185089109D01*
X217551000Y-184849770D01*
X217392250Y-184691020D01*
X216143840Y-184691020D01*
X215889840Y-184691020D01*
X215869840Y-184691020D01*
X215869840Y-184510420D01*
X216916000Y-184510420D01*
X217151317Y-184466142D01*
X217196574Y-184437020D01*
X217392250Y-184437020D01*
X217551000Y-184278270D01*
X217551000Y-184249200D01*
X217804042Y-184249200D01*
X220417402Y-186862560D01*
X220040000Y-186862560D01*
X219804683Y-186906838D01*
X219588559Y-187045910D01*
X219540866Y-187115711D01*
X219504090Y-187058559D01*
X219291890Y-186913569D01*
X219040000Y-186862560D01*
X217840000Y-186862560D01*
X217604683Y-186906838D01*
X217388559Y-187045910D01*
X217243569Y-187258110D01*
X217192560Y-187510000D01*
X217192560Y-188410000D01*
X217236838Y-188645317D01*
X217375910Y-188861441D01*
X217588110Y-189006431D01*
X217655000Y-189019977D01*
X217655000Y-189865000D01*
X217714755Y-190165407D01*
X217884921Y-190420079D01*
X219586721Y-192121879D01*
X219841394Y-192292045D01*
X220141800Y-192351801D01*
X220141805Y-192351800D01*
X220468517Y-192351800D01*
X220373661Y-192575994D01*
X220512803Y-192695830D01*
X220658932Y-192695830D01*
X220487181Y-192856327D01*
X220486336Y-192858325D01*
X220373661Y-192955366D01*
X220409469Y-193040000D01*
X220373661Y-193124634D01*
X220486336Y-193221675D01*
X220487181Y-193223673D01*
X220653793Y-193379367D01*
X220540370Y-193332270D01*
X220151337Y-193331931D01*
X219791788Y-193480493D01*
X219516460Y-193755341D01*
X219367270Y-194114630D01*
X219366931Y-194503663D01*
X219436111Y-194671092D01*
X219270370Y-194602270D01*
X218881337Y-194601931D01*
X218827440Y-194624201D01*
X218827440Y-193705000D01*
X218783162Y-193469683D01*
X218716671Y-193366354D01*
X218718327Y-193364698D01*
X218815000Y-193131309D01*
X218815000Y-192690750D01*
X218656250Y-192532000D01*
X217932000Y-192532000D01*
X217932000Y-192552000D01*
X217678000Y-192552000D01*
X217678000Y-192532000D01*
X216953750Y-192532000D01*
X216795000Y-192690750D01*
X216795000Y-193131309D01*
X216891673Y-193364698D01*
X216893043Y-193366068D01*
X216833569Y-193453110D01*
X216825940Y-193490782D01*
X216685000Y-193349842D01*
X216685000Y-193040000D01*
X216625245Y-192739594D01*
X216455079Y-192484921D01*
X216200406Y-192314755D01*
X215900000Y-192255000D01*
X211455000Y-192255000D01*
X211154594Y-192314755D01*
X210899921Y-192484921D01*
X210729755Y-192739594D01*
X210698729Y-192895572D01*
X210651890Y-192863569D01*
X210400000Y-192812560D01*
X208700000Y-192812560D01*
X208464683Y-192856838D01*
X208248559Y-192995910D01*
X208103569Y-193208110D01*
X208081699Y-193316107D01*
X207776924Y-193038355D01*
X207366890Y-192868524D01*
X207137000Y-192989845D01*
X207137000Y-194183000D01*
X207157000Y-194183000D01*
X207157000Y-194437000D01*
X207137000Y-194437000D01*
X207137000Y-195630155D01*
X207366890Y-195751476D01*
X207776924Y-195581645D01*
X208079937Y-195305499D01*
X208096838Y-195395317D01*
X208235910Y-195611441D01*
X208448110Y-195756431D01*
X208663452Y-195800039D01*
X208572270Y-196019630D01*
X208571931Y-196408663D01*
X208720493Y-196768212D01*
X208995341Y-197043540D01*
X209354630Y-197192730D01*
X209743663Y-197193069D01*
X210103212Y-197044507D01*
X210378540Y-196769659D01*
X210527730Y-196410370D01*
X210528069Y-196021337D01*
X210436826Y-195800511D01*
X210635317Y-195763162D01*
X210851441Y-195624090D01*
X210996431Y-195411890D01*
X211047440Y-195160000D01*
X211047440Y-195003819D01*
X211255079Y-194865079D01*
X211466710Y-194653448D01*
X211392226Y-194764921D01*
X211230097Y-195580000D01*
X211392226Y-196395079D01*
X211853931Y-197086069D01*
X212338728Y-197410000D01*
X179189102Y-197410000D01*
X179250079Y-197397871D01*
X179941069Y-196936166D01*
X180402774Y-196245176D01*
X180564903Y-195430097D01*
X180402774Y-194615018D01*
X179941069Y-193924028D01*
X179250079Y-193462323D01*
X178435000Y-193300194D01*
X177619921Y-193462323D01*
X176928931Y-193924028D01*
X176467226Y-194615018D01*
X176305097Y-195430097D01*
X176467226Y-196245176D01*
X176928931Y-196936166D01*
X177619921Y-197397871D01*
X177680898Y-197410000D01*
X172795000Y-197410000D01*
X172795000Y-191998691D01*
X188535000Y-191998691D01*
X188535000Y-192439250D01*
X188693750Y-192598000D01*
X189418000Y-192598000D01*
X189418000Y-191648750D01*
X189259250Y-191490000D01*
X189043690Y-191490000D01*
X188810301Y-191586673D01*
X188631673Y-191765302D01*
X188535000Y-191998691D01*
X172795000Y-191998691D01*
X172795000Y-187095000D01*
X173747560Y-187095000D01*
X173747560Y-190095000D01*
X173791838Y-190330317D01*
X173930910Y-190546441D01*
X174143110Y-190691431D01*
X174395000Y-190742440D01*
X177395000Y-190742440D01*
X177630317Y-190698162D01*
X177846441Y-190559090D01*
X177991431Y-190346890D01*
X178042440Y-190095000D01*
X178042440Y-188880750D01*
X178205000Y-188880750D01*
X178205000Y-190221310D01*
X178301673Y-190454699D01*
X178480302Y-190633327D01*
X178713691Y-190730000D01*
X180054250Y-190730000D01*
X180213000Y-190571250D01*
X180213000Y-188722000D01*
X180467000Y-188722000D01*
X180467000Y-190571250D01*
X180625750Y-190730000D01*
X181966309Y-190730000D01*
X182199698Y-190633327D01*
X182378327Y-190454699D01*
X182475000Y-190221310D01*
X182475000Y-188880750D01*
X182316250Y-188722000D01*
X180467000Y-188722000D01*
X180213000Y-188722000D01*
X178363750Y-188722000D01*
X178205000Y-188880750D01*
X178042440Y-188880750D01*
X178042440Y-187095000D01*
X178018674Y-186968690D01*
X178205000Y-186968690D01*
X178205000Y-188309250D01*
X178363750Y-188468000D01*
X180213000Y-188468000D01*
X180213000Y-186618750D01*
X180467000Y-186618750D01*
X180467000Y-188468000D01*
X182316250Y-188468000D01*
X182475000Y-188309250D01*
X182475000Y-186968690D01*
X182378327Y-186735301D01*
X182199698Y-186556673D01*
X181966309Y-186460000D01*
X180625750Y-186460000D01*
X180467000Y-186618750D01*
X180213000Y-186618750D01*
X180054250Y-186460000D01*
X178713691Y-186460000D01*
X178480302Y-186556673D01*
X178301673Y-186735301D01*
X178205000Y-186968690D01*
X178018674Y-186968690D01*
X177998162Y-186859683D01*
X177859090Y-186643559D01*
X177646890Y-186498569D01*
X177395000Y-186447560D01*
X176680000Y-186447560D01*
X176680000Y-185203840D01*
X177449480Y-185203840D01*
X177684797Y-185159562D01*
X177900921Y-185020490D01*
X178045911Y-184808290D01*
X178096920Y-184556400D01*
X178096920Y-184435750D01*
X192280540Y-184435750D01*
X192280540Y-184682710D01*
X192377213Y-184916099D01*
X192555842Y-185094727D01*
X192789231Y-185191400D01*
X193467990Y-185191400D01*
X193626740Y-185032650D01*
X193626740Y-184277000D01*
X192439290Y-184277000D01*
X192280540Y-184435750D01*
X178096920Y-184435750D01*
X178096920Y-183743600D01*
X178060409Y-183549562D01*
X178084480Y-183491450D01*
X178084480Y-183244490D01*
X177925730Y-183085740D01*
X176738280Y-183085740D01*
X176738280Y-183096160D01*
X176484280Y-183096160D01*
X176484280Y-183085740D01*
X175296830Y-183085740D01*
X175138080Y-183244490D01*
X175138080Y-183491450D01*
X175164020Y-183554074D01*
X175125640Y-183743600D01*
X175125640Y-184556400D01*
X175148001Y-184675238D01*
X175142149Y-184704659D01*
X175110000Y-184866280D01*
X175110000Y-186447560D01*
X174395000Y-186447560D01*
X174159683Y-186491838D01*
X173943559Y-186630910D01*
X173798569Y-186843110D01*
X173747560Y-187095000D01*
X172795000Y-187095000D01*
X172795000Y-181094098D01*
X172795719Y-181097713D01*
X173224929Y-181740071D01*
X173867287Y-182169281D01*
X174625000Y-182320000D01*
X175232012Y-182199257D01*
X175138080Y-182426030D01*
X175138080Y-182672990D01*
X175296830Y-182831740D01*
X176484280Y-182831740D01*
X176484280Y-182076090D01*
X176738280Y-182076090D01*
X176738280Y-182831740D01*
X177925730Y-182831740D01*
X178084480Y-182672990D01*
X178084480Y-182426030D01*
X177987807Y-182192641D01*
X177809178Y-182014013D01*
X177575789Y-181917340D01*
X176897030Y-181917340D01*
X176738280Y-182076090D01*
X176484280Y-182076090D01*
X176325530Y-181917340D01*
X175759769Y-181917340D01*
X176025071Y-181740071D01*
X176454281Y-181097713D01*
X176605000Y-180340000D01*
X176454281Y-179582287D01*
X176025071Y-178939929D01*
X175382713Y-178510719D01*
X174625000Y-178360000D01*
X173867287Y-178510719D01*
X173224929Y-178939929D01*
X172795719Y-179582287D01*
X172795000Y-179585902D01*
X172795000Y-169647290D01*
X192280540Y-169647290D01*
X192280540Y-169894250D01*
X192439290Y-170053000D01*
X193626740Y-170053000D01*
X193626740Y-169297350D01*
X193880740Y-169297350D01*
X193880740Y-170053000D01*
X195068190Y-170053000D01*
X195226940Y-169894250D01*
X195226940Y-169647290D01*
X195130267Y-169413901D01*
X194951638Y-169235273D01*
X194718249Y-169138600D01*
X194039490Y-169138600D01*
X193880740Y-169297350D01*
X193626740Y-169297350D01*
X193467990Y-169138600D01*
X192789231Y-169138600D01*
X192555842Y-169235273D01*
X192377213Y-169413901D01*
X192280540Y-169647290D01*
X172795000Y-169647290D01*
X172795000Y-165175000D01*
X177680902Y-165175000D01*
X177677287Y-165175719D01*
X177677287Y-165175719D01*
G37*
X177677287Y-165175719D02*
X177034929Y-165604929D01*
X176605719Y-166247287D01*
X176455000Y-167005000D01*
X176605719Y-167762713D01*
X177034929Y-168405071D01*
X177677287Y-168834281D01*
X178435000Y-168985000D01*
X179192713Y-168834281D01*
X179835071Y-168405071D01*
X180264281Y-167762713D01*
X180415000Y-167005000D01*
X180264281Y-166247287D01*
X179835071Y-165604929D01*
X179192713Y-165175719D01*
X179189098Y-165175000D01*
X212605902Y-165175000D01*
X212602287Y-165175719D01*
X211959929Y-165604929D01*
X211530719Y-166247287D01*
X211380000Y-167005000D01*
X211530719Y-167762713D01*
X211959929Y-168405071D01*
X212602287Y-168834281D01*
X213360000Y-168985000D01*
X214117713Y-168834281D01*
X214760071Y-168405071D01*
X215189281Y-167762713D01*
X215340000Y-167005000D01*
X215189281Y-166247287D01*
X214760071Y-165604929D01*
X214117713Y-165175719D01*
X214114098Y-165175000D01*
X220841939Y-165175000D01*
X220788569Y-165253110D01*
X220737560Y-165505000D01*
X220737560Y-168505000D01*
X220781838Y-168740317D01*
X220920910Y-168956441D01*
X221133110Y-169101431D01*
X221385000Y-169152440D01*
X222173800Y-169152440D01*
X222173800Y-171450000D01*
X222227937Y-171722165D01*
X222382106Y-171952894D01*
X222598006Y-172168795D01*
X222828736Y-172322963D01*
X223100900Y-172377100D01*
X226479100Y-172377100D01*
X226479100Y-172479970D01*
X226637850Y-172638720D01*
X226829440Y-172638720D01*
X226862210Y-172661111D01*
X227114100Y-172712120D01*
X228912420Y-172712120D01*
X229147737Y-172667842D01*
X229192994Y-172638720D01*
X229388670Y-172638720D01*
X229544070Y-172483320D01*
X229653750Y-172593000D01*
X230378000Y-172593000D01*
X230378000Y-171643750D01*
X230632000Y-171643750D01*
X230632000Y-172593000D01*
X231356250Y-172593000D01*
X231515000Y-172434250D01*
X231515000Y-171993691D01*
X231418327Y-171760302D01*
X231239699Y-171581673D01*
X231006310Y-171485000D01*
X230790750Y-171485000D01*
X230632000Y-171643750D01*
X230378000Y-171643750D01*
X230219250Y-171485000D01*
X230003690Y-171485000D01*
X229770301Y-171581673D01*
X229591673Y-171760302D01*
X229559860Y-171837105D01*
X229559860Y-171267120D01*
X229533208Y-171125479D01*
X229547420Y-171091169D01*
X229547420Y-170851830D01*
X229388670Y-170693080D01*
X229197080Y-170693080D01*
X229164310Y-170670689D01*
X228912420Y-170619680D01*
X227114100Y-170619680D01*
X226878783Y-170663958D01*
X226833526Y-170693080D01*
X226637850Y-170693080D01*
X226479100Y-170851830D01*
X226479100Y-170954700D01*
X223596200Y-170954700D01*
X223596200Y-170040991D01*
X226479100Y-170040991D01*
X226479100Y-170280330D01*
X226637850Y-170439080D01*
X227886260Y-170439080D01*
X227886260Y-169691050D01*
X228140260Y-169691050D01*
X228140260Y-170439080D01*
X229388670Y-170439080D01*
X229547420Y-170280330D01*
X229547420Y-170040991D01*
X229450747Y-169807602D01*
X229272119Y-169628973D01*
X229038730Y-169532300D01*
X228299010Y-169532300D01*
X228140260Y-169691050D01*
X227886260Y-169691050D01*
X227727510Y-169532300D01*
X226987790Y-169532300D01*
X226754401Y-169628973D01*
X226575773Y-169807602D01*
X226479100Y-170040991D01*
X223596200Y-170040991D01*
X223596200Y-169152440D01*
X224385000Y-169152440D01*
X224620317Y-169108162D01*
X224836441Y-168969090D01*
X224981431Y-168756890D01*
X225032440Y-168505000D01*
X225032440Y-167290750D01*
X225195000Y-167290750D01*
X225195000Y-168631309D01*
X225291673Y-168864698D01*
X225470301Y-169043327D01*
X225703690Y-169140000D01*
X227044250Y-169140000D01*
X227203000Y-168981250D01*
X227203000Y-167132000D01*
X227457000Y-167132000D01*
X227457000Y-168981250D01*
X227615750Y-169140000D01*
X228956310Y-169140000D01*
X229189699Y-169043327D01*
X229368327Y-168864698D01*
X229465000Y-168631309D01*
X229465000Y-167290750D01*
X229306250Y-167132000D01*
X227457000Y-167132000D01*
X227203000Y-167132000D01*
X225353750Y-167132000D01*
X225195000Y-167290750D01*
X225032440Y-167290750D01*
X225032440Y-165505000D01*
X224988162Y-165269683D01*
X224927235Y-165175000D01*
X225279372Y-165175000D01*
X225195000Y-165378691D01*
X225195000Y-166719250D01*
X225353750Y-166878000D01*
X227203000Y-166878000D01*
X227203000Y-166858000D01*
X227457000Y-166858000D01*
X227457000Y-166878000D01*
X229306250Y-166878000D01*
X229465000Y-166719250D01*
X229465000Y-165378691D01*
X229380628Y-165175000D01*
X231700000Y-165175000D01*
X231700000Y-197410000D01*
X214381272Y-197410000D01*
X214866069Y-197086069D01*
X215327774Y-196395079D01*
X215489903Y-195580000D01*
X215327774Y-194764921D01*
X214866069Y-194073931D01*
X214493518Y-193825000D01*
X215144837Y-193825000D01*
X215174755Y-193975407D01*
X215344921Y-194230079D01*
X215979921Y-194865079D01*
X216234593Y-195035245D01*
X216284435Y-195045159D01*
X216535000Y-195095001D01*
X216560141Y-195090000D01*
X216817370Y-195090000D01*
X216826838Y-195140317D01*
X216965910Y-195356441D01*
X217020000Y-195393399D01*
X217020000Y-196215000D01*
X217079755Y-196515406D01*
X217249921Y-196770079D01*
X217504594Y-196940245D01*
X217805000Y-197000000D01*
X222885000Y-197000000D01*
X223185406Y-196940245D01*
X223440079Y-196770079D01*
X223504102Y-196674260D01*
X223599921Y-196770079D01*
X223854593Y-196940245D01*
X224155000Y-197000000D01*
X227965000Y-197000000D01*
X228265406Y-196940245D01*
X228520079Y-196770079D01*
X228690245Y-196515406D01*
X228750000Y-196215000D01*
X228750000Y-190500000D01*
X228690245Y-190199594D01*
X228520079Y-189944921D01*
X228265406Y-189774755D01*
X227965000Y-189715000D01*
X224167840Y-189715000D01*
X224167840Y-188974379D01*
X224360317Y-188938162D01*
X224463646Y-188871671D01*
X224465302Y-188873327D01*
X224698691Y-188970000D01*
X225139250Y-188970000D01*
X225298000Y-188811250D01*
X225298000Y-188087000D01*
X225552000Y-188087000D01*
X225552000Y-188811250D01*
X225710750Y-188970000D01*
X226151309Y-188970000D01*
X226384698Y-188873327D01*
X226563327Y-188694699D01*
X226660000Y-188461310D01*
X226660000Y-188245750D01*
X226501250Y-188087000D01*
X225552000Y-188087000D01*
X225298000Y-188087000D01*
X225278000Y-188087000D01*
X225278000Y-187833000D01*
X225298000Y-187833000D01*
X225298000Y-187813000D01*
X225552000Y-187813000D01*
X225552000Y-187833000D01*
X226501250Y-187833000D01*
X226660000Y-187674250D01*
X226660000Y-187458690D01*
X226563327Y-187225301D01*
X226384698Y-187046673D01*
X226151309Y-186950000D01*
X225710750Y-186950000D01*
X225552002Y-187108748D01*
X225552002Y-187043156D01*
X225980079Y-186615079D01*
X226150245Y-186360406D01*
X226210000Y-186060000D01*
X226210000Y-182570158D01*
X226466660Y-182313498D01*
X226466660Y-182763160D01*
X226496141Y-182919838D01*
X226466660Y-183065420D01*
X226466660Y-183862980D01*
X226496141Y-184019658D01*
X226466660Y-184165240D01*
X226466660Y-184962800D01*
X226510938Y-185198117D01*
X226650010Y-185414241D01*
X226862210Y-185559231D01*
X227114100Y-185610240D01*
X228912420Y-185610240D01*
X229147737Y-185565962D01*
X229363861Y-185426890D01*
X229508851Y-185214690D01*
X229559860Y-184962800D01*
X229559860Y-184165240D01*
X229530379Y-184008562D01*
X229559860Y-183862980D01*
X229559860Y-183065420D01*
X229530379Y-182908742D01*
X229559860Y-182763160D01*
X229559860Y-181965600D01*
X229530379Y-181808922D01*
X229559860Y-181663340D01*
X229559860Y-180865780D01*
X229530379Y-180709102D01*
X229559860Y-180563520D01*
X229559860Y-179765960D01*
X229530379Y-179609282D01*
X229559860Y-179463700D01*
X229559860Y-178666140D01*
X229530131Y-178508145D01*
X229559860Y-178361340D01*
X229559860Y-177563780D01*
X229515582Y-177328463D01*
X229376510Y-177112339D01*
X229164310Y-176967349D01*
X228912420Y-176916340D01*
X227114100Y-176916340D01*
X226878783Y-176960618D01*
X226662659Y-177099690D01*
X226577264Y-177224670D01*
X226513694Y-177237315D01*
X226338927Y-177354090D01*
X226259021Y-177407481D01*
X225504921Y-178161581D01*
X225334755Y-178416253D01*
X225295574Y-178613230D01*
X225275000Y-178716660D01*
X225275000Y-181284842D01*
X224869921Y-181689921D01*
X224699755Y-181944593D01*
X224670391Y-182092215D01*
X224640000Y-182245000D01*
X224640000Y-185734842D01*
X224310000Y-186064842D01*
X224310000Y-174650540D01*
X226466660Y-174650540D01*
X226466660Y-175364140D01*
X226510938Y-175599457D01*
X226650010Y-175815581D01*
X226862210Y-175960571D01*
X227114100Y-176011580D01*
X228912420Y-176011580D01*
X229147737Y-175967302D01*
X229363861Y-175828230D01*
X229508851Y-175616030D01*
X229537911Y-175472526D01*
X229665910Y-175671441D01*
X229878110Y-175816431D01*
X230130000Y-175867440D01*
X230880000Y-175867440D01*
X231115317Y-175823162D01*
X231331441Y-175684090D01*
X231476431Y-175471890D01*
X231527440Y-175220000D01*
X231527440Y-174020000D01*
X231483162Y-173784683D01*
X231416671Y-173681354D01*
X231418327Y-173679698D01*
X231515000Y-173446309D01*
X231515000Y-173005750D01*
X231356250Y-172847000D01*
X230632000Y-172847000D01*
X230632000Y-172867000D01*
X230378000Y-172867000D01*
X230378000Y-172847000D01*
X229653750Y-172847000D01*
X229498350Y-173002400D01*
X229388670Y-172892720D01*
X229197080Y-172892720D01*
X229164310Y-172870329D01*
X228912420Y-172819320D01*
X227114100Y-172819320D01*
X226878783Y-172863598D01*
X226833526Y-172892720D01*
X226637850Y-172892720D01*
X226479100Y-173051470D01*
X226479100Y-173080540D01*
X223654460Y-173080540D01*
X223354053Y-173140295D01*
X223099381Y-173310461D01*
X222969921Y-173439921D01*
X222799755Y-173694593D01*
X222775415Y-173816958D01*
X222740000Y-173995000D01*
X222740000Y-186964842D01*
X218997997Y-183222839D01*
X219268663Y-183223075D01*
X219628212Y-183074513D01*
X219903540Y-182799665D01*
X220052730Y-182440376D01*
X220053069Y-182051343D01*
X219904507Y-181691794D01*
X219739799Y-181526798D01*
X219732063Y-181487909D01*
X219713415Y-181460000D01*
X219577895Y-181257179D01*
X219371916Y-181051200D01*
X219673206Y-181051200D01*
X219790341Y-181168540D01*
X220149630Y-181317730D01*
X220538663Y-181318069D01*
X220898212Y-181169507D01*
X221173540Y-180894659D01*
X221322730Y-180535370D01*
X221323069Y-180146337D01*
X221174507Y-179786788D01*
X220899659Y-179511460D01*
X220540370Y-179362270D01*
X220151337Y-179361931D01*
X219791788Y-179510493D01*
X219673274Y-179628800D01*
X219369589Y-179628800D01*
X218782925Y-179042136D01*
X218783069Y-178876337D01*
X218634507Y-178516788D01*
X218359659Y-178241460D01*
X218000370Y-178092270D01*
X217611337Y-178091931D01*
X217563440Y-178111722D01*
X217563440Y-177563780D01*
X217519162Y-177328463D01*
X217380090Y-177112339D01*
X217167890Y-176967349D01*
X216916000Y-176916340D01*
X215117680Y-176916340D01*
X214882363Y-176960618D01*
X214666239Y-177099690D01*
X214521249Y-177311890D01*
X214470240Y-177563780D01*
X214470240Y-178361340D01*
X214499969Y-178519335D01*
X214470240Y-178666140D01*
X214470240Y-178769451D01*
X214382440Y-178681652D01*
X214382440Y-177840000D01*
X214338162Y-177604683D01*
X214199090Y-177388559D01*
X213986890Y-177243569D01*
X213735000Y-177192560D01*
X213328809Y-177192560D01*
X213298162Y-177029683D01*
X213159090Y-176813559D01*
X212946890Y-176668569D01*
X212695000Y-176617560D01*
X211367440Y-176617560D01*
X211367440Y-175290000D01*
X211323162Y-175054683D01*
X211184090Y-174838559D01*
X210971890Y-174693569D01*
X210720000Y-174642560D01*
X210356200Y-174642560D01*
X210356200Y-173563440D01*
X210658000Y-173563440D01*
X210893317Y-173519162D01*
X211109441Y-173380090D01*
X211254431Y-173167890D01*
X211305440Y-172916000D01*
X211305440Y-172016000D01*
X211261162Y-171780683D01*
X211122090Y-171564559D01*
X210952798Y-171448887D01*
X211109441Y-171348090D01*
X211164765Y-171267120D01*
X214470240Y-171267120D01*
X214470240Y-172064680D01*
X214499721Y-172221358D01*
X214470240Y-172366940D01*
X214470240Y-173164500D01*
X214499721Y-173321178D01*
X214470240Y-173466760D01*
X214470240Y-174264320D01*
X214499721Y-174420998D01*
X214470240Y-174566580D01*
X214470240Y-175364140D01*
X214514518Y-175599457D01*
X214653590Y-175815581D01*
X214865790Y-175960571D01*
X215117680Y-176011580D01*
X216916000Y-176011580D01*
X217151317Y-175967302D01*
X217367441Y-175828230D01*
X217512431Y-175616030D01*
X217563440Y-175364140D01*
X217563440Y-174566580D01*
X217533959Y-174409902D01*
X217563440Y-174264320D01*
X217563440Y-173466760D01*
X217533959Y-173310082D01*
X217563440Y-173164500D01*
X217563440Y-172366940D01*
X217533959Y-172210262D01*
X217563440Y-172064680D01*
X217563440Y-171267120D01*
X217536788Y-171125479D01*
X217551000Y-171091169D01*
X217551000Y-170851830D01*
X217392250Y-170693080D01*
X217200660Y-170693080D01*
X217167890Y-170670689D01*
X216916000Y-170619680D01*
X215117680Y-170619680D01*
X214882363Y-170663958D01*
X214837106Y-170693080D01*
X214641430Y-170693080D01*
X214482680Y-170851830D01*
X214482680Y-171091169D01*
X214498256Y-171128773D01*
X214470240Y-171267120D01*
X211164765Y-171267120D01*
X211254431Y-171135890D01*
X211305440Y-170884000D01*
X211305440Y-170040991D01*
X214482680Y-170040991D01*
X214482680Y-170280330D01*
X214641430Y-170439080D01*
X215889840Y-170439080D01*
X215889840Y-169691050D01*
X216143840Y-169691050D01*
X216143840Y-170439080D01*
X217392250Y-170439080D01*
X217551000Y-170280330D01*
X217551000Y-170040991D01*
X217454327Y-169807602D01*
X217275699Y-169628973D01*
X217042310Y-169532300D01*
X216302590Y-169532300D01*
X216143840Y-169691050D01*
X215889840Y-169691050D01*
X215731090Y-169532300D01*
X214991370Y-169532300D01*
X214757981Y-169628973D01*
X214579353Y-169807602D01*
X214482680Y-170040991D01*
X211305440Y-170040991D01*
X211305440Y-169984000D01*
X211261162Y-169748683D01*
X211122090Y-169532559D01*
X210909890Y-169387569D01*
X210658000Y-169336560D01*
X209458000Y-169336560D01*
X209222683Y-169380838D01*
X209006559Y-169519910D01*
X208960031Y-169588006D01*
X208817698Y-169445673D01*
X208584309Y-169349000D01*
X208143750Y-169349000D01*
X207985000Y-169507750D01*
X207985000Y-170307000D01*
X208005000Y-170307000D01*
X208005000Y-170561000D01*
X207985000Y-170561000D01*
X207985000Y-170581000D01*
X207731000Y-170581000D01*
X207731000Y-170561000D01*
X206781750Y-170561000D01*
X206623000Y-170719750D01*
X206623000Y-171010310D01*
X206719673Y-171243699D01*
X206898302Y-171422327D01*
X206965002Y-171449955D01*
X206806559Y-171551910D01*
X206661569Y-171764110D01*
X206627829Y-171930723D01*
X206445565Y-171808937D01*
X206173400Y-171754800D01*
X206164507Y-171754800D01*
X206042090Y-171564559D01*
X205872798Y-171448887D01*
X206029441Y-171348090D01*
X206174431Y-171135890D01*
X206225440Y-170884000D01*
X206225440Y-169984000D01*
X206201674Y-169857690D01*
X206623000Y-169857690D01*
X206623000Y-170148250D01*
X206781750Y-170307000D01*
X207731000Y-170307000D01*
X207731000Y-169507750D01*
X207572250Y-169349000D01*
X207131691Y-169349000D01*
X206898302Y-169445673D01*
X206719673Y-169624301D01*
X206623000Y-169857690D01*
X206201674Y-169857690D01*
X206181162Y-169748683D01*
X206042090Y-169532559D01*
X205829890Y-169387569D01*
X205578000Y-169336560D01*
X204378000Y-169336560D01*
X204142683Y-169380838D01*
X203926559Y-169519910D01*
X203880031Y-169588006D01*
X203737698Y-169445673D01*
X203504309Y-169349000D01*
X203063750Y-169349000D01*
X202905000Y-169507750D01*
X202905000Y-170307000D01*
X202925000Y-170307000D01*
X202925000Y-170561000D01*
X202905000Y-170561000D01*
X202905000Y-170581000D01*
X202651000Y-170581000D01*
X202651000Y-170561000D01*
X201701750Y-170561000D01*
X201543000Y-170719750D01*
X201543000Y-171010310D01*
X201639673Y-171243699D01*
X201818302Y-171422327D01*
X201885002Y-171449955D01*
X201726559Y-171551910D01*
X201581569Y-171764110D01*
X201530560Y-172016000D01*
X201530560Y-172916000D01*
X201574838Y-173151317D01*
X201713910Y-173367441D01*
X201926110Y-173512431D01*
X202178000Y-173563440D01*
X203378000Y-173563440D01*
X203613317Y-173519162D01*
X203829441Y-173380090D01*
X203877134Y-173310289D01*
X203913910Y-173367441D01*
X204126110Y-173512431D01*
X204378000Y-173563440D01*
X205578000Y-173563440D01*
X205813317Y-173519162D01*
X206029441Y-173380090D01*
X206050655Y-173349043D01*
X206609085Y-173907473D01*
X206469419Y-173965181D01*
X206194091Y-174240029D01*
X206044901Y-174599318D01*
X206044843Y-174666110D01*
X206040411Y-174666944D01*
X205993080Y-174657359D01*
X205457827Y-174122106D01*
X205227098Y-173967937D01*
X204954933Y-173913800D01*
X204470000Y-173913800D01*
X204197836Y-173967937D01*
X203967106Y-174122105D01*
X203807136Y-174282075D01*
X203641337Y-174281931D01*
X203281788Y-174430493D01*
X203006460Y-174705341D01*
X202857270Y-175064630D01*
X202857148Y-175204489D01*
X202821306Y-175168646D01*
X202821450Y-175002847D01*
X202672888Y-174643298D01*
X202398040Y-174367970D01*
X202038751Y-174218780D01*
X201649718Y-174218441D01*
X201290169Y-174367003D01*
X201014841Y-174641851D01*
X200890518Y-174941254D01*
X200553563Y-175080480D01*
X200278235Y-175355328D01*
X200129045Y-175714617D01*
X200128706Y-176103650D01*
X200277268Y-176463199D01*
X200552116Y-176738527D01*
X200911405Y-176887717D01*
X201078863Y-176887863D01*
X201746000Y-177555000D01*
X201390000Y-177555000D01*
X201237978Y-177585239D01*
X201104147Y-177384946D01*
X200622378Y-177063039D01*
X200054093Y-176950000D01*
X199995907Y-176950000D01*
X199620468Y-177024679D01*
X196926200Y-174330412D01*
X196926200Y-170851794D01*
X197043540Y-170734659D01*
X197192730Y-170375370D01*
X197193069Y-169986337D01*
X197139914Y-169857690D01*
X201543000Y-169857690D01*
X201543000Y-170148250D01*
X201701750Y-170307000D01*
X202651000Y-170307000D01*
X202651000Y-169507750D01*
X202492250Y-169349000D01*
X202051691Y-169349000D01*
X201818302Y-169445673D01*
X201639673Y-169624301D01*
X201543000Y-169857690D01*
X197139914Y-169857690D01*
X197044507Y-169626788D01*
X196769659Y-169351460D01*
X196410370Y-169202270D01*
X196021337Y-169201931D01*
X195661788Y-169350493D01*
X195386460Y-169625341D01*
X195237270Y-169984630D01*
X195236931Y-170373663D01*
X195385493Y-170733212D01*
X195503800Y-170851726D01*
X195503800Y-172440000D01*
X195452998Y-172440000D01*
X195452998Y-172598748D01*
X195294250Y-172440000D01*
X195239380Y-172440000D01*
X195239380Y-172313600D01*
X195195102Y-172078283D01*
X195194604Y-172077509D01*
X195239380Y-171856400D01*
X195239380Y-171043600D01*
X195195102Y-170808283D01*
X195190387Y-170800956D01*
X195226940Y-170712710D01*
X195226940Y-170465750D01*
X195068190Y-170307000D01*
X193880740Y-170307000D01*
X193880740Y-170327000D01*
X193626740Y-170327000D01*
X193626740Y-170307000D01*
X192439290Y-170307000D01*
X192280540Y-170465750D01*
X192280540Y-170603140D01*
X191965370Y-170472270D01*
X191576337Y-170471931D01*
X191216788Y-170620493D01*
X190941460Y-170895341D01*
X190792270Y-171254630D01*
X190791931Y-171643663D01*
X190940493Y-172003212D01*
X191215341Y-172278540D01*
X191574630Y-172427730D01*
X191963663Y-172428069D01*
X192270602Y-172301245D01*
X192268100Y-172313600D01*
X192268100Y-173126400D01*
X192270463Y-173138956D01*
X191965370Y-173012270D01*
X191576337Y-173011931D01*
X191216788Y-173160493D01*
X190941460Y-173435341D01*
X190792270Y-173794630D01*
X190791931Y-174183663D01*
X190940493Y-174543212D01*
X191022040Y-174624901D01*
X190941460Y-174705341D01*
X190792270Y-175064630D01*
X190791931Y-175453663D01*
X190940493Y-175813212D01*
X190946071Y-175818800D01*
X189901794Y-175818800D01*
X189784659Y-175701460D01*
X189425370Y-175552270D01*
X189036337Y-175551931D01*
X188676788Y-175700493D01*
X188401460Y-175975341D01*
X188252270Y-176334630D01*
X188251931Y-176723663D01*
X188400493Y-177083212D01*
X188675341Y-177358540D01*
X189034630Y-177507730D01*
X189423663Y-177508069D01*
X189783212Y-177359507D01*
X189901726Y-177241200D01*
X190945608Y-177241200D01*
X190941460Y-177245341D01*
X190792270Y-177604630D01*
X190791931Y-177993663D01*
X190940493Y-178353212D01*
X191215341Y-178628540D01*
X191574630Y-178777730D01*
X191963663Y-178778069D01*
X192270602Y-178651245D01*
X192268100Y-178663600D01*
X192268100Y-179476400D01*
X192312378Y-179711717D01*
X192312876Y-179712491D01*
X192268100Y-179933600D01*
X192268100Y-180746400D01*
X192296776Y-180898800D01*
X189901794Y-180898800D01*
X189784659Y-180781460D01*
X189425370Y-180632270D01*
X189036337Y-180631931D01*
X188676788Y-180780493D01*
X188401460Y-181055341D01*
X188252270Y-181414630D01*
X188251931Y-181803663D01*
X188400493Y-182163212D01*
X188675341Y-182438540D01*
X189034630Y-182587730D01*
X189423663Y-182588069D01*
X189783212Y-182439507D01*
X189901726Y-182321200D01*
X192298962Y-182321200D01*
X192268100Y-182473600D01*
X192268100Y-183286400D01*
X192312378Y-183521717D01*
X192317093Y-183529044D01*
X192280540Y-183617290D01*
X192280540Y-183864250D01*
X192439290Y-184023000D01*
X193626740Y-184023000D01*
X193626740Y-184003000D01*
X193880740Y-184003000D01*
X193880740Y-184023000D01*
X193900740Y-184023000D01*
X193900740Y-184277000D01*
X193880740Y-184277000D01*
X193880740Y-185032650D01*
X194039490Y-185191400D01*
X194480000Y-185191400D01*
X194480000Y-187607370D01*
X194429683Y-187616838D01*
X194213559Y-187755910D01*
X194068569Y-187968110D01*
X194017560Y-188220000D01*
X194017560Y-188970000D01*
X194028071Y-189025862D01*
X194022840Y-189052160D01*
X194022840Y-189740000D01*
X192995000Y-189740000D01*
X192995000Y-189662334D01*
X193070317Y-189648162D01*
X193286441Y-189509090D01*
X193431431Y-189296890D01*
X193482440Y-189045000D01*
X193482440Y-188145000D01*
X193438162Y-187909683D01*
X193299090Y-187693559D01*
X193086890Y-187548569D01*
X192835000Y-187497560D01*
X191635000Y-187497560D01*
X191399683Y-187541838D01*
X191183559Y-187680910D01*
X191135866Y-187750711D01*
X191099090Y-187693559D01*
X190886890Y-187548569D01*
X190635000Y-187497560D01*
X189462013Y-187497560D01*
X189424507Y-187406788D01*
X189149659Y-187131460D01*
X188790370Y-186982270D01*
X188401337Y-186981931D01*
X188041788Y-187130493D01*
X187766460Y-187405341D01*
X187617270Y-187764630D01*
X187616931Y-188153663D01*
X187765493Y-188513212D01*
X188040341Y-188788540D01*
X188399630Y-188937730D01*
X188567087Y-188937876D01*
X188727106Y-189097895D01*
X188807638Y-189151704D01*
X188831838Y-189280317D01*
X188970910Y-189496441D01*
X189183110Y-189641431D01*
X189200000Y-189644851D01*
X189200000Y-190106120D01*
X189263561Y-190425661D01*
X189360841Y-190571250D01*
X189444566Y-190696554D01*
X190589132Y-191841120D01*
X190518846Y-191911406D01*
X190458327Y-191765302D01*
X190279699Y-191586673D01*
X190046310Y-191490000D01*
X189830750Y-191490000D01*
X189672000Y-191648750D01*
X189672000Y-192598000D01*
X189692000Y-192598000D01*
X189692000Y-192852000D01*
X189672000Y-192852000D01*
X189672000Y-192872000D01*
X189418000Y-192872000D01*
X189418000Y-192852000D01*
X188693750Y-192852000D01*
X188535000Y-193010750D01*
X188535000Y-193451309D01*
X188631673Y-193684698D01*
X188633043Y-193686068D01*
X188573569Y-193773110D01*
X188522560Y-194025000D01*
X188522560Y-195225000D01*
X188566838Y-195460317D01*
X188705910Y-195676441D01*
X188918110Y-195821431D01*
X189170000Y-195872440D01*
X189920000Y-195872440D01*
X190155317Y-195828162D01*
X190371441Y-195689090D01*
X190416926Y-195622520D01*
X190979347Y-195622520D01*
X190941460Y-195660341D01*
X190792270Y-196019630D01*
X190791931Y-196408663D01*
X190940493Y-196768212D01*
X191215341Y-197043540D01*
X191574630Y-197192730D01*
X191963663Y-197193069D01*
X192323212Y-197044507D01*
X192598540Y-196769659D01*
X192747730Y-196410370D01*
X192748069Y-196021337D01*
X192599507Y-195661788D01*
X192560307Y-195622520D01*
X192751939Y-195622520D01*
X192763984Y-195640547D01*
X193015315Y-195808480D01*
X193311780Y-195867451D01*
X193561970Y-195817685D01*
X193812160Y-195867451D01*
X194093041Y-195811580D01*
X194120314Y-195823119D01*
X194165857Y-195770239D01*
X194314009Y-195671248D01*
X194349847Y-195709599D01*
X194431769Y-195744260D01*
X194499686Y-195823119D01*
X194558920Y-195798057D01*
X194582134Y-195807879D01*
X194582975Y-195812107D01*
X194753141Y-196066779D01*
X194821441Y-196135079D01*
X195076114Y-196305245D01*
X195376520Y-196365000D01*
X200660000Y-196365000D01*
X200960406Y-196305245D01*
X201215079Y-196135079D01*
X201385245Y-195880406D01*
X201445000Y-195580000D01*
X201445000Y-194666892D01*
X205568514Y-194666892D01*
X205814817Y-195191358D01*
X206243076Y-195581645D01*
X206653110Y-195751476D01*
X206883000Y-195630155D01*
X206883000Y-194437000D01*
X205689181Y-194437000D01*
X205568514Y-194666892D01*
X201445000Y-194666892D01*
X201445000Y-193953108D01*
X205568514Y-193953108D01*
X205689181Y-194183000D01*
X206883000Y-194183000D01*
X206883000Y-192989845D01*
X206653110Y-192868524D01*
X206243076Y-193038355D01*
X205814817Y-193428642D01*
X205568514Y-193953108D01*
X201445000Y-193953108D01*
X201445000Y-193494935D01*
X201480630Y-193509730D01*
X201869663Y-193510069D01*
X202229212Y-193361507D01*
X202504540Y-193086659D01*
X202653730Y-192727370D01*
X202654069Y-192338337D01*
X202505507Y-191978788D01*
X202230659Y-191703460D01*
X201871370Y-191554270D01*
X201482337Y-191553931D01*
X201445000Y-191569358D01*
X201445000Y-190500000D01*
X201385245Y-190199594D01*
X201215079Y-189944921D01*
X200960406Y-189774755D01*
X200660000Y-189715000D01*
X195592840Y-189715000D01*
X195592840Y-189617440D01*
X195865000Y-189617440D01*
X196100317Y-189573162D01*
X196203646Y-189506671D01*
X196205302Y-189508327D01*
X196438691Y-189605000D01*
X196879250Y-189605000D01*
X197038000Y-189446250D01*
X197038000Y-188722000D01*
X197292000Y-188722000D01*
X197292000Y-189446250D01*
X197450750Y-189605000D01*
X197891309Y-189605000D01*
X198124698Y-189508327D01*
X198303327Y-189329699D01*
X198400000Y-189096310D01*
X198400000Y-188880750D01*
X198241250Y-188722000D01*
X197292000Y-188722000D01*
X197038000Y-188722000D01*
X197018000Y-188722000D01*
X197018000Y-188468000D01*
X197038000Y-188468000D01*
X197038000Y-188448000D01*
X197292000Y-188448000D01*
X197292000Y-188468000D01*
X198241250Y-188468000D01*
X198400000Y-188309250D01*
X198400000Y-188093690D01*
X198303327Y-187860301D01*
X198124698Y-187681673D01*
X197891309Y-187585000D01*
X197610158Y-187585000D01*
X199742757Y-185452401D01*
X200578153Y-185452401D01*
X200878560Y-185392646D01*
X201133232Y-185222480D01*
X201732480Y-184623232D01*
X201902646Y-184368559D01*
X201962401Y-184068153D01*
X201962401Y-183493873D01*
X201991838Y-183650317D01*
X202130910Y-183866441D01*
X202230604Y-183934559D01*
X202222270Y-183954630D01*
X202221931Y-184343663D01*
X202370493Y-184703212D01*
X202645341Y-184978540D01*
X202912385Y-185089427D01*
X202696188Y-185305624D01*
X202602217Y-185305542D01*
X202242668Y-185454104D01*
X201967340Y-185728952D01*
X201818150Y-186088241D01*
X201817811Y-186477274D01*
X201891661Y-186656005D01*
X201753569Y-186858110D01*
X201702560Y-187110000D01*
X201702560Y-188810000D01*
X201746838Y-189045317D01*
X201885910Y-189261441D01*
X202098110Y-189406431D01*
X202165541Y-189420086D01*
X202120853Y-189449946D01*
X201798946Y-189931715D01*
X201685907Y-190500000D01*
X201798946Y-191068285D01*
X202120853Y-191550054D01*
X202602622Y-191871961D01*
X203170907Y-191985000D01*
X203229093Y-191985000D01*
X203797378Y-191871961D01*
X204279147Y-191550054D01*
X204601054Y-191068285D01*
X204714093Y-190500000D01*
X204601054Y-189931715D01*
X204279147Y-189449946D01*
X204237548Y-189422150D01*
X204285317Y-189413162D01*
X204501441Y-189274090D01*
X204646431Y-189061890D01*
X204697440Y-188810000D01*
X204697440Y-187110000D01*
X204653162Y-186874683D01*
X204514090Y-186658559D01*
X204301890Y-186513569D01*
X204050000Y-186462560D01*
X203773624Y-186462560D01*
X203773819Y-186239570D01*
X204145142Y-185868247D01*
X204318110Y-185986431D01*
X204570000Y-186037440D01*
X205120000Y-186037440D01*
X205249589Y-186013056D01*
X205342196Y-186031810D01*
X205318764Y-186088241D01*
X205318425Y-186477274D01*
X205466987Y-186836823D01*
X205741835Y-187112151D01*
X206101124Y-187261341D01*
X206490157Y-187261680D01*
X206849706Y-187113118D01*
X206968220Y-186994811D01*
X207303789Y-186994811D01*
X207575954Y-186940674D01*
X207806683Y-186786505D01*
X207937129Y-186656059D01*
X207936931Y-186883663D01*
X208068001Y-187200878D01*
X208013559Y-187235910D01*
X207868569Y-187448110D01*
X207835885Y-187609510D01*
X207797061Y-187617232D01*
X207451337Y-187616931D01*
X207091788Y-187765493D01*
X206816460Y-188040341D01*
X206667270Y-188399630D01*
X206666931Y-188788663D01*
X206815493Y-189148212D01*
X207090341Y-189423540D01*
X207449630Y-189572730D01*
X207838663Y-189573069D01*
X207951777Y-189526332D01*
X207868569Y-189648110D01*
X207817560Y-189900000D01*
X207817560Y-190538139D01*
X207578337Y-190537931D01*
X207218788Y-190686493D01*
X206943460Y-190961341D01*
X206794270Y-191320630D01*
X206793931Y-191709663D01*
X206942493Y-192069212D01*
X207217341Y-192344540D01*
X207576630Y-192493730D01*
X207965663Y-192494069D01*
X208325212Y-192345507D01*
X208600540Y-192070659D01*
X208671841Y-191898947D01*
X208823348Y-191747440D01*
X209365000Y-191747440D01*
X209600317Y-191703162D01*
X209816441Y-191564090D01*
X209961431Y-191351890D01*
X210012440Y-191100000D01*
X210012440Y-189900000D01*
X209968162Y-189664683D01*
X209829090Y-189448559D01*
X209759289Y-189400866D01*
X209816441Y-189364090D01*
X209961431Y-189151890D01*
X210012440Y-188900000D01*
X210012440Y-187700000D01*
X210006371Y-187667745D01*
X210378663Y-187668069D01*
X210738212Y-187519507D01*
X211013540Y-187244659D01*
X211162730Y-186885370D01*
X211163069Y-186496337D01*
X211014507Y-186136788D01*
X210884444Y-186006498D01*
X210955317Y-185993162D01*
X211112242Y-185892184D01*
X211111931Y-186248663D01*
X211260493Y-186608212D01*
X211535341Y-186883540D01*
X211894630Y-187032730D01*
X212198635Y-187032995D01*
X211958946Y-187391715D01*
X211845907Y-187960000D01*
X211958946Y-188528285D01*
X212280853Y-189010054D01*
X212322452Y-189037850D01*
X212274683Y-189046838D01*
X212058559Y-189185910D01*
X211913569Y-189398110D01*
X211862560Y-189650000D01*
X211862560Y-191350000D01*
X211906838Y-191585317D01*
X212045910Y-191801441D01*
X212258110Y-191946431D01*
X212510000Y-191997440D01*
X214210000Y-191997440D01*
X214445317Y-191953162D01*
X214661441Y-191814090D01*
X214753955Y-191678691D01*
X216795000Y-191678691D01*
X216795000Y-192119250D01*
X216953750Y-192278000D01*
X217678000Y-192278000D01*
X217678000Y-191328750D01*
X217932000Y-191328750D01*
X217932000Y-192278000D01*
X218656250Y-192278000D01*
X218815000Y-192119250D01*
X218815000Y-191678691D01*
X218718327Y-191445302D01*
X218539699Y-191266673D01*
X218306310Y-191170000D01*
X218090750Y-191170000D01*
X217932000Y-191328750D01*
X217678000Y-191328750D01*
X217519250Y-191170000D01*
X217303690Y-191170000D01*
X217070301Y-191266673D01*
X216891673Y-191445302D01*
X216795000Y-191678691D01*
X214753955Y-191678691D01*
X214806431Y-191601890D01*
X214857440Y-191350000D01*
X214857440Y-189650000D01*
X214813162Y-189414683D01*
X214674090Y-189198559D01*
X214461890Y-189053569D01*
X214394459Y-189039914D01*
X214439147Y-189010054D01*
X214761054Y-188528285D01*
X214874093Y-187960000D01*
X214761054Y-187391715D01*
X214439147Y-186909946D01*
X214057592Y-186655000D01*
X214122002Y-186655000D01*
X214122002Y-186496252D01*
X214280750Y-186655000D01*
X214496310Y-186655000D01*
X214729699Y-186558327D01*
X214908327Y-186379698D01*
X215005000Y-186146309D01*
X215005000Y-185705750D01*
X214846252Y-185547002D01*
X214868733Y-185547002D01*
X214991370Y-185597800D01*
X215731090Y-185597800D01*
X215889840Y-185439050D01*
X215889840Y-184691020D01*
X216143840Y-184691020D01*
X216143840Y-185439050D01*
X216302590Y-185597800D01*
X217042310Y-185597800D01*
X217275699Y-185501127D01*
X217454327Y-185322498D01*
X217551000Y-185089109D01*
X217551000Y-184849770D01*
X217392250Y-184691020D01*
X216143840Y-184691020D01*
X215889840Y-184691020D01*
X215869840Y-184691020D01*
X215869840Y-184510420D01*
X216916000Y-184510420D01*
X217151317Y-184466142D01*
X217196574Y-184437020D01*
X217392250Y-184437020D01*
X217551000Y-184278270D01*
X217551000Y-184249200D01*
X217804042Y-184249200D01*
X220417402Y-186862560D01*
X220040000Y-186862560D01*
X219804683Y-186906838D01*
X219588559Y-187045910D01*
X219540866Y-187115711D01*
X219504090Y-187058559D01*
X219291890Y-186913569D01*
X219040000Y-186862560D01*
X217840000Y-186862560D01*
X217604683Y-186906838D01*
X217388559Y-187045910D01*
X217243569Y-187258110D01*
X217192560Y-187510000D01*
X217192560Y-188410000D01*
X217236838Y-188645317D01*
X217375910Y-188861441D01*
X217588110Y-189006431D01*
X217655000Y-189019977D01*
X217655000Y-189865000D01*
X217714755Y-190165407D01*
X217884921Y-190420079D01*
X219586721Y-192121879D01*
X219841394Y-192292045D01*
X220141800Y-192351801D01*
X220141805Y-192351800D01*
X220468517Y-192351800D01*
X220373661Y-192575994D01*
X220512803Y-192695830D01*
X220658932Y-192695830D01*
X220487181Y-192856327D01*
X220486336Y-192858325D01*
X220373661Y-192955366D01*
X220409469Y-193040000D01*
X220373661Y-193124634D01*
X220486336Y-193221675D01*
X220487181Y-193223673D01*
X220653793Y-193379367D01*
X220540370Y-193332270D01*
X220151337Y-193331931D01*
X219791788Y-193480493D01*
X219516460Y-193755341D01*
X219367270Y-194114630D01*
X219366931Y-194503663D01*
X219436111Y-194671092D01*
X219270370Y-194602270D01*
X218881337Y-194601931D01*
X218827440Y-194624201D01*
X218827440Y-193705000D01*
X218783162Y-193469683D01*
X218716671Y-193366354D01*
X218718327Y-193364698D01*
X218815000Y-193131309D01*
X218815000Y-192690750D01*
X218656250Y-192532000D01*
X217932000Y-192532000D01*
X217932000Y-192552000D01*
X217678000Y-192552000D01*
X217678000Y-192532000D01*
X216953750Y-192532000D01*
X216795000Y-192690750D01*
X216795000Y-193131309D01*
X216891673Y-193364698D01*
X216893043Y-193366068D01*
X216833569Y-193453110D01*
X216825940Y-193490782D01*
X216685000Y-193349842D01*
X216685000Y-193040000D01*
X216625245Y-192739594D01*
X216455079Y-192484921D01*
X216200406Y-192314755D01*
X215900000Y-192255000D01*
X211455000Y-192255000D01*
X211154594Y-192314755D01*
X210899921Y-192484921D01*
X210729755Y-192739594D01*
X210698729Y-192895572D01*
X210651890Y-192863569D01*
X210400000Y-192812560D01*
X208700000Y-192812560D01*
X208464683Y-192856838D01*
X208248559Y-192995910D01*
X208103569Y-193208110D01*
X208081699Y-193316107D01*
X207776924Y-193038355D01*
X207366890Y-192868524D01*
X207137000Y-192989845D01*
X207137000Y-194183000D01*
X207157000Y-194183000D01*
X207157000Y-194437000D01*
X207137000Y-194437000D01*
X207137000Y-195630155D01*
X207366890Y-195751476D01*
X207776924Y-195581645D01*
X208079937Y-195305499D01*
X208096838Y-195395317D01*
X208235910Y-195611441D01*
X208448110Y-195756431D01*
X208663452Y-195800039D01*
X208572270Y-196019630D01*
X208571931Y-196408663D01*
X208720493Y-196768212D01*
X208995341Y-197043540D01*
X209354630Y-197192730D01*
X209743663Y-197193069D01*
X210103212Y-197044507D01*
X210378540Y-196769659D01*
X210527730Y-196410370D01*
X210528069Y-196021337D01*
X210436826Y-195800511D01*
X210635317Y-195763162D01*
X210851441Y-195624090D01*
X210996431Y-195411890D01*
X211047440Y-195160000D01*
X211047440Y-195003819D01*
X211255079Y-194865079D01*
X211466710Y-194653448D01*
X211392226Y-194764921D01*
X211230097Y-195580000D01*
X211392226Y-196395079D01*
X211853931Y-197086069D01*
X212338728Y-197410000D01*
X179189102Y-197410000D01*
X179250079Y-197397871D01*
X179941069Y-196936166D01*
X180402774Y-196245176D01*
X180564903Y-195430097D01*
X180402774Y-194615018D01*
X179941069Y-193924028D01*
X179250079Y-193462323D01*
X178435000Y-193300194D01*
X177619921Y-193462323D01*
X176928931Y-193924028D01*
X176467226Y-194615018D01*
X176305097Y-195430097D01*
X176467226Y-196245176D01*
X176928931Y-196936166D01*
X177619921Y-197397871D01*
X177680898Y-197410000D01*
X172795000Y-197410000D01*
X172795000Y-191998691D01*
X188535000Y-191998691D01*
X188535000Y-192439250D01*
X188693750Y-192598000D01*
X189418000Y-192598000D01*
X189418000Y-191648750D01*
X189259250Y-191490000D01*
X189043690Y-191490000D01*
X188810301Y-191586673D01*
X188631673Y-191765302D01*
X188535000Y-191998691D01*
X172795000Y-191998691D01*
X172795000Y-187095000D01*
X173747560Y-187095000D01*
X173747560Y-190095000D01*
X173791838Y-190330317D01*
X173930910Y-190546441D01*
X174143110Y-190691431D01*
X174395000Y-190742440D01*
X177395000Y-190742440D01*
X177630317Y-190698162D01*
X177846441Y-190559090D01*
X177991431Y-190346890D01*
X178042440Y-190095000D01*
X178042440Y-188880750D01*
X178205000Y-188880750D01*
X178205000Y-190221310D01*
X178301673Y-190454699D01*
X178480302Y-190633327D01*
X178713691Y-190730000D01*
X180054250Y-190730000D01*
X180213000Y-190571250D01*
X180213000Y-188722000D01*
X180467000Y-188722000D01*
X180467000Y-190571250D01*
X180625750Y-190730000D01*
X181966309Y-190730000D01*
X182199698Y-190633327D01*
X182378327Y-190454699D01*
X182475000Y-190221310D01*
X182475000Y-188880750D01*
X182316250Y-188722000D01*
X180467000Y-188722000D01*
X180213000Y-188722000D01*
X178363750Y-188722000D01*
X178205000Y-188880750D01*
X178042440Y-188880750D01*
X178042440Y-187095000D01*
X178018674Y-186968690D01*
X178205000Y-186968690D01*
X178205000Y-188309250D01*
X178363750Y-188468000D01*
X180213000Y-188468000D01*
X180213000Y-186618750D01*
X180467000Y-186618750D01*
X180467000Y-188468000D01*
X182316250Y-188468000D01*
X182475000Y-188309250D01*
X182475000Y-186968690D01*
X182378327Y-186735301D01*
X182199698Y-186556673D01*
X181966309Y-186460000D01*
X180625750Y-186460000D01*
X180467000Y-186618750D01*
X180213000Y-186618750D01*
X180054250Y-186460000D01*
X178713691Y-186460000D01*
X178480302Y-186556673D01*
X178301673Y-186735301D01*
X178205000Y-186968690D01*
X178018674Y-186968690D01*
X177998162Y-186859683D01*
X177859090Y-186643559D01*
X177646890Y-186498569D01*
X177395000Y-186447560D01*
X176680000Y-186447560D01*
X176680000Y-185203840D01*
X177449480Y-185203840D01*
X177684797Y-185159562D01*
X177900921Y-185020490D01*
X178045911Y-184808290D01*
X178096920Y-184556400D01*
X178096920Y-184435750D01*
X192280540Y-184435750D01*
X192280540Y-184682710D01*
X192377213Y-184916099D01*
X192555842Y-185094727D01*
X192789231Y-185191400D01*
X193467990Y-185191400D01*
X193626740Y-185032650D01*
X193626740Y-184277000D01*
X192439290Y-184277000D01*
X192280540Y-184435750D01*
X178096920Y-184435750D01*
X178096920Y-183743600D01*
X178060409Y-183549562D01*
X178084480Y-183491450D01*
X178084480Y-183244490D01*
X177925730Y-183085740D01*
X176738280Y-183085740D01*
X176738280Y-183096160D01*
X176484280Y-183096160D01*
X176484280Y-183085740D01*
X175296830Y-183085740D01*
X175138080Y-183244490D01*
X175138080Y-183491450D01*
X175164020Y-183554074D01*
X175125640Y-183743600D01*
X175125640Y-184556400D01*
X175148001Y-184675238D01*
X175142149Y-184704659D01*
X175110000Y-184866280D01*
X175110000Y-186447560D01*
X174395000Y-186447560D01*
X174159683Y-186491838D01*
X173943559Y-186630910D01*
X173798569Y-186843110D01*
X173747560Y-187095000D01*
X172795000Y-187095000D01*
X172795000Y-181094098D01*
X172795719Y-181097713D01*
X173224929Y-181740071D01*
X173867287Y-182169281D01*
X174625000Y-182320000D01*
X175232012Y-182199257D01*
X175138080Y-182426030D01*
X175138080Y-182672990D01*
X175296830Y-182831740D01*
X176484280Y-182831740D01*
X176484280Y-182076090D01*
X176738280Y-182076090D01*
X176738280Y-182831740D01*
X177925730Y-182831740D01*
X178084480Y-182672990D01*
X178084480Y-182426030D01*
X177987807Y-182192641D01*
X177809178Y-182014013D01*
X177575789Y-181917340D01*
X176897030Y-181917340D01*
X176738280Y-182076090D01*
X176484280Y-182076090D01*
X176325530Y-181917340D01*
X175759769Y-181917340D01*
X176025071Y-181740071D01*
X176454281Y-181097713D01*
X176605000Y-180340000D01*
X176454281Y-179582287D01*
X176025071Y-178939929D01*
X175382713Y-178510719D01*
X174625000Y-178360000D01*
X173867287Y-178510719D01*
X173224929Y-178939929D01*
X172795719Y-179582287D01*
X172795000Y-179585902D01*
X172795000Y-169647290D01*
X192280540Y-169647290D01*
X192280540Y-169894250D01*
X192439290Y-170053000D01*
X193626740Y-170053000D01*
X193626740Y-169297350D01*
X193880740Y-169297350D01*
X193880740Y-170053000D01*
X195068190Y-170053000D01*
X195226940Y-169894250D01*
X195226940Y-169647290D01*
X195130267Y-169413901D01*
X194951638Y-169235273D01*
X194718249Y-169138600D01*
X194039490Y-169138600D01*
X193880740Y-169297350D01*
X193626740Y-169297350D01*
X193467990Y-169138600D01*
X192789231Y-169138600D01*
X192555842Y-169235273D01*
X192377213Y-169413901D01*
X192280540Y-169647290D01*
X172795000Y-169647290D01*
X172795000Y-165175000D01*
X177680902Y-165175000D01*
X177677287Y-165175719D01*
G36*
X225672560Y-193010000D02*
X225716838Y-193245317D01*
X225783329Y-193348646D01*
X225781673Y-193350302D01*
X225685000Y-193583691D01*
X225685000Y-194024250D01*
X225843750Y-194183000D01*
X226568000Y-194183000D01*
X226568000Y-194163000D01*
X226822000Y-194163000D01*
X226822000Y-194183000D01*
X226842000Y-194183000D01*
X226842000Y-194437000D01*
X226822000Y-194437000D01*
X226822000Y-194457000D01*
X226568000Y-194457000D01*
X226568000Y-194437000D01*
X225843750Y-194437000D01*
X225685000Y-194595750D01*
X225685000Y-195036309D01*
X225781673Y-195269698D01*
X225941974Y-195430000D01*
X224668220Y-195430000D01*
X224668220Y-194513200D01*
X224657920Y-194461419D01*
X224657920Y-194207969D01*
X224634259Y-194089020D01*
X224772220Y-194089020D01*
X225059018Y-193981449D01*
X225282819Y-193772313D01*
X225396339Y-193504006D01*
X225257197Y-193384170D01*
X225111068Y-193384170D01*
X225282819Y-193223673D01*
X225283664Y-193221675D01*
X225396339Y-193124634D01*
X225360531Y-193040000D01*
X225396339Y-192955366D01*
X225283664Y-192858325D01*
X225282819Y-192856327D01*
X225111068Y-192695830D01*
X225257197Y-192695830D01*
X225396339Y-192575994D01*
X225290906Y-192326800D01*
X225672560Y-192326800D01*
X225672560Y-193010000D01*
X225672560Y-193010000D01*
G37*
X225672560Y-193010000D02*
X225716838Y-193245317D01*
X225783329Y-193348646D01*
X225781673Y-193350302D01*
X225685000Y-193583691D01*
X225685000Y-194024250D01*
X225843750Y-194183000D01*
X226568000Y-194183000D01*
X226568000Y-194163000D01*
X226822000Y-194163000D01*
X226822000Y-194183000D01*
X226842000Y-194183000D01*
X226842000Y-194437000D01*
X226822000Y-194437000D01*
X226822000Y-194457000D01*
X226568000Y-194457000D01*
X226568000Y-194437000D01*
X225843750Y-194437000D01*
X225685000Y-194595750D01*
X225685000Y-195036309D01*
X225781673Y-195269698D01*
X225941974Y-195430000D01*
X224668220Y-195430000D01*
X224668220Y-194513200D01*
X224657920Y-194461419D01*
X224657920Y-194207969D01*
X224634259Y-194089020D01*
X224772220Y-194089020D01*
X225059018Y-193981449D01*
X225282819Y-193772313D01*
X225396339Y-193504006D01*
X225257197Y-193384170D01*
X225111068Y-193384170D01*
X225282819Y-193223673D01*
X225283664Y-193221675D01*
X225396339Y-193124634D01*
X225360531Y-193040000D01*
X225396339Y-192955366D01*
X225283664Y-192858325D01*
X225282819Y-192856327D01*
X225111068Y-192695830D01*
X225257197Y-192695830D01*
X225396339Y-192575994D01*
X225290906Y-192326800D01*
X225672560Y-192326800D01*
X225672560Y-193010000D01*
G36*
X199875000Y-194795000D02*
X199130000Y-194795000D01*
X199130000Y-194595750D01*
X198971250Y-194437000D01*
X198247000Y-194437000D01*
X198247000Y-194457000D01*
X197993000Y-194457000D01*
X197993000Y-194437000D01*
X197268750Y-194437000D01*
X197110000Y-194595750D01*
X197110000Y-194795000D01*
X196093220Y-194795000D01*
X196093220Y-194787520D01*
X196082920Y-194735739D01*
X196082920Y-194482289D01*
X196059259Y-194363340D01*
X196197220Y-194363340D01*
X196484018Y-194255769D01*
X196707819Y-194046633D01*
X196821339Y-193778326D01*
X196682197Y-193658490D01*
X196536068Y-193658490D01*
X196707819Y-193497993D01*
X196708664Y-193495995D01*
X196821339Y-193398954D01*
X196785531Y-193314320D01*
X196821339Y-193229686D01*
X196708664Y-193132645D01*
X196707819Y-193130647D01*
X196536068Y-192970150D01*
X196682197Y-192970150D01*
X196821339Y-192850314D01*
X196715906Y-192601120D01*
X197097560Y-192601120D01*
X197097560Y-193010000D01*
X197141838Y-193245317D01*
X197208329Y-193348646D01*
X197206673Y-193350302D01*
X197110000Y-193583691D01*
X197110000Y-194024250D01*
X197268750Y-194183000D01*
X197993000Y-194183000D01*
X197993000Y-194163000D01*
X198247000Y-194163000D01*
X198247000Y-194183000D01*
X198971250Y-194183000D01*
X199130000Y-194024250D01*
X199130000Y-193583691D01*
X199033327Y-193350302D01*
X199031957Y-193348932D01*
X199091431Y-193261890D01*
X199142440Y-193010000D01*
X199142440Y-191810000D01*
X199098162Y-191574683D01*
X198959090Y-191358559D01*
X198851433Y-191285000D01*
X199875000Y-191285000D01*
X199875000Y-194795000D01*
X199875000Y-194795000D01*
G37*
X199875000Y-194795000D02*
X199130000Y-194795000D01*
X199130000Y-194595750D01*
X198971250Y-194437000D01*
X198247000Y-194437000D01*
X198247000Y-194457000D01*
X197993000Y-194457000D01*
X197993000Y-194437000D01*
X197268750Y-194437000D01*
X197110000Y-194595750D01*
X197110000Y-194795000D01*
X196093220Y-194795000D01*
X196093220Y-194787520D01*
X196082920Y-194735739D01*
X196082920Y-194482289D01*
X196059259Y-194363340D01*
X196197220Y-194363340D01*
X196484018Y-194255769D01*
X196707819Y-194046633D01*
X196821339Y-193778326D01*
X196682197Y-193658490D01*
X196536068Y-193658490D01*
X196707819Y-193497993D01*
X196708664Y-193495995D01*
X196821339Y-193398954D01*
X196785531Y-193314320D01*
X196821339Y-193229686D01*
X196708664Y-193132645D01*
X196707819Y-193130647D01*
X196536068Y-192970150D01*
X196682197Y-192970150D01*
X196821339Y-192850314D01*
X196715906Y-192601120D01*
X197097560Y-192601120D01*
X197097560Y-193010000D01*
X197141838Y-193245317D01*
X197208329Y-193348646D01*
X197206673Y-193350302D01*
X197110000Y-193583691D01*
X197110000Y-194024250D01*
X197268750Y-194183000D01*
X197993000Y-194183000D01*
X197993000Y-194163000D01*
X198247000Y-194163000D01*
X198247000Y-194183000D01*
X198971250Y-194183000D01*
X199130000Y-194024250D01*
X199130000Y-193583691D01*
X199033327Y-193350302D01*
X199031957Y-193348932D01*
X199091431Y-193261890D01*
X199142440Y-193010000D01*
X199142440Y-191810000D01*
X199098162Y-191574683D01*
X198959090Y-191358559D01*
X198851433Y-191285000D01*
X199875000Y-191285000D01*
X199875000Y-194795000D01*
G36*
X212972560Y-184120000D02*
X213016838Y-184355317D01*
X213083329Y-184458646D01*
X213081673Y-184460302D01*
X212985000Y-184693691D01*
X212985000Y-185134250D01*
X213143750Y-185293000D01*
X213868000Y-185293000D01*
X213868000Y-185273000D01*
X214122000Y-185273000D01*
X214122000Y-185293000D01*
X214142000Y-185293000D01*
X214142000Y-185547000D01*
X214122000Y-185547000D01*
X214122000Y-185567000D01*
X213868000Y-185567000D01*
X213868000Y-185547000D01*
X213143750Y-185547000D01*
X212998291Y-185692459D01*
X212919507Y-185501788D01*
X212644659Y-185226460D01*
X212606200Y-185210490D01*
X212606200Y-184062440D01*
X212695000Y-184062440D01*
X212930317Y-184018162D01*
X212972560Y-183990979D01*
X212972560Y-184120000D01*
X212972560Y-184120000D01*
G37*
X212972560Y-184120000D02*
X213016838Y-184355317D01*
X213083329Y-184458646D01*
X213081673Y-184460302D01*
X212985000Y-184693691D01*
X212985000Y-185134250D01*
X213143750Y-185293000D01*
X213868000Y-185293000D01*
X213868000Y-185273000D01*
X214122000Y-185273000D01*
X214122000Y-185293000D01*
X214142000Y-185293000D01*
X214142000Y-185547000D01*
X214122000Y-185547000D01*
X214122000Y-185567000D01*
X213868000Y-185567000D01*
X213868000Y-185547000D01*
X213143750Y-185547000D01*
X212998291Y-185692459D01*
X212919507Y-185501788D01*
X212644659Y-185226460D01*
X212606200Y-185210490D01*
X212606200Y-184062440D01*
X212695000Y-184062440D01*
X212930317Y-184018162D01*
X212972560Y-183990979D01*
X212972560Y-184120000D01*
G36*
X200152000Y-183388000D02*
X200172000Y-183388000D01*
X200172000Y-183642000D01*
X200152000Y-183642000D01*
X200152000Y-183662000D01*
X199898000Y-183662000D01*
X199898000Y-183642000D01*
X199878000Y-183642000D01*
X199878000Y-183388000D01*
X199898000Y-183388000D01*
X199898000Y-183368000D01*
X200152000Y-183368000D01*
X200152000Y-183388000D01*
X200152000Y-183388000D01*
G37*
X200152000Y-183388000D02*
X200172000Y-183388000D01*
X200172000Y-183642000D01*
X200152000Y-183642000D01*
X200152000Y-183662000D01*
X199898000Y-183662000D01*
X199898000Y-183642000D01*
X199878000Y-183642000D01*
X199878000Y-183388000D01*
X199898000Y-183388000D01*
X199898000Y-183368000D01*
X200152000Y-183368000D01*
X200152000Y-183388000D01*
G36*
X210239921Y-181295079D02*
X210494594Y-181465245D01*
X210684423Y-181503005D01*
X210738397Y-181539884D01*
X210643559Y-181600910D01*
X210554505Y-181731245D01*
X210460000Y-181825750D01*
X210460000Y-181941310D01*
X210468468Y-181961753D01*
X210447560Y-182065000D01*
X210447560Y-182615000D01*
X210471944Y-182744589D01*
X210447560Y-182865000D01*
X210447560Y-183142560D01*
X210170000Y-183142560D01*
X210040411Y-183166944D01*
X209920000Y-183142560D01*
X209370000Y-183142560D01*
X209240411Y-183166944D01*
X209120000Y-183142560D01*
X208570000Y-183142560D01*
X208440411Y-183166944D01*
X208320000Y-183142560D01*
X207770000Y-183142560D01*
X207640411Y-183166944D01*
X207520000Y-183142560D01*
X206970000Y-183142560D01*
X206840411Y-183166944D01*
X206720000Y-183142560D01*
X206451200Y-183142560D01*
X206451200Y-182916794D01*
X206568540Y-182799659D01*
X206717730Y-182440370D01*
X206718069Y-182051337D01*
X206569507Y-181691788D01*
X206294659Y-181416460D01*
X205935370Y-181267270D01*
X205546337Y-181266931D01*
X205186788Y-181415493D01*
X204911460Y-181690341D01*
X204826013Y-181896121D01*
X204842440Y-181815000D01*
X204842440Y-181265000D01*
X204822550Y-181159295D01*
X204830000Y-181141310D01*
X204830000Y-181025750D01*
X204733599Y-180929349D01*
X204659090Y-180813559D01*
X204551603Y-180740116D01*
X204575095Y-180725000D01*
X209669842Y-180725000D01*
X210239921Y-181295079D01*
X210239921Y-181295079D01*
G37*
X210239921Y-181295079D02*
X210494594Y-181465245D01*
X210684423Y-181503005D01*
X210738397Y-181539884D01*
X210643559Y-181600910D01*
X210554505Y-181731245D01*
X210460000Y-181825750D01*
X210460000Y-181941310D01*
X210468468Y-181961753D01*
X210447560Y-182065000D01*
X210447560Y-182615000D01*
X210471944Y-182744589D01*
X210447560Y-182865000D01*
X210447560Y-183142560D01*
X210170000Y-183142560D01*
X210040411Y-183166944D01*
X209920000Y-183142560D01*
X209370000Y-183142560D01*
X209240411Y-183166944D01*
X209120000Y-183142560D01*
X208570000Y-183142560D01*
X208440411Y-183166944D01*
X208320000Y-183142560D01*
X207770000Y-183142560D01*
X207640411Y-183166944D01*
X207520000Y-183142560D01*
X206970000Y-183142560D01*
X206840411Y-183166944D01*
X206720000Y-183142560D01*
X206451200Y-183142560D01*
X206451200Y-182916794D01*
X206568540Y-182799659D01*
X206717730Y-182440370D01*
X206718069Y-182051337D01*
X206569507Y-181691788D01*
X206294659Y-181416460D01*
X205935370Y-181267270D01*
X205546337Y-181266931D01*
X205186788Y-181415493D01*
X204911460Y-181690341D01*
X204826013Y-181896121D01*
X204842440Y-181815000D01*
X204842440Y-181265000D01*
X204822550Y-181159295D01*
X204830000Y-181141310D01*
X204830000Y-181025750D01*
X204733599Y-180929349D01*
X204659090Y-180813559D01*
X204551603Y-180740116D01*
X204575095Y-180725000D01*
X209669842Y-180725000D01*
X210239921Y-181295079D01*
G36*
X213487000Y-180213000D02*
X213507000Y-180213000D01*
X213507000Y-180467000D01*
X213487000Y-180467000D01*
X213487000Y-181416250D01*
X213645750Y-181575000D01*
X213692818Y-181575000D01*
X213692818Y-181803118D01*
X213746955Y-182075283D01*
X213878772Y-182272560D01*
X213620000Y-182272560D01*
X213384683Y-182316838D01*
X213342440Y-182344021D01*
X213342440Y-182065000D01*
X213322550Y-181959295D01*
X213330000Y-181941310D01*
X213330000Y-181825750D01*
X213233599Y-181729349D01*
X213159090Y-181613559D01*
X213085781Y-181563469D01*
X213233000Y-181416250D01*
X213233000Y-181352407D01*
X213235495Y-181348755D01*
X213330000Y-181254250D01*
X213330000Y-181138690D01*
X213321532Y-181118247D01*
X213342440Y-181015000D01*
X213342440Y-180465000D01*
X213322550Y-180359295D01*
X213330000Y-180341310D01*
X213330000Y-180225750D01*
X213297250Y-180193000D01*
X213487000Y-180193000D01*
X213487000Y-180213000D01*
X213487000Y-180213000D01*
G37*
X213487000Y-180213000D02*
X213507000Y-180213000D01*
X213507000Y-180467000D01*
X213487000Y-180467000D01*
X213487000Y-181416250D01*
X213645750Y-181575000D01*
X213692818Y-181575000D01*
X213692818Y-181803118D01*
X213746955Y-182075283D01*
X213878772Y-182272560D01*
X213620000Y-182272560D01*
X213384683Y-182316838D01*
X213342440Y-182344021D01*
X213342440Y-182065000D01*
X213322550Y-181959295D01*
X213330000Y-181941310D01*
X213330000Y-181825750D01*
X213233599Y-181729349D01*
X213159090Y-181613559D01*
X213085781Y-181563469D01*
X213233000Y-181416250D01*
X213233000Y-181352407D01*
X213235495Y-181348755D01*
X213330000Y-181254250D01*
X213330000Y-181138690D01*
X213321532Y-181118247D01*
X213342440Y-181015000D01*
X213342440Y-180465000D01*
X213322550Y-180359295D01*
X213330000Y-180341310D01*
X213330000Y-180225750D01*
X213297250Y-180193000D01*
X213487000Y-180193000D01*
X213487000Y-180213000D01*
M02*
