G04 #@! TF.GenerationSoftware,KiCad,Pcbnew,(5.1.0)-1*
G04 #@! TF.CreationDate,2019-05-24T17:14:51-04:00*
G04 #@! TF.ProjectId,PicoTracker1Rev2,5069636f-5472-4616-936b-657231526576,rev?*
G04 #@! TF.SameCoordinates,Original*
G04 #@! TF.FileFunction,Legend,Bot*
G04 #@! TF.FilePolarity,Positive*
%FSLAX46Y46*%
G04 Gerber Fmt 4.6, Leading zero omitted, Abs format (unit mm)*
G04 Created by KiCad (PCBNEW (5.1.0)-1) date 2019-05-24 17:14:51*
%MOMM*%
%LPD*%
G04 APERTURE LIST*
%ADD10C,0.254000*%
%ADD11C,0.300000*%
G04 APERTURE END LIST*
D10*
X230781376Y-173004238D02*
X230636233Y-173052619D01*
X230394328Y-173052619D01*
X230297566Y-173004238D01*
X230249185Y-172955857D01*
X230200804Y-172859095D01*
X230200804Y-172762333D01*
X230249185Y-172665571D01*
X230297566Y-172617190D01*
X230394328Y-172568809D01*
X230587852Y-172520428D01*
X230684614Y-172472047D01*
X230732995Y-172423666D01*
X230781376Y-172326904D01*
X230781376Y-172230142D01*
X230732995Y-172133380D01*
X230684614Y-172085000D01*
X230587852Y-172036619D01*
X230345947Y-172036619D01*
X230200804Y-172085000D01*
X229329947Y-173052619D02*
X229329947Y-172520428D01*
X229378328Y-172423666D01*
X229475090Y-172375285D01*
X229668614Y-172375285D01*
X229765376Y-172423666D01*
X229329947Y-173004238D02*
X229426709Y-173052619D01*
X229668614Y-173052619D01*
X229765376Y-173004238D01*
X229813757Y-172907476D01*
X229813757Y-172810714D01*
X229765376Y-172713952D01*
X229668614Y-172665571D01*
X229426709Y-172665571D01*
X229329947Y-172617190D01*
X228991280Y-172375285D02*
X228604233Y-172375285D01*
X228846138Y-173052619D02*
X228846138Y-172181761D01*
X228797757Y-172085000D01*
X228700995Y-172036619D01*
X228604233Y-172036619D01*
X227878519Y-173004238D02*
X227975280Y-173052619D01*
X228168804Y-173052619D01*
X228265566Y-173004238D01*
X228313947Y-172907476D01*
X228313947Y-172520428D01*
X228265566Y-172423666D01*
X228168804Y-172375285D01*
X227975280Y-172375285D01*
X227878519Y-172423666D01*
X227830138Y-172520428D01*
X227830138Y-172617190D01*
X228313947Y-172713952D01*
X226668995Y-173004238D02*
X226572233Y-173052619D01*
X226378709Y-173052619D01*
X226281947Y-173004238D01*
X226233566Y-172907476D01*
X226233566Y-172859095D01*
X226281947Y-172762333D01*
X226378709Y-172713952D01*
X226523852Y-172713952D01*
X226620614Y-172665571D01*
X226668995Y-172568809D01*
X226668995Y-172520428D01*
X226620614Y-172423666D01*
X226523852Y-172375285D01*
X226378709Y-172375285D01*
X226281947Y-172423666D01*
X225362709Y-173004238D02*
X225459471Y-173052619D01*
X225652995Y-173052619D01*
X225749757Y-173004238D01*
X225798138Y-172955857D01*
X225846519Y-172859095D01*
X225846519Y-172568809D01*
X225798138Y-172472047D01*
X225749757Y-172423666D01*
X225652995Y-172375285D01*
X225459471Y-172375285D01*
X225362709Y-172423666D01*
X224927280Y-173052619D02*
X224927280Y-172375285D01*
X224927280Y-172036619D02*
X224975661Y-172085000D01*
X224927280Y-172133380D01*
X224878900Y-172085000D01*
X224927280Y-172036619D01*
X224927280Y-172133380D01*
X224056423Y-173004238D02*
X224153185Y-173052619D01*
X224346709Y-173052619D01*
X224443471Y-173004238D01*
X224491852Y-172907476D01*
X224491852Y-172520428D01*
X224443471Y-172423666D01*
X224346709Y-172375285D01*
X224153185Y-172375285D01*
X224056423Y-172423666D01*
X224008042Y-172520428D01*
X224008042Y-172617190D01*
X224491852Y-172713952D01*
X223572614Y-172375285D02*
X223572614Y-173052619D01*
X223572614Y-172472047D02*
X223524233Y-172423666D01*
X223427471Y-172375285D01*
X223282328Y-172375285D01*
X223185566Y-172423666D01*
X223137185Y-172520428D01*
X223137185Y-173052619D01*
X222798519Y-172375285D02*
X222411471Y-172375285D01*
X222653376Y-172036619D02*
X222653376Y-172907476D01*
X222604995Y-173004238D01*
X222508233Y-173052619D01*
X222411471Y-173052619D01*
X222072804Y-173052619D02*
X222072804Y-172375285D01*
X222072804Y-172036619D02*
X222121185Y-172085000D01*
X222072804Y-172133380D01*
X222024423Y-172085000D01*
X222072804Y-172036619D01*
X222072804Y-172133380D01*
X221734138Y-172375285D02*
X221347090Y-172375285D01*
X221588995Y-173052619D02*
X221588995Y-172181761D01*
X221540614Y-172085000D01*
X221443852Y-172036619D01*
X221347090Y-172036619D01*
X221008423Y-173052619D02*
X221008423Y-172375285D01*
X221008423Y-172036619D02*
X221056804Y-172085000D01*
X221008423Y-172133380D01*
X220960042Y-172085000D01*
X221008423Y-172036619D01*
X221008423Y-172133380D01*
X220089185Y-173004238D02*
X220185947Y-173052619D01*
X220379471Y-173052619D01*
X220476233Y-173004238D01*
X220524614Y-172955857D01*
X220572995Y-172859095D01*
X220572995Y-172568809D01*
X220524614Y-172472047D01*
X220476233Y-172423666D01*
X220379471Y-172375285D01*
X220185947Y-172375285D01*
X220089185Y-172423666D01*
X218492614Y-173004238D02*
X218589376Y-173052619D01*
X218782900Y-173052619D01*
X218879661Y-173004238D01*
X218928042Y-172907476D01*
X218928042Y-172520428D01*
X218879661Y-172423666D01*
X218782900Y-172375285D01*
X218589376Y-172375285D01*
X218492614Y-172423666D01*
X218444233Y-172520428D01*
X218444233Y-172617190D01*
X218928042Y-172713952D01*
X218105566Y-173052619D02*
X217573376Y-172375285D01*
X218105566Y-172375285D02*
X217573376Y-173052619D01*
X217186328Y-172375285D02*
X217186328Y-173391285D01*
X217186328Y-172423666D02*
X217089566Y-172375285D01*
X216896042Y-172375285D01*
X216799280Y-172423666D01*
X216750900Y-172472047D01*
X216702519Y-172568809D01*
X216702519Y-172859095D01*
X216750900Y-172955857D01*
X216799280Y-173004238D01*
X216896042Y-173052619D01*
X217089566Y-173052619D01*
X217186328Y-173004238D01*
X215880042Y-173004238D02*
X215976804Y-173052619D01*
X216170328Y-173052619D01*
X216267090Y-173004238D01*
X216315471Y-172907476D01*
X216315471Y-172520428D01*
X216267090Y-172423666D01*
X216170328Y-172375285D01*
X215976804Y-172375285D01*
X215880042Y-172423666D01*
X215831661Y-172520428D01*
X215831661Y-172617190D01*
X216315471Y-172713952D01*
X215396233Y-173052619D02*
X215396233Y-172375285D01*
X215396233Y-172568809D02*
X215347852Y-172472047D01*
X215299471Y-172423666D01*
X215202709Y-172375285D01*
X215105947Y-172375285D01*
X214767280Y-173052619D02*
X214767280Y-172375285D01*
X214767280Y-172036619D02*
X214815661Y-172085000D01*
X214767280Y-172133380D01*
X214718900Y-172085000D01*
X214767280Y-172036619D01*
X214767280Y-172133380D01*
X214283471Y-173052619D02*
X214283471Y-172375285D01*
X214283471Y-172472047D02*
X214235090Y-172423666D01*
X214138328Y-172375285D01*
X213993185Y-172375285D01*
X213896423Y-172423666D01*
X213848042Y-172520428D01*
X213848042Y-173052619D01*
X213848042Y-172520428D02*
X213799661Y-172423666D01*
X213702900Y-172375285D01*
X213557757Y-172375285D01*
X213460995Y-172423666D01*
X213412614Y-172520428D01*
X213412614Y-173052619D01*
X212541757Y-173004238D02*
X212638519Y-173052619D01*
X212832042Y-173052619D01*
X212928804Y-173004238D01*
X212977185Y-172907476D01*
X212977185Y-172520428D01*
X212928804Y-172423666D01*
X212832042Y-172375285D01*
X212638519Y-172375285D01*
X212541757Y-172423666D01*
X212493376Y-172520428D01*
X212493376Y-172617190D01*
X212977185Y-172713952D01*
X212057947Y-172375285D02*
X212057947Y-173052619D01*
X212057947Y-172472047D02*
X212009566Y-172423666D01*
X211912804Y-172375285D01*
X211767661Y-172375285D01*
X211670900Y-172423666D01*
X211622519Y-172520428D01*
X211622519Y-173052619D01*
X211283852Y-172375285D02*
X210896804Y-172375285D01*
X211138709Y-172036619D02*
X211138709Y-172907476D01*
X211090328Y-173004238D01*
X210993566Y-173052619D01*
X210896804Y-173052619D01*
X209784042Y-173052619D02*
X209784042Y-172375285D01*
X209784042Y-172036619D02*
X209832423Y-172085000D01*
X209784042Y-172133380D01*
X209735661Y-172085000D01*
X209784042Y-172036619D01*
X209784042Y-172133380D01*
X209300233Y-172375285D02*
X209300233Y-173052619D01*
X209300233Y-172472047D02*
X209251852Y-172423666D01*
X209155090Y-172375285D01*
X209009947Y-172375285D01*
X208913185Y-172423666D01*
X208864804Y-172520428D01*
X208864804Y-173052619D01*
X207606900Y-173052619D02*
X207606900Y-172036619D01*
X207606900Y-172520428D02*
X207026328Y-172520428D01*
X207026328Y-173052619D02*
X207026328Y-172036619D01*
X206107090Y-173052619D02*
X206107090Y-172520428D01*
X206155471Y-172423666D01*
X206252233Y-172375285D01*
X206445757Y-172375285D01*
X206542519Y-172423666D01*
X206107090Y-173004238D02*
X206203852Y-173052619D01*
X206445757Y-173052619D01*
X206542519Y-173004238D01*
X206590900Y-172907476D01*
X206590900Y-172810714D01*
X206542519Y-172713952D01*
X206445757Y-172665571D01*
X206203852Y-172665571D01*
X206107090Y-172617190D01*
X205623280Y-173052619D02*
X205623280Y-172375285D01*
X205623280Y-172472047D02*
X205574900Y-172423666D01*
X205478138Y-172375285D01*
X205332995Y-172375285D01*
X205236233Y-172423666D01*
X205187852Y-172520428D01*
X205187852Y-173052619D01*
X205187852Y-172520428D02*
X205139471Y-172423666D01*
X205042709Y-172375285D01*
X204897566Y-172375285D01*
X204800804Y-172423666D01*
X204752423Y-172520428D01*
X204752423Y-173052619D01*
X202913947Y-173052619D02*
X203252614Y-172568809D01*
X203494519Y-173052619D02*
X203494519Y-172036619D01*
X203107471Y-172036619D01*
X203010709Y-172085000D01*
X202962328Y-172133380D01*
X202913947Y-172230142D01*
X202913947Y-172375285D01*
X202962328Y-172472047D01*
X203010709Y-172520428D01*
X203107471Y-172568809D01*
X203494519Y-172568809D01*
X202043090Y-173052619D02*
X202043090Y-172520428D01*
X202091471Y-172423666D01*
X202188233Y-172375285D01*
X202381757Y-172375285D01*
X202478519Y-172423666D01*
X202043090Y-173004238D02*
X202139852Y-173052619D01*
X202381757Y-173052619D01*
X202478519Y-173004238D01*
X202526900Y-172907476D01*
X202526900Y-172810714D01*
X202478519Y-172713952D01*
X202381757Y-172665571D01*
X202139852Y-172665571D01*
X202043090Y-172617190D01*
X201123852Y-173052619D02*
X201123852Y-172036619D01*
X201123852Y-173004238D02*
X201220614Y-173052619D01*
X201414138Y-173052619D01*
X201510900Y-173004238D01*
X201559280Y-172955857D01*
X201607661Y-172859095D01*
X201607661Y-172568809D01*
X201559280Y-172472047D01*
X201510900Y-172423666D01*
X201414138Y-172375285D01*
X201220614Y-172375285D01*
X201123852Y-172423666D01*
X200640042Y-173052619D02*
X200640042Y-172375285D01*
X200640042Y-172036619D02*
X200688423Y-172085000D01*
X200640042Y-172133380D01*
X200591661Y-172085000D01*
X200640042Y-172036619D01*
X200640042Y-172133380D01*
X200011090Y-173052619D02*
X200107852Y-173004238D01*
X200156233Y-172955857D01*
X200204614Y-172859095D01*
X200204614Y-172568809D01*
X200156233Y-172472047D01*
X200107852Y-172423666D01*
X200011090Y-172375285D01*
X199865947Y-172375285D01*
X199769185Y-172423666D01*
X199720804Y-172472047D01*
X199672423Y-172568809D01*
X199672423Y-172859095D01*
X199720804Y-172955857D01*
X199769185Y-173004238D01*
X199865947Y-173052619D01*
X200011090Y-173052619D01*
X198172614Y-173439666D02*
X198220995Y-173391285D01*
X198317757Y-173246142D01*
X198366138Y-173149380D01*
X198414519Y-173004238D01*
X198462900Y-172762333D01*
X198462900Y-172568809D01*
X198414519Y-172326904D01*
X198366138Y-172181761D01*
X198317757Y-172085000D01*
X198220995Y-171939857D01*
X198172614Y-171891476D01*
X197833947Y-172762333D02*
X197350138Y-172762333D01*
X197930709Y-173052619D02*
X197592042Y-172036619D01*
X197253376Y-173052619D01*
X196914709Y-173052619D02*
X196914709Y-172036619D01*
X196527661Y-172036619D01*
X196430900Y-172085000D01*
X196382519Y-172133380D01*
X196334138Y-172230142D01*
X196334138Y-172375285D01*
X196382519Y-172472047D01*
X196430900Y-172520428D01*
X196527661Y-172568809D01*
X196914709Y-172568809D01*
X195318138Y-173052619D02*
X195656804Y-172568809D01*
X195898709Y-173052619D02*
X195898709Y-172036619D01*
X195511661Y-172036619D01*
X195414900Y-172085000D01*
X195366519Y-172133380D01*
X195318138Y-172230142D01*
X195318138Y-172375285D01*
X195366519Y-172472047D01*
X195414900Y-172520428D01*
X195511661Y-172568809D01*
X195898709Y-172568809D01*
X194931090Y-173004238D02*
X194785947Y-173052619D01*
X194544042Y-173052619D01*
X194447280Y-173004238D01*
X194398900Y-172955857D01*
X194350519Y-172859095D01*
X194350519Y-172762333D01*
X194398900Y-172665571D01*
X194447280Y-172617190D01*
X194544042Y-172568809D01*
X194737566Y-172520428D01*
X194834328Y-172472047D01*
X194882709Y-172423666D01*
X194931090Y-172326904D01*
X194931090Y-172230142D01*
X194882709Y-172133380D01*
X194834328Y-172085000D01*
X194737566Y-172036619D01*
X194495661Y-172036619D01*
X194350519Y-172085000D01*
X194011852Y-173439666D02*
X193963471Y-173391285D01*
X193866709Y-173246142D01*
X193818328Y-173149380D01*
X193769947Y-173004238D01*
X193721566Y-172762333D01*
X193721566Y-172568809D01*
X193769947Y-172326904D01*
X193818328Y-172181761D01*
X193866709Y-172085000D01*
X193963471Y-171939857D01*
X194011852Y-171891476D01*
X230732995Y-176608619D02*
X230732995Y-175592619D01*
X230394328Y-175931285D02*
X230007280Y-175931285D01*
X230249185Y-176608619D02*
X230249185Y-175737761D01*
X230200804Y-175641000D01*
X230104042Y-175592619D01*
X230007280Y-175592619D01*
X229039661Y-175931285D02*
X228652614Y-175931285D01*
X228894519Y-176608619D02*
X228894519Y-175737761D01*
X228846138Y-175641000D01*
X228749376Y-175592619D01*
X228652614Y-175592619D01*
X228168804Y-176608619D02*
X228265566Y-176560238D01*
X228313947Y-176511857D01*
X228362328Y-176415095D01*
X228362328Y-176124809D01*
X228313947Y-176028047D01*
X228265566Y-175979666D01*
X228168804Y-175931285D01*
X228023661Y-175931285D01*
X227926900Y-175979666D01*
X227878519Y-176028047D01*
X227830138Y-176124809D01*
X227830138Y-176415095D01*
X227878519Y-176511857D01*
X227926900Y-176560238D01*
X228023661Y-176608619D01*
X228168804Y-176608619D01*
X226959280Y-175931285D02*
X226959280Y-176608619D01*
X227394709Y-175931285D02*
X227394709Y-176463476D01*
X227346328Y-176560238D01*
X227249566Y-176608619D01*
X227104423Y-176608619D01*
X227007661Y-176560238D01*
X226959280Y-176511857D01*
X226475471Y-175931285D02*
X226475471Y-176608619D01*
X226475471Y-176028047D02*
X226427090Y-175979666D01*
X226330328Y-175931285D01*
X226185185Y-175931285D01*
X226088423Y-175979666D01*
X226040042Y-176076428D01*
X226040042Y-176608619D01*
X225120804Y-176608619D02*
X225120804Y-175592619D01*
X225120804Y-176560238D02*
X225217566Y-176608619D01*
X225411090Y-176608619D01*
X225507852Y-176560238D01*
X225556233Y-176511857D01*
X225604614Y-176415095D01*
X225604614Y-176124809D01*
X225556233Y-176028047D01*
X225507852Y-175979666D01*
X225411090Y-175931285D01*
X225217566Y-175931285D01*
X225120804Y-175979666D01*
X224588614Y-176560238D02*
X224588614Y-176608619D01*
X224636995Y-176705380D01*
X224685376Y-176753761D01*
X223379090Y-175931285D02*
X223379090Y-176947285D01*
X223379090Y-175979666D02*
X223282328Y-175931285D01*
X223088804Y-175931285D01*
X222992042Y-175979666D01*
X222943661Y-176028047D01*
X222895280Y-176124809D01*
X222895280Y-176415095D01*
X222943661Y-176511857D01*
X222992042Y-176560238D01*
X223088804Y-176608619D01*
X223282328Y-176608619D01*
X223379090Y-176560238D01*
X222314709Y-176608619D02*
X222411471Y-176560238D01*
X222459852Y-176463476D01*
X222459852Y-175592619D01*
X221540614Y-176560238D02*
X221637376Y-176608619D01*
X221830900Y-176608619D01*
X221927661Y-176560238D01*
X221976042Y-176463476D01*
X221976042Y-176076428D01*
X221927661Y-175979666D01*
X221830900Y-175931285D01*
X221637376Y-175931285D01*
X221540614Y-175979666D01*
X221492233Y-176076428D01*
X221492233Y-176173190D01*
X221976042Y-176269952D01*
X220621376Y-176608619D02*
X220621376Y-176076428D01*
X220669757Y-175979666D01*
X220766519Y-175931285D01*
X220960042Y-175931285D01*
X221056804Y-175979666D01*
X220621376Y-176560238D02*
X220718138Y-176608619D01*
X220960042Y-176608619D01*
X221056804Y-176560238D01*
X221105185Y-176463476D01*
X221105185Y-176366714D01*
X221056804Y-176269952D01*
X220960042Y-176221571D01*
X220718138Y-176221571D01*
X220621376Y-176173190D01*
X220185947Y-176560238D02*
X220089185Y-176608619D01*
X219895661Y-176608619D01*
X219798900Y-176560238D01*
X219750519Y-176463476D01*
X219750519Y-176415095D01*
X219798900Y-176318333D01*
X219895661Y-176269952D01*
X220040804Y-176269952D01*
X220137566Y-176221571D01*
X220185947Y-176124809D01*
X220185947Y-176076428D01*
X220137566Y-175979666D01*
X220040804Y-175931285D01*
X219895661Y-175931285D01*
X219798900Y-175979666D01*
X218928042Y-176560238D02*
X219024804Y-176608619D01*
X219218328Y-176608619D01*
X219315090Y-176560238D01*
X219363471Y-176463476D01*
X219363471Y-176076428D01*
X219315090Y-175979666D01*
X219218328Y-175931285D01*
X219024804Y-175931285D01*
X218928042Y-175979666D01*
X218879661Y-176076428D01*
X218879661Y-176173190D01*
X219363471Y-176269952D01*
X217234709Y-176560238D02*
X217331471Y-176608619D01*
X217524995Y-176608619D01*
X217621757Y-176560238D01*
X217670138Y-176511857D01*
X217718519Y-176415095D01*
X217718519Y-176124809D01*
X217670138Y-176028047D01*
X217621757Y-175979666D01*
X217524995Y-175931285D01*
X217331471Y-175931285D01*
X217234709Y-175979666D01*
X216654138Y-176608619D02*
X216750900Y-176560238D01*
X216799280Y-176511857D01*
X216847661Y-176415095D01*
X216847661Y-176124809D01*
X216799280Y-176028047D01*
X216750900Y-175979666D01*
X216654138Y-175931285D01*
X216508995Y-175931285D01*
X216412233Y-175979666D01*
X216363852Y-176028047D01*
X216315471Y-176124809D01*
X216315471Y-176415095D01*
X216363852Y-176511857D01*
X216412233Y-176560238D01*
X216508995Y-176608619D01*
X216654138Y-176608619D01*
X215880042Y-175931285D02*
X215880042Y-176608619D01*
X215880042Y-176028047D02*
X215831661Y-175979666D01*
X215734900Y-175931285D01*
X215589757Y-175931285D01*
X215492995Y-175979666D01*
X215444614Y-176076428D01*
X215444614Y-176608619D01*
X215105947Y-175931285D02*
X214718900Y-175931285D01*
X214960804Y-175592619D02*
X214960804Y-176463476D01*
X214912423Y-176560238D01*
X214815661Y-176608619D01*
X214718900Y-176608619D01*
X213944804Y-176608619D02*
X213944804Y-176076428D01*
X213993185Y-175979666D01*
X214089947Y-175931285D01*
X214283471Y-175931285D01*
X214380233Y-175979666D01*
X213944804Y-176560238D02*
X214041566Y-176608619D01*
X214283471Y-176608619D01*
X214380233Y-176560238D01*
X214428614Y-176463476D01*
X214428614Y-176366714D01*
X214380233Y-176269952D01*
X214283471Y-176221571D01*
X214041566Y-176221571D01*
X213944804Y-176173190D01*
X213025566Y-176560238D02*
X213122328Y-176608619D01*
X213315852Y-176608619D01*
X213412614Y-176560238D01*
X213460995Y-176511857D01*
X213509376Y-176415095D01*
X213509376Y-176124809D01*
X213460995Y-176028047D01*
X213412614Y-175979666D01*
X213315852Y-175931285D01*
X213122328Y-175931285D01*
X213025566Y-175979666D01*
X212735280Y-175931285D02*
X212348233Y-175931285D01*
X212590138Y-175592619D02*
X212590138Y-176463476D01*
X212541757Y-176560238D01*
X212444995Y-176608619D01*
X212348233Y-176608619D01*
X210800042Y-175931285D02*
X210800042Y-176608619D01*
X211235471Y-175931285D02*
X211235471Y-176463476D01*
X211187090Y-176560238D01*
X211090328Y-176608619D01*
X210945185Y-176608619D01*
X210848423Y-176560238D01*
X210800042Y-176511857D01*
X210364614Y-176560238D02*
X210267852Y-176608619D01*
X210074328Y-176608619D01*
X209977566Y-176560238D01*
X209929185Y-176463476D01*
X209929185Y-176415095D01*
X209977566Y-176318333D01*
X210074328Y-176269952D01*
X210219471Y-176269952D01*
X210316233Y-176221571D01*
X210364614Y-176124809D01*
X210364614Y-176076428D01*
X210316233Y-175979666D01*
X210219471Y-175931285D01*
X210074328Y-175931285D01*
X209977566Y-175979666D01*
X209493757Y-176511857D02*
X209445376Y-176560238D01*
X209493757Y-176608619D01*
X209542138Y-176560238D01*
X209493757Y-176511857D01*
X209493757Y-176608619D01*
X209493757Y-176221571D02*
X209542138Y-175641000D01*
X209493757Y-175592619D01*
X209445376Y-175641000D01*
X209493757Y-176221571D01*
X209493757Y-175592619D01*
X230732995Y-180164619D02*
X230732995Y-179148619D01*
X230491090Y-179148619D01*
X230345947Y-179197000D01*
X230249185Y-179293761D01*
X230200804Y-179390523D01*
X230152423Y-179584047D01*
X230152423Y-179729190D01*
X230200804Y-179922714D01*
X230249185Y-180019476D01*
X230345947Y-180116238D01*
X230491090Y-180164619D01*
X230732995Y-180164619D01*
X229571852Y-180164619D02*
X229668614Y-180116238D01*
X229716995Y-180067857D01*
X229765376Y-179971095D01*
X229765376Y-179680809D01*
X229716995Y-179584047D01*
X229668614Y-179535666D01*
X229571852Y-179487285D01*
X229426709Y-179487285D01*
X229329947Y-179535666D01*
X229281566Y-179584047D01*
X229233185Y-179680809D01*
X229233185Y-179971095D01*
X229281566Y-180067857D01*
X229329947Y-180116238D01*
X229426709Y-180164619D01*
X229571852Y-180164619D01*
X228362328Y-179487285D02*
X228362328Y-180164619D01*
X228797757Y-179487285D02*
X228797757Y-180019476D01*
X228749376Y-180116238D01*
X228652614Y-180164619D01*
X228507471Y-180164619D01*
X228410709Y-180116238D01*
X228362328Y-180067857D01*
X227443090Y-179487285D02*
X227443090Y-180309761D01*
X227491471Y-180406523D01*
X227539852Y-180454904D01*
X227636614Y-180503285D01*
X227781757Y-180503285D01*
X227878519Y-180454904D01*
X227443090Y-180116238D02*
X227539852Y-180164619D01*
X227733376Y-180164619D01*
X227830138Y-180116238D01*
X227878519Y-180067857D01*
X227926900Y-179971095D01*
X227926900Y-179680809D01*
X227878519Y-179584047D01*
X227830138Y-179535666D01*
X227733376Y-179487285D01*
X227539852Y-179487285D01*
X227443090Y-179535666D01*
X226814138Y-180164619D02*
X226910900Y-180116238D01*
X226959280Y-180019476D01*
X226959280Y-179148619D01*
X225991661Y-180164619D02*
X225991661Y-179632428D01*
X226040042Y-179535666D01*
X226136804Y-179487285D01*
X226330328Y-179487285D01*
X226427090Y-179535666D01*
X225991661Y-180116238D02*
X226088423Y-180164619D01*
X226330328Y-180164619D01*
X226427090Y-180116238D01*
X226475471Y-180019476D01*
X226475471Y-179922714D01*
X226427090Y-179825952D01*
X226330328Y-179777571D01*
X226088423Y-179777571D01*
X225991661Y-179729190D01*
X225556233Y-180116238D02*
X225459471Y-180164619D01*
X225265947Y-180164619D01*
X225169185Y-180116238D01*
X225120804Y-180019476D01*
X225120804Y-179971095D01*
X225169185Y-179874333D01*
X225265947Y-179825952D01*
X225411090Y-179825952D01*
X225507852Y-179777571D01*
X225556233Y-179680809D01*
X225556233Y-179632428D01*
X225507852Y-179535666D01*
X225411090Y-179487285D01*
X225265947Y-179487285D01*
X225169185Y-179535666D01*
X223911280Y-180164619D02*
X223911280Y-179148619D01*
X223572614Y-179874333D01*
X223233947Y-179148619D01*
X223233947Y-180164619D01*
X222314709Y-180164619D02*
X222314709Y-179632428D01*
X222363090Y-179535666D01*
X222459852Y-179487285D01*
X222653376Y-179487285D01*
X222750138Y-179535666D01*
X222314709Y-180116238D02*
X222411471Y-180164619D01*
X222653376Y-180164619D01*
X222750138Y-180116238D01*
X222798519Y-180019476D01*
X222798519Y-179922714D01*
X222750138Y-179825952D01*
X222653376Y-179777571D01*
X222411471Y-179777571D01*
X222314709Y-179729190D01*
X221685757Y-180164619D02*
X221782519Y-180116238D01*
X221830900Y-180019476D01*
X221830900Y-179148619D01*
X221298709Y-179487285D02*
X221298709Y-180164619D01*
X221298709Y-179584047D02*
X221250328Y-179535666D01*
X221153566Y-179487285D01*
X221008423Y-179487285D01*
X220911661Y-179535666D01*
X220863280Y-179632428D01*
X220863280Y-180164619D01*
X219944042Y-180164619D02*
X219944042Y-179632428D01*
X219992423Y-179535666D01*
X220089185Y-179487285D01*
X220282709Y-179487285D01*
X220379471Y-179535666D01*
X219944042Y-180116238D02*
X220040804Y-180164619D01*
X220282709Y-180164619D01*
X220379471Y-180116238D01*
X220427852Y-180019476D01*
X220427852Y-179922714D01*
X220379471Y-179825952D01*
X220282709Y-179777571D01*
X220040804Y-179777571D01*
X219944042Y-179729190D01*
X219605376Y-179487285D02*
X219218328Y-179487285D01*
X219460233Y-179148619D02*
X219460233Y-180019476D01*
X219411852Y-180116238D01*
X219315090Y-180164619D01*
X219218328Y-180164619D01*
X218879661Y-180164619D02*
X218879661Y-179487285D01*
X218879661Y-179148619D02*
X218928042Y-179197000D01*
X218879661Y-179245380D01*
X218831280Y-179197000D01*
X218879661Y-179148619D01*
X218879661Y-179245380D01*
X217331471Y-180551666D02*
X217379852Y-180503285D01*
X217476614Y-180358142D01*
X217524995Y-180261380D01*
X217573376Y-180116238D01*
X217621757Y-179874333D01*
X217621757Y-179680809D01*
X217573376Y-179438904D01*
X217524995Y-179293761D01*
X217476614Y-179197000D01*
X217379852Y-179051857D01*
X217331471Y-179003476D01*
X216944423Y-180164619D02*
X216944423Y-179148619D01*
X216363852Y-180164619D02*
X216799280Y-179584047D01*
X216363852Y-179148619D02*
X216944423Y-179729190D01*
X215928423Y-180164619D02*
X215928423Y-179148619D01*
X215686519Y-179148619D01*
X215541376Y-179197000D01*
X215444614Y-179293761D01*
X215396233Y-179390523D01*
X215347852Y-179584047D01*
X215347852Y-179729190D01*
X215396233Y-179922714D01*
X215444614Y-180019476D01*
X215541376Y-180116238D01*
X215686519Y-180164619D01*
X215928423Y-180164619D01*
X214960804Y-179245380D02*
X214912423Y-179197000D01*
X214815661Y-179148619D01*
X214573757Y-179148619D01*
X214476995Y-179197000D01*
X214428614Y-179245380D01*
X214380233Y-179342142D01*
X214380233Y-179438904D01*
X214428614Y-179584047D01*
X215009185Y-180164619D01*
X214380233Y-180164619D01*
X213944804Y-180164619D02*
X213944804Y-179148619D01*
X213364233Y-180164619D02*
X213799661Y-179584047D01*
X213364233Y-179148619D02*
X213944804Y-179729190D01*
X212928804Y-180164619D02*
X212928804Y-179148619D01*
X212686900Y-179148619D01*
X212541757Y-179197000D01*
X212444995Y-179293761D01*
X212396614Y-179390523D01*
X212348233Y-179584047D01*
X212348233Y-179729190D01*
X212396614Y-179922714D01*
X212444995Y-180019476D01*
X212541757Y-180116238D01*
X212686900Y-180164619D01*
X212928804Y-180164619D01*
X211912804Y-180164619D02*
X211912804Y-179148619D01*
X211670900Y-179148619D01*
X211525757Y-179197000D01*
X211428995Y-179293761D01*
X211380614Y-179390523D01*
X211332233Y-179584047D01*
X211332233Y-179729190D01*
X211380614Y-179922714D01*
X211428995Y-180019476D01*
X211525757Y-180116238D01*
X211670900Y-180164619D01*
X211912804Y-180164619D01*
X210993566Y-180551666D02*
X210945185Y-180503285D01*
X210848423Y-180358142D01*
X210800042Y-180261380D01*
X210751661Y-180116238D01*
X210703280Y-179874333D01*
X210703280Y-179680809D01*
X210751661Y-179438904D01*
X210800042Y-179293761D01*
X210848423Y-179197000D01*
X210945185Y-179051857D01*
X210993566Y-179003476D01*
X230732995Y-181942619D02*
X230732995Y-180926619D01*
X230394328Y-181652333D01*
X230055661Y-180926619D01*
X230055661Y-181942619D01*
X229136423Y-181942619D02*
X229136423Y-181410428D01*
X229184804Y-181313666D01*
X229281566Y-181265285D01*
X229475090Y-181265285D01*
X229571852Y-181313666D01*
X229136423Y-181894238D02*
X229233185Y-181942619D01*
X229475090Y-181942619D01*
X229571852Y-181894238D01*
X229620233Y-181797476D01*
X229620233Y-181700714D01*
X229571852Y-181603952D01*
X229475090Y-181555571D01*
X229233185Y-181555571D01*
X229136423Y-181507190D01*
X228652614Y-181942619D02*
X228652614Y-181265285D01*
X228652614Y-181458809D02*
X228604233Y-181362047D01*
X228555852Y-181313666D01*
X228459090Y-181265285D01*
X228362328Y-181265285D01*
X228023661Y-181942619D02*
X228023661Y-180926619D01*
X227926900Y-181555571D02*
X227636614Y-181942619D01*
X227636614Y-181265285D02*
X228023661Y-181652333D01*
X226427090Y-181942619D02*
X226427090Y-180926619D01*
X226088423Y-181652333D01*
X225749757Y-180926619D01*
X225749757Y-181942619D01*
X224830519Y-181942619D02*
X224830519Y-181410428D01*
X224878900Y-181313666D01*
X224975661Y-181265285D01*
X225169185Y-181265285D01*
X225265947Y-181313666D01*
X224830519Y-181894238D02*
X224927280Y-181942619D01*
X225169185Y-181942619D01*
X225265947Y-181894238D01*
X225314328Y-181797476D01*
X225314328Y-181700714D01*
X225265947Y-181603952D01*
X225169185Y-181555571D01*
X224927280Y-181555571D01*
X224830519Y-181507190D01*
X224201566Y-181942619D02*
X224298328Y-181894238D01*
X224346709Y-181797476D01*
X224346709Y-180926619D01*
X223814519Y-181265285D02*
X223814519Y-181942619D01*
X223814519Y-181362047D02*
X223766138Y-181313666D01*
X223669376Y-181265285D01*
X223524233Y-181265285D01*
X223427471Y-181313666D01*
X223379090Y-181410428D01*
X223379090Y-181942619D01*
X222459852Y-181942619D02*
X222459852Y-181410428D01*
X222508233Y-181313666D01*
X222604995Y-181265285D01*
X222798519Y-181265285D01*
X222895280Y-181313666D01*
X222459852Y-181894238D02*
X222556614Y-181942619D01*
X222798519Y-181942619D01*
X222895280Y-181894238D01*
X222943661Y-181797476D01*
X222943661Y-181700714D01*
X222895280Y-181603952D01*
X222798519Y-181555571D01*
X222556614Y-181555571D01*
X222459852Y-181507190D01*
X222121185Y-181265285D02*
X221734138Y-181265285D01*
X221976042Y-180926619D02*
X221976042Y-181797476D01*
X221927661Y-181894238D01*
X221830900Y-181942619D01*
X221734138Y-181942619D01*
X221395471Y-181942619D02*
X221395471Y-181265285D01*
X221395471Y-180926619D02*
X221443852Y-180975000D01*
X221395471Y-181023380D01*
X221347090Y-180975000D01*
X221395471Y-180926619D01*
X221395471Y-181023380D01*
X219847280Y-182329666D02*
X219895661Y-182281285D01*
X219992423Y-182136142D01*
X220040804Y-182039380D01*
X220089185Y-181894238D01*
X220137566Y-181652333D01*
X220137566Y-181458809D01*
X220089185Y-181216904D01*
X220040804Y-181071761D01*
X219992423Y-180975000D01*
X219895661Y-180829857D01*
X219847280Y-180781476D01*
X219460233Y-181942619D02*
X219460233Y-180926619D01*
X218879661Y-181942619D02*
X219315090Y-181362047D01*
X218879661Y-180926619D02*
X219460233Y-181507190D01*
X218444233Y-181942619D02*
X218444233Y-180926619D01*
X217863661Y-181942619D01*
X217863661Y-180926619D01*
X216944423Y-181265285D02*
X216944423Y-181942619D01*
X217186328Y-180878238D02*
X217428233Y-181603952D01*
X216799280Y-181603952D01*
X216412233Y-181942619D02*
X216412233Y-180926619D01*
X215928423Y-180926619D02*
X215928423Y-181749095D01*
X215880042Y-181845857D01*
X215831661Y-181894238D01*
X215734900Y-181942619D01*
X215541376Y-181942619D01*
X215444614Y-181894238D01*
X215396233Y-181845857D01*
X215347852Y-181749095D01*
X215347852Y-180926619D01*
X214864042Y-181942619D02*
X214864042Y-180926619D01*
X214622138Y-180926619D01*
X214476995Y-180975000D01*
X214380233Y-181071761D01*
X214331852Y-181168523D01*
X214283471Y-181362047D01*
X214283471Y-181507190D01*
X214331852Y-181700714D01*
X214380233Y-181797476D01*
X214476995Y-181894238D01*
X214622138Y-181942619D01*
X214864042Y-181942619D01*
X213944804Y-182329666D02*
X213896423Y-182281285D01*
X213799661Y-182136142D01*
X213751280Y-182039380D01*
X213702900Y-181894238D01*
X213654519Y-181652333D01*
X213654519Y-181458809D01*
X213702900Y-181216904D01*
X213751280Y-181071761D01*
X213799661Y-180975000D01*
X213896423Y-180829857D01*
X213944804Y-180781476D01*
X230297566Y-185498619D02*
X230297566Y-184482619D01*
X230297566Y-185450238D02*
X230394328Y-185498619D01*
X230587852Y-185498619D01*
X230684614Y-185450238D01*
X230732995Y-185401857D01*
X230781376Y-185305095D01*
X230781376Y-185014809D01*
X230732995Y-184918047D01*
X230684614Y-184869666D01*
X230587852Y-184821285D01*
X230394328Y-184821285D01*
X230297566Y-184869666D01*
X229668614Y-185498619D02*
X229765376Y-185450238D01*
X229813757Y-185401857D01*
X229862138Y-185305095D01*
X229862138Y-185014809D01*
X229813757Y-184918047D01*
X229765376Y-184869666D01*
X229668614Y-184821285D01*
X229523471Y-184821285D01*
X229426709Y-184869666D01*
X229378328Y-184918047D01*
X229329947Y-185014809D01*
X229329947Y-185305095D01*
X229378328Y-185401857D01*
X229426709Y-185450238D01*
X229523471Y-185498619D01*
X229668614Y-185498619D01*
X228459090Y-184821285D02*
X228459090Y-185498619D01*
X228894519Y-184821285D02*
X228894519Y-185353476D01*
X228846138Y-185450238D01*
X228749376Y-185498619D01*
X228604233Y-185498619D01*
X228507471Y-185450238D01*
X228459090Y-185401857D01*
X227539852Y-184821285D02*
X227539852Y-185643761D01*
X227588233Y-185740523D01*
X227636614Y-185788904D01*
X227733376Y-185837285D01*
X227878519Y-185837285D01*
X227975280Y-185788904D01*
X227539852Y-185450238D02*
X227636614Y-185498619D01*
X227830138Y-185498619D01*
X227926900Y-185450238D01*
X227975280Y-185401857D01*
X228023661Y-185305095D01*
X228023661Y-185014809D01*
X227975280Y-184918047D01*
X227926900Y-184869666D01*
X227830138Y-184821285D01*
X227636614Y-184821285D01*
X227539852Y-184869666D01*
X226910900Y-185498619D02*
X227007661Y-185450238D01*
X227056042Y-185353476D01*
X227056042Y-184482619D01*
X226088423Y-185498619D02*
X226088423Y-184966428D01*
X226136804Y-184869666D01*
X226233566Y-184821285D01*
X226427090Y-184821285D01*
X226523852Y-184869666D01*
X226088423Y-185450238D02*
X226185185Y-185498619D01*
X226427090Y-185498619D01*
X226523852Y-185450238D01*
X226572233Y-185353476D01*
X226572233Y-185256714D01*
X226523852Y-185159952D01*
X226427090Y-185111571D01*
X226185185Y-185111571D01*
X226088423Y-185063190D01*
X225652995Y-185450238D02*
X225556233Y-185498619D01*
X225362709Y-185498619D01*
X225265947Y-185450238D01*
X225217566Y-185353476D01*
X225217566Y-185305095D01*
X225265947Y-185208333D01*
X225362709Y-185159952D01*
X225507852Y-185159952D01*
X225604614Y-185111571D01*
X225652995Y-185014809D01*
X225652995Y-184966428D01*
X225604614Y-184869666D01*
X225507852Y-184821285D01*
X225362709Y-184821285D01*
X225265947Y-184869666D01*
X224782138Y-185401857D02*
X224733757Y-185450238D01*
X224782138Y-185498619D01*
X224830519Y-185450238D01*
X224782138Y-185401857D01*
X224782138Y-185498619D01*
X224298328Y-185498619D02*
X224298328Y-184821285D01*
X224298328Y-184918047D02*
X224249947Y-184869666D01*
X224153185Y-184821285D01*
X224008042Y-184821285D01*
X223911280Y-184869666D01*
X223862900Y-184966428D01*
X223862900Y-185498619D01*
X223862900Y-184966428D02*
X223814519Y-184869666D01*
X223717757Y-184821285D01*
X223572614Y-184821285D01*
X223475852Y-184869666D01*
X223427471Y-184966428D01*
X223427471Y-185498619D01*
X222508233Y-185498619D02*
X222508233Y-184966428D01*
X222556614Y-184869666D01*
X222653376Y-184821285D01*
X222846900Y-184821285D01*
X222943661Y-184869666D01*
X222508233Y-185450238D02*
X222604995Y-185498619D01*
X222846900Y-185498619D01*
X222943661Y-185450238D01*
X222992042Y-185353476D01*
X222992042Y-185256714D01*
X222943661Y-185159952D01*
X222846900Y-185111571D01*
X222604995Y-185111571D01*
X222508233Y-185063190D01*
X221879280Y-185498619D02*
X221976042Y-185450238D01*
X222024423Y-185353476D01*
X222024423Y-184482619D01*
X221492233Y-184821285D02*
X221492233Y-185498619D01*
X221492233Y-184918047D02*
X221443852Y-184869666D01*
X221347090Y-184821285D01*
X221201947Y-184821285D01*
X221105185Y-184869666D01*
X221056804Y-184966428D01*
X221056804Y-185498619D01*
X220137566Y-185498619D02*
X220137566Y-184966428D01*
X220185947Y-184869666D01*
X220282709Y-184821285D01*
X220476233Y-184821285D01*
X220572995Y-184869666D01*
X220137566Y-185450238D02*
X220234328Y-185498619D01*
X220476233Y-185498619D01*
X220572995Y-185450238D01*
X220621376Y-185353476D01*
X220621376Y-185256714D01*
X220572995Y-185159952D01*
X220476233Y-185111571D01*
X220234328Y-185111571D01*
X220137566Y-185063190D01*
X219798900Y-184821285D02*
X219411852Y-184821285D01*
X219653757Y-184482619D02*
X219653757Y-185353476D01*
X219605376Y-185450238D01*
X219508614Y-185498619D01*
X219411852Y-185498619D01*
X219073185Y-185498619D02*
X219073185Y-184821285D01*
X219073185Y-184482619D02*
X219121566Y-184531000D01*
X219073185Y-184579380D01*
X219024804Y-184531000D01*
X219073185Y-184482619D01*
X219073185Y-184579380D01*
X217960423Y-185014809D02*
X218008804Y-184966428D01*
X218105566Y-184918047D01*
X218202328Y-184918047D01*
X218299090Y-184966428D01*
X218347471Y-185014809D01*
X218395852Y-185111571D01*
X218395852Y-185208333D01*
X218347471Y-185305095D01*
X218299090Y-185353476D01*
X218202328Y-185401857D01*
X218105566Y-185401857D01*
X218008804Y-185353476D01*
X217960423Y-185305095D01*
X217960423Y-184918047D02*
X217960423Y-185305095D01*
X217912042Y-185353476D01*
X217863661Y-185353476D01*
X217766900Y-185305095D01*
X217718519Y-185208333D01*
X217718519Y-184966428D01*
X217815280Y-184821285D01*
X217960423Y-184724523D01*
X218153947Y-184676142D01*
X218347471Y-184724523D01*
X218492614Y-184821285D01*
X218589376Y-184966428D01*
X218637757Y-185159952D01*
X218589376Y-185353476D01*
X218492614Y-185498619D01*
X218347471Y-185595380D01*
X218153947Y-185643761D01*
X217960423Y-185595380D01*
X217815280Y-185498619D01*
X216847661Y-184821285D02*
X216847661Y-185643761D01*
X216896042Y-185740523D01*
X216944423Y-185788904D01*
X217041185Y-185837285D01*
X217186328Y-185837285D01*
X217283090Y-185788904D01*
X216847661Y-185450238D02*
X216944423Y-185498619D01*
X217137947Y-185498619D01*
X217234709Y-185450238D01*
X217283090Y-185401857D01*
X217331471Y-185305095D01*
X217331471Y-185014809D01*
X217283090Y-184918047D01*
X217234709Y-184869666D01*
X217137947Y-184821285D01*
X216944423Y-184821285D01*
X216847661Y-184869666D01*
X216363852Y-185498619D02*
X216363852Y-184821285D01*
X216363852Y-184918047D02*
X216315471Y-184869666D01*
X216218709Y-184821285D01*
X216073566Y-184821285D01*
X215976804Y-184869666D01*
X215928423Y-184966428D01*
X215928423Y-185498619D01*
X215928423Y-184966428D02*
X215880042Y-184869666D01*
X215783280Y-184821285D01*
X215638138Y-184821285D01*
X215541376Y-184869666D01*
X215492995Y-184966428D01*
X215492995Y-185498619D01*
X214573757Y-185498619D02*
X214573757Y-184966428D01*
X214622138Y-184869666D01*
X214718900Y-184821285D01*
X214912423Y-184821285D01*
X215009185Y-184869666D01*
X214573757Y-185450238D02*
X214670519Y-185498619D01*
X214912423Y-185498619D01*
X215009185Y-185450238D01*
X215057566Y-185353476D01*
X215057566Y-185256714D01*
X215009185Y-185159952D01*
X214912423Y-185111571D01*
X214670519Y-185111571D01*
X214573757Y-185063190D01*
X214089947Y-185498619D02*
X214089947Y-184821285D01*
X214089947Y-184482619D02*
X214138328Y-184531000D01*
X214089947Y-184579380D01*
X214041566Y-184531000D01*
X214089947Y-184482619D01*
X214089947Y-184579380D01*
X213460995Y-185498619D02*
X213557757Y-185450238D01*
X213606138Y-185353476D01*
X213606138Y-184482619D01*
X213073947Y-185401857D02*
X213025566Y-185450238D01*
X213073947Y-185498619D01*
X213122328Y-185450238D01*
X213073947Y-185401857D01*
X213073947Y-185498619D01*
X212154709Y-185450238D02*
X212251471Y-185498619D01*
X212444995Y-185498619D01*
X212541757Y-185450238D01*
X212590138Y-185401857D01*
X212638519Y-185305095D01*
X212638519Y-185014809D01*
X212590138Y-184918047D01*
X212541757Y-184869666D01*
X212444995Y-184821285D01*
X212251471Y-184821285D01*
X212154709Y-184869666D01*
X211574138Y-185498619D02*
X211670900Y-185450238D01*
X211719280Y-185401857D01*
X211767661Y-185305095D01*
X211767661Y-185014809D01*
X211719280Y-184918047D01*
X211670900Y-184869666D01*
X211574138Y-184821285D01*
X211428995Y-184821285D01*
X211332233Y-184869666D01*
X211283852Y-184918047D01*
X211235471Y-185014809D01*
X211235471Y-185305095D01*
X211283852Y-185401857D01*
X211332233Y-185450238D01*
X211428995Y-185498619D01*
X211574138Y-185498619D01*
X210800042Y-185498619D02*
X210800042Y-184821285D01*
X210800042Y-184918047D02*
X210751661Y-184869666D01*
X210654900Y-184821285D01*
X210509757Y-184821285D01*
X210412995Y-184869666D01*
X210364614Y-184966428D01*
X210364614Y-185498619D01*
X210364614Y-184966428D02*
X210316233Y-184869666D01*
X210219471Y-184821285D01*
X210074328Y-184821285D01*
X209977566Y-184869666D01*
X209929185Y-184966428D01*
X209929185Y-185498619D01*
X230781376Y-186357380D02*
X230732995Y-186309000D01*
X230636233Y-186260619D01*
X230394328Y-186260619D01*
X230297566Y-186309000D01*
X230249185Y-186357380D01*
X230200804Y-186454142D01*
X230200804Y-186550904D01*
X230249185Y-186696047D01*
X230829757Y-187276619D01*
X230200804Y-187276619D01*
X229571852Y-186260619D02*
X229475090Y-186260619D01*
X229378328Y-186309000D01*
X229329947Y-186357380D01*
X229281566Y-186454142D01*
X229233185Y-186647666D01*
X229233185Y-186889571D01*
X229281566Y-187083095D01*
X229329947Y-187179857D01*
X229378328Y-187228238D01*
X229475090Y-187276619D01*
X229571852Y-187276619D01*
X229668614Y-187228238D01*
X229716995Y-187179857D01*
X229765376Y-187083095D01*
X229813757Y-186889571D01*
X229813757Y-186647666D01*
X229765376Y-186454142D01*
X229716995Y-186357380D01*
X229668614Y-186309000D01*
X229571852Y-186260619D01*
X228265566Y-187276619D02*
X228846138Y-187276619D01*
X228555852Y-187276619D02*
X228555852Y-186260619D01*
X228652614Y-186405761D01*
X228749376Y-186502523D01*
X228846138Y-186550904D01*
X227830138Y-186889571D02*
X227056042Y-186889571D01*
X226523852Y-187276619D02*
X226330328Y-187276619D01*
X226233566Y-187228238D01*
X226185185Y-187179857D01*
X226088423Y-187034714D01*
X226040042Y-186841190D01*
X226040042Y-186454142D01*
X226088423Y-186357380D01*
X226136804Y-186309000D01*
X226233566Y-186260619D01*
X226427090Y-186260619D01*
X226523852Y-186309000D01*
X226572233Y-186357380D01*
X226620614Y-186454142D01*
X226620614Y-186696047D01*
X226572233Y-186792809D01*
X226523852Y-186841190D01*
X226427090Y-186889571D01*
X226233566Y-186889571D01*
X226136804Y-186841190D01*
X226088423Y-186792809D01*
X226040042Y-186696047D01*
X225556233Y-187276619D02*
X225362709Y-187276619D01*
X225265947Y-187228238D01*
X225217566Y-187179857D01*
X225120804Y-187034714D01*
X225072423Y-186841190D01*
X225072423Y-186454142D01*
X225120804Y-186357380D01*
X225169185Y-186309000D01*
X225265947Y-186260619D01*
X225459471Y-186260619D01*
X225556233Y-186309000D01*
X225604614Y-186357380D01*
X225652995Y-186454142D01*
X225652995Y-186696047D01*
X225604614Y-186792809D01*
X225556233Y-186841190D01*
X225459471Y-186889571D01*
X225265947Y-186889571D01*
X225169185Y-186841190D01*
X225120804Y-186792809D01*
X225072423Y-186696047D01*
X224733757Y-186260619D02*
X224104804Y-186260619D01*
X224443471Y-186647666D01*
X224298328Y-186647666D01*
X224201566Y-186696047D01*
X224153185Y-186744428D01*
X224104804Y-186841190D01*
X224104804Y-187083095D01*
X224153185Y-187179857D01*
X224201566Y-187228238D01*
X224298328Y-187276619D01*
X224588614Y-187276619D01*
X224685376Y-187228238D01*
X224733757Y-187179857D01*
X223669376Y-186889571D02*
X222895280Y-186889571D01*
X221976042Y-186260619D02*
X222169566Y-186260619D01*
X222266328Y-186309000D01*
X222314709Y-186357380D01*
X222411471Y-186502523D01*
X222459852Y-186696047D01*
X222459852Y-187083095D01*
X222411471Y-187179857D01*
X222363090Y-187228238D01*
X222266328Y-187276619D01*
X222072804Y-187276619D01*
X221976042Y-187228238D01*
X221927661Y-187179857D01*
X221879280Y-187083095D01*
X221879280Y-186841190D01*
X221927661Y-186744428D01*
X221976042Y-186696047D01*
X222072804Y-186647666D01*
X222266328Y-186647666D01*
X222363090Y-186696047D01*
X222411471Y-186744428D01*
X222459852Y-186841190D01*
X221540614Y-186260619D02*
X220863280Y-186260619D01*
X221298709Y-187276619D01*
X219944042Y-187276619D02*
X220524614Y-187276619D01*
X220234328Y-187276619D02*
X220234328Y-186260619D01*
X220331090Y-186405761D01*
X220427852Y-186502523D01*
X220524614Y-186550904D01*
X219073185Y-186260619D02*
X219266709Y-186260619D01*
X219363471Y-186309000D01*
X219411852Y-186357380D01*
X219508614Y-186502523D01*
X219556995Y-186696047D01*
X219556995Y-187083095D01*
X219508614Y-187179857D01*
X219460233Y-187228238D01*
X219363471Y-187276619D01*
X219169947Y-187276619D01*
X219073185Y-187228238D01*
X219024804Y-187179857D01*
X218976423Y-187083095D01*
X218976423Y-186841190D01*
X219024804Y-186744428D01*
X219073185Y-186696047D01*
X219169947Y-186647666D01*
X219363471Y-186647666D01*
X219460233Y-186696047D01*
X219508614Y-186744428D01*
X219556995Y-186841190D01*
D11*
X230659285Y-168866428D02*
X230587857Y-168795000D01*
X230445000Y-168723571D01*
X230087857Y-168723571D01*
X229945000Y-168795000D01*
X229873571Y-168866428D01*
X229802142Y-169009285D01*
X229802142Y-169152142D01*
X229873571Y-169366428D01*
X230730714Y-170223571D01*
X229802142Y-170223571D01*
X228873571Y-168723571D02*
X228730714Y-168723571D01*
X228587857Y-168795000D01*
X228516428Y-168866428D01*
X228445000Y-169009285D01*
X228373571Y-169295000D01*
X228373571Y-169652142D01*
X228445000Y-169937857D01*
X228516428Y-170080714D01*
X228587857Y-170152142D01*
X228730714Y-170223571D01*
X228873571Y-170223571D01*
X229016428Y-170152142D01*
X229087857Y-170080714D01*
X229159285Y-169937857D01*
X229230714Y-169652142D01*
X229230714Y-169295000D01*
X229159285Y-169009285D01*
X229087857Y-168866428D01*
X229016428Y-168795000D01*
X228873571Y-168723571D01*
X226945000Y-170223571D02*
X227802142Y-170223571D01*
X227373571Y-170223571D02*
X227373571Y-168723571D01*
X227516428Y-168937857D01*
X227659285Y-169080714D01*
X227802142Y-169152142D01*
X226087857Y-169366428D02*
X226230714Y-169295000D01*
X226302142Y-169223571D01*
X226373571Y-169080714D01*
X226373571Y-169009285D01*
X226302142Y-168866428D01*
X226230714Y-168795000D01*
X226087857Y-168723571D01*
X225802142Y-168723571D01*
X225659285Y-168795000D01*
X225587857Y-168866428D01*
X225516428Y-169009285D01*
X225516428Y-169080714D01*
X225587857Y-169223571D01*
X225659285Y-169295000D01*
X225802142Y-169366428D01*
X226087857Y-169366428D01*
X226230714Y-169437857D01*
X226302142Y-169509285D01*
X226373571Y-169652142D01*
X226373571Y-169937857D01*
X226302142Y-170080714D01*
X226230714Y-170152142D01*
X226087857Y-170223571D01*
X225802142Y-170223571D01*
X225659285Y-170152142D01*
X225587857Y-170080714D01*
X225516428Y-169937857D01*
X225516428Y-169652142D01*
X225587857Y-169509285D01*
X225659285Y-169437857D01*
X225802142Y-169366428D01*
X224873571Y-169652142D02*
X223730714Y-169652142D01*
X222730714Y-168723571D02*
X222587857Y-168723571D01*
X222445000Y-168795000D01*
X222373571Y-168866428D01*
X222302142Y-169009285D01*
X222230714Y-169295000D01*
X222230714Y-169652142D01*
X222302142Y-169937857D01*
X222373571Y-170080714D01*
X222445000Y-170152142D01*
X222587857Y-170223571D01*
X222730714Y-170223571D01*
X222873571Y-170152142D01*
X222945000Y-170080714D01*
X223016428Y-169937857D01*
X223087857Y-169652142D01*
X223087857Y-169295000D01*
X223016428Y-169009285D01*
X222945000Y-168866428D01*
X222873571Y-168795000D01*
X222730714Y-168723571D01*
X221730714Y-168723571D02*
X220802142Y-168723571D01*
X221302142Y-169295000D01*
X221087857Y-169295000D01*
X220945000Y-169366428D01*
X220873571Y-169437857D01*
X220802142Y-169580714D01*
X220802142Y-169937857D01*
X220873571Y-170080714D01*
X220945000Y-170152142D01*
X221087857Y-170223571D01*
X221516428Y-170223571D01*
X221659285Y-170152142D01*
X221730714Y-170080714D01*
X220159285Y-169652142D02*
X219016428Y-169652142D01*
X218373571Y-168866428D02*
X218302142Y-168795000D01*
X218159285Y-168723571D01*
X217802142Y-168723571D01*
X217659285Y-168795000D01*
X217587857Y-168866428D01*
X217516428Y-169009285D01*
X217516428Y-169152142D01*
X217587857Y-169366428D01*
X218445000Y-170223571D01*
X217516428Y-170223571D01*
X216230714Y-169223571D02*
X216230714Y-170223571D01*
X216587857Y-168652142D02*
X216945000Y-169723571D01*
X216016428Y-169723571D01*
X214302142Y-169652142D02*
X213159285Y-169652142D01*
X211302142Y-170223571D02*
X211302142Y-168723571D01*
X210730714Y-168723571D01*
X210587857Y-168795000D01*
X210516428Y-168866428D01*
X210445000Y-169009285D01*
X210445000Y-169223571D01*
X210516428Y-169366428D01*
X210587857Y-169437857D01*
X210730714Y-169509285D01*
X211302142Y-169509285D01*
X209802142Y-170223571D02*
X209802142Y-169223571D01*
X209802142Y-168723571D02*
X209873571Y-168795000D01*
X209802142Y-168866428D01*
X209730714Y-168795000D01*
X209802142Y-168723571D01*
X209802142Y-168866428D01*
X208445000Y-170152142D02*
X208587857Y-170223571D01*
X208873571Y-170223571D01*
X209016428Y-170152142D01*
X209087857Y-170080714D01*
X209159285Y-169937857D01*
X209159285Y-169509285D01*
X209087857Y-169366428D01*
X209016428Y-169295000D01*
X208873571Y-169223571D01*
X208587857Y-169223571D01*
X208445000Y-169295000D01*
X207587857Y-170223571D02*
X207730714Y-170152142D01*
X207802142Y-170080714D01*
X207873571Y-169937857D01*
X207873571Y-169509285D01*
X207802142Y-169366428D01*
X207730714Y-169295000D01*
X207587857Y-169223571D01*
X207373571Y-169223571D01*
X207230714Y-169295000D01*
X207159285Y-169366428D01*
X207087857Y-169509285D01*
X207087857Y-169937857D01*
X207159285Y-170080714D01*
X207230714Y-170152142D01*
X207373571Y-170223571D01*
X207587857Y-170223571D01*
X206659285Y-168723571D02*
X205802142Y-168723571D01*
X206230714Y-170223571D02*
X206230714Y-168723571D01*
X205302142Y-170223571D02*
X205302142Y-169223571D01*
X205302142Y-169509285D02*
X205230714Y-169366428D01*
X205159285Y-169295000D01*
X205016428Y-169223571D01*
X204873571Y-169223571D01*
X203730714Y-170223571D02*
X203730714Y-169437857D01*
X203802142Y-169295000D01*
X203945000Y-169223571D01*
X204230714Y-169223571D01*
X204373571Y-169295000D01*
X203730714Y-170152142D02*
X203873571Y-170223571D01*
X204230714Y-170223571D01*
X204373571Y-170152142D01*
X204445000Y-170009285D01*
X204445000Y-169866428D01*
X204373571Y-169723571D01*
X204230714Y-169652142D01*
X203873571Y-169652142D01*
X203730714Y-169580714D01*
X202373571Y-170152142D02*
X202516428Y-170223571D01*
X202802142Y-170223571D01*
X202945000Y-170152142D01*
X203016428Y-170080714D01*
X203087857Y-169937857D01*
X203087857Y-169509285D01*
X203016428Y-169366428D01*
X202945000Y-169295000D01*
X202802142Y-169223571D01*
X202516428Y-169223571D01*
X202373571Y-169295000D01*
X201730714Y-170223571D02*
X201730714Y-168723571D01*
X201587857Y-169652142D02*
X201159285Y-170223571D01*
X201159285Y-169223571D02*
X201730714Y-169795000D01*
X199945000Y-170152142D02*
X200087857Y-170223571D01*
X200373571Y-170223571D01*
X200516428Y-170152142D01*
X200587857Y-170009285D01*
X200587857Y-169437857D01*
X200516428Y-169295000D01*
X200373571Y-169223571D01*
X200087857Y-169223571D01*
X199945000Y-169295000D01*
X199873571Y-169437857D01*
X199873571Y-169580714D01*
X200587857Y-169723571D01*
X199230714Y-170223571D02*
X199230714Y-169223571D01*
X199230714Y-169509285D02*
X199159285Y-169366428D01*
X199087857Y-169295000D01*
X198945000Y-169223571D01*
X198802142Y-169223571D01*
X197516428Y-170223571D02*
X198373571Y-170223571D01*
X197945000Y-170223571D02*
X197945000Y-168723571D01*
X198087857Y-168937857D01*
X198230714Y-169080714D01*
X198373571Y-169152142D01*
X195730714Y-169652142D02*
X194587857Y-169652142D01*
X191873571Y-170223571D02*
X192373571Y-169509285D01*
X192730714Y-170223571D02*
X192730714Y-168723571D01*
X192159285Y-168723571D01*
X192016428Y-168795000D01*
X191945000Y-168866428D01*
X191873571Y-169009285D01*
X191873571Y-169223571D01*
X191945000Y-169366428D01*
X192016428Y-169437857D01*
X192159285Y-169509285D01*
X192730714Y-169509285D01*
X190659285Y-170152142D02*
X190802142Y-170223571D01*
X191087857Y-170223571D01*
X191230714Y-170152142D01*
X191302142Y-170009285D01*
X191302142Y-169437857D01*
X191230714Y-169295000D01*
X191087857Y-169223571D01*
X190802142Y-169223571D01*
X190659285Y-169295000D01*
X190587857Y-169437857D01*
X190587857Y-169580714D01*
X191302142Y-169723571D01*
X190087857Y-169223571D02*
X189730714Y-170223571D01*
X189373571Y-169223571D01*
X187730714Y-168866428D02*
X187659285Y-168795000D01*
X187516428Y-168723571D01*
X187159285Y-168723571D01*
X187016428Y-168795000D01*
X186945000Y-168866428D01*
X186873571Y-169009285D01*
X186873571Y-169152142D01*
X186945000Y-169366428D01*
X187802142Y-170223571D01*
X186873571Y-170223571D01*
M02*
