G04 #@! TF.FileFunction,Soldermask,Top*
%FSLAX46Y46*%
G04 Gerber Fmt 4.6, Leading zero omitted, Abs format (unit mm)*
G04 Created by KiCad (PCBNEW 4.0.7) date 05/06/18 23:55:50*
%MOMM*%
%LPD*%
G01*
G04 APERTURE LIST*
%ADD10C,0.100000*%
%ADD11C,0.066040*%
%ADD12R,1.899920X0.899160*%
%ADD13O,0.381000X0.949960*%
%ADD14O,2.499360X1.750060*%
%ADD15O,3.901440X0.381000*%
%ADD16R,1.801600X1.801600*%
%ADD17O,1.801600X1.801600*%
%ADD18R,0.851600X1.301600*%
%ADD19R,1.301600X0.851600*%
%ADD20R,1.301600X1.001600*%
%ADD21R,3.101600X3.101600*%
%ADD22R,1.778000X0.914400*%
%ADD23R,1.001600X1.301600*%
%ADD24R,1.701600X0.651600*%
%ADD25R,0.651600X1.701600*%
G04 APERTURE END LIST*
D10*
D11*
X224807780Y-193164460D02*
X224208340Y-193164460D01*
X224208340Y-193164460D02*
X224208340Y-193464180D01*
X224807780Y-193464180D02*
X224208340Y-193464180D01*
X224807780Y-193164460D02*
X224807780Y-193464180D01*
X224807780Y-192615820D02*
X224208340Y-192615820D01*
X224208340Y-192615820D02*
X224208340Y-192915540D01*
X224807780Y-192915540D02*
X224208340Y-192915540D01*
X224807780Y-192615820D02*
X224807780Y-192915540D01*
X224109280Y-192191640D02*
X221660720Y-192191640D01*
X221660720Y-192191640D02*
X221660720Y-193888360D01*
X224109280Y-193888360D02*
X221660720Y-193888360D01*
X224109280Y-192191640D02*
X224109280Y-193888360D01*
X224058480Y-191117220D02*
X223707960Y-191117220D01*
X223707960Y-191117220D02*
X223707960Y-191876680D01*
X224058480Y-191876680D02*
X223707960Y-191876680D01*
X224058480Y-191117220D02*
X224058480Y-191876680D01*
X223558100Y-191117220D02*
X223207580Y-191117220D01*
X223207580Y-191117220D02*
X223207580Y-191876680D01*
X223558100Y-191876680D02*
X223207580Y-191876680D01*
X223558100Y-191117220D02*
X223558100Y-191876680D01*
X223057720Y-191117220D02*
X222712280Y-191117220D01*
X222712280Y-191117220D02*
X222712280Y-191876680D01*
X223057720Y-191876680D02*
X222712280Y-191876680D01*
X223057720Y-191117220D02*
X223057720Y-191876680D01*
X222562420Y-191117220D02*
X222211900Y-191117220D01*
X222211900Y-191117220D02*
X222211900Y-191876680D01*
X222562420Y-191876680D02*
X222211900Y-191876680D01*
X222562420Y-191117220D02*
X222562420Y-191876680D01*
X222062040Y-191117220D02*
X221711520Y-191117220D01*
X221711520Y-191117220D02*
X221711520Y-191876680D01*
X222062040Y-191876680D02*
X221711520Y-191876680D01*
X222062040Y-191117220D02*
X222062040Y-191876680D01*
X222062040Y-194203320D02*
X221711520Y-194203320D01*
X221711520Y-194203320D02*
X221711520Y-194962780D01*
X222062040Y-194962780D02*
X221711520Y-194962780D01*
X222062040Y-194203320D02*
X222062040Y-194962780D01*
X222562420Y-194203320D02*
X222211900Y-194203320D01*
X222211900Y-194203320D02*
X222211900Y-194962780D01*
X222562420Y-194962780D02*
X222211900Y-194962780D01*
X222562420Y-194203320D02*
X222562420Y-194962780D01*
X223057720Y-194203320D02*
X222712280Y-194203320D01*
X222712280Y-194203320D02*
X222712280Y-194962780D01*
X223057720Y-194962780D02*
X222712280Y-194962780D01*
X223057720Y-194203320D02*
X223057720Y-194962780D01*
X223558100Y-194203320D02*
X223207580Y-194203320D01*
X223207580Y-194203320D02*
X223207580Y-194962780D01*
X223558100Y-194962780D02*
X223207580Y-194962780D01*
X223558100Y-194203320D02*
X223558100Y-194962780D01*
X224058480Y-194203320D02*
X223707960Y-194203320D01*
X223707960Y-194203320D02*
X223707960Y-194962780D01*
X224058480Y-194962780D02*
X223707960Y-194962780D01*
X224058480Y-194203320D02*
X224058480Y-194962780D01*
X221561660Y-192615820D02*
X220962220Y-192615820D01*
X220962220Y-192615820D02*
X220962220Y-192915540D01*
X221561660Y-192915540D02*
X220962220Y-192915540D01*
X221561660Y-192615820D02*
X221561660Y-192915540D01*
X221561660Y-193164460D02*
X220962220Y-193164460D01*
X220962220Y-193164460D02*
X220962220Y-193464180D01*
X221561660Y-193464180D02*
X220962220Y-193464180D01*
X221561660Y-193164460D02*
X221561660Y-193464180D01*
D10*
X224055940Y-191876680D02*
G75*
G03X224055940Y-191876680I-172720J0D01*
G01*
X223555560Y-191876680D02*
G75*
G03X223555560Y-191876680I-172720J0D01*
G01*
X223057720Y-191876680D02*
G75*
G03X223057720Y-191876680I-172720J0D01*
G01*
X222559880Y-191876680D02*
G75*
G03X222559880Y-191876680I-172720J0D01*
G01*
X222059500Y-191876680D02*
G75*
G03X222059500Y-191876680I-172720J0D01*
G01*
X222059500Y-194203320D02*
G75*
G03X222059500Y-194203320I-172720J0D01*
G01*
X222559880Y-194203320D02*
G75*
G03X222559880Y-194203320I-172720J0D01*
G01*
X223057720Y-194203320D02*
G75*
G03X223057720Y-194203320I-172720J0D01*
G01*
X223555560Y-194203320D02*
G75*
G03X223555560Y-194203320I-172720J0D01*
G01*
X224055940Y-194203320D02*
G75*
G03X224055940Y-194203320I-172720J0D01*
G01*
D11*
X196232780Y-193438780D02*
X195633340Y-193438780D01*
X195633340Y-193438780D02*
X195633340Y-193738500D01*
X196232780Y-193738500D02*
X195633340Y-193738500D01*
X196232780Y-193438780D02*
X196232780Y-193738500D01*
X196232780Y-192890140D02*
X195633340Y-192890140D01*
X195633340Y-192890140D02*
X195633340Y-193189860D01*
X196232780Y-193189860D02*
X195633340Y-193189860D01*
X196232780Y-192890140D02*
X196232780Y-193189860D01*
X195534280Y-192465960D02*
X193085720Y-192465960D01*
X193085720Y-192465960D02*
X193085720Y-194162680D01*
X195534280Y-194162680D02*
X193085720Y-194162680D01*
X195534280Y-192465960D02*
X195534280Y-194162680D01*
X195483480Y-191391540D02*
X195132960Y-191391540D01*
X195132960Y-191391540D02*
X195132960Y-192151000D01*
X195483480Y-192151000D02*
X195132960Y-192151000D01*
X195483480Y-191391540D02*
X195483480Y-192151000D01*
X194983100Y-191391540D02*
X194632580Y-191391540D01*
X194632580Y-191391540D02*
X194632580Y-192151000D01*
X194983100Y-192151000D02*
X194632580Y-192151000D01*
X194983100Y-191391540D02*
X194983100Y-192151000D01*
X194482720Y-191391540D02*
X194137280Y-191391540D01*
X194137280Y-191391540D02*
X194137280Y-192151000D01*
X194482720Y-192151000D02*
X194137280Y-192151000D01*
X194482720Y-191391540D02*
X194482720Y-192151000D01*
X193987420Y-191391540D02*
X193636900Y-191391540D01*
X193636900Y-191391540D02*
X193636900Y-192151000D01*
X193987420Y-192151000D02*
X193636900Y-192151000D01*
X193987420Y-191391540D02*
X193987420Y-192151000D01*
X193487040Y-191391540D02*
X193136520Y-191391540D01*
X193136520Y-191391540D02*
X193136520Y-192151000D01*
X193487040Y-192151000D02*
X193136520Y-192151000D01*
X193487040Y-191391540D02*
X193487040Y-192151000D01*
X193487040Y-194477640D02*
X193136520Y-194477640D01*
X193136520Y-194477640D02*
X193136520Y-195237100D01*
X193487040Y-195237100D02*
X193136520Y-195237100D01*
X193487040Y-194477640D02*
X193487040Y-195237100D01*
X193987420Y-194477640D02*
X193636900Y-194477640D01*
X193636900Y-194477640D02*
X193636900Y-195237100D01*
X193987420Y-195237100D02*
X193636900Y-195237100D01*
X193987420Y-194477640D02*
X193987420Y-195237100D01*
X194482720Y-194477640D02*
X194137280Y-194477640D01*
X194137280Y-194477640D02*
X194137280Y-195237100D01*
X194482720Y-195237100D02*
X194137280Y-195237100D01*
X194482720Y-194477640D02*
X194482720Y-195237100D01*
X194983100Y-194477640D02*
X194632580Y-194477640D01*
X194632580Y-194477640D02*
X194632580Y-195237100D01*
X194983100Y-195237100D02*
X194632580Y-195237100D01*
X194983100Y-194477640D02*
X194983100Y-195237100D01*
X195483480Y-194477640D02*
X195132960Y-194477640D01*
X195132960Y-194477640D02*
X195132960Y-195237100D01*
X195483480Y-195237100D02*
X195132960Y-195237100D01*
X195483480Y-194477640D02*
X195483480Y-195237100D01*
X192986660Y-192890140D02*
X192387220Y-192890140D01*
X192387220Y-192890140D02*
X192387220Y-193189860D01*
X192986660Y-193189860D02*
X192387220Y-193189860D01*
X192986660Y-192890140D02*
X192986660Y-193189860D01*
X192986660Y-193438780D02*
X192387220Y-193438780D01*
X192387220Y-193438780D02*
X192387220Y-193738500D01*
X192986660Y-193738500D02*
X192387220Y-193738500D01*
X192986660Y-193438780D02*
X192986660Y-193738500D01*
D10*
X195480940Y-192151000D02*
G75*
G03X195480940Y-192151000I-172720J0D01*
G01*
X194980560Y-192151000D02*
G75*
G03X194980560Y-192151000I-172720J0D01*
G01*
X194482720Y-192151000D02*
G75*
G03X194482720Y-192151000I-172720J0D01*
G01*
X193984880Y-192151000D02*
G75*
G03X193984880Y-192151000I-172720J0D01*
G01*
X193484500Y-192151000D02*
G75*
G03X193484500Y-192151000I-172720J0D01*
G01*
X193484500Y-194477640D02*
G75*
G03X193484500Y-194477640I-172720J0D01*
G01*
X193984880Y-194477640D02*
G75*
G03X193984880Y-194477640I-172720J0D01*
G01*
X194482720Y-194477640D02*
G75*
G03X194482720Y-194477640I-172720J0D01*
G01*
X194980560Y-194477640D02*
G75*
G03X194980560Y-194477640I-172720J0D01*
G01*
X195480940Y-194477640D02*
G75*
G03X195480940Y-194477640I-172720J0D01*
G01*
D12*
X228013260Y-184564020D03*
X228013260Y-183464200D03*
X228013260Y-182364380D03*
X228013260Y-181264560D03*
X228013260Y-180164740D03*
X228013260Y-179064920D03*
X228013260Y-177962560D03*
X228013260Y-174965360D03*
X228013260Y-173865540D03*
X228013260Y-172765720D03*
X228013260Y-171665900D03*
X228013260Y-170566080D03*
X216016840Y-170566080D03*
X216016840Y-171665900D03*
X216016840Y-172765720D03*
X216016840Y-173865540D03*
X216016840Y-174965360D03*
X216016840Y-177962560D03*
X216016840Y-179064920D03*
X216016840Y-180164740D03*
X216016840Y-181264560D03*
X216016840Y-182364380D03*
X216016840Y-183464200D03*
X216016840Y-184564020D03*
D13*
X223883220Y-191566800D03*
X223382840Y-191566800D03*
X222885000Y-191566800D03*
X222387160Y-191566800D03*
X221886780Y-191566800D03*
X221886780Y-194513200D03*
X222387160Y-194513200D03*
X222885000Y-194513200D03*
X223382840Y-194513200D03*
X223883220Y-194513200D03*
D14*
X222885000Y-193040000D03*
D15*
X222885000Y-193314320D03*
X222885000Y-192765680D03*
D13*
X195308220Y-191841120D03*
X194807840Y-191841120D03*
X194310000Y-191841120D03*
X193812160Y-191841120D03*
X193311780Y-191841120D03*
X193311780Y-194787520D03*
X193812160Y-194787520D03*
X194310000Y-194787520D03*
X194807840Y-194787520D03*
X195308220Y-194787520D03*
D14*
X194310000Y-193314320D03*
D15*
X194310000Y-193588640D03*
X194310000Y-193040000D03*
D16*
X209550000Y-194310000D03*
D17*
X207010000Y-194310000D03*
D18*
X189545000Y-194625000D03*
X189545000Y-192725000D03*
X198120000Y-192410000D03*
X198120000Y-194310000D03*
D19*
X195265000Y-188595000D03*
X197165000Y-188595000D03*
D18*
X217805000Y-194305000D03*
X217805000Y-192405000D03*
X226695000Y-192410000D03*
X226695000Y-194310000D03*
D19*
X223525000Y-187960000D03*
X225425000Y-187960000D03*
D18*
X213360000Y-178440000D03*
X213360000Y-180340000D03*
X213995000Y-183520000D03*
X213995000Y-185420000D03*
X195580000Y-175575000D03*
X195580000Y-173675000D03*
X230505000Y-172720000D03*
X230505000Y-174620000D03*
D20*
X207858000Y-170434000D03*
X210058000Y-170434000D03*
X202778000Y-170434000D03*
X204978000Y-170434000D03*
D21*
X180340000Y-188595000D03*
X175895000Y-188595000D03*
X227330000Y-167005000D03*
X222885000Y-167005000D03*
D16*
X213360000Y-190500000D03*
D17*
X213360000Y-187960000D03*
D20*
X190035000Y-188595000D03*
X192235000Y-188595000D03*
X218440000Y-187960000D03*
X220640000Y-187960000D03*
D22*
X176611280Y-184150000D03*
X176611280Y-182958740D03*
X193753740Y-184150000D03*
X193753740Y-170180000D03*
X193753740Y-181610000D03*
X193753740Y-180340000D03*
X193753740Y-182880000D03*
X193753740Y-172720000D03*
X193753740Y-173990000D03*
X193753740Y-175260000D03*
X193753740Y-176451260D03*
X193753740Y-171450000D03*
X193753740Y-177800000D03*
X193753740Y-179070000D03*
D23*
X208915000Y-188300000D03*
X208915000Y-190500000D03*
D20*
X207858000Y-172466000D03*
X210058000Y-172466000D03*
X202778000Y-172466000D03*
X204978000Y-172466000D03*
D24*
X211895000Y-183140000D03*
X211895000Y-182340000D03*
X211895000Y-181540000D03*
X211895000Y-180740000D03*
X211895000Y-179940000D03*
X211895000Y-179140000D03*
X211895000Y-178340000D03*
X211895000Y-177540000D03*
D25*
X210445000Y-176090000D03*
X209645000Y-176090000D03*
X208845000Y-176090000D03*
X208045000Y-176090000D03*
X207245000Y-176090000D03*
X206445000Y-176090000D03*
X205645000Y-176090000D03*
X204845000Y-176090000D03*
D24*
X203395000Y-177540000D03*
X203395000Y-178340000D03*
X203395000Y-179140000D03*
X203395000Y-179940000D03*
X203395000Y-180740000D03*
X203395000Y-181540000D03*
X203395000Y-182340000D03*
X203395000Y-183140000D03*
D25*
X204845000Y-184590000D03*
X205645000Y-184590000D03*
X206445000Y-184590000D03*
X207245000Y-184590000D03*
X208045000Y-184590000D03*
X208845000Y-184590000D03*
X209645000Y-184590000D03*
X210445000Y-184590000D03*
D16*
X197485000Y-178435000D03*
D17*
X200025000Y-178435000D03*
X197485000Y-180975000D03*
X200025000Y-180975000D03*
X197485000Y-183515000D03*
X200025000Y-183515000D03*
D16*
X203200000Y-187960000D03*
D17*
X203200000Y-190500000D03*
M02*
