M48
;DRILL file {KiCad 4.0.7} date 05/06/18 23:55:37
;FORMAT={-:-/ absolute / inch / decimal}
FMAT,2
INCH,TZ
T1C0.013
T2C0.039
%
G90
G05
M72
T1
X7.425Y-7.4
X7.45Y-6.95
X7.45Y-7.15
X7.55Y-6.75
X7.55Y-6.85
X7.55Y-6.9
X7.55Y-7.
X7.55Y-7.225
X7.55Y-7.725
X7.725Y-6.7
X7.7328Y-7.3528
X7.85Y-7.625
X7.9176Y-6.9256
X7.94Y-7.58
X7.9466Y-6.8975
X7.95Y-7.65
X7.9504Y-7.175
X7.9841Y-7.334
X8.Y-7.25
X8.025Y-6.9
X8.1Y-7.175
X8.1219Y-7.334
X8.1505Y-6.8817
X8.175Y-7.425
X8.18Y-7.54
X8.225Y-7.35
X8.25Y-7.725
X8.275Y-7.35
X8.35Y-7.325
X8.575Y-7.05
X8.575Y-7.15
X8.625Y-7.175
X8.625Y-7.7
X8.65Y-7.475
X8.675Y-7.1
X8.675Y-7.65
T2
X7.775Y-7.025
X7.775Y-7.125
X7.775Y-7.225
X7.875Y-7.025
X7.875Y-7.125
X7.875Y-7.225
X8.Y-7.4
X8.Y-7.5
X8.15Y-7.65
X8.25Y-7.65
X8.4Y-7.4
X8.4Y-7.5
T0
M30
