M48
; DRILL file {KiCad (5.1.5)-3} date 03/16/2020 7:29:32 PM
; FORMAT={-:-/ absolute / inch / decimal}
; #@! TF.CreationDate,2020-03-16T19:29:32-04:00
; #@! TF.GenerationSoftware,Kicad,Pcbnew,(5.1.5)-3
; #@! TF.FileFunction,Plated,1,2,PTH
FMAT,2
INCH
T1C0.0157
T2C0.0394
%
G90
G05
T1
X3.16Y-2.94
X3.4021Y-2.6594
X3.41Y-3.18
X3.4382Y-2.9614
X3.4421Y-3.41
X3.4436Y-3.5031
X3.46Y-3.61
X3.4608Y-3.0
X3.4772Y-2.6739
X3.48Y-2.76
X3.5208Y-3.6543
X3.53Y-2.92
X3.5347Y-3.3637
X3.5371Y-2.7667
X3.5563Y-3.4837
X3.56Y-3.1988
X3.5631Y-3.561
X3.57Y-2.7
X3.58Y-3.26
X3.6038Y-3.4485
X3.6039Y-3.3258
X3.6198Y-3.4845
X3.6267Y-3.1782
X3.6501Y-3.672
X3.6504Y-2.6916
X3.6569Y-2.7684
X3.6763Y-3.58
X3.6837Y-3.725
X3.694Y-3.0455
X3.7118Y-3.0077
X3.7208Y-2.8305
X3.7285Y-3.16
X3.73Y-2.79
X3.7318Y-2.8683
X3.741Y-2.9814
X3.81Y-2.92
X3.84Y-3.04
X3.87Y-2.67
X3.8819Y-2.8884
X3.9034Y-2.7554
X3.939Y-2.9
X3.9864Y-2.6985
X3.9983Y-2.823
X4.0393Y-2.89
X4.04Y-3.21
X4.0771Y-2.8283
X4.097Y-2.7231
X4.15Y-2.75
X4.1506Y-2.67
X4.25Y-2.681
X4.27Y-2.92
X4.3006Y-2.7741
X4.31Y-3.0015
X4.3105Y-2.8486
X4.3296Y-2.6456
X4.36Y-2.79
X4.3711Y-2.9998
X4.4166Y-2.7046
T2
X3.385Y-3.5325
X3.735Y-3.4325
X3.285Y-3.5325
X3.835Y-3.6325
X3.735Y-3.6325
X3.835Y-3.3325
X3.735Y-3.3325
X3.835Y-3.5325
X3.285Y-3.3325
X3.935Y-3.5325
X3.835Y-3.4325
X3.735Y-3.5325
X3.285Y-3.4325
X4.035Y-3.6325
X3.935Y-3.6325
X3.385Y-3.4325
X3.385Y-3.3325
X4.035Y-3.5325
T0
M30
