G04 #@! TF.GenerationSoftware,KiCad,Pcbnew,(5.1.5)-3*
G04 #@! TF.CreationDate,2020-03-16T19:29:18-04:00*
G04 #@! TF.ProjectId,PicoTrackerWSPR2Rev1,5069636f-5472-4616-936b-657257535052,rev?*
G04 #@! TF.SameCoordinates,Original*
G04 #@! TF.FileFunction,Paste,Top*
G04 #@! TF.FilePolarity,Positive*
%FSLAX46Y46*%
G04 Gerber Fmt 4.6, Leading zero omitted, Abs format (unit mm)*
G04 Created by KiCad (PCBNEW (5.1.5)-3) date 2020-03-16 19:29:18*
%MOMM*%
%LPD*%
G04 APERTURE LIST*
%ADD10R,0.750000X1.200000*%
%ADD11R,1.200000X0.900000*%
%ADD12R,0.860000X0.500000*%
%ADD13R,0.300000X0.550000*%
%ADD14R,1.193800X1.397000*%
%ADD15R,0.248920X1.300000*%
%ADD16R,1.800000X0.700000*%
%ADD17R,1.800000X0.800000*%
%ADD18R,1.200000X0.750000*%
%ADD19R,0.300000X0.800000*%
%ADD20R,1.550000X1.750000*%
%ADD21R,0.900000X1.200000*%
%ADD22C,0.100000*%
G04 APERTURE END LIST*
D10*
X96520000Y-72898000D03*
X96520000Y-70998000D03*
X100076000Y-70236000D03*
X100076000Y-72136000D03*
X100076000Y-76830000D03*
X100076000Y-74930000D03*
D11*
X104902000Y-73215500D03*
X107102000Y-73215500D03*
D12*
X98425000Y-71755000D03*
D13*
X98675000Y-72480000D03*
X98175000Y-72480000D03*
X98175000Y-71030000D03*
X98675000Y-71030000D03*
D11*
X104902000Y-71691500D03*
X107102000Y-71691500D03*
D14*
X106248200Y-76962000D03*
X106248200Y-74752200D03*
X107950000Y-74752200D03*
X107950000Y-76962000D03*
D11*
X104902000Y-70167500D03*
X107102000Y-70167500D03*
D15*
X103360220Y-74640000D03*
X102859840Y-74640000D03*
X102362000Y-74640000D03*
X101864160Y-74640000D03*
X101363780Y-74640000D03*
X101363780Y-70140000D03*
X101864160Y-70140000D03*
X102362000Y-70140000D03*
X102859840Y-70140000D03*
X103360220Y-70140000D03*
D16*
X75437800Y-76866200D03*
D17*
X75437800Y-75766200D03*
X75437800Y-74666200D03*
X75437800Y-73566200D03*
X75437800Y-72466200D03*
X75437800Y-71366200D03*
X75437800Y-70266200D03*
X75437800Y-69166200D03*
D16*
X75437800Y-68066200D03*
X84937800Y-68066200D03*
D17*
X84937800Y-69166200D03*
X84937800Y-70266200D03*
X84937800Y-71366200D03*
X84937800Y-72466200D03*
X84937800Y-73566200D03*
X84937800Y-74666200D03*
X84937800Y-75766200D03*
D16*
X84937800Y-76866200D03*
D18*
X89022000Y-67818000D03*
X87122000Y-67818000D03*
X89022000Y-69342000D03*
X87122000Y-69342000D03*
X92578000Y-69342000D03*
X90678000Y-69342000D03*
D10*
X96520000Y-74930000D03*
X96520000Y-76830000D03*
D18*
X111120000Y-67818000D03*
X109220000Y-67818000D03*
D11*
X99590500Y-67818000D03*
X101790500Y-67818000D03*
X106426000Y-67818000D03*
X104226000Y-67818000D03*
D19*
X109994000Y-72366000D03*
X110494000Y-72366000D03*
X110994000Y-72366000D03*
X111494000Y-72366000D03*
X111494000Y-69366000D03*
X110994000Y-69366000D03*
X110494000Y-69366000D03*
X109994000Y-69366000D03*
D20*
X110744000Y-70866000D03*
D21*
X109982000Y-74676000D03*
X109982000Y-76876000D03*
X111506000Y-76876000D03*
X111506000Y-74676000D03*
D11*
X92964000Y-67818000D03*
X90764000Y-67818000D03*
X97282000Y-69342000D03*
X95082000Y-69342000D03*
X95082000Y-67818000D03*
X97282000Y-67818000D03*
D22*
G36*
X88887903Y-74168000D02*
G01*
X91186000Y-71869903D01*
X93484097Y-74168000D01*
X91186000Y-76466097D01*
X88887903Y-74168000D01*
G37*
G36*
X91274389Y-71392606D02*
G01*
X91875429Y-70791566D01*
X92087561Y-71003698D01*
X91486521Y-71604738D01*
X91274389Y-71392606D01*
G37*
G36*
X91627942Y-71746159D02*
G01*
X92228982Y-71145119D01*
X92441114Y-71357251D01*
X91840074Y-71958291D01*
X91627942Y-71746159D01*
G37*
G36*
X91981496Y-72099712D02*
G01*
X92582536Y-71498672D01*
X92794668Y-71710804D01*
X92193628Y-72311844D01*
X91981496Y-72099712D01*
G37*
G36*
X92335049Y-72453266D02*
G01*
X92936089Y-71852226D01*
X93148221Y-72064358D01*
X92547181Y-72665398D01*
X92335049Y-72453266D01*
G37*
G36*
X92688602Y-72806819D02*
G01*
X93289642Y-72205779D01*
X93501774Y-72417911D01*
X92900734Y-73018951D01*
X92688602Y-72806819D01*
G37*
G36*
X93042156Y-73160372D02*
G01*
X93643196Y-72559332D01*
X93855328Y-72771464D01*
X93254288Y-73372504D01*
X93042156Y-73160372D01*
G37*
G36*
X93395709Y-73513926D02*
G01*
X93996749Y-72912886D01*
X94208881Y-73125018D01*
X93607841Y-73726058D01*
X93395709Y-73513926D01*
G37*
G36*
X93749262Y-73867479D02*
G01*
X94350302Y-73266439D01*
X94562434Y-73478571D01*
X93961394Y-74079611D01*
X93749262Y-73867479D01*
G37*
G36*
X94350302Y-75069561D02*
G01*
X93749262Y-74468521D01*
X93961394Y-74256389D01*
X94562434Y-74857429D01*
X94350302Y-75069561D01*
G37*
G36*
X93996749Y-75423114D02*
G01*
X93395709Y-74822074D01*
X93607841Y-74609942D01*
X94208881Y-75210982D01*
X93996749Y-75423114D01*
G37*
G36*
X93643196Y-75776668D02*
G01*
X93042156Y-75175628D01*
X93254288Y-74963496D01*
X93855328Y-75564536D01*
X93643196Y-75776668D01*
G37*
G36*
X93289642Y-76130221D02*
G01*
X92688602Y-75529181D01*
X92900734Y-75317049D01*
X93501774Y-75918089D01*
X93289642Y-76130221D01*
G37*
G36*
X92936089Y-76483774D02*
G01*
X92335049Y-75882734D01*
X92547181Y-75670602D01*
X93148221Y-76271642D01*
X92936089Y-76483774D01*
G37*
G36*
X92582536Y-76837328D02*
G01*
X91981496Y-76236288D01*
X92193628Y-76024156D01*
X92794668Y-76625196D01*
X92582536Y-76837328D01*
G37*
G36*
X92228982Y-77190881D02*
G01*
X91627942Y-76589841D01*
X91840074Y-76377709D01*
X92441114Y-76978749D01*
X92228982Y-77190881D01*
G37*
G36*
X91875429Y-77544434D02*
G01*
X91274389Y-76943394D01*
X91486521Y-76731262D01*
X92087561Y-77332302D01*
X91875429Y-77544434D01*
G37*
G36*
X90284439Y-77332302D02*
G01*
X90885479Y-76731262D01*
X91097611Y-76943394D01*
X90496571Y-77544434D01*
X90284439Y-77332302D01*
G37*
G36*
X89930886Y-76978749D02*
G01*
X90531926Y-76377709D01*
X90744058Y-76589841D01*
X90143018Y-77190881D01*
X89930886Y-76978749D01*
G37*
G36*
X89577332Y-76625196D02*
G01*
X90178372Y-76024156D01*
X90390504Y-76236288D01*
X89789464Y-76837328D01*
X89577332Y-76625196D01*
G37*
G36*
X89223779Y-76271642D02*
G01*
X89824819Y-75670602D01*
X90036951Y-75882734D01*
X89435911Y-76483774D01*
X89223779Y-76271642D01*
G37*
G36*
X88870226Y-75918089D02*
G01*
X89471266Y-75317049D01*
X89683398Y-75529181D01*
X89082358Y-76130221D01*
X88870226Y-75918089D01*
G37*
G36*
X88516672Y-75564536D02*
G01*
X89117712Y-74963496D01*
X89329844Y-75175628D01*
X88728804Y-75776668D01*
X88516672Y-75564536D01*
G37*
G36*
X88163119Y-75210982D02*
G01*
X88764159Y-74609942D01*
X88976291Y-74822074D01*
X88375251Y-75423114D01*
X88163119Y-75210982D01*
G37*
G36*
X87809566Y-74857429D02*
G01*
X88410606Y-74256389D01*
X88622738Y-74468521D01*
X88021698Y-75069561D01*
X87809566Y-74857429D01*
G37*
G36*
X88410606Y-74079611D02*
G01*
X87809566Y-73478571D01*
X88021698Y-73266439D01*
X88622738Y-73867479D01*
X88410606Y-74079611D01*
G37*
G36*
X88764159Y-73726058D02*
G01*
X88163119Y-73125018D01*
X88375251Y-72912886D01*
X88976291Y-73513926D01*
X88764159Y-73726058D01*
G37*
G36*
X89117712Y-73372504D02*
G01*
X88516672Y-72771464D01*
X88728804Y-72559332D01*
X89329844Y-73160372D01*
X89117712Y-73372504D01*
G37*
G36*
X89471266Y-73018951D02*
G01*
X88870226Y-72417911D01*
X89082358Y-72205779D01*
X89683398Y-72806819D01*
X89471266Y-73018951D01*
G37*
G36*
X89824819Y-72665398D02*
G01*
X89223779Y-72064358D01*
X89435911Y-71852226D01*
X90036951Y-72453266D01*
X89824819Y-72665398D01*
G37*
G36*
X90178372Y-72311844D02*
G01*
X89577332Y-71710804D01*
X89789464Y-71498672D01*
X90390504Y-72099712D01*
X90178372Y-72311844D01*
G37*
G36*
X90531926Y-71958291D02*
G01*
X89930886Y-71357251D01*
X90143018Y-71145119D01*
X90744058Y-71746159D01*
X90531926Y-71958291D01*
G37*
G36*
X90885479Y-71604738D02*
G01*
X90284439Y-71003698D01*
X90496571Y-70791566D01*
X91097611Y-71392606D01*
X90885479Y-71604738D01*
G37*
M02*
