G04 #@! TF.GenerationSoftware,KiCad,Pcbnew,(5.1.5)-3*
G04 #@! TF.CreationDate,2020-03-16T19:29:18-04:00*
G04 #@! TF.ProjectId,PicoTrackerWSPR2Rev1,5069636f-5472-4616-936b-657257535052,rev?*
G04 #@! TF.SameCoordinates,Original*
G04 #@! TF.FileFunction,Soldermask,Bot*
G04 #@! TF.FilePolarity,Negative*
%FSLAX46Y46*%
G04 Gerber Fmt 4.6, Leading zero omitted, Abs format (unit mm)*
G04 Created by KiCad (PCBNEW (5.1.5)-3) date 2020-03-16 19:29:18*
%MOMM*%
%LPD*%
G04 APERTURE LIST*
%ADD10C,0.100000*%
G04 APERTURE END LIST*
D10*
G36*
X98259000Y-93115500D02*
G01*
X96559000Y-93115500D01*
X96559000Y-91415500D01*
X98259000Y-91415500D01*
X98259000Y-93115500D01*
G37*
G36*
X95719000Y-93115500D02*
G01*
X94019000Y-93115500D01*
X94019000Y-91415500D01*
X95719000Y-91415500D01*
X95719000Y-93115500D01*
G37*
G36*
X103339000Y-93115500D02*
G01*
X101639000Y-93115500D01*
X101639000Y-91415500D01*
X103339000Y-91415500D01*
X103339000Y-93115500D01*
G37*
G36*
X100799000Y-93115500D02*
G01*
X99099000Y-93115500D01*
X99099000Y-91415500D01*
X100799000Y-91415500D01*
X100799000Y-93115500D01*
G37*
G36*
X103339000Y-90575500D02*
G01*
X101639000Y-90575500D01*
X101639000Y-88875500D01*
X103339000Y-88875500D01*
X103339000Y-90575500D01*
G37*
G36*
X100799000Y-90575500D02*
G01*
X99099000Y-90575500D01*
X99099000Y-88875500D01*
X100799000Y-88875500D01*
X100799000Y-90575500D01*
G37*
G36*
X98259000Y-90575500D02*
G01*
X96559000Y-90575500D01*
X96559000Y-88875500D01*
X98259000Y-88875500D01*
X98259000Y-90575500D01*
G37*
G36*
X86829000Y-90575500D02*
G01*
X85129000Y-90575500D01*
X85129000Y-88875500D01*
X86829000Y-88875500D01*
X86829000Y-90575500D01*
G37*
G36*
X84289000Y-90575500D02*
G01*
X82589000Y-90575500D01*
X82589000Y-88875500D01*
X84289000Y-88875500D01*
X84289000Y-90575500D01*
G37*
G36*
X95719000Y-90575500D02*
G01*
X94019000Y-90575500D01*
X94019000Y-88875500D01*
X95719000Y-88875500D01*
X95719000Y-90575500D01*
G37*
G36*
X98259000Y-88035500D02*
G01*
X96559000Y-88035500D01*
X96559000Y-86335500D01*
X98259000Y-86335500D01*
X98259000Y-88035500D01*
G37*
G36*
X95719000Y-88035500D02*
G01*
X94019000Y-88035500D01*
X94019000Y-86335500D01*
X95719000Y-86335500D01*
X95719000Y-88035500D01*
G37*
G36*
X86829000Y-88035500D02*
G01*
X85129000Y-88035500D01*
X85129000Y-86335500D01*
X86829000Y-86335500D01*
X86829000Y-88035500D01*
G37*
G36*
X84289000Y-88035500D02*
G01*
X82589000Y-88035500D01*
X82589000Y-86335500D01*
X84289000Y-86335500D01*
X84289000Y-88035500D01*
G37*
G36*
X98259000Y-85495500D02*
G01*
X96559000Y-85495500D01*
X96559000Y-83795500D01*
X98259000Y-83795500D01*
X98259000Y-85495500D01*
G37*
G36*
X95719000Y-85495500D02*
G01*
X94019000Y-85495500D01*
X94019000Y-83795500D01*
X95719000Y-83795500D01*
X95719000Y-85495500D01*
G37*
G36*
X84289000Y-85495500D02*
G01*
X82589000Y-85495500D01*
X82589000Y-83795500D01*
X84289000Y-83795500D01*
X84289000Y-85495500D01*
G37*
G36*
X86829000Y-85495500D02*
G01*
X85129000Y-85495500D01*
X85129000Y-83795500D01*
X86829000Y-83795500D01*
X86829000Y-85495500D01*
G37*
G36*
X81510000Y-76303000D02*
G01*
X78510000Y-76303000D01*
X78510000Y-73303000D01*
X81510000Y-73303000D01*
X81510000Y-76303000D01*
G37*
G36*
X81510000Y-71753000D02*
G01*
X78510000Y-71753000D01*
X78510000Y-68753000D01*
X81510000Y-68753000D01*
X81510000Y-71753000D01*
G37*
M02*
