G04 #@! TF.GenerationSoftware,KiCad,Pcbnew,(5.1.5)-3*
G04 #@! TF.CreationDate,2020-07-12T19:07:34-04:00*
G04 #@! TF.ProjectId,BreakoutSI4463PRORev3,42726561-6b6f-4757-9453-493434363350,rev?*
G04 #@! TF.SameCoordinates,Original*
G04 #@! TF.FileFunction,Legend,Bot*
G04 #@! TF.FilePolarity,Positive*
%FSLAX46Y46*%
G04 Gerber Fmt 4.6, Leading zero omitted, Abs format (unit mm)*
G04 Created by KiCad (PCBNEW (5.1.5)-3) date 2020-07-12 19:07:34*
%MOMM*%
%LPD*%
G04 APERTURE LIST*
%ADD10C,0.150000*%
G04 APERTURE END LIST*
D10*
X135792595Y-96020000D02*
X135887833Y-95972380D01*
X136030690Y-95972380D01*
X136173547Y-96020000D01*
X136268785Y-96115238D01*
X136316404Y-96210476D01*
X136364023Y-96400952D01*
X136364023Y-96543809D01*
X136316404Y-96734285D01*
X136268785Y-96829523D01*
X136173547Y-96924761D01*
X136030690Y-96972380D01*
X135935452Y-96972380D01*
X135792595Y-96924761D01*
X135744976Y-96877142D01*
X135744976Y-96543809D01*
X135935452Y-96543809D01*
X135316404Y-96972380D02*
X135316404Y-95972380D01*
X134744976Y-96972380D01*
X134744976Y-95972380D01*
X134268785Y-96972380D02*
X134268785Y-95972380D01*
X134030690Y-95972380D01*
X133887833Y-96020000D01*
X133792595Y-96115238D01*
X133744976Y-96210476D01*
X133697357Y-96400952D01*
X133697357Y-96543809D01*
X133744976Y-96734285D01*
X133792595Y-96829523D01*
X133887833Y-96924761D01*
X134030690Y-96972380D01*
X134268785Y-96972380D01*
X139666023Y-96686666D02*
X139189833Y-96686666D01*
X139761261Y-96972380D02*
X139427928Y-95972380D01*
X139094595Y-96972380D01*
X138761261Y-96972380D02*
X138761261Y-95972380D01*
X138189833Y-96972380D01*
X138189833Y-95972380D01*
X137856500Y-95972380D02*
X137285071Y-95972380D01*
X137570785Y-96972380D02*
X137570785Y-95972380D01*
X130458595Y-95830000D02*
X130553833Y-95782380D01*
X130696690Y-95782380D01*
X130839547Y-95830000D01*
X130934785Y-95925238D01*
X130982404Y-96020476D01*
X131030023Y-96210952D01*
X131030023Y-96353809D01*
X130982404Y-96544285D01*
X130934785Y-96639523D01*
X130839547Y-96734761D01*
X130696690Y-96782380D01*
X130601452Y-96782380D01*
X130458595Y-96734761D01*
X130410976Y-96687142D01*
X130410976Y-96353809D01*
X130601452Y-96353809D01*
X129982404Y-96782380D02*
X129982404Y-95782380D01*
X129601452Y-95782380D01*
X129506214Y-95830000D01*
X129458595Y-95877619D01*
X129410976Y-95972857D01*
X129410976Y-96115714D01*
X129458595Y-96210952D01*
X129506214Y-96258571D01*
X129601452Y-96306190D01*
X129982404Y-96306190D01*
X128982404Y-96782380D02*
X128982404Y-95782380D01*
X128315738Y-95782380D02*
X128125261Y-95782380D01*
X128030023Y-95830000D01*
X127934785Y-95925238D01*
X127887166Y-96115714D01*
X127887166Y-96449047D01*
X127934785Y-96639523D01*
X128030023Y-96734761D01*
X128125261Y-96782380D01*
X128315738Y-96782380D01*
X128410976Y-96734761D01*
X128506214Y-96639523D01*
X128553833Y-96449047D01*
X128553833Y-96115714D01*
X128506214Y-95925238D01*
X128410976Y-95830000D01*
X128315738Y-95782380D01*
X131030023Y-97527619D02*
X130982404Y-97480000D01*
X130887166Y-97432380D01*
X130649071Y-97432380D01*
X130553833Y-97480000D01*
X130506214Y-97527619D01*
X130458595Y-97622857D01*
X130458595Y-97718095D01*
X130506214Y-97860952D01*
X131077642Y-98432380D01*
X130458595Y-98432380D01*
X129982404Y-98384761D02*
X129982404Y-98432380D01*
X130030023Y-98527619D01*
X130077642Y-98575238D01*
X128268119Y-98432380D02*
X128839547Y-98432380D01*
X128553833Y-98432380D02*
X128553833Y-97432380D01*
X128649071Y-97575238D01*
X128744309Y-97670476D01*
X128839547Y-97718095D01*
X139145357Y-109336857D02*
X139031071Y-109374952D01*
X138992976Y-109413047D01*
X138954880Y-109489238D01*
X138954880Y-109603523D01*
X138992976Y-109679714D01*
X139031071Y-109717809D01*
X139107261Y-109755904D01*
X139412023Y-109755904D01*
X139412023Y-108955904D01*
X139145357Y-108955904D01*
X139069166Y-108994000D01*
X139031071Y-109032095D01*
X138992976Y-109108285D01*
X138992976Y-109184476D01*
X139031071Y-109260666D01*
X139069166Y-109298761D01*
X139145357Y-109336857D01*
X139412023Y-109336857D01*
X138612023Y-109755904D02*
X138612023Y-109222571D01*
X138612023Y-109374952D02*
X138573928Y-109298761D01*
X138535833Y-109260666D01*
X138459642Y-109222571D01*
X138383452Y-109222571D01*
X137812023Y-109717809D02*
X137888214Y-109755904D01*
X138040595Y-109755904D01*
X138116785Y-109717809D01*
X138154880Y-109641619D01*
X138154880Y-109336857D01*
X138116785Y-109260666D01*
X138040595Y-109222571D01*
X137888214Y-109222571D01*
X137812023Y-109260666D01*
X137773928Y-109336857D01*
X137773928Y-109413047D01*
X138154880Y-109489238D01*
X137088214Y-109755904D02*
X137088214Y-109336857D01*
X137126309Y-109260666D01*
X137202500Y-109222571D01*
X137354880Y-109222571D01*
X137431071Y-109260666D01*
X137088214Y-109717809D02*
X137164404Y-109755904D01*
X137354880Y-109755904D01*
X137431071Y-109717809D01*
X137469166Y-109641619D01*
X137469166Y-109565428D01*
X137431071Y-109489238D01*
X137354880Y-109451142D01*
X137164404Y-109451142D01*
X137088214Y-109413047D01*
X136707261Y-109755904D02*
X136707261Y-108955904D01*
X136631071Y-109451142D02*
X136402500Y-109755904D01*
X136402500Y-109222571D02*
X136707261Y-109527333D01*
X135945357Y-109755904D02*
X136021547Y-109717809D01*
X136059642Y-109679714D01*
X136097738Y-109603523D01*
X136097738Y-109374952D01*
X136059642Y-109298761D01*
X136021547Y-109260666D01*
X135945357Y-109222571D01*
X135831071Y-109222571D01*
X135754880Y-109260666D01*
X135716785Y-109298761D01*
X135678690Y-109374952D01*
X135678690Y-109603523D01*
X135716785Y-109679714D01*
X135754880Y-109717809D01*
X135831071Y-109755904D01*
X135945357Y-109755904D01*
X134992976Y-109222571D02*
X134992976Y-109755904D01*
X135335833Y-109222571D02*
X135335833Y-109641619D01*
X135297738Y-109717809D01*
X135221547Y-109755904D01*
X135107261Y-109755904D01*
X135031071Y-109717809D01*
X134992976Y-109679714D01*
X134726309Y-109222571D02*
X134421547Y-109222571D01*
X134612023Y-108955904D02*
X134612023Y-109641619D01*
X134573928Y-109717809D01*
X134497738Y-109755904D01*
X134421547Y-109755904D01*
X134192976Y-109717809D02*
X134078690Y-109755904D01*
X133888214Y-109755904D01*
X133812023Y-109717809D01*
X133773928Y-109679714D01*
X133735833Y-109603523D01*
X133735833Y-109527333D01*
X133773928Y-109451142D01*
X133812023Y-109413047D01*
X133888214Y-109374952D01*
X134040595Y-109336857D01*
X134116785Y-109298761D01*
X134154880Y-109260666D01*
X134192976Y-109184476D01*
X134192976Y-109108285D01*
X134154880Y-109032095D01*
X134116785Y-108994000D01*
X134040595Y-108955904D01*
X133850119Y-108955904D01*
X133735833Y-108994000D01*
X133392976Y-109755904D02*
X133392976Y-108955904D01*
X132669166Y-109222571D02*
X132669166Y-109755904D01*
X132859642Y-108917809D02*
X133050119Y-109489238D01*
X132554880Y-109489238D01*
X131907261Y-109222571D02*
X131907261Y-109755904D01*
X132097738Y-108917809D02*
X132288214Y-109489238D01*
X131792976Y-109489238D01*
X131145357Y-108955904D02*
X131297738Y-108955904D01*
X131373928Y-108994000D01*
X131412023Y-109032095D01*
X131488214Y-109146380D01*
X131526309Y-109298761D01*
X131526309Y-109603523D01*
X131488214Y-109679714D01*
X131450119Y-109717809D01*
X131373928Y-109755904D01*
X131221547Y-109755904D01*
X131145357Y-109717809D01*
X131107261Y-109679714D01*
X131069166Y-109603523D01*
X131069166Y-109413047D01*
X131107261Y-109336857D01*
X131145357Y-109298761D01*
X131221547Y-109260666D01*
X131373928Y-109260666D01*
X131450119Y-109298761D01*
X131488214Y-109336857D01*
X131526309Y-109413047D01*
X130802500Y-108955904D02*
X130307261Y-108955904D01*
X130573928Y-109260666D01*
X130459642Y-109260666D01*
X130383452Y-109298761D01*
X130345357Y-109336857D01*
X130307261Y-109413047D01*
X130307261Y-109603523D01*
X130345357Y-109679714D01*
X130383452Y-109717809D01*
X130459642Y-109755904D01*
X130688214Y-109755904D01*
X130764404Y-109717809D01*
X130802500Y-109679714D01*
X129964404Y-109755904D02*
X129964404Y-108955904D01*
X129659642Y-108955904D01*
X129583452Y-108994000D01*
X129545357Y-109032095D01*
X129507261Y-109108285D01*
X129507261Y-109222571D01*
X129545357Y-109298761D01*
X129583452Y-109336857D01*
X129659642Y-109374952D01*
X129964404Y-109374952D01*
X128707261Y-109755904D02*
X128973928Y-109374952D01*
X129164404Y-109755904D02*
X129164404Y-108955904D01*
X128859642Y-108955904D01*
X128783452Y-108994000D01*
X128745357Y-109032095D01*
X128707261Y-109108285D01*
X128707261Y-109222571D01*
X128745357Y-109298761D01*
X128783452Y-109336857D01*
X128859642Y-109374952D01*
X129164404Y-109374952D01*
X128212023Y-108955904D02*
X128059642Y-108955904D01*
X127983452Y-108994000D01*
X127907261Y-109070190D01*
X127869166Y-109222571D01*
X127869166Y-109489238D01*
X127907261Y-109641619D01*
X127983452Y-109717809D01*
X128059642Y-109755904D01*
X128212023Y-109755904D01*
X128288214Y-109717809D01*
X128364404Y-109641619D01*
X128402500Y-109489238D01*
X128402500Y-109222571D01*
X128364404Y-109070190D01*
X128288214Y-108994000D01*
X128212023Y-108955904D01*
X138954880Y-111105904D02*
X139221547Y-110724952D01*
X139412023Y-111105904D02*
X139412023Y-110305904D01*
X139107261Y-110305904D01*
X139031071Y-110344000D01*
X138992976Y-110382095D01*
X138954880Y-110458285D01*
X138954880Y-110572571D01*
X138992976Y-110648761D01*
X139031071Y-110686857D01*
X139107261Y-110724952D01*
X139412023Y-110724952D01*
X138307261Y-111067809D02*
X138383452Y-111105904D01*
X138535833Y-111105904D01*
X138612023Y-111067809D01*
X138650119Y-110991619D01*
X138650119Y-110686857D01*
X138612023Y-110610666D01*
X138535833Y-110572571D01*
X138383452Y-110572571D01*
X138307261Y-110610666D01*
X138269166Y-110686857D01*
X138269166Y-110763047D01*
X138650119Y-110839238D01*
X138002500Y-110572571D02*
X137812023Y-111105904D01*
X137621547Y-110572571D01*
X137392976Y-110305904D02*
X136897738Y-110305904D01*
X137164404Y-110610666D01*
X137050119Y-110610666D01*
X136973928Y-110648761D01*
X136935833Y-110686857D01*
X136897738Y-110763047D01*
X136897738Y-110953523D01*
X136935833Y-111029714D01*
X136973928Y-111067809D01*
X137050119Y-111105904D01*
X137278690Y-111105904D01*
X137354880Y-111067809D01*
X137392976Y-111029714D01*
X139450119Y-111732095D02*
X139412023Y-111694000D01*
X139335833Y-111655904D01*
X139145357Y-111655904D01*
X139069166Y-111694000D01*
X139031071Y-111732095D01*
X138992976Y-111808285D01*
X138992976Y-111884476D01*
X139031071Y-111998761D01*
X139488214Y-112455904D01*
X138992976Y-112455904D01*
X138497738Y-111655904D02*
X138421547Y-111655904D01*
X138345357Y-111694000D01*
X138307261Y-111732095D01*
X138269166Y-111808285D01*
X138231071Y-111960666D01*
X138231071Y-112151142D01*
X138269166Y-112303523D01*
X138307261Y-112379714D01*
X138345357Y-112417809D01*
X138421547Y-112455904D01*
X138497738Y-112455904D01*
X138573928Y-112417809D01*
X138612023Y-112379714D01*
X138650119Y-112303523D01*
X138688214Y-112151142D01*
X138688214Y-111960666D01*
X138650119Y-111808285D01*
X138612023Y-111732095D01*
X138573928Y-111694000D01*
X138497738Y-111655904D01*
X137926309Y-111732095D02*
X137888214Y-111694000D01*
X137812023Y-111655904D01*
X137621547Y-111655904D01*
X137545357Y-111694000D01*
X137507261Y-111732095D01*
X137469166Y-111808285D01*
X137469166Y-111884476D01*
X137507261Y-111998761D01*
X137964404Y-112455904D01*
X137469166Y-112455904D01*
X136973928Y-111655904D02*
X136897738Y-111655904D01*
X136821547Y-111694000D01*
X136783452Y-111732095D01*
X136745357Y-111808285D01*
X136707261Y-111960666D01*
X136707261Y-112151142D01*
X136745357Y-112303523D01*
X136783452Y-112379714D01*
X136821547Y-112417809D01*
X136897738Y-112455904D01*
X136973928Y-112455904D01*
X137050119Y-112417809D01*
X137088214Y-112379714D01*
X137126309Y-112303523D01*
X137164404Y-112151142D01*
X137164404Y-111960666D01*
X137126309Y-111808285D01*
X137088214Y-111732095D01*
X137050119Y-111694000D01*
X136973928Y-111655904D01*
X136364404Y-112151142D02*
X135754880Y-112151142D01*
X135221547Y-111655904D02*
X135145357Y-111655904D01*
X135069166Y-111694000D01*
X135031071Y-111732095D01*
X134992976Y-111808285D01*
X134954880Y-111960666D01*
X134954880Y-112151142D01*
X134992976Y-112303523D01*
X135031071Y-112379714D01*
X135069166Y-112417809D01*
X135145357Y-112455904D01*
X135221547Y-112455904D01*
X135297738Y-112417809D01*
X135335833Y-112379714D01*
X135373928Y-112303523D01*
X135412023Y-112151142D01*
X135412023Y-111960666D01*
X135373928Y-111808285D01*
X135335833Y-111732095D01*
X135297738Y-111694000D01*
X135221547Y-111655904D01*
X134688214Y-111655904D02*
X134154880Y-111655904D01*
X134497738Y-112455904D01*
X133850119Y-112151142D02*
X133240595Y-112151142D01*
X132440595Y-112455904D02*
X132897738Y-112455904D01*
X132669166Y-112455904D02*
X132669166Y-111655904D01*
X132745357Y-111770190D01*
X132821547Y-111846380D01*
X132897738Y-111884476D01*
X132135833Y-111732095D02*
X132097738Y-111694000D01*
X132021547Y-111655904D01*
X131831071Y-111655904D01*
X131754880Y-111694000D01*
X131716785Y-111732095D01*
X131678690Y-111808285D01*
X131678690Y-111884476D01*
X131716785Y-111998761D01*
X132173928Y-112455904D01*
X131678690Y-112455904D01*
X123623214Y-111260000D02*
X123718452Y-111212380D01*
X123861309Y-111212380D01*
X124004166Y-111260000D01*
X124099404Y-111355238D01*
X124147023Y-111450476D01*
X124194642Y-111640952D01*
X124194642Y-111783809D01*
X124147023Y-111974285D01*
X124099404Y-112069523D01*
X124004166Y-112164761D01*
X123861309Y-112212380D01*
X123766071Y-112212380D01*
X123623214Y-112164761D01*
X123575595Y-112117142D01*
X123575595Y-111783809D01*
X123766071Y-111783809D01*
X123147023Y-112212380D02*
X123147023Y-111212380D01*
X122575595Y-112212380D01*
X122575595Y-111212380D01*
X122099404Y-112212380D02*
X122099404Y-111212380D01*
X121861309Y-111212380D01*
X121718452Y-111260000D01*
X121623214Y-111355238D01*
X121575595Y-111450476D01*
X121527976Y-111640952D01*
X121527976Y-111783809D01*
X121575595Y-111974285D01*
X121623214Y-112069523D01*
X121718452Y-112164761D01*
X121861309Y-112212380D01*
X122099404Y-112212380D01*
X124147023Y-109624761D02*
X124004166Y-109672380D01*
X123766071Y-109672380D01*
X123670833Y-109624761D01*
X123623214Y-109577142D01*
X123575595Y-109481904D01*
X123575595Y-109386666D01*
X123623214Y-109291428D01*
X123670833Y-109243809D01*
X123766071Y-109196190D01*
X123956547Y-109148571D01*
X124051785Y-109100952D01*
X124099404Y-109053333D01*
X124147023Y-108958095D01*
X124147023Y-108862857D01*
X124099404Y-108767619D01*
X124051785Y-108720000D01*
X123956547Y-108672380D01*
X123718452Y-108672380D01*
X123575595Y-108720000D01*
X123147023Y-109672380D02*
X123147023Y-108672380D01*
X122908928Y-108672380D01*
X122766071Y-108720000D01*
X122670833Y-108815238D01*
X122623214Y-108910476D01*
X122575595Y-109100952D01*
X122575595Y-109243809D01*
X122623214Y-109434285D01*
X122670833Y-109529523D01*
X122766071Y-109624761D01*
X122908928Y-109672380D01*
X123147023Y-109672380D01*
X122147023Y-109672380D02*
X122147023Y-108672380D01*
X121575595Y-109672380D01*
X121575595Y-108672380D01*
X124670833Y-107132380D02*
X124670833Y-106132380D01*
X124099405Y-107132380D01*
X124099405Y-106132380D01*
X123623214Y-107132380D02*
X123623214Y-106132380D01*
X122575595Y-107132380D02*
X122908929Y-106656190D01*
X123147024Y-107132380D02*
X123147024Y-106132380D01*
X122766071Y-106132380D01*
X122670833Y-106180000D01*
X122623214Y-106227619D01*
X122575595Y-106322857D01*
X122575595Y-106465714D01*
X122623214Y-106560952D01*
X122670833Y-106608571D01*
X122766071Y-106656190D01*
X123147024Y-106656190D01*
X121480357Y-107227619D02*
X121575595Y-107180000D01*
X121670833Y-107084761D01*
X121813690Y-106941904D01*
X121908929Y-106894285D01*
X122004167Y-106894285D01*
X121956548Y-107132380D02*
X122051786Y-107084761D01*
X122147024Y-106989523D01*
X122194643Y-106799047D01*
X122194643Y-106465714D01*
X122147024Y-106275238D01*
X122051786Y-106180000D01*
X121956548Y-106132380D01*
X121766071Y-106132380D01*
X121670833Y-106180000D01*
X121575595Y-106275238D01*
X121527976Y-106465714D01*
X121527976Y-106799047D01*
X121575595Y-106989523D01*
X121670833Y-107084761D01*
X121766071Y-107132380D01*
X121956548Y-107132380D01*
X124766071Y-104592380D02*
X124766071Y-103592380D01*
X124527976Y-103592380D01*
X124385119Y-103640000D01*
X124289881Y-103735238D01*
X124242262Y-103830476D01*
X124194643Y-104020952D01*
X124194643Y-104163809D01*
X124242262Y-104354285D01*
X124289881Y-104449523D01*
X124385119Y-104544761D01*
X124527976Y-104592380D01*
X124766071Y-104592380D01*
X123813690Y-104544761D02*
X123670833Y-104592380D01*
X123432738Y-104592380D01*
X123337500Y-104544761D01*
X123289881Y-104497142D01*
X123242262Y-104401904D01*
X123242262Y-104306666D01*
X123289881Y-104211428D01*
X123337500Y-104163809D01*
X123432738Y-104116190D01*
X123623214Y-104068571D01*
X123718452Y-104020952D01*
X123766071Y-103973333D01*
X123813690Y-103878095D01*
X123813690Y-103782857D01*
X123766071Y-103687619D01*
X123718452Y-103640000D01*
X123623214Y-103592380D01*
X123385119Y-103592380D01*
X123242262Y-103640000D01*
X122813690Y-104068571D02*
X122480357Y-104068571D01*
X122337500Y-104592380D02*
X122813690Y-104592380D01*
X122813690Y-103592380D01*
X122337500Y-103592380D01*
X121432738Y-104592380D02*
X121908928Y-104592380D01*
X121908928Y-103592380D01*
X124908928Y-102004761D02*
X124766071Y-102052380D01*
X124527976Y-102052380D01*
X124432738Y-102004761D01*
X124385119Y-101957142D01*
X124337500Y-101861904D01*
X124337500Y-101766666D01*
X124385119Y-101671428D01*
X124432738Y-101623809D01*
X124527976Y-101576190D01*
X124718452Y-101528571D01*
X124813690Y-101480952D01*
X124861309Y-101433333D01*
X124908928Y-101338095D01*
X124908928Y-101242857D01*
X124861309Y-101147619D01*
X124813690Y-101100000D01*
X124718452Y-101052380D01*
X124480357Y-101052380D01*
X124337500Y-101100000D01*
X123337500Y-101957142D02*
X123385119Y-102004761D01*
X123527976Y-102052380D01*
X123623214Y-102052380D01*
X123766071Y-102004761D01*
X123861309Y-101909523D01*
X123908928Y-101814285D01*
X123956547Y-101623809D01*
X123956547Y-101480952D01*
X123908928Y-101290476D01*
X123861309Y-101195238D01*
X123766071Y-101100000D01*
X123623214Y-101052380D01*
X123527976Y-101052380D01*
X123385119Y-101100000D01*
X123337500Y-101147619D01*
X122432738Y-102052380D02*
X122908928Y-102052380D01*
X122908928Y-101052380D01*
X122099405Y-102052380D02*
X122099405Y-101052380D01*
X121527976Y-102052380D02*
X121956547Y-101480952D01*
X121527976Y-101052380D02*
X122099405Y-101623809D01*
X123575594Y-99464761D02*
X123432737Y-99512380D01*
X123194642Y-99512380D01*
X123099404Y-99464761D01*
X123051785Y-99417142D01*
X123004166Y-99321904D01*
X123004166Y-99226666D01*
X123051785Y-99131428D01*
X123099404Y-99083809D01*
X123194642Y-99036190D01*
X123385118Y-98988571D01*
X123480356Y-98940952D01*
X123527975Y-98893333D01*
X123575594Y-98798095D01*
X123575594Y-98702857D01*
X123527975Y-98607619D01*
X123480356Y-98560000D01*
X123385118Y-98512380D01*
X123147023Y-98512380D01*
X123004166Y-98560000D01*
X122575594Y-99512380D02*
X122575594Y-98512380D01*
X122337499Y-98512380D01*
X122194642Y-98560000D01*
X122099404Y-98655238D01*
X122051785Y-98750476D01*
X122004166Y-98940952D01*
X122004166Y-99083809D01*
X122051785Y-99274285D01*
X122099404Y-99369523D01*
X122194642Y-99464761D01*
X122337499Y-99512380D01*
X122575594Y-99512380D01*
X121575594Y-99512380D02*
X121575594Y-98512380D01*
X124147023Y-96924761D02*
X124004166Y-96972380D01*
X123766071Y-96972380D01*
X123670833Y-96924761D01*
X123623214Y-96877142D01*
X123575595Y-96781904D01*
X123575595Y-96686666D01*
X123623214Y-96591428D01*
X123670833Y-96543809D01*
X123766071Y-96496190D01*
X123956547Y-96448571D01*
X124051785Y-96400952D01*
X124099404Y-96353333D01*
X124147023Y-96258095D01*
X124147023Y-96162857D01*
X124099404Y-96067619D01*
X124051785Y-96020000D01*
X123956547Y-95972380D01*
X123718452Y-95972380D01*
X123575595Y-96020000D01*
X123147023Y-96972380D02*
X123147023Y-95972380D01*
X122908928Y-95972380D01*
X122766071Y-96020000D01*
X122670833Y-96115238D01*
X122623214Y-96210476D01*
X122575595Y-96400952D01*
X122575595Y-96543809D01*
X122623214Y-96734285D01*
X122670833Y-96829523D01*
X122766071Y-96924761D01*
X122908928Y-96972380D01*
X123147023Y-96972380D01*
X121956547Y-95972380D02*
X121766071Y-95972380D01*
X121670833Y-96020000D01*
X121575595Y-96115238D01*
X121527976Y-96305714D01*
X121527976Y-96639047D01*
X121575595Y-96829523D01*
X121670833Y-96924761D01*
X121766071Y-96972380D01*
X121956547Y-96972380D01*
X122051785Y-96924761D01*
X122147023Y-96829523D01*
X122194642Y-96639047D01*
X122194642Y-96305714D01*
X122147023Y-96115238D01*
X122051785Y-96020000D01*
X121956547Y-95972380D01*
X124099404Y-93432380D02*
X123766071Y-94432380D01*
X123432738Y-93432380D01*
X122527976Y-94337142D02*
X122575595Y-94384761D01*
X122718452Y-94432380D01*
X122813690Y-94432380D01*
X122956547Y-94384761D01*
X123051785Y-94289523D01*
X123099404Y-94194285D01*
X123147023Y-94003809D01*
X123147023Y-93860952D01*
X123099404Y-93670476D01*
X123051785Y-93575238D01*
X122956547Y-93480000D01*
X122813690Y-93432380D01*
X122718452Y-93432380D01*
X122575595Y-93480000D01*
X122527976Y-93527619D01*
X121527976Y-94337142D02*
X121575595Y-94384761D01*
X121718452Y-94432380D01*
X121813690Y-94432380D01*
X121956547Y-94384761D01*
X122051785Y-94289523D01*
X122099404Y-94194285D01*
X122147023Y-94003809D01*
X122147023Y-93860952D01*
X122099404Y-93670476D01*
X122051785Y-93575238D01*
X121956547Y-93480000D01*
X121813690Y-93432380D01*
X121718452Y-93432380D01*
X121575595Y-93480000D01*
X121527976Y-93527619D01*
M02*
