G04 #@! TF.GenerationSoftware,KiCad,Pcbnew,(5.1.5)-3*
G04 #@! TF.CreationDate,2020-07-12T19:07:34-04:00*
G04 #@! TF.ProjectId,BreakoutSI4463PRORev3,42726561-6b6f-4757-9453-493434363350,rev?*
G04 #@! TF.SameCoordinates,Original*
G04 #@! TF.FileFunction,Legend,Top*
G04 #@! TF.FilePolarity,Positive*
%FSLAX46Y46*%
G04 Gerber Fmt 4.6, Leading zero omitted, Abs format (unit mm)*
G04 Created by KiCad (PCBNEW (5.1.5)-3) date 2020-07-12 19:07:34*
%MOMM*%
%LPD*%
G04 APERTURE LIST*
%ADD10C,0.100000*%
%ADD11C,0.150000*%
%ADD12C,0.127000*%
%ADD13C,0.120000*%
G04 APERTURE END LIST*
D10*
X134811952Y-95762000D02*
X134764333Y-95738190D01*
X134692904Y-95738190D01*
X134621476Y-95762000D01*
X134573857Y-95809619D01*
X134550047Y-95857238D01*
X134526238Y-95952476D01*
X134526238Y-96023904D01*
X134550047Y-96119142D01*
X134573857Y-96166761D01*
X134621476Y-96214380D01*
X134692904Y-96238190D01*
X134740523Y-96238190D01*
X134811952Y-96214380D01*
X134835761Y-96190571D01*
X134835761Y-96023904D01*
X134740523Y-96023904D01*
X135050047Y-96238190D02*
X135050047Y-95738190D01*
X135335761Y-96238190D01*
X135335761Y-95738190D01*
X135573857Y-96238190D02*
X135573857Y-95738190D01*
X135692904Y-95738190D01*
X135764333Y-95762000D01*
X135811952Y-95809619D01*
X135835761Y-95857238D01*
X135859571Y-95952476D01*
X135859571Y-96023904D01*
X135835761Y-96119142D01*
X135811952Y-96166761D01*
X135764333Y-96214380D01*
X135692904Y-96238190D01*
X135573857Y-96238190D01*
X136812238Y-96095333D02*
X137050333Y-96095333D01*
X136764619Y-96238190D02*
X136931285Y-95738190D01*
X137097952Y-96238190D01*
X137264619Y-96238190D02*
X137264619Y-95738190D01*
X137550333Y-96238190D01*
X137550333Y-95738190D01*
X137717000Y-95738190D02*
X138002714Y-95738190D01*
X137859857Y-96238190D02*
X137859857Y-95738190D01*
X126731619Y-99548190D02*
X126898285Y-100048190D01*
X127064952Y-99548190D01*
X127517333Y-100000571D02*
X127493523Y-100024380D01*
X127422095Y-100048190D01*
X127374476Y-100048190D01*
X127303047Y-100024380D01*
X127255428Y-99976761D01*
X127231619Y-99929142D01*
X127207809Y-99833904D01*
X127207809Y-99762476D01*
X127231619Y-99667238D01*
X127255428Y-99619619D01*
X127303047Y-99572000D01*
X127374476Y-99548190D01*
X127422095Y-99548190D01*
X127493523Y-99572000D01*
X127517333Y-99595809D01*
X128017333Y-100000571D02*
X127993523Y-100024380D01*
X127922095Y-100048190D01*
X127874476Y-100048190D01*
X127803047Y-100024380D01*
X127755428Y-99976761D01*
X127731619Y-99929142D01*
X127707809Y-99833904D01*
X127707809Y-99762476D01*
X127731619Y-99667238D01*
X127755428Y-99619619D01*
X127803047Y-99572000D01*
X127874476Y-99548190D01*
X127922095Y-99548190D01*
X127993523Y-99572000D01*
X128017333Y-99595809D01*
X126803047Y-104112190D02*
X126803047Y-103612190D01*
X126922095Y-103612190D01*
X126993523Y-103636000D01*
X127041142Y-103683619D01*
X127064952Y-103731238D01*
X127088761Y-103826476D01*
X127088761Y-103897904D01*
X127064952Y-103993142D01*
X127041142Y-104040761D01*
X126993523Y-104088380D01*
X126922095Y-104112190D01*
X126803047Y-104112190D01*
X127279238Y-104088380D02*
X127350666Y-104112190D01*
X127469714Y-104112190D01*
X127517333Y-104088380D01*
X127541142Y-104064571D01*
X127564952Y-104016952D01*
X127564952Y-103969333D01*
X127541142Y-103921714D01*
X127517333Y-103897904D01*
X127469714Y-103874095D01*
X127374476Y-103850285D01*
X127326857Y-103826476D01*
X127303047Y-103802666D01*
X127279238Y-103755047D01*
X127279238Y-103707428D01*
X127303047Y-103659809D01*
X127326857Y-103636000D01*
X127374476Y-103612190D01*
X127493523Y-103612190D01*
X127564952Y-103636000D01*
X127779238Y-103850285D02*
X127945904Y-103850285D01*
X128017333Y-104112190D02*
X127779238Y-104112190D01*
X127779238Y-103612190D01*
X128017333Y-103612190D01*
X128469714Y-104112190D02*
X128231619Y-104112190D01*
X128231619Y-103612190D01*
X126803047Y-105128190D02*
X126803047Y-104628190D01*
X127088761Y-105128190D01*
X127088761Y-104628190D01*
X127326857Y-105128190D02*
X127326857Y-104628190D01*
X127850666Y-105128190D02*
X127684000Y-104890095D01*
X127564952Y-105128190D02*
X127564952Y-104628190D01*
X127755428Y-104628190D01*
X127803047Y-104652000D01*
X127826857Y-104675809D01*
X127850666Y-104723428D01*
X127850666Y-104794857D01*
X127826857Y-104842476D01*
X127803047Y-104866285D01*
X127755428Y-104890095D01*
X127564952Y-104890095D01*
X128398285Y-105175809D02*
X128350666Y-105152000D01*
X128303047Y-105104380D01*
X128231619Y-105032952D01*
X128184000Y-105009142D01*
X128136380Y-105009142D01*
X128160190Y-105128190D02*
X128112571Y-105104380D01*
X128064952Y-105056761D01*
X128041142Y-104961523D01*
X128041142Y-104794857D01*
X128064952Y-104699619D01*
X128112571Y-104652000D01*
X128160190Y-104628190D01*
X128255428Y-104628190D01*
X128303047Y-104652000D01*
X128350666Y-104699619D01*
X128374476Y-104794857D01*
X128374476Y-104961523D01*
X128350666Y-105056761D01*
X128303047Y-105104380D01*
X128255428Y-105128190D01*
X128160190Y-105128190D01*
X126779238Y-106120380D02*
X126850666Y-106144190D01*
X126969714Y-106144190D01*
X127017333Y-106120380D01*
X127041142Y-106096571D01*
X127064952Y-106048952D01*
X127064952Y-106001333D01*
X127041142Y-105953714D01*
X127017333Y-105929904D01*
X126969714Y-105906095D01*
X126874476Y-105882285D01*
X126826857Y-105858476D01*
X126803047Y-105834666D01*
X126779238Y-105787047D01*
X126779238Y-105739428D01*
X126803047Y-105691809D01*
X126826857Y-105668000D01*
X126874476Y-105644190D01*
X126993523Y-105644190D01*
X127064952Y-105668000D01*
X127279238Y-106144190D02*
X127279238Y-105644190D01*
X127398285Y-105644190D01*
X127469714Y-105668000D01*
X127517333Y-105715619D01*
X127541142Y-105763238D01*
X127564952Y-105858476D01*
X127564952Y-105929904D01*
X127541142Y-106025142D01*
X127517333Y-106072761D01*
X127469714Y-106120380D01*
X127398285Y-106144190D01*
X127279238Y-106144190D01*
X127779238Y-106144190D02*
X127779238Y-105644190D01*
X128064952Y-106144190D01*
X128064952Y-105644190D01*
X126779238Y-101040380D02*
X126850666Y-101064190D01*
X126969714Y-101064190D01*
X127017333Y-101040380D01*
X127041142Y-101016571D01*
X127064952Y-100968952D01*
X127064952Y-100921333D01*
X127041142Y-100873714D01*
X127017333Y-100849904D01*
X126969714Y-100826095D01*
X126874476Y-100802285D01*
X126826857Y-100778476D01*
X126803047Y-100754666D01*
X126779238Y-100707047D01*
X126779238Y-100659428D01*
X126803047Y-100611809D01*
X126826857Y-100588000D01*
X126874476Y-100564190D01*
X126993523Y-100564190D01*
X127064952Y-100588000D01*
X127279238Y-101064190D02*
X127279238Y-100564190D01*
X127398285Y-100564190D01*
X127469714Y-100588000D01*
X127517333Y-100635619D01*
X127541142Y-100683238D01*
X127564952Y-100778476D01*
X127564952Y-100849904D01*
X127541142Y-100945142D01*
X127517333Y-100992761D01*
X127469714Y-101040380D01*
X127398285Y-101064190D01*
X127279238Y-101064190D01*
X127874476Y-100564190D02*
X127969714Y-100564190D01*
X128017333Y-100588000D01*
X128064952Y-100635619D01*
X128088761Y-100730857D01*
X128088761Y-100897523D01*
X128064952Y-100992761D01*
X128017333Y-101040380D01*
X127969714Y-101064190D01*
X127874476Y-101064190D01*
X127826857Y-101040380D01*
X127779238Y-100992761D01*
X127755428Y-100897523D01*
X127755428Y-100730857D01*
X127779238Y-100635619D01*
X127826857Y-100588000D01*
X127874476Y-100564190D01*
X127064952Y-106684000D02*
X127017333Y-106660190D01*
X126945904Y-106660190D01*
X126874476Y-106684000D01*
X126826857Y-106731619D01*
X126803047Y-106779238D01*
X126779238Y-106874476D01*
X126779238Y-106945904D01*
X126803047Y-107041142D01*
X126826857Y-107088761D01*
X126874476Y-107136380D01*
X126945904Y-107160190D01*
X126993523Y-107160190D01*
X127064952Y-107136380D01*
X127088761Y-107112571D01*
X127088761Y-106945904D01*
X126993523Y-106945904D01*
X127303047Y-107160190D02*
X127303047Y-106660190D01*
X127588761Y-107160190D01*
X127588761Y-106660190D01*
X127826857Y-107160190D02*
X127826857Y-106660190D01*
X127945904Y-106660190D01*
X128017333Y-106684000D01*
X128064952Y-106731619D01*
X128088761Y-106779238D01*
X128112571Y-106874476D01*
X128112571Y-106945904D01*
X128088761Y-107041142D01*
X128064952Y-107088761D01*
X128017333Y-107136380D01*
X127945904Y-107160190D01*
X127826857Y-107160190D01*
X129223952Y-95845000D02*
X129176333Y-95821190D01*
X129104904Y-95821190D01*
X129033476Y-95845000D01*
X128985857Y-95892619D01*
X128962047Y-95940238D01*
X128938238Y-96035476D01*
X128938238Y-96106904D01*
X128962047Y-96202142D01*
X128985857Y-96249761D01*
X129033476Y-96297380D01*
X129104904Y-96321190D01*
X129152523Y-96321190D01*
X129223952Y-96297380D01*
X129247761Y-96273571D01*
X129247761Y-96106904D01*
X129152523Y-96106904D01*
X129462047Y-96321190D02*
X129462047Y-95821190D01*
X129652523Y-95821190D01*
X129700142Y-95845000D01*
X129723952Y-95868809D01*
X129747761Y-95916428D01*
X129747761Y-95987857D01*
X129723952Y-96035476D01*
X129700142Y-96059285D01*
X129652523Y-96083095D01*
X129462047Y-96083095D01*
X129962047Y-96321190D02*
X129962047Y-95821190D01*
X130295380Y-95821190D02*
X130390619Y-95821190D01*
X130438238Y-95845000D01*
X130485857Y-95892619D01*
X130509666Y-95987857D01*
X130509666Y-96154523D01*
X130485857Y-96249761D01*
X130438238Y-96297380D01*
X130390619Y-96321190D01*
X130295380Y-96321190D01*
X130247761Y-96297380D01*
X130200142Y-96249761D01*
X130176333Y-96154523D01*
X130176333Y-95987857D01*
X130200142Y-95892619D01*
X130247761Y-95845000D01*
X130295380Y-95821190D01*
X129223952Y-97171190D02*
X128938238Y-97171190D01*
X129081095Y-97171190D02*
X129081095Y-96671190D01*
X129033476Y-96742619D01*
X128985857Y-96790238D01*
X128938238Y-96814047D01*
X129462047Y-97147380D02*
X129462047Y-97171190D01*
X129438238Y-97218809D01*
X129414428Y-97242619D01*
X130033476Y-96718809D02*
X130057285Y-96695000D01*
X130104904Y-96671190D01*
X130223952Y-96671190D01*
X130271571Y-96695000D01*
X130295380Y-96718809D01*
X130319190Y-96766428D01*
X130319190Y-96814047D01*
X130295380Y-96885476D01*
X130009666Y-97171190D01*
X130319190Y-97171190D01*
X126779238Y-102056380D02*
X126850666Y-102080190D01*
X126969714Y-102080190D01*
X127017333Y-102056380D01*
X127041142Y-102032571D01*
X127064952Y-101984952D01*
X127064952Y-101937333D01*
X127041142Y-101889714D01*
X127017333Y-101865904D01*
X126969714Y-101842095D01*
X126874476Y-101818285D01*
X126826857Y-101794476D01*
X126803047Y-101770666D01*
X126779238Y-101723047D01*
X126779238Y-101675428D01*
X126803047Y-101627809D01*
X126826857Y-101604000D01*
X126874476Y-101580190D01*
X126993523Y-101580190D01*
X127064952Y-101604000D01*
X127279238Y-102080190D02*
X127279238Y-101580190D01*
X127398285Y-101580190D01*
X127469714Y-101604000D01*
X127517333Y-101651619D01*
X127541142Y-101699238D01*
X127564952Y-101794476D01*
X127564952Y-101865904D01*
X127541142Y-101961142D01*
X127517333Y-102008761D01*
X127469714Y-102056380D01*
X127398285Y-102080190D01*
X127279238Y-102080190D01*
X127779238Y-102080190D02*
X127779238Y-101580190D01*
X126779238Y-103072380D02*
X126850666Y-103096190D01*
X126969714Y-103096190D01*
X127017333Y-103072380D01*
X127041142Y-103048571D01*
X127064952Y-103000952D01*
X127064952Y-102953333D01*
X127041142Y-102905714D01*
X127017333Y-102881904D01*
X126969714Y-102858095D01*
X126874476Y-102834285D01*
X126826857Y-102810476D01*
X126803047Y-102786666D01*
X126779238Y-102739047D01*
X126779238Y-102691428D01*
X126803047Y-102643809D01*
X126826857Y-102620000D01*
X126874476Y-102596190D01*
X126993523Y-102596190D01*
X127064952Y-102620000D01*
X127564952Y-103048571D02*
X127541142Y-103072380D01*
X127469714Y-103096190D01*
X127422095Y-103096190D01*
X127350666Y-103072380D01*
X127303047Y-103024761D01*
X127279238Y-102977142D01*
X127255428Y-102881904D01*
X127255428Y-102810476D01*
X127279238Y-102715238D01*
X127303047Y-102667619D01*
X127350666Y-102620000D01*
X127422095Y-102596190D01*
X127469714Y-102596190D01*
X127541142Y-102620000D01*
X127564952Y-102643809D01*
X128017333Y-103096190D02*
X127779238Y-103096190D01*
X127779238Y-102596190D01*
X128184000Y-103096190D02*
X128184000Y-102596190D01*
X128469714Y-103096190D02*
X128255428Y-102810476D01*
X128469714Y-102596190D02*
X128184000Y-102881904D01*
D11*
X123611309Y-110416095D02*
X123854166Y-110497047D01*
X124258928Y-110497047D01*
X124420833Y-110416095D01*
X124501785Y-110335142D01*
X124582738Y-110173238D01*
X124582738Y-110011333D01*
X124501785Y-109849428D01*
X124420833Y-109768476D01*
X124258928Y-109687523D01*
X123935119Y-109606571D01*
X123773214Y-109525619D01*
X123692261Y-109444666D01*
X123611309Y-109282761D01*
X123611309Y-109120857D01*
X123692261Y-108958952D01*
X123773214Y-108878000D01*
X123935119Y-108797047D01*
X124339880Y-108797047D01*
X124582738Y-108878000D01*
X125311309Y-110497047D02*
X125311309Y-108797047D01*
X126849404Y-109363714D02*
X126849404Y-110497047D01*
X126444642Y-108716095D02*
X126039880Y-109930380D01*
X127092261Y-109930380D01*
X128468452Y-109363714D02*
X128468452Y-110497047D01*
X128063690Y-108716095D02*
X127658928Y-109930380D01*
X128711309Y-109930380D01*
X130087500Y-108797047D02*
X129763690Y-108797047D01*
X129601785Y-108878000D01*
X129520833Y-108958952D01*
X129358928Y-109201809D01*
X129277976Y-109525619D01*
X129277976Y-110173238D01*
X129358928Y-110335142D01*
X129439880Y-110416095D01*
X129601785Y-110497047D01*
X129925595Y-110497047D01*
X130087500Y-110416095D01*
X130168452Y-110335142D01*
X130249404Y-110173238D01*
X130249404Y-109768476D01*
X130168452Y-109606571D01*
X130087500Y-109525619D01*
X129925595Y-109444666D01*
X129601785Y-109444666D01*
X129439880Y-109525619D01*
X129358928Y-109606571D01*
X129277976Y-109768476D01*
X130816071Y-108797047D02*
X131868452Y-108797047D01*
X131301785Y-109444666D01*
X131544642Y-109444666D01*
X131706547Y-109525619D01*
X131787500Y-109606571D01*
X131868452Y-109768476D01*
X131868452Y-110173238D01*
X131787500Y-110335142D01*
X131706547Y-110416095D01*
X131544642Y-110497047D01*
X131058928Y-110497047D01*
X130897023Y-110416095D01*
X130816071Y-110335142D01*
X132597023Y-110497047D02*
X132597023Y-108797047D01*
X133244642Y-108797047D01*
X133406547Y-108878000D01*
X133487500Y-108958952D01*
X133568452Y-109120857D01*
X133568452Y-109363714D01*
X133487500Y-109525619D01*
X133406547Y-109606571D01*
X133244642Y-109687523D01*
X132597023Y-109687523D01*
X135268452Y-110497047D02*
X134701785Y-109687523D01*
X134297023Y-110497047D02*
X134297023Y-108797047D01*
X134944642Y-108797047D01*
X135106547Y-108878000D01*
X135187500Y-108958952D01*
X135268452Y-109120857D01*
X135268452Y-109363714D01*
X135187500Y-109525619D01*
X135106547Y-109606571D01*
X134944642Y-109687523D01*
X134297023Y-109687523D01*
X136320833Y-108797047D02*
X136644642Y-108797047D01*
X136806547Y-108878000D01*
X136968452Y-109039904D01*
X137049404Y-109363714D01*
X137049404Y-109930380D01*
X136968452Y-110254190D01*
X136806547Y-110416095D01*
X136644642Y-110497047D01*
X136320833Y-110497047D01*
X136158928Y-110416095D01*
X135997023Y-110254190D01*
X135916071Y-109930380D01*
X135916071Y-109363714D01*
X135997023Y-109039904D01*
X136158928Y-108878000D01*
X136320833Y-108797047D01*
D10*
X121337285Y-93968857D02*
X121423000Y-93997428D01*
X121565857Y-93997428D01*
X121623000Y-93968857D01*
X121651571Y-93940285D01*
X121680142Y-93883142D01*
X121680142Y-93826000D01*
X121651571Y-93768857D01*
X121623000Y-93740285D01*
X121565857Y-93711714D01*
X121451571Y-93683142D01*
X121394428Y-93654571D01*
X121365857Y-93626000D01*
X121337285Y-93568857D01*
X121337285Y-93511714D01*
X121365857Y-93454571D01*
X121394428Y-93426000D01*
X121451571Y-93397428D01*
X121594428Y-93397428D01*
X121680142Y-93426000D01*
X121937285Y-93997428D02*
X121937285Y-93397428D01*
X122480142Y-93597428D02*
X122480142Y-93997428D01*
X122337285Y-93368857D02*
X122194428Y-93797428D01*
X122565857Y-93797428D01*
X123051571Y-93597428D02*
X123051571Y-93997428D01*
X122908714Y-93368857D02*
X122765857Y-93797428D01*
X123137285Y-93797428D01*
X123623000Y-93397428D02*
X123508714Y-93397428D01*
X123451571Y-93426000D01*
X123423000Y-93454571D01*
X123365857Y-93540285D01*
X123337285Y-93654571D01*
X123337285Y-93883142D01*
X123365857Y-93940285D01*
X123394428Y-93968857D01*
X123451571Y-93997428D01*
X123565857Y-93997428D01*
X123623000Y-93968857D01*
X123651571Y-93940285D01*
X123680142Y-93883142D01*
X123680142Y-93740285D01*
X123651571Y-93683142D01*
X123623000Y-93654571D01*
X123565857Y-93626000D01*
X123451571Y-93626000D01*
X123394428Y-93654571D01*
X123365857Y-93683142D01*
X123337285Y-93740285D01*
X123880142Y-93397428D02*
X124251571Y-93397428D01*
X124051571Y-93626000D01*
X124137285Y-93626000D01*
X124194428Y-93654571D01*
X124223000Y-93683142D01*
X124251571Y-93740285D01*
X124251571Y-93883142D01*
X124223000Y-93940285D01*
X124194428Y-93968857D01*
X124137285Y-93997428D01*
X123965857Y-93997428D01*
X123908714Y-93968857D01*
X123880142Y-93940285D01*
X124508714Y-93997428D02*
X124508714Y-93397428D01*
X124737285Y-93397428D01*
X124794428Y-93426000D01*
X124823000Y-93454571D01*
X124851571Y-93511714D01*
X124851571Y-93597428D01*
X124823000Y-93654571D01*
X124794428Y-93683142D01*
X124737285Y-93711714D01*
X124508714Y-93711714D01*
X125451571Y-93997428D02*
X125251571Y-93711714D01*
X125108714Y-93997428D02*
X125108714Y-93397428D01*
X125337285Y-93397428D01*
X125394428Y-93426000D01*
X125423000Y-93454571D01*
X125451571Y-93511714D01*
X125451571Y-93597428D01*
X125423000Y-93654571D01*
X125394428Y-93683142D01*
X125337285Y-93711714D01*
X125108714Y-93711714D01*
X125823000Y-93397428D02*
X125937285Y-93397428D01*
X125994428Y-93426000D01*
X126051571Y-93483142D01*
X126080142Y-93597428D01*
X126080142Y-93797428D01*
X126051571Y-93911714D01*
X125994428Y-93968857D01*
X125937285Y-93997428D01*
X125823000Y-93997428D01*
X125765857Y-93968857D01*
X125708714Y-93911714D01*
X125680142Y-93797428D01*
X125680142Y-93597428D01*
X125708714Y-93483142D01*
X125765857Y-93426000D01*
X125823000Y-93397428D01*
D12*
X122110500Y-112014000D02*
X122110500Y-95504000D01*
X122110500Y-95504000D02*
X138539220Y-95504000D01*
X138539220Y-112014000D02*
X122110500Y-112014000D01*
X138539220Y-95504000D02*
X138539220Y-112014000D01*
D13*
X120710000Y-113090000D02*
X119380000Y-113090000D01*
X120710000Y-111760000D02*
X120710000Y-113090000D01*
X120710000Y-110490000D02*
X118050000Y-110490000D01*
X118050000Y-110490000D02*
X118050000Y-92650000D01*
X120710000Y-110490000D02*
X120710000Y-92650000D01*
X120710000Y-92650000D02*
X118050000Y-92650000D01*
X126940000Y-92650000D02*
X128270000Y-92650000D01*
X126940000Y-93980000D02*
X126940000Y-92650000D01*
X126940000Y-95250000D02*
X129600000Y-95250000D01*
X129600000Y-95250000D02*
X129600000Y-95310000D01*
X126940000Y-95250000D02*
X126940000Y-95310000D01*
X126940000Y-95310000D02*
X129600000Y-95310000D01*
X129480000Y-95310000D02*
X132140000Y-95310000D01*
X129480000Y-95250000D02*
X129480000Y-95310000D01*
X132140000Y-95250000D02*
X132140000Y-95310000D01*
X129480000Y-95250000D02*
X132140000Y-95250000D01*
X129480000Y-93980000D02*
X129480000Y-92650000D01*
X129480000Y-92650000D02*
X130810000Y-92650000D01*
X137100000Y-92650000D02*
X138430000Y-92650000D01*
X137100000Y-93980000D02*
X137100000Y-92650000D01*
X137100000Y-95250000D02*
X139760000Y-95250000D01*
X139760000Y-95250000D02*
X139760000Y-95310000D01*
X137100000Y-95250000D02*
X137100000Y-95310000D01*
X137100000Y-95310000D02*
X139760000Y-95310000D01*
X134560000Y-95310000D02*
X137220000Y-95310000D01*
X134560000Y-95250000D02*
X134560000Y-95310000D01*
X137220000Y-95250000D02*
X137220000Y-95310000D01*
X134560000Y-95250000D02*
X137220000Y-95250000D01*
X134560000Y-93980000D02*
X134560000Y-92650000D01*
X134560000Y-92650000D02*
X135890000Y-92650000D01*
M02*
