G04 #@! TF.GenerationSoftware,KiCad,Pcbnew,(5.1.5)-3*
G04 #@! TF.CreationDate,2020-07-12T19:07:34-04:00*
G04 #@! TF.ProjectId,BreakoutSI4463PRORev3,42726561-6b6f-4757-9453-493434363350,rev?*
G04 #@! TF.SameCoordinates,Original*
G04 #@! TF.FileFunction,Soldermask,Bot*
G04 #@! TF.FilePolarity,Negative*
%FSLAX46Y46*%
G04 Gerber Fmt 4.6, Leading zero omitted, Abs format (unit mm)*
G04 Created by KiCad (PCBNEW (5.1.5)-3) date 2020-07-12 19:07:34*
%MOMM*%
%LPD*%
G04 APERTURE LIST*
%ADD10C,0.100000*%
G04 APERTURE END LIST*
D10*
G36*
X120281000Y-112661000D02*
G01*
X118479000Y-112661000D01*
X118479000Y-110859000D01*
X120281000Y-110859000D01*
X120281000Y-112661000D01*
G37*
G36*
X119493512Y-108323927D02*
G01*
X119642812Y-108353624D01*
X119806784Y-108421544D01*
X119954354Y-108520147D01*
X120079853Y-108645646D01*
X120178456Y-108793216D01*
X120246376Y-108957188D01*
X120281000Y-109131259D01*
X120281000Y-109308741D01*
X120246376Y-109482812D01*
X120178456Y-109646784D01*
X120079853Y-109794354D01*
X119954354Y-109919853D01*
X119806784Y-110018456D01*
X119642812Y-110086376D01*
X119493512Y-110116073D01*
X119468742Y-110121000D01*
X119291258Y-110121000D01*
X119266488Y-110116073D01*
X119117188Y-110086376D01*
X118953216Y-110018456D01*
X118805646Y-109919853D01*
X118680147Y-109794354D01*
X118581544Y-109646784D01*
X118513624Y-109482812D01*
X118479000Y-109308741D01*
X118479000Y-109131259D01*
X118513624Y-108957188D01*
X118581544Y-108793216D01*
X118680147Y-108645646D01*
X118805646Y-108520147D01*
X118953216Y-108421544D01*
X119117188Y-108353624D01*
X119266488Y-108323927D01*
X119291258Y-108319000D01*
X119468742Y-108319000D01*
X119493512Y-108323927D01*
G37*
G36*
X119493512Y-105783927D02*
G01*
X119642812Y-105813624D01*
X119806784Y-105881544D01*
X119954354Y-105980147D01*
X120079853Y-106105646D01*
X120178456Y-106253216D01*
X120246376Y-106417188D01*
X120281000Y-106591259D01*
X120281000Y-106768741D01*
X120246376Y-106942812D01*
X120178456Y-107106784D01*
X120079853Y-107254354D01*
X119954354Y-107379853D01*
X119806784Y-107478456D01*
X119642812Y-107546376D01*
X119493512Y-107576073D01*
X119468742Y-107581000D01*
X119291258Y-107581000D01*
X119266488Y-107576073D01*
X119117188Y-107546376D01*
X118953216Y-107478456D01*
X118805646Y-107379853D01*
X118680147Y-107254354D01*
X118581544Y-107106784D01*
X118513624Y-106942812D01*
X118479000Y-106768741D01*
X118479000Y-106591259D01*
X118513624Y-106417188D01*
X118581544Y-106253216D01*
X118680147Y-106105646D01*
X118805646Y-105980147D01*
X118953216Y-105881544D01*
X119117188Y-105813624D01*
X119266488Y-105783927D01*
X119291258Y-105779000D01*
X119468742Y-105779000D01*
X119493512Y-105783927D01*
G37*
G36*
X140200000Y-106421000D02*
G01*
X135898000Y-106421000D01*
X135898000Y-104969000D01*
X140200000Y-104969000D01*
X140200000Y-106421000D01*
G37*
G36*
X119493512Y-103243927D02*
G01*
X119642812Y-103273624D01*
X119806784Y-103341544D01*
X119954354Y-103440147D01*
X120079853Y-103565646D01*
X120178456Y-103713216D01*
X120246376Y-103877188D01*
X120281000Y-104051259D01*
X120281000Y-104228741D01*
X120246376Y-104402812D01*
X120178456Y-104566784D01*
X120079853Y-104714354D01*
X119954354Y-104839853D01*
X119806784Y-104938456D01*
X119642812Y-105006376D01*
X119493512Y-105036073D01*
X119468742Y-105041000D01*
X119291258Y-105041000D01*
X119266488Y-105036073D01*
X119117188Y-105006376D01*
X118953216Y-104938456D01*
X118805646Y-104839853D01*
X118680147Y-104714354D01*
X118581544Y-104566784D01*
X118513624Y-104402812D01*
X118479000Y-104228741D01*
X118479000Y-104051259D01*
X118513624Y-103877188D01*
X118581544Y-103713216D01*
X118680147Y-103565646D01*
X118805646Y-103440147D01*
X118953216Y-103341544D01*
X119117188Y-103273624D01*
X119266488Y-103243927D01*
X119291258Y-103239000D01*
X119468742Y-103239000D01*
X119493512Y-103243927D01*
G37*
G36*
X140100000Y-103556000D02*
G01*
X136398000Y-103556000D01*
X136398000Y-102184000D01*
X140100000Y-102184000D01*
X140100000Y-103556000D01*
G37*
G36*
X119493512Y-100703927D02*
G01*
X119642812Y-100733624D01*
X119806784Y-100801544D01*
X119954354Y-100900147D01*
X120079853Y-101025646D01*
X120178456Y-101173216D01*
X120246376Y-101337188D01*
X120281000Y-101511259D01*
X120281000Y-101688741D01*
X120246376Y-101862812D01*
X120178456Y-102026784D01*
X120079853Y-102174354D01*
X119954354Y-102299853D01*
X119806784Y-102398456D01*
X119642812Y-102466376D01*
X119493512Y-102496073D01*
X119468742Y-102501000D01*
X119291258Y-102501000D01*
X119266488Y-102496073D01*
X119117188Y-102466376D01*
X118953216Y-102398456D01*
X118805646Y-102299853D01*
X118680147Y-102174354D01*
X118581544Y-102026784D01*
X118513624Y-101862812D01*
X118479000Y-101688741D01*
X118479000Y-101511259D01*
X118513624Y-101337188D01*
X118581544Y-101173216D01*
X118680147Y-101025646D01*
X118805646Y-100900147D01*
X118953216Y-100801544D01*
X119117188Y-100733624D01*
X119266488Y-100703927D01*
X119291258Y-100699000D01*
X119468742Y-100699000D01*
X119493512Y-100703927D01*
G37*
G36*
X140200000Y-100771000D02*
G01*
X135898000Y-100771000D01*
X135898000Y-99319000D01*
X140200000Y-99319000D01*
X140200000Y-100771000D01*
G37*
G36*
X119493512Y-98163927D02*
G01*
X119642812Y-98193624D01*
X119806784Y-98261544D01*
X119954354Y-98360147D01*
X120079853Y-98485646D01*
X120178456Y-98633216D01*
X120246376Y-98797188D01*
X120281000Y-98971259D01*
X120281000Y-99148741D01*
X120246376Y-99322812D01*
X120178456Y-99486784D01*
X120079853Y-99634354D01*
X119954354Y-99759853D01*
X119806784Y-99858456D01*
X119642812Y-99926376D01*
X119493512Y-99956073D01*
X119468742Y-99961000D01*
X119291258Y-99961000D01*
X119266488Y-99956073D01*
X119117188Y-99926376D01*
X118953216Y-99858456D01*
X118805646Y-99759853D01*
X118680147Y-99634354D01*
X118581544Y-99486784D01*
X118513624Y-99322812D01*
X118479000Y-99148741D01*
X118479000Y-98971259D01*
X118513624Y-98797188D01*
X118581544Y-98633216D01*
X118680147Y-98485646D01*
X118805646Y-98360147D01*
X118953216Y-98261544D01*
X119117188Y-98193624D01*
X119266488Y-98163927D01*
X119291258Y-98159000D01*
X119468742Y-98159000D01*
X119493512Y-98163927D01*
G37*
G36*
X119493512Y-95623927D02*
G01*
X119642812Y-95653624D01*
X119806784Y-95721544D01*
X119954354Y-95820147D01*
X120079853Y-95945646D01*
X120178456Y-96093216D01*
X120246376Y-96257188D01*
X120281000Y-96431259D01*
X120281000Y-96608741D01*
X120246376Y-96782812D01*
X120178456Y-96946784D01*
X120079853Y-97094354D01*
X119954354Y-97219853D01*
X119806784Y-97318456D01*
X119642812Y-97386376D01*
X119493512Y-97416073D01*
X119468742Y-97421000D01*
X119291258Y-97421000D01*
X119266488Y-97416073D01*
X119117188Y-97386376D01*
X118953216Y-97318456D01*
X118805646Y-97219853D01*
X118680147Y-97094354D01*
X118581544Y-96946784D01*
X118513624Y-96782812D01*
X118479000Y-96608741D01*
X118479000Y-96431259D01*
X118513624Y-96257188D01*
X118581544Y-96093216D01*
X118680147Y-95945646D01*
X118805646Y-95820147D01*
X118953216Y-95721544D01*
X119117188Y-95653624D01*
X119266488Y-95623927D01*
X119291258Y-95619000D01*
X119468742Y-95619000D01*
X119493512Y-95623927D01*
G37*
G36*
X136791000Y-94881000D02*
G01*
X134989000Y-94881000D01*
X134989000Y-93079000D01*
X136791000Y-93079000D01*
X136791000Y-94881000D01*
G37*
G36*
X139331000Y-94881000D02*
G01*
X137529000Y-94881000D01*
X137529000Y-93079000D01*
X139331000Y-93079000D01*
X139331000Y-94881000D01*
G37*
G36*
X131711000Y-94881000D02*
G01*
X129909000Y-94881000D01*
X129909000Y-93079000D01*
X131711000Y-93079000D01*
X131711000Y-94881000D01*
G37*
G36*
X129171000Y-94881000D02*
G01*
X127369000Y-94881000D01*
X127369000Y-93079000D01*
X129171000Y-93079000D01*
X129171000Y-94881000D01*
G37*
G36*
X119493512Y-93083927D02*
G01*
X119642812Y-93113624D01*
X119806784Y-93181544D01*
X119954354Y-93280147D01*
X120079853Y-93405646D01*
X120178456Y-93553216D01*
X120246376Y-93717188D01*
X120281000Y-93891259D01*
X120281000Y-94068741D01*
X120246376Y-94242812D01*
X120178456Y-94406784D01*
X120079853Y-94554354D01*
X119954354Y-94679853D01*
X119806784Y-94778456D01*
X119642812Y-94846376D01*
X119493512Y-94876073D01*
X119468742Y-94881000D01*
X119291258Y-94881000D01*
X119266488Y-94876073D01*
X119117188Y-94846376D01*
X118953216Y-94778456D01*
X118805646Y-94679853D01*
X118680147Y-94554354D01*
X118581544Y-94406784D01*
X118513624Y-94242812D01*
X118479000Y-94068741D01*
X118479000Y-93891259D01*
X118513624Y-93717188D01*
X118581544Y-93553216D01*
X118680147Y-93405646D01*
X118805646Y-93280147D01*
X118953216Y-93181544D01*
X119117188Y-93113624D01*
X119266488Y-93083927D01*
X119291258Y-93079000D01*
X119468742Y-93079000D01*
X119493512Y-93083927D01*
G37*
M02*
