M48
; DRILL file {KiCad (5.1.5)-3} date 08/28/2020 3:18:24 PM
; FORMAT={-:-/ absolute / inch / decimal}
; #@! TF.CreationDate,2020-08-28T15:18:24-04:00
; #@! TF.GenerationSoftware,Kicad,Pcbnew,(5.1.5)-3
; #@! TF.FileFunction,Plated,1,2,PTH
FMAT,2
INCH
T1C0.0157
T2C0.0394
%
G90
G05
T1
X5.8085Y-2.7833
X5.8982Y-2.93
X5.9Y-2.85
X5.913Y-2.8066
X5.94Y-2.92
X5.9452Y-3.3248
X6.01Y-2.6
X6.01Y-3.01
X6.0121Y-2.8702
X6.0193Y-2.9142
X6.04Y-2.67
X6.04Y-3.48
X6.0679Y-3.0027
X6.0912Y-3.0588
X6.103Y-2.9827
X6.14Y-3.06
X6.15Y-2.54
X6.18Y-2.66
X6.18Y-2.84
X6.18Y-2.99
X6.1815Y-3.0415
X6.3166Y-2.7799
X6.3168Y-2.8644
X6.32Y-2.7
X6.32Y-2.95
X6.34Y-2.58
X6.3475Y-2.8129
X6.36Y-2.74
X6.36Y-2.95
X6.3611Y-2.8813
X6.4296Y-3.2104
X6.43Y-2.92
X6.45Y-2.77
X6.49Y-2.53
X6.4947Y-2.7349
X6.52Y-3.21
X6.5304Y-3.05
X6.5702Y-2.7067
X6.62Y-2.56
T2
X5.74Y-3.54
X5.74Y-3.44
X6.5Y-3.52
X6.6Y-3.52
X6.7Y-3.52
X6.8Y-3.52
X6.1Y-3.71
X6.2Y-3.71
X6.3Y-3.71
T2
G00X5.9638Y-3.1406
M15
G01X5.9638Y-3.2194
M16
G05
G00X6.0425Y-3.365
M15
G01X6.1213Y-3.365
M16
G05
G00X6.2Y-3.1406
M15
G01X6.2Y-3.2194
M16
G05
T0
M30
