G04 #@! TF.GenerationSoftware,KiCad,Pcbnew,(5.1.5)-3*
G04 #@! TF.CreationDate,2020-08-28T15:18:22-04:00*
G04 #@! TF.ProjectId,BikeLightComputerRev2,42696b65-4c69-4676-9874-436f6d707574,rev?*
G04 #@! TF.SameCoordinates,Original*
G04 #@! TF.FileFunction,Legend,Top*
G04 #@! TF.FilePolarity,Positive*
%FSLAX46Y46*%
G04 Gerber Fmt 4.6, Leading zero omitted, Abs format (unit mm)*
G04 Created by KiCad (PCBNEW (5.1.5)-3) date 2020-08-28 15:18:22*
%MOMM*%
%LPD*%
G04 APERTURE LIST*
%ADD10C,0.150000*%
%ADD11C,0.120000*%
%ADD12C,0.250000*%
%ADD13C,0.200000*%
G04 APERTURE END LIST*
D10*
X185110380Y-80906571D02*
X185110380Y-81478000D01*
X185110380Y-81192285D02*
X184110380Y-81192285D01*
X184253238Y-81287523D01*
X184348476Y-81382761D01*
X184396095Y-81478000D01*
X185015142Y-80478000D02*
X185062761Y-80430380D01*
X185110380Y-80478000D01*
X185062761Y-80525619D01*
X185015142Y-80478000D01*
X185110380Y-80478000D01*
X184443714Y-79573238D02*
X185110380Y-79573238D01*
X184062761Y-79811333D02*
X184777047Y-80049428D01*
X184777047Y-79430380D01*
X184205619Y-79097047D02*
X184158000Y-79049428D01*
X184110380Y-78954190D01*
X184110380Y-78716095D01*
X184158000Y-78620857D01*
X184205619Y-78573238D01*
X184300857Y-78525619D01*
X184396095Y-78525619D01*
X184538952Y-78573238D01*
X185110380Y-79144666D01*
X185110380Y-78525619D01*
X184110380Y-77906571D02*
X184110380Y-77811333D01*
X184158000Y-77716095D01*
X184205619Y-77668476D01*
X184300857Y-77620857D01*
X184491333Y-77573238D01*
X184729428Y-77573238D01*
X184919904Y-77620857D01*
X185015142Y-77668476D01*
X185062761Y-77716095D01*
X185110380Y-77811333D01*
X185110380Y-77906571D01*
X185062761Y-78001809D01*
X185015142Y-78049428D01*
X184919904Y-78097047D01*
X184729428Y-78144666D01*
X184491333Y-78144666D01*
X184300857Y-78097047D01*
X184205619Y-78049428D01*
X184158000Y-78001809D01*
X184110380Y-77906571D01*
X184110380Y-76954190D02*
X184110380Y-76858952D01*
X184158000Y-76763714D01*
X184205619Y-76716095D01*
X184300857Y-76668476D01*
X184491333Y-76620857D01*
X184729428Y-76620857D01*
X184919904Y-76668476D01*
X185015142Y-76716095D01*
X185062761Y-76763714D01*
X185110380Y-76858952D01*
X185110380Y-76954190D01*
X185062761Y-77049428D01*
X185015142Y-77097047D01*
X184919904Y-77144666D01*
X184729428Y-77192285D01*
X184491333Y-77192285D01*
X184300857Y-77144666D01*
X184205619Y-77097047D01*
X184158000Y-77049428D01*
X184110380Y-76954190D01*
X185110380Y-75430380D02*
X184443714Y-75430380D01*
X184110380Y-75430380D02*
X184158000Y-75478000D01*
X184205619Y-75430380D01*
X184158000Y-75382761D01*
X184110380Y-75430380D01*
X184205619Y-75430380D01*
X184443714Y-74954190D02*
X185110380Y-74954190D01*
X184538952Y-74954190D02*
X184491333Y-74906571D01*
X184443714Y-74811333D01*
X184443714Y-74668476D01*
X184491333Y-74573238D01*
X184586571Y-74525619D01*
X185110380Y-74525619D01*
D11*
X183388000Y-96012000D02*
X183388000Y-59944000D01*
X180848000Y-96012000D02*
X183974421Y-96012000D01*
X180848000Y-59944000D02*
X183974421Y-59944000D01*
X183388000Y-59944000D02*
X183974421Y-61070504D01*
X183388000Y-59944000D02*
X182801579Y-61070504D01*
X183388000Y-96012000D02*
X183974421Y-94885496D01*
X183388000Y-96012000D02*
X182801579Y-94885496D01*
D10*
X157091428Y-104846380D02*
X156520000Y-104846380D01*
X156805714Y-104846380D02*
X156805714Y-103846380D01*
X156710476Y-103989238D01*
X156615238Y-104084476D01*
X156520000Y-104132095D01*
X157520000Y-104751142D02*
X157567619Y-104798761D01*
X157520000Y-104846380D01*
X157472380Y-104798761D01*
X157520000Y-104751142D01*
X157520000Y-104846380D01*
X157948571Y-103941619D02*
X157996190Y-103894000D01*
X158091428Y-103846380D01*
X158329523Y-103846380D01*
X158424761Y-103894000D01*
X158472380Y-103941619D01*
X158520000Y-104036857D01*
X158520000Y-104132095D01*
X158472380Y-104274952D01*
X157900952Y-104846380D01*
X158520000Y-104846380D01*
X159091428Y-104274952D02*
X158996190Y-104227333D01*
X158948571Y-104179714D01*
X158900952Y-104084476D01*
X158900952Y-104036857D01*
X158948571Y-103941619D01*
X158996190Y-103894000D01*
X159091428Y-103846380D01*
X159281904Y-103846380D01*
X159377142Y-103894000D01*
X159424761Y-103941619D01*
X159472380Y-104036857D01*
X159472380Y-104084476D01*
X159424761Y-104179714D01*
X159377142Y-104227333D01*
X159281904Y-104274952D01*
X159091428Y-104274952D01*
X158996190Y-104322571D01*
X158948571Y-104370190D01*
X158900952Y-104465428D01*
X158900952Y-104655904D01*
X158948571Y-104751142D01*
X158996190Y-104798761D01*
X159091428Y-104846380D01*
X159281904Y-104846380D01*
X159377142Y-104798761D01*
X159424761Y-104751142D01*
X159472380Y-104655904D01*
X159472380Y-104465428D01*
X159424761Y-104370190D01*
X159377142Y-104322571D01*
X159281904Y-104274952D01*
X160091428Y-103846380D02*
X160186666Y-103846380D01*
X160281904Y-103894000D01*
X160329523Y-103941619D01*
X160377142Y-104036857D01*
X160424761Y-104227333D01*
X160424761Y-104465428D01*
X160377142Y-104655904D01*
X160329523Y-104751142D01*
X160281904Y-104798761D01*
X160186666Y-104846380D01*
X160091428Y-104846380D01*
X159996190Y-104798761D01*
X159948571Y-104751142D01*
X159900952Y-104655904D01*
X159853333Y-104465428D01*
X159853333Y-104227333D01*
X159900952Y-104036857D01*
X159948571Y-103941619D01*
X159996190Y-103894000D01*
X160091428Y-103846380D01*
X161043809Y-103846380D02*
X161139047Y-103846380D01*
X161234285Y-103894000D01*
X161281904Y-103941619D01*
X161329523Y-104036857D01*
X161377142Y-104227333D01*
X161377142Y-104465428D01*
X161329523Y-104655904D01*
X161281904Y-104751142D01*
X161234285Y-104798761D01*
X161139047Y-104846380D01*
X161043809Y-104846380D01*
X160948571Y-104798761D01*
X160900952Y-104751142D01*
X160853333Y-104655904D01*
X160805714Y-104465428D01*
X160805714Y-104227333D01*
X160853333Y-104036857D01*
X160900952Y-103941619D01*
X160948571Y-103894000D01*
X161043809Y-103846380D01*
X162567619Y-104846380D02*
X162567619Y-104179714D01*
X162567619Y-103846380D02*
X162520000Y-103894000D01*
X162567619Y-103941619D01*
X162615238Y-103894000D01*
X162567619Y-103846380D01*
X162567619Y-103941619D01*
X163043809Y-104179714D02*
X163043809Y-104846380D01*
X163043809Y-104274952D02*
X163091428Y-104227333D01*
X163186666Y-104179714D01*
X163329523Y-104179714D01*
X163424761Y-104227333D01*
X163472380Y-104322571D01*
X163472380Y-104846380D01*
D11*
X143764000Y-103124000D02*
X176276000Y-103124000D01*
X143764000Y-100076000D02*
X143764000Y-103710421D01*
X176276000Y-100076000D02*
X176276000Y-103710421D01*
X176276000Y-103124000D02*
X175149496Y-103710421D01*
X176276000Y-103124000D02*
X175149496Y-102537579D01*
X143764000Y-103124000D02*
X144890504Y-103710421D01*
X143764000Y-103124000D02*
X144890504Y-102537579D01*
X156972000Y-63500000D02*
X156337000Y-63754000D01*
X156972000Y-62865000D02*
X156464000Y-62738000D01*
X157226000Y-62230000D02*
X156845000Y-61849000D01*
X157988000Y-61722000D02*
X157607000Y-61341000D01*
X158877000Y-61214000D02*
X158623000Y-60706000D01*
X159639000Y-60960000D02*
X159639000Y-60579000D01*
X160274000Y-61087000D02*
X160401000Y-60579000D01*
X161290000Y-61214000D02*
X161417000Y-60833000D01*
X161925000Y-61976000D02*
X162306000Y-61722000D01*
X162306000Y-62738000D02*
X163068000Y-62611000D01*
X162433000Y-63373000D02*
X162941000Y-63627000D01*
X160528000Y-61595000D02*
X161163000Y-61912500D01*
X160782000Y-61722000D02*
X160528000Y-61595000D01*
X159512000Y-63246000D02*
X159512000Y-62230000D01*
X162052000Y-63246000D02*
G75*
G03X162052000Y-63246000I-762000J0D01*
G01*
X159004000Y-63246000D02*
G75*
G03X159004000Y-63246000I-762000J0D01*
G01*
X159004000Y-63246000D02*
G75*
G03X159004000Y-63246000I-762000J0D01*
G01*
X158242000Y-63246000D02*
X159512000Y-63246000D01*
X161290000Y-63246000D02*
X160782000Y-61976000D01*
X160782000Y-61976000D02*
X160782000Y-61722000D01*
X159512000Y-62230000D02*
X160782000Y-61976000D01*
X159321500Y-61976000D02*
X159702500Y-61976000D01*
X159512000Y-63246000D02*
X160782000Y-62230000D01*
X159512000Y-61976000D02*
X159321500Y-61976000D01*
X159512000Y-62230000D02*
X159512000Y-61976000D01*
X159512000Y-62230000D02*
X158242000Y-63246000D01*
D10*
X171890357Y-76792142D02*
X171976071Y-76820714D01*
X172004642Y-76849285D01*
X172033214Y-76906428D01*
X172033214Y-76992142D01*
X172004642Y-77049285D01*
X171976071Y-77077857D01*
X171918928Y-77106428D01*
X171690357Y-77106428D01*
X171690357Y-76506428D01*
X171890357Y-76506428D01*
X171947500Y-76535000D01*
X171976071Y-76563571D01*
X172004642Y-76620714D01*
X172004642Y-76677857D01*
X171976071Y-76735000D01*
X171947500Y-76763571D01*
X171890357Y-76792142D01*
X171690357Y-76792142D01*
X172376071Y-77106428D02*
X172318928Y-77077857D01*
X172290357Y-77020714D01*
X172290357Y-76506428D01*
X172861785Y-76706428D02*
X172861785Y-77106428D01*
X172604642Y-76706428D02*
X172604642Y-77020714D01*
X172633214Y-77077857D01*
X172690357Y-77106428D01*
X172776071Y-77106428D01*
X172833214Y-77077857D01*
X172861785Y-77049285D01*
X173376071Y-77077857D02*
X173318928Y-77106428D01*
X173204642Y-77106428D01*
X173147500Y-77077857D01*
X173118928Y-77020714D01*
X173118928Y-76792142D01*
X173147500Y-76735000D01*
X173204642Y-76706428D01*
X173318928Y-76706428D01*
X173376071Y-76735000D01*
X173404642Y-76792142D01*
X173404642Y-76849285D01*
X173118928Y-76906428D01*
X172004642Y-72725000D02*
X171947500Y-72696428D01*
X171861785Y-72696428D01*
X171776071Y-72725000D01*
X171718928Y-72782142D01*
X171690357Y-72839285D01*
X171661785Y-72953571D01*
X171661785Y-73039285D01*
X171690357Y-73153571D01*
X171718928Y-73210714D01*
X171776071Y-73267857D01*
X171861785Y-73296428D01*
X171918928Y-73296428D01*
X172004642Y-73267857D01*
X172033214Y-73239285D01*
X172033214Y-73039285D01*
X171918928Y-73039285D01*
X172290357Y-73296428D02*
X172290357Y-72896428D01*
X172290357Y-73010714D02*
X172318928Y-72953571D01*
X172347500Y-72925000D01*
X172404642Y-72896428D01*
X172461785Y-72896428D01*
X172890357Y-73267857D02*
X172833214Y-73296428D01*
X172718928Y-73296428D01*
X172661785Y-73267857D01*
X172633214Y-73210714D01*
X172633214Y-72982142D01*
X172661785Y-72925000D01*
X172718928Y-72896428D01*
X172833214Y-72896428D01*
X172890357Y-72925000D01*
X172918928Y-72982142D01*
X172918928Y-73039285D01*
X172633214Y-73096428D01*
X173404642Y-73267857D02*
X173347500Y-73296428D01*
X173233214Y-73296428D01*
X173176071Y-73267857D01*
X173147500Y-73210714D01*
X173147500Y-72982142D01*
X173176071Y-72925000D01*
X173233214Y-72896428D01*
X173347500Y-72896428D01*
X173404642Y-72925000D01*
X173433214Y-72982142D01*
X173433214Y-73039285D01*
X173147500Y-73096428D01*
X173690357Y-72896428D02*
X173690357Y-73296428D01*
X173690357Y-72953571D02*
X173718928Y-72925000D01*
X173776071Y-72896428D01*
X173861785Y-72896428D01*
X173918928Y-72925000D01*
X173947500Y-72982142D01*
X173947500Y-73296428D01*
X172033214Y-69486428D02*
X171833214Y-69200714D01*
X171690357Y-69486428D02*
X171690357Y-68886428D01*
X171918928Y-68886428D01*
X171976071Y-68915000D01*
X172004642Y-68943571D01*
X172033214Y-69000714D01*
X172033214Y-69086428D01*
X172004642Y-69143571D01*
X171976071Y-69172142D01*
X171918928Y-69200714D01*
X171690357Y-69200714D01*
X172518928Y-69457857D02*
X172461785Y-69486428D01*
X172347500Y-69486428D01*
X172290357Y-69457857D01*
X172261785Y-69400714D01*
X172261785Y-69172142D01*
X172290357Y-69115000D01*
X172347500Y-69086428D01*
X172461785Y-69086428D01*
X172518928Y-69115000D01*
X172547500Y-69172142D01*
X172547500Y-69229285D01*
X172261785Y-69286428D01*
X173061785Y-69486428D02*
X173061785Y-68886428D01*
X173061785Y-69457857D02*
X173004642Y-69486428D01*
X172890357Y-69486428D01*
X172833214Y-69457857D01*
X172804642Y-69429285D01*
X172776071Y-69372142D01*
X172776071Y-69200714D01*
X172804642Y-69143571D01*
X172833214Y-69115000D01*
X172890357Y-69086428D01*
X173004642Y-69086428D01*
X173061785Y-69115000D01*
X172004642Y-65676428D02*
X171661785Y-65676428D01*
X171833214Y-65676428D02*
X171833214Y-65076428D01*
X171776071Y-65162142D01*
X171718928Y-65219285D01*
X171661785Y-65247857D01*
X172233214Y-65133571D02*
X172261785Y-65105000D01*
X172318928Y-65076428D01*
X172461785Y-65076428D01*
X172518928Y-65105000D01*
X172547500Y-65133571D01*
X172576071Y-65190714D01*
X172576071Y-65247857D01*
X172547500Y-65333571D01*
X172204642Y-65676428D01*
X172576071Y-65676428D01*
X172747500Y-65076428D02*
X172947500Y-65676428D01*
X173147500Y-65076428D01*
X165048214Y-91567428D02*
X164848214Y-91281714D01*
X164705357Y-91567428D02*
X164705357Y-90967428D01*
X164933928Y-90967428D01*
X164991071Y-90996000D01*
X165019642Y-91024571D01*
X165048214Y-91081714D01*
X165048214Y-91167428D01*
X165019642Y-91224571D01*
X164991071Y-91253142D01*
X164933928Y-91281714D01*
X164705357Y-91281714D01*
X165248214Y-90967428D02*
X165648214Y-91567428D01*
X165648214Y-90967428D02*
X165248214Y-91567428D01*
X167162500Y-90967428D02*
X167505357Y-90967428D01*
X167333928Y-91567428D02*
X167333928Y-90967428D01*
X167648214Y-90967428D02*
X168048214Y-91567428D01*
X168048214Y-90967428D02*
X167648214Y-91567428D01*
X169505357Y-90996000D02*
X169448214Y-90967428D01*
X169362500Y-90967428D01*
X169276785Y-90996000D01*
X169219642Y-91053142D01*
X169191071Y-91110285D01*
X169162500Y-91224571D01*
X169162500Y-91310285D01*
X169191071Y-91424571D01*
X169219642Y-91481714D01*
X169276785Y-91538857D01*
X169362500Y-91567428D01*
X169419642Y-91567428D01*
X169505357Y-91538857D01*
X169533928Y-91510285D01*
X169533928Y-91310285D01*
X169419642Y-91310285D01*
X169791071Y-91567428D02*
X169791071Y-90967428D01*
X170133928Y-91567428D01*
X170133928Y-90967428D01*
X170419642Y-91567428D02*
X170419642Y-90967428D01*
X170562500Y-90967428D01*
X170648214Y-90996000D01*
X170705357Y-91053142D01*
X170733928Y-91110285D01*
X170762500Y-91224571D01*
X170762500Y-91310285D01*
X170733928Y-91424571D01*
X170705357Y-91481714D01*
X170648214Y-91538857D01*
X170562500Y-91567428D01*
X170419642Y-91567428D01*
X171876785Y-90967428D02*
X172248214Y-90967428D01*
X172048214Y-91196000D01*
X172133928Y-91196000D01*
X172191071Y-91224571D01*
X172219642Y-91253142D01*
X172248214Y-91310285D01*
X172248214Y-91453142D01*
X172219642Y-91510285D01*
X172191071Y-91538857D01*
X172133928Y-91567428D01*
X171962500Y-91567428D01*
X171905357Y-91538857D01*
X171876785Y-91510285D01*
X172448214Y-91167428D02*
X172591071Y-91567428D01*
X172733928Y-91167428D01*
X172905357Y-90967428D02*
X173276785Y-90967428D01*
X173076785Y-91196000D01*
X173162500Y-91196000D01*
X173219642Y-91224571D01*
X173248214Y-91253142D01*
X173276785Y-91310285D01*
X173276785Y-91453142D01*
X173248214Y-91510285D01*
X173219642Y-91538857D01*
X173162500Y-91567428D01*
X172991071Y-91567428D01*
X172933928Y-91538857D01*
X172905357Y-91510285D01*
X166276785Y-92303142D02*
X166362500Y-92331714D01*
X166391071Y-92360285D01*
X166419642Y-92417428D01*
X166419642Y-92503142D01*
X166391071Y-92560285D01*
X166362500Y-92588857D01*
X166305357Y-92617428D01*
X166076785Y-92617428D01*
X166076785Y-92017428D01*
X166276785Y-92017428D01*
X166333928Y-92046000D01*
X166362500Y-92074571D01*
X166391071Y-92131714D01*
X166391071Y-92188857D01*
X166362500Y-92246000D01*
X166333928Y-92274571D01*
X166276785Y-92303142D01*
X166076785Y-92303142D01*
X166762500Y-92617428D02*
X166705357Y-92588857D01*
X166676785Y-92531714D01*
X166676785Y-92017428D01*
X167248214Y-92217428D02*
X167248214Y-92617428D01*
X166991071Y-92217428D02*
X166991071Y-92531714D01*
X167019642Y-92588857D01*
X167076785Y-92617428D01*
X167162500Y-92617428D01*
X167219642Y-92588857D01*
X167248214Y-92560285D01*
X167762500Y-92588857D02*
X167705357Y-92617428D01*
X167591071Y-92617428D01*
X167533928Y-92588857D01*
X167505357Y-92531714D01*
X167505357Y-92303142D01*
X167533928Y-92246000D01*
X167591071Y-92217428D01*
X167705357Y-92217428D01*
X167762500Y-92246000D01*
X167791071Y-92303142D01*
X167791071Y-92360285D01*
X167505357Y-92417428D01*
X167962500Y-92217428D02*
X168191071Y-92217428D01*
X168048214Y-92017428D02*
X168048214Y-92531714D01*
X168076785Y-92588857D01*
X168133928Y-92617428D01*
X168191071Y-92617428D01*
X168476785Y-92617428D02*
X168419642Y-92588857D01*
X168391071Y-92560285D01*
X168362500Y-92503142D01*
X168362500Y-92331714D01*
X168391071Y-92274571D01*
X168419642Y-92246000D01*
X168476785Y-92217428D01*
X168562500Y-92217428D01*
X168619642Y-92246000D01*
X168648214Y-92274571D01*
X168676785Y-92331714D01*
X168676785Y-92503142D01*
X168648214Y-92560285D01*
X168619642Y-92588857D01*
X168562500Y-92617428D01*
X168476785Y-92617428D01*
X169019642Y-92617428D02*
X168962500Y-92588857D01*
X168933928Y-92560285D01*
X168905357Y-92503142D01*
X168905357Y-92331714D01*
X168933928Y-92274571D01*
X168962500Y-92246000D01*
X169019642Y-92217428D01*
X169105357Y-92217428D01*
X169162500Y-92246000D01*
X169191071Y-92274571D01*
X169219642Y-92331714D01*
X169219642Y-92503142D01*
X169191071Y-92560285D01*
X169162500Y-92588857D01*
X169105357Y-92617428D01*
X169019642Y-92617428D01*
X169391071Y-92217428D02*
X169619642Y-92217428D01*
X169476785Y-92017428D02*
X169476785Y-92531714D01*
X169505357Y-92588857D01*
X169562500Y-92617428D01*
X169619642Y-92617428D01*
X169819642Y-92617428D02*
X169819642Y-92017428D01*
X170076785Y-92617428D02*
X170076785Y-92303142D01*
X170048214Y-92246000D01*
X169991071Y-92217428D01*
X169905357Y-92217428D01*
X169848214Y-92246000D01*
X169819642Y-92274571D01*
X171105357Y-92617428D02*
X170819642Y-92617428D01*
X170819642Y-92017428D01*
X171305357Y-92303142D02*
X171505357Y-92303142D01*
X171591071Y-92617428D02*
X171305357Y-92617428D01*
X171305357Y-92017428D01*
X171591071Y-92017428D01*
X154551428Y-91400380D02*
X154741904Y-91400380D01*
X154837142Y-91448000D01*
X154932380Y-91543238D01*
X154980000Y-91733714D01*
X154980000Y-92067047D01*
X154932380Y-92257523D01*
X154837142Y-92352761D01*
X154741904Y-92400380D01*
X154551428Y-92400380D01*
X154456190Y-92352761D01*
X154360952Y-92257523D01*
X154313333Y-92067047D01*
X154313333Y-91733714D01*
X154360952Y-91543238D01*
X154456190Y-91448000D01*
X154551428Y-91400380D01*
X155265714Y-91733714D02*
X155646666Y-91733714D01*
X155408571Y-92400380D02*
X155408571Y-91543238D01*
X155456190Y-91448000D01*
X155551428Y-91400380D01*
X155646666Y-91400380D01*
X155837142Y-91733714D02*
X156218095Y-91733714D01*
X155980000Y-92400380D02*
X155980000Y-91543238D01*
X156027619Y-91448000D01*
X156122857Y-91400380D01*
X156218095Y-91400380D01*
X158027619Y-91352761D02*
X157170476Y-92638476D01*
X159313333Y-91400380D02*
X159503809Y-91400380D01*
X159599047Y-91448000D01*
X159694285Y-91543238D01*
X159741904Y-91733714D01*
X159741904Y-92067047D01*
X159694285Y-92257523D01*
X159599047Y-92352761D01*
X159503809Y-92400380D01*
X159313333Y-92400380D01*
X159218095Y-92352761D01*
X159122857Y-92257523D01*
X159075238Y-92067047D01*
X159075238Y-91733714D01*
X159122857Y-91543238D01*
X159218095Y-91448000D01*
X159313333Y-91400380D01*
X160170476Y-91733714D02*
X160170476Y-92400380D01*
X160170476Y-91828952D02*
X160218095Y-91781333D01*
X160313333Y-91733714D01*
X160456190Y-91733714D01*
X160551428Y-91781333D01*
X160599047Y-91876571D01*
X160599047Y-92400380D01*
X147556571Y-86914642D02*
X147556571Y-86571785D01*
X147556571Y-86743214D02*
X148156571Y-86743214D01*
X148070857Y-86686071D01*
X148013714Y-86628928D01*
X147985142Y-86571785D01*
X148099428Y-87143214D02*
X148128000Y-87171785D01*
X148156571Y-87228928D01*
X148156571Y-87371785D01*
X148128000Y-87428928D01*
X148099428Y-87457500D01*
X148042285Y-87486071D01*
X147985142Y-87486071D01*
X147899428Y-87457500D01*
X147556571Y-87114642D01*
X147556571Y-87486071D01*
X148156571Y-87657500D02*
X147556571Y-87857500D01*
X148156571Y-88057500D01*
X148128000Y-89486071D02*
X148156571Y-89428928D01*
X148156571Y-89343214D01*
X148128000Y-89257500D01*
X148070857Y-89200357D01*
X148013714Y-89171785D01*
X147899428Y-89143214D01*
X147813714Y-89143214D01*
X147699428Y-89171785D01*
X147642285Y-89200357D01*
X147585142Y-89257500D01*
X147556571Y-89343214D01*
X147556571Y-89400357D01*
X147585142Y-89486071D01*
X147613714Y-89514642D01*
X147813714Y-89514642D01*
X147813714Y-89400357D01*
X147556571Y-89771785D02*
X148156571Y-89771785D01*
X147556571Y-90114642D01*
X148156571Y-90114642D01*
X147556571Y-90400357D02*
X148156571Y-90400357D01*
X148156571Y-90543214D01*
X148128000Y-90628928D01*
X148070857Y-90686071D01*
X148013714Y-90714642D01*
X147899428Y-90743214D01*
X147813714Y-90743214D01*
X147699428Y-90714642D01*
X147642285Y-90686071D01*
X147585142Y-90628928D01*
X147556571Y-90543214D01*
X147556571Y-90400357D01*
D12*
X159597000Y-69261000D02*
G75*
G03X159597000Y-69261000I-125000J0D01*
G01*
D13*
X162472000Y-65963000D02*
X164072000Y-65963000D01*
X164722000Y-72313000D02*
X164722000Y-65863000D01*
X168222000Y-72313000D02*
X164722000Y-72313000D01*
X168222000Y-65863000D02*
X168222000Y-72313000D01*
X164722000Y-65863000D02*
X168222000Y-65863000D01*
X164722000Y-73229000D02*
X168222000Y-73229000D01*
X168222000Y-73229000D02*
X168222000Y-79679000D01*
X168222000Y-79679000D02*
X164722000Y-79679000D01*
X164722000Y-79679000D02*
X164722000Y-73229000D01*
X162472000Y-73329000D02*
X164072000Y-73329000D01*
X162472000Y-80695000D02*
X164072000Y-80695000D01*
X164722000Y-87045000D02*
X164722000Y-80595000D01*
X168222000Y-87045000D02*
X164722000Y-87045000D01*
X168222000Y-80595000D02*
X168222000Y-87045000D01*
X164722000Y-80595000D02*
X168222000Y-80595000D01*
D11*
X154844000Y-67218000D02*
X155544000Y-67218000D01*
X155544000Y-68418000D02*
X154844000Y-68418000D01*
X154844000Y-65440000D02*
X155544000Y-65440000D01*
X155544000Y-66640000D02*
X154844000Y-66640000D01*
X158400000Y-65440000D02*
X159100000Y-65440000D01*
X159100000Y-66640000D02*
X158400000Y-66640000D01*
X159088000Y-68418000D02*
X158388000Y-68418000D01*
X158388000Y-67218000D02*
X159088000Y-67218000D01*
X150538000Y-65440000D02*
X151238000Y-65440000D01*
X151238000Y-66640000D02*
X150538000Y-66640000D01*
X145966000Y-65440000D02*
X146666000Y-65440000D01*
X146666000Y-66640000D02*
X145966000Y-66640000D01*
D13*
X145465000Y-75018000D02*
X145465000Y-73418000D01*
X151815000Y-72768000D02*
X145365000Y-72768000D01*
X151815000Y-69268000D02*
X151815000Y-72768000D01*
X145365000Y-69268000D02*
X151815000Y-69268000D01*
X145365000Y-72768000D02*
X145365000Y-69268000D01*
D11*
X147126000Y-86046000D02*
X147126000Y-87376000D01*
X145796000Y-86046000D02*
X147126000Y-86046000D01*
X144526000Y-88706000D02*
X144526000Y-86046000D01*
X144466000Y-88706000D02*
X144526000Y-88706000D01*
X144466000Y-86046000D02*
X144466000Y-88706000D01*
X144526000Y-86046000D02*
X144466000Y-86046000D01*
X144526000Y-88586000D02*
X144466000Y-88586000D01*
X144466000Y-88586000D02*
X144466000Y-91246000D01*
X144466000Y-91246000D02*
X144526000Y-91246000D01*
X144526000Y-91246000D02*
X144526000Y-88586000D01*
X145796000Y-88586000D02*
X147126000Y-88586000D01*
X147126000Y-88586000D02*
X147126000Y-89916000D01*
X163770000Y-90738000D02*
X163770000Y-89408000D01*
X165100000Y-90738000D02*
X163770000Y-90738000D01*
X166370000Y-88078000D02*
X166370000Y-90738000D01*
X174050000Y-88078000D02*
X166370000Y-88078000D01*
X174050000Y-90738000D02*
X174050000Y-88078000D01*
X166370000Y-90738000D02*
X174050000Y-90738000D01*
X161350000Y-92904000D02*
X161350000Y-94234000D01*
X160020000Y-92904000D02*
X161350000Y-92904000D01*
X158750000Y-95564000D02*
X158750000Y-92904000D01*
X153610000Y-95564000D02*
X158750000Y-95564000D01*
X153610000Y-92904000D02*
X153610000Y-95564000D01*
X158750000Y-92904000D02*
X153610000Y-92904000D01*
X158380000Y-76172000D02*
X158380000Y-78772000D01*
X143680000Y-76172000D02*
X158380000Y-76172000D01*
X158380000Y-85372000D02*
X156480000Y-85372000D01*
X158380000Y-82672000D02*
X158380000Y-85372000D01*
X143680000Y-85372000D02*
X143680000Y-76172000D01*
X152480000Y-85372000D02*
X143680000Y-85372000D01*
M02*
