<?xml version="1.0" encoding="UTF-8" standalone="no"?>
<!-- Created with Inkscape (http://www.inkscape.org/) -->

<svg
   xmlns:dc="http://purl.org/dc/elements/1.1/"
   xmlns:cc="http://creativecommons.org/ns#"
   xmlns:rdf="http://www.w3.org/1999/02/22-rdf-syntax-ns#"
   xmlns:svg="http://www.w3.org/2000/svg"
   xmlns="http://www.w3.org/2000/svg"
   xmlns:sodipodi="http://sodipodi.sourceforge.net/DTD/sodipodi-0.dtd"
   xmlns:inkscape="http://www.inkscape.org/namespaces/inkscape"
   sodipodi:docname="backside.svg"
   inkscape:version="0.92.3 (2405546, 2018-03-11)"
   version="1.1"
   viewBox="0 0 211.77876 180.89616"
   height="51.052914mm"
   width="59.768669mm"
   id="svg2">
  <sodipodi:namedview
     inkscape:window-maximized="1"
     inkscape:window-y="-8"
     inkscape:window-x="-8"
     inkscape:window-height="1027"
     inkscape:window-width="1920"
     fit-margin-bottom="0"
     fit-margin-right="0"
     fit-margin-left="0"
     fit-margin-top="0"
     showgrid="true"
     inkscape:current-layer="layer4"
     inkscape:document-units="mm"
     inkscape:cy="89.053149"
     inkscape:cx="96.79287"
     inkscape:zoom="4"
     inkscape:pageshadow="2"
     inkscape:pageopacity="0.0"
     borderopacity="1.0"
     bordercolor="#666666"
     pagecolor="#ffffff"
     id="base"
     inkscape:measure-start="-139.5,48.5"
     inkscape:measure-end="-0.0528266,-96.1188">
    <inkscape:grid
       empspacing="10"
       spacingy="1.7716536"
       spacingx="1.7716536"
       units="mm"
       id="grid40"
       type="xygrid" />
  </sodipodi:namedview>
  <title
     id="title1">Heart</title>
  <metadata
     id="metadata">
    <rdf:RDF>
      <cc:Work
         rdf:about="">
        <dc:format>image/svg+xml</dc:format>
        <dc:type
           rdf:resource="http://purl.org/dc/dcmitype/StillImage" />
        <dc:title>Heart</dc:title>
        <dc:date />
        <dc:creator>
          <cc:Agent>
            <dc:title>Uri Shaked</dc:title>
          </cc:Agent>
        </dc:creator>
        <dc:rights>
          <cc:Agent>
            <dc:title>CC-BY-SA</dc:title>
          </cc:Agent>
        </dc:rights>
      </cc:Work>
    </rdf:RDF>
  </metadata>
  <defs
     id="defs7" />
  <g
     style="display:inline"
     inkscape:label="Cu"
     id="layer4"
     inkscape:groupmode="layer">
    <path
       sodipodi:type="inkscape:offset"
       inkscape:radius="0"
       inkscape:original="M 53.386719 0.35742188 L 48.304688 0.59960938 L 43.259766 1.328125 L 38.289062 2.5390625 L 33.433594 4.2363281 L 28.726562 6.4179688 L 24.208984 9.0839844 L 19.917969 12.234375 L 15.890625 15.869141 L 12.251953 19.890625 L 9.0957031 24.175781 L 6.4257812 28.6875 L 4.2421875 33.386719 L 2.5429688 38.236328 L 1.328125 43.199219 L 0.59960938 48.236328 L 0.35742188 53.3125 L 0.59960938 58.388672 L 1.3261719 63.427734 L 2.5390625 68.390625 L 4.2363281 73.240234 L 6.4199219 77.939453 L 9.0878906 82.451172 L 12.242188 86.738281 L 15.880859 90.761719 L 105.88867 180.64453 L 195.89844 90.761719 L 199.53711 86.738281 L 202.69141 82.453125 L 205.35938 77.941406 L 207.54297 73.240234 L 209.24023 68.390625 L 210.45312 63.427734 L 211.17969 58.388672 L 211.42188 53.3125 L 211.17773 48.238281 L 210.44922 43.199219 L 209.23633 38.236328 L 207.53711 33.386719 L 205.35156 28.6875 L 202.68359 24.175781 L 199.52734 19.890625 L 195.88672 15.869141 L 191.85938 12.234375 L 187.56836 9.0839844 L 183.05078 6.4179688 L 178.3457 4.2363281 L 173.48828 2.5390625 L 168.51953 1.328125 L 163.47461 0.59960938 L 158.39062 0.35742188 L 153.30859 0.59765625 L 148.26367 1.3242188 L 143.29297 2.5351562 L 138.43555 4.2304688 L 133.72852 6.4101562 L 129.21094 9.0761719 L 124.91992 12.224609 L 120.89062 15.859375 L 105.88867 30.839844 L 90.888672 15.859375 L 86.859375 12.224609 L 82.568359 9.0761719 L 78.048828 6.4101562 L 73.34375 4.2304688 L 68.486328 2.5351562 L 63.515625 1.3242188 L 58.470703 0.59765625 L 53.386719 0.35742188 z "
       style="display:inline;fill:#800080;stroke:#000000;stroke-width:0.71275795;stroke-miterlimit:4;stroke-dasharray:none"
       id="path179"
       d="M 53.386719,0.35742188 48.304688,0.59960938 43.259766,1.328125 38.289062,2.5390625 33.433594,4.2363281 28.726562,6.4179688 24.208984,9.0839844 19.917969,12.234375 15.890625,15.869141 12.251953,19.890625 9.0957031,24.175781 6.4257812,28.6875 4.2421875,33.386719 2.5429688,38.236328 1.328125,43.199219 0.59960938,48.236328 0.35742188,53.3125 l 0.2421875,5.076172 0.72656252,5.039062 1.2128906,4.962891 1.6972656,4.849609 2.1835938,4.699219 2.6679687,4.511719 3.1542974,4.287109 3.638671,4.023438 90.007811,89.882811 90.00977,-89.882811 3.63867,-4.023438 3.1543,-4.285156 2.66797,-4.511719 2.18359,-4.701172 1.69726,-4.849609 1.21289,-4.962891 0.72657,-5.039062 0.24219,-5.076172 -0.24415,-5.074219 -0.72851,-5.039062 -1.21289,-4.962891 -1.69922,-4.849609 -2.18555,-4.699219 -2.66797,-4.511719 -3.15625,-4.285156 -3.64062,-4.021484 -4.02734,-3.634766 -4.29102,-3.1503906 -4.51758,-2.6660156 -4.70508,-2.1816407 -4.85742,-1.6972656 -4.96875,-1.2109375 -5.04492,-0.72851562 -5.08399,-0.2421875 -5.08203,0.24023437 -5.04492,0.72656255 -4.9707,1.2109374 -4.85742,1.6953126 -4.70703,2.1796874 -4.51758,2.6660157 -4.29102,3.1484371 -4.0293,3.634766 L 105.88867,30.839844 90.888672,15.859375 86.859375,12.224609 82.568359,9.0761719 78.048828,6.4101562 73.34375,4.2304688 68.486328,2.5351562 63.515625,1.3242188 58.470703,0.59765625 Z"
       inkscape:label="base"
       transform="matrix(0.95038918,0,0,0.95038918,5.2532742,4.4934718)" />
  </g>
</svg>
