<?xml version="1.0" encoding="UTF-8" standalone="no"?>
<!-- Created with Inkscape (http://www.inkscape.org/) -->

<svg
   xmlns:dc="http://purl.org/dc/elements/1.1/"
   xmlns:cc="http://creativecommons.org/ns#"
   xmlns:rdf="http://www.w3.org/1999/02/22-rdf-syntax-ns#"
   xmlns:svg="http://www.w3.org/2000/svg"
   xmlns="http://www.w3.org/2000/svg"
   xmlns:sodipodi="http://sodipodi.sourceforge.net/DTD/sodipodi-0.dtd"
   xmlns:inkscape="http://www.inkscape.org/namespaces/inkscape"
   sodipodi:docname="heart-shape_internal_design2.svg"
   inkscape:version="0.92.3 (2405546, 2018-03-11)"
   version="1.1"
   viewBox="0 0 211.77876 180.89616"
   height="51.052914mm"
   width="59.768669mm"
   id="svg2">
  <sodipodi:namedview
     inkscape:window-maximized="1"
     inkscape:window-y="-8"
     inkscape:window-x="-8"
     inkscape:window-height="1027"
     inkscape:window-width="1920"
     fit-margin-bottom="0"
     fit-margin-right="0"
     fit-margin-left="0"
     fit-margin-top="0"
     showgrid="true"
     inkscape:current-layer="layer3"
     inkscape:document-units="mm"
     inkscape:cy="89.053149"
     inkscape:cx="96.79287"
     inkscape:zoom="4"
     inkscape:pageshadow="2"
     inkscape:pageopacity="0.0"
     borderopacity="1.0"
     bordercolor="#666666"
     pagecolor="#ffffff"
     id="base"
     inkscape:measure-start="-139.5,48.5"
     inkscape:measure-end="-0.0528266,-96.1188">
    <inkscape:grid
       type="xygrid"
       id="grid40"
       units="mm"
       spacingx="1.7716536"
       spacingy="1.7716536"
       empspacing="10" />
  </sodipodi:namedview>
  <title
     id="title1">Heart</title>
  <metadata
     id="metadata">
    <rdf:RDF>
      <cc:Work
         rdf:about="">
        <dc:format>image/svg+xml</dc:format>
        <dc:type
           rdf:resource="http://purl.org/dc/dcmitype/StillImage" />
        <dc:title>Heart</dc:title>
        <dc:date />
        <dc:creator>
          <cc:Agent>
            <dc:title>Uri Shaked</dc:title>
          </cc:Agent>
        </dc:creator>
        <dc:rights>
          <cc:Agent>
            <dc:title>CC-BY-SA</dc:title>
          </cc:Agent>
        </dc:rights>
      </cc:Work>
    </rdf:RDF>
  </metadata>
  <defs
     id="defs7" />
  <g
     inkscape:groupmode="layer"
     id="layer2"
     inkscape:label="Misc"
     style="display:none">
    <path
       sodipodi:type="inkscape:offset"
       inkscape:radius="0"
       inkscape:original="M 53.386719 0.35742188 L 48.304688 0.59960938 L 43.259766 1.328125 L 38.289062 2.5390625 L 33.433594 4.2363281 L 28.726562 6.4179688 L 24.208984 9.0839844 L 19.917969 12.234375 L 15.890625 15.869141 L 12.251953 19.890625 L 9.0957031 24.175781 L 6.4257812 28.6875 L 4.2421875 33.386719 L 2.5429688 38.236328 L 1.328125 43.199219 L 0.59960938 48.236328 L 0.35742188 53.3125 L 0.59960938 58.388672 L 1.3261719 63.427734 L 2.5390625 68.390625 L 4.2363281 73.240234 L 6.4199219 77.939453 L 9.0878906 82.451172 L 12.242188 86.738281 L 15.880859 90.761719 L 105.88867 180.64453 L 195.89844 90.761719 L 199.53711 86.738281 L 202.69141 82.453125 L 205.35938 77.941406 L 207.54297 73.240234 L 209.24023 68.390625 L 210.45312 63.427734 L 211.17969 58.388672 L 211.42188 53.3125 L 211.17773 48.238281 L 210.44922 43.199219 L 209.23633 38.236328 L 207.53711 33.386719 L 205.35156 28.6875 L 202.68359 24.175781 L 199.52734 19.890625 L 195.88672 15.869141 L 191.85938 12.234375 L 187.56836 9.0839844 L 183.05078 6.4179688 L 178.3457 4.2363281 L 173.48828 2.5390625 L 168.51953 1.328125 L 163.47461 0.59960938 L 158.39062 0.35742188 L 153.30859 0.59765625 L 148.26367 1.3242188 L 143.29297 2.5351562 L 138.43555 4.2304688 L 133.72852 6.4101562 L 129.21094 9.0761719 L 124.91992 12.224609 L 120.89062 15.859375 L 105.88867 30.839844 L 90.888672 15.859375 L 86.859375 12.224609 L 82.568359 9.0761719 L 78.048828 6.4101562 L 73.34375 4.2304688 L 68.486328 2.5351562 L 63.515625 1.3242188 L 58.470703 0.59765625 L 53.386719 0.35742188 z "
       style="display:inline;fill:#800080;stroke:#000000;stroke-width:0.71275795;stroke-miterlimit:4;stroke-dasharray:none"
       id="path44"
       d="M 53.386719,0.35742188 48.304688,0.59960938 43.259766,1.328125 38.289062,2.5390625 33.433594,4.2363281 28.726562,6.4179688 24.208984,9.0839844 19.917969,12.234375 15.890625,15.869141 12.251953,19.890625 9.0957031,24.175781 6.4257812,28.6875 4.2421875,33.386719 2.5429688,38.236328 1.328125,43.199219 0.59960938,48.236328 0.35742188,53.3125 l 0.2421875,5.076172 0.72656252,5.039062 1.2128906,4.962891 1.6972656,4.849609 2.1835938,4.699219 2.6679687,4.511719 3.1542974,4.287109 3.638671,4.023438 90.007811,89.882811 90.00977,-89.882811 3.63867,-4.023438 3.1543,-4.285156 2.66797,-4.511719 2.18359,-4.701172 1.69726,-4.849609 1.21289,-4.962891 0.72657,-5.039062 0.24219,-5.076172 -0.24415,-5.074219 -0.72851,-5.039062 -1.21289,-4.962891 -1.69922,-4.849609 -2.18555,-4.699219 -2.66797,-4.511719 -3.15625,-4.285156 -3.64062,-4.021484 -4.02734,-3.634766 -4.29102,-3.1503906 -4.51758,-2.6660156 -4.70508,-2.1816407 -4.85742,-1.6972656 -4.96875,-1.2109375 -5.04492,-0.72851562 -5.08399,-0.2421875 -5.08203,0.24023437 -5.04492,0.72656255 -4.9707,1.2109374 -4.85742,1.6953126 -4.70703,2.1796874 -4.51758,2.6660157 -4.29102,3.1484371 -4.0293,3.634766 L 105.88867,30.839844 90.888672,15.859375 86.859375,12.224609 82.568359,9.0761719 78.048828,6.4101562 73.34375,4.2304688 68.486328,2.5351562 63.515625,1.3242188 58.470703,0.59765625 Z"
       inkscape:label="base" />
  </g>
  <g
     inkscape:groupmode="layer"
     id="layer4"
     inkscape:label="Cu"
     style="display:none">
    <path
       transform="matrix(0.95038918,0,0,0.95038918,5.2532742,4.4934718)"
       inkscape:label="base"
       d="M 53.386719,0.35742188 48.304688,0.59960938 43.259766,1.328125 38.289062,2.5390625 33.433594,4.2363281 28.726562,6.4179688 24.208984,9.0839844 19.917969,12.234375 15.890625,15.869141 12.251953,19.890625 9.0957031,24.175781 6.4257812,28.6875 4.2421875,33.386719 2.5429688,38.236328 1.328125,43.199219 0.59960938,48.236328 0.35742188,53.3125 l 0.2421875,5.076172 0.72656252,5.039062 1.2128906,4.962891 1.6972656,4.849609 2.1835938,4.699219 2.6679687,4.511719 3.1542974,4.287109 3.638671,4.023438 90.007811,89.882811 90.00977,-89.882811 3.63867,-4.023438 3.1543,-4.285156 2.66797,-4.511719 2.18359,-4.701172 1.69726,-4.849609 1.21289,-4.962891 0.72657,-5.039062 0.24219,-5.076172 -0.24415,-5.074219 -0.72851,-5.039062 -1.21289,-4.962891 -1.69922,-4.849609 -2.18555,-4.699219 -2.66797,-4.511719 -3.15625,-4.285156 -3.64062,-4.021484 -4.02734,-3.634766 -4.29102,-3.1503906 -4.51758,-2.6660156 -4.70508,-2.1816407 -4.85742,-1.6972656 -4.96875,-1.2109375 -5.04492,-0.72851562 -5.08399,-0.2421875 -5.08203,0.24023437 -5.04492,0.72656255 -4.9707,1.2109374 -4.85742,1.6953126 -4.70703,2.1796874 -4.51758,2.6660157 -4.29102,3.1484371 -4.0293,3.634766 L 105.88867,30.839844 90.888672,15.859375 86.859375,12.224609 82.568359,9.0761719 78.048828,6.4101562 73.34375,4.2304688 68.486328,2.5351562 63.515625,1.3242188 58.470703,0.59765625 Z"
       id="path179"
       style="display:inline;fill:#800080;stroke:#000000;stroke-width:0.71275795;stroke-miterlimit:4;stroke-dasharray:none"
       inkscape:original="M 53.386719 0.35742188 L 48.304688 0.59960938 L 43.259766 1.328125 L 38.289062 2.5390625 L 33.433594 4.2363281 L 28.726562 6.4179688 L 24.208984 9.0839844 L 19.917969 12.234375 L 15.890625 15.869141 L 12.251953 19.890625 L 9.0957031 24.175781 L 6.4257812 28.6875 L 4.2421875 33.386719 L 2.5429688 38.236328 L 1.328125 43.199219 L 0.59960938 48.236328 L 0.35742188 53.3125 L 0.59960938 58.388672 L 1.3261719 63.427734 L 2.5390625 68.390625 L 4.2363281 73.240234 L 6.4199219 77.939453 L 9.0878906 82.451172 L 12.242188 86.738281 L 15.880859 90.761719 L 105.88867 180.64453 L 195.89844 90.761719 L 199.53711 86.738281 L 202.69141 82.453125 L 205.35938 77.941406 L 207.54297 73.240234 L 209.24023 68.390625 L 210.45312 63.427734 L 211.17969 58.388672 L 211.42188 53.3125 L 211.17773 48.238281 L 210.44922 43.199219 L 209.23633 38.236328 L 207.53711 33.386719 L 205.35156 28.6875 L 202.68359 24.175781 L 199.52734 19.890625 L 195.88672 15.869141 L 191.85938 12.234375 L 187.56836 9.0839844 L 183.05078 6.4179688 L 178.3457 4.2363281 L 173.48828 2.5390625 L 168.51953 1.328125 L 163.47461 0.59960938 L 158.39062 0.35742188 L 153.30859 0.59765625 L 148.26367 1.3242188 L 143.29297 2.5351562 L 138.43555 4.2304688 L 133.72852 6.4101562 L 129.21094 9.0761719 L 124.91992 12.224609 L 120.89062 15.859375 L 105.88867 30.839844 L 90.888672 15.859375 L 86.859375 12.224609 L 82.568359 9.0761719 L 78.048828 6.4101562 L 73.34375 4.2304688 L 68.486328 2.5351562 L 63.515625 1.3242188 L 58.470703 0.59765625 L 53.386719 0.35742188 z "
       inkscape:radius="0"
       sodipodi:type="inkscape:offset" />
  </g>
  <g
     inkscape:groupmode="layer"
     id="layer3"
     inkscape:label="Mask"
     style="display:inline">
    <path
       style="display:inline;fill:#800080;stroke:#000000;stroke-width:0.67086512;stroke-miterlimit:4;stroke-dasharray:none"
       d="M 63.53125,11.699219 58.748047,11.925781 54,12.611328 l -4.677734,1.140625 -4.570313,1.597656 -4.431641,2.052735 -4.251953,2.509765 -4.037109,2.964844 -3.791016,3.421875 -3.425781,3.785156 -2.970703,4.033204 -2.511719,4.246093 -2.05664,4.423828 -1.59961,4.564453 -1.142578,4.669922 -0.685547,4.742188 -0.228515,4.777344 0.228515,4.777343 0.683594,4.744141 1.142578,4.669922 1.595703,4.564453 2.056641,4.423828 2.509766,4.246094 2.970703,4.035156 3.423828,3.787109 84.716801,84.599608 84.7207,-84.599608 3.42383,-3.787109 2.96875,-4.033203 2.51172,-4.246094 2.05468,-4.425781 1.59766,-4.564453 1.14258,-4.669922 0.68359,-4.744141 0.22852,-4.777343 -0.23047,-4.775391 -0.68555,-4.744141 -1.14258,-4.669922 -1.59961,-4.564453 -2.05664,-4.423828 -2.50976,-4.246093 -2.97071,-4.033204 -3.42773,-3.785156 -3.79102,-3.421875 -4.03906,-2.964844 -4.25195,-2.509765 -4.42774,-2.052735 -4.57226,-1.597656 -4.67578,-1.140625 -4.75,-0.685547 -4.78516,-0.226562 -4.7832,0.224609 -4.74805,0.683594 -4.67773,1.140625 -4.57227,1.595703 -4.42969,2.050781 -4.25195,2.509766 -4.03906,2.962891 -3.79297,3.421874 -14.12109,14.09961 -14.117192,-14.09961 -3.792969,-3.421874 -4.039062,-2.962891 -4.253906,-2.509766 -4.427735,-2.050781 -4.572265,-1.595703 -4.677735,-1.140625 -4.75,-0.683594 -4.785156,-0.224609 m 0,2.826172 4.517578,0.214843 4.480469,0.646485 4.414062,1.074219 4.310547,1.503906 4.175782,1.933594 4.011718,2.36914 3.808594,2.792969 3.634766,3.277344 14.066404,14.048828 0.93437,0.620031 1.0627,0.206678 1.0627,-0.206678 0.93437,-0.620031 14.06836,-14.048828 3.63477,-3.277344 3.80859,-2.792969 4.00977,-2.36914 4.17578,-1.933594 4.3125,-1.503906 4.41406,-1.074219 4.48047,-0.646485 4.51367,-0.21289 4.51563,0.214844 4.48242,0.646484 4.41211,1.074219 4.31054,1.507812 4.17383,1.935547 4.01172,2.365234 3.80859,2.798828 3.58008,3.230469 3.23633,3.572266 2.80078,3.804687 2.36719,4.003907 1.93945,4.169921 1.50782,4.304688 1.07812,4.404297 0.64453,4.474609 0.2168,4.50586 -0.21484,4.507812 -0.64454,4.47461 -1.07617,4.40625 -1.50781,4.302734 -1.9375,4.171875 -2.36719,4.003906 -2.80078,3.804688 -3.28125,3.626953 -82.67187,82.556636 -82.667973,-82.556636 -3.283203,-3.626953 -2.798828,-3.806641 -2.367188,-4.003906 -1.9375,-4.169922 -1.507812,-4.302734 -1.076172,-4.40625 -0.644532,-4.47461 -0.214843,-4.507812 0.214843,-4.507813 0.644532,-4.472656 1.080078,-4.404297 1.507812,-4.304688 1.9375,-4.169921 2.369141,-4.003907 2.802734,-3.804687 3.232422,-3.572266 3.578125,-3.230469 3.810547,-2.798828 4.007813,-2.365234 4.179687,-1.935547 4.308594,-1.507812 4.414062,-1.074219 4.482422,-0.646484 4.511719,-0.216797"
       transform="scale(0.93750005)"
       id="path111"
       inkscape:connector-curvature="0" />
    <path
       inkscape:connector-curvature="0"
       id="path182"
       d="m 64.786428,19.947532 -3.978436,0.188443 -3.949196,0.570205 -3.890712,0.948717 -3.801365,1.328852 -3.686024,1.707366 -3.536568,2.087501 -3.357872,2.466013 -3.153183,2.84615 -2.849399,3.148309 -2.470886,3.354624 -2.089126,3.531694 -1.710614,3.679526 -1.330478,3.79649 -0.950341,3.884215 -0.570205,3.944322 -0.190067,3.973563 0.190067,3.973562 0.568581,3.945947 0.950341,3.884215 1.327228,3.79649 1.710614,3.679526 2.087502,3.531695 2.470887,3.356247 2.847774,3.149934 70.46333,70.365852 70.46657,-70.365852 2.84777,-3.149934 2.46927,-3.354622 2.08912,-3.531696 1.70899,-3.68115 1.32885,-3.79649 0.95035,-3.884215 0.56857,-3.945947 0.19007,-3.973562 -0.19169,-3.971939 -0.57021,-3.945946 -0.95034,-3.884215 -1.33048,-3.79649 -1.71061,-3.679526 -2.0875,-3.531694 -2.47089,-3.354624 -2.85102,-3.148309 -3.15319,-2.84615 -3.35949,-2.466013 -3.53657,-2.087501 -3.68278,-1.707366 -3.80298,-1.328852 -3.88909,-0.948717 -3.95082,-0.570205 -3.98006,-0.188443 -3.97843,0.186819 -3.9492,0.56858 -3.89071,0.948717 -3.80299,1.327228 -3.68441,1.70574 -3.53656,2.087502 -3.3595,2.464389 -3.1548,2.846149 -11.74524,11.727372 -11.741998,-11.727372 -3.154808,-2.846149 -3.359496,-2.464389 -3.538193,-2.087502 -3.682775,-1.70574 -3.802988,-1.327228 -3.890713,-0.948717 -3.95082,-0.56858 -3.980061,-0.186819 m 0,2.350673 3.757502,0.178696 3.726637,0.537715 3.671403,0.893483 3.585304,1.250876 3.473213,1.60827 3.336753,1.970536 3.167804,2.323056 3.023222,2.725936 11.699754,11.685134 0.77716,0.515711 0.8839,0.171905 0.88391,-0.171905 0.77716,-0.515711 11.70138,-11.685134 3.02323,-2.725936 3.1678,-2.323056 3.33513,-1.970536 3.47321,-1.60827 3.58693,-1.250876 3.6714,-0.893483 3.72664,-0.537715 3.75425,-0.177072 3.75588,0.178697 3.72826,0.537714 3.66978,0.893483 3.5853,1.254125 3.47159,1.609894 3.33675,1.967287 3.1678,2.32793 2.97774,2.686947 2.69182,2.971238 2.32955,3.164554 1.96892,3.330256 1.61314,3.468338 1.25413,3.580431 0.89673,3.66328 0.53609,3.721763 0.18032,3.747756 -0.17869,3.74938 -0.5361,3.721763 -0.89511,3.664905 -1.25412,3.578806 -1.61152,3.469963 -1.96891,3.330255 -2.32955,3.164555 -2.72919,3.016724 -68.76245,68.666607 -68.759214,-68.666607 -2.730809,-3.016724 -2.32793,-3.166179 -1.968912,-3.330255 -1.611519,-3.468339 -1.254124,-3.578806 -0.895108,-3.664905 -0.536091,-3.721763 -0.178696,-3.74938 0.178696,-3.74938 0.536091,-3.720139 0.898356,-3.66328 1.254125,-3.580431 1.611519,-3.468338 1.970536,-3.330256 2.331179,-3.164554 2.688572,-2.971238 2.976111,-2.686947 3.169428,-2.32793 3.333504,-1.967287 3.476461,-1.609894 3.58368,-1.254125 3.671403,-0.893483 3.728261,-0.537714 3.752629,-0.180321"
       style="display:inline;fill:#800080;stroke:#000000;stroke-width:0.55799305;stroke-miterlimit:4;stroke-dasharray:none" />
    <path
       style="display:inline;fill:#800080;stroke:#000000;stroke-width:0.49050903;stroke-miterlimit:4;stroke-dasharray:none"
       d="m 69.757507,28.489231 -3.497281,0.165652 -3.471578,0.501245 -3.420167,0.833978 -3.341625,1.16814 -3.240234,1.500876 -3.108853,1.835037 -2.951769,2.167772 -2.771835,2.501935 -2.504791,2.767551 -2.172056,2.948913 -1.836466,3.104569 -1.503731,3.234522 -1.169569,3.33734 -0.835406,3.414456 -0.501244,3.467293 -0.16708,3.492998 0.16708,3.492997 0.499816,3.468721 0.835406,3.414456 1.166713,3.33734 1.503731,3.234522 1.835038,3.104569 2.172056,2.950341 2.503363,2.768979 61.941455,61.855757 61.94429,-61.855757 2.50336,-2.768979 2.17064,-2.948912 1.83646,-3.104571 1.5023,-3.235949 1.16814,-3.33734 0.83542,-3.414456 0.4998,-3.468721 0.16708,-3.492997 -0.1685,-3.491571 -0.50125,-3.46872 -0.83541,-3.414456 -1.16957,-3.33734 -1.50372,-3.234522 -1.83504,-3.104569 -2.17206,-2.948913 -2.50622,-2.767551 -2.77184,-2.501935 -2.95319,-2.167772 -3.10885,-1.835037 -3.23739,-1.500876 -3.34304,-1.16814 -3.41874,-0.833978 -3.47301,-0.501245 -3.49871,-0.165652 -3.49727,0.164225 -3.47158,0.499815 -3.42017,0.833979 -3.34305,1.166712 -3.23882,1.499447 -3.10884,1.835038 -2.9532,2.166344 -2.77326,2.501934 -10.32476,10.309057 -10.321918,-10.309057 -2.773263,-2.501934 -2.953197,-2.166344 -3.110281,-1.835038 -3.237378,-1.499447 -3.343052,-1.166712 -3.420168,-0.833979 -3.473006,-0.499815 -3.49871,-0.164225 m 0,2.066381 3.303068,0.157084 3.275935,0.472684 3.227381,0.785424 3.151695,1.099595 3.053161,1.413765 2.933204,1.732218 2.784688,2.042104 2.657591,2.396259 10.28478,10.271927 0.68317,0.453341 0.777,0.151114 0.77701,-0.151114 0.68317,-0.453341 10.28621,-10.271927 2.65759,-2.396259 2.78469,-2.042104 2.93178,-1.732218 3.05315,-1.413765 3.15313,-1.099595 3.22738,-0.785424 3.27594,-0.472684 3.3002,-0.155656 3.30165,0.157085 3.27736,0.472682 3.22595,0.785425 3.15169,1.10245 3.05174,1.415193 2.9332,1.729362 2.78468,2.046389 2.61761,2.361986 2.36627,2.611894 2.04782,2.781831 1.73079,2.927493 1.41805,3.048875 1.10245,3.147411 0.78828,3.220241 0.47126,3.271651 0.15851,3.2945 -0.15708,3.295927 -0.47126,3.271651 -0.78686,3.221669 -1.10244,3.145983 -1.41663,3.050303 -1.73078,2.927492 -2.04782,2.781832 -2.39912,2.65188 -60.44627,60.362025 -60.443436,-60.362025 -2.400543,-2.65188 -2.046389,-2.783259 -1.73079,-2.927492 -1.416621,-3.048876 -1.10245,-3.145983 -0.786853,-3.221669 -0.471256,-3.271651 -0.157084,-3.295927 0.157084,-3.295928 0.471256,-3.270223 0.789708,-3.220241 1.102451,-3.147411 1.416621,-3.048875 1.732218,-2.927493 2.049245,-2.781831 2.363414,-2.611894 2.616178,-2.361986 2.786116,-2.046389 2.930348,-1.729362 3.056015,-1.415193 3.150268,-1.10245 3.227381,-0.785425 3.277363,-0.472682 3.298783,-0.158513"
       id="path184"
       inkscape:connector-curvature="0" />
    <g
       id="text74"
       style="font-style:normal;font-variant:normal;font-weight:normal;font-stretch:normal;font-size:20.11000061px;line-height:1.25;font-family:'Segoe Print';-inkscape-font-specification:'Segoe Print, Normal';font-variant-ligatures:normal;font-variant-caps:normal;font-variant-numeric:normal;font-feature-settings:normal;text-align:center;letter-spacing:0px;word-spacing:0px;writing-mode:lr-tb;text-anchor:middle;display:inline;fill:#000000;fill-opacity:1;stroke:none;stroke-width:0.50274181"
       aria-label="I love my mom">
      <path
         inkscape:connector-curvature="0"
         id="path284"
         style="font-style:normal;font-variant:normal;font-weight:normal;font-stretch:normal;font-size:20.11000061px;font-family:'Segoe Print';-inkscape-font-specification:'Segoe Print, Normal';font-variant-ligatures:normal;font-variant-caps:normal;font-variant-numeric:normal;font-feature-settings:normal;text-align:center;writing-mode:lr-tb;text-anchor:middle;stroke-width:0.50274181"
         d="m 85.437519,58.980346 q -0.05892,0.382954 -0.657896,2.739595 -0.284761,1.109585 -0.373135,1.865674 -0.05892,0.510605 -0.14729,1.109585 -0.392773,2.51375 -0.392773,3.436768 0,1.384526 0.166929,2.719956 0.09819,0.775727 -0.274942,1.119404 -0.373135,0.343677 -0.746269,0.343677 -0.530245,0 -0.736451,-0.58916 -0.206206,-0.59898 -0.206206,-1.92459 0,-1.384527 0.392774,-3.829541 0.13747,-0.923018 0.157109,-1.109585 0.01964,-0.333858 0.07855,-0.687354 0.0491,-0.343677 0.07855,-0.687353 0.05892,-0.913199 0.353497,-2.386099 0.216025,-1.109585 0.314218,-1.954048 0.06874,-0.58916 0.15711,-0.795366 0.08837,-0.206206 0.451689,-0.45169 0.373135,-0.245483 0.559702,-0.245483 0.412412,0 0.618619,0.402593 0.206206,0.392773 0.206206,0.923017 z" />
      <path
         inkscape:connector-curvature="0"
         id="path286"
         style="font-style:normal;font-variant:normal;font-weight:normal;font-stretch:normal;font-size:20.11000061px;font-family:'Segoe Print';-inkscape-font-specification:'Segoe Print, Normal';font-variant-ligatures:normal;font-variant-caps:normal;font-variant-numeric:normal;font-feature-settings:normal;text-align:center;writing-mode:lr-tb;text-anchor:middle;stroke-width:0.50274181"
         d="m 99.31224,55.366831 q 0.70699,0 0.70699,0.903378 0,0.805186 -0.85428,3.829542 -0.540063,1.904951 -0.834643,4.202676 -0.29458,2.297724 -0.29458,3.603696 0,1.62019 0.206206,3.220742 0.03928,0.3044 0.03928,0.44187 0,0.490967 -0.333857,0.844463 -0.333858,0.353496 -0.706992,0.353496 -0.520425,0 -0.726631,-0.648076 -0.196387,-0.648076 -0.196387,-2.091518 0,-3.289478 0.785547,-8.15005 0.795366,-4.860571 1.256875,-5.685395 0.471328,-0.824824 0.952475,-0.824824 z" />
      <path
         inkscape:connector-curvature="0"
         id="path288"
         style="font-style:normal;font-variant:normal;font-weight:normal;font-stretch:normal;font-size:20.11000061px;font-family:'Segoe Print';-inkscape-font-specification:'Segoe Print, Normal';font-variant-ligatures:normal;font-variant-caps:normal;font-variant-numeric:normal;font-feature-settings:normal;text-align:center;writing-mode:lr-tb;text-anchor:middle;stroke-width:0.50274181"
         d="m 104.51649,72.481934 q -1.34525,0 -2.21917,-1.021211 -0.87392,-1.021211 -0.87392,-2.52357 0,-2.533389 1.69874,-4.988223 1.70857,-2.464653 4.08485,-2.464653 1.57109,0 2.54321,1.207778 0.98193,1.207779 0.98193,2.877066 0,2.553027 -2.02278,4.73292 -2.01297,2.179893 -4.19286,2.179893 z M 103.1516,68.68185 q 0,0.991753 0.41241,1.620191 0.42224,0.628437 1.10959,0.628437 1.46308,0 2.93598,-1.600551 1.4729,-1.610371 1.4729,-3.574239 0,-1.207778 -0.56952,-1.954048 -0.5597,-0.756089 -1.51218,-0.756089 -1.58091,0 -2.71995,1.944229 -1.12923,1.934409 -1.12923,3.69207 z" />
      <path
         inkscape:connector-curvature="0"
         id="path290"
         style="font-style:normal;font-variant:normal;font-weight:normal;font-stretch:normal;font-size:20.11000061px;font-family:'Segoe Print';-inkscape-font-specification:'Segoe Print, Normal';font-variant-ligatures:normal;font-variant-caps:normal;font-variant-numeric:normal;font-feature-settings:normal;text-align:center;writing-mode:lr-tb;text-anchor:middle;stroke-width:0.50274181"
         d="m 114.92499,72.108799 q 0.0196,-0.569522 -0.83465,-2.945801 -1.62019,-4.428521 -1.62019,-6.166543 0,-1.384527 0.92302,-1.384527 0.90338,0 0.90338,1.237237 0,1.011391 0.0589,1.561274 0.0687,0.540064 0.47132,1.993325 0.4026,1.443443 0.88374,2.680679 0.24549,0.648076 0.3535,0.991753 0.20621,-0.314219 0.53024,-0.864101 1.72821,-2.906524 2.74942,-4.477618 1.03103,-1.571093 1.6791,-2.287905 0.64808,-0.716812 0.95248,-0.854282 0.3044,-0.14729 0.61862,-0.14729 0.38295,0 0.59898,0.274941 0.22584,0.274942 0.22584,0.628438 0,0.461508 -0.80518,1.001572 -0.75609,0.510605 -2.22899,2.562847 -1.4729,2.052241 -3.18147,5.233706 -0.87392,1.610371 -1.34525,1.610371 -0.41241,0 -0.93283,-0.648076 z" />
      <path
         inkscape:connector-curvature="0"
         id="path292"
         style="font-style:normal;font-variant:normal;font-weight:normal;font-stretch:normal;font-size:20.11000061px;font-family:'Segoe Print';-inkscape-font-specification:'Segoe Print, Normal';font-variant-ligatures:normal;font-variant-caps:normal;font-variant-numeric:normal;font-feature-settings:normal;text-align:center;writing-mode:lr-tb;text-anchor:middle;stroke-width:0.50274181"
         d="m 132.44268,68.662212 q 0,1.001572 -1.7773,2.415557 -1.76748,1.413984 -3.65279,1.413984 -1.58091,0 -2.44501,-0.932837 -0.85429,-0.932837 -0.85429,-2.602124 0,-2.80833 1.89514,-5.341719 1.89513,-2.533389 4.14376,-2.533389 0.73645,0 1.19796,0.481148 0.47132,0.481147 0.47132,1.158681 0,1.512178 -1.48272,2.896705 -1.48272,1.384526 -3.96701,2.719956 -0.5106,0.265122 -0.5106,0.687353 0,0.815005 0.47132,1.305972 0.47133,0.490967 1.39435,0.490967 2.11116,0 4.31069,-2.337002 0.32404,-0.324038 0.49097,-0.324038 0.31421,0 0.31421,0.500786 z m -6.82443,-1.531817 q 4.16339,-2.474472 4.16339,-3.976831 0,-0.58916 -0.53024,-0.58916 -0.90338,0 -2.04242,1.32561 -1.12923,1.325611 -1.59073,3.240381 z" />
      <path
         inkscape:connector-curvature="0"
         id="path294"
         style="font-style:normal;font-variant:normal;font-weight:normal;font-stretch:normal;font-size:20.11000061px;font-family:'Segoe Print';-inkscape-font-specification:'Segoe Print, Normal';font-variant-ligatures:normal;font-variant-caps:normal;font-variant-numeric:normal;font-feature-settings:normal;text-align:center;writing-mode:lr-tb;text-anchor:middle;stroke-width:0.50274181"
         d="m 68.725008,89.361373 q -0.913198,0.01964 -3.908096,5.410454 -1.011391,1.816577 -1.17832,1.983506 -0.166929,0.157109 -0.618618,0.284761 -0.44187,0.127651 -0.73645,0.127651 -0.657896,0 -0.657896,-2.562847 0,-1.443442 0.618618,-5.223887 0.255303,-1.531816 0.255303,-2.189712 0,-0.648076 0.579341,-0.648076 1.089946,0 1.089946,1.571094 0,0.73645 -0.363315,2.886885 -0.422232,2.454834 -0.432051,2.985078 0.608799,-0.58916 1.787119,-2.582485 1.669287,-2.729776 2.454834,-3.456407 0.795367,-0.73645 1.639829,-0.73645 0.638257,0 1.011392,0.854282 0.382954,0.854282 0.461509,4.075025 0.01964,0.805185 0.14729,1.197959 0.127651,0.392773 0.186567,0.392773 0.461509,0 2.003145,-3.142187 0.824824,-1.659468 1.600552,-2.52357 0.785547,-0.864101 1.738022,-0.864101 0.795366,0 1.158682,0.824824 0.363315,0.815005 0.520425,2.425376 0.14729,1.63001 0.451689,2.985078 0.314219,1.355069 1.139043,1.738023 0.559702,0.265122 0.559702,0.618618 0,0.343677 -0.471328,0.706992 -0.471328,0.363315 -0.864101,0.363315 -0.785547,0 -1.404165,-0.962294 -0.618619,-0.962295 -0.932837,-4.163399 -0.137471,-1.286333 -0.265122,-1.826397 -0.127652,-0.540063 -0.402593,-0.540063 -0.412412,0 -0.981934,0.785547 -0.559702,0.785547 -1.816577,3.191284 -0.981934,1.875493 -1.492539,2.503931 -0.500786,0.618618 -0.972114,0.618618 -0.422232,0 -0.756089,-0.333857 -0.333858,-0.343677 -0.422232,-0.815005 -0.08837,-0.481148 -0.186567,-2.346822 -0.14729,-3.10291 -0.540064,-3.613515 z" />
      <path
         inkscape:connector-curvature="0"
         id="path296"
         style="font-style:normal;font-variant:normal;font-weight:normal;font-stretch:normal;font-size:20.11000061px;font-family:'Segoe Print';-inkscape-font-specification:'Segoe Print, Normal';font-variant-ligatures:normal;font-variant-caps:normal;font-variant-numeric:normal;font-feature-settings:normal;text-align:center;writing-mode:lr-tb;text-anchor:middle;stroke-width:0.50274181"
         d="m 89.227782,93.662242 q -1.806757,1.571094 -3.181465,2.287905 -1.364887,0.706992 -2.091518,0.706992 -0.972114,0 -1.492539,-0.805185 -0.510606,-0.815005 -0.510606,-1.895132 0,-1.512178 0.608799,-3.731348 0.618618,-2.228989 0.913198,-2.641401 0.3044,-0.422232 0.962295,-0.422232 0.274942,0 0.45169,0.324038 0.176748,0.324038 0.176748,0.736451 0,0.245483 -0.225845,0.638256 -0.530244,0.923018 -0.559702,1.021211 -0.01964,0.09819 -0.373135,1.18814 -0.353496,1.080127 -0.353496,2.032603 0,0.333857 0.157109,1.040849 0.166929,0.706993 0.677535,0.706993 0.540063,0 1.32561,-0.324039 0.795366,-0.333857 1.787119,-1.080127 0.991753,-0.746269 1.33543,-1.207778 0.343677,-0.461509 0.481147,-1.050669 0.14729,-0.58916 0.206207,-2.553027 0.05892,-1.963868 0.952475,-1.963868 0.530244,0 0.687354,0.284761 0.157109,0.274942 0.157109,1.060489 0,0.648076 -0.08837,1.62019 -0.108013,1.227417 -0.137471,1.747842 -0.13747,2.700317 -0.706992,5.430093 -0.559702,2.719956 -1.639829,4.546351 -1.080127,1.83622 -2.975259,1.83622 -1.92459,0 -3.426948,-1.01139 -1.492539,-1.00158 -1.492539,-1.69875 0,-0.32404 0.14729,-0.638256 0.157109,-0.314219 0.392773,-0.314219 0.117832,0 0.255303,0.186567 1.286333,1.973688 4.045566,1.973688 1.423804,0 2.386099,-2.503932 0.972114,-2.494111 1.070308,-4.683823 0.01964,-0.422232 0.07855,-0.844463 z" />
      <path
         inkscape:connector-curvature="0"
         id="path298"
         style="font-style:normal;font-variant:normal;font-weight:normal;font-stretch:normal;font-size:20.11000061px;font-family:'Segoe Print';-inkscape-font-specification:'Segoe Print, Normal';font-variant-ligatures:normal;font-variant-caps:normal;font-variant-numeric:normal;font-feature-settings:normal;text-align:center;writing-mode:lr-tb;text-anchor:middle;stroke-width:0.50274181"
         d="m 109.33778,89.361373 q -0.9132,0.01964 -3.90809,5.410454 -1.0114,1.816577 -1.17832,1.983506 -0.16693,0.157109 -0.61862,0.284761 -0.44187,0.127651 -0.73645,0.127651 -0.6579,0 -0.6579,-2.562847 0,-1.443442 0.61862,-5.223887 0.2553,-1.531816 0.2553,-2.189712 0,-0.648076 0.57934,-0.648076 1.08995,0 1.08995,1.571094 0,0.73645 -0.36332,2.886885 -0.42223,2.454834 -0.43205,2.985078 0.6088,-0.58916 1.78712,-2.582485 1.66929,-2.729776 2.45484,-3.456407 0.79536,-0.73645 1.63983,-0.73645 0.63825,0 1.01139,0.854282 0.38295,0.854282 0.46151,4.075025 0.0196,0.805185 0.14729,1.197959 0.12765,0.392773 0.18656,0.392773 0.46151,0 2.00315,-3.142187 0.82482,-1.659468 1.60055,-2.52357 0.78555,-0.864101 1.73802,-0.864101 0.79537,0 1.15868,0.824824 0.36332,0.815005 0.52043,2.425376 0.14729,1.63001 0.45169,2.985078 0.31422,1.355069 1.13904,1.738023 0.5597,0.265122 0.5597,0.618618 0,0.343677 -0.47132,0.706992 -0.47133,0.363315 -0.86411,0.363315 -0.78554,0 -1.40416,-0.962294 -0.61862,-0.962295 -0.93284,-4.163399 -0.13747,-1.286333 -0.26512,-1.826397 -0.12765,-0.540063 -0.40259,-0.540063 -0.41241,0 -0.98194,0.785547 -0.5597,0.785547 -1.81657,3.191284 -0.98194,1.875493 -1.49254,2.503931 -0.50079,0.618618 -0.97212,0.618618 -0.42223,0 -0.75609,-0.333857 -0.33385,-0.343677 -0.42223,-0.815005 -0.0884,-0.481148 -0.18656,-2.346822 -0.14729,-3.10291 -0.54007,-3.613515 z" />
      <path
         inkscape:connector-curvature="0"
         id="path300"
         style="font-style:normal;font-variant:normal;font-weight:normal;font-stretch:normal;font-size:20.11000061px;font-family:'Segoe Print';-inkscape-font-specification:'Segoe Print, Normal';font-variant-ligatures:normal;font-variant-caps:normal;font-variant-numeric:normal;font-feature-settings:normal;text-align:center;writing-mode:lr-tb;text-anchor:middle;stroke-width:0.50274181"
         d="m 125.45131,97.619434 q -1.34524,0 -2.21917,-1.021211 -0.87392,-1.021211 -0.87392,-2.523569 0,-2.533389 1.69875,-4.988223 1.70856,-2.464653 4.08484,-2.464653 1.5711,0 2.54321,1.207778 0.98193,1.207779 0.98193,2.877066 0,2.553027 -2.02278,4.73292 -2.01296,2.179892 -4.19286,2.179892 z m -1.36488,-3.800083 q 0,0.991753 0.41241,1.620191 0.42223,0.628437 1.10958,0.628437 1.46309,0 2.93599,-1.600552 1.4729,-1.610371 1.4729,-3.574238 0,-1.207778 -0.56953,-1.954048 -0.5597,-0.756089 -1.51217,-0.756089 -1.58092,0 -2.71996,1.944229 -1.12922,1.934409 -1.12922,3.69207 z" />
      <path
         inkscape:connector-curvature="0"
         id="path302"
         style="font-style:normal;font-variant:normal;font-weight:normal;font-stretch:normal;font-size:20.11000061px;font-family:'Segoe Print';-inkscape-font-specification:'Segoe Print, Normal';font-variant-ligatures:normal;font-variant-caps:normal;font-variant-numeric:normal;font-feature-settings:normal;text-align:center;writing-mode:lr-tb;text-anchor:middle;stroke-width:0.50274181"
         d="m 141.38809,89.361373 q -0.91319,0.01964 -3.90809,5.410454 -1.01139,1.816577 -1.17832,1.983506 -0.16693,0.157109 -0.61862,0.284761 -0.44187,0.127651 -0.73645,0.127651 -0.6579,0 -0.6579,-2.562847 0,-1.443442 0.61862,-5.223887 0.25531,-1.531816 0.25531,-2.189712 0,-0.648076 0.57934,-0.648076 1.08994,0 1.08994,1.571094 0,0.73645 -0.36331,2.886885 -0.42223,2.454834 -0.43205,2.985078 0.60879,-0.58916 1.78712,-2.582485 1.66928,-2.729776 2.45483,-3.456407 0.79537,-0.73645 1.63983,-0.73645 0.63826,0 1.01139,0.854282 0.38295,0.854282 0.46151,4.075025 0.0196,0.805185 0.14729,1.197959 0.12765,0.392773 0.18657,0.392773 0.46151,0 2.00314,-3.142187 0.82483,-1.659468 1.60055,-2.52357 0.78555,-0.864101 1.73803,-0.864101 0.79536,0 1.15868,0.824824 0.36331,0.815005 0.52042,2.425376 0.14729,1.63001 0.45169,2.985078 0.31422,1.355069 1.13904,1.738023 0.55971,0.265122 0.55971,0.618618 0,0.343677 -0.47133,0.706992 -0.47133,0.363315 -0.8641,0.363315 -0.78555,0 -1.40417,-0.962294 -0.61862,-0.962295 -0.93284,-4.163399 -0.13747,-1.286333 -0.26512,-1.826397 -0.12765,-0.540063 -0.40259,-0.540063 -0.41241,0 -0.98193,0.785547 -0.55971,0.785547 -1.81658,3.191284 -0.98193,1.875493 -1.49254,2.503931 -0.50079,0.618618 -0.97211,0.618618 -0.42224,0 -0.75609,-0.333857 -0.33386,-0.343677 -0.42223,-0.815005 -0.0884,-0.481148 -0.18657,-2.346822 -0.14729,-3.10291 -0.54007,-3.613515 z" />
    </g>
  </g>
</svg>
