<?xml version="1.0" encoding="UTF-8" standalone="no"?>
<!-- Created with Inkscape (http://www.inkscape.org/) -->

<svg
   xmlns:dc="http://purl.org/dc/elements/1.1/"
   xmlns:cc="http://creativecommons.org/ns#"
   xmlns:rdf="http://www.w3.org/1999/02/22-rdf-syntax-ns#"
   xmlns:svg="http://www.w3.org/2000/svg"
   xmlns="http://www.w3.org/2000/svg"
   xmlns:sodipodi="http://sodipodi.sourceforge.net/DTD/sodipodi-0.dtd"
   xmlns:inkscape="http://www.inkscape.org/namespaces/inkscape"
   width="30.003197mm"
   height="30.064354mm"
   viewBox="0 0 30.003197 30.064354"
   version="1.1"
   id="svg7463"
   inkscape:version="0.92.3 (2405546, 2018-03-11)"
   sodipodi:docname="logo_dm_mod.svg">
  <sodipodi:namedview
     id="base"
     pagecolor="#ffffff"
     bordercolor="#666666"
     borderopacity="1.0"
     inkscape:pageopacity="0.0"
     inkscape:pageshadow="2"
     inkscape:zoom="4"
     inkscape:cx="48.458299"
     inkscape:cy="46.967839"
     inkscape:document-units="mm"
     inkscape:current-layer="g7651"
     showgrid="true"
     fit-margin-top="0"
     fit-margin-left="0"
     fit-margin-right="0"
     fit-margin-bottom="0"
     inkscape:window-width="1920"
     inkscape:window-height="1027"
     inkscape:window-x="-8"
     inkscape:window-y="-8"
     inkscape:window-maximized="1"
     units="mm">
    <inkscape:grid
       enabled="true"
       type="xygrid"
       id="grid7475"
       snapvisiblegridlinesonly="false"
       units="mm"
       spacingx="0.5"
       spacingy="0.5"
       empspacing="10"
       originx="-10.190556"
       originy="-260.10992" />
  </sodipodi:namedview>
  <defs
     id="defs7457" />
  <metadata
     id="metadata7460">
    <rdf:RDF>
      <cc:Work
         rdf:about="">
        <dc:format>image/svg+xml</dc:format>
        <dc:type
           rdf:resource="http://purl.org/dc/dcmitype/StillImage" />
        <dc:title />
      </cc:Work>
    </rdf:RDF>
  </metadata>
  <g
     inkscape:label="Cu"
     inkscape:groupmode="layer"
     id="layer1"
     transform="translate(-10.190556,-6.8257355)"
     style="display:inline">
    <path
       sodipodi:type="inkscape:offset"
       inkscape:radius="1.2089844"
       inkscape:original="M 46.208984 84.974609 L 46.208984 92.669922 C 47.850519 92.831814 49.547821 92.670121 51.078125 92.029297 C 53.210024 90.617675 53.205361 87.012168 51.068359 85.607422 C 49.60008 84.742306 47.828743 85.017624 46.208984 84.974609 z M 54.373047 84.974609 L 54.373047 92.669922 L 55.330078 92.669922 L 55.330078 86.039062 L 57.453125 90.550781 C 58.55487 89.866099 59.309461 88.659814 59.458984 87.373047 C 60.238479 87.405417 60.747324 88.427859 60.304688 89.070312 C 60.033271 89.992126 60.351462 90.969573 60.101562 91.894531 C 60.445338 92.638889 61.785115 92.029996 61.451172 91.28125 C 60.928935 89.661901 61.345464 87.953902 61.253906 86.294922 C 61.688687 85.545559 60.584349 84.593588 59.90625 85.132812 C 59.287595 85.747351 59.08071 86.620738 58.714844 87.384766 C 58.973609 88.170037 57.704878 88.793196 57.242188 88.107422 C 56.739854 87.044866 56.42955 85.820255 55.503906 85.025391 C 55.150193 84.860706 54.743651 84.892688 54.373047 84.974609 z M 48.671875 85.75 C 50.107425 85.963762 51.427284 87.068039 51.714844 88.517578 C 51.829645 89.959215 50.757367 91.391416 49.341797 91.6875 C 48.398203 92.288438 46.984812 91.307275 47.216797 90.212891 C 47.189137 88.759591 47.387236 87.304276 47.232422 85.853516 C 47.702639 85.706728 48.193358 85.678746 48.671875 85.75 z "
       style="font-style:normal;font-weight:normal;font-size:10.58333302px;line-height:1.25;font-family:sans-serif;letter-spacing:0px;word-spacing:0px;display:inline;fill:#000000;fill-opacity:1;stroke:none;stroke-width:0.26458332"
       id="text5832-1-9-6-7-4-3"
       d="m 48.785156,83.753906 c -0.936394,-0.05285 -1.81516,0.0311 -2.544922,0.01172 A 1.2091053,1.2091053 0 0 0 45,84.974609 v 7.695313 a 1.2091053,1.2091053 0 0 0 1.089844,1.203125 c 1.800786,0.177598 3.69783,0.0073 5.455078,-0.728516 a 1.2091053,1.2091053 0 0 0 0.201172,-0.107422 c 0.630955,-0.417782 1.059949,-0.998458 1.417968,-1.609375 v 1.242188 a 1.2091053,1.2091053 0 0 0 1.208985,1.208984 h 0.957031 a 1.2091053,1.2091053 0 0 0 1.208984,-1.208984 v -1.330078 a 1.2091053,1.2091053 0 0 0 1.552735,0.238281 C 58.464085,91.346766 58.698395,90.978922 59,90.671875 c 0.01302,0.251373 -0.0261,0.759011 -0.06641,0.908203 a 1.2091053,1.2091053 0 0 0 0.07031,0.822266 c 0.237583,0.514424 0.766475,0.895606 1.248047,0.998047 0.481573,0.102441 0.907562,0.01659 1.279297,-0.152344 0.371735,-0.168932 0.715496,-0.431453 0.955078,-0.861328 0.239582,-0.429876 0.29917,-1.080147 0.06836,-1.597657 l 0.04687,0.121094 c -0.388378,-1.204281 -0.03543,-2.775629 -0.140624,-4.68164 l -0.16211,0.673828 C 63.402621,84.999911 60.875443,82.818846 59.154297,84.1875 a 1.2091053,1.2091053 0 0 0 -0.09961,0.08789 c -0.734501,0.729613 -1.000477,1.488552 -1.230469,2.095703 -0.314429,-0.757563 -0.714435,-1.560584 -1.533203,-2.263672 a 1.2091053,1.2091053 0 0 0 -0.277344,-0.177734 c -0.729355,-0.33958 -1.414549,-0.242592 -1.902344,-0.134766 a 1.2091053,1.2091053 0 0 0 -0.947266,1.179687 v 1.238282 c -0.36042,-0.614186 -0.795432,-1.197027 -1.43164,-1.615235 a 1.2091053,1.2091053 0 0 0 -0.05078,-0.03125 c -0.965669,-0.568976 -1.96009,-0.759652 -2.896485,-0.8125 z m -0.291015,3.191406 c 0.914919,0.136237 1.782587,0.896642 1.992187,1.738282 0.01673,0.769712 -0.64494,1.663934 -1.392578,1.820312 a 1.2091053,1.2091053 0 0 0 -0.402344,0.164063 c 0.02071,-0.01319 -0.286027,-0.228612 -0.291015,-0.205078 a 1.2091053,1.2091053 0 0 0 0.02539,-0.273438 c -0.01835,-0.963862 0.01565,-2.108177 0.0078,-3.240234 0.02096,0.0025 0.0395,-0.007 0.06055,-0.0039 z"
       transform="matrix(1.1801083,0,0,1.1770789,-38.340393,-82.955902)" />
    <path
       sodipodi:type="inkscape:offset"
       inkscape:radius="-0.38458025"
       inkscape:original="M 72.123047 166.5957 C 60.33877 165.86397 54.250599 183.9678 64.085938 190.5332 C 72.417404 196.90535 86.36586 189.44767 85.341797 178.86719 C 84.947819 172.27414 78.991047 165.95019 72.123047 166.5957 z M 72.123047 167.75195 C 83.155889 167.04588 88.408817 184.22632 79.009766 189.95703 C 70.991776 195.52208 59.092116 187.77441 60.166016 178.29297 C 60.620941 172.40742 66.130285 167.25599 72.123047 167.75195 z "
       style="color:#000000;font-style:normal;font-variant:normal;font-weight:normal;font-stretch:normal;font-size:medium;line-height:normal;font-family:sans-serif;font-variant-ligatures:normal;font-variant-position:normal;font-variant-caps:normal;font-variant-numeric:normal;font-variant-alternates:normal;font-feature-settings:normal;text-indent:0;text-align:start;text-decoration:none;text-decoration-line:none;text-decoration-style:solid;text-decoration-color:#000000;letter-spacing:normal;word-spacing:normal;text-transform:none;writing-mode:lr-tb;direction:ltr;text-orientation:mixed;dominant-baseline:auto;baseline-shift:baseline;text-anchor:start;white-space:normal;shape-padding:0;clip-rule:nonzero;display:inline;overflow:visible;visibility:visible;opacity:0.89899998;isolation:auto;mix-blend-mode:normal;color-interpolation:sRGB;color-interpolation-filters:linearRGB;solid-color:#000000;solid-opacity:1;vector-effect:none;fill:#000000;fill-opacity:1;fill-rule:nonzero;stroke:none;stroke-width:0.26458332;stroke-linecap:butt;stroke-linejoin:miter;stroke-miterlimit:4;stroke-dasharray:none;stroke-dashoffset:0;stroke-opacity:1;color-rendering:auto;image-rendering:auto;shape-rendering:auto;text-rendering:auto;enable-background:accumulate"
       id="path6309-1-6-6"
       d="m 72.158203,166.97852 a 0.38461871,0.38461871 0 0 1 -0.05859,0.002 c -3.735641,-0.23196 -6.863526,1.52403 -9.070312,4.18945 2.324809,-2.50328 5.617664,-4.09105 9.125,-3.80078 9.566542,-0.56062 14.859864,11.76406 10.572265,19.25391 1.598928,-2.18207 2.512734,-4.82261 2.232422,-7.71875 a 0.38461871,0.38461871 0 0 1 -0.002,-0.0137 c -0.381083,-6.37725 -6.184437,-12.53378 -12.798828,-11.9121 z m -12.304687,10.89843 c -0.004,0.0201 -0.0058,0.0404 -0.0098,0.0606 0.0022,-0.0204 0.0074,-0.0401 0.0098,-0.0606 z m -0.07617,0.56446 c -0.7173,4.44943 0.525597,9.1041 4.521484,11.77148 a 0.38461871,0.38461871 0 0 1 0.02148,0.0156 c 2.871853,2.19647 6.442559,2.66197 9.808594,1.91992 -7.357382,0.74219 -15.102359,-5.8578 -14.351562,-13.70703 z"
       transform="matrix(1.1801083,0,0,1.1770789,-60.126299,-189.67005)" />
  </g>
  <g
     style="display:inline"
     transform="translate(-10.190556,-6.8257355)"
     id="g7651"
     inkscape:groupmode="layer"
     inkscape:label="Mask">
    <path
       transform="matrix(1.1801083,0,0,1.1770789,-38.340393,-82.955902)"
       d="M48.785156 83.753906L46.240234 83.765626L45.7679925948 83.8485617937L45.3651164331 84.1085254238L45.0949580429 84.5046374469L45.0 84.974609L45.0 92.669922L45.0833269974 93.111505782L45.3129931983 93.4815758978L45.6586238001 93.7466003146L46.089844 93.873047L47.4547935313 93.9376146563L48.83370975 93.85131925L50.2044625938 93.5937587188L51.544922 93.144531L51.746094 93.037109L52.557429 92.304847125L53.164062 91.427734L53.164062 92.669922L53.2591022157 93.140492251L53.5182010907 93.5247676164L53.9024766703 93.7838661735L54.373047 93.878906L55.330078 93.878906L55.8006480087 93.7838658857L56.1849232629 93.5247672629L56.4440218857 93.1404920087L56.539062 92.669922L56.539062 91.339844L56.8744437493 91.6112583228L57.2714611708 91.7454998481L57.6904627568 91.7364836994L58.091797 91.578125L59.0 90.671875L58.93359 91.580078L59.0039 92.402344L59.536427625 93.055861125L60.251947 93.400391L60.93278475 93.425984625L61.531244 93.248047L62.058340375 92.915236625L62.486322 92.386719L62.696899 91.62075325L62.554682 90.789062L62.601552 90.910156L62.4305254375 89.9386265L62.425046 88.83248475L62.460928 86.228516L62.298818 86.902344L62.5512079316 86.183347998L62.5151896406 85.4830937344L62.242759373 84.8464446973L61.785913375 84.318264375L61.1966478926 83.9434162559L60.5269591719 83.7667638281L59.828843459 83.8331705801L59.154297 84.1875L59.054687 84.27539L58.250261625 85.36916475L57.824218 86.371093L57.246743625 85.218828875L56.291015 84.107421L56.013671 83.929687L54.971914 83.69452675L54.111327 83.794921L53.4303858648 84.2183000497L53.164061 84.974608L53.164061 86.21289L52.5516615 85.33178075L51.732421 84.597655L51.681641 84.566405L50.22242075 83.966607L48.785156 83.753905L48.785156 83.753906M48.494141 86.945312L49.1619266719 87.1560379219L49.754729125 87.549926875L50.2152842656 88.0760788906L50.486328 88.683594L50.38093225 89.2707493437L50.076677 89.82375025L49.62910275 90.2617510313L49.09375 90.503906L48.691406 90.667969L48.400391 90.462891L48.425781 90.189453L48.433581 86.949219L48.494131 86.945319L48.494141 86.945312"
       id="path7647"
       style="font-style:normal;font-weight:normal;font-size:10.58333302px;line-height:1.25;font-family:sans-serif;letter-spacing:0px;word-spacing:0px;display:inline;fill:#000000;fill-opacity:1;stroke:none;stroke-width:0.26458332"
       inkscape:original="M 46.208984 84.974609 L 46.208984 92.669922 C 47.850519 92.831814 49.547821 92.670121 51.078125 92.029297 C 53.210024 90.617675 53.205361 87.012168 51.068359 85.607422 C 49.60008 84.742306 47.828743 85.017624 46.208984 84.974609 z M 54.373047 84.974609 L 54.373047 92.669922 L 55.330078 92.669922 L 55.330078 86.039062 L 57.453125 90.550781 C 58.55487 89.866099 59.309461 88.659814 59.458984 87.373047 C 60.238479 87.405417 60.747324 88.427859 60.304688 89.070312 C 60.033271 89.992126 60.351462 90.969573 60.101562 91.894531 C 60.445338 92.638889 61.785115 92.029996 61.451172 91.28125 C 60.928935 89.661901 61.345464 87.953902 61.253906 86.294922 C 61.688687 85.545559 60.584349 84.593588 59.90625 85.132812 C 59.287595 85.747351 59.08071 86.620738 58.714844 87.384766 C 58.973609 88.170037 57.704878 88.793196 57.242188 88.107422 C 56.739854 87.044866 56.42955 85.820255 55.503906 85.025391 C 55.150193 84.860706 54.743651 84.892688 54.373047 84.974609 z M 48.671875 85.75 C 50.107425 85.963762 51.427284 87.068039 51.714844 88.517578 C 51.829645 89.959215 50.757367 91.391416 49.341797 91.6875 C 48.398203 92.288438 46.984812 91.307275 47.216797 90.212891 C 47.189137 88.759591 47.387236 87.304276 47.232422 85.853516 C 47.702639 85.706728 48.193358 85.678746 48.671875 85.75 z "
       inkscape:radius="1.2089844"
       sodipodi:type="inkscape:offset" />
    <path
       transform="matrix(1.1801083,0,0,1.1770789,-60.126299,-189.67005)"
       d="M72.158203 166.97852L72.099613 166.98052L70.7278481855 166.984613672L69.4167324844 167.16243875L68.1699378848 167.501356328L66.991136375 167.9887275L64.8522005781 169.358275L63.029301 171.16997L64.9426419219 169.479207656L67.148353375 168.22199875L68.3387709512 167.784175957L69.5757886406 167.488580469L70.8505756035 167.346491934L72.154301 167.36919L73.8966550027 167.410747156L75.531080459 167.728346309L77.0498024163 168.296030237L78.4450459219 169.087841719L79.7090360232 170.077823533L80.8339977676 171.240018457L81.8121562024 172.54846927L82.635736375 173.97721875L83.2969633328 175.500309675L83.788062123 177.091784824L84.1012577932 178.725686975L84.2287753906 180.376058906L84.1628399626 182.016943396L83.8956765566 183.622383223L83.41951022 185.166421165L82.726566 186.6231L83.7893485625 184.903754219L84.547492 183.03150125L84.9532779375 181.025360156L84.958988 178.90435L84.956988 178.89065L84.5689192383 176.522335098L83.7265504688 174.251558281L82.4839195898 172.155165137L80.8950645 170.31000125L79.0140230977 168.792912207L76.8948332813 167.680743594L74.5915329492 167.050340996L73.3877281831 166.939816199L72.15816 166.97855L72.158203 166.97852M59.853516 177.87695L59.843716 177.93755L59.853516 177.87695L59.853516 177.87695M59.777346 178.44141L59.6017911582 180.11528459L59.6192953281 181.782706719L59.8391490527 183.417982676L60.270642875 184.99541875L60.9230673379 186.48932123L61.8057129844 187.873996406L62.9278703574 189.123750566L64.29883 190.21289L64.32031 190.22849L65.4282489141 190.972049336L66.591117125 191.559464063L67.7983264609 191.996868008L69.03928875 192.290395L71.5801195 192.470353437L74.128904 192.14841L72.7470215374 192.203016987L71.3690675645 192.094466836L70.0080548289 191.831684751L68.6769960781 191.423595937L66.1567915215 190.207198945L63.912555875 188.5166775L62.0483911191 186.423433242L61.2913671941 185.248103071L60.6683992344 183.998867813L60.1924999875 182.684652671L59.8766822012 181.314382852L59.7339586228 179.89698356L59.777342 178.44138L59.777346 178.44141"
       id="path7649"
       style="color:#000000;font-style:normal;font-variant:normal;font-weight:normal;font-stretch:normal;font-size:medium;line-height:normal;font-family:sans-serif;font-variant-ligatures:normal;font-variant-position:normal;font-variant-caps:normal;font-variant-numeric:normal;font-variant-alternates:normal;font-feature-settings:normal;text-indent:0;text-align:start;text-decoration:none;text-decoration-line:none;text-decoration-style:solid;text-decoration-color:#000000;letter-spacing:normal;word-spacing:normal;text-transform:none;writing-mode:lr-tb;direction:ltr;text-orientation:mixed;dominant-baseline:auto;baseline-shift:baseline;text-anchor:start;white-space:normal;shape-padding:0;clip-rule:nonzero;display:inline;overflow:visible;visibility:visible;opacity:0.89899998;isolation:auto;mix-blend-mode:normal;color-interpolation:sRGB;color-interpolation-filters:linearRGB;solid-color:#000000;solid-opacity:1;vector-effect:none;fill:#000000;fill-opacity:1;fill-rule:nonzero;stroke:none;stroke-width:0.26458332;stroke-linecap:butt;stroke-linejoin:miter;stroke-miterlimit:4;stroke-dasharray:none;stroke-dashoffset:0;stroke-opacity:1;color-rendering:auto;image-rendering:auto;shape-rendering:auto;text-rendering:auto;enable-background:accumulate"
       inkscape:original="M 72.123047 166.5957 C 60.33877 165.86397 54.250599 183.9678 64.085938 190.5332 C 72.417404 196.90535 86.36586 189.44767 85.341797 178.86719 C 84.947819 172.27414 78.991047 165.95019 72.123047 166.5957 z M 72.123047 167.75195 C 83.155889 167.04588 88.408817 184.22632 79.009766 189.95703 C 70.991776 195.52208 59.092116 187.77441 60.166016 178.29297 C 60.620941 172.40742 66.130285 167.25599 72.123047 167.75195 z "
       inkscape:radius="-0.38458025"
       sodipodi:type="inkscape:offset" />
  </g>
</svg>
