M48
; DRILL file {KiCad (5.1.5)-3} date 02/17/2020 7:33:16 PM
; FORMAT={-:-/ absolute / inch / decimal}
; #@! TF.CreationDate,2020-02-17T19:33:16-05:00
; #@! TF.GenerationSoftware,Kicad,Pcbnew,(5.1.5)-3
; #@! TF.FileFunction,Plated,1,2,PTH
FMAT,2
INCH
T1C0.0157
T2C0.0394
%
G90
G05
T1
X3.1Y-3.03
X3.1Y-3.23
X3.42Y-2.94
X3.4652Y-2.78
X3.52Y-2.84
X3.6231Y-2.8167
X3.7175Y-3.02
X3.7175Y-3.065
X3.7175Y-3.105
X3.7321Y-3.2651
X3.74Y-2.96
X3.76Y-3.48
X3.77Y-3.21
X3.8125Y-2.935
X3.8222Y-2.7731
X3.8525Y-3.375
X3.89Y-2.93
X3.89Y-3.18
X3.8952Y-2.82
X3.9225Y-2.77
X3.9466Y-3.0985
X3.97Y-2.77
X3.97Y-3.18
X3.98Y-3.44
X4.0233Y-3.1171
X4.0325Y-3.2034
X4.0425Y-2.8285
X4.0475Y-2.915
X4.07Y-3.38
X4.11Y-3.46
X4.13Y-3.31
X4.1516Y-3.1435
X4.16Y-2.93
X4.18Y-3.19
X4.19Y-2.97
X4.2159Y-2.7894
X4.2309Y-2.993
X4.231Y-3.0472
X4.234Y-3.0865
X4.2547Y-3.1425
X4.2825Y-3.2637
X4.2825Y-3.34
X4.29Y-3.16
X4.2933Y-2.83
X4.3275Y-3.185
X4.3518Y-3.3436
X4.3565Y-2.8415
X4.37Y-2.98
X4.3775Y-3.235
X4.3831Y-3.1366
X4.3959Y-3.3502
X4.3975Y-3.415
X4.4174Y-2.8465
X4.4382Y-2.7898
X4.4568Y-2.8465
X4.4823Y-3.1848
X4.49Y-3.25
X4.5075Y-3.415
X4.5175Y-2.99
X4.5195Y-2.9485
X4.526Y-3.3212
X4.531Y-3.3702
X4.55Y-2.79
X4.55Y-3.29
X4.6173Y-2.8902
X4.6173Y-2.9302
X4.6173Y-2.9702
X4.6173Y-3.0102
X4.6173Y-3.2498
X4.6173Y-3.3298
X4.6175Y-2.8
X4.6175Y-2.85
X4.6175Y-3.05
X4.6175Y-3.09
X4.6175Y-3.13
X4.6175Y-3.17
X4.6175Y-3.21
X4.6175Y-3.29
X4.6175Y-3.37
X4.7775Y-3.33
X4.7775Y-2.81
X4.7775Y-2.85
X4.7775Y-2.89
X4.7775Y-2.93
X4.7775Y-2.97
X4.7775Y-3.01
X4.7775Y-3.05
X4.7775Y-3.09
X4.7775Y-3.13
X4.7775Y-3.17
X4.7775Y-3.21
X4.7775Y-3.25
X4.7775Y-3.29
X4.7775Y-3.37
X4.8525Y-2.845
X4.8775Y-3.395
X4.9025Y-2.695
X4.906Y-2.92
X4.9525Y-2.72
X4.9525Y-2.97
X5.0775Y-3.22
X5.1525Y-2.72
X5.1537Y-3.2625
X5.16Y-2.66
X5.2275Y-3.145
X5.2275Y-3.27
X5.2914Y-3.2339
X5.3275Y-3.17
X5.3275Y-3.295
X5.4025Y-3.095
X5.415Y-2.68
X5.415Y-3.0398
T2
X5.3225Y-3.005
X5.2225Y-2.905
X5.0225Y-3.005
X5.3225Y-2.705
X5.2225Y-3.355
X5.1225Y-3.005
X5.3225Y-2.905
X5.0225Y-3.355
X5.3225Y-2.805
X5.0225Y-2.905
X5.2225Y-3.005
X5.1225Y-3.355
X5.2225Y-2.805
X5.0225Y-3.455
X5.1225Y-2.905
X5.1225Y-3.455
X5.0225Y-2.805
X5.2225Y-2.705
X5.2225Y-3.455
T0
M30
