G04 #@! TF.GenerationSoftware,KiCad,Pcbnew,(5.1.5)-3*
G04 #@! TF.CreationDate,2020-02-17T19:32:57-05:00*
G04 #@! TF.ProjectId,PicoTrackerWSPR1Rev6,5069636f-5472-4616-936b-657257535052,rev?*
G04 #@! TF.SameCoordinates,Original*
G04 #@! TF.FileFunction,Copper,L2,Bot*
G04 #@! TF.FilePolarity,Positive*
%FSLAX46Y46*%
G04 Gerber Fmt 4.6, Leading zero omitted, Abs format (unit mm)*
G04 Created by KiCad (PCBNEW (5.1.5)-3) date 2020-02-17 19:32:57*
%MOMM*%
%LPD*%
G04 APERTURE LIST*
%ADD10R,1.700000X1.700000*%
%ADD11R,3.000000X3.000000*%
%ADD12C,0.800000*%
%ADD13C,0.250000*%
%ADD14C,0.254000*%
G04 APERTURE END LIST*
D10*
X127571500Y-85217000D03*
X127571500Y-87757000D03*
X127571500Y-73787000D03*
X127571500Y-76327000D03*
X127571500Y-71247000D03*
D11*
X100901500Y-86741000D03*
X103441500Y-73025000D03*
D10*
X130111500Y-76327000D03*
X132651500Y-71247000D03*
X135191500Y-71247000D03*
X132651500Y-73787000D03*
X135191500Y-73787000D03*
X132651500Y-85217000D03*
X130111500Y-85217000D03*
X132651500Y-87757000D03*
X130111500Y-87757000D03*
X135191500Y-76327000D03*
X132651500Y-76327000D03*
X132651500Y-68707000D03*
X135191500Y-68707000D03*
X130111500Y-73787000D03*
D11*
X96837500Y-73025000D03*
D12*
X106426000Y-75438000D03*
X110998000Y-75692000D03*
X101092000Y-87376000D03*
X121348500Y-71374000D03*
X117284500Y-71120000D03*
X86868000Y-74676000D03*
X78740000Y-76962000D03*
X78740000Y-82042000D03*
X89408000Y-72136000D03*
X98806000Y-80772000D03*
X95758000Y-81534000D03*
X100838000Y-80772000D03*
X104902000Y-84074000D03*
X103378000Y-85852000D03*
X104394000Y-87884000D03*
X95504000Y-88392000D03*
X111188500Y-82169000D03*
X114046000Y-82550000D03*
X94996000Y-75184000D03*
X102191674Y-79174799D03*
X96837500Y-74549000D03*
X92027872Y-71543793D03*
X105450095Y-79846010D03*
X109918500Y-80899000D03*
X113850844Y-80894336D03*
X100244667Y-78702273D03*
X112731107Y-70860635D03*
X117279840Y-73410660D03*
X121348500Y-73406000D03*
X98806000Y-74422008D03*
X105664000Y-74422000D03*
X107082608Y-70850034D03*
X99631500Y-70358000D03*
X102806500Y-74041000D03*
X102679500Y-71845010D03*
X117279840Y-76458660D03*
X121348500Y-76454000D03*
X113202962Y-72299990D03*
X117279840Y-75442660D03*
X121348500Y-75438000D03*
X125793500Y-75438000D03*
X130873500Y-69088000D03*
X125793500Y-69088000D03*
X112202949Y-72299990D03*
X117279840Y-74426660D03*
X121348500Y-74422000D03*
X124523500Y-68453000D03*
X124613510Y-74168000D03*
X131064000Y-67563998D03*
X108775500Y-82896980D03*
X110536956Y-84926941D03*
X94794653Y-82934109D03*
X117279844Y-84577336D03*
X121348488Y-84582000D03*
X132778500Y-83058000D03*
X114959249Y-84357932D03*
X115570000Y-83566000D03*
X108775500Y-84836000D03*
X111655107Y-85096047D03*
X97853500Y-85725000D03*
X117284500Y-85598000D03*
X121348500Y-85598000D03*
X135318500Y-83693000D03*
X115088510Y-85603906D03*
X117279840Y-82545340D03*
X121348500Y-82550000D03*
X134402476Y-82141976D03*
X108966000Y-80264000D03*
X111331290Y-79668998D03*
X117284500Y-83566000D03*
X121348500Y-83566000D03*
X130903779Y-82866986D03*
X117284500Y-72390000D03*
X121348500Y-72390000D03*
X123253500Y-72263000D03*
X123888500Y-86233000D03*
X115570000Y-70866000D03*
X117284500Y-81534000D03*
X121348500Y-81534000D03*
X128968500Y-81788000D03*
X108069909Y-79820102D03*
X94424500Y-78867000D03*
X107542381Y-78398136D03*
X117284500Y-80518000D03*
X121348500Y-80518000D03*
X135318500Y-80518000D03*
X94424500Y-77851000D03*
X107468658Y-77397923D03*
X117284500Y-79502000D03*
X121348500Y-79502000D03*
X132778500Y-79883000D03*
X114795448Y-74892555D03*
X117284500Y-77470000D03*
X121348500Y-77470000D03*
X137541527Y-77212068D03*
X137541527Y-68072000D03*
X114744500Y-75946000D03*
X117284500Y-78486000D03*
X121348500Y-78486000D03*
X137223500Y-78613000D03*
X94424500Y-76708000D03*
X107464512Y-76021664D03*
X114490500Y-86741000D03*
X111696500Y-86741000D03*
X109050286Y-71881855D03*
X100838000Y-70358000D03*
X88015502Y-70612000D03*
X110653961Y-72173747D03*
X98937522Y-71628000D03*
X97083591Y-70435916D03*
X102425500Y-81366052D03*
X106172000Y-81026000D03*
D13*
X117284500Y-71120000D02*
X117850185Y-71374000D01*
X117850185Y-71374000D02*
X118549742Y-72073557D01*
X118549742Y-72073557D02*
X120083258Y-72073557D01*
X120782815Y-71374000D02*
X121348500Y-71374000D01*
X120083258Y-72073557D02*
X120782815Y-71374000D01*
X96837500Y-74549000D02*
X96837500Y-73025000D01*
X113846180Y-80899000D02*
X113850844Y-80894336D01*
X109918500Y-80899000D02*
X113846180Y-80899000D01*
X102191674Y-79174799D02*
X100717193Y-79174799D01*
X100717193Y-79174799D02*
X100244667Y-78702273D01*
X117689159Y-73810659D02*
X119157472Y-75278972D01*
X119157472Y-75278972D02*
X119449869Y-75278972D01*
X117679839Y-73810659D02*
X117689159Y-73810659D01*
X117279840Y-73410660D02*
X117679839Y-73810659D01*
X119449869Y-75278972D02*
X120922842Y-73805999D01*
X120922842Y-73805999D02*
X120948501Y-73805999D01*
X120948501Y-73805999D02*
X121348500Y-73406000D01*
X125412500Y-73406000D02*
X127571500Y-71247000D01*
X121348500Y-73406000D02*
X125412500Y-73406000D01*
X96837500Y-74549000D02*
X98679008Y-74549000D01*
X98679008Y-74549000D02*
X98806000Y-74422008D01*
X99459991Y-75075999D02*
X105010001Y-75075999D01*
X105010001Y-75075999D02*
X105264001Y-74821999D01*
X98806000Y-74422008D02*
X99459991Y-75075999D01*
X105264001Y-74821999D02*
X105664000Y-74422000D01*
X116387659Y-73010661D02*
X116879841Y-73010661D01*
X112731107Y-70860635D02*
X114237633Y-70860635D01*
X114237633Y-70860635D02*
X116387659Y-73010661D01*
X116879841Y-73010661D02*
X117279840Y-73410660D01*
X109928951Y-71571415D02*
X109928951Y-72267419D01*
X108292723Y-72607001D02*
X107115347Y-71429625D01*
X107096514Y-70863940D02*
X107082608Y-70850034D01*
X109589369Y-72607001D02*
X108292723Y-72607001D01*
X107115347Y-70863940D02*
X107096514Y-70863940D01*
X110639730Y-70860635D02*
X109928951Y-71571415D01*
X107115347Y-71429625D02*
X107115347Y-70863940D01*
X112731107Y-70860635D02*
X110639730Y-70860635D01*
X109928951Y-72267419D02*
X109589369Y-72607001D01*
X92027872Y-71543793D02*
X95356293Y-71543793D01*
X95356293Y-71543793D02*
X96837500Y-73025000D01*
X100031499Y-70757999D02*
X99631500Y-70358000D01*
X101249501Y-71083001D02*
X100356501Y-71083001D01*
X96837500Y-73025000D02*
X96837500Y-72042668D01*
X96837500Y-72042668D02*
X98522168Y-70358000D01*
X100356501Y-71083001D02*
X100031499Y-70757999D01*
X101882467Y-70450035D02*
X101249501Y-71083001D01*
X99065815Y-70358000D02*
X99631500Y-70358000D01*
X106682609Y-70450035D02*
X101882467Y-70450035D01*
X107082608Y-70850034D02*
X106682609Y-70450035D01*
X98522168Y-70358000D02*
X99065815Y-70358000D01*
X127444500Y-76454000D02*
X127571500Y-76327000D01*
X121348500Y-76454000D02*
X127444500Y-76454000D01*
X105191500Y-73025000D02*
X105710938Y-73544438D01*
X105710938Y-73544438D02*
X114697523Y-73544438D01*
X116822837Y-76058661D02*
X116879841Y-76058661D01*
X116554838Y-75790662D02*
X116822837Y-76058661D01*
X103441500Y-73025000D02*
X105191500Y-73025000D01*
X114697523Y-73544438D02*
X116554838Y-75401753D01*
X116554838Y-75401753D02*
X116554838Y-75790662D01*
X116879841Y-76058661D02*
X117279840Y-76458660D01*
X113202962Y-72299990D02*
X114089486Y-72299990D01*
X114089486Y-72299990D02*
X116832157Y-75042661D01*
X116832157Y-75042661D02*
X116879841Y-75042661D01*
X116879841Y-75042661D02*
X117279840Y-75442660D01*
X117279840Y-75442660D02*
X117845525Y-75442660D01*
X117845525Y-75442660D02*
X119205837Y-76802972D01*
X119205837Y-76802972D02*
X119417843Y-76802972D01*
X119417843Y-76802972D02*
X120782815Y-75438000D01*
X120782815Y-75438000D02*
X121348500Y-75438000D01*
X121348500Y-75438000D02*
X125793500Y-75438000D01*
X125793500Y-69088000D02*
X130873500Y-69088000D01*
X121348500Y-74422000D02*
X124359510Y-74422000D01*
X124359510Y-74422000D02*
X124613510Y-74168000D01*
X130498315Y-67563998D02*
X131064000Y-67563998D01*
X124523500Y-68453000D02*
X125412502Y-67563998D01*
X125412502Y-67563998D02*
X130498315Y-67563998D01*
X114315575Y-71574988D02*
X116767248Y-74026661D01*
X112202949Y-72299990D02*
X112202949Y-72226999D01*
X116767248Y-74026661D02*
X116879841Y-74026661D01*
X112202949Y-72226999D02*
X112854960Y-71574988D01*
X116879841Y-74026661D02*
X117279840Y-74426660D01*
X112854960Y-71574988D02*
X114315575Y-71574988D01*
X126275099Y-83591988D02*
X132244512Y-83591988D01*
X132244512Y-83591988D02*
X132378501Y-83457999D01*
X125285087Y-84582000D02*
X126275099Y-83591988D01*
X132378501Y-83457999D02*
X132778500Y-83058000D01*
X121348488Y-84582000D02*
X125285087Y-84582000D01*
X95172544Y-83312000D02*
X94794653Y-82934109D01*
X108775500Y-82896980D02*
X108360480Y-83312000D01*
X108360480Y-83312000D02*
X95172544Y-83312000D01*
X114393564Y-84357932D02*
X114959249Y-84357932D01*
X111105965Y-84357932D02*
X114393564Y-84357932D01*
X110536956Y-84926941D02*
X111105965Y-84357932D01*
X115969999Y-83965999D02*
X115570000Y-83566000D01*
X116581336Y-84577336D02*
X115969999Y-83965999D01*
X117279844Y-84577336D02*
X116581336Y-84577336D01*
X115316000Y-83820000D02*
X115570000Y-83566000D01*
X108775500Y-82896980D02*
X109698520Y-83820000D01*
X109698520Y-83820000D02*
X115316000Y-83820000D01*
X111255108Y-85496046D02*
X111655107Y-85096047D01*
X108775500Y-84836000D02*
X109591442Y-85651942D01*
X109591442Y-85651942D02*
X111099212Y-85651942D01*
X98742500Y-84836000D02*
X97853500Y-85725000D01*
X108775500Y-84836000D02*
X98742500Y-84836000D01*
X117284500Y-85598000D02*
X118459528Y-84422972D01*
X118459528Y-84422972D02*
X119607787Y-84422972D01*
X119607787Y-84422972D02*
X120782815Y-85598000D01*
X120782815Y-85598000D02*
X121348500Y-85598000D01*
X111099212Y-85651942D02*
X111255108Y-85496046D01*
X121348500Y-85598000D02*
X121748499Y-85198001D01*
X121748499Y-85198001D02*
X125305497Y-85198001D01*
X134752815Y-83693000D02*
X135318500Y-83693000D01*
X126461499Y-84041999D02*
X134403816Y-84041999D01*
X134403816Y-84041999D02*
X134752815Y-83693000D01*
X125305497Y-85198001D02*
X126461499Y-84041999D01*
X114580651Y-85096047D02*
X115088510Y-85603906D01*
X115088510Y-85603906D02*
X117278594Y-85603906D01*
X117278594Y-85603906D02*
X117284500Y-85598000D01*
X111655107Y-85096047D02*
X114580651Y-85096047D01*
X129687528Y-82141976D02*
X133836791Y-82141976D01*
X133836791Y-82141976D02*
X134402476Y-82141976D01*
X121348500Y-82550000D02*
X129279504Y-82550000D01*
X129279504Y-82550000D02*
X129687528Y-82141976D01*
X116879841Y-82145341D02*
X116822837Y-82145341D01*
X113271497Y-78594001D02*
X110635999Y-78594001D01*
X110635999Y-78594001D02*
X109365999Y-79864001D01*
X116822837Y-82145341D02*
X113271497Y-78594001D01*
X109365999Y-79864001D02*
X108966000Y-80264000D01*
X117279840Y-82545340D02*
X116879841Y-82145341D01*
X111331290Y-79668998D02*
X113710083Y-79668998D01*
X113710083Y-79668998D02*
X116554838Y-82513753D01*
X116554838Y-82513753D02*
X116554838Y-83402023D01*
X116554838Y-83402023D02*
X116718815Y-83566000D01*
X116718815Y-83566000D02*
X117284500Y-83566000D01*
X117284500Y-83566000D02*
X117951528Y-82898972D01*
X117951528Y-82898972D02*
X120115787Y-82898972D01*
X120115787Y-82898972D02*
X120782815Y-83566000D01*
X120782815Y-83566000D02*
X121348500Y-83566000D01*
X130338094Y-82866986D02*
X130903779Y-82866986D01*
X121772523Y-83141977D02*
X130063103Y-83141977D01*
X130063103Y-83141977D02*
X130338094Y-82866986D01*
X121348500Y-83566000D02*
X121772523Y-83141977D01*
X121348500Y-72390000D02*
X123126500Y-72390000D01*
X123126500Y-72390000D02*
X123253500Y-72263000D01*
X126555500Y-86233000D02*
X127571500Y-85217000D01*
X123888500Y-86233000D02*
X126555500Y-86233000D01*
X115760500Y-70866000D02*
X115570000Y-70866000D01*
X117284500Y-72390000D02*
X115760500Y-70866000D01*
X117284500Y-81534000D02*
X117850185Y-81534000D01*
X117850185Y-81534000D02*
X118104185Y-81280000D01*
X118104185Y-81280000D02*
X120528815Y-81280000D01*
X120528815Y-81280000D02*
X120782815Y-81534000D01*
X120782815Y-81534000D02*
X121348500Y-81534000D01*
X128714500Y-81534000D02*
X128968500Y-81788000D01*
X121348500Y-81534000D02*
X128714500Y-81534000D01*
X117284500Y-81534000D02*
X116884501Y-81134001D01*
X108469908Y-79420103D02*
X108069909Y-79820102D01*
X113779497Y-78086001D02*
X109804010Y-78086001D01*
X116827497Y-81134001D02*
X113779497Y-78086001D01*
X116884501Y-81134001D02*
X116827497Y-81134001D01*
X109804010Y-78086001D02*
X108469908Y-79420103D01*
X99896666Y-77977272D02*
X106555832Y-77977272D01*
X106976696Y-78398136D02*
X107542381Y-78398136D01*
X106555832Y-77977272D02*
X106976696Y-78398136D01*
X94424500Y-78867000D02*
X99006938Y-78867000D01*
X99006938Y-78867000D02*
X99896666Y-77977272D01*
X116827497Y-80118001D02*
X116884501Y-80118001D01*
X114287497Y-77578001D02*
X116827497Y-80118001D01*
X107542381Y-78398136D02*
X108362516Y-77578001D01*
X108362516Y-77578001D02*
X114287497Y-77578001D01*
X116884501Y-80118001D02*
X117284500Y-80518000D01*
X121348500Y-80518000D02*
X121748499Y-80917999D01*
X134918501Y-80917999D02*
X135318500Y-80518000D01*
X121748499Y-80917999D02*
X134918501Y-80917999D01*
X106902973Y-77397923D02*
X107468658Y-77397923D01*
X94424500Y-77851000D02*
X94877577Y-77397923D01*
X116827497Y-79102001D02*
X116884501Y-79102001D01*
X107868657Y-76997924D02*
X114723420Y-76997924D01*
X107468658Y-77397923D02*
X107868657Y-76997924D01*
X114723420Y-76997924D02*
X116827497Y-79102001D01*
X116884501Y-79102001D02*
X117284500Y-79502000D01*
X117284500Y-79502000D02*
X117850185Y-79502000D01*
X117850185Y-79502000D02*
X118018514Y-79670329D01*
X118018514Y-79670329D02*
X120614486Y-79670329D01*
X120614486Y-79670329D02*
X120782815Y-79502000D01*
X120782815Y-79502000D02*
X121348500Y-79502000D01*
X94877577Y-77397923D02*
X106902973Y-77397923D01*
X132397500Y-79502000D02*
X132778500Y-79883000D01*
X121348500Y-79502000D02*
X132397500Y-79502000D01*
X116559498Y-76656605D02*
X116559498Y-76802002D01*
X116827497Y-77070001D02*
X116884501Y-77070001D01*
X116559498Y-76802002D02*
X116827497Y-77070001D01*
X114795448Y-74892555D02*
X116559498Y-76656605D01*
X116884501Y-77070001D02*
X117284500Y-77470000D01*
X117284500Y-77470000D02*
X117850185Y-77470000D01*
X117850185Y-77470000D02*
X118518184Y-78137999D01*
X118518184Y-78137999D02*
X120114816Y-78137999D01*
X120114816Y-78137999D02*
X120782815Y-77470000D01*
X120782815Y-77470000D02*
X121348500Y-77470000D01*
X121348500Y-77470000D02*
X121748499Y-77869999D01*
X121748499Y-77869999D02*
X136883596Y-77869999D01*
X136883596Y-77869999D02*
X137541527Y-77212068D01*
X132651500Y-68707000D02*
X132651500Y-67607000D01*
X137141528Y-67672001D02*
X137541527Y-68072000D01*
X133094499Y-67164001D02*
X136633528Y-67164001D01*
X132651500Y-67607000D02*
X133094499Y-67164001D01*
X136633528Y-67164001D02*
X137141528Y-67672001D01*
X115144499Y-76403003D02*
X116827497Y-78086001D01*
X114744500Y-75946000D02*
X115144499Y-76345999D01*
X115144499Y-76345999D02*
X115144499Y-76403003D01*
X116827497Y-78086001D02*
X116884501Y-78086001D01*
X116884501Y-78086001D02*
X117284500Y-78486000D01*
X121348500Y-78486000D02*
X137096500Y-78486000D01*
X137096500Y-78486000D02*
X137223500Y-78613000D01*
X94424500Y-76708000D02*
X106778176Y-76708000D01*
X106778176Y-76708000D02*
X107464512Y-76021664D01*
X114490500Y-86741000D02*
X111696500Y-86741000D01*
X109050286Y-71881855D02*
X109050286Y-71316170D01*
X109050286Y-71316170D02*
X107692117Y-69958001D01*
X107692117Y-69958001D02*
X101237999Y-69958001D01*
X101237999Y-69958001D02*
X100838000Y-70358000D01*
X107095929Y-73094427D02*
X105121511Y-71120009D01*
X105121511Y-71120009D02*
X101848904Y-71120009D01*
X99503207Y-71628000D02*
X98937522Y-71628000D01*
X110653961Y-72739432D02*
X110298966Y-73094427D01*
X101848904Y-71120009D02*
X101340913Y-71628000D01*
X101340913Y-71628000D02*
X99503207Y-71628000D01*
X110298966Y-73094427D02*
X107095929Y-73094427D01*
X110653961Y-72173747D02*
X110653961Y-72739432D01*
X96907507Y-70612000D02*
X97083591Y-70435916D01*
X88015502Y-70612000D02*
X96907507Y-70612000D01*
X102425500Y-81366052D02*
X105831948Y-81366052D01*
X105831948Y-81366052D02*
X106172000Y-81026000D01*
D14*
G36*
X87355728Y-69808063D02*
G01*
X87211565Y-69952226D01*
X87098297Y-70121744D01*
X87020276Y-70310102D01*
X86980502Y-70510061D01*
X86980502Y-70713939D01*
X87020276Y-70913898D01*
X87098297Y-71102256D01*
X87211565Y-71271774D01*
X87355728Y-71415937D01*
X87525246Y-71529205D01*
X87713604Y-71607226D01*
X87913563Y-71647000D01*
X88117441Y-71647000D01*
X88317400Y-71607226D01*
X88505758Y-71529205D01*
X88675276Y-71415937D01*
X88719213Y-71372000D01*
X91006767Y-71372000D01*
X90992872Y-71441854D01*
X90992872Y-71645732D01*
X91032646Y-71845691D01*
X91110667Y-72034049D01*
X91223935Y-72203567D01*
X91368098Y-72347730D01*
X91537616Y-72460998D01*
X91725974Y-72539019D01*
X91925933Y-72578793D01*
X92129811Y-72578793D01*
X92329770Y-72539019D01*
X92518128Y-72460998D01*
X92687646Y-72347730D01*
X92731583Y-72303793D01*
X94699428Y-72303793D01*
X94699428Y-74525000D01*
X94711688Y-74649482D01*
X94747998Y-74769180D01*
X94806963Y-74879494D01*
X94886315Y-74976185D01*
X94983006Y-75055537D01*
X95093320Y-75114502D01*
X95213018Y-75150812D01*
X95337500Y-75163072D01*
X96003026Y-75163072D01*
X96033563Y-75208774D01*
X96177726Y-75352937D01*
X96347244Y-75466205D01*
X96535602Y-75544226D01*
X96735561Y-75584000D01*
X96939439Y-75584000D01*
X97139398Y-75544226D01*
X97327756Y-75466205D01*
X97497274Y-75352937D01*
X97541211Y-75309000D01*
X98270527Y-75309000D01*
X98315744Y-75339213D01*
X98504102Y-75417234D01*
X98704061Y-75457008D01*
X98766198Y-75457008D01*
X98896191Y-75587001D01*
X98919990Y-75616000D01*
X98948988Y-75639798D01*
X99035714Y-75710973D01*
X99105836Y-75748454D01*
X99167744Y-75781545D01*
X99311005Y-75825002D01*
X99422658Y-75835999D01*
X99422668Y-75835999D01*
X99459991Y-75839675D01*
X99497314Y-75835999D01*
X104972679Y-75835999D01*
X105010001Y-75839675D01*
X105047323Y-75835999D01*
X105047334Y-75835999D01*
X105158987Y-75825002D01*
X105302248Y-75781545D01*
X105434277Y-75710973D01*
X105550002Y-75616000D01*
X105573805Y-75586996D01*
X105703801Y-75457000D01*
X105765939Y-75457000D01*
X105965898Y-75417226D01*
X106154256Y-75339205D01*
X106323774Y-75225937D01*
X106467937Y-75081774D01*
X106581205Y-74912256D01*
X106659226Y-74723898D01*
X106699000Y-74523939D01*
X106699000Y-74320061D01*
X106695892Y-74304438D01*
X113943631Y-74304438D01*
X113878243Y-74402299D01*
X113800222Y-74590657D01*
X113760448Y-74790616D01*
X113760448Y-74994494D01*
X113800222Y-75194453D01*
X113877395Y-75380764D01*
X113827295Y-75455744D01*
X113749274Y-75644102D01*
X113709500Y-75844061D01*
X113709500Y-76047939D01*
X113747290Y-76237924D01*
X108476772Y-76237924D01*
X108499512Y-76123603D01*
X108499512Y-75919725D01*
X108459738Y-75719766D01*
X108381717Y-75531408D01*
X108268449Y-75361890D01*
X108124286Y-75217727D01*
X107954768Y-75104459D01*
X107766410Y-75026438D01*
X107566451Y-74986664D01*
X107362573Y-74986664D01*
X107162614Y-75026438D01*
X106974256Y-75104459D01*
X106804738Y-75217727D01*
X106660575Y-75361890D01*
X106547307Y-75531408D01*
X106469286Y-75719766D01*
X106429512Y-75919725D01*
X106429512Y-75948000D01*
X95128211Y-75948000D01*
X95084274Y-75904063D01*
X94914756Y-75790795D01*
X94726398Y-75712774D01*
X94526439Y-75673000D01*
X94322561Y-75673000D01*
X94122602Y-75712774D01*
X93934244Y-75790795D01*
X93764726Y-75904063D01*
X93620563Y-76048226D01*
X93507295Y-76217744D01*
X93429274Y-76406102D01*
X93389500Y-76606061D01*
X93389500Y-76809939D01*
X93429274Y-77009898D01*
X93507295Y-77198256D01*
X93561580Y-77279500D01*
X93507295Y-77360744D01*
X93429274Y-77549102D01*
X93389500Y-77749061D01*
X93389500Y-77952939D01*
X93429274Y-78152898D01*
X93507295Y-78341256D01*
X93519151Y-78359000D01*
X93507295Y-78376744D01*
X93429274Y-78565102D01*
X93389500Y-78765061D01*
X93389500Y-78968939D01*
X93429274Y-79168898D01*
X93507295Y-79357256D01*
X93620563Y-79526774D01*
X93764726Y-79670937D01*
X93934244Y-79784205D01*
X94122602Y-79862226D01*
X94322561Y-79902000D01*
X94526439Y-79902000D01*
X94726398Y-79862226D01*
X94914756Y-79784205D01*
X95084274Y-79670937D01*
X95128211Y-79627000D01*
X98969616Y-79627000D01*
X99006938Y-79630676D01*
X99044260Y-79627000D01*
X99044271Y-79627000D01*
X99155924Y-79616003D01*
X99299185Y-79572546D01*
X99431214Y-79501974D01*
X99513295Y-79434612D01*
X99584893Y-79506210D01*
X99754411Y-79619478D01*
X99942769Y-79697499D01*
X100142728Y-79737273D01*
X100204575Y-79737273D01*
X100292917Y-79809773D01*
X100424946Y-79880345D01*
X100568207Y-79923802D01*
X100679860Y-79934799D01*
X100679868Y-79934799D01*
X100717193Y-79938475D01*
X100754518Y-79934799D01*
X101487963Y-79934799D01*
X101531900Y-79978736D01*
X101701418Y-80092004D01*
X101889776Y-80170025D01*
X102089735Y-80209799D01*
X102293613Y-80209799D01*
X102493572Y-80170025D01*
X102681930Y-80092004D01*
X102851448Y-79978736D01*
X102995611Y-79834573D01*
X103108879Y-79665055D01*
X103186900Y-79476697D01*
X103226674Y-79276738D01*
X103226674Y-79072860D01*
X103186900Y-78872901D01*
X103130720Y-78737272D01*
X106241031Y-78737272D01*
X106412892Y-78909133D01*
X106436695Y-78938137D01*
X106552420Y-79033110D01*
X106626786Y-79072860D01*
X106684449Y-79103682D01*
X106827657Y-79147123D01*
X106882607Y-79202073D01*
X107052125Y-79315341D01*
X107143103Y-79353025D01*
X107074683Y-79518204D01*
X107034909Y-79718163D01*
X107034909Y-79922041D01*
X107074683Y-80122000D01*
X107152704Y-80310358D01*
X107265972Y-80479876D01*
X107410135Y-80624039D01*
X107579653Y-80737307D01*
X107768011Y-80815328D01*
X107967970Y-80855102D01*
X108116178Y-80855102D01*
X108162063Y-80923774D01*
X108306226Y-81067937D01*
X108475744Y-81181205D01*
X108664102Y-81259226D01*
X108864061Y-81299000D01*
X108963909Y-81299000D01*
X109001295Y-81389256D01*
X109114563Y-81558774D01*
X109258726Y-81702937D01*
X109428244Y-81816205D01*
X109616602Y-81894226D01*
X109816561Y-81934000D01*
X110020439Y-81934000D01*
X110220398Y-81894226D01*
X110408756Y-81816205D01*
X110578274Y-81702937D01*
X110622211Y-81659000D01*
X113151797Y-81659000D01*
X113191070Y-81698273D01*
X113360588Y-81811541D01*
X113548946Y-81889562D01*
X113748905Y-81929336D01*
X113952783Y-81929336D01*
X114152742Y-81889562D01*
X114341100Y-81811541D01*
X114510618Y-81698273D01*
X114587587Y-81621304D01*
X115497283Y-82531000D01*
X115468061Y-82531000D01*
X115268102Y-82570774D01*
X115079744Y-82648795D01*
X114910226Y-82762063D01*
X114766063Y-82906226D01*
X114663315Y-83060000D01*
X110013322Y-83060000D01*
X109810500Y-82857178D01*
X109810500Y-82795041D01*
X109770726Y-82595082D01*
X109692705Y-82406724D01*
X109579437Y-82237206D01*
X109435274Y-82093043D01*
X109265756Y-81979775D01*
X109077398Y-81901754D01*
X108877439Y-81861980D01*
X108673561Y-81861980D01*
X108473602Y-81901754D01*
X108285244Y-81979775D01*
X108115726Y-82093043D01*
X107971563Y-82237206D01*
X107858295Y-82406724D01*
X107798119Y-82552000D01*
X95756654Y-82552000D01*
X95711858Y-82443853D01*
X95598590Y-82274335D01*
X95454427Y-82130172D01*
X95284909Y-82016904D01*
X95096551Y-81938883D01*
X94896592Y-81899109D01*
X94692714Y-81899109D01*
X94492755Y-81938883D01*
X94304397Y-82016904D01*
X94134879Y-82130172D01*
X93990716Y-82274335D01*
X93877448Y-82443853D01*
X93799427Y-82632211D01*
X93759653Y-82832170D01*
X93759653Y-83036048D01*
X93799427Y-83236007D01*
X93877448Y-83424365D01*
X93990716Y-83593883D01*
X94134879Y-83738046D01*
X94304397Y-83851314D01*
X94492755Y-83929335D01*
X94692714Y-83969109D01*
X94789679Y-83969109D01*
X94843730Y-83998000D01*
X94880297Y-84017546D01*
X95023558Y-84061003D01*
X95172544Y-84075677D01*
X95209877Y-84072000D01*
X108075789Y-84072000D01*
X108071789Y-84076000D01*
X98779823Y-84076000D01*
X98742500Y-84072324D01*
X98705177Y-84076000D01*
X98705167Y-84076000D01*
X98593514Y-84086997D01*
X98450253Y-84130454D01*
X98318224Y-84201026D01*
X98202499Y-84295999D01*
X98178701Y-84324997D01*
X97813698Y-84690000D01*
X97751561Y-84690000D01*
X97551602Y-84729774D01*
X97363244Y-84807795D01*
X97193726Y-84921063D01*
X97049563Y-85065226D01*
X96936295Y-85234744D01*
X96858274Y-85423102D01*
X96818500Y-85623061D01*
X96818500Y-85826939D01*
X96858274Y-86026898D01*
X96936295Y-86215256D01*
X97049563Y-86384774D01*
X97193726Y-86528937D01*
X97363244Y-86642205D01*
X97551602Y-86720226D01*
X97751561Y-86760000D01*
X97955439Y-86760000D01*
X98155398Y-86720226D01*
X98343756Y-86642205D01*
X98513274Y-86528937D01*
X98657437Y-86384774D01*
X98765911Y-86222431D01*
X98766500Y-86455250D01*
X98925250Y-86614000D01*
X100774500Y-86614000D01*
X100774500Y-86594000D01*
X101028500Y-86594000D01*
X101028500Y-86614000D01*
X102877750Y-86614000D01*
X103036500Y-86455250D01*
X103038674Y-85596000D01*
X108071789Y-85596000D01*
X108115726Y-85639937D01*
X108285244Y-85753205D01*
X108473602Y-85831226D01*
X108673561Y-85871000D01*
X108735698Y-85871000D01*
X109027643Y-86162944D01*
X109051441Y-86191943D01*
X109167166Y-86286916D01*
X109299195Y-86357488D01*
X109442456Y-86400945D01*
X109554109Y-86411942D01*
X109554118Y-86411942D01*
X109591441Y-86415618D01*
X109628764Y-86411942D01*
X110712524Y-86411942D01*
X110701274Y-86439102D01*
X110661500Y-86639061D01*
X110661500Y-86842939D01*
X110701274Y-87042898D01*
X110779295Y-87231256D01*
X110892563Y-87400774D01*
X111036726Y-87544937D01*
X111206244Y-87658205D01*
X111394602Y-87736226D01*
X111594561Y-87776000D01*
X111798439Y-87776000D01*
X111998398Y-87736226D01*
X112186756Y-87658205D01*
X112356274Y-87544937D01*
X112400211Y-87501000D01*
X113786789Y-87501000D01*
X113830726Y-87544937D01*
X114000244Y-87658205D01*
X114188602Y-87736226D01*
X114388561Y-87776000D01*
X114592439Y-87776000D01*
X114792398Y-87736226D01*
X114980756Y-87658205D01*
X115150274Y-87544937D01*
X115294437Y-87400774D01*
X115407705Y-87231256D01*
X115485726Y-87042898D01*
X115525500Y-86842939D01*
X115525500Y-86639061D01*
X115507879Y-86550474D01*
X115578766Y-86521111D01*
X115748284Y-86407843D01*
X115792221Y-86363906D01*
X116586695Y-86363906D01*
X116624726Y-86401937D01*
X116794244Y-86515205D01*
X116982602Y-86593226D01*
X117182561Y-86633000D01*
X117386439Y-86633000D01*
X117586398Y-86593226D01*
X117774756Y-86515205D01*
X117944274Y-86401937D01*
X118088437Y-86257774D01*
X118201705Y-86088256D01*
X118279726Y-85899898D01*
X118319500Y-85699939D01*
X118319500Y-85637801D01*
X118431645Y-85525657D01*
X118444297Y-85556202D01*
X118552007Y-85717403D01*
X118686604Y-85852000D01*
X118552007Y-85986597D01*
X118444297Y-86147798D01*
X118370104Y-86326914D01*
X118332281Y-86517063D01*
X118332281Y-86710937D01*
X118370104Y-86901086D01*
X118444297Y-87080202D01*
X118552007Y-87241403D01*
X118686604Y-87376000D01*
X118552007Y-87510597D01*
X118444297Y-87671798D01*
X118370104Y-87850914D01*
X118332281Y-88041063D01*
X118332281Y-88234937D01*
X118370104Y-88425086D01*
X118444297Y-88604202D01*
X118514654Y-88709500D01*
X118444297Y-88814798D01*
X118370104Y-88993914D01*
X118332281Y-89184063D01*
X118332281Y-89231000D01*
X77901000Y-89231000D01*
X77901000Y-88241000D01*
X98763428Y-88241000D01*
X98775688Y-88365482D01*
X98811998Y-88485180D01*
X98870963Y-88595494D01*
X98950315Y-88692185D01*
X99047006Y-88771537D01*
X99157320Y-88830502D01*
X99277018Y-88866812D01*
X99401500Y-88879072D01*
X100615750Y-88876000D01*
X100774500Y-88717250D01*
X100774500Y-86868000D01*
X101028500Y-86868000D01*
X101028500Y-88717250D01*
X101187250Y-88876000D01*
X102401500Y-88879072D01*
X102525982Y-88866812D01*
X102645680Y-88830502D01*
X102755994Y-88771537D01*
X102852685Y-88692185D01*
X102932037Y-88595494D01*
X102991002Y-88485180D01*
X103027312Y-88365482D01*
X103039572Y-88241000D01*
X103036500Y-87026750D01*
X102877750Y-86868000D01*
X101028500Y-86868000D01*
X100774500Y-86868000D01*
X98925250Y-86868000D01*
X98766500Y-87026750D01*
X98763428Y-88241000D01*
X77901000Y-88241000D01*
X77901000Y-81264113D01*
X101390500Y-81264113D01*
X101390500Y-81467991D01*
X101430274Y-81667950D01*
X101508295Y-81856308D01*
X101621563Y-82025826D01*
X101765726Y-82169989D01*
X101935244Y-82283257D01*
X102123602Y-82361278D01*
X102323561Y-82401052D01*
X102527439Y-82401052D01*
X102727398Y-82361278D01*
X102915756Y-82283257D01*
X103085274Y-82169989D01*
X103129211Y-82126052D01*
X105794626Y-82126052D01*
X105831948Y-82129728D01*
X105869270Y-82126052D01*
X105869281Y-82126052D01*
X105980934Y-82115055D01*
X106124195Y-82071598D01*
X106144022Y-82061000D01*
X106273939Y-82061000D01*
X106473898Y-82021226D01*
X106662256Y-81943205D01*
X106831774Y-81829937D01*
X106975937Y-81685774D01*
X107089205Y-81516256D01*
X107167226Y-81327898D01*
X107207000Y-81127939D01*
X107207000Y-80924061D01*
X107167226Y-80724102D01*
X107089205Y-80535744D01*
X106975937Y-80366226D01*
X106831774Y-80222063D01*
X106662256Y-80108795D01*
X106473898Y-80030774D01*
X106468821Y-80029764D01*
X106485095Y-79947949D01*
X106485095Y-79744071D01*
X106445321Y-79544112D01*
X106367300Y-79355754D01*
X106254032Y-79186236D01*
X106109869Y-79042073D01*
X105940351Y-78928805D01*
X105751993Y-78850784D01*
X105552034Y-78811010D01*
X105348156Y-78811010D01*
X105148197Y-78850784D01*
X104959839Y-78928805D01*
X104790321Y-79042073D01*
X104646158Y-79186236D01*
X104532890Y-79355754D01*
X104454869Y-79544112D01*
X104415095Y-79744071D01*
X104415095Y-79947949D01*
X104454869Y-80147908D01*
X104532890Y-80336266D01*
X104646158Y-80505784D01*
X104746426Y-80606052D01*
X103129211Y-80606052D01*
X103085274Y-80562115D01*
X102915756Y-80448847D01*
X102727398Y-80370826D01*
X102527439Y-80331052D01*
X102323561Y-80331052D01*
X102123602Y-80370826D01*
X101935244Y-80448847D01*
X101765726Y-80562115D01*
X101621563Y-80706278D01*
X101508295Y-80875796D01*
X101430274Y-81064154D01*
X101390500Y-81264113D01*
X77901000Y-81264113D01*
X77901000Y-80861394D01*
X77937023Y-80885464D01*
X78221132Y-81003146D01*
X78522741Y-81063139D01*
X78830259Y-81063139D01*
X79131868Y-81003146D01*
X79415977Y-80885464D01*
X79671668Y-80714616D01*
X79889116Y-80497168D01*
X80059964Y-80241477D01*
X80177646Y-79957368D01*
X80237639Y-79655759D01*
X80237639Y-79348241D01*
X80177646Y-79046632D01*
X80059964Y-78762523D01*
X79889116Y-78506832D01*
X79671668Y-78289384D01*
X79415977Y-78118536D01*
X79131868Y-78000854D01*
X78830259Y-77940861D01*
X78522741Y-77940861D01*
X78221132Y-78000854D01*
X77937023Y-78118536D01*
X77901000Y-78142606D01*
X77901000Y-69773000D01*
X87408204Y-69773000D01*
X87355728Y-69808063D01*
G37*
X87355728Y-69808063D02*
X87211565Y-69952226D01*
X87098297Y-70121744D01*
X87020276Y-70310102D01*
X86980502Y-70510061D01*
X86980502Y-70713939D01*
X87020276Y-70913898D01*
X87098297Y-71102256D01*
X87211565Y-71271774D01*
X87355728Y-71415937D01*
X87525246Y-71529205D01*
X87713604Y-71607226D01*
X87913563Y-71647000D01*
X88117441Y-71647000D01*
X88317400Y-71607226D01*
X88505758Y-71529205D01*
X88675276Y-71415937D01*
X88719213Y-71372000D01*
X91006767Y-71372000D01*
X90992872Y-71441854D01*
X90992872Y-71645732D01*
X91032646Y-71845691D01*
X91110667Y-72034049D01*
X91223935Y-72203567D01*
X91368098Y-72347730D01*
X91537616Y-72460998D01*
X91725974Y-72539019D01*
X91925933Y-72578793D01*
X92129811Y-72578793D01*
X92329770Y-72539019D01*
X92518128Y-72460998D01*
X92687646Y-72347730D01*
X92731583Y-72303793D01*
X94699428Y-72303793D01*
X94699428Y-74525000D01*
X94711688Y-74649482D01*
X94747998Y-74769180D01*
X94806963Y-74879494D01*
X94886315Y-74976185D01*
X94983006Y-75055537D01*
X95093320Y-75114502D01*
X95213018Y-75150812D01*
X95337500Y-75163072D01*
X96003026Y-75163072D01*
X96033563Y-75208774D01*
X96177726Y-75352937D01*
X96347244Y-75466205D01*
X96535602Y-75544226D01*
X96735561Y-75584000D01*
X96939439Y-75584000D01*
X97139398Y-75544226D01*
X97327756Y-75466205D01*
X97497274Y-75352937D01*
X97541211Y-75309000D01*
X98270527Y-75309000D01*
X98315744Y-75339213D01*
X98504102Y-75417234D01*
X98704061Y-75457008D01*
X98766198Y-75457008D01*
X98896191Y-75587001D01*
X98919990Y-75616000D01*
X98948988Y-75639798D01*
X99035714Y-75710973D01*
X99105836Y-75748454D01*
X99167744Y-75781545D01*
X99311005Y-75825002D01*
X99422658Y-75835999D01*
X99422668Y-75835999D01*
X99459991Y-75839675D01*
X99497314Y-75835999D01*
X104972679Y-75835999D01*
X105010001Y-75839675D01*
X105047323Y-75835999D01*
X105047334Y-75835999D01*
X105158987Y-75825002D01*
X105302248Y-75781545D01*
X105434277Y-75710973D01*
X105550002Y-75616000D01*
X105573805Y-75586996D01*
X105703801Y-75457000D01*
X105765939Y-75457000D01*
X105965898Y-75417226D01*
X106154256Y-75339205D01*
X106323774Y-75225937D01*
X106467937Y-75081774D01*
X106581205Y-74912256D01*
X106659226Y-74723898D01*
X106699000Y-74523939D01*
X106699000Y-74320061D01*
X106695892Y-74304438D01*
X113943631Y-74304438D01*
X113878243Y-74402299D01*
X113800222Y-74590657D01*
X113760448Y-74790616D01*
X113760448Y-74994494D01*
X113800222Y-75194453D01*
X113877395Y-75380764D01*
X113827295Y-75455744D01*
X113749274Y-75644102D01*
X113709500Y-75844061D01*
X113709500Y-76047939D01*
X113747290Y-76237924D01*
X108476772Y-76237924D01*
X108499512Y-76123603D01*
X108499512Y-75919725D01*
X108459738Y-75719766D01*
X108381717Y-75531408D01*
X108268449Y-75361890D01*
X108124286Y-75217727D01*
X107954768Y-75104459D01*
X107766410Y-75026438D01*
X107566451Y-74986664D01*
X107362573Y-74986664D01*
X107162614Y-75026438D01*
X106974256Y-75104459D01*
X106804738Y-75217727D01*
X106660575Y-75361890D01*
X106547307Y-75531408D01*
X106469286Y-75719766D01*
X106429512Y-75919725D01*
X106429512Y-75948000D01*
X95128211Y-75948000D01*
X95084274Y-75904063D01*
X94914756Y-75790795D01*
X94726398Y-75712774D01*
X94526439Y-75673000D01*
X94322561Y-75673000D01*
X94122602Y-75712774D01*
X93934244Y-75790795D01*
X93764726Y-75904063D01*
X93620563Y-76048226D01*
X93507295Y-76217744D01*
X93429274Y-76406102D01*
X93389500Y-76606061D01*
X93389500Y-76809939D01*
X93429274Y-77009898D01*
X93507295Y-77198256D01*
X93561580Y-77279500D01*
X93507295Y-77360744D01*
X93429274Y-77549102D01*
X93389500Y-77749061D01*
X93389500Y-77952939D01*
X93429274Y-78152898D01*
X93507295Y-78341256D01*
X93519151Y-78359000D01*
X93507295Y-78376744D01*
X93429274Y-78565102D01*
X93389500Y-78765061D01*
X93389500Y-78968939D01*
X93429274Y-79168898D01*
X93507295Y-79357256D01*
X93620563Y-79526774D01*
X93764726Y-79670937D01*
X93934244Y-79784205D01*
X94122602Y-79862226D01*
X94322561Y-79902000D01*
X94526439Y-79902000D01*
X94726398Y-79862226D01*
X94914756Y-79784205D01*
X95084274Y-79670937D01*
X95128211Y-79627000D01*
X98969616Y-79627000D01*
X99006938Y-79630676D01*
X99044260Y-79627000D01*
X99044271Y-79627000D01*
X99155924Y-79616003D01*
X99299185Y-79572546D01*
X99431214Y-79501974D01*
X99513295Y-79434612D01*
X99584893Y-79506210D01*
X99754411Y-79619478D01*
X99942769Y-79697499D01*
X100142728Y-79737273D01*
X100204575Y-79737273D01*
X100292917Y-79809773D01*
X100424946Y-79880345D01*
X100568207Y-79923802D01*
X100679860Y-79934799D01*
X100679868Y-79934799D01*
X100717193Y-79938475D01*
X100754518Y-79934799D01*
X101487963Y-79934799D01*
X101531900Y-79978736D01*
X101701418Y-80092004D01*
X101889776Y-80170025D01*
X102089735Y-80209799D01*
X102293613Y-80209799D01*
X102493572Y-80170025D01*
X102681930Y-80092004D01*
X102851448Y-79978736D01*
X102995611Y-79834573D01*
X103108879Y-79665055D01*
X103186900Y-79476697D01*
X103226674Y-79276738D01*
X103226674Y-79072860D01*
X103186900Y-78872901D01*
X103130720Y-78737272D01*
X106241031Y-78737272D01*
X106412892Y-78909133D01*
X106436695Y-78938137D01*
X106552420Y-79033110D01*
X106626786Y-79072860D01*
X106684449Y-79103682D01*
X106827657Y-79147123D01*
X106882607Y-79202073D01*
X107052125Y-79315341D01*
X107143103Y-79353025D01*
X107074683Y-79518204D01*
X107034909Y-79718163D01*
X107034909Y-79922041D01*
X107074683Y-80122000D01*
X107152704Y-80310358D01*
X107265972Y-80479876D01*
X107410135Y-80624039D01*
X107579653Y-80737307D01*
X107768011Y-80815328D01*
X107967970Y-80855102D01*
X108116178Y-80855102D01*
X108162063Y-80923774D01*
X108306226Y-81067937D01*
X108475744Y-81181205D01*
X108664102Y-81259226D01*
X108864061Y-81299000D01*
X108963909Y-81299000D01*
X109001295Y-81389256D01*
X109114563Y-81558774D01*
X109258726Y-81702937D01*
X109428244Y-81816205D01*
X109616602Y-81894226D01*
X109816561Y-81934000D01*
X110020439Y-81934000D01*
X110220398Y-81894226D01*
X110408756Y-81816205D01*
X110578274Y-81702937D01*
X110622211Y-81659000D01*
X113151797Y-81659000D01*
X113191070Y-81698273D01*
X113360588Y-81811541D01*
X113548946Y-81889562D01*
X113748905Y-81929336D01*
X113952783Y-81929336D01*
X114152742Y-81889562D01*
X114341100Y-81811541D01*
X114510618Y-81698273D01*
X114587587Y-81621304D01*
X115497283Y-82531000D01*
X115468061Y-82531000D01*
X115268102Y-82570774D01*
X115079744Y-82648795D01*
X114910226Y-82762063D01*
X114766063Y-82906226D01*
X114663315Y-83060000D01*
X110013322Y-83060000D01*
X109810500Y-82857178D01*
X109810500Y-82795041D01*
X109770726Y-82595082D01*
X109692705Y-82406724D01*
X109579437Y-82237206D01*
X109435274Y-82093043D01*
X109265756Y-81979775D01*
X109077398Y-81901754D01*
X108877439Y-81861980D01*
X108673561Y-81861980D01*
X108473602Y-81901754D01*
X108285244Y-81979775D01*
X108115726Y-82093043D01*
X107971563Y-82237206D01*
X107858295Y-82406724D01*
X107798119Y-82552000D01*
X95756654Y-82552000D01*
X95711858Y-82443853D01*
X95598590Y-82274335D01*
X95454427Y-82130172D01*
X95284909Y-82016904D01*
X95096551Y-81938883D01*
X94896592Y-81899109D01*
X94692714Y-81899109D01*
X94492755Y-81938883D01*
X94304397Y-82016904D01*
X94134879Y-82130172D01*
X93990716Y-82274335D01*
X93877448Y-82443853D01*
X93799427Y-82632211D01*
X93759653Y-82832170D01*
X93759653Y-83036048D01*
X93799427Y-83236007D01*
X93877448Y-83424365D01*
X93990716Y-83593883D01*
X94134879Y-83738046D01*
X94304397Y-83851314D01*
X94492755Y-83929335D01*
X94692714Y-83969109D01*
X94789679Y-83969109D01*
X94843730Y-83998000D01*
X94880297Y-84017546D01*
X95023558Y-84061003D01*
X95172544Y-84075677D01*
X95209877Y-84072000D01*
X108075789Y-84072000D01*
X108071789Y-84076000D01*
X98779823Y-84076000D01*
X98742500Y-84072324D01*
X98705177Y-84076000D01*
X98705167Y-84076000D01*
X98593514Y-84086997D01*
X98450253Y-84130454D01*
X98318224Y-84201026D01*
X98202499Y-84295999D01*
X98178701Y-84324997D01*
X97813698Y-84690000D01*
X97751561Y-84690000D01*
X97551602Y-84729774D01*
X97363244Y-84807795D01*
X97193726Y-84921063D01*
X97049563Y-85065226D01*
X96936295Y-85234744D01*
X96858274Y-85423102D01*
X96818500Y-85623061D01*
X96818500Y-85826939D01*
X96858274Y-86026898D01*
X96936295Y-86215256D01*
X97049563Y-86384774D01*
X97193726Y-86528937D01*
X97363244Y-86642205D01*
X97551602Y-86720226D01*
X97751561Y-86760000D01*
X97955439Y-86760000D01*
X98155398Y-86720226D01*
X98343756Y-86642205D01*
X98513274Y-86528937D01*
X98657437Y-86384774D01*
X98765911Y-86222431D01*
X98766500Y-86455250D01*
X98925250Y-86614000D01*
X100774500Y-86614000D01*
X100774500Y-86594000D01*
X101028500Y-86594000D01*
X101028500Y-86614000D01*
X102877750Y-86614000D01*
X103036500Y-86455250D01*
X103038674Y-85596000D01*
X108071789Y-85596000D01*
X108115726Y-85639937D01*
X108285244Y-85753205D01*
X108473602Y-85831226D01*
X108673561Y-85871000D01*
X108735698Y-85871000D01*
X109027643Y-86162944D01*
X109051441Y-86191943D01*
X109167166Y-86286916D01*
X109299195Y-86357488D01*
X109442456Y-86400945D01*
X109554109Y-86411942D01*
X109554118Y-86411942D01*
X109591441Y-86415618D01*
X109628764Y-86411942D01*
X110712524Y-86411942D01*
X110701274Y-86439102D01*
X110661500Y-86639061D01*
X110661500Y-86842939D01*
X110701274Y-87042898D01*
X110779295Y-87231256D01*
X110892563Y-87400774D01*
X111036726Y-87544937D01*
X111206244Y-87658205D01*
X111394602Y-87736226D01*
X111594561Y-87776000D01*
X111798439Y-87776000D01*
X111998398Y-87736226D01*
X112186756Y-87658205D01*
X112356274Y-87544937D01*
X112400211Y-87501000D01*
X113786789Y-87501000D01*
X113830726Y-87544937D01*
X114000244Y-87658205D01*
X114188602Y-87736226D01*
X114388561Y-87776000D01*
X114592439Y-87776000D01*
X114792398Y-87736226D01*
X114980756Y-87658205D01*
X115150274Y-87544937D01*
X115294437Y-87400774D01*
X115407705Y-87231256D01*
X115485726Y-87042898D01*
X115525500Y-86842939D01*
X115525500Y-86639061D01*
X115507879Y-86550474D01*
X115578766Y-86521111D01*
X115748284Y-86407843D01*
X115792221Y-86363906D01*
X116586695Y-86363906D01*
X116624726Y-86401937D01*
X116794244Y-86515205D01*
X116982602Y-86593226D01*
X117182561Y-86633000D01*
X117386439Y-86633000D01*
X117586398Y-86593226D01*
X117774756Y-86515205D01*
X117944274Y-86401937D01*
X118088437Y-86257774D01*
X118201705Y-86088256D01*
X118279726Y-85899898D01*
X118319500Y-85699939D01*
X118319500Y-85637801D01*
X118431645Y-85525657D01*
X118444297Y-85556202D01*
X118552007Y-85717403D01*
X118686604Y-85852000D01*
X118552007Y-85986597D01*
X118444297Y-86147798D01*
X118370104Y-86326914D01*
X118332281Y-86517063D01*
X118332281Y-86710937D01*
X118370104Y-86901086D01*
X118444297Y-87080202D01*
X118552007Y-87241403D01*
X118686604Y-87376000D01*
X118552007Y-87510597D01*
X118444297Y-87671798D01*
X118370104Y-87850914D01*
X118332281Y-88041063D01*
X118332281Y-88234937D01*
X118370104Y-88425086D01*
X118444297Y-88604202D01*
X118514654Y-88709500D01*
X118444297Y-88814798D01*
X118370104Y-88993914D01*
X118332281Y-89184063D01*
X118332281Y-89231000D01*
X77901000Y-89231000D01*
X77901000Y-88241000D01*
X98763428Y-88241000D01*
X98775688Y-88365482D01*
X98811998Y-88485180D01*
X98870963Y-88595494D01*
X98950315Y-88692185D01*
X99047006Y-88771537D01*
X99157320Y-88830502D01*
X99277018Y-88866812D01*
X99401500Y-88879072D01*
X100615750Y-88876000D01*
X100774500Y-88717250D01*
X100774500Y-86868000D01*
X101028500Y-86868000D01*
X101028500Y-88717250D01*
X101187250Y-88876000D01*
X102401500Y-88879072D01*
X102525982Y-88866812D01*
X102645680Y-88830502D01*
X102755994Y-88771537D01*
X102852685Y-88692185D01*
X102932037Y-88595494D01*
X102991002Y-88485180D01*
X103027312Y-88365482D01*
X103039572Y-88241000D01*
X103036500Y-87026750D01*
X102877750Y-86868000D01*
X101028500Y-86868000D01*
X100774500Y-86868000D01*
X98925250Y-86868000D01*
X98766500Y-87026750D01*
X98763428Y-88241000D01*
X77901000Y-88241000D01*
X77901000Y-81264113D01*
X101390500Y-81264113D01*
X101390500Y-81467991D01*
X101430274Y-81667950D01*
X101508295Y-81856308D01*
X101621563Y-82025826D01*
X101765726Y-82169989D01*
X101935244Y-82283257D01*
X102123602Y-82361278D01*
X102323561Y-82401052D01*
X102527439Y-82401052D01*
X102727398Y-82361278D01*
X102915756Y-82283257D01*
X103085274Y-82169989D01*
X103129211Y-82126052D01*
X105794626Y-82126052D01*
X105831948Y-82129728D01*
X105869270Y-82126052D01*
X105869281Y-82126052D01*
X105980934Y-82115055D01*
X106124195Y-82071598D01*
X106144022Y-82061000D01*
X106273939Y-82061000D01*
X106473898Y-82021226D01*
X106662256Y-81943205D01*
X106831774Y-81829937D01*
X106975937Y-81685774D01*
X107089205Y-81516256D01*
X107167226Y-81327898D01*
X107207000Y-81127939D01*
X107207000Y-80924061D01*
X107167226Y-80724102D01*
X107089205Y-80535744D01*
X106975937Y-80366226D01*
X106831774Y-80222063D01*
X106662256Y-80108795D01*
X106473898Y-80030774D01*
X106468821Y-80029764D01*
X106485095Y-79947949D01*
X106485095Y-79744071D01*
X106445321Y-79544112D01*
X106367300Y-79355754D01*
X106254032Y-79186236D01*
X106109869Y-79042073D01*
X105940351Y-78928805D01*
X105751993Y-78850784D01*
X105552034Y-78811010D01*
X105348156Y-78811010D01*
X105148197Y-78850784D01*
X104959839Y-78928805D01*
X104790321Y-79042073D01*
X104646158Y-79186236D01*
X104532890Y-79355754D01*
X104454869Y-79544112D01*
X104415095Y-79744071D01*
X104415095Y-79947949D01*
X104454869Y-80147908D01*
X104532890Y-80336266D01*
X104646158Y-80505784D01*
X104746426Y-80606052D01*
X103129211Y-80606052D01*
X103085274Y-80562115D01*
X102915756Y-80448847D01*
X102727398Y-80370826D01*
X102527439Y-80331052D01*
X102323561Y-80331052D01*
X102123602Y-80370826D01*
X101935244Y-80448847D01*
X101765726Y-80562115D01*
X101621563Y-80706278D01*
X101508295Y-80875796D01*
X101430274Y-81064154D01*
X101390500Y-81264113D01*
X77901000Y-81264113D01*
X77901000Y-80861394D01*
X77937023Y-80885464D01*
X78221132Y-81003146D01*
X78522741Y-81063139D01*
X78830259Y-81063139D01*
X79131868Y-81003146D01*
X79415977Y-80885464D01*
X79671668Y-80714616D01*
X79889116Y-80497168D01*
X80059964Y-80241477D01*
X80177646Y-79957368D01*
X80237639Y-79655759D01*
X80237639Y-79348241D01*
X80177646Y-79046632D01*
X80059964Y-78762523D01*
X79889116Y-78506832D01*
X79671668Y-78289384D01*
X79415977Y-78118536D01*
X79131868Y-78000854D01*
X78830259Y-77940861D01*
X78522741Y-77940861D01*
X78221132Y-78000854D01*
X77937023Y-78118536D01*
X77901000Y-78142606D01*
X77901000Y-69773000D01*
X87408204Y-69773000D01*
X87355728Y-69808063D01*
G36*
X130213726Y-69891937D02*
G01*
X130383244Y-70005205D01*
X130571602Y-70083226D01*
X130771561Y-70123000D01*
X130975439Y-70123000D01*
X131175398Y-70083226D01*
X131270184Y-70043964D01*
X131211998Y-70152820D01*
X131175688Y-70272518D01*
X131163428Y-70397000D01*
X131163428Y-72097000D01*
X131175688Y-72221482D01*
X131211998Y-72341180D01*
X131219253Y-72354753D01*
X131205680Y-72347498D01*
X131085982Y-72311188D01*
X130961500Y-72298928D01*
X130397250Y-72302000D01*
X130238500Y-72460750D01*
X130238500Y-73660000D01*
X130258500Y-73660000D01*
X130258500Y-73914000D01*
X130238500Y-73914000D01*
X130238500Y-76200000D01*
X130258500Y-76200000D01*
X130258500Y-76454000D01*
X130238500Y-76454000D01*
X130238500Y-76474000D01*
X129984500Y-76474000D01*
X129984500Y-76454000D01*
X129964500Y-76454000D01*
X129964500Y-76200000D01*
X129984500Y-76200000D01*
X129984500Y-73914000D01*
X129964500Y-73914000D01*
X129964500Y-73660000D01*
X129984500Y-73660000D01*
X129984500Y-72460750D01*
X129825750Y-72302000D01*
X129261500Y-72298928D01*
X129137018Y-72311188D01*
X129017320Y-72347498D01*
X129003747Y-72354753D01*
X129011002Y-72341180D01*
X129047312Y-72221482D01*
X129059572Y-72097000D01*
X129059572Y-70397000D01*
X129047312Y-70272518D01*
X129011002Y-70152820D01*
X128952037Y-70042506D01*
X128872685Y-69945815D01*
X128775994Y-69866463D01*
X128741453Y-69848000D01*
X130169789Y-69848000D01*
X130213726Y-69891937D01*
G37*
X130213726Y-69891937D02*
X130383244Y-70005205D01*
X130571602Y-70083226D01*
X130771561Y-70123000D01*
X130975439Y-70123000D01*
X131175398Y-70083226D01*
X131270184Y-70043964D01*
X131211998Y-70152820D01*
X131175688Y-70272518D01*
X131163428Y-70397000D01*
X131163428Y-72097000D01*
X131175688Y-72221482D01*
X131211998Y-72341180D01*
X131219253Y-72354753D01*
X131205680Y-72347498D01*
X131085982Y-72311188D01*
X130961500Y-72298928D01*
X130397250Y-72302000D01*
X130238500Y-72460750D01*
X130238500Y-73660000D01*
X130258500Y-73660000D01*
X130258500Y-73914000D01*
X130238500Y-73914000D01*
X130238500Y-76200000D01*
X130258500Y-76200000D01*
X130258500Y-76454000D01*
X130238500Y-76454000D01*
X130238500Y-76474000D01*
X129984500Y-76474000D01*
X129984500Y-76454000D01*
X129964500Y-76454000D01*
X129964500Y-76200000D01*
X129984500Y-76200000D01*
X129984500Y-73914000D01*
X129964500Y-73914000D01*
X129964500Y-73660000D01*
X129984500Y-73660000D01*
X129984500Y-72460750D01*
X129825750Y-72302000D01*
X129261500Y-72298928D01*
X129137018Y-72311188D01*
X129017320Y-72347498D01*
X129003747Y-72354753D01*
X129011002Y-72341180D01*
X129047312Y-72221482D01*
X129059572Y-72097000D01*
X129059572Y-70397000D01*
X129047312Y-70272518D01*
X129011002Y-70152820D01*
X128952037Y-70042506D01*
X128872685Y-69945815D01*
X128775994Y-69866463D01*
X128741453Y-69848000D01*
X130169789Y-69848000D01*
X130213726Y-69891937D01*
G36*
X118332281Y-69946937D02*
G01*
X118370104Y-70137086D01*
X118444297Y-70316202D01*
X118552007Y-70477403D01*
X118686604Y-70612000D01*
X118552007Y-70746597D01*
X118444297Y-70907798D01*
X118370104Y-71086914D01*
X118332281Y-71277063D01*
X118332281Y-71470937D01*
X118370104Y-71661086D01*
X118444297Y-71840202D01*
X118552007Y-72001403D01*
X118686604Y-72136000D01*
X118552007Y-72270597D01*
X118444297Y-72431798D01*
X118370104Y-72610914D01*
X118332281Y-72801063D01*
X118332281Y-72994937D01*
X118370104Y-73185086D01*
X118444297Y-73364202D01*
X118552007Y-73525403D01*
X118686604Y-73660000D01*
X118649953Y-73696651D01*
X118314840Y-73361539D01*
X118314840Y-73308721D01*
X118275066Y-73108762D01*
X118197045Y-72920404D01*
X118185962Y-72903817D01*
X118201705Y-72880256D01*
X118279726Y-72691898D01*
X118319500Y-72491939D01*
X118319500Y-72288061D01*
X118279726Y-72088102D01*
X118201705Y-71899744D01*
X118088437Y-71730226D01*
X117944274Y-71586063D01*
X117774756Y-71472795D01*
X117586398Y-71394774D01*
X117386439Y-71355000D01*
X117324302Y-71355000D01*
X116573128Y-70603826D01*
X116565226Y-70564102D01*
X116487205Y-70375744D01*
X116373937Y-70206226D01*
X116229774Y-70062063D01*
X116060256Y-69948795D01*
X115871898Y-69870774D01*
X115671939Y-69831000D01*
X115468061Y-69831000D01*
X115268102Y-69870774D01*
X115079744Y-69948795D01*
X114910226Y-70062063D01*
X114766063Y-70206226D01*
X114720789Y-70273983D01*
X114661909Y-70225661D01*
X114529880Y-70155089D01*
X114386619Y-70111632D01*
X114274966Y-70100635D01*
X114274955Y-70100635D01*
X114237633Y-70096959D01*
X114200311Y-70100635D01*
X113434818Y-70100635D01*
X113390881Y-70056698D01*
X113221363Y-69943430D01*
X113033005Y-69865409D01*
X112833046Y-69825635D01*
X112629168Y-69825635D01*
X112429209Y-69865409D01*
X112240851Y-69943430D01*
X112071333Y-70056698D01*
X112027396Y-70100635D01*
X110677052Y-70100635D01*
X110639729Y-70096959D01*
X110602406Y-70100635D01*
X110602397Y-70100635D01*
X110490744Y-70111632D01*
X110347483Y-70155089D01*
X110215454Y-70225661D01*
X110215452Y-70225662D01*
X110215453Y-70225662D01*
X110128726Y-70296836D01*
X110128722Y-70296840D01*
X110099729Y-70320634D01*
X110075934Y-70349628D01*
X109616930Y-70808634D01*
X109614085Y-70805167D01*
X109590287Y-70776169D01*
X109561289Y-70752371D01*
X108581917Y-69773000D01*
X118332281Y-69773000D01*
X118332281Y-69946937D01*
G37*
X118332281Y-69946937D02*
X118370104Y-70137086D01*
X118444297Y-70316202D01*
X118552007Y-70477403D01*
X118686604Y-70612000D01*
X118552007Y-70746597D01*
X118444297Y-70907798D01*
X118370104Y-71086914D01*
X118332281Y-71277063D01*
X118332281Y-71470937D01*
X118370104Y-71661086D01*
X118444297Y-71840202D01*
X118552007Y-72001403D01*
X118686604Y-72136000D01*
X118552007Y-72270597D01*
X118444297Y-72431798D01*
X118370104Y-72610914D01*
X118332281Y-72801063D01*
X118332281Y-72994937D01*
X118370104Y-73185086D01*
X118444297Y-73364202D01*
X118552007Y-73525403D01*
X118686604Y-73660000D01*
X118649953Y-73696651D01*
X118314840Y-73361539D01*
X118314840Y-73308721D01*
X118275066Y-73108762D01*
X118197045Y-72920404D01*
X118185962Y-72903817D01*
X118201705Y-72880256D01*
X118279726Y-72691898D01*
X118319500Y-72491939D01*
X118319500Y-72288061D01*
X118279726Y-72088102D01*
X118201705Y-71899744D01*
X118088437Y-71730226D01*
X117944274Y-71586063D01*
X117774756Y-71472795D01*
X117586398Y-71394774D01*
X117386439Y-71355000D01*
X117324302Y-71355000D01*
X116573128Y-70603826D01*
X116565226Y-70564102D01*
X116487205Y-70375744D01*
X116373937Y-70206226D01*
X116229774Y-70062063D01*
X116060256Y-69948795D01*
X115871898Y-69870774D01*
X115671939Y-69831000D01*
X115468061Y-69831000D01*
X115268102Y-69870774D01*
X115079744Y-69948795D01*
X114910226Y-70062063D01*
X114766063Y-70206226D01*
X114720789Y-70273983D01*
X114661909Y-70225661D01*
X114529880Y-70155089D01*
X114386619Y-70111632D01*
X114274966Y-70100635D01*
X114274955Y-70100635D01*
X114237633Y-70096959D01*
X114200311Y-70100635D01*
X113434818Y-70100635D01*
X113390881Y-70056698D01*
X113221363Y-69943430D01*
X113033005Y-69865409D01*
X112833046Y-69825635D01*
X112629168Y-69825635D01*
X112429209Y-69865409D01*
X112240851Y-69943430D01*
X112071333Y-70056698D01*
X112027396Y-70100635D01*
X110677052Y-70100635D01*
X110639729Y-70096959D01*
X110602406Y-70100635D01*
X110602397Y-70100635D01*
X110490744Y-70111632D01*
X110347483Y-70155089D01*
X110215454Y-70225661D01*
X110215452Y-70225662D01*
X110215453Y-70225662D01*
X110128726Y-70296836D01*
X110128722Y-70296840D01*
X110099729Y-70320634D01*
X110075934Y-70349628D01*
X109616930Y-70808634D01*
X109614085Y-70805167D01*
X109590287Y-70776169D01*
X109561289Y-70752371D01*
X108581917Y-69773000D01*
X118332281Y-69773000D01*
X118332281Y-69946937D01*
G36*
X124483698Y-67418000D02*
G01*
X124421561Y-67418000D01*
X124221602Y-67457774D01*
X124033244Y-67535795D01*
X123863726Y-67649063D01*
X123719563Y-67793226D01*
X123606295Y-67962744D01*
X123528274Y-68151102D01*
X123488500Y-68351061D01*
X123488500Y-68554939D01*
X123528274Y-68754898D01*
X123606295Y-68943256D01*
X123719563Y-69112774D01*
X123863726Y-69256937D01*
X124033244Y-69370205D01*
X124221602Y-69448226D01*
X124421561Y-69488000D01*
X124625439Y-69488000D01*
X124822660Y-69448771D01*
X124876295Y-69578256D01*
X124989563Y-69747774D01*
X125133726Y-69891937D01*
X125303244Y-70005205D01*
X125491602Y-70083226D01*
X125691561Y-70123000D01*
X125895439Y-70123000D01*
X126095398Y-70083226D01*
X126190184Y-70043964D01*
X126131998Y-70152820D01*
X126095688Y-70272518D01*
X126083428Y-70397000D01*
X126083428Y-71660270D01*
X125097699Y-72646000D01*
X124215132Y-72646000D01*
X124248726Y-72564898D01*
X124288500Y-72364939D01*
X124288500Y-72161061D01*
X124248726Y-71961102D01*
X124170705Y-71772744D01*
X124057437Y-71603226D01*
X123913274Y-71459063D01*
X123743756Y-71345795D01*
X123555398Y-71267774D01*
X123355439Y-71228000D01*
X123151561Y-71228000D01*
X122951602Y-71267774D01*
X122763244Y-71345795D01*
X122593726Y-71459063D01*
X122449563Y-71603226D01*
X122431673Y-71630000D01*
X122052211Y-71630000D01*
X122008274Y-71586063D01*
X121838756Y-71472795D01*
X121650398Y-71394774D01*
X121450439Y-71355000D01*
X121246561Y-71355000D01*
X121046602Y-71394774D01*
X120858244Y-71472795D01*
X120688726Y-71586063D01*
X120544563Y-71730226D01*
X120431295Y-71899744D01*
X120353274Y-72088102D01*
X120313500Y-72288061D01*
X120313500Y-72491939D01*
X120353274Y-72691898D01*
X120431295Y-72880256D01*
X120443151Y-72898000D01*
X120431295Y-72915744D01*
X120353274Y-73104102D01*
X120313500Y-73304061D01*
X120313500Y-73340538D01*
X119970217Y-73683821D01*
X119946396Y-73660000D01*
X120080993Y-73525403D01*
X120188703Y-73364202D01*
X120262896Y-73185086D01*
X120300719Y-72994937D01*
X120300719Y-72801063D01*
X120262896Y-72610914D01*
X120188703Y-72431798D01*
X120080993Y-72270597D01*
X119946396Y-72136000D01*
X120080993Y-72001403D01*
X120188703Y-71840202D01*
X120262896Y-71661086D01*
X120300719Y-71470937D01*
X120300719Y-71277063D01*
X120262896Y-71086914D01*
X120188703Y-70907798D01*
X120080993Y-70746597D01*
X119946396Y-70612000D01*
X120080993Y-70477403D01*
X120188703Y-70316202D01*
X120262896Y-70137086D01*
X120300719Y-69946937D01*
X120300719Y-69773000D01*
X120362353Y-69773000D01*
X120396000Y-69776314D01*
X120530283Y-69763088D01*
X120659406Y-69723919D01*
X120778407Y-69660312D01*
X120882711Y-69574711D01*
X120968312Y-69470407D01*
X121031919Y-69351406D01*
X121071088Y-69222283D01*
X121081000Y-69121647D01*
X121084314Y-69088000D01*
X121081000Y-69054353D01*
X121081000Y-67233000D01*
X124668698Y-67233000D01*
X124483698Y-67418000D01*
G37*
X124483698Y-67418000D02*
X124421561Y-67418000D01*
X124221602Y-67457774D01*
X124033244Y-67535795D01*
X123863726Y-67649063D01*
X123719563Y-67793226D01*
X123606295Y-67962744D01*
X123528274Y-68151102D01*
X123488500Y-68351061D01*
X123488500Y-68554939D01*
X123528274Y-68754898D01*
X123606295Y-68943256D01*
X123719563Y-69112774D01*
X123863726Y-69256937D01*
X124033244Y-69370205D01*
X124221602Y-69448226D01*
X124421561Y-69488000D01*
X124625439Y-69488000D01*
X124822660Y-69448771D01*
X124876295Y-69578256D01*
X124989563Y-69747774D01*
X125133726Y-69891937D01*
X125303244Y-70005205D01*
X125491602Y-70083226D01*
X125691561Y-70123000D01*
X125895439Y-70123000D01*
X126095398Y-70083226D01*
X126190184Y-70043964D01*
X126131998Y-70152820D01*
X126095688Y-70272518D01*
X126083428Y-70397000D01*
X126083428Y-71660270D01*
X125097699Y-72646000D01*
X124215132Y-72646000D01*
X124248726Y-72564898D01*
X124288500Y-72364939D01*
X124288500Y-72161061D01*
X124248726Y-71961102D01*
X124170705Y-71772744D01*
X124057437Y-71603226D01*
X123913274Y-71459063D01*
X123743756Y-71345795D01*
X123555398Y-71267774D01*
X123355439Y-71228000D01*
X123151561Y-71228000D01*
X122951602Y-71267774D01*
X122763244Y-71345795D01*
X122593726Y-71459063D01*
X122449563Y-71603226D01*
X122431673Y-71630000D01*
X122052211Y-71630000D01*
X122008274Y-71586063D01*
X121838756Y-71472795D01*
X121650398Y-71394774D01*
X121450439Y-71355000D01*
X121246561Y-71355000D01*
X121046602Y-71394774D01*
X120858244Y-71472795D01*
X120688726Y-71586063D01*
X120544563Y-71730226D01*
X120431295Y-71899744D01*
X120353274Y-72088102D01*
X120313500Y-72288061D01*
X120313500Y-72491939D01*
X120353274Y-72691898D01*
X120431295Y-72880256D01*
X120443151Y-72898000D01*
X120431295Y-72915744D01*
X120353274Y-73104102D01*
X120313500Y-73304061D01*
X120313500Y-73340538D01*
X119970217Y-73683821D01*
X119946396Y-73660000D01*
X120080993Y-73525403D01*
X120188703Y-73364202D01*
X120262896Y-73185086D01*
X120300719Y-72994937D01*
X120300719Y-72801063D01*
X120262896Y-72610914D01*
X120188703Y-72431798D01*
X120080993Y-72270597D01*
X119946396Y-72136000D01*
X120080993Y-72001403D01*
X120188703Y-71840202D01*
X120262896Y-71661086D01*
X120300719Y-71470937D01*
X120300719Y-71277063D01*
X120262896Y-71086914D01*
X120188703Y-70907798D01*
X120080993Y-70746597D01*
X119946396Y-70612000D01*
X120080993Y-70477403D01*
X120188703Y-70316202D01*
X120262896Y-70137086D01*
X120300719Y-69946937D01*
X120300719Y-69773000D01*
X120362353Y-69773000D01*
X120396000Y-69776314D01*
X120530283Y-69763088D01*
X120659406Y-69723919D01*
X120778407Y-69660312D01*
X120882711Y-69574711D01*
X120968312Y-69470407D01*
X121031919Y-69351406D01*
X121071088Y-69222283D01*
X121081000Y-69121647D01*
X121084314Y-69088000D01*
X121081000Y-69054353D01*
X121081000Y-67233000D01*
X124668698Y-67233000D01*
X124483698Y-67418000D01*
M02*
