G04 #@! TF.GenerationSoftware,KiCad,Pcbnew,(5.1.5)-3*
G04 #@! TF.CreationDate,2020-02-17T19:32:57-05:00*
G04 #@! TF.ProjectId,PicoTrackerWSPR1Rev6,5069636f-5472-4616-936b-657257535052,rev?*
G04 #@! TF.SameCoordinates,Original*
G04 #@! TF.FileFunction,Legend,Top*
G04 #@! TF.FilePolarity,Positive*
%FSLAX46Y46*%
G04 Gerber Fmt 4.6, Leading zero omitted, Abs format (unit mm)*
G04 Created by KiCad (PCBNEW (5.1.5)-3) date 2020-02-17 19:32:57*
%MOMM*%
%LPD*%
G04 APERTURE LIST*
%ADD10C,0.125000*%
%ADD11C,0.150000*%
%ADD12C,0.120000*%
%ADD13C,0.250000*%
%ADD14C,0.127000*%
%ADD15C,0.398780*%
%ADD16C,0.203200*%
%ADD17C,0.100000*%
%ADD18C,0.200000*%
G04 APERTURE END LIST*
D10*
X124685285Y-76849035D02*
X124709095Y-76777607D01*
X124732904Y-76753797D01*
X124780523Y-76729988D01*
X124851952Y-76729988D01*
X124899571Y-76753797D01*
X124923380Y-76777607D01*
X124947190Y-76825226D01*
X124947190Y-77015702D01*
X124447190Y-77015702D01*
X124447190Y-76849035D01*
X124471000Y-76801416D01*
X124494809Y-76777607D01*
X124542428Y-76753797D01*
X124590047Y-76753797D01*
X124637666Y-76777607D01*
X124661476Y-76801416D01*
X124685285Y-76849035D01*
X124685285Y-77015702D01*
X124804333Y-76539511D02*
X124804333Y-76301416D01*
X124947190Y-76587130D02*
X124447190Y-76420464D01*
X124947190Y-76253797D01*
X124447190Y-76158559D02*
X124447190Y-75872845D01*
X124947190Y-76015702D02*
X124447190Y-76015702D01*
X124447190Y-75777607D02*
X124447190Y-75491892D01*
X124947190Y-75634750D02*
X124447190Y-75634750D01*
X125346000Y-76753797D02*
X125322190Y-76801416D01*
X125322190Y-76872845D01*
X125346000Y-76944273D01*
X125393619Y-76991892D01*
X125441238Y-77015702D01*
X125536476Y-77039511D01*
X125607904Y-77039511D01*
X125703142Y-77015702D01*
X125750761Y-76991892D01*
X125798380Y-76944273D01*
X125822190Y-76872845D01*
X125822190Y-76825226D01*
X125798380Y-76753797D01*
X125774571Y-76729988D01*
X125607904Y-76729988D01*
X125607904Y-76825226D01*
X125822190Y-76515702D02*
X125322190Y-76515702D01*
X125822190Y-76229988D01*
X125322190Y-76229988D01*
X125822190Y-75991892D02*
X125322190Y-75991892D01*
X125322190Y-75872845D01*
X125346000Y-75801416D01*
X125393619Y-75753797D01*
X125441238Y-75729988D01*
X125536476Y-75706178D01*
X125607904Y-75706178D01*
X125703142Y-75729988D01*
X125750761Y-75753797D01*
X125798380Y-75801416D01*
X125822190Y-75872845D01*
X125822190Y-75991892D01*
X124685285Y-74309035D02*
X124709095Y-74237607D01*
X124732904Y-74213797D01*
X124780523Y-74189988D01*
X124851952Y-74189988D01*
X124899571Y-74213797D01*
X124923380Y-74237607D01*
X124947190Y-74285226D01*
X124947190Y-74475702D01*
X124447190Y-74475702D01*
X124447190Y-74309035D01*
X124471000Y-74261416D01*
X124494809Y-74237607D01*
X124542428Y-74213797D01*
X124590047Y-74213797D01*
X124637666Y-74237607D01*
X124661476Y-74261416D01*
X124685285Y-74309035D01*
X124685285Y-74475702D01*
X124804333Y-73999511D02*
X124804333Y-73761416D01*
X124947190Y-74047130D02*
X124447190Y-73880464D01*
X124947190Y-73713797D01*
X124447190Y-73618559D02*
X124447190Y-73332845D01*
X124947190Y-73475702D02*
X124447190Y-73475702D01*
X124447190Y-73237607D02*
X124447190Y-72951892D01*
X124947190Y-73094750D02*
X124447190Y-73094750D01*
X125346000Y-74213797D02*
X125322190Y-74261416D01*
X125322190Y-74332845D01*
X125346000Y-74404273D01*
X125393619Y-74451892D01*
X125441238Y-74475702D01*
X125536476Y-74499511D01*
X125607904Y-74499511D01*
X125703142Y-74475702D01*
X125750761Y-74451892D01*
X125798380Y-74404273D01*
X125822190Y-74332845D01*
X125822190Y-74285226D01*
X125798380Y-74213797D01*
X125774571Y-74189988D01*
X125607904Y-74189988D01*
X125607904Y-74285226D01*
X125822190Y-73975702D02*
X125322190Y-73975702D01*
X125822190Y-73689988D01*
X125322190Y-73689988D01*
X125822190Y-73451892D02*
X125322190Y-73451892D01*
X125322190Y-73332845D01*
X125346000Y-73261416D01*
X125393619Y-73213797D01*
X125441238Y-73189988D01*
X125536476Y-73166178D01*
X125607904Y-73166178D01*
X125703142Y-73189988D01*
X125750761Y-73213797D01*
X125798380Y-73261416D01*
X125822190Y-73332845D01*
X125822190Y-73451892D01*
X124427490Y-71956330D02*
X124927490Y-71789664D01*
X124427490Y-71622997D01*
X124879871Y-71170616D02*
X124903680Y-71194426D01*
X124927490Y-71265854D01*
X124927490Y-71313473D01*
X124903680Y-71384902D01*
X124856061Y-71432521D01*
X124808442Y-71456330D01*
X124713204Y-71480140D01*
X124641776Y-71480140D01*
X124546538Y-71456330D01*
X124498919Y-71432521D01*
X124451300Y-71384902D01*
X124427490Y-71313473D01*
X124427490Y-71265854D01*
X124451300Y-71194426D01*
X124475109Y-71170616D01*
X124879871Y-70670616D02*
X124903680Y-70694426D01*
X124927490Y-70765854D01*
X124927490Y-70813473D01*
X124903680Y-70884902D01*
X124856061Y-70932521D01*
X124808442Y-70956330D01*
X124713204Y-70980140D01*
X124641776Y-70980140D01*
X124546538Y-70956330D01*
X124498919Y-70932521D01*
X124451300Y-70884902D01*
X124427490Y-70813473D01*
X124427490Y-70765854D01*
X124451300Y-70694426D01*
X124475109Y-70670616D01*
X135107190Y-87302702D02*
X134607190Y-87302702D01*
X134607190Y-87112226D01*
X134631000Y-87064607D01*
X134654809Y-87040797D01*
X134702428Y-87016988D01*
X134773857Y-87016988D01*
X134821476Y-87040797D01*
X134845285Y-87064607D01*
X134869095Y-87112226D01*
X134869095Y-87302702D01*
X135107190Y-86516988D02*
X134869095Y-86683654D01*
X135107190Y-86802702D02*
X134607190Y-86802702D01*
X134607190Y-86612226D01*
X134631000Y-86564607D01*
X134654809Y-86540797D01*
X134702428Y-86516988D01*
X134773857Y-86516988D01*
X134821476Y-86540797D01*
X134845285Y-86564607D01*
X134869095Y-86612226D01*
X134869095Y-86802702D01*
X134607190Y-86207464D02*
X134607190Y-86112226D01*
X134631000Y-86064607D01*
X134678619Y-86016988D01*
X134773857Y-85993178D01*
X134940523Y-85993178D01*
X135035761Y-86016988D01*
X135083380Y-86064607D01*
X135107190Y-86112226D01*
X135107190Y-86207464D01*
X135083380Y-86255083D01*
X135035761Y-86302702D01*
X134940523Y-86326511D01*
X134773857Y-86326511D01*
X134678619Y-86302702D01*
X134631000Y-86255083D01*
X134607190Y-86207464D01*
X134631000Y-85516988D02*
X134607190Y-85564607D01*
X134607190Y-85636035D01*
X134631000Y-85707464D01*
X134678619Y-85755083D01*
X134726238Y-85778892D01*
X134821476Y-85802702D01*
X134892904Y-85802702D01*
X134988142Y-85778892D01*
X135035761Y-85755083D01*
X135083380Y-85707464D01*
X135107190Y-85636035D01*
X135107190Y-85588416D01*
X135083380Y-85516988D01*
X135059571Y-85493178D01*
X134892904Y-85493178D01*
X134892904Y-85588416D01*
X135982190Y-87302702D02*
X135482190Y-87302702D01*
X135720285Y-87302702D02*
X135720285Y-87016988D01*
X135982190Y-87016988D02*
X135482190Y-87016988D01*
X135982190Y-86778892D02*
X135482190Y-86778892D01*
X135482190Y-86659845D01*
X135506000Y-86588416D01*
X135553619Y-86540797D01*
X135601238Y-86516988D01*
X135696476Y-86493178D01*
X135767904Y-86493178D01*
X135863142Y-86516988D01*
X135910761Y-86540797D01*
X135958380Y-86588416D01*
X135982190Y-86659845D01*
X135982190Y-86778892D01*
X135982190Y-85993178D02*
X135744095Y-86159845D01*
X135982190Y-86278892D02*
X135482190Y-86278892D01*
X135482190Y-86088416D01*
X135506000Y-86040797D01*
X135529809Y-86016988D01*
X135577428Y-85993178D01*
X135648857Y-85993178D01*
X135696476Y-86016988D01*
X135720285Y-86040797D01*
X135744095Y-86088416D01*
X135744095Y-86278892D01*
D11*
X131508500Y-83058000D02*
X131508500Y-84963000D01*
X128968500Y-83058000D02*
X131508500Y-83058000D01*
X128968500Y-84328000D02*
X128968500Y-83058000D01*
D10*
X137504333Y-68911511D02*
X137504333Y-68673416D01*
X137647190Y-68959130D02*
X137147190Y-68792464D01*
X137647190Y-68625797D01*
X138260285Y-68721035D02*
X138284095Y-68649607D01*
X138307904Y-68625797D01*
X138355523Y-68601988D01*
X138426952Y-68601988D01*
X138474571Y-68625797D01*
X138498380Y-68649607D01*
X138522190Y-68697226D01*
X138522190Y-68887702D01*
X138022190Y-68887702D01*
X138022190Y-68721035D01*
X138046000Y-68673416D01*
X138069809Y-68649607D01*
X138117428Y-68625797D01*
X138165047Y-68625797D01*
X138212666Y-68649607D01*
X138236476Y-68673416D01*
X138260285Y-68721035D01*
X138260285Y-68887702D01*
X137504333Y-71832511D02*
X137504333Y-71594416D01*
X137647190Y-71880130D02*
X137147190Y-71713464D01*
X137647190Y-71546797D01*
X137647190Y-71094416D02*
X137409095Y-71261083D01*
X137647190Y-71380130D02*
X137147190Y-71380130D01*
X137147190Y-71189654D01*
X137171000Y-71142035D01*
X137194809Y-71118226D01*
X137242428Y-71094416D01*
X137313857Y-71094416D01*
X137361476Y-71118226D01*
X137385285Y-71142035D01*
X137409095Y-71189654D01*
X137409095Y-71380130D01*
X137147190Y-70927750D02*
X137647190Y-70594416D01*
X137147190Y-70594416D02*
X137647190Y-70927750D01*
X138379333Y-71832511D02*
X138379333Y-71594416D01*
X138522190Y-71880130D02*
X138022190Y-71713464D01*
X138522190Y-71546797D01*
X138022190Y-71451559D02*
X138022190Y-71165845D01*
X138522190Y-71308702D02*
X138022190Y-71308702D01*
X138022190Y-71046797D02*
X138522190Y-70713464D01*
X138022190Y-70713464D02*
X138522190Y-71046797D01*
X137623380Y-74372511D02*
X137647190Y-74301083D01*
X137647190Y-74182035D01*
X137623380Y-74134416D01*
X137599571Y-74110607D01*
X137551952Y-74086797D01*
X137504333Y-74086797D01*
X137456714Y-74110607D01*
X137432904Y-74134416D01*
X137409095Y-74182035D01*
X137385285Y-74277273D01*
X137361476Y-74324892D01*
X137337666Y-74348702D01*
X137290047Y-74372511D01*
X137242428Y-74372511D01*
X137194809Y-74348702D01*
X137171000Y-74324892D01*
X137147190Y-74277273D01*
X137147190Y-74158226D01*
X137171000Y-74086797D01*
X137647190Y-73872511D02*
X137147190Y-73872511D01*
X137147190Y-73753464D01*
X137171000Y-73682035D01*
X137218619Y-73634416D01*
X137266238Y-73610607D01*
X137361476Y-73586797D01*
X137432904Y-73586797D01*
X137528142Y-73610607D01*
X137575761Y-73634416D01*
X137623380Y-73682035D01*
X137647190Y-73753464D01*
X137647190Y-73872511D01*
X137504333Y-73396321D02*
X137504333Y-73158226D01*
X137647190Y-73443940D02*
X137147190Y-73277273D01*
X137647190Y-73110607D01*
X138498380Y-74372511D02*
X138522190Y-74301083D01*
X138522190Y-74182035D01*
X138498380Y-74134416D01*
X138474571Y-74110607D01*
X138426952Y-74086797D01*
X138379333Y-74086797D01*
X138331714Y-74110607D01*
X138307904Y-74134416D01*
X138284095Y-74182035D01*
X138260285Y-74277273D01*
X138236476Y-74324892D01*
X138212666Y-74348702D01*
X138165047Y-74372511D01*
X138117428Y-74372511D01*
X138069809Y-74348702D01*
X138046000Y-74324892D01*
X138022190Y-74277273D01*
X138022190Y-74158226D01*
X138046000Y-74086797D01*
X138474571Y-73586797D02*
X138498380Y-73610607D01*
X138522190Y-73682035D01*
X138522190Y-73729654D01*
X138498380Y-73801083D01*
X138450761Y-73848702D01*
X138403142Y-73872511D01*
X138307904Y-73896321D01*
X138236476Y-73896321D01*
X138141238Y-73872511D01*
X138093619Y-73848702D01*
X138046000Y-73801083D01*
X138022190Y-73729654D01*
X138022190Y-73682035D01*
X138046000Y-73610607D01*
X138069809Y-73586797D01*
X138522190Y-73134416D02*
X138522190Y-73372511D01*
X138022190Y-73372511D01*
X137171000Y-76753797D02*
X137147190Y-76801416D01*
X137147190Y-76872845D01*
X137171000Y-76944273D01*
X137218619Y-76991892D01*
X137266238Y-77015702D01*
X137361476Y-77039511D01*
X137432904Y-77039511D01*
X137528142Y-77015702D01*
X137575761Y-76991892D01*
X137623380Y-76944273D01*
X137647190Y-76872845D01*
X137647190Y-76825226D01*
X137623380Y-76753797D01*
X137599571Y-76729988D01*
X137432904Y-76729988D01*
X137432904Y-76825226D01*
X137647190Y-76229988D02*
X137409095Y-76396654D01*
X137647190Y-76515702D02*
X137147190Y-76515702D01*
X137147190Y-76325226D01*
X137171000Y-76277607D01*
X137194809Y-76253797D01*
X137242428Y-76229988D01*
X137313857Y-76229988D01*
X137361476Y-76253797D01*
X137385285Y-76277607D01*
X137409095Y-76325226D01*
X137409095Y-76515702D01*
X137147190Y-76063321D02*
X137647190Y-75729988D01*
X137147190Y-75729988D02*
X137647190Y-76063321D01*
X138046000Y-76753797D02*
X138022190Y-76801416D01*
X138022190Y-76872845D01*
X138046000Y-76944273D01*
X138093619Y-76991892D01*
X138141238Y-77015702D01*
X138236476Y-77039511D01*
X138307904Y-77039511D01*
X138403142Y-77015702D01*
X138450761Y-76991892D01*
X138498380Y-76944273D01*
X138522190Y-76872845D01*
X138522190Y-76825226D01*
X138498380Y-76753797D01*
X138474571Y-76729988D01*
X138307904Y-76729988D01*
X138307904Y-76825226D01*
X138022190Y-76587130D02*
X138022190Y-76301416D01*
X138522190Y-76444273D02*
X138022190Y-76444273D01*
X138022190Y-76182369D02*
X138522190Y-75849035D01*
X138022190Y-75849035D02*
X138522190Y-76182369D01*
D12*
X126241500Y-86547000D02*
X126241500Y-85217000D01*
X127571500Y-86547000D02*
X126241500Y-86547000D01*
X128841500Y-86547000D02*
X128841500Y-83887000D01*
X128841500Y-83887000D02*
X128901500Y-83887000D01*
X128841500Y-86547000D02*
X128901500Y-86547000D01*
X128901500Y-86547000D02*
X128901500Y-83887000D01*
X128901500Y-89087000D02*
X128901500Y-86427000D01*
X128841500Y-89087000D02*
X128901500Y-89087000D01*
X128841500Y-86427000D02*
X128901500Y-86427000D01*
X128841500Y-89087000D02*
X128841500Y-86427000D01*
X127571500Y-89087000D02*
X126241500Y-89087000D01*
X126241500Y-89087000D02*
X126241500Y-87757000D01*
X128841500Y-75117000D02*
X128901500Y-75117000D01*
X128901500Y-75117000D02*
X128901500Y-72457000D01*
X128901500Y-72457000D02*
X128841500Y-72457000D01*
X128841500Y-72457000D02*
X128841500Y-75117000D01*
X127571500Y-75117000D02*
X126241500Y-75117000D01*
X126241500Y-75117000D02*
X126241500Y-73787000D01*
X128841500Y-77657000D02*
X128901500Y-77657000D01*
X128901500Y-77657000D02*
X128901500Y-74997000D01*
X128901500Y-74997000D02*
X128841500Y-74997000D01*
X128841500Y-74997000D02*
X128841500Y-77657000D01*
X127571500Y-77657000D02*
X126241500Y-77657000D01*
X126241500Y-77657000D02*
X126241500Y-76327000D01*
X126241500Y-72577000D02*
X126241500Y-71247000D01*
X127571500Y-72577000D02*
X126241500Y-72577000D01*
X128841500Y-69917000D02*
X128841500Y-72577000D01*
X128901500Y-69917000D02*
X128841500Y-69917000D01*
X128901500Y-72577000D02*
X128901500Y-69917000D01*
X128841500Y-72577000D02*
X128901500Y-72577000D01*
X107089500Y-72609000D02*
X107089500Y-73309000D01*
X105889500Y-73309000D02*
X105889500Y-72609000D01*
X104549500Y-72233000D02*
X104549500Y-72933000D01*
X103349500Y-72933000D02*
X103349500Y-72233000D01*
X97253500Y-72801000D02*
X97253500Y-72101000D01*
X98453500Y-72101000D02*
X98453500Y-72801000D01*
X96929500Y-72101000D02*
X96929500Y-72801000D01*
X95729500Y-72801000D02*
X95729500Y-72101000D01*
X91981500Y-71917000D02*
X92681500Y-71917000D01*
X92681500Y-73117000D02*
X91981500Y-73117000D01*
X91981500Y-70393000D02*
X92681500Y-70393000D01*
X92681500Y-71593000D02*
X91981500Y-71593000D01*
X100993500Y-80737000D02*
X100993500Y-81437000D01*
X99793500Y-81437000D02*
X99793500Y-80737000D01*
X103603500Y-80991000D02*
X102903500Y-80991000D01*
X102903500Y-79791000D02*
X103603500Y-79791000D01*
X107089500Y-76551000D02*
X107089500Y-77251000D01*
X105889500Y-77251000D02*
X105889500Y-76551000D01*
X103533500Y-85817000D02*
X103533500Y-86517000D01*
X102333500Y-86517000D02*
X102333500Y-85817000D01*
X108740500Y-70393000D02*
X109440500Y-70393000D01*
X109440500Y-71593000D02*
X108740500Y-71593000D01*
X112747500Y-82199000D02*
X112747500Y-81499000D01*
X113947500Y-81499000D02*
X113947500Y-82199000D01*
X128781500Y-77657000D02*
X128781500Y-76327000D01*
X130111500Y-77657000D02*
X128781500Y-77657000D01*
X131381500Y-74997000D02*
X131381500Y-77657000D01*
X131441500Y-74997000D02*
X131381500Y-74997000D01*
X131441500Y-77657000D02*
X131441500Y-74997000D01*
X131381500Y-77657000D02*
X131441500Y-77657000D01*
X131321500Y-72577000D02*
X131321500Y-71247000D01*
X132651500Y-72577000D02*
X131321500Y-72577000D01*
X133921500Y-69917000D02*
X133921500Y-72577000D01*
X133981500Y-69917000D02*
X133921500Y-69917000D01*
X133981500Y-72577000D02*
X133981500Y-69917000D01*
X133921500Y-72577000D02*
X133981500Y-72577000D01*
X136461500Y-72577000D02*
X136521500Y-72577000D01*
X136521500Y-72577000D02*
X136521500Y-69917000D01*
X136521500Y-69917000D02*
X136461500Y-69917000D01*
X136461500Y-69917000D02*
X136461500Y-72577000D01*
X135191500Y-72577000D02*
X133861500Y-72577000D01*
X133861500Y-72577000D02*
X133861500Y-71247000D01*
X131321500Y-75117000D02*
X131321500Y-73787000D01*
X132651500Y-75117000D02*
X131321500Y-75117000D01*
X133921500Y-72457000D02*
X133921500Y-75117000D01*
X133981500Y-72457000D02*
X133921500Y-72457000D01*
X133981500Y-75117000D02*
X133981500Y-72457000D01*
X133921500Y-75117000D02*
X133981500Y-75117000D01*
X136461500Y-75117000D02*
X136521500Y-75117000D01*
X136521500Y-75117000D02*
X136521500Y-72457000D01*
X136521500Y-72457000D02*
X136461500Y-72457000D01*
X136461500Y-72457000D02*
X136461500Y-75117000D01*
X135191500Y-75117000D02*
X133861500Y-75117000D01*
X133861500Y-75117000D02*
X133861500Y-73787000D01*
X133981500Y-86547000D02*
X133981500Y-83887000D01*
X133921500Y-86547000D02*
X133981500Y-86547000D01*
X133921500Y-83887000D02*
X133981500Y-83887000D01*
X133921500Y-86547000D02*
X133921500Y-83887000D01*
X132651500Y-86547000D02*
X131321500Y-86547000D01*
X131321500Y-86547000D02*
X131321500Y-85217000D01*
X128781500Y-86547000D02*
X128781500Y-85217000D01*
X130111500Y-86547000D02*
X128781500Y-86547000D01*
X131381500Y-86547000D02*
X131381500Y-83887000D01*
X131381500Y-83887000D02*
X131441500Y-83887000D01*
X131381500Y-86547000D02*
X131441500Y-86547000D01*
X131441500Y-86547000D02*
X131441500Y-83887000D01*
X133981500Y-89087000D02*
X133981500Y-86427000D01*
X133921500Y-89087000D02*
X133981500Y-89087000D01*
X133921500Y-86427000D02*
X133981500Y-86427000D01*
X133921500Y-89087000D02*
X133921500Y-86427000D01*
X132651500Y-89087000D02*
X131321500Y-89087000D01*
X131321500Y-89087000D02*
X131321500Y-87757000D01*
X128781500Y-89087000D02*
X128781500Y-87757000D01*
X130111500Y-89087000D02*
X128781500Y-89087000D01*
X131381500Y-89087000D02*
X131381500Y-86427000D01*
X131381500Y-86427000D02*
X131441500Y-86427000D01*
X131381500Y-89087000D02*
X131441500Y-89087000D01*
X131441500Y-89087000D02*
X131441500Y-86427000D01*
X133861500Y-77657000D02*
X133861500Y-76327000D01*
X135191500Y-77657000D02*
X133861500Y-77657000D01*
X136461500Y-74997000D02*
X136461500Y-77657000D01*
X136521500Y-74997000D02*
X136461500Y-74997000D01*
X136521500Y-77657000D02*
X136521500Y-74997000D01*
X136461500Y-77657000D02*
X136521500Y-77657000D01*
X133921500Y-77657000D02*
X133981500Y-77657000D01*
X133981500Y-77657000D02*
X133981500Y-74997000D01*
X133981500Y-74997000D02*
X133921500Y-74997000D01*
X133921500Y-74997000D02*
X133921500Y-77657000D01*
X132651500Y-77657000D02*
X131321500Y-77657000D01*
X131321500Y-77657000D02*
X131321500Y-76327000D01*
X133921500Y-70037000D02*
X133981500Y-70037000D01*
X133981500Y-70037000D02*
X133981500Y-67377000D01*
X133981500Y-67377000D02*
X133921500Y-67377000D01*
X133921500Y-67377000D02*
X133921500Y-70037000D01*
X132651500Y-70037000D02*
X131321500Y-70037000D01*
X131321500Y-70037000D02*
X131321500Y-68707000D01*
X133861500Y-70037000D02*
X133861500Y-68707000D01*
X135191500Y-70037000D02*
X133861500Y-70037000D01*
X136461500Y-67377000D02*
X136461500Y-70037000D01*
X136521500Y-67377000D02*
X136461500Y-67377000D01*
X136521500Y-70037000D02*
X136521500Y-67377000D01*
X136461500Y-70037000D02*
X136521500Y-70037000D01*
X128781500Y-75117000D02*
X128781500Y-73787000D01*
X130111500Y-75117000D02*
X128781500Y-75117000D01*
X131381500Y-72457000D02*
X131381500Y-75117000D01*
X131441500Y-72457000D02*
X131381500Y-72457000D01*
X131441500Y-75117000D02*
X131441500Y-72457000D01*
X131381500Y-75117000D02*
X131441500Y-75117000D01*
X105621500Y-85429000D02*
X108221500Y-85429000D01*
X105621500Y-86529000D02*
X108221500Y-86529000D01*
X105621500Y-85429000D02*
X105621500Y-86529000D01*
X105621500Y-87207000D02*
X105621500Y-88307000D01*
X105621500Y-88307000D02*
X108221500Y-88307000D01*
X105621500Y-87207000D02*
X108221500Y-87207000D01*
D13*
X109913500Y-84069000D02*
G75*
G03X109913500Y-84069000I-125000J0D01*
G01*
D11*
X103632000Y-75438000D02*
X101346000Y-75438000D01*
X103632000Y-78740000D02*
X101473000Y-78740000D01*
D14*
X92123260Y-89413080D02*
X82463640Y-89413080D01*
X92123260Y-89413080D02*
X92123260Y-73416160D01*
X92123260Y-73416160D02*
X82463640Y-73416160D01*
X82463640Y-73416160D02*
X82463640Y-89413080D01*
D15*
X83804760Y-74526140D02*
G75*
G03X83804760Y-74526140I-248920J0D01*
G01*
D16*
X100269040Y-83817460D02*
X100269040Y-86616540D01*
X100269040Y-86616540D02*
X97469960Y-86616540D01*
X97469960Y-86616540D02*
X97469960Y-83817460D01*
X97469960Y-83817460D02*
X100269040Y-83817460D01*
X98371660Y-84419440D02*
X97769680Y-84419440D01*
X98374200Y-84419440D02*
G75*
G03X97769680Y-84419440I-302260J0D01*
G01*
D12*
X111153500Y-85299000D02*
X112153500Y-85299000D01*
X112153500Y-86659000D02*
X111153500Y-86659000D01*
X112153500Y-88437000D02*
X111153500Y-88437000D01*
X111153500Y-87077000D02*
X112153500Y-87077000D01*
X113382500Y-71673000D02*
X112382500Y-71673000D01*
X112382500Y-70313000D02*
X113382500Y-70313000D01*
X107175500Y-81489000D02*
X108175500Y-81489000D01*
X108175500Y-82849000D02*
X107175500Y-82849000D01*
X108175500Y-84627000D02*
X107175500Y-84627000D01*
X107175500Y-83267000D02*
X108175500Y-83267000D01*
X95141500Y-81569000D02*
X95141500Y-80569000D01*
X96501500Y-80569000D02*
X96501500Y-81569000D01*
X96665500Y-81569000D02*
X96665500Y-80569000D01*
X98025500Y-80569000D02*
X98025500Y-81569000D01*
X98189500Y-81569000D02*
X98189500Y-80569000D01*
X99549500Y-80569000D02*
X99549500Y-81569000D01*
D16*
X99428300Y-72151240D02*
X99428300Y-71424800D01*
X102374700Y-73644760D02*
X102374700Y-74371200D01*
X99428300Y-74371200D02*
X99428300Y-73644760D01*
X102374700Y-71424800D02*
X102374700Y-72151240D01*
D11*
X87693500Y-70581000D02*
X88709500Y-70581000D01*
X87693500Y-72867000D02*
X87693500Y-70581000D01*
X89725500Y-72867000D02*
X87693500Y-72867000D01*
X89725500Y-70581000D02*
X89725500Y-72867000D01*
X88709500Y-70581000D02*
X89725500Y-70581000D01*
D17*
X88109500Y-72555000D02*
X88109500Y-70955000D01*
X89309500Y-72555000D02*
X89309500Y-70955000D01*
D18*
X87947500Y-73121000D02*
X87947500Y-73121000D01*
X102425500Y-84043000D02*
X102425500Y-84043000D01*
D17*
X103787500Y-83477000D02*
X103787500Y-81877000D01*
X102587500Y-83477000D02*
X102587500Y-81877000D01*
D11*
X103187500Y-81503000D02*
X104203500Y-81503000D01*
X104203500Y-81503000D02*
X104203500Y-83789000D01*
X104203500Y-83789000D02*
X102171500Y-83789000D01*
X102171500Y-83789000D02*
X102171500Y-81503000D01*
X102171500Y-81503000D02*
X103187500Y-81503000D01*
D13*
X110921335Y-72272301D02*
G75*
G03X110921335Y-72272301I-125000J0D01*
G01*
D11*
X90287928Y-83148714D02*
X88763928Y-83148714D01*
X89852500Y-82640714D01*
X88763928Y-82132714D01*
X90287928Y-82132714D01*
X88763928Y-81552142D02*
X88763928Y-80608714D01*
X89344500Y-81116714D01*
X89344500Y-80899000D01*
X89417071Y-80753857D01*
X89489642Y-80681285D01*
X89634785Y-80608714D01*
X89997642Y-80608714D01*
X90142785Y-80681285D01*
X90215357Y-80753857D01*
X90287928Y-80899000D01*
X90287928Y-81334428D01*
X90215357Y-81479571D01*
X90142785Y-81552142D01*
X84953928Y-89154000D02*
X86187642Y-89154000D01*
X86332785Y-89081428D01*
X86405357Y-89008857D01*
X86477928Y-88863714D01*
X86477928Y-88573428D01*
X86405357Y-88428285D01*
X86332785Y-88355714D01*
X86187642Y-88283142D01*
X84953928Y-88283142D01*
X85679642Y-87049428D02*
X85752214Y-86831714D01*
X85824785Y-86759142D01*
X85969928Y-86686571D01*
X86187642Y-86686571D01*
X86332785Y-86759142D01*
X86405357Y-86831714D01*
X86477928Y-86976857D01*
X86477928Y-87557428D01*
X84953928Y-87557428D01*
X84953928Y-87049428D01*
X85026500Y-86904285D01*
X85099071Y-86831714D01*
X85244214Y-86759142D01*
X85389357Y-86759142D01*
X85534500Y-86831714D01*
X85607071Y-86904285D01*
X85679642Y-87049428D01*
X85679642Y-87557428D01*
X86477928Y-85307714D02*
X86477928Y-86033428D01*
X84953928Y-86033428D01*
X84953928Y-84509428D02*
X84953928Y-84219142D01*
X85026500Y-84074000D01*
X85171642Y-83928857D01*
X85461928Y-83856285D01*
X85969928Y-83856285D01*
X86260214Y-83928857D01*
X86405357Y-84074000D01*
X86477928Y-84219142D01*
X86477928Y-84509428D01*
X86405357Y-84654571D01*
X86260214Y-84799714D01*
X85969928Y-84872285D01*
X85461928Y-84872285D01*
X85171642Y-84799714D01*
X85026500Y-84654571D01*
X84953928Y-84509428D01*
X84953928Y-83348285D02*
X86477928Y-82332285D01*
X84953928Y-82332285D02*
X86477928Y-83348285D01*
X86623071Y-82114571D02*
X86623071Y-80953428D01*
X86477928Y-80590571D02*
X84953928Y-80590571D01*
X86477928Y-79719714D01*
X84953928Y-79719714D01*
X85679642Y-78994000D02*
X85679642Y-78486000D01*
X86477928Y-78268285D02*
X86477928Y-78994000D01*
X84953928Y-78994000D01*
X84953928Y-78268285D01*
X84953928Y-77324857D02*
X84953928Y-77034571D01*
X85026500Y-76889428D01*
X85171642Y-76744285D01*
X85461928Y-76671714D01*
X85969928Y-76671714D01*
X86260214Y-76744285D01*
X86405357Y-76889428D01*
X86477928Y-77034571D01*
X86477928Y-77324857D01*
X86405357Y-77470000D01*
X86260214Y-77615142D01*
X85969928Y-77687714D01*
X85461928Y-77687714D01*
X85171642Y-77615142D01*
X85026500Y-77470000D01*
X84953928Y-77324857D01*
X85897357Y-76018571D02*
X85897357Y-74857428D01*
X84953928Y-73478571D02*
X84953928Y-73768857D01*
X85026500Y-73914000D01*
X85099071Y-73986571D01*
X85316785Y-74131714D01*
X85607071Y-74204285D01*
X86187642Y-74204285D01*
X86332785Y-74131714D01*
X86405357Y-74059142D01*
X86477928Y-73914000D01*
X86477928Y-73623714D01*
X86405357Y-73478571D01*
X86332785Y-73406000D01*
X86187642Y-73333428D01*
X85824785Y-73333428D01*
X85679642Y-73406000D01*
X85607071Y-73478571D01*
X85534500Y-73623714D01*
X85534500Y-73914000D01*
X85607071Y-74059142D01*
X85679642Y-74131714D01*
X85824785Y-74204285D01*
X99391742Y-75222100D02*
X99439361Y-75174480D01*
X99486980Y-75222100D01*
X99439361Y-75269719D01*
X99391742Y-75222100D01*
X99486980Y-75222100D01*
M02*
