G04 #@! TF.GenerationSoftware,KiCad,Pcbnew,(5.1.5)-3*
G04 #@! TF.CreationDate,2020-02-17T19:32:57-05:00*
G04 #@! TF.ProjectId,PicoTrackerWSPR1Rev6,5069636f-5472-4616-936b-657257535052,rev?*
G04 #@! TF.SameCoordinates,Original*
G04 #@! TF.FileFunction,Soldermask,Top*
G04 #@! TF.FilePolarity,Negative*
%FSLAX46Y46*%
G04 Gerber Fmt 4.6, Leading zero omitted, Abs format (unit mm)*
G04 Created by KiCad (PCBNEW (5.1.5)-3) date 2020-02-17 19:32:57*
%MOMM*%
%LPD*%
G04 APERTURE LIST*
%ADD10C,0.066040*%
%ADD11C,0.100000*%
G04 APERTURE END LIST*
D10*
X98978720Y-72773540D02*
X99578160Y-72773540D01*
X99578160Y-72773540D02*
X99578160Y-72473820D01*
X98978720Y-72473820D02*
X99578160Y-72473820D01*
X98978720Y-72773540D02*
X98978720Y-72473820D01*
X98978720Y-73322180D02*
X99578160Y-73322180D01*
X99578160Y-73322180D02*
X99578160Y-73022460D01*
X98978720Y-73022460D02*
X99578160Y-73022460D01*
X98978720Y-73322180D02*
X98978720Y-73022460D01*
X99677220Y-73746360D02*
X102125780Y-73746360D01*
X102125780Y-73746360D02*
X102125780Y-72049640D01*
X99677220Y-72049640D02*
X102125780Y-72049640D01*
X99677220Y-73746360D02*
X99677220Y-72049640D01*
X99728020Y-74820780D02*
X100078540Y-74820780D01*
X100078540Y-74820780D02*
X100078540Y-74061320D01*
X99728020Y-74061320D02*
X100078540Y-74061320D01*
X99728020Y-74820780D02*
X99728020Y-74061320D01*
X100228400Y-74820780D02*
X100578920Y-74820780D01*
X100578920Y-74820780D02*
X100578920Y-74061320D01*
X100228400Y-74061320D02*
X100578920Y-74061320D01*
X100228400Y-74820780D02*
X100228400Y-74061320D01*
X100728780Y-74820780D02*
X101074220Y-74820780D01*
X101074220Y-74820780D02*
X101074220Y-74061320D01*
X100728780Y-74061320D02*
X101074220Y-74061320D01*
X100728780Y-74820780D02*
X100728780Y-74061320D01*
X101224080Y-74820780D02*
X101574600Y-74820780D01*
X101574600Y-74820780D02*
X101574600Y-74061320D01*
X101224080Y-74061320D02*
X101574600Y-74061320D01*
X101224080Y-74820780D02*
X101224080Y-74061320D01*
X101724460Y-74820780D02*
X102074980Y-74820780D01*
X102074980Y-74820780D02*
X102074980Y-74061320D01*
X101724460Y-74061320D02*
X102074980Y-74061320D01*
X101724460Y-74820780D02*
X101724460Y-74061320D01*
X101724460Y-71734680D02*
X102074980Y-71734680D01*
X102074980Y-71734680D02*
X102074980Y-70975220D01*
X101724460Y-70975220D02*
X102074980Y-70975220D01*
X101724460Y-71734680D02*
X101724460Y-70975220D01*
X101224080Y-71734680D02*
X101574600Y-71734680D01*
X101574600Y-71734680D02*
X101574600Y-70975220D01*
X101224080Y-70975220D02*
X101574600Y-70975220D01*
X101224080Y-71734680D02*
X101224080Y-70975220D01*
X100728780Y-71734680D02*
X101074220Y-71734680D01*
X101074220Y-71734680D02*
X101074220Y-70975220D01*
X100728780Y-70975220D02*
X101074220Y-70975220D01*
X100728780Y-71734680D02*
X100728780Y-70975220D01*
X100228400Y-71734680D02*
X100578920Y-71734680D01*
X100578920Y-71734680D02*
X100578920Y-70975220D01*
X100228400Y-70975220D02*
X100578920Y-70975220D01*
X100228400Y-71734680D02*
X100228400Y-70975220D01*
X99728020Y-71734680D02*
X100078540Y-71734680D01*
X100078540Y-71734680D02*
X100078540Y-70975220D01*
X99728020Y-70975220D02*
X100078540Y-70975220D01*
X99728020Y-71734680D02*
X99728020Y-70975220D01*
X102224840Y-73322180D02*
X102824280Y-73322180D01*
X102824280Y-73322180D02*
X102824280Y-73022460D01*
X102224840Y-73022460D02*
X102824280Y-73022460D01*
X102224840Y-73322180D02*
X102224840Y-73022460D01*
X102224840Y-72773540D02*
X102824280Y-72773540D01*
X102824280Y-72773540D02*
X102824280Y-72473820D01*
X102224840Y-72473820D02*
X102824280Y-72473820D01*
X102224840Y-72773540D02*
X102224840Y-72473820D01*
D11*
X100076000Y-74061320D02*
G75*
G03X100076000Y-74061320I-172720J0D01*
G01*
X100576380Y-74061320D02*
G75*
G03X100576380Y-74061320I-172720J0D01*
G01*
X101074220Y-74061320D02*
G75*
G03X101074220Y-74061320I-172720J0D01*
G01*
X101572060Y-74061320D02*
G75*
G03X101572060Y-74061320I-172720J0D01*
G01*
X102072440Y-74061320D02*
G75*
G03X102072440Y-74061320I-172720J0D01*
G01*
X102072440Y-71734680D02*
G75*
G03X102072440Y-71734680I-172720J0D01*
G01*
X101572060Y-71734680D02*
G75*
G03X101572060Y-71734680I-172720J0D01*
G01*
X101074220Y-71734680D02*
G75*
G03X101074220Y-71734680I-172720J0D01*
G01*
X100576380Y-71734680D02*
G75*
G03X100576380Y-71734680I-172720J0D01*
G01*
X100076000Y-71734680D02*
G75*
G03X100076000Y-71734680I-172720J0D01*
G01*
G36*
X99873500Y-89015000D02*
G01*
X98373500Y-89015000D01*
X98373500Y-87515000D01*
X99873500Y-87515000D01*
X99873500Y-89015000D01*
G37*
G36*
X97841500Y-89015000D02*
G01*
X96341500Y-89015000D01*
X96341500Y-87515000D01*
X97841500Y-87515000D01*
X97841500Y-89015000D01*
G37*
G36*
X82194400Y-88912700D02*
G01*
X80396080Y-88912700D01*
X80396080Y-88115140D01*
X82194400Y-88115140D01*
X82194400Y-88912700D01*
G37*
G36*
X94190820Y-88912700D02*
G01*
X92392500Y-88912700D01*
X92392500Y-88115140D01*
X94190820Y-88115140D01*
X94190820Y-88912700D01*
G37*
G36*
X130961500Y-88607000D02*
G01*
X129261500Y-88607000D01*
X129261500Y-86907000D01*
X130961500Y-86907000D01*
X130961500Y-88607000D01*
G37*
G36*
X128421500Y-88607000D02*
G01*
X126721500Y-88607000D01*
X126721500Y-86907000D01*
X128421500Y-86907000D01*
X128421500Y-88607000D01*
G37*
G36*
X133501500Y-88607000D02*
G01*
X131801500Y-88607000D01*
X131801500Y-86907000D01*
X133501500Y-86907000D01*
X133501500Y-88607000D01*
G37*
G36*
X113353500Y-88207000D02*
G01*
X112153500Y-88207000D01*
X112153500Y-87307000D01*
X113353500Y-87307000D01*
X113353500Y-88207000D01*
G37*
G36*
X111153500Y-88207000D02*
G01*
X109953500Y-88207000D01*
X109953500Y-87307000D01*
X111153500Y-87307000D01*
X111153500Y-88207000D01*
G37*
G36*
X109121500Y-88207000D02*
G01*
X107921500Y-88207000D01*
X107921500Y-87307000D01*
X109121500Y-87307000D01*
X109121500Y-88207000D01*
G37*
G36*
X106921500Y-88207000D02*
G01*
X105721500Y-88207000D01*
X105721500Y-87307000D01*
X106921500Y-87307000D01*
X106921500Y-88207000D01*
G37*
G36*
X94190820Y-87812880D02*
G01*
X92392500Y-87812880D01*
X92392500Y-87015320D01*
X94190820Y-87015320D01*
X94190820Y-87812880D01*
G37*
G36*
X82194400Y-87812880D02*
G01*
X80396080Y-87812880D01*
X80396080Y-87015320D01*
X82194400Y-87015320D01*
X82194400Y-87812880D01*
G37*
G36*
X103308500Y-87717000D02*
G01*
X102558500Y-87717000D01*
X102558500Y-86517000D01*
X103308500Y-86517000D01*
X103308500Y-87717000D01*
G37*
G36*
X94190820Y-86713060D02*
G01*
X92392500Y-86713060D01*
X92392500Y-85915500D01*
X94190820Y-85915500D01*
X94190820Y-86713060D01*
G37*
G36*
X82194400Y-86713060D02*
G01*
X80396080Y-86713060D01*
X80396080Y-85915500D01*
X82194400Y-85915500D01*
X82194400Y-86713060D01*
G37*
G36*
X106921500Y-86429000D02*
G01*
X105721500Y-86429000D01*
X105721500Y-85529000D01*
X106921500Y-85529000D01*
X106921500Y-86429000D01*
G37*
G36*
X109121500Y-86429000D02*
G01*
X107921500Y-86429000D01*
X107921500Y-85529000D01*
X109121500Y-85529000D01*
X109121500Y-86429000D01*
G37*
G36*
X111153500Y-86429000D02*
G01*
X109953500Y-86429000D01*
X109953500Y-85529000D01*
X111153500Y-85529000D01*
X111153500Y-86429000D01*
G37*
G36*
X113353500Y-86429000D02*
G01*
X112153500Y-86429000D01*
X112153500Y-85529000D01*
X113353500Y-85529000D01*
X113353500Y-86429000D01*
G37*
G36*
X97269500Y-86339680D02*
G01*
X95969500Y-86339680D01*
X95969500Y-86090760D01*
X97269500Y-86090760D01*
X97269500Y-86339680D01*
G37*
G36*
X101769500Y-86339680D02*
G01*
X100469500Y-86339680D01*
X100469500Y-86090760D01*
X101769500Y-86090760D01*
X101769500Y-86339680D01*
G37*
G36*
X128421500Y-86067000D02*
G01*
X126721500Y-86067000D01*
X126721500Y-84367000D01*
X128421500Y-84367000D01*
X128421500Y-86067000D01*
G37*
G36*
X130961500Y-86067000D02*
G01*
X129261500Y-86067000D01*
X129261500Y-84367000D01*
X130961500Y-84367000D01*
X130961500Y-86067000D01*
G37*
G36*
X133501500Y-86067000D02*
G01*
X131801500Y-86067000D01*
X131801500Y-84367000D01*
X133501500Y-84367000D01*
X133501500Y-86067000D01*
G37*
G36*
X97269500Y-85839300D02*
G01*
X95969500Y-85839300D01*
X95969500Y-84594700D01*
X97269500Y-84594700D01*
X97269500Y-85839300D01*
G37*
G36*
X101769500Y-85839300D02*
G01*
X100469500Y-85839300D01*
X100469500Y-84594700D01*
X101769500Y-84594700D01*
X101769500Y-85839300D01*
G37*
G36*
X103308500Y-85817000D02*
G01*
X102558500Y-85817000D01*
X102558500Y-84617000D01*
X103308500Y-84617000D01*
X103308500Y-85817000D01*
G37*
G36*
X94190820Y-85613240D02*
G01*
X92392500Y-85613240D01*
X92392500Y-84815680D01*
X94190820Y-84815680D01*
X94190820Y-85613240D01*
G37*
G36*
X82194400Y-85613240D02*
G01*
X80396080Y-85613240D01*
X80396080Y-84815680D01*
X82194400Y-84815680D01*
X82194400Y-85613240D01*
G37*
G36*
X82194400Y-84513420D02*
G01*
X80396080Y-84513420D01*
X80396080Y-83715860D01*
X82194400Y-83715860D01*
X82194400Y-84513420D01*
G37*
G36*
X94190820Y-84513420D02*
G01*
X92392500Y-84513420D01*
X92392500Y-83715860D01*
X94190820Y-83715860D01*
X94190820Y-84513420D01*
G37*
G36*
X107175500Y-84397000D02*
G01*
X105975500Y-84397000D01*
X105975500Y-83497000D01*
X107175500Y-83497000D01*
X107175500Y-84397000D01*
G37*
G36*
X109375500Y-84397000D02*
G01*
X108175500Y-84397000D01*
X108175500Y-83497000D01*
X109375500Y-83497000D01*
X109375500Y-84397000D01*
G37*
G36*
X97269500Y-84343240D02*
G01*
X95969500Y-84343240D01*
X95969500Y-84094320D01*
X97269500Y-84094320D01*
X97269500Y-84343240D01*
G37*
G36*
X101769500Y-84343240D02*
G01*
X100469500Y-84343240D01*
X100469500Y-84094320D01*
X101769500Y-84094320D01*
X101769500Y-84343240D01*
G37*
G36*
X112088500Y-81069000D02*
G01*
X112088499Y-81069000D01*
X112064113Y-81071402D01*
X112040664Y-81078515D01*
X112019053Y-81090066D01*
X112000111Y-81105611D01*
X111984566Y-81124553D01*
X111973015Y-81146164D01*
X111965902Y-81169613D01*
X111963500Y-81193999D01*
X111963500Y-83144001D01*
X111965902Y-83168387D01*
X111973015Y-83191836D01*
X111984566Y-83213447D01*
X112000111Y-83232389D01*
X112019053Y-83247934D01*
X112040664Y-83259485D01*
X112064113Y-83266598D01*
X112088499Y-83269000D01*
X112088500Y-83269000D01*
X112088500Y-84069000D01*
X110288500Y-84069000D01*
X110288500Y-83269000D01*
X110288501Y-83269000D01*
X110312887Y-83266598D01*
X110336336Y-83259485D01*
X110357947Y-83247934D01*
X110376889Y-83232389D01*
X110392434Y-83213447D01*
X110403985Y-83191836D01*
X110411098Y-83168387D01*
X110413500Y-83144001D01*
X110413500Y-81193999D01*
X110411098Y-81169613D01*
X110403985Y-81146164D01*
X110392434Y-81124553D01*
X110376889Y-81105611D01*
X110357947Y-81090066D01*
X110336336Y-81078515D01*
X110312887Y-81071402D01*
X110288501Y-81069000D01*
X110288500Y-81069000D01*
X110288500Y-80269000D01*
X112088500Y-80269000D01*
X112088500Y-81069000D01*
G37*
G36*
X103587500Y-82302001D02*
G01*
X103589902Y-82326387D01*
X103597015Y-82349836D01*
X103608566Y-82371447D01*
X103617500Y-82382333D01*
X103617500Y-82971667D01*
X103608566Y-82982553D01*
X103597015Y-83004164D01*
X103589902Y-83027613D01*
X103587500Y-83051999D01*
X103587500Y-83677000D01*
X102787500Y-83677000D01*
X102787500Y-83051999D01*
X102785098Y-83027613D01*
X102777985Y-83004164D01*
X102766434Y-82982553D01*
X102757500Y-82971667D01*
X102757500Y-82382333D01*
X102766434Y-82371447D01*
X102777985Y-82349836D01*
X102785098Y-82326387D01*
X102787500Y-82302001D01*
X102787500Y-81677000D01*
X103587500Y-81677000D01*
X103587500Y-82302001D01*
G37*
G36*
X113722500Y-83399000D02*
G01*
X112972500Y-83399000D01*
X112972500Y-82199000D01*
X113722500Y-82199000D01*
X113722500Y-83399000D01*
G37*
G36*
X97795500Y-82769000D02*
G01*
X96895500Y-82769000D01*
X96895500Y-81569000D01*
X97795500Y-81569000D01*
X97795500Y-82769000D01*
G37*
G36*
X96271500Y-82769000D02*
G01*
X95371500Y-82769000D01*
X95371500Y-81569000D01*
X96271500Y-81569000D01*
X96271500Y-82769000D01*
G37*
G36*
X99319500Y-82769000D02*
G01*
X98419500Y-82769000D01*
X98419500Y-81569000D01*
X99319500Y-81569000D01*
X99319500Y-82769000D01*
G37*
G36*
X100768500Y-82637000D02*
G01*
X100018500Y-82637000D01*
X100018500Y-81437000D01*
X100768500Y-81437000D01*
X100768500Y-82637000D01*
G37*
G36*
X107175500Y-82619000D02*
G01*
X105975500Y-82619000D01*
X105975500Y-81719000D01*
X107175500Y-81719000D01*
X107175500Y-82619000D01*
G37*
G36*
X109375500Y-82619000D02*
G01*
X108175500Y-82619000D01*
X108175500Y-81719000D01*
X109375500Y-81719000D01*
X109375500Y-82619000D01*
G37*
G36*
X82194400Y-81516220D02*
G01*
X80396080Y-81516220D01*
X80396080Y-80718660D01*
X82194400Y-80718660D01*
X82194400Y-81516220D01*
G37*
G36*
X94190820Y-81516220D02*
G01*
X92392500Y-81516220D01*
X92392500Y-80718660D01*
X94190820Y-80718660D01*
X94190820Y-81516220D01*
G37*
G36*
X113722500Y-81499000D02*
G01*
X112972500Y-81499000D01*
X112972500Y-80299000D01*
X113722500Y-80299000D01*
X113722500Y-81499000D01*
G37*
G36*
X102903500Y-80766000D02*
G01*
X101703500Y-80766000D01*
X101703500Y-80016000D01*
X102903500Y-80016000D01*
X102903500Y-80766000D01*
G37*
G36*
X104803500Y-80766000D02*
G01*
X103603500Y-80766000D01*
X103603500Y-80016000D01*
X104803500Y-80016000D01*
X104803500Y-80766000D01*
G37*
G36*
X100768500Y-80737000D02*
G01*
X100018500Y-80737000D01*
X100018500Y-79537000D01*
X100768500Y-79537000D01*
X100768500Y-80737000D01*
G37*
G36*
X97795500Y-80569000D02*
G01*
X96895500Y-80569000D01*
X96895500Y-79369000D01*
X97795500Y-79369000D01*
X97795500Y-80569000D01*
G37*
G36*
X99319500Y-80569000D02*
G01*
X98419500Y-80569000D01*
X98419500Y-79369000D01*
X99319500Y-79369000D01*
X99319500Y-80569000D01*
G37*
G36*
X96271500Y-80569000D02*
G01*
X95371500Y-80569000D01*
X95371500Y-79369000D01*
X96271500Y-79369000D01*
X96271500Y-80569000D01*
G37*
G36*
X94190820Y-80413860D02*
G01*
X92392500Y-80413860D01*
X92392500Y-79616300D01*
X94190820Y-79616300D01*
X94190820Y-80413860D01*
G37*
G36*
X82194400Y-80413860D02*
G01*
X80396080Y-80413860D01*
X80396080Y-79616300D01*
X82194400Y-79616300D01*
X82194400Y-80413860D01*
G37*
G36*
X108940174Y-76815457D02*
G01*
X108940179Y-76815463D01*
X109258378Y-77133662D01*
X109258384Y-77133667D01*
X110000834Y-77876117D01*
X110000839Y-77876123D01*
X110319038Y-78194322D01*
X110319044Y-78194327D01*
X110973111Y-78848394D01*
X110372071Y-79449434D01*
X109753353Y-78830716D01*
X109753347Y-78830711D01*
X109364450Y-78441814D01*
X109364445Y-78441808D01*
X108692693Y-77770056D01*
X108692687Y-77770051D01*
X108303790Y-77381154D01*
X108303785Y-77381148D01*
X107685066Y-76762429D01*
X108286106Y-76161389D01*
X108940174Y-76815457D01*
G37*
G36*
X114437934Y-76762429D02*
G01*
X114137414Y-77062949D01*
X113819216Y-77381148D01*
X113430308Y-77770056D01*
X113076754Y-78123609D01*
X112758556Y-78441808D01*
X112369648Y-78830716D01*
X112016094Y-79184269D01*
X111750929Y-79449434D01*
X111149889Y-78848394D01*
X111803952Y-78194331D01*
X111803963Y-78194322D01*
X111856997Y-78141289D01*
X111856996Y-78141288D01*
X112069128Y-77929156D01*
X112069129Y-77929157D01*
X112122162Y-77876123D01*
X112122171Y-77876112D01*
X112864612Y-77133671D01*
X112864623Y-77133662D01*
X112917657Y-77080629D01*
X112917656Y-77080628D01*
X113129788Y-76868496D01*
X113129789Y-76868497D01*
X113182822Y-76815463D01*
X113182831Y-76815452D01*
X113836894Y-76161389D01*
X114437934Y-76762429D01*
G37*
G36*
X82194400Y-79314040D02*
G01*
X80396080Y-79314040D01*
X80396080Y-78516480D01*
X82194400Y-78516480D01*
X82194400Y-79314040D01*
G37*
G36*
X94190820Y-79314040D02*
G01*
X92392500Y-79314040D01*
X92392500Y-78516480D01*
X94190820Y-78516480D01*
X94190820Y-79314040D01*
G37*
G36*
X101981000Y-78613000D02*
G01*
X100838000Y-78613000D01*
X100838000Y-75565000D01*
X101981000Y-75565000D01*
X101981000Y-78613000D01*
G37*
G36*
X104140000Y-78613000D02*
G01*
X102997000Y-78613000D01*
X102997000Y-75565000D01*
X104140000Y-75565000D01*
X104140000Y-78613000D01*
G37*
G36*
X106864500Y-78451000D02*
G01*
X106114500Y-78451000D01*
X106114500Y-77251000D01*
X106864500Y-77251000D01*
X106864500Y-78451000D01*
G37*
G36*
X98806000Y-78447900D02*
G01*
X97409000Y-78447900D01*
X97409000Y-77254100D01*
X98806000Y-77254100D01*
X98806000Y-78447900D01*
G37*
G36*
X96596200Y-78447900D02*
G01*
X95199200Y-78447900D01*
X95199200Y-77254100D01*
X96596200Y-77254100D01*
X96596200Y-78447900D01*
G37*
G36*
X113359597Y-76073000D02*
G01*
X111061500Y-78371097D01*
X108763403Y-76073000D01*
X111061500Y-73774903D01*
X113359597Y-76073000D01*
G37*
G36*
X82194400Y-78214220D02*
G01*
X80396080Y-78214220D01*
X80396080Y-77416660D01*
X82194400Y-77416660D01*
X82194400Y-78214220D01*
G37*
G36*
X94190820Y-78214220D02*
G01*
X92392500Y-78214220D01*
X92392500Y-77416660D01*
X94190820Y-77416660D01*
X94190820Y-78214220D01*
G37*
G36*
X133501500Y-77177000D02*
G01*
X131801500Y-77177000D01*
X131801500Y-75477000D01*
X133501500Y-75477000D01*
X133501500Y-77177000D01*
G37*
G36*
X136041500Y-77177000D02*
G01*
X134341500Y-77177000D01*
X134341500Y-75477000D01*
X136041500Y-75477000D01*
X136041500Y-77177000D01*
G37*
G36*
X128421500Y-77177000D02*
G01*
X126721500Y-77177000D01*
X126721500Y-75477000D01*
X128421500Y-75477000D01*
X128421500Y-77177000D01*
G37*
G36*
X130961500Y-77177000D02*
G01*
X129261500Y-77177000D01*
X129261500Y-75477000D01*
X130961500Y-75477000D01*
X130961500Y-77177000D01*
G37*
G36*
X82194400Y-77114400D02*
G01*
X80396080Y-77114400D01*
X80396080Y-76316840D01*
X82194400Y-76316840D01*
X82194400Y-77114400D01*
G37*
G36*
X94190820Y-77114400D02*
G01*
X92392500Y-77114400D01*
X92392500Y-76316840D01*
X94190820Y-76316840D01*
X94190820Y-77114400D01*
G37*
G36*
X98806000Y-76746100D02*
G01*
X97409000Y-76746100D01*
X97409000Y-75552300D01*
X98806000Y-75552300D01*
X98806000Y-76746100D01*
G37*
G36*
X96596200Y-76746100D02*
G01*
X95199200Y-76746100D01*
X95199200Y-75552300D01*
X96596200Y-75552300D01*
X96596200Y-76746100D01*
G37*
G36*
X106864500Y-76551000D02*
G01*
X106114500Y-76551000D01*
X106114500Y-75351000D01*
X106864500Y-75351000D01*
X106864500Y-76551000D01*
G37*
G36*
X94190820Y-76014580D02*
G01*
X92392500Y-76014580D01*
X92392500Y-75217020D01*
X94190820Y-75217020D01*
X94190820Y-76014580D01*
G37*
G36*
X82194400Y-76014580D02*
G01*
X80396080Y-76014580D01*
X80396080Y-75217020D01*
X82194400Y-75217020D01*
X82194400Y-76014580D01*
G37*
G36*
X112369648Y-73315285D02*
G01*
X112369654Y-73315290D01*
X112758551Y-73704187D01*
X112758556Y-73704193D01*
X113430308Y-74375945D01*
X113430314Y-74375950D01*
X113819211Y-74764847D01*
X113819216Y-74764853D01*
X114437934Y-75383571D01*
X113836894Y-75984611D01*
X113182827Y-75330544D01*
X113182822Y-75330538D01*
X112864623Y-75012339D01*
X112864617Y-75012334D01*
X112122167Y-74269884D01*
X112122162Y-74269878D01*
X111803963Y-73951679D01*
X111803957Y-73951674D01*
X111149889Y-73297606D01*
X111750929Y-72696566D01*
X112369648Y-73315285D01*
G37*
G36*
X110973111Y-73297606D02*
G01*
X108286106Y-75984611D01*
X107685066Y-75383571D01*
X108250751Y-74817886D01*
X108303785Y-74764853D01*
X108303794Y-74764842D01*
X108692682Y-74375954D01*
X108692693Y-74375945D01*
X108745726Y-74322911D01*
X109311411Y-73757226D01*
X109364445Y-73704193D01*
X109364454Y-73704182D01*
X109753342Y-73315294D01*
X109753353Y-73315285D01*
X109806386Y-73262251D01*
X110372071Y-72696566D01*
X110973111Y-73297606D01*
G37*
G36*
X82194400Y-74914760D02*
G01*
X80396080Y-74914760D01*
X80396080Y-74117200D01*
X82194400Y-74117200D01*
X82194400Y-74914760D01*
G37*
G36*
X94190820Y-74914760D02*
G01*
X92392500Y-74914760D01*
X92392500Y-74117200D01*
X94190820Y-74117200D01*
X94190820Y-74914760D01*
G37*
G36*
X100911030Y-73916675D02*
G01*
X100926575Y-73935617D01*
X100956038Y-73957468D01*
X100964833Y-73962169D01*
X100979488Y-73970002D01*
X100979490Y-73970003D01*
X100979489Y-73970003D01*
X101000760Y-73987460D01*
X101018219Y-74008733D01*
X101031818Y-74034175D01*
X101040179Y-74054363D01*
X101053793Y-74074737D01*
X101071119Y-74092065D01*
X101091493Y-74105679D01*
X101114132Y-74115057D01*
X101138165Y-74119838D01*
X101162669Y-74119838D01*
X101186703Y-74115058D01*
X101209342Y-74105682D01*
X101229716Y-74092068D01*
X101247044Y-74074742D01*
X101260658Y-74054368D01*
X101269019Y-74034182D01*
X101275321Y-74022391D01*
X101282622Y-74008732D01*
X101300080Y-73987460D01*
X101321352Y-73970002D01*
X101344804Y-73957467D01*
X101365177Y-73943854D01*
X101382503Y-73926526D01*
X101384940Y-73922879D01*
X101390029Y-73927968D01*
X101410403Y-73941582D01*
X101433045Y-73950959D01*
X101453056Y-73957029D01*
X101453058Y-73957030D01*
X101477328Y-73970002D01*
X101477330Y-73970003D01*
X101477329Y-73970003D01*
X101498600Y-73987460D01*
X101516059Y-74008733D01*
X101529031Y-74033002D01*
X101529913Y-74035910D01*
X101539289Y-74058550D01*
X101552903Y-74078924D01*
X101570229Y-74096252D01*
X101590603Y-74109866D01*
X101613242Y-74119244D01*
X101637275Y-74124025D01*
X101661779Y-74124025D01*
X101685812Y-74119245D01*
X101708452Y-74109869D01*
X101728826Y-74096255D01*
X101746154Y-74078929D01*
X101759768Y-74058555D01*
X101769147Y-74035913D01*
X101770030Y-74033001D01*
X101776964Y-74020029D01*
X101783002Y-74008732D01*
X101800460Y-73987460D01*
X101821732Y-73970002D01*
X101821731Y-73970002D01*
X101821733Y-73970001D01*
X101845999Y-73957030D01*
X101872334Y-73949042D01*
X101899720Y-73946345D01*
X101927105Y-73949042D01*
X101953438Y-73957030D01*
X101977708Y-73970002D01*
X101977710Y-73970003D01*
X101977709Y-73970003D01*
X101998980Y-73987460D01*
X102016439Y-74008733D01*
X102029410Y-74032999D01*
X102037398Y-74059334D01*
X102039420Y-74079866D01*
X102039420Y-74662534D01*
X102037398Y-74683066D01*
X102029410Y-74709401D01*
X102016439Y-74733667D01*
X101998980Y-74754940D01*
X101977707Y-74772399D01*
X101953441Y-74785370D01*
X101927106Y-74793358D01*
X101899720Y-74796055D01*
X101872335Y-74793358D01*
X101846000Y-74785370D01*
X101821734Y-74772399D01*
X101800461Y-74754940D01*
X101783002Y-74733667D01*
X101770032Y-74709401D01*
X101769675Y-74708223D01*
X101769146Y-74706483D01*
X101759773Y-74683852D01*
X101746160Y-74663477D01*
X101728834Y-74646149D01*
X101708460Y-74632534D01*
X101685821Y-74623156D01*
X101661788Y-74618374D01*
X101637284Y-74618373D01*
X101613251Y-74623153D01*
X101590612Y-74632529D01*
X101570237Y-74646142D01*
X101552909Y-74663468D01*
X101539294Y-74683842D01*
X101529915Y-74706483D01*
X101529030Y-74709400D01*
X101516059Y-74733667D01*
X101498600Y-74754940D01*
X101477327Y-74772399D01*
X101453061Y-74785370D01*
X101426726Y-74793358D01*
X101399340Y-74796055D01*
X101371955Y-74793358D01*
X101345620Y-74785370D01*
X101321354Y-74772399D01*
X101300081Y-74754940D01*
X101282622Y-74733667D01*
X101269022Y-74708223D01*
X101260663Y-74688039D01*
X101247050Y-74667664D01*
X101229724Y-74650336D01*
X101209351Y-74636722D01*
X101186712Y-74627343D01*
X101162679Y-74622562D01*
X101138175Y-74622560D01*
X101114142Y-74627340D01*
X101091502Y-74636716D01*
X101071127Y-74650329D01*
X101053799Y-74667655D01*
X101040185Y-74688028D01*
X101031818Y-74708225D01*
X101018219Y-74733667D01*
X101000760Y-74754940D01*
X100979487Y-74772399D01*
X100955221Y-74785370D01*
X100928886Y-74793358D01*
X100901500Y-74796055D01*
X100874115Y-74793358D01*
X100847780Y-74785370D01*
X100823514Y-74772399D01*
X100802241Y-74754940D01*
X100784782Y-74733667D01*
X100771182Y-74708223D01*
X100762823Y-74688039D01*
X100749210Y-74667664D01*
X100731884Y-74650336D01*
X100711511Y-74636722D01*
X100688872Y-74627343D01*
X100664839Y-74622562D01*
X100640335Y-74622560D01*
X100616302Y-74627340D01*
X100593662Y-74636716D01*
X100573287Y-74650329D01*
X100555959Y-74667655D01*
X100542345Y-74688028D01*
X100533978Y-74708225D01*
X100520379Y-74733667D01*
X100502920Y-74754940D01*
X100481647Y-74772399D01*
X100457381Y-74785370D01*
X100431046Y-74793358D01*
X100403660Y-74796055D01*
X100376275Y-74793358D01*
X100349940Y-74785370D01*
X100325674Y-74772399D01*
X100304401Y-74754940D01*
X100286942Y-74733667D01*
X100273972Y-74709401D01*
X100273615Y-74708223D01*
X100273086Y-74706483D01*
X100263713Y-74683852D01*
X100250100Y-74663477D01*
X100232774Y-74646149D01*
X100212400Y-74632534D01*
X100189761Y-74623156D01*
X100165728Y-74618374D01*
X100141224Y-74618373D01*
X100117191Y-74623153D01*
X100094552Y-74632529D01*
X100074177Y-74646142D01*
X100056849Y-74663468D01*
X100043234Y-74683842D01*
X100033855Y-74706483D01*
X100032970Y-74709400D01*
X100019999Y-74733667D01*
X100002540Y-74754940D01*
X99981267Y-74772399D01*
X99957001Y-74785370D01*
X99930666Y-74793358D01*
X99903280Y-74796055D01*
X99875895Y-74793358D01*
X99849560Y-74785370D01*
X99825294Y-74772399D01*
X99804021Y-74754940D01*
X99786562Y-74733667D01*
X99773591Y-74709401D01*
X99765603Y-74683066D01*
X99763581Y-74662534D01*
X99763580Y-74079867D01*
X99765602Y-74059335D01*
X99773590Y-74033002D01*
X99773592Y-74032999D01*
X99786562Y-74008732D01*
X99804020Y-73987460D01*
X99825292Y-73970002D01*
X99825291Y-73970002D01*
X99825293Y-73970001D01*
X99849559Y-73957030D01*
X99875894Y-73949042D01*
X99903280Y-73946345D01*
X99930665Y-73949042D01*
X99956998Y-73957030D01*
X99981268Y-73970002D01*
X99981270Y-73970003D01*
X99981269Y-73970003D01*
X100002540Y-73987460D01*
X100019999Y-74008733D01*
X100032971Y-74033002D01*
X100033853Y-74035910D01*
X100043229Y-74058550D01*
X100056843Y-74078924D01*
X100074169Y-74096252D01*
X100094543Y-74109866D01*
X100117182Y-74119244D01*
X100141215Y-74124025D01*
X100165719Y-74124025D01*
X100189752Y-74119245D01*
X100212392Y-74109869D01*
X100232766Y-74096255D01*
X100250094Y-74078929D01*
X100263708Y-74058555D01*
X100273087Y-74035913D01*
X100273970Y-74033001D01*
X100280904Y-74020029D01*
X100286942Y-74008732D01*
X100304400Y-73987460D01*
X100325672Y-73970002D01*
X100325671Y-73970002D01*
X100325673Y-73970001D01*
X100349939Y-73957031D01*
X100349941Y-73957030D01*
X100369959Y-73950958D01*
X100392597Y-73941580D01*
X100412971Y-73927967D01*
X100418181Y-73922757D01*
X100428735Y-73935617D01*
X100458198Y-73957468D01*
X100466993Y-73962169D01*
X100481648Y-73970002D01*
X100481650Y-73970003D01*
X100481649Y-73970003D01*
X100502920Y-73987460D01*
X100520379Y-74008733D01*
X100533978Y-74034175D01*
X100542339Y-74054363D01*
X100555953Y-74074737D01*
X100573279Y-74092065D01*
X100593653Y-74105679D01*
X100616292Y-74115057D01*
X100640325Y-74119838D01*
X100664829Y-74119838D01*
X100688863Y-74115058D01*
X100711502Y-74105682D01*
X100731876Y-74092068D01*
X100749204Y-74074742D01*
X100762818Y-74054368D01*
X100771179Y-74034182D01*
X100777481Y-74022391D01*
X100784782Y-74008732D01*
X100802240Y-73987460D01*
X100823512Y-73970002D01*
X100846964Y-73957467D01*
X100867337Y-73943854D01*
X100884663Y-73926526D01*
X100898277Y-73906152D01*
X100901389Y-73898638D01*
X100911030Y-73916675D01*
G37*
G36*
X130961500Y-74637000D02*
G01*
X129261500Y-74637000D01*
X129261500Y-72937000D01*
X130961500Y-72937000D01*
X130961500Y-74637000D01*
G37*
G36*
X133501500Y-74637000D02*
G01*
X131801500Y-74637000D01*
X131801500Y-72937000D01*
X133501500Y-72937000D01*
X133501500Y-74637000D01*
G37*
G36*
X136041500Y-74637000D02*
G01*
X134341500Y-74637000D01*
X134341500Y-72937000D01*
X136041500Y-72937000D01*
X136041500Y-74637000D01*
G37*
G36*
X128421500Y-74637000D02*
G01*
X126721500Y-74637000D01*
X126721500Y-72937000D01*
X128421500Y-72937000D01*
X128421500Y-74637000D01*
G37*
G36*
X106864500Y-74509000D02*
G01*
X106114500Y-74509000D01*
X106114500Y-73309000D01*
X106864500Y-73309000D01*
X106864500Y-74509000D01*
G37*
G36*
X104324500Y-74133000D02*
G01*
X103574500Y-74133000D01*
X103574500Y-72933000D01*
X104324500Y-72933000D01*
X104324500Y-74133000D01*
G37*
G36*
X96704500Y-74001000D02*
G01*
X95954500Y-74001000D01*
X95954500Y-72801000D01*
X96704500Y-72801000D01*
X96704500Y-74001000D01*
G37*
G36*
X98228500Y-74001000D02*
G01*
X97478500Y-74001000D01*
X97478500Y-72801000D01*
X98228500Y-72801000D01*
X98228500Y-74001000D01*
G37*
G36*
X100904724Y-72007696D02*
G01*
X100918338Y-72028071D01*
X100935666Y-72045397D01*
X100956040Y-72059011D01*
X100978679Y-72068388D01*
X101014963Y-72073770D01*
X101285877Y-72073770D01*
X101310263Y-72071368D01*
X101333712Y-72064255D01*
X101355323Y-72052704D01*
X101370322Y-72040395D01*
X101372700Y-72043954D01*
X101390026Y-72061282D01*
X101410400Y-72074896D01*
X101433041Y-72084274D01*
X101534730Y-72115121D01*
X101593095Y-72132826D01*
X101736283Y-72209362D01*
X101861789Y-72312361D01*
X101964788Y-72437867D01*
X101964790Y-72437870D01*
X101965126Y-72438280D01*
X101982453Y-72455607D01*
X102002827Y-72469220D01*
X102025466Y-72478598D01*
X102061751Y-72483980D01*
X102668574Y-72483980D01*
X102689106Y-72486002D01*
X102715441Y-72493990D01*
X102739707Y-72506961D01*
X102760980Y-72524420D01*
X102778439Y-72545693D01*
X102791410Y-72569959D01*
X102799398Y-72596294D01*
X102802095Y-72623680D01*
X102799398Y-72651066D01*
X102791410Y-72677401D01*
X102778439Y-72701667D01*
X102760980Y-72722940D01*
X102739707Y-72740399D01*
X102715441Y-72753370D01*
X102689106Y-72761358D01*
X102668574Y-72763380D01*
X102229023Y-72763380D01*
X102204637Y-72765782D01*
X102181188Y-72772895D01*
X102159577Y-72784446D01*
X102140635Y-72799991D01*
X102125090Y-72818933D01*
X102113539Y-72840544D01*
X102106426Y-72863993D01*
X102104024Y-72888379D01*
X102104626Y-72900632D01*
X102104625Y-72919868D01*
X102109405Y-72943901D01*
X102118781Y-72966540D01*
X102132394Y-72986915D01*
X102149720Y-73004243D01*
X102170094Y-73017858D01*
X102192733Y-73027236D01*
X102216766Y-73032018D01*
X102229023Y-73032620D01*
X102668574Y-73032620D01*
X102689106Y-73034642D01*
X102715441Y-73042630D01*
X102739707Y-73055601D01*
X102760980Y-73073060D01*
X102778439Y-73094333D01*
X102791410Y-73118599D01*
X102799398Y-73144934D01*
X102802095Y-73172320D01*
X102799398Y-73199706D01*
X102791410Y-73226041D01*
X102778439Y-73250307D01*
X102760980Y-73271580D01*
X102739707Y-73289039D01*
X102715441Y-73302010D01*
X102692396Y-73309000D01*
X102689106Y-73309998D01*
X102668574Y-73312020D01*
X102061751Y-73312020D01*
X102037365Y-73314422D01*
X102013916Y-73321535D01*
X101992305Y-73333086D01*
X101965126Y-73357720D01*
X101964790Y-73358130D01*
X101964788Y-73358133D01*
X101861789Y-73483639D01*
X101736283Y-73586638D01*
X101593095Y-73663174D01*
X101534730Y-73680879D01*
X101433041Y-73711726D01*
X101410402Y-73721103D01*
X101390028Y-73734717D01*
X101372701Y-73752044D01*
X101370263Y-73755692D01*
X101365174Y-73750603D01*
X101344800Y-73736989D01*
X101322161Y-73727612D01*
X101285877Y-73722230D01*
X101014963Y-73722230D01*
X100990577Y-73724632D01*
X100967128Y-73731745D01*
X100945517Y-73743296D01*
X100926575Y-73758841D01*
X100911030Y-73777783D01*
X100901389Y-73795820D01*
X100898276Y-73788304D01*
X100884662Y-73767929D01*
X100867334Y-73750603D01*
X100846960Y-73736989D01*
X100824321Y-73727612D01*
X100788037Y-73722230D01*
X100517123Y-73722230D01*
X100492737Y-73724632D01*
X100469288Y-73731745D01*
X100447677Y-73743296D01*
X100432679Y-73755605D01*
X100430299Y-73752043D01*
X100412972Y-73734716D01*
X100392598Y-73721102D01*
X100369958Y-73711724D01*
X100365279Y-73710305D01*
X100365273Y-73710304D01*
X100209905Y-73663174D01*
X100066717Y-73586638D01*
X99941211Y-73483639D01*
X99838212Y-73358133D01*
X99838210Y-73358130D01*
X99837874Y-73357720D01*
X99820547Y-73340393D01*
X99800173Y-73326780D01*
X99777534Y-73317402D01*
X99741249Y-73312020D01*
X99134426Y-73312020D01*
X99113894Y-73309998D01*
X99087559Y-73302010D01*
X99063293Y-73289039D01*
X99042020Y-73271580D01*
X99024561Y-73250307D01*
X99011590Y-73226041D01*
X99003602Y-73199706D01*
X99000905Y-73172320D01*
X99003602Y-73144934D01*
X99011590Y-73118599D01*
X99024561Y-73094333D01*
X99042020Y-73073060D01*
X99063293Y-73055601D01*
X99087559Y-73042630D01*
X99113894Y-73034642D01*
X99134426Y-73032620D01*
X99573977Y-73032620D01*
X99598363Y-73030218D01*
X99621812Y-73023105D01*
X99643423Y-73011554D01*
X99662365Y-72996009D01*
X99677910Y-72977067D01*
X99689461Y-72955456D01*
X99696574Y-72932007D01*
X99698976Y-72907621D01*
X99698374Y-72895364D01*
X99698375Y-72876132D01*
X99693595Y-72852099D01*
X99684219Y-72829460D01*
X99670606Y-72809085D01*
X99653280Y-72791757D01*
X99632906Y-72778142D01*
X99610267Y-72768764D01*
X99586234Y-72763982D01*
X99573977Y-72763380D01*
X99134426Y-72763380D01*
X99113894Y-72761358D01*
X99087559Y-72753370D01*
X99063293Y-72740399D01*
X99042020Y-72722940D01*
X99024561Y-72701667D01*
X99011590Y-72677401D01*
X99003602Y-72651066D01*
X99000905Y-72623680D01*
X99003602Y-72596294D01*
X99011590Y-72569959D01*
X99024561Y-72545693D01*
X99042020Y-72524420D01*
X99063293Y-72506961D01*
X99087559Y-72493990D01*
X99113894Y-72486002D01*
X99134426Y-72483980D01*
X99741249Y-72483980D01*
X99765635Y-72481578D01*
X99789084Y-72474465D01*
X99810695Y-72462914D01*
X99837874Y-72438280D01*
X99838210Y-72437870D01*
X99838212Y-72437867D01*
X99941211Y-72312361D01*
X100066717Y-72209362D01*
X100209905Y-72132826D01*
X100365273Y-72085696D01*
X100365279Y-72085695D01*
X100369958Y-72084276D01*
X100392597Y-72074898D01*
X100412971Y-72061285D01*
X100430298Y-72043958D01*
X100432737Y-72040308D01*
X100437826Y-72045397D01*
X100458200Y-72059011D01*
X100480839Y-72068388D01*
X100517123Y-72073770D01*
X100788037Y-72073770D01*
X100812423Y-72071368D01*
X100835872Y-72064255D01*
X100857483Y-72052704D01*
X100876425Y-72037159D01*
X100891970Y-72018217D01*
X100901611Y-72000180D01*
X100904724Y-72007696D01*
G37*
G36*
X83605500Y-73001000D02*
G01*
X80605500Y-73001000D01*
X80605500Y-70001000D01*
X83605500Y-70001000D01*
X83605500Y-73001000D01*
G37*
G36*
X87415500Y-73001000D02*
G01*
X84415500Y-73001000D01*
X84415500Y-70001000D01*
X87415500Y-70001000D01*
X87415500Y-73001000D01*
G37*
G36*
X93881500Y-72892000D02*
G01*
X92681500Y-72892000D01*
X92681500Y-72142000D01*
X93881500Y-72142000D01*
X93881500Y-72892000D01*
G37*
G36*
X91981500Y-72892000D02*
G01*
X90781500Y-72892000D01*
X90781500Y-72142000D01*
X91981500Y-72142000D01*
X91981500Y-72892000D01*
G37*
G36*
X89109500Y-71380001D02*
G01*
X89111902Y-71404387D01*
X89119015Y-71427836D01*
X89130566Y-71449447D01*
X89139500Y-71460333D01*
X89139500Y-72049667D01*
X89130566Y-72060553D01*
X89119015Y-72082164D01*
X89111902Y-72105613D01*
X89109500Y-72129999D01*
X89109500Y-72755000D01*
X88309500Y-72755000D01*
X88309500Y-72129999D01*
X88307098Y-72105613D01*
X88299985Y-72082164D01*
X88288434Y-72060553D01*
X88279500Y-72049667D01*
X88279500Y-71460333D01*
X88288434Y-71449447D01*
X88299985Y-71427836D01*
X88307098Y-71404387D01*
X88309500Y-71380001D01*
X88309500Y-70755000D01*
X89109500Y-70755000D01*
X89109500Y-71380001D01*
G37*
G36*
X106864500Y-72609000D02*
G01*
X106114500Y-72609000D01*
X106114500Y-71409000D01*
X106864500Y-71409000D01*
X106864500Y-72609000D01*
G37*
G36*
X104324500Y-72233000D02*
G01*
X103574500Y-72233000D01*
X103574500Y-71033000D01*
X104324500Y-71033000D01*
X104324500Y-72233000D01*
G37*
G36*
X98228500Y-72101000D02*
G01*
X97478500Y-72101000D01*
X97478500Y-70901000D01*
X98228500Y-70901000D01*
X98228500Y-72101000D01*
G37*
G36*
X96704500Y-72101000D02*
G01*
X95954500Y-72101000D01*
X95954500Y-70901000D01*
X96704500Y-70901000D01*
X96704500Y-72101000D01*
G37*
G36*
X136041500Y-72097000D02*
G01*
X134341500Y-72097000D01*
X134341500Y-70397000D01*
X136041500Y-70397000D01*
X136041500Y-72097000D01*
G37*
G36*
X128421500Y-72097000D02*
G01*
X126721500Y-72097000D01*
X126721500Y-70397000D01*
X128421500Y-70397000D01*
X128421500Y-72097000D01*
G37*
G36*
X133501500Y-72097000D02*
G01*
X131801500Y-72097000D01*
X131801500Y-70397000D01*
X133501500Y-70397000D01*
X133501500Y-72097000D01*
G37*
G36*
X101927106Y-71002642D02*
G01*
X101953441Y-71010630D01*
X101977707Y-71023601D01*
X101998980Y-71041060D01*
X102016439Y-71062333D01*
X102029410Y-71086599D01*
X102037398Y-71112934D01*
X102039420Y-71133466D01*
X102039420Y-71716134D01*
X102037398Y-71736666D01*
X102029410Y-71763001D01*
X102016439Y-71787267D01*
X102016438Y-71787268D01*
X101998980Y-71808540D01*
X101977708Y-71825998D01*
X101953438Y-71838970D01*
X101927105Y-71846958D01*
X101899720Y-71849655D01*
X101872334Y-71846958D01*
X101845999Y-71838970D01*
X101821733Y-71825999D01*
X101800460Y-71808540D01*
X101783003Y-71787269D01*
X101783002Y-71787267D01*
X101776964Y-71775971D01*
X101770030Y-71762999D01*
X101769147Y-71760087D01*
X101759770Y-71737448D01*
X101746156Y-71717074D01*
X101728829Y-71699747D01*
X101708455Y-71686133D01*
X101685816Y-71676756D01*
X101661783Y-71671975D01*
X101637279Y-71671975D01*
X101613245Y-71676755D01*
X101590606Y-71686132D01*
X101570232Y-71699746D01*
X101552905Y-71717073D01*
X101539291Y-71737447D01*
X101529913Y-71760090D01*
X101529031Y-71762998D01*
X101529030Y-71762999D01*
X101516058Y-71787268D01*
X101498600Y-71808540D01*
X101477328Y-71825998D01*
X101453877Y-71838532D01*
X101453056Y-71838971D01*
X101433045Y-71845041D01*
X101410405Y-71854417D01*
X101390031Y-71868031D01*
X101384819Y-71873243D01*
X101374265Y-71860383D01*
X101344802Y-71838532D01*
X101321352Y-71825998D01*
X101300080Y-71808540D01*
X101282622Y-71787268D01*
X101274407Y-71771899D01*
X101269019Y-71761818D01*
X101260659Y-71741634D01*
X101247045Y-71721260D01*
X101229718Y-71703933D01*
X101209344Y-71690320D01*
X101186705Y-71680942D01*
X101162672Y-71676162D01*
X101138168Y-71676162D01*
X101114134Y-71680943D01*
X101091495Y-71690320D01*
X101071121Y-71703934D01*
X101053794Y-71721261D01*
X101040181Y-71741635D01*
X101031819Y-71761824D01*
X101018219Y-71787267D01*
X101018218Y-71787268D01*
X101000760Y-71808540D01*
X100979488Y-71825998D01*
X100964833Y-71833831D01*
X100956038Y-71838532D01*
X100935663Y-71852146D01*
X100918337Y-71869474D01*
X100904723Y-71889848D01*
X100901611Y-71897362D01*
X100891970Y-71879325D01*
X100876425Y-71860383D01*
X100846962Y-71838532D01*
X100823512Y-71825998D01*
X100802240Y-71808540D01*
X100784782Y-71787268D01*
X100776567Y-71771899D01*
X100771179Y-71761818D01*
X100762819Y-71741634D01*
X100749205Y-71721260D01*
X100731878Y-71703933D01*
X100711504Y-71690320D01*
X100688865Y-71680942D01*
X100664832Y-71676162D01*
X100640328Y-71676162D01*
X100616294Y-71680943D01*
X100593655Y-71690320D01*
X100573281Y-71703934D01*
X100555954Y-71721261D01*
X100542341Y-71741635D01*
X100533979Y-71761824D01*
X100520379Y-71787267D01*
X100520378Y-71787268D01*
X100502920Y-71808540D01*
X100481648Y-71825998D01*
X100466993Y-71833831D01*
X100458198Y-71838532D01*
X100437823Y-71852146D01*
X100420497Y-71869474D01*
X100418060Y-71873122D01*
X100412972Y-71868034D01*
X100392597Y-71854420D01*
X100369958Y-71845042D01*
X100349941Y-71838970D01*
X100349939Y-71838969D01*
X100325673Y-71825999D01*
X100304400Y-71808540D01*
X100286943Y-71787269D01*
X100286942Y-71787267D01*
X100280904Y-71775971D01*
X100273970Y-71762999D01*
X100273087Y-71760087D01*
X100263710Y-71737448D01*
X100250096Y-71717074D01*
X100232769Y-71699747D01*
X100212395Y-71686133D01*
X100189756Y-71676756D01*
X100165723Y-71671975D01*
X100141219Y-71671975D01*
X100117185Y-71676755D01*
X100094546Y-71686132D01*
X100074172Y-71699746D01*
X100056845Y-71717073D01*
X100043231Y-71737447D01*
X100033853Y-71760090D01*
X100032971Y-71762998D01*
X100032970Y-71762999D01*
X100019998Y-71787268D01*
X100002540Y-71808540D01*
X99981268Y-71825998D01*
X99956998Y-71838970D01*
X99930665Y-71846958D01*
X99903280Y-71849655D01*
X99875894Y-71846958D01*
X99849559Y-71838970D01*
X99825293Y-71825999D01*
X99804020Y-71808540D01*
X99786563Y-71787269D01*
X99786562Y-71787267D01*
X99773590Y-71762998D01*
X99765602Y-71736665D01*
X99763580Y-71716133D01*
X99763581Y-71133466D01*
X99765603Y-71112934D01*
X99772706Y-71089517D01*
X99773591Y-71086599D01*
X99786562Y-71062333D01*
X99804021Y-71041060D01*
X99825294Y-71023601D01*
X99849560Y-71010630D01*
X99875895Y-71002642D01*
X99903280Y-70999945D01*
X99930666Y-71002642D01*
X99957001Y-71010630D01*
X99981267Y-71023601D01*
X100002540Y-71041060D01*
X100019999Y-71062333D01*
X100032970Y-71086600D01*
X100033855Y-71089517D01*
X100043233Y-71112155D01*
X100056847Y-71132529D01*
X100074174Y-71149856D01*
X100094549Y-71163469D01*
X100117188Y-71172846D01*
X100141221Y-71177626D01*
X100165726Y-71177626D01*
X100189759Y-71172845D01*
X100212397Y-71163467D01*
X100232771Y-71149853D01*
X100250098Y-71132526D01*
X100263711Y-71112151D01*
X100273089Y-71089509D01*
X100273972Y-71086599D01*
X100286942Y-71062333D01*
X100304401Y-71041060D01*
X100325674Y-71023601D01*
X100349940Y-71010630D01*
X100376275Y-71002642D01*
X100403660Y-70999945D01*
X100431046Y-71002642D01*
X100457381Y-71010630D01*
X100481647Y-71023601D01*
X100502920Y-71041060D01*
X100520379Y-71062333D01*
X100533978Y-71087775D01*
X100542344Y-71107970D01*
X100555958Y-71128344D01*
X100573286Y-71145671D01*
X100593661Y-71159283D01*
X100616300Y-71168660D01*
X100640334Y-71173440D01*
X100664838Y-71173439D01*
X100688871Y-71168657D01*
X100711509Y-71159279D01*
X100731883Y-71145665D01*
X100749210Y-71128337D01*
X100762822Y-71107962D01*
X100771182Y-71087778D01*
X100784782Y-71062333D01*
X100802241Y-71041060D01*
X100823514Y-71023601D01*
X100847780Y-71010630D01*
X100874115Y-71002642D01*
X100901500Y-70999945D01*
X100928886Y-71002642D01*
X100955221Y-71010630D01*
X100979487Y-71023601D01*
X101000760Y-71041060D01*
X101018219Y-71062333D01*
X101031818Y-71087775D01*
X101040184Y-71107970D01*
X101053798Y-71128344D01*
X101071126Y-71145671D01*
X101091501Y-71159283D01*
X101114140Y-71168660D01*
X101138174Y-71173440D01*
X101162678Y-71173439D01*
X101186711Y-71168657D01*
X101209349Y-71159279D01*
X101229723Y-71145665D01*
X101247050Y-71128337D01*
X101260662Y-71107962D01*
X101269022Y-71087778D01*
X101282622Y-71062333D01*
X101300081Y-71041060D01*
X101321354Y-71023601D01*
X101345620Y-71010630D01*
X101371955Y-71002642D01*
X101399340Y-70999945D01*
X101426726Y-71002642D01*
X101453061Y-71010630D01*
X101477327Y-71023601D01*
X101498600Y-71041060D01*
X101516059Y-71062333D01*
X101529030Y-71086600D01*
X101529915Y-71089517D01*
X101539293Y-71112155D01*
X101552907Y-71132529D01*
X101570234Y-71149856D01*
X101590609Y-71163469D01*
X101613248Y-71172846D01*
X101637281Y-71177626D01*
X101661786Y-71177626D01*
X101685819Y-71172845D01*
X101708457Y-71163467D01*
X101728831Y-71149853D01*
X101746158Y-71132526D01*
X101759771Y-71112151D01*
X101769149Y-71089509D01*
X101770032Y-71086599D01*
X101783002Y-71062333D01*
X101800461Y-71041060D01*
X101821734Y-71023601D01*
X101846000Y-71010630D01*
X101872335Y-71002642D01*
X101899720Y-70999945D01*
X101927106Y-71002642D01*
G37*
G36*
X114582500Y-71443000D02*
G01*
X113382500Y-71443000D01*
X113382500Y-70543000D01*
X114582500Y-70543000D01*
X114582500Y-71443000D01*
G37*
G36*
X112382500Y-71443000D02*
G01*
X111182500Y-71443000D01*
X111182500Y-70543000D01*
X112382500Y-70543000D01*
X112382500Y-71443000D01*
G37*
G36*
X93881500Y-71368000D02*
G01*
X92681500Y-71368000D01*
X92681500Y-70618000D01*
X93881500Y-70618000D01*
X93881500Y-71368000D01*
G37*
G36*
X91981500Y-71368000D02*
G01*
X90781500Y-71368000D01*
X90781500Y-70618000D01*
X91981500Y-70618000D01*
X91981500Y-71368000D01*
G37*
G36*
X110640500Y-71368000D02*
G01*
X109440500Y-71368000D01*
X109440500Y-70618000D01*
X110640500Y-70618000D01*
X110640500Y-71368000D01*
G37*
G36*
X108740500Y-71368000D02*
G01*
X107540500Y-71368000D01*
X107540500Y-70618000D01*
X108740500Y-70618000D01*
X108740500Y-71368000D01*
G37*
G36*
X133501500Y-69557000D02*
G01*
X131801500Y-69557000D01*
X131801500Y-67857000D01*
X133501500Y-67857000D01*
X133501500Y-69557000D01*
G37*
G36*
X136041500Y-69557000D02*
G01*
X134341500Y-69557000D01*
X134341500Y-67857000D01*
X136041500Y-67857000D01*
X136041500Y-69557000D01*
G37*
M02*
