G04 #@! TF.GenerationSoftware,KiCad,Pcbnew,(5.1.5)-3*
G04 #@! TF.CreationDate,2020-02-17T19:32:57-05:00*
G04 #@! TF.ProjectId,PicoTrackerWSPR1Rev6,5069636f-5472-4616-936b-657257535052,rev?*
G04 #@! TF.SameCoordinates,Original*
G04 #@! TF.FileFunction,Profile,NP*
%FSLAX46Y46*%
G04 Gerber Fmt 4.6, Leading zero omitted, Abs format (unit mm)*
G04 Created by KiCad (PCBNEW (5.1.5)-3) date 2020-02-17 19:32:57*
%MOMM*%
%LPD*%
G04 APERTURE LIST*
%ADD10C,0.100000*%
G04 APERTURE END LIST*
D10*
X120396000Y-69088000D02*
X118364000Y-69088000D01*
X120396000Y-66548000D02*
X120396000Y-69088000D01*
X77216000Y-69088000D02*
X118364000Y-69088000D01*
X139192000Y-66548000D02*
X120396000Y-66548000D01*
X139192000Y-89916000D02*
X139192000Y-66548000D01*
X118364000Y-89916000D02*
X139192000Y-89916000D01*
X77216000Y-89916000D02*
X118364000Y-89916000D01*
X77216000Y-69088000D02*
X77216000Y-89916000D01*
X79540193Y-79502000D02*
G75*
G03X79540193Y-79502000I-863693J0D01*
G01*
X119600481Y-89281000D02*
G75*
G03X119600481Y-89281000I-283981J0D01*
G01*
X119600481Y-88138000D02*
G75*
G03X119600481Y-88138000I-283981J0D01*
G01*
X119600481Y-86614000D02*
G75*
G03X119600481Y-86614000I-283981J0D01*
G01*
X119600481Y-69850000D02*
G75*
G03X119600481Y-69850000I-283981J0D01*
G01*
X119600481Y-71374000D02*
G75*
G03X119600481Y-71374000I-283981J0D01*
G01*
X119600481Y-72898000D02*
G75*
G03X119600481Y-72898000I-283981J0D01*
G01*
X119600481Y-74422000D02*
G75*
G03X119600481Y-74422000I-283981J0D01*
G01*
X119600481Y-75946000D02*
G75*
G03X119600481Y-75946000I-283981J0D01*
G01*
X119600481Y-77470000D02*
G75*
G03X119600481Y-77470000I-283981J0D01*
G01*
X119600481Y-85090000D02*
G75*
G03X119600481Y-85090000I-283981J0D01*
G01*
X119600481Y-83566000D02*
G75*
G03X119600481Y-83566000I-283981J0D01*
G01*
X119600481Y-82042000D02*
G75*
G03X119600481Y-82042000I-283981J0D01*
G01*
X119600481Y-80518000D02*
G75*
G03X119600481Y-80518000I-283981J0D01*
G01*
X119600481Y-78994000D02*
G75*
G03X119600481Y-78994000I-283981J0D01*
G01*
M02*
