G04 #@! TF.GenerationSoftware,KiCad,Pcbnew,(5.1.5)-3*
G04 #@! TF.CreationDate,2020-02-17T19:32:57-05:00*
G04 #@! TF.ProjectId,PicoTrackerWSPR1Rev6,5069636f-5472-4616-936b-657257535052,rev?*
G04 #@! TF.SameCoordinates,Original*
G04 #@! TF.FileFunction,Paste,Top*
G04 #@! TF.FilePolarity,Positive*
%FSLAX46Y46*%
G04 Gerber Fmt 4.6, Leading zero omitted, Abs format (unit mm)*
G04 Created by KiCad (PCBNEW (5.1.5)-3) date 2020-02-17 19:32:57*
%MOMM*%
%LPD*%
G04 APERTURE LIST*
%ADD10C,0.066040*%
%ADD11C,0.100000*%
%ADD12R,0.750000X1.200000*%
%ADD13R,1.200000X0.750000*%
%ADD14R,1.200000X0.900000*%
%ADD15R,1.550000X1.750000*%
%ADD16R,0.300000X0.800000*%
%ADD17R,1.143000X3.048000*%
%ADD18R,1.798320X0.797560*%
%ADD19R,1.300000X0.248920*%
%ADD20R,0.900000X1.200000*%
%ADD21O,0.279400X0.848360*%
%ADD22O,2.397760X1.648460*%
%ADD23O,3.799840X0.279400*%
%ADD24R,1.397000X1.193800*%
%ADD25R,0.300000X0.550000*%
%ADD26R,0.860000X0.500000*%
G04 APERTURE END LIST*
D10*
X99001580Y-72748140D02*
X99578160Y-72748140D01*
X99578160Y-72748140D02*
X99578160Y-72499220D01*
X99001580Y-72499220D02*
X99578160Y-72499220D01*
X99001580Y-72748140D02*
X99001580Y-72499220D01*
X99001580Y-73296780D02*
X99578160Y-73296780D01*
X99578160Y-73296780D02*
X99578160Y-73047860D01*
X99001580Y-73047860D02*
X99578160Y-73047860D01*
X99001580Y-73296780D02*
X99001580Y-73047860D01*
X99728020Y-72748140D02*
X100751640Y-72748140D01*
X100751640Y-72748140D02*
X100751640Y-72100440D01*
X100751640Y-73695560D02*
X100751640Y-73047860D01*
X99728020Y-73047860D02*
X100751640Y-73047860D01*
X101051360Y-73047860D02*
X102074980Y-73047860D01*
X101051360Y-73695560D02*
X101051360Y-73047860D01*
X101051360Y-72748140D02*
X102074980Y-72748140D01*
X101051360Y-72748140D02*
X101051360Y-72100440D01*
X100246180Y-74518520D02*
X100246180Y-74289920D01*
X100744020Y-74518520D02*
X100744020Y-74289920D01*
X100060760Y-74518520D02*
X100060760Y-74289920D01*
X101241860Y-74518520D02*
X101241860Y-74289920D01*
X100561140Y-74518520D02*
X100561140Y-74289920D01*
X101742240Y-74518520D02*
X101742240Y-74289920D01*
X101058980Y-74518520D02*
X101058980Y-74289920D01*
X101556820Y-74518520D02*
X101556820Y-74289920D01*
X101556820Y-71506080D02*
X101556820Y-71277480D01*
X101742240Y-71506080D02*
X101742240Y-71277480D01*
X101058980Y-71506080D02*
X101058980Y-71277480D01*
X101241860Y-71506080D02*
X101241860Y-71277480D01*
X100561140Y-71506080D02*
X100561140Y-71277480D01*
X100744020Y-71506080D02*
X100744020Y-71277480D01*
X100060760Y-71506080D02*
X100060760Y-71277480D01*
X100246180Y-71506080D02*
X100246180Y-71277480D01*
X102224840Y-73296780D02*
X102801420Y-73296780D01*
X102801420Y-73296780D02*
X102801420Y-73047860D01*
X102224840Y-73047860D02*
X102801420Y-73047860D01*
X102224840Y-73296780D02*
X102224840Y-73047860D01*
X102224840Y-72748140D02*
X102801420Y-72748140D01*
X102801420Y-72748140D02*
X102801420Y-72499220D01*
X102224840Y-72499220D02*
X102801420Y-72499220D01*
X102224840Y-72748140D02*
X102224840Y-72499220D01*
D11*
X100017580Y-74061320D02*
G75*
G03X100017580Y-74061320I-114300J0D01*
G01*
X100517960Y-74061320D02*
G75*
G03X100517960Y-74061320I-114300J0D01*
G01*
X101015800Y-74061320D02*
G75*
G03X101015800Y-74061320I-114300J0D01*
G01*
X101513640Y-74061320D02*
G75*
G03X101513640Y-74061320I-114300J0D01*
G01*
X102014020Y-74061320D02*
G75*
G03X102014020Y-74061320I-114300J0D01*
G01*
X102014020Y-71734680D02*
G75*
G03X102014020Y-71734680I-114300J0D01*
G01*
X101513640Y-71734680D02*
G75*
G03X101513640Y-71734680I-114300J0D01*
G01*
X101015800Y-71734680D02*
G75*
G03X101015800Y-71734680I-114300J0D01*
G01*
X100517960Y-71734680D02*
G75*
G03X100517960Y-71734680I-114300J0D01*
G01*
X100017580Y-71734680D02*
G75*
G03X100017580Y-71734680I-114300J0D01*
G01*
D12*
X106489500Y-72009000D03*
X106489500Y-73909000D03*
X103949500Y-71633000D03*
X103949500Y-73533000D03*
X97853500Y-73401000D03*
X97853500Y-71501000D03*
X96329500Y-71501000D03*
X96329500Y-73401000D03*
D13*
X91381500Y-72517000D03*
X93281500Y-72517000D03*
X91381500Y-70993000D03*
X93281500Y-70993000D03*
D12*
X100393500Y-80137000D03*
X100393500Y-82037000D03*
D13*
X104203500Y-80391000D03*
X102303500Y-80391000D03*
D12*
X106489500Y-75951000D03*
X106489500Y-77851000D03*
X102933500Y-85217000D03*
X102933500Y-87117000D03*
D13*
X108140500Y-70993000D03*
X110040500Y-70993000D03*
D12*
X113347500Y-82799000D03*
X113347500Y-80899000D03*
D14*
X108521500Y-85979000D03*
X106321500Y-85979000D03*
X106321500Y-87757000D03*
X108521500Y-87757000D03*
D15*
X111188500Y-82169000D03*
D16*
X110438500Y-80669000D03*
X110938500Y-80669000D03*
X111438500Y-80669000D03*
X111938500Y-80669000D03*
X111938500Y-83669000D03*
X111438500Y-83669000D03*
X110938500Y-83669000D03*
X110438500Y-83669000D03*
D17*
X101409500Y-77089000D03*
X103568500Y-77089000D03*
D18*
X81295240Y-74515980D03*
X81295240Y-75615800D03*
X81295240Y-76715620D03*
X81295240Y-77815440D03*
X81295240Y-78915260D03*
X81295240Y-80015080D03*
X81295240Y-81117440D03*
X81295240Y-84114640D03*
X81295240Y-85214460D03*
X81295240Y-86314280D03*
X81295240Y-87414100D03*
X81295240Y-88513920D03*
X93291660Y-88513920D03*
X93291660Y-87414100D03*
X93291660Y-86314280D03*
X93291660Y-85214460D03*
X93291660Y-84114640D03*
X93291660Y-81117440D03*
X93291660Y-80015080D03*
X93291660Y-78915260D03*
X93291660Y-77815440D03*
X93291660Y-76715620D03*
X93291660Y-75615800D03*
X93291660Y-74515980D03*
D19*
X96619500Y-84218780D03*
X96619500Y-84719160D03*
X96619500Y-85217000D03*
X96619500Y-85714840D03*
X96619500Y-86215220D03*
X101119500Y-86215220D03*
X101119500Y-85714840D03*
X101119500Y-85217000D03*
X101119500Y-84719160D03*
X101119500Y-84218780D03*
D14*
X112753500Y-85979000D03*
X110553500Y-85979000D03*
X110553500Y-87757000D03*
X112753500Y-87757000D03*
X111782500Y-70993000D03*
X113982500Y-70993000D03*
X108775500Y-82169000D03*
X106575500Y-82169000D03*
X106575500Y-83947000D03*
X108775500Y-83947000D03*
D20*
X95821500Y-79969000D03*
X95821500Y-82169000D03*
X97345500Y-79969000D03*
X97345500Y-82169000D03*
X98869500Y-79969000D03*
X98869500Y-82169000D03*
D21*
X99903280Y-74371200D03*
X100403660Y-74371200D03*
X100901500Y-74371200D03*
X101399340Y-74371200D03*
X101899720Y-74371200D03*
X101899720Y-71424800D03*
X101399340Y-71424800D03*
X100901500Y-71424800D03*
X100403660Y-71424800D03*
X99903280Y-71424800D03*
D22*
X100901500Y-72898000D03*
D23*
X100901500Y-72623680D03*
X100901500Y-73172320D03*
D24*
X98107500Y-76149200D03*
X95897700Y-76149200D03*
X95897700Y-77851000D03*
X98107500Y-77851000D03*
D25*
X88459500Y-72480000D03*
X88959500Y-72480000D03*
X88959500Y-71030000D03*
X88459500Y-71030000D03*
D26*
X88709500Y-71755000D03*
X103187500Y-82677000D03*
D25*
X102937500Y-81952000D03*
X103437500Y-81952000D03*
X103437500Y-83402000D03*
X102937500Y-83402000D03*
D11*
G36*
X108763403Y-76073000D02*
G01*
X111061500Y-73774903D01*
X113359597Y-76073000D01*
X111061500Y-78371097D01*
X108763403Y-76073000D01*
G37*
G36*
X111149889Y-73297606D02*
G01*
X111750929Y-72696566D01*
X111963061Y-72908698D01*
X111362021Y-73509738D01*
X111149889Y-73297606D01*
G37*
G36*
X111503442Y-73651159D02*
G01*
X112104482Y-73050119D01*
X112316614Y-73262251D01*
X111715574Y-73863291D01*
X111503442Y-73651159D01*
G37*
G36*
X111856996Y-74004712D02*
G01*
X112458036Y-73403672D01*
X112670168Y-73615804D01*
X112069128Y-74216844D01*
X111856996Y-74004712D01*
G37*
G36*
X112210549Y-74358266D02*
G01*
X112811589Y-73757226D01*
X113023721Y-73969358D01*
X112422681Y-74570398D01*
X112210549Y-74358266D01*
G37*
G36*
X112564102Y-74711819D02*
G01*
X113165142Y-74110779D01*
X113377274Y-74322911D01*
X112776234Y-74923951D01*
X112564102Y-74711819D01*
G37*
G36*
X112917656Y-75065372D02*
G01*
X113518696Y-74464332D01*
X113730828Y-74676464D01*
X113129788Y-75277504D01*
X112917656Y-75065372D01*
G37*
G36*
X113271209Y-75418926D02*
G01*
X113872249Y-74817886D01*
X114084381Y-75030018D01*
X113483341Y-75631058D01*
X113271209Y-75418926D01*
G37*
G36*
X113624762Y-75772479D02*
G01*
X114225802Y-75171439D01*
X114437934Y-75383571D01*
X113836894Y-75984611D01*
X113624762Y-75772479D01*
G37*
G36*
X114225802Y-76974561D02*
G01*
X113624762Y-76373521D01*
X113836894Y-76161389D01*
X114437934Y-76762429D01*
X114225802Y-76974561D01*
G37*
G36*
X113872249Y-77328114D02*
G01*
X113271209Y-76727074D01*
X113483341Y-76514942D01*
X114084381Y-77115982D01*
X113872249Y-77328114D01*
G37*
G36*
X113518696Y-77681668D02*
G01*
X112917656Y-77080628D01*
X113129788Y-76868496D01*
X113730828Y-77469536D01*
X113518696Y-77681668D01*
G37*
G36*
X113165142Y-78035221D02*
G01*
X112564102Y-77434181D01*
X112776234Y-77222049D01*
X113377274Y-77823089D01*
X113165142Y-78035221D01*
G37*
G36*
X112811589Y-78388774D02*
G01*
X112210549Y-77787734D01*
X112422681Y-77575602D01*
X113023721Y-78176642D01*
X112811589Y-78388774D01*
G37*
G36*
X112458036Y-78742328D02*
G01*
X111856996Y-78141288D01*
X112069128Y-77929156D01*
X112670168Y-78530196D01*
X112458036Y-78742328D01*
G37*
G36*
X112104482Y-79095881D02*
G01*
X111503442Y-78494841D01*
X111715574Y-78282709D01*
X112316614Y-78883749D01*
X112104482Y-79095881D01*
G37*
G36*
X111750929Y-79449434D02*
G01*
X111149889Y-78848394D01*
X111362021Y-78636262D01*
X111963061Y-79237302D01*
X111750929Y-79449434D01*
G37*
G36*
X110159939Y-79237302D02*
G01*
X110760979Y-78636262D01*
X110973111Y-78848394D01*
X110372071Y-79449434D01*
X110159939Y-79237302D01*
G37*
G36*
X109806386Y-78883749D02*
G01*
X110407426Y-78282709D01*
X110619558Y-78494841D01*
X110018518Y-79095881D01*
X109806386Y-78883749D01*
G37*
G36*
X109452832Y-78530196D02*
G01*
X110053872Y-77929156D01*
X110266004Y-78141288D01*
X109664964Y-78742328D01*
X109452832Y-78530196D01*
G37*
G36*
X109099279Y-78176642D02*
G01*
X109700319Y-77575602D01*
X109912451Y-77787734D01*
X109311411Y-78388774D01*
X109099279Y-78176642D01*
G37*
G36*
X108745726Y-77823089D02*
G01*
X109346766Y-77222049D01*
X109558898Y-77434181D01*
X108957858Y-78035221D01*
X108745726Y-77823089D01*
G37*
G36*
X108392172Y-77469536D02*
G01*
X108993212Y-76868496D01*
X109205344Y-77080628D01*
X108604304Y-77681668D01*
X108392172Y-77469536D01*
G37*
G36*
X108038619Y-77115982D02*
G01*
X108639659Y-76514942D01*
X108851791Y-76727074D01*
X108250751Y-77328114D01*
X108038619Y-77115982D01*
G37*
G36*
X107685066Y-76762429D02*
G01*
X108286106Y-76161389D01*
X108498238Y-76373521D01*
X107897198Y-76974561D01*
X107685066Y-76762429D01*
G37*
G36*
X108286106Y-75984611D02*
G01*
X107685066Y-75383571D01*
X107897198Y-75171439D01*
X108498238Y-75772479D01*
X108286106Y-75984611D01*
G37*
G36*
X108639659Y-75631058D02*
G01*
X108038619Y-75030018D01*
X108250751Y-74817886D01*
X108851791Y-75418926D01*
X108639659Y-75631058D01*
G37*
G36*
X108993212Y-75277504D02*
G01*
X108392172Y-74676464D01*
X108604304Y-74464332D01*
X109205344Y-75065372D01*
X108993212Y-75277504D01*
G37*
G36*
X109346766Y-74923951D02*
G01*
X108745726Y-74322911D01*
X108957858Y-74110779D01*
X109558898Y-74711819D01*
X109346766Y-74923951D01*
G37*
G36*
X109700319Y-74570398D02*
G01*
X109099279Y-73969358D01*
X109311411Y-73757226D01*
X109912451Y-74358266D01*
X109700319Y-74570398D01*
G37*
G36*
X110053872Y-74216844D02*
G01*
X109452832Y-73615804D01*
X109664964Y-73403672D01*
X110266004Y-74004712D01*
X110053872Y-74216844D01*
G37*
G36*
X110407426Y-73863291D02*
G01*
X109806386Y-73262251D01*
X110018518Y-73050119D01*
X110619558Y-73651159D01*
X110407426Y-73863291D01*
G37*
G36*
X110760979Y-73509738D02*
G01*
X110159939Y-72908698D01*
X110372071Y-72696566D01*
X110973111Y-73297606D01*
X110760979Y-73509738D01*
G37*
M02*
