G04 #@! TF.GenerationSoftware,KiCad,Pcbnew,(5.1.5)-3*
G04 #@! TF.CreationDate,2020-02-17T19:32:57-05:00*
G04 #@! TF.ProjectId,PicoTrackerWSPR1Rev6,5069636f-5472-4616-936b-657257535052,rev?*
G04 #@! TF.SameCoordinates,Original*
G04 #@! TF.FileFunction,Legend,Bot*
G04 #@! TF.FilePolarity,Positive*
%FSLAX46Y46*%
G04 Gerber Fmt 4.6, Leading zero omitted, Abs format (unit mm)*
G04 Created by KiCad (PCBNEW (5.1.5)-3) date 2020-02-17 19:32:57*
%MOMM*%
%LPD*%
G04 APERTURE LIST*
%ADD10C,0.125000*%
%ADD11C,0.150000*%
G04 APERTURE END LIST*
D10*
X78630428Y-85861714D02*
X78030428Y-85861714D01*
X78630428Y-86204571D02*
X78287571Y-85947428D01*
X78030428Y-86204571D02*
X78373285Y-85861714D01*
X78630428Y-86461714D02*
X78030428Y-86461714D01*
X78630428Y-86804571D01*
X78030428Y-86804571D01*
X78230428Y-87347428D02*
X78630428Y-87347428D01*
X78001857Y-87204571D02*
X78430428Y-87061714D01*
X78430428Y-87433142D01*
X78630428Y-87661714D02*
X78030428Y-87661714D01*
X78030428Y-87947428D02*
X78516142Y-87947428D01*
X78573285Y-87976000D01*
X78601857Y-88004571D01*
X78630428Y-88061714D01*
X78630428Y-88176000D01*
X78601857Y-88233142D01*
X78573285Y-88261714D01*
X78516142Y-88290285D01*
X78030428Y-88290285D01*
X78630428Y-88576000D02*
X78030428Y-88576000D01*
X78030428Y-88718857D01*
X78059000Y-88804571D01*
X78116142Y-88861714D01*
X78173285Y-88890285D01*
X78287571Y-88918857D01*
X78373285Y-88918857D01*
X78487571Y-88890285D01*
X78544714Y-88861714D01*
X78601857Y-88804571D01*
X78630428Y-88718857D01*
X78630428Y-88576000D01*
X78757428Y-70112142D02*
X78157428Y-70112142D01*
X78757428Y-70455000D02*
X78414571Y-70197857D01*
X78157428Y-70455000D02*
X78500285Y-70112142D01*
X78757428Y-70712142D02*
X78157428Y-70712142D01*
X78157428Y-70855000D01*
X78186000Y-70940714D01*
X78243142Y-70997857D01*
X78300285Y-71026428D01*
X78414571Y-71055000D01*
X78500285Y-71055000D01*
X78614571Y-71026428D01*
X78671714Y-70997857D01*
X78728857Y-70940714D01*
X78757428Y-70855000D01*
X78757428Y-70712142D01*
X78214571Y-71283571D02*
X78186000Y-71312142D01*
X78157428Y-71369285D01*
X78157428Y-71512142D01*
X78186000Y-71569285D01*
X78214571Y-71597857D01*
X78271714Y-71626428D01*
X78328857Y-71626428D01*
X78414571Y-71597857D01*
X78757428Y-71255000D01*
X78757428Y-71626428D01*
X78757428Y-71883571D02*
X78157428Y-71883571D01*
X78757428Y-72226428D02*
X78414571Y-71969285D01*
X78157428Y-72226428D02*
X78500285Y-71883571D01*
X78757428Y-72483571D02*
X78157428Y-72483571D01*
X78157428Y-72626428D01*
X78186000Y-72712142D01*
X78243142Y-72769285D01*
X78300285Y-72797857D01*
X78414571Y-72826428D01*
X78500285Y-72826428D01*
X78614571Y-72797857D01*
X78671714Y-72769285D01*
X78728857Y-72712142D01*
X78757428Y-72626428D01*
X78757428Y-72483571D01*
X78757428Y-73083571D02*
X78157428Y-73083571D01*
X78157428Y-73226428D01*
X78186000Y-73312142D01*
X78243142Y-73369285D01*
X78300285Y-73397857D01*
X78414571Y-73426428D01*
X78500285Y-73426428D01*
X78614571Y-73397857D01*
X78671714Y-73369285D01*
X78728857Y-73312142D01*
X78757428Y-73226428D01*
X78757428Y-73083571D01*
D11*
X84649904Y-70861833D02*
X83849904Y-70861833D01*
X84611809Y-70861833D02*
X84649904Y-70785642D01*
X84649904Y-70633261D01*
X84611809Y-70557071D01*
X84573714Y-70518976D01*
X84497523Y-70480880D01*
X84268952Y-70480880D01*
X84192761Y-70518976D01*
X84154666Y-70557071D01*
X84116571Y-70633261D01*
X84116571Y-70785642D01*
X84154666Y-70861833D01*
X84649904Y-71357071D02*
X84611809Y-71280880D01*
X84573714Y-71242785D01*
X84497523Y-71204690D01*
X84268952Y-71204690D01*
X84192761Y-71242785D01*
X84154666Y-71280880D01*
X84116571Y-71357071D01*
X84116571Y-71471357D01*
X84154666Y-71547547D01*
X84192761Y-71585642D01*
X84268952Y-71623738D01*
X84497523Y-71623738D01*
X84573714Y-71585642D01*
X84611809Y-71547547D01*
X84649904Y-71471357D01*
X84649904Y-71357071D01*
X84116571Y-72309452D02*
X84649904Y-72309452D01*
X84116571Y-71966595D02*
X84535619Y-71966595D01*
X84611809Y-72004690D01*
X84649904Y-72080880D01*
X84649904Y-72195166D01*
X84611809Y-72271357D01*
X84573714Y-72309452D01*
X84116571Y-73033261D02*
X84764190Y-73033261D01*
X84840380Y-72995166D01*
X84878476Y-72957071D01*
X84916571Y-72880880D01*
X84916571Y-72766595D01*
X84878476Y-72690404D01*
X84611809Y-73033261D02*
X84649904Y-72957071D01*
X84649904Y-72804690D01*
X84611809Y-72728500D01*
X84573714Y-72690404D01*
X84497523Y-72652309D01*
X84268952Y-72652309D01*
X84192761Y-72690404D01*
X84154666Y-72728500D01*
X84116571Y-72804690D01*
X84116571Y-72957071D01*
X84154666Y-73033261D01*
X84649904Y-73528500D02*
X84611809Y-73452309D01*
X84535619Y-73414214D01*
X83849904Y-73414214D01*
X84649904Y-74176119D02*
X84230857Y-74176119D01*
X84154666Y-74138023D01*
X84116571Y-74061833D01*
X84116571Y-73909452D01*
X84154666Y-73833261D01*
X84611809Y-74176119D02*
X84649904Y-74099928D01*
X84649904Y-73909452D01*
X84611809Y-73833261D01*
X84535619Y-73795166D01*
X84459428Y-73795166D01*
X84383238Y-73833261D01*
X84345142Y-73909452D01*
X84345142Y-74099928D01*
X84307047Y-74176119D01*
X84611809Y-74518976D02*
X84649904Y-74595166D01*
X84649904Y-74747547D01*
X84611809Y-74823738D01*
X84535619Y-74861833D01*
X84497523Y-74861833D01*
X84421333Y-74823738D01*
X84383238Y-74747547D01*
X84383238Y-74633261D01*
X84345142Y-74557071D01*
X84268952Y-74518976D01*
X84230857Y-74518976D01*
X84154666Y-74557071D01*
X84116571Y-74633261D01*
X84116571Y-74747547D01*
X84154666Y-74823738D01*
X84573714Y-75204690D02*
X84611809Y-75242785D01*
X84649904Y-75204690D01*
X84611809Y-75166595D01*
X84573714Y-75204690D01*
X84649904Y-75204690D01*
X84649904Y-75585642D02*
X84116571Y-75585642D01*
X84192761Y-75585642D02*
X84154666Y-75623738D01*
X84116571Y-75699928D01*
X84116571Y-75814214D01*
X84154666Y-75890404D01*
X84230857Y-75928500D01*
X84649904Y-75928500D01*
X84230857Y-75928500D02*
X84154666Y-75966595D01*
X84116571Y-76042785D01*
X84116571Y-76157071D01*
X84154666Y-76233261D01*
X84230857Y-76271357D01*
X84649904Y-76271357D01*
X84649904Y-76995166D02*
X84230857Y-76995166D01*
X84154666Y-76957071D01*
X84116571Y-76880880D01*
X84116571Y-76728500D01*
X84154666Y-76652309D01*
X84611809Y-76995166D02*
X84649904Y-76918976D01*
X84649904Y-76728500D01*
X84611809Y-76652309D01*
X84535619Y-76614214D01*
X84459428Y-76614214D01*
X84383238Y-76652309D01*
X84345142Y-76728500D01*
X84345142Y-76918976D01*
X84307047Y-76995166D01*
X84649904Y-77490404D02*
X84611809Y-77414214D01*
X84535619Y-77376119D01*
X83849904Y-77376119D01*
X84116571Y-77795166D02*
X84649904Y-77795166D01*
X84192761Y-77795166D02*
X84154666Y-77833261D01*
X84116571Y-77909452D01*
X84116571Y-78023738D01*
X84154666Y-78099928D01*
X84230857Y-78138023D01*
X84649904Y-78138023D01*
X84649904Y-78861833D02*
X84230857Y-78861833D01*
X84154666Y-78823738D01*
X84116571Y-78747547D01*
X84116571Y-78595166D01*
X84154666Y-78518976D01*
X84611809Y-78861833D02*
X84649904Y-78785642D01*
X84649904Y-78595166D01*
X84611809Y-78518976D01*
X84535619Y-78480880D01*
X84459428Y-78480880D01*
X84383238Y-78518976D01*
X84345142Y-78595166D01*
X84345142Y-78785642D01*
X84307047Y-78861833D01*
X84116571Y-79128500D02*
X84116571Y-79433261D01*
X83849904Y-79242785D02*
X84535619Y-79242785D01*
X84611809Y-79280880D01*
X84649904Y-79357071D01*
X84649904Y-79433261D01*
X84649904Y-79699928D02*
X84116571Y-79699928D01*
X83849904Y-79699928D02*
X83888000Y-79661833D01*
X83926095Y-79699928D01*
X83888000Y-79738023D01*
X83849904Y-79699928D01*
X83926095Y-79699928D01*
X84268952Y-80576119D02*
X84230857Y-80538023D01*
X84192761Y-80461833D01*
X84192761Y-80385642D01*
X84230857Y-80309452D01*
X84268952Y-80271357D01*
X84345142Y-80233261D01*
X84421333Y-80233261D01*
X84497523Y-80271357D01*
X84535619Y-80309452D01*
X84573714Y-80385642D01*
X84573714Y-80461833D01*
X84535619Y-80538023D01*
X84497523Y-80576119D01*
X84192761Y-80576119D02*
X84497523Y-80576119D01*
X84535619Y-80614214D01*
X84535619Y-80652309D01*
X84497523Y-80728500D01*
X84421333Y-80766595D01*
X84230857Y-80766595D01*
X84116571Y-80690404D01*
X84040380Y-80576119D01*
X84002285Y-80423738D01*
X84040380Y-80271357D01*
X84116571Y-80157071D01*
X84230857Y-80080880D01*
X84383238Y-80042785D01*
X84535619Y-80080880D01*
X84649904Y-80157071D01*
X84726095Y-80271357D01*
X84764190Y-80423738D01*
X84726095Y-80576119D01*
X84649904Y-80690404D01*
X84116571Y-81452309D02*
X84764190Y-81452309D01*
X84840380Y-81414214D01*
X84878476Y-81376119D01*
X84916571Y-81299928D01*
X84916571Y-81185642D01*
X84878476Y-81109452D01*
X84611809Y-81452309D02*
X84649904Y-81376119D01*
X84649904Y-81223738D01*
X84611809Y-81147547D01*
X84573714Y-81109452D01*
X84497523Y-81071357D01*
X84268952Y-81071357D01*
X84192761Y-81109452D01*
X84154666Y-81147547D01*
X84116571Y-81223738D01*
X84116571Y-81376119D01*
X84154666Y-81452309D01*
X84649904Y-81833261D02*
X84116571Y-81833261D01*
X84192761Y-81833261D02*
X84154666Y-81871357D01*
X84116571Y-81947547D01*
X84116571Y-82061833D01*
X84154666Y-82138023D01*
X84230857Y-82176119D01*
X84649904Y-82176119D01*
X84230857Y-82176119D02*
X84154666Y-82214214D01*
X84116571Y-82290404D01*
X84116571Y-82404690D01*
X84154666Y-82480880D01*
X84230857Y-82518976D01*
X84649904Y-82518976D01*
X84649904Y-83242785D02*
X84230857Y-83242785D01*
X84154666Y-83204690D01*
X84116571Y-83128500D01*
X84116571Y-82976119D01*
X84154666Y-82899928D01*
X84611809Y-83242785D02*
X84649904Y-83166595D01*
X84649904Y-82976119D01*
X84611809Y-82899928D01*
X84535619Y-82861833D01*
X84459428Y-82861833D01*
X84383238Y-82899928D01*
X84345142Y-82976119D01*
X84345142Y-83166595D01*
X84307047Y-83242785D01*
X84649904Y-83623738D02*
X84116571Y-83623738D01*
X83849904Y-83623738D02*
X83888000Y-83585642D01*
X83926095Y-83623738D01*
X83888000Y-83661833D01*
X83849904Y-83623738D01*
X83926095Y-83623738D01*
X84649904Y-84118976D02*
X84611809Y-84042785D01*
X84535619Y-84004690D01*
X83849904Y-84004690D01*
X84573714Y-84423738D02*
X84611809Y-84461833D01*
X84649904Y-84423738D01*
X84611809Y-84385642D01*
X84573714Y-84423738D01*
X84649904Y-84423738D01*
X84611809Y-85147547D02*
X84649904Y-85071357D01*
X84649904Y-84918976D01*
X84611809Y-84842785D01*
X84573714Y-84804690D01*
X84497523Y-84766595D01*
X84268952Y-84766595D01*
X84192761Y-84804690D01*
X84154666Y-84842785D01*
X84116571Y-84918976D01*
X84116571Y-85071357D01*
X84154666Y-85147547D01*
X84649904Y-85604690D02*
X84611809Y-85528500D01*
X84573714Y-85490404D01*
X84497523Y-85452309D01*
X84268952Y-85452309D01*
X84192761Y-85490404D01*
X84154666Y-85528500D01*
X84116571Y-85604690D01*
X84116571Y-85718976D01*
X84154666Y-85795166D01*
X84192761Y-85833261D01*
X84268952Y-85871357D01*
X84497523Y-85871357D01*
X84573714Y-85833261D01*
X84611809Y-85795166D01*
X84649904Y-85718976D01*
X84649904Y-85604690D01*
X84649904Y-86214214D02*
X84116571Y-86214214D01*
X84192761Y-86214214D02*
X84154666Y-86252309D01*
X84116571Y-86328500D01*
X84116571Y-86442785D01*
X84154666Y-86518976D01*
X84230857Y-86557071D01*
X84649904Y-86557071D01*
X84230857Y-86557071D02*
X84154666Y-86595166D01*
X84116571Y-86671357D01*
X84116571Y-86785642D01*
X84154666Y-86861833D01*
X84230857Y-86899928D01*
X84649904Y-86899928D01*
X85999904Y-70518976D02*
X85466571Y-70518976D01*
X85542761Y-70518976D02*
X85504666Y-70557071D01*
X85466571Y-70633261D01*
X85466571Y-70747547D01*
X85504666Y-70823738D01*
X85580857Y-70861833D01*
X85999904Y-70861833D01*
X85580857Y-70861833D02*
X85504666Y-70899928D01*
X85466571Y-70976119D01*
X85466571Y-71090404D01*
X85504666Y-71166595D01*
X85580857Y-71204690D01*
X85999904Y-71204690D01*
X85999904Y-71928500D02*
X85580857Y-71928500D01*
X85504666Y-71890404D01*
X85466571Y-71814214D01*
X85466571Y-71661833D01*
X85504666Y-71585642D01*
X85961809Y-71928500D02*
X85999904Y-71852309D01*
X85999904Y-71661833D01*
X85961809Y-71585642D01*
X85885619Y-71547547D01*
X85809428Y-71547547D01*
X85733238Y-71585642D01*
X85695142Y-71661833D01*
X85695142Y-71852309D01*
X85657047Y-71928500D01*
X85999904Y-72309452D02*
X85466571Y-72309452D01*
X85618952Y-72309452D02*
X85542761Y-72347547D01*
X85504666Y-72385642D01*
X85466571Y-72461833D01*
X85466571Y-72538023D01*
X85999904Y-72804690D02*
X85199904Y-72804690D01*
X85695142Y-72880880D02*
X85999904Y-73109452D01*
X85466571Y-73109452D02*
X85771333Y-72804690D01*
X85923714Y-73452309D02*
X85961809Y-73490404D01*
X85999904Y-73452309D01*
X85961809Y-73414214D01*
X85923714Y-73452309D01*
X85999904Y-73452309D01*
X85999904Y-73833261D02*
X85466571Y-73833261D01*
X85542761Y-73833261D02*
X85504666Y-73871357D01*
X85466571Y-73947547D01*
X85466571Y-74061833D01*
X85504666Y-74138023D01*
X85580857Y-74176119D01*
X85999904Y-74176119D01*
X85580857Y-74176119D02*
X85504666Y-74214214D01*
X85466571Y-74290404D01*
X85466571Y-74404690D01*
X85504666Y-74480880D01*
X85580857Y-74518976D01*
X85999904Y-74518976D01*
X85999904Y-75242785D02*
X85580857Y-75242785D01*
X85504666Y-75204690D01*
X85466571Y-75128500D01*
X85466571Y-74976119D01*
X85504666Y-74899928D01*
X85961809Y-75242785D02*
X85999904Y-75166595D01*
X85999904Y-74976119D01*
X85961809Y-74899928D01*
X85885619Y-74861833D01*
X85809428Y-74861833D01*
X85733238Y-74899928D01*
X85695142Y-74976119D01*
X85695142Y-75166595D01*
X85657047Y-75242785D01*
X85999904Y-75738023D02*
X85961809Y-75661833D01*
X85885619Y-75623738D01*
X85199904Y-75623738D01*
X85466571Y-76042785D02*
X85999904Y-76042785D01*
X85542761Y-76042785D02*
X85504666Y-76080880D01*
X85466571Y-76157071D01*
X85466571Y-76271357D01*
X85504666Y-76347547D01*
X85580857Y-76385642D01*
X85999904Y-76385642D01*
X85999904Y-77109452D02*
X85580857Y-77109452D01*
X85504666Y-77071357D01*
X85466571Y-76995166D01*
X85466571Y-76842785D01*
X85504666Y-76766595D01*
X85961809Y-77109452D02*
X85999904Y-77033261D01*
X85999904Y-76842785D01*
X85961809Y-76766595D01*
X85885619Y-76728500D01*
X85809428Y-76728500D01*
X85733238Y-76766595D01*
X85695142Y-76842785D01*
X85695142Y-77033261D01*
X85657047Y-77109452D01*
X85466571Y-77376119D02*
X85466571Y-77680880D01*
X85199904Y-77490404D02*
X85885619Y-77490404D01*
X85961809Y-77528500D01*
X85999904Y-77604690D01*
X85999904Y-77680880D01*
X85999904Y-77947547D02*
X85466571Y-77947547D01*
X85199904Y-77947547D02*
X85238000Y-77909452D01*
X85276095Y-77947547D01*
X85238000Y-77985642D01*
X85199904Y-77947547D01*
X85276095Y-77947547D01*
X85618952Y-78823738D02*
X85580857Y-78785642D01*
X85542761Y-78709452D01*
X85542761Y-78633261D01*
X85580857Y-78557071D01*
X85618952Y-78518976D01*
X85695142Y-78480880D01*
X85771333Y-78480880D01*
X85847523Y-78518976D01*
X85885619Y-78557071D01*
X85923714Y-78633261D01*
X85923714Y-78709452D01*
X85885619Y-78785642D01*
X85847523Y-78823738D01*
X85542761Y-78823738D02*
X85847523Y-78823738D01*
X85885619Y-78861833D01*
X85885619Y-78899928D01*
X85847523Y-78976119D01*
X85771333Y-79014214D01*
X85580857Y-79014214D01*
X85466571Y-78938023D01*
X85390380Y-78823738D01*
X85352285Y-78671357D01*
X85390380Y-78518976D01*
X85466571Y-78404690D01*
X85580857Y-78328500D01*
X85733238Y-78290404D01*
X85885619Y-78328500D01*
X85999904Y-78404690D01*
X86076095Y-78518976D01*
X86114190Y-78671357D01*
X86076095Y-78823738D01*
X85999904Y-78938023D01*
X85466571Y-79699928D02*
X86114190Y-79699928D01*
X86190380Y-79661833D01*
X86228476Y-79623738D01*
X86266571Y-79547547D01*
X86266571Y-79433261D01*
X86228476Y-79357071D01*
X85961809Y-79699928D02*
X85999904Y-79623738D01*
X85999904Y-79471357D01*
X85961809Y-79395166D01*
X85923714Y-79357071D01*
X85847523Y-79318976D01*
X85618952Y-79318976D01*
X85542761Y-79357071D01*
X85504666Y-79395166D01*
X85466571Y-79471357D01*
X85466571Y-79623738D01*
X85504666Y-79699928D01*
X85999904Y-80080880D02*
X85466571Y-80080880D01*
X85542761Y-80080880D02*
X85504666Y-80118976D01*
X85466571Y-80195166D01*
X85466571Y-80309452D01*
X85504666Y-80385642D01*
X85580857Y-80423738D01*
X85999904Y-80423738D01*
X85580857Y-80423738D02*
X85504666Y-80461833D01*
X85466571Y-80538023D01*
X85466571Y-80652309D01*
X85504666Y-80728500D01*
X85580857Y-80766595D01*
X85999904Y-80766595D01*
X85999904Y-81490404D02*
X85580857Y-81490404D01*
X85504666Y-81452309D01*
X85466571Y-81376119D01*
X85466571Y-81223738D01*
X85504666Y-81147547D01*
X85961809Y-81490404D02*
X85999904Y-81414214D01*
X85999904Y-81223738D01*
X85961809Y-81147547D01*
X85885619Y-81109452D01*
X85809428Y-81109452D01*
X85733238Y-81147547D01*
X85695142Y-81223738D01*
X85695142Y-81414214D01*
X85657047Y-81490404D01*
X85999904Y-81871357D02*
X85466571Y-81871357D01*
X85199904Y-81871357D02*
X85238000Y-81833261D01*
X85276095Y-81871357D01*
X85238000Y-81909452D01*
X85199904Y-81871357D01*
X85276095Y-81871357D01*
X85999904Y-82366595D02*
X85961809Y-82290404D01*
X85885619Y-82252309D01*
X85199904Y-82252309D01*
X85923714Y-82671357D02*
X85961809Y-82709452D01*
X85999904Y-82671357D01*
X85961809Y-82633261D01*
X85923714Y-82671357D01*
X85999904Y-82671357D01*
X85961809Y-83395166D02*
X85999904Y-83318976D01*
X85999904Y-83166595D01*
X85961809Y-83090404D01*
X85923714Y-83052309D01*
X85847523Y-83014214D01*
X85618952Y-83014214D01*
X85542761Y-83052309D01*
X85504666Y-83090404D01*
X85466571Y-83166595D01*
X85466571Y-83318976D01*
X85504666Y-83395166D01*
X85999904Y-83852309D02*
X85961809Y-83776119D01*
X85923714Y-83738023D01*
X85847523Y-83699928D01*
X85618952Y-83699928D01*
X85542761Y-83738023D01*
X85504666Y-83776119D01*
X85466571Y-83852309D01*
X85466571Y-83966595D01*
X85504666Y-84042785D01*
X85542761Y-84080880D01*
X85618952Y-84118976D01*
X85847523Y-84118976D01*
X85923714Y-84080880D01*
X85961809Y-84042785D01*
X85999904Y-83966595D01*
X85999904Y-83852309D01*
X85999904Y-84461833D02*
X85466571Y-84461833D01*
X85542761Y-84461833D02*
X85504666Y-84499928D01*
X85466571Y-84576119D01*
X85466571Y-84690404D01*
X85504666Y-84766595D01*
X85580857Y-84804690D01*
X85999904Y-84804690D01*
X85580857Y-84804690D02*
X85504666Y-84842785D01*
X85466571Y-84918976D01*
X85466571Y-85033261D01*
X85504666Y-85109452D01*
X85580857Y-85147547D01*
X85999904Y-85147547D01*
X80748714Y-70439595D02*
X81748714Y-70439595D01*
X80796333Y-70439595D02*
X80748714Y-70534833D01*
X80748714Y-70725309D01*
X80796333Y-70820547D01*
X80843952Y-70868166D01*
X80939190Y-70915785D01*
X81224904Y-70915785D01*
X81320142Y-70868166D01*
X81367761Y-70820547D01*
X81415380Y-70725309D01*
X81415380Y-70534833D01*
X81367761Y-70439595D01*
X81415380Y-71344357D02*
X80748714Y-71344357D01*
X80415380Y-71344357D02*
X80463000Y-71296738D01*
X80510619Y-71344357D01*
X80463000Y-71391976D01*
X80415380Y-71344357D01*
X80510619Y-71344357D01*
X81367761Y-72249119D02*
X81415380Y-72153880D01*
X81415380Y-71963404D01*
X81367761Y-71868166D01*
X81320142Y-71820547D01*
X81224904Y-71772928D01*
X80939190Y-71772928D01*
X80843952Y-71820547D01*
X80796333Y-71868166D01*
X80748714Y-71963404D01*
X80748714Y-72153880D01*
X80796333Y-72249119D01*
X81415380Y-72820547D02*
X81367761Y-72725309D01*
X81320142Y-72677690D01*
X81224904Y-72630071D01*
X80939190Y-72630071D01*
X80843952Y-72677690D01*
X80796333Y-72725309D01*
X80748714Y-72820547D01*
X80748714Y-72963404D01*
X80796333Y-73058642D01*
X80843952Y-73106261D01*
X80939190Y-73153880D01*
X81224904Y-73153880D01*
X81320142Y-73106261D01*
X81367761Y-73058642D01*
X81415380Y-72963404D01*
X81415380Y-72820547D01*
X81415380Y-73582452D02*
X80415380Y-73582452D01*
X80796333Y-73582452D02*
X80748714Y-73677690D01*
X80748714Y-73868166D01*
X80796333Y-73963404D01*
X80843952Y-74011023D01*
X80939190Y-74058642D01*
X81224904Y-74058642D01*
X81320142Y-74011023D01*
X81367761Y-73963404D01*
X81415380Y-73868166D01*
X81415380Y-73677690D01*
X81367761Y-73582452D01*
X81415380Y-74915785D02*
X80891571Y-74915785D01*
X80796333Y-74868166D01*
X80748714Y-74772928D01*
X80748714Y-74582452D01*
X80796333Y-74487214D01*
X81367761Y-74915785D02*
X81415380Y-74820547D01*
X81415380Y-74582452D01*
X81367761Y-74487214D01*
X81272523Y-74439595D01*
X81177285Y-74439595D01*
X81082047Y-74487214D01*
X81034428Y-74582452D01*
X81034428Y-74820547D01*
X80986809Y-74915785D01*
X81415380Y-75534833D02*
X81367761Y-75439595D01*
X81272523Y-75391976D01*
X80415380Y-75391976D01*
X81415380Y-76058642D02*
X81367761Y-75963404D01*
X81272523Y-75915785D01*
X80415380Y-75915785D01*
X81415380Y-76582452D02*
X81367761Y-76487214D01*
X81320142Y-76439595D01*
X81224904Y-76391976D01*
X80939190Y-76391976D01*
X80843952Y-76439595D01*
X80796333Y-76487214D01*
X80748714Y-76582452D01*
X80748714Y-76725309D01*
X80796333Y-76820547D01*
X80843952Y-76868166D01*
X80939190Y-76915785D01*
X81224904Y-76915785D01*
X81320142Y-76868166D01*
X81367761Y-76820547D01*
X81415380Y-76725309D01*
X81415380Y-76582452D01*
X81415380Y-77487214D02*
X81367761Y-77391976D01*
X81320142Y-77344357D01*
X81224904Y-77296738D01*
X80939190Y-77296738D01*
X80843952Y-77344357D01*
X80796333Y-77391976D01*
X80748714Y-77487214D01*
X80748714Y-77630071D01*
X80796333Y-77725309D01*
X80843952Y-77772928D01*
X80939190Y-77820547D01*
X81224904Y-77820547D01*
X81320142Y-77772928D01*
X81367761Y-77725309D01*
X81415380Y-77630071D01*
X81415380Y-77487214D01*
X80748714Y-78249119D02*
X81415380Y-78249119D01*
X80843952Y-78249119D02*
X80796333Y-78296738D01*
X80748714Y-78391976D01*
X80748714Y-78534833D01*
X80796333Y-78630071D01*
X80891571Y-78677690D01*
X81415380Y-78677690D01*
X81367761Y-79106261D02*
X81415380Y-79201500D01*
X81415380Y-79391976D01*
X81367761Y-79487214D01*
X81272523Y-79534833D01*
X81224904Y-79534833D01*
X81129666Y-79487214D01*
X81082047Y-79391976D01*
X81082047Y-79249119D01*
X81034428Y-79153880D01*
X80939190Y-79106261D01*
X80891571Y-79106261D01*
X80796333Y-79153880D01*
X80748714Y-79249119D01*
X80748714Y-79391976D01*
X80796333Y-79487214D01*
X81320142Y-79963404D02*
X81367761Y-80011023D01*
X81415380Y-79963404D01*
X81367761Y-79915785D01*
X81320142Y-79963404D01*
X81415380Y-79963404D01*
X80748714Y-80439595D02*
X81415380Y-80439595D01*
X80843952Y-80439595D02*
X80796333Y-80487214D01*
X80748714Y-80582452D01*
X80748714Y-80725309D01*
X80796333Y-80820547D01*
X80891571Y-80868166D01*
X81415380Y-80868166D01*
X81367761Y-81725309D02*
X81415380Y-81630071D01*
X81415380Y-81439595D01*
X81367761Y-81344357D01*
X81272523Y-81296738D01*
X80891571Y-81296738D01*
X80796333Y-81344357D01*
X80748714Y-81439595D01*
X80748714Y-81630071D01*
X80796333Y-81725309D01*
X80891571Y-81772928D01*
X80986809Y-81772928D01*
X81082047Y-81296738D01*
X80748714Y-82058642D02*
X80748714Y-82439595D01*
X80415380Y-82201500D02*
X81272523Y-82201500D01*
X81367761Y-82249119D01*
X81415380Y-82344357D01*
X81415380Y-82439595D01*
X83065380Y-70439595D02*
X82065380Y-70439595D01*
X82065380Y-70820547D01*
X82113000Y-70915785D01*
X82160619Y-70963404D01*
X82255857Y-71011023D01*
X82398714Y-71011023D01*
X82493952Y-70963404D01*
X82541571Y-70915785D01*
X82589190Y-70820547D01*
X82589190Y-70439595D01*
X83065380Y-71582452D02*
X83017761Y-71487214D01*
X82922523Y-71439595D01*
X82065380Y-71439595D01*
X83017761Y-72344357D02*
X83065380Y-72249119D01*
X83065380Y-72058642D01*
X83017761Y-71963404D01*
X82922523Y-71915785D01*
X82541571Y-71915785D01*
X82446333Y-71963404D01*
X82398714Y-72058642D01*
X82398714Y-72249119D01*
X82446333Y-72344357D01*
X82541571Y-72391976D01*
X82636809Y-72391976D01*
X82732047Y-71915785D01*
X83065380Y-73249119D02*
X82541571Y-73249119D01*
X82446333Y-73201500D01*
X82398714Y-73106261D01*
X82398714Y-72915785D01*
X82446333Y-72820547D01*
X83017761Y-73249119D02*
X83065380Y-73153880D01*
X83065380Y-72915785D01*
X83017761Y-72820547D01*
X82922523Y-72772928D01*
X82827285Y-72772928D01*
X82732047Y-72820547D01*
X82684428Y-72915785D01*
X82684428Y-73153880D01*
X82636809Y-73249119D01*
X83017761Y-73677690D02*
X83065380Y-73772928D01*
X83065380Y-73963404D01*
X83017761Y-74058642D01*
X82922523Y-74106261D01*
X82874904Y-74106261D01*
X82779666Y-74058642D01*
X82732047Y-73963404D01*
X82732047Y-73820547D01*
X82684428Y-73725309D01*
X82589190Y-73677690D01*
X82541571Y-73677690D01*
X82446333Y-73725309D01*
X82398714Y-73820547D01*
X82398714Y-73963404D01*
X82446333Y-74058642D01*
X83017761Y-74915785D02*
X83065380Y-74820547D01*
X83065380Y-74630071D01*
X83017761Y-74534833D01*
X82922523Y-74487214D01*
X82541571Y-74487214D01*
X82446333Y-74534833D01*
X82398714Y-74630071D01*
X82398714Y-74820547D01*
X82446333Y-74915785D01*
X82541571Y-74963404D01*
X82636809Y-74963404D01*
X82732047Y-74487214D01*
X83017761Y-76582452D02*
X83065380Y-76487214D01*
X83065380Y-76296738D01*
X83017761Y-76201500D01*
X82970142Y-76153880D01*
X82874904Y-76106261D01*
X82589190Y-76106261D01*
X82493952Y-76153880D01*
X82446333Y-76201500D01*
X82398714Y-76296738D01*
X82398714Y-76487214D01*
X82446333Y-76582452D01*
X83065380Y-77153880D02*
X83017761Y-77058642D01*
X82970142Y-77011023D01*
X82874904Y-76963404D01*
X82589190Y-76963404D01*
X82493952Y-77011023D01*
X82446333Y-77058642D01*
X82398714Y-77153880D01*
X82398714Y-77296738D01*
X82446333Y-77391976D01*
X82493952Y-77439595D01*
X82589190Y-77487214D01*
X82874904Y-77487214D01*
X82970142Y-77439595D01*
X83017761Y-77391976D01*
X83065380Y-77296738D01*
X83065380Y-77153880D01*
X82398714Y-77915785D02*
X83065380Y-77915785D01*
X82493952Y-77915785D02*
X82446333Y-77963404D01*
X82398714Y-78058642D01*
X82398714Y-78201500D01*
X82446333Y-78296738D01*
X82541571Y-78344357D01*
X83065380Y-78344357D01*
X82398714Y-78677690D02*
X82398714Y-79058642D01*
X82065380Y-78820547D02*
X82922523Y-78820547D01*
X83017761Y-78868166D01*
X83065380Y-78963404D01*
X83065380Y-79058642D01*
X83065380Y-79820547D02*
X82541571Y-79820547D01*
X82446333Y-79772928D01*
X82398714Y-79677690D01*
X82398714Y-79487214D01*
X82446333Y-79391976D01*
X83017761Y-79820547D02*
X83065380Y-79725309D01*
X83065380Y-79487214D01*
X83017761Y-79391976D01*
X82922523Y-79344357D01*
X82827285Y-79344357D01*
X82732047Y-79391976D01*
X82684428Y-79487214D01*
X82684428Y-79725309D01*
X82636809Y-79820547D01*
X83017761Y-80725309D02*
X83065380Y-80630071D01*
X83065380Y-80439595D01*
X83017761Y-80344357D01*
X82970142Y-80296738D01*
X82874904Y-80249119D01*
X82589190Y-80249119D01*
X82493952Y-80296738D01*
X82446333Y-80344357D01*
X82398714Y-80439595D01*
X82398714Y-80630071D01*
X82446333Y-80725309D01*
X82398714Y-81011023D02*
X82398714Y-81391976D01*
X82065380Y-81153880D02*
X82922523Y-81153880D01*
X83017761Y-81201500D01*
X83065380Y-81296738D01*
X83065380Y-81391976D01*
X83065380Y-82487214D02*
X82398714Y-82487214D01*
X82065380Y-82487214D02*
X82113000Y-82439595D01*
X82160619Y-82487214D01*
X82113000Y-82534833D01*
X82065380Y-82487214D01*
X82160619Y-82487214D01*
X82398714Y-82820547D02*
X82398714Y-83201500D01*
X83065380Y-82963404D02*
X82208238Y-82963404D01*
X82113000Y-83011023D01*
X82065380Y-83106261D01*
X82065380Y-83201500D01*
X82398714Y-84153880D02*
X82398714Y-84534833D01*
X83065380Y-84296738D02*
X82208238Y-84296738D01*
X82113000Y-84344357D01*
X82065380Y-84439595D01*
X82065380Y-84534833D01*
X83065380Y-85011023D02*
X83017761Y-84915785D01*
X82970142Y-84868166D01*
X82874904Y-84820547D01*
X82589190Y-84820547D01*
X82493952Y-84868166D01*
X82446333Y-84915785D01*
X82398714Y-85011023D01*
X82398714Y-85153880D01*
X82446333Y-85249119D01*
X82493952Y-85296738D01*
X82589190Y-85344357D01*
X82874904Y-85344357D01*
X82970142Y-85296738D01*
X83017761Y-85249119D01*
X83065380Y-85153880D01*
X83065380Y-85011023D01*
X82398714Y-86201500D02*
X83065380Y-86201500D01*
X82398714Y-85772928D02*
X82922523Y-85772928D01*
X83017761Y-85820547D01*
X83065380Y-85915785D01*
X83065380Y-86058642D01*
X83017761Y-86153880D01*
X82970142Y-86201500D01*
X82398714Y-86677690D02*
X83065380Y-86677690D01*
X82493952Y-86677690D02*
X82446333Y-86725309D01*
X82398714Y-86820547D01*
X82398714Y-86963404D01*
X82446333Y-87058642D01*
X82541571Y-87106261D01*
X83065380Y-87106261D01*
X83065380Y-88011023D02*
X82065380Y-88011023D01*
X83017761Y-88011023D02*
X83065380Y-87915785D01*
X83065380Y-87725309D01*
X83017761Y-87630071D01*
X82970142Y-87582452D01*
X82874904Y-87534833D01*
X82589190Y-87534833D01*
X82493952Y-87582452D01*
X82446333Y-87630071D01*
X82398714Y-87725309D01*
X82398714Y-87915785D01*
X82446333Y-88011023D01*
X82970142Y-88487214D02*
X83017761Y-88534833D01*
X83065380Y-88487214D01*
X83017761Y-88439595D01*
X82970142Y-88487214D01*
X83065380Y-88487214D01*
X82684428Y-88487214D02*
X82113000Y-88439595D01*
X82065380Y-88487214D01*
X82113000Y-88534833D01*
X82684428Y-88487214D01*
X82065380Y-88487214D01*
X110165619Y-73058976D02*
X110118000Y-73106595D01*
X110070380Y-73201833D01*
X110070380Y-73439928D01*
X110118000Y-73535166D01*
X110165619Y-73582785D01*
X110260857Y-73630404D01*
X110356095Y-73630404D01*
X110498952Y-73582785D01*
X111070380Y-73011357D01*
X111070380Y-73630404D01*
X110070380Y-74249452D02*
X110070380Y-74344690D01*
X110118000Y-74439928D01*
X110165619Y-74487547D01*
X110260857Y-74535166D01*
X110451333Y-74582785D01*
X110689428Y-74582785D01*
X110879904Y-74535166D01*
X110975142Y-74487547D01*
X111022761Y-74439928D01*
X111070380Y-74344690D01*
X111070380Y-74249452D01*
X111022761Y-74154214D01*
X110975142Y-74106595D01*
X110879904Y-74058976D01*
X110689428Y-74011357D01*
X110451333Y-74011357D01*
X110260857Y-74058976D01*
X110165619Y-74106595D01*
X110118000Y-74154214D01*
X110070380Y-74249452D01*
X110165619Y-74963738D02*
X110118000Y-75011357D01*
X110070380Y-75106595D01*
X110070380Y-75344690D01*
X110118000Y-75439928D01*
X110165619Y-75487547D01*
X110260857Y-75535166D01*
X110356095Y-75535166D01*
X110498952Y-75487547D01*
X111070380Y-74916119D01*
X111070380Y-75535166D01*
X110070380Y-76154214D02*
X110070380Y-76249452D01*
X110118000Y-76344690D01*
X110165619Y-76392309D01*
X110260857Y-76439928D01*
X110451333Y-76487547D01*
X110689428Y-76487547D01*
X110879904Y-76439928D01*
X110975142Y-76392309D01*
X111022761Y-76344690D01*
X111070380Y-76249452D01*
X111070380Y-76154214D01*
X111022761Y-76058976D01*
X110975142Y-76011357D01*
X110879904Y-75963738D01*
X110689428Y-75916119D01*
X110451333Y-75916119D01*
X110260857Y-75963738D01*
X110165619Y-76011357D01*
X110118000Y-76058976D01*
X110070380Y-76154214D01*
X110689428Y-76916119D02*
X110689428Y-77678023D01*
X110070380Y-78344690D02*
X110070380Y-78439928D01*
X110118000Y-78535166D01*
X110165619Y-78582785D01*
X110260857Y-78630404D01*
X110451333Y-78678023D01*
X110689428Y-78678023D01*
X110879904Y-78630404D01*
X110975142Y-78582785D01*
X111022761Y-78535166D01*
X111070380Y-78439928D01*
X111070380Y-78344690D01*
X111022761Y-78249452D01*
X110975142Y-78201833D01*
X110879904Y-78154214D01*
X110689428Y-78106595D01*
X110451333Y-78106595D01*
X110260857Y-78154214D01*
X110165619Y-78201833D01*
X110118000Y-78249452D01*
X110070380Y-78344690D01*
X110165619Y-79058976D02*
X110118000Y-79106595D01*
X110070380Y-79201833D01*
X110070380Y-79439928D01*
X110118000Y-79535166D01*
X110165619Y-79582785D01*
X110260857Y-79630404D01*
X110356095Y-79630404D01*
X110498952Y-79582785D01*
X111070380Y-79011357D01*
X111070380Y-79630404D01*
X110689428Y-80058976D02*
X110689428Y-80820880D01*
X111070380Y-81820880D02*
X111070380Y-81249452D01*
X111070380Y-81535166D02*
X110070380Y-81535166D01*
X110213238Y-81439928D01*
X110308476Y-81344690D01*
X110356095Y-81249452D01*
X110070380Y-82154214D02*
X110070380Y-82820880D01*
X111070380Y-82392309D01*
X112720380Y-73106595D02*
X111720380Y-73106595D01*
X111720380Y-73487547D01*
X111768000Y-73582785D01*
X111815619Y-73630404D01*
X111910857Y-73678023D01*
X112053714Y-73678023D01*
X112148952Y-73630404D01*
X112196571Y-73582785D01*
X112244190Y-73487547D01*
X112244190Y-73106595D01*
X112720380Y-74106595D02*
X112053714Y-74106595D01*
X111720380Y-74106595D02*
X111768000Y-74058976D01*
X111815619Y-74106595D01*
X111768000Y-74154214D01*
X111720380Y-74106595D01*
X111815619Y-74106595D01*
X112672761Y-75011357D02*
X112720380Y-74916119D01*
X112720380Y-74725642D01*
X112672761Y-74630404D01*
X112625142Y-74582785D01*
X112529904Y-74535166D01*
X112244190Y-74535166D01*
X112148952Y-74582785D01*
X112101333Y-74630404D01*
X112053714Y-74725642D01*
X112053714Y-74916119D01*
X112101333Y-75011357D01*
X112720380Y-75582785D02*
X112672761Y-75487547D01*
X112625142Y-75439928D01*
X112529904Y-75392309D01*
X112244190Y-75392309D01*
X112148952Y-75439928D01*
X112101333Y-75487547D01*
X112053714Y-75582785D01*
X112053714Y-75725642D01*
X112101333Y-75820880D01*
X112148952Y-75868500D01*
X112244190Y-75916119D01*
X112529904Y-75916119D01*
X112625142Y-75868500D01*
X112672761Y-75820880D01*
X112720380Y-75725642D01*
X112720380Y-75582785D01*
X111720380Y-76201833D02*
X111720380Y-76773261D01*
X112720380Y-76487547D02*
X111720380Y-76487547D01*
X112720380Y-77106595D02*
X112053714Y-77106595D01*
X112244190Y-77106595D02*
X112148952Y-77154214D01*
X112101333Y-77201833D01*
X112053714Y-77297071D01*
X112053714Y-77392309D01*
X112720380Y-78154214D02*
X112196571Y-78154214D01*
X112101333Y-78106595D01*
X112053714Y-78011357D01*
X112053714Y-77820880D01*
X112101333Y-77725642D01*
X112672761Y-78154214D02*
X112720380Y-78058976D01*
X112720380Y-77820880D01*
X112672761Y-77725642D01*
X112577523Y-77678023D01*
X112482285Y-77678023D01*
X112387047Y-77725642D01*
X112339428Y-77820880D01*
X112339428Y-78058976D01*
X112291809Y-78154214D01*
X112672761Y-79058976D02*
X112720380Y-78963738D01*
X112720380Y-78773261D01*
X112672761Y-78678023D01*
X112625142Y-78630404D01*
X112529904Y-78582785D01*
X112244190Y-78582785D01*
X112148952Y-78630404D01*
X112101333Y-78678023D01*
X112053714Y-78773261D01*
X112053714Y-78963738D01*
X112101333Y-79058976D01*
X112720380Y-79487547D02*
X111720380Y-79487547D01*
X112339428Y-79582785D02*
X112720380Y-79868500D01*
X112053714Y-79868500D02*
X112434666Y-79487547D01*
X112672761Y-80678023D02*
X112720380Y-80582785D01*
X112720380Y-80392309D01*
X112672761Y-80297071D01*
X112577523Y-80249452D01*
X112196571Y-80249452D01*
X112101333Y-80297071D01*
X112053714Y-80392309D01*
X112053714Y-80582785D01*
X112101333Y-80678023D01*
X112196571Y-80725642D01*
X112291809Y-80725642D01*
X112387047Y-80249452D01*
X112720380Y-81154214D02*
X112053714Y-81154214D01*
X112244190Y-81154214D02*
X112148952Y-81201833D01*
X112101333Y-81249452D01*
X112053714Y-81344690D01*
X112053714Y-81439928D01*
X111720380Y-81678023D02*
X112720380Y-81916119D01*
X112006095Y-82106595D01*
X112720380Y-82297071D01*
X111720380Y-82535166D01*
X112672761Y-82868500D02*
X112720380Y-83011357D01*
X112720380Y-83249452D01*
X112672761Y-83344690D01*
X112625142Y-83392309D01*
X112529904Y-83439928D01*
X112434666Y-83439928D01*
X112339428Y-83392309D01*
X112291809Y-83344690D01*
X112244190Y-83249452D01*
X112196571Y-83058976D01*
X112148952Y-82963738D01*
X112101333Y-82916119D01*
X112006095Y-82868500D01*
X111910857Y-82868500D01*
X111815619Y-82916119D01*
X111768000Y-82963738D01*
X111720380Y-83058976D01*
X111720380Y-83297071D01*
X111768000Y-83439928D01*
X112720380Y-83868500D02*
X111720380Y-83868500D01*
X111720380Y-84249452D01*
X111768000Y-84344690D01*
X111815619Y-84392309D01*
X111910857Y-84439928D01*
X112053714Y-84439928D01*
X112148952Y-84392309D01*
X112196571Y-84344690D01*
X112244190Y-84249452D01*
X112244190Y-83868500D01*
X112720380Y-85439928D02*
X112244190Y-85106595D01*
X112720380Y-84868500D02*
X111720380Y-84868500D01*
X111720380Y-85249452D01*
X111768000Y-85344690D01*
X111815619Y-85392309D01*
X111910857Y-85439928D01*
X112053714Y-85439928D01*
X112148952Y-85392309D01*
X112196571Y-85344690D01*
X112244190Y-85249452D01*
X112244190Y-84868500D01*
X112720380Y-86392309D02*
X112720380Y-85820880D01*
X112720380Y-86106595D02*
X111720380Y-86106595D01*
X111863238Y-86011357D01*
X111958476Y-85916119D01*
X112006095Y-85820880D01*
X114370380Y-73678023D02*
X113894190Y-73344690D01*
X114370380Y-73106595D02*
X113370380Y-73106595D01*
X113370380Y-73487547D01*
X113418000Y-73582785D01*
X113465619Y-73630404D01*
X113560857Y-73678023D01*
X113703714Y-73678023D01*
X113798952Y-73630404D01*
X113846571Y-73582785D01*
X113894190Y-73487547D01*
X113894190Y-73106595D01*
X114322761Y-74487547D02*
X114370380Y-74392309D01*
X114370380Y-74201833D01*
X114322761Y-74106595D01*
X114227523Y-74058976D01*
X113846571Y-74058976D01*
X113751333Y-74106595D01*
X113703714Y-74201833D01*
X113703714Y-74392309D01*
X113751333Y-74487547D01*
X113846571Y-74535166D01*
X113941809Y-74535166D01*
X114037047Y-74058976D01*
X113703714Y-74868500D02*
X114370380Y-75106595D01*
X113703714Y-75344690D01*
X113370380Y-76916119D02*
X113370380Y-76725642D01*
X113418000Y-76630404D01*
X113465619Y-76582785D01*
X113608476Y-76487547D01*
X113798952Y-76439928D01*
X114179904Y-76439928D01*
X114275142Y-76487547D01*
X114322761Y-76535166D01*
X114370380Y-76630404D01*
X114370380Y-76820880D01*
X114322761Y-76916119D01*
X114275142Y-76963738D01*
X114179904Y-77011357D01*
X113941809Y-77011357D01*
X113846571Y-76963738D01*
X113798952Y-76916119D01*
X113751333Y-76820880D01*
X113751333Y-76630404D01*
X113798952Y-76535166D01*
X113846571Y-76487547D01*
X113941809Y-76439928D01*
X100592000Y-82550095D02*
X100544380Y-82454857D01*
X100544380Y-82312000D01*
X100592000Y-82169142D01*
X100687238Y-82073904D01*
X100782476Y-82026285D01*
X100972952Y-81978666D01*
X101115809Y-81978666D01*
X101306285Y-82026285D01*
X101401523Y-82073904D01*
X101496761Y-82169142D01*
X101544380Y-82312000D01*
X101544380Y-82407238D01*
X101496761Y-82550095D01*
X101449142Y-82597714D01*
X101115809Y-82597714D01*
X101115809Y-82407238D01*
X101544380Y-83026285D02*
X100544380Y-83026285D01*
X101544380Y-83597714D01*
X100544380Y-83597714D01*
X101544380Y-84073904D02*
X100544380Y-84073904D01*
X100544380Y-84312000D01*
X100592000Y-84454857D01*
X100687238Y-84550095D01*
X100782476Y-84597714D01*
X100972952Y-84645333D01*
X101115809Y-84645333D01*
X101306285Y-84597714D01*
X101401523Y-84550095D01*
X101496761Y-84454857D01*
X101544380Y-84312000D01*
X101544380Y-84073904D01*
X93432380Y-71818666D02*
X94432380Y-72152000D01*
X93432380Y-72485333D01*
X94337142Y-73390095D02*
X94384761Y-73342476D01*
X94432380Y-73199619D01*
X94432380Y-73104380D01*
X94384761Y-72961523D01*
X94289523Y-72866285D01*
X94194285Y-72818666D01*
X94003809Y-72771047D01*
X93860952Y-72771047D01*
X93670476Y-72818666D01*
X93575238Y-72866285D01*
X93480000Y-72961523D01*
X93432380Y-73104380D01*
X93432380Y-73199619D01*
X93480000Y-73342476D01*
X93527619Y-73390095D01*
X94337142Y-74390095D02*
X94384761Y-74342476D01*
X94432380Y-74199619D01*
X94432380Y-74104380D01*
X94384761Y-73961523D01*
X94289523Y-73866285D01*
X94194285Y-73818666D01*
X94003809Y-73771047D01*
X93860952Y-73771047D01*
X93670476Y-73818666D01*
X93575238Y-73866285D01*
X93480000Y-73961523D01*
X93432380Y-74104380D01*
X93432380Y-74199619D01*
X93480000Y-74342476D01*
X93527619Y-74390095D01*
X106608571Y-70660000D02*
X106656190Y-70802857D01*
X106703809Y-70850476D01*
X106799047Y-70898095D01*
X106941904Y-70898095D01*
X107037142Y-70850476D01*
X107084761Y-70802857D01*
X107132380Y-70707619D01*
X107132380Y-70326666D01*
X106132380Y-70326666D01*
X106132380Y-70660000D01*
X106180000Y-70755238D01*
X106227619Y-70802857D01*
X106322857Y-70850476D01*
X106418095Y-70850476D01*
X106513333Y-70802857D01*
X106560952Y-70755238D01*
X106608571Y-70660000D01*
X106608571Y-70326666D01*
X106846666Y-71279047D02*
X106846666Y-71755238D01*
X107132380Y-71183809D02*
X106132380Y-71517142D01*
X107132380Y-71850476D01*
X106132380Y-72040952D02*
X106132380Y-72612380D01*
X107132380Y-72326666D02*
X106132380Y-72326666D01*
X106132380Y-72802857D02*
X106132380Y-73374285D01*
X107132380Y-73088571D02*
X106132380Y-73088571D01*
X107227619Y-73469523D02*
X107227619Y-74231428D01*
X107132380Y-74469523D02*
X106132380Y-74469523D01*
X106132380Y-74850476D01*
X106180000Y-74945714D01*
X106227619Y-74993333D01*
X106322857Y-75040952D01*
X106465714Y-75040952D01*
X106560952Y-74993333D01*
X106608571Y-74945714D01*
X106656190Y-74850476D01*
X106656190Y-74469523D01*
X106132380Y-75660000D02*
X106132380Y-75850476D01*
X106180000Y-75945714D01*
X106275238Y-76040952D01*
X106465714Y-76088571D01*
X106799047Y-76088571D01*
X106989523Y-76040952D01*
X107084761Y-75945714D01*
X107132380Y-75850476D01*
X107132380Y-75660000D01*
X107084761Y-75564761D01*
X106989523Y-75469523D01*
X106799047Y-75421904D01*
X106465714Y-75421904D01*
X106275238Y-75469523D01*
X106180000Y-75564761D01*
X106132380Y-75660000D01*
X107084761Y-76469523D02*
X107132380Y-76612380D01*
X107132380Y-76850476D01*
X107084761Y-76945714D01*
X107037142Y-76993333D01*
X106941904Y-77040952D01*
X106846666Y-77040952D01*
X106751428Y-76993333D01*
X106703809Y-76945714D01*
X106656190Y-76850476D01*
X106608571Y-76660000D01*
X106560952Y-76564761D01*
X106513333Y-76517142D01*
X106418095Y-76469523D01*
X106322857Y-76469523D01*
X106227619Y-76517142D01*
X106180000Y-76564761D01*
X106132380Y-76660000D01*
X106132380Y-76898095D01*
X106180000Y-77040952D01*
M02*
