G04 #@! TF.GenerationSoftware,KiCad,Pcbnew,(5.1.0)-1*
G04 #@! TF.CreationDate,2019-03-28T23:54:11-04:00*
G04 #@! TF.ProjectId,PicoTrackerWSPR1Rev3,5069636f-5472-4616-936b-657257535052,rev?*
G04 #@! TF.SameCoordinates,Original*
G04 #@! TF.FileFunction,Paste,Top*
G04 #@! TF.FilePolarity,Positive*
%FSLAX46Y46*%
G04 Gerber Fmt 4.6, Leading zero omitted, Abs format (unit mm)*
G04 Created by KiCad (PCBNEW (5.1.0)-1) date 2019-03-28 23:54:11*
%MOMM*%
%LPD*%
G04 APERTURE LIST*
%ADD10C,0.100000*%
%ADD11C,0.066040*%
%ADD12O,3.799840X0.279400*%
%ADD13O,2.397760X1.648460*%
%ADD14O,0.279400X0.848360*%
%ADD15R,0.750000X1.200000*%
%ADD16R,1.200000X0.750000*%
%ADD17R,1.200000X0.900000*%
%ADD18R,1.000000X1.000000*%
%ADD19R,1.143000X3.048000*%
%ADD20R,0.400000X1.500000*%
%ADD21R,1.500000X0.400000*%
%ADD22R,0.797560X1.798320*%
%ADD23R,1.300000X0.248920*%
%ADD24R,0.550000X1.600000*%
%ADD25R,1.600000X0.550000*%
%ADD26R,1.193800X1.397000*%
G04 APERTURE END LIST*
D10*
X79852520Y-76093320D02*
G75*
G03X79852520Y-76093320I-114300J0D01*
G01*
X79352140Y-76093320D02*
G75*
G03X79352140Y-76093320I-114300J0D01*
G01*
X78854300Y-76093320D02*
G75*
G03X78854300Y-76093320I-114300J0D01*
G01*
X78356460Y-76093320D02*
G75*
G03X78356460Y-76093320I-114300J0D01*
G01*
X77856080Y-76093320D02*
G75*
G03X77856080Y-76093320I-114300J0D01*
G01*
X77856080Y-73766680D02*
G75*
G03X77856080Y-73766680I-114300J0D01*
G01*
X78356460Y-73766680D02*
G75*
G03X78356460Y-73766680I-114300J0D01*
G01*
X78854300Y-73766680D02*
G75*
G03X78854300Y-73766680I-114300J0D01*
G01*
X79352140Y-73766680D02*
G75*
G03X79352140Y-73766680I-114300J0D01*
G01*
X79852520Y-73766680D02*
G75*
G03X79852520Y-73766680I-114300J0D01*
G01*
D11*
X77416660Y-75079860D02*
X77416660Y-75328780D01*
X77416660Y-75328780D02*
X76840080Y-75328780D01*
X76840080Y-75079860D02*
X76840080Y-75328780D01*
X77416660Y-75079860D02*
X76840080Y-75079860D01*
X77416660Y-74531220D02*
X77416660Y-74780140D01*
X77416660Y-74780140D02*
X76840080Y-74780140D01*
X76840080Y-74531220D02*
X76840080Y-74780140D01*
X77416660Y-74531220D02*
X76840080Y-74531220D01*
X79395320Y-76321920D02*
X79395320Y-76550520D01*
X79580740Y-76321920D02*
X79580740Y-76550520D01*
X78897480Y-76321920D02*
X78897480Y-76550520D01*
X79080360Y-76321920D02*
X79080360Y-76550520D01*
X78399640Y-76321920D02*
X78399640Y-76550520D01*
X78582520Y-76321920D02*
X78582520Y-76550520D01*
X77899260Y-76321920D02*
X77899260Y-76550520D01*
X78084680Y-76321920D02*
X78084680Y-76550520D01*
X78084680Y-73309480D02*
X78084680Y-73538080D01*
X78582520Y-73309480D02*
X78582520Y-73538080D01*
X77899260Y-73309480D02*
X77899260Y-73538080D01*
X79080360Y-73309480D02*
X79080360Y-73538080D01*
X78399640Y-73309480D02*
X78399640Y-73538080D01*
X79580740Y-73309480D02*
X79580740Y-73538080D01*
X78897480Y-73309480D02*
X78897480Y-73538080D01*
X79395320Y-73309480D02*
X79395320Y-73538080D01*
X78590140Y-75079860D02*
X78590140Y-75727560D01*
X78590140Y-75079860D02*
X77566520Y-75079860D01*
X78590140Y-74132440D02*
X78590140Y-74780140D01*
X78590140Y-74780140D02*
X77566520Y-74780140D01*
X79913480Y-74780140D02*
X78889860Y-74780140D01*
X78889860Y-74132440D02*
X78889860Y-74780140D01*
X78889860Y-75079860D02*
X78889860Y-75727560D01*
X79913480Y-75079860D02*
X78889860Y-75079860D01*
X80639920Y-74531220D02*
X80639920Y-74780140D01*
X80639920Y-74780140D02*
X80063340Y-74780140D01*
X80063340Y-74531220D02*
X80063340Y-74780140D01*
X80639920Y-74531220D02*
X80063340Y-74531220D01*
X80639920Y-75079860D02*
X80639920Y-75328780D01*
X80639920Y-75328780D02*
X80063340Y-75328780D01*
X80063340Y-75079860D02*
X80063340Y-75328780D01*
X80639920Y-75079860D02*
X80063340Y-75079860D01*
D12*
X78740000Y-74655680D03*
X78740000Y-75204320D03*
D13*
X78740000Y-74930000D03*
D14*
X79738220Y-76403200D03*
X79237840Y-76403200D03*
X78740000Y-76403200D03*
X78242160Y-76403200D03*
X77741780Y-76403200D03*
X77741780Y-73456800D03*
X78242160Y-73456800D03*
X78740000Y-73456800D03*
X79237840Y-73456800D03*
X79738220Y-73456800D03*
D15*
X101219000Y-73533000D03*
X101219000Y-75433000D03*
X76073000Y-73411000D03*
X76073000Y-75311000D03*
X81407000Y-75311000D03*
X81407000Y-73411000D03*
X82677000Y-73411000D03*
X82677000Y-75311000D03*
X73660000Y-84196000D03*
X73660000Y-82296000D03*
D16*
X74554000Y-79502000D03*
X76454000Y-79502000D03*
X83947000Y-81661000D03*
X85847000Y-81661000D03*
D15*
X88519000Y-85085000D03*
X88519000Y-83185000D03*
X89154000Y-70424000D03*
X89154000Y-72324000D03*
X79883000Y-78364000D03*
X79883000Y-80264000D03*
D17*
X94996000Y-81788000D03*
X92796000Y-81788000D03*
X92796000Y-83312000D03*
X94996000Y-83312000D03*
D18*
X70104000Y-85471000D03*
X70104000Y-84201000D03*
D19*
X78422500Y-70739000D03*
X76263500Y-70739000D03*
D20*
X75184000Y-81280000D03*
X75834000Y-81280000D03*
X76484000Y-81280000D03*
X76484000Y-83940000D03*
X75834000Y-83940000D03*
X75184000Y-83940000D03*
D21*
X84201000Y-83185000D03*
X84201000Y-83835000D03*
X84201000Y-84485000D03*
X86861000Y-84485000D03*
X86861000Y-83835000D03*
X86861000Y-83185000D03*
D22*
X72336660Y-70553580D03*
X71236840Y-70553580D03*
X70137020Y-70553580D03*
X69037200Y-70553580D03*
X67937380Y-70553580D03*
X66837560Y-70553580D03*
X65735200Y-70553580D03*
X62738000Y-70553580D03*
X61638180Y-70553580D03*
X60538360Y-70553580D03*
X59438540Y-70553580D03*
X58338720Y-70553580D03*
X58338720Y-82550000D03*
X59438540Y-82550000D03*
X60538360Y-82550000D03*
X61638180Y-82550000D03*
X62738000Y-82550000D03*
X65735200Y-82550000D03*
X66837560Y-82550000D03*
X67937380Y-82550000D03*
X69037200Y-82550000D03*
X70137020Y-82550000D03*
X71236840Y-82550000D03*
X72336660Y-82550000D03*
D23*
X85852000Y-80627220D03*
X85852000Y-80126840D03*
X85852000Y-79629000D03*
X85852000Y-79131160D03*
X85852000Y-78630780D03*
X81352000Y-78630780D03*
X81352000Y-79131160D03*
X81352000Y-79629000D03*
X81352000Y-80126840D03*
X81352000Y-80627220D03*
D17*
X98974000Y-81788000D03*
X96774000Y-81788000D03*
X96774000Y-83312000D03*
X98974000Y-83312000D03*
X87417000Y-69723000D03*
X85217000Y-69723000D03*
X85217000Y-71120000D03*
X87417000Y-71120000D03*
X81239000Y-69723000D03*
X83439000Y-69723000D03*
D24*
X92450000Y-69537000D03*
X93250000Y-69537000D03*
X94050000Y-69537000D03*
X94850000Y-69537000D03*
X95650000Y-69537000D03*
X96450000Y-69537000D03*
X97250000Y-69537000D03*
X98050000Y-69537000D03*
D25*
X99500000Y-70987000D03*
X99500000Y-71787000D03*
X99500000Y-72587000D03*
X99500000Y-73387000D03*
X99500000Y-74187000D03*
X99500000Y-74987000D03*
X99500000Y-75787000D03*
X99500000Y-76587000D03*
D24*
X98050000Y-78037000D03*
X97250000Y-78037000D03*
X96450000Y-78037000D03*
X95650000Y-78037000D03*
X94850000Y-78037000D03*
X94050000Y-78037000D03*
X93250000Y-78037000D03*
X92450000Y-78037000D03*
D25*
X91000000Y-76587000D03*
X91000000Y-75787000D03*
X91000000Y-74987000D03*
X91000000Y-74187000D03*
X91000000Y-73387000D03*
X91000000Y-72587000D03*
X91000000Y-71787000D03*
X91000000Y-70987000D03*
D26*
X89458800Y-81203800D03*
X89458800Y-78994000D03*
X87757000Y-78994000D03*
X87757000Y-81203800D03*
D17*
X83439000Y-67183000D03*
X81239000Y-67183000D03*
X87426800Y-67183000D03*
X85226800Y-67183000D03*
D15*
X89154000Y-74046000D03*
X89154000Y-75946000D03*
M02*
